<svg width="1840" height="1380" viewBox="0 0 1840 1380" fill="none" xmlns="http://www.w3.org/2000/svg">
<path fill-rule="evenodd" clip-rule="evenodd" d="M1175.7 801.322L1285.92 766.726C1288.59 776.614 1289.92 784.781 1289.92 791.226C1289.92 797.67 1286.75 812.503 1280.42 835.726L1265.92 1087.73C1235.36 1079.73 1211.36 1075.73 1193.92 1075.73H1147.54L1146.33 1087.51C1115.77 1079.51 1091.77 1075.51 1074.33 1075.51C1056.88 1075.51 1027.88 1075.51 987.328 1075.51L1101.33 817.01L1177.33 785.51L1175.7 801.322Z" fill="white"/>
<path d="M1114.8 1040.01L1173.6 801.33C1173.66 801.076 1173.85 800.872 1174.1 800.794L1285.6 765.794C1286.01 765.666 1286.44 765.903 1286.55 766.314C1289.23 776.262 1290.58 784.49 1290.58 791.01C1290.58 797.54 1287.41 812.381 1281.07 835.631L1267.34 1074.25L1266.83 1110.51H898.328L1026.83 1040.01H1114.8ZM1267.81 1040.01L1279.58 835.466L1279.6 835.312C1285.92 812.161 1289.08 797.361 1289.08 791.01C1289.08 784.804 1287.82 776.951 1285.31 767.46L1174.95 802.099L1116.35 1040.01H1267.81Z" fill="#3B3B3B"/>
<path fill-rule="evenodd" clip-rule="evenodd" d="M1086.56 631.444L1090.42 625.226L1202.92 603.881C1257.92 596.57 1285.42 582.914 1285.42 562.914C1285.42 542.914 1267.09 533.248 1230.42 533.914L1228.92 460.914C1244.25 458.527 1265.25 459.736 1291.92 464.542C1331.92 471.752 1384.92 500.167 1378.92 572.265C1375.56 612.667 1351.15 650.995 1296.92 675.726C1290.06 678.852 1277.39 681.34 1258.92 683.189L1249.78 683.224L1307.42 763.726C1253.24 789.464 1211.74 806.464 1182.92 814.726C1154.1 822.987 1121.77 827.154 1085.92 827.226L1094.37 716.753L1039.42 735.226L1074.92 785.726L1042.81 833.726C974.106 798.953 941.939 762.62 946.311 724.726C950.683 686.831 997.35 655.165 1086.31 629.726L1086.56 631.444Z" fill="white"/>
<path d="M1086.12 629.289C1086.52 629.175 1086.93 629.406 1087.05 629.804C1087.16 630.202 1086.93 630.617 1086.53 630.731C997.841 656.093 951.398 687.608 947.073 725.096C942.747 762.59 974.711 798.695 1043.17 833.341C1043.54 833.528 1043.68 833.979 1043.5 834.349C1043.31 834.718 1042.86 834.866 1042.49 834.679C973.534 799.78 941.165 763.218 945.583 724.924C950.001 686.623 996.892 654.805 1086.12 629.289ZM1032.44 720.762L1096.42 701.226L1094.92 719.726L1094.12 720.004C1094.04 720.198 1093.88 720.359 1093.67 720.434L1043.99 737.897L1075.45 785.094C1075.68 785.439 1075.59 785.904 1075.24 786.134C1074.9 786.364 1074.43 786.271 1074.2 785.926L1042.57 738.476C1042.37 738.424 1042.19 738.312 1042.05 738.143C1038.02 733.204 1033.99 727.329 1029.97 720.519C1029.69 720.043 1029.84 719.43 1030.32 719.149C1030.79 718.868 1031.41 719.026 1031.69 719.501C1031.94 719.925 1032.19 720.345 1032.44 720.762Z" fill="#3B3B3B"/>
<path fill-rule="evenodd" clip-rule="evenodd" d="M646.263 1104.12L683.961 1103.88L684.715 954.503L613.922 953.699C570.732 953.208 534.362 985.875 530.229 1028.87L525.357 1079.54C524.142 1092.19 533.406 1103.42 546.051 1104.64C546.831 1104.71 547.615 1104.75 548.399 1104.74L624.669 1104.26L634.789 1040.73C635.05 1039.09 636.588 1037.97 638.224 1038.24C639.583 1038.45 640.621 1039.57 640.74 1040.94L646.263 1104.12Z" fill="white"/>
<path fill-rule="evenodd" clip-rule="evenodd" d="M625.804 665.726L642.304 636.726L718.713 642.01L706.213 711.51L684.26 954.891C647.168 954.826 625.319 954.866 618.713 955.01C612.107 955.154 607.637 955.059 605.304 954.726L562.41 931.751C527.844 913.237 514.831 870.206 533.345 835.64C533.621 835.126 533.903 834.615 534.191 834.108L597.737 722.186" fill="white"/>
<path fill-rule="evenodd" clip-rule="evenodd" d="M625.804 665.726L642.304 636.726L718.713 642.01L706.213 711.51L684.26 954.891C647.168 954.826 625.319 954.866 618.713 955.01C612.107 955.154 607.637 955.059 605.304 954.726L562.41 931.751C527.844 913.237 514.831 870.206 533.345 835.64C533.621 835.126 533.903 834.615 534.191 834.108L597.737 722.186" fill="white"/>
<path fill-rule="evenodd" clip-rule="evenodd" d="M714.42 641.118L679.596 843.234C671.763 888.696 696.479 933.516 739.107 951.151C757.956 958.949 778.249 973.534 818.912 945.57C833.82 935.318 846.761 922.992 857.735 908.592C873.533 887.863 876.704 860.146 865.996 836.385L774.77 633.955L714.42 641.118Z" fill="white"/>
<path d="M717.442 642.2L705.09 710.877L683.189 953.64C646.506 953.577 624.885 953.617 618.311 953.76C611.868 953.9 607.471 953.812 605.155 953.501L562.379 930.59C528.178 912.271 515.303 869.695 533.621 835.494C533.894 834.985 534.173 834.48 534.458 833.978L598.004 722.057C598.208 721.697 598.082 721.239 597.722 721.034C597.362 720.83 596.904 720.956 596.699 721.316L533.153 833.237C532.862 833.75 532.577 834.266 532.299 834.786C513.589 869.717 526.739 913.202 561.671 931.912L604.565 954.887C604.642 954.928 604.726 954.956 604.813 954.968C607.2 955.309 611.698 955.404 618.344 955.259C624.941 955.116 646.79 955.076 683.873 955.141C684.262 955.142 684.587 954.845 684.622 954.458L706.575 711.077L719.066 641.642C719.145 641.203 718.825 640.792 718.379 640.761L641.971 635.476C641.683 635.458 641.41 635.604 641.267 635.855L624.767 664.855C624.562 665.215 624.688 665.673 625.048 665.878C625.408 666.082 625.866 665.957 626.071 665.597L642.338 637.006L717.442 642.2Z" fill="#3B3B3B"/>
<path d="M531.211 1026.73C531.121 1027.46 531.041 1028.19 530.97 1028.92L526.099 1079.6C524.923 1091.83 533.885 1102.7 546.117 1103.88C546.872 1103.95 547.63 1103.98 548.389 1103.98L624.023 1103.49L634.043 1040.59C634.369 1038.55 636.291 1037.15 638.337 1037.48C640.036 1037.75 641.333 1039.14 641.482 1040.85L646.945 1103.35L683.21 1103.12L683.595 1026.73H531.211V1026.73ZM646.263 1104.85C645.872 1104.86 645.545 1104.56 645.511 1104.17L639.988 1040.99C639.898 1039.96 639.12 1039.12 638.101 1038.96C636.874 1038.76 635.72 1039.6 635.525 1040.83L625.404 1104.36C625.346 1104.72 625.035 1104.99 624.668 1104.99L548.398 1105.48C547.589 1105.48 546.78 1105.45 545.974 1105.37C532.917 1104.11 523.35 1092.51 524.606 1079.46L529.477 1028.78C533.647 985.399 570.346 952.437 613.925 952.932L684.718 953.736C685.131 953.741 685.462 954.078 685.46 954.49L684.706 1103.87C684.704 1104.28 684.372 1104.61 683.961 1104.61L646.263 1104.85Z" fill="#3B3B3B"/>
<path fill-rule="evenodd" clip-rule="evenodd" d="M733.615 1099.52L730.549 995.149C729.676 965.425 753.064 940.621 782.788 939.748C783.335 939.731 783.881 939.724 784.428 939.724C814.759 939.758 839.32 964.373 839.287 994.704C839.287 994.9 839.285 995.096 839.283 995.291L838.05 1099.86L820.384 1120.33C810.685 1131.56 794.381 1134.35 781.502 1126.97L733.615 1099.52Z" fill="white"/>
<path fill-rule="evenodd" clip-rule="evenodd" d="M714.42 641.118L679.596 843.234C671.763 888.696 696.479 933.516 739.107 951.151C757.956 958.949 778.249 973.534 818.912 945.57C833.82 935.318 846.761 922.992 857.735 908.592C873.533 887.863 876.704 860.146 865.996 836.385L774.77 633.955L714.42 641.118Z" fill="white"/>
<path d="M713.741 639.809C713.411 639.848 713.147 640.1 713.09 640.427L678.266 842.543C670.374 888.351 695.278 933.512 738.23 951.28C739.439 951.781 740.698 952.326 742.298 953.037C742.925 953.316 745.713 954.566 746.47 954.903C758.342 960.176 766.009 962.357 775.816 962.148C788.611 961.875 802.513 956.789 818.747 945.625C833.72 935.327 846.719 922.946 857.741 908.483C873.706 887.536 876.91 859.525 866.089 835.513L774.863 633.083C774.729 632.785 774.416 632.608 774.091 632.646L713.741 639.809ZM773.722 634.201L864.722 836.13C875.316 859.639 872.179 887.064 856.548 907.574C845.622 921.911 832.739 934.181 817.897 944.389C801.89 955.397 788.264 960.383 775.784 960.648C766.248 960.851 758.766 958.723 747.079 953.532C746.325 953.197 743.537 951.947 742.907 951.667C741.296 950.95 740.026 950.4 738.803 949.894C696.499 932.394 671.971 887.914 679.744 842.798L714.474 641.233L773.722 634.201Z" fill="#3B3B3B"/>
<path d="M838.366 1040.23C821.504 1052.15 806.64 1057.99 793.773 1057.73C780.729 1057.46 760.441 1050.75 732.91 1037.59L734.716 1099.07L782.238 1126.31C794.806 1133.51 810.716 1130.79 820.18 1119.83L837.666 1099.57L838.366 1040.23ZM733.229 1099.54L730.163 995.162C729.277 965.024 752.991 939.874 783.129 938.989C783.684 938.973 784.238 938.966 784.793 938.965C815.538 938.999 840.434 963.951 840.4 994.696C840.4 994.894 840.399 995.093 840.397 995.291L839.163 1099.86C839.161 1100.03 839.097 1100.2 838.981 1100.34L821.316 1120.81C811.382 1132.32 794.683 1135.17 781.493 1127.61L733.606 1100.17C733.379 1100.04 733.237 1099.8 733.229 1099.54ZM734.728 1099.49L734.716 1099.07L734.351 1098.86L734.728 1099.49Z" fill="#3B3B3B"/>
<path fill-rule="evenodd" clip-rule="evenodd" d="M660.919 549.226C630.252 547.226 609.919 565.559 599.919 604.226C594.364 625.707 599.919 631.493 599.919 641.726C599.919 655.226 607.922 691.337 567.419 694.726C539.034 697.101 500.67 672.306 495.419 631.726C489.919 589.226 503.168 569.058 514.919 541.226C545.359 469.13 657.267 443.918 692.419 468.226C715.853 484.431 756.52 501.431 814.419 519.226L809.419 641.726L788.419 696.726C753.584 692.73 726.417 687.73 706.919 681.726C687.421 675.722 659.921 663.888 624.419 646.226L660.919 549.226Z" fill="white"/>
<path d="M613.437 651.431C613.265 651.363 613.092 651.294 612.919 651.225L612.938 651.188C612.658 650.963 612.569 650.559 612.757 650.231C615.555 645.329 618.135 640.731 620.498 636.437L633.419 611.225C636.026 604.64 638.356 598.781 640.41 593.646C644.49 582.129 648.874 571.682 653.325 562.419C655.146 558.629 656.849 555.311 658.387 552.488C658.905 551.538 659.368 550.71 659.772 550.006C659.821 549.912 659.87 549.819 659.919 549.725C659.917 549.737 659.915 549.749 659.913 549.76C660.114 549.412 660.257 549.17 660.336 549.039C660.55 548.684 661.011 548.57 661.366 548.784C661.72 548.999 661.834 549.46 661.62 549.814C661.535 549.956 661.366 550.241 661.122 550.667C660.712 551.379 660.238 552.226 659.704 553.205C659.51 553.563 659.313 553.928 659.113 554.301C651.767 597.547 654.536 628.189 667.419 646.225C678.954 662.375 690.49 673.41 702.025 679.33C703.69 679.706 705.348 680.07 707.001 680.421C736.269 686.641 761.254 689.422 781.95 688.769C782.364 688.756 782.711 689.081 782.725 689.495C782.737 689.909 782.412 690.256 781.998 690.27C761.168 690.926 736.067 688.131 706.69 681.889C677.413 675.668 646.329 665.515 613.437 651.431Z" fill="#3B3B3B"/>
<path fill-rule="evenodd" clip-rule="evenodd" d="M809.452 715.093C871.113 716.845 903.968 694.746 915.017 647.797C931.59 577.374 848.503 512.859 808.083 499.726L771.419 636.226L774.919 687.726C780.245 699.619 785.078 707.286 789.419 710.726C792.752 713.368 799.43 714.823 809.452 715.093Z" fill="white"/>
<path d="M809.44 713.976C870.116 715.699 903.171 694.351 914.254 647.257C921.724 615.515 909.317 582.601 882.33 552.41C860.497 527.984 830.155 507.329 807.819 500.071C807.425 499.943 807.209 499.52 807.337 499.126C807.465 498.732 807.888 498.517 808.282 498.645C830.881 505.988 861.445 526.793 883.449 551.41C910.732 581.933 923.313 615.31 915.714 647.601C904.455 695.443 870.739 717.217 809.398 715.475C808.984 715.463 808.657 715.118 808.669 714.704C808.681 714.29 809.026 713.964 809.44 713.976Z" fill="#3B3B3B"/>
<path d="M1230.09 461.54L1231.56 533.135C1268.1 532.608 1286.58 542.49 1286.58 562.897C1286.58 583.447 1258.78 597.248 1203.43 604.607C1203.02 604.662 1202.64 604.373 1202.58 603.963C1202.53 603.552 1202.82 603.175 1203.23 603.12C1257.87 595.856 1285.08 582.347 1285.08 562.897C1285.08 543.442 1267.14 533.987 1230.84 534.647C1230.43 534.654 1230.09 534.326 1230.08 533.912L1228.58 460.912C1228.57 460.537 1228.84 460.213 1229.21 460.156C1244.64 457.753 1265.72 458.967 1292.46 463.787C1315.72 467.979 1337.67 478.02 1353.6 493.515C1373.21 512.589 1382.86 538.82 1380.08 572.309C1377.29 605.8 1360.24 634.409 1333.48 655.337C1310.55 673.267 1282 683.921 1259.33 683.921C1258.91 683.921 1258.58 683.586 1258.58 683.171C1258.58 682.757 1258.91 682.421 1259.33 682.421C1281.65 682.421 1309.88 671.887 1332.55 654.155C1359 633.472 1375.83 605.234 1378.58 572.185C1381.33 539.139 1371.85 513.349 1352.55 494.591C1336.85 479.323 1315.18 469.406 1292.19 465.263C1265.98 460.537 1245.27 459.3 1230.09 461.54ZM1248.92 683.226L1307.42 764.226L1287.42 774.226C1280.75 764.559 1271.92 752.892 1260.92 739.226C1249.92 725.559 1245.92 706.892 1248.92 683.226Z" fill="#3B3B3B"/>
<path d="M660.834 548.668C629.77 546.642 609.142 565.241 599.059 604.228C595.848 616.645 595.92 622.883 597.967 633.344C598.269 634.884 598.417 635.677 598.564 636.584C598.878 638.525 599.035 640.195 599.035 641.916C599.035 642.527 599.051 643.204 599.083 643.977C599.133 645.221 599.473 650.798 599.542 652.258C599.713 655.934 599.731 659.042 599.55 662.069C598.416 681.016 589.412 692.312 567.223 694.169C553.108 695.35 536.614 689.706 523.077 678.937C508.348 667.22 498.472 650.699 496.029 631.82C494.04 616.451 494.409 603.369 496.87 591.092C498.868 581.131 501.946 572.415 507.451 559.892C507.029 560.851 513.649 546.035 515.476 541.708C529.389 508.756 561.783 483.126 602.01 469.475C638.073 457.237 674.562 457.072 691.859 469.033C692.2 469.269 692.667 469.183 692.902 468.843C693.138 468.502 693.053 468.035 692.712 467.799C674.944 455.512 637.995 455.679 601.528 468.055C560.927 481.833 528.194 507.731 514.094 541.124C512.275 545.434 505.662 560.234 506.078 559.288C500.533 571.902 497.423 580.71 495.4 590.797C492.905 603.238 492.532 616.485 494.542 632.012C497.037 651.292 507.119 668.159 522.143 680.111C535.966 691.107 552.831 696.878 567.348 695.663C579.79 694.622 588.455 690.482 593.903 683.646C598.371 678.041 600.524 670.907 601.047 662.159C601.232 659.071 601.214 655.913 601.04 652.188C600.971 650.711 600.631 645.141 600.581 643.917C600.551 643.162 600.535 642.505 600.535 641.916C600.535 640.107 600.371 638.359 600.044 636.344C599.894 635.416 599.744 634.611 599.44 633.056C597.432 622.799 597.363 616.78 600.512 604.604C610.429 566.258 630.467 548.19 660.737 550.164C661.15 550.191 661.507 549.878 661.534 549.465C661.561 549.052 661.248 548.695 660.834 548.668Z" fill="#3B3B3B"/>
<path fill-rule="evenodd" clip-rule="evenodd" d="M1151.48 603.699L1049.47 619.386C1047.83 619.638 1046.71 621.17 1046.96 622.808C1047.16 624.109 1048.19 625.128 1049.49 625.32L1095.63 632.121L1079.83 666.898C1079.15 668.407 1079.81 670.185 1081.32 670.871C1082.45 671.383 1083.78 671.149 1084.66 670.283L1122.21 633.517L1131.87 679.852C1132.21 681.474 1133.79 682.515 1135.42 682.176C1136.6 681.93 1137.52 680.999 1137.75 679.814L1146.53 634.794L1187.19 668.213C1188.47 669.265 1190.36 669.08 1191.41 667.8C1192.1 666.964 1192.29 665.823 1191.89 664.814L1178.53 630.224L1221.85 643.41C1223.44 643.892 1225.11 642.998 1225.6 641.413C1225.91 640.383 1225.65 639.263 1224.91 638.48L1199.36 611.432L1243.17 599.707C1244.77 599.279 1245.72 597.634 1245.29 596.034C1244.96 594.778 1243.85 593.881 1242.55 593.813L1200.4 591.6L1221.11 571.402C1222.3 570.246 1222.32 568.346 1221.17 567.16C1220.22 566.188 1218.74 565.973 1217.55 566.638L1151.48 603.699Z" fill="#3B3B3B"/>
<path fill-rule="evenodd" clip-rule="evenodd" d="M745.79 523.034C742.479 526.104 738.52 528.179 733.868 529.811C725.465 532.759 714.926 534.057 706.375 529.699C700.372 526.641 693.464 520.256 690.315 514.829C685.555 506.626 685.944 497.854 689.54 488.836C684.702 489.004 679.838 488.238 675.483 486.02C669.441 482.941 662.484 476.518 659.311 471.062C653.697 461.409 655.179 450.979 660.625 440.29C664.346 432.986 670.406 426.382 677.376 423.343C686.373 419.422 696.928 420.628 706.355 425.431C714.88 429.775 720.968 437.319 723.585 445.792C724.841 449.859 725.294 454.137 724.914 458.422C728.792 461.04 734.097 467.848 737.108 469.382C741.833 471.789 757.897 475.689 762.614 479.757C763.516 479.226 764.437 478.752 765.376 478.343C774.373 474.422 784.928 475.628 794.355 480.431C802.88 484.775 808.968 492.319 811.585 500.792C814.103 508.947 813.394 517.956 809.213 526.161C805.075 534.283 799.124 538.368 791.148 541.156C782.695 544.112 772.092 545.406 763.483 541.02C757.441 537.941 750.484 531.518 747.311 526.062C746.728 525.061 746.223 524.051 745.79 523.034Z" fill="#3B3B3B"/>
<path d="M786.463 394.124L805.344 405.809C814.927 411.74 819.584 423.124 816.779 433.761C812.588 449.654 808.476 461.598 804.445 469.594C800.41 477.595 795.473 484.635 789.634 490.712C785.983 494.512 780.496 496.009 775.28 494.629L772.343 493.853C769.058 492.983 765.956 491.495 763.21 489.471L748.76 478.817L742.803 484.72L718.378 462.959L743.289 406.749C749.926 391.771 767.702 385.287 782.991 392.266C784.186 392.811 785.346 393.432 786.463 394.124Z" fill="white"/>
<path fill-rule="evenodd" clip-rule="evenodd" d="M769.568 455.043C771.395 446.521 775.271 441.298 781.196 439.374C790.083 436.487 795.076 435.827 799.463 436.936C803.726 438.014 814.459 439.894 814.459 439.894C814.459 439.894 810.106 453.808 805.242 467.217C800.378 480.625 786.911 491.426 786.911 491.426C786.911 491.426 762.88 477.356 769.568 455.043Z" fill="#FF83F4"/>
<path d="M805.428 468.701C810.76 470.761 812.638 473.71 811.064 477.55C809.884 480.428 806.544 481.752 803.605 480.507C803.261 480.362 802.933 480.184 802.622 479.977L800.056 478.265C797.046 482.941 793.667 487.227 789.919 491.122C786.082 495.109 780.316 496.681 774.834 495.233L772.016 494.488C768.555 493.574 765.295 491.995 762.422 489.841L748.932 479.727L744.433 485.096C744.171 485.408 743.7 485.446 743.376 485.182L717.954 464.433C717.689 464.217 717.598 463.856 717.731 463.551L742.446 406.76C749.14 391.379 767.312 384.613 783.034 391.649C784.329 392.228 785.585 392.894 786.793 393.64L805.467 405.18C815.339 411.281 820.136 422.99 817.246 433.932C813.24 449.102 809.303 460.688 805.428 468.701ZM748.212 478.216C748.465 477.914 748.919 477.868 749.243 478.111L763.313 488.659C766.024 490.692 769.102 492.183 772.368 493.045L775.187 493.79C780.138 495.098 785.347 493.678 788.813 490.077C794.603 484.06 799.5 477.089 803.503 469.161C807.508 461.23 811.605 449.345 815.786 433.518C818.507 423.214 813.989 412.187 804.692 406.442L786.019 394.902C784.869 394.192 783.674 393.559 782.442 393.007C767.488 386.315 750.202 392.75 743.835 407.382L719.344 463.656L743.732 483.562L748.212 478.216Z" fill="#3B3B3B"/>
<path fill-rule="evenodd" clip-rule="evenodd" d="M742.348 396.82C743.292 393.489 741.835 393.13 737.976 395.743C734.609 398.024 728.104 406.959 718.462 422.547C715.272 427.705 713.664 433.685 713.839 439.747C713.933 443.018 714.228 445.589 714.722 447.459C715.641 450.93 717.807 454.097 721.222 456.959L743.722 436.459L751.898 431.558C746.433 440.353 743.975 445.138 744.523 445.914C745.931 447.909 749.458 449.623 755.102 451.055C759.389 439.165 762.911 431.613 765.668 428.397C768.424 425.182 763.559 416.293 751.07 401.73L742.348 396.82Z" fill="white"/>
<path d="M742.339 393.591C741.324 393.341 739.859 393.962 737.752 395.389C734.257 397.756 727.732 406.719 718.021 422.419C714.753 427.702 713.107 433.826 713.286 440.035C713.382 443.359 713.682 445.983 714.194 447.918C715.155 451.548 717.41 454.844 720.937 457.801C721.225 458.042 721.647 458.033 721.924 457.78L744.369 437.331L749.844 434.048C745.127 441.784 743.336 445.521 744.107 446.614C745.648 448.797 749.309 450.576 755.114 452.049C755.488 452.144 755.874 451.939 756.004 451.576C760.261 439.772 763.756 432.275 766.434 429.152C769.586 425.476 764.639 416.438 751.836 401.508C751.779 401.442 751.711 401.386 751.635 401.343L743.413 396.715C743.794 395.007 743.526 393.883 742.339 393.591ZM765.295 428.176C762.51 431.424 759.039 438.819 754.826 450.424C749.762 449.078 746.598 447.503 745.357 445.783L745.363 445.792C745.393 445.835 745.395 445.832 745.4 445.787C745.419 445.627 745.479 445.391 745.582 445.091C745.807 444.436 746.22 443.52 746.82 442.353C748.038 439.981 750.009 436.602 752.732 432.22C753.147 431.552 752.384 430.777 751.709 431.181L743.533 436.083L743.414 436.171L721.404 456.225C718.389 453.572 716.476 450.677 715.644 447.534C715.166 445.728 714.878 443.211 714.785 439.992C714.615 434.077 716.184 428.241 719.297 423.208C728.87 407.732 735.354 398.825 738.593 396.631C740.345 395.444 741.538 394.938 741.98 395.047C742.024 395.058 742.035 395.073 742.06 395.249C742.107 395.587 742.033 396.14 741.823 396.882C741.729 397.215 741.875 397.57 742.177 397.74L750.784 402.585C762.894 416.723 767.651 425.429 765.295 428.176Z" fill="#3B3B3B"/>
<path fill-rule="evenodd" clip-rule="evenodd" d="M789.299 479.641L795.308 482.928L791.619 487.63C791.295 488.042 790.729 488.176 790.255 487.952C789.73 487.703 789.303 487.287 789.041 486.768L786.709 482.148C786.239 481.217 786.612 480.082 787.543 479.612C788.097 479.332 788.754 479.343 789.299 479.641ZM803.853 456.491C799.888 454.291 796.975 453.809 795.111 455.045C792.317 456.9 789.278 456.769 788.973 454.288C788.669 451.806 791.838 448.898 797.602 450.709C801.444 451.917 803.528 453.844 803.853 456.491Z" fill="white"/>
<path d="M795.9 481.809C796.306 482.032 796.416 482.566 796.13 482.93L792.441 487.633C791.902 488.321 790.958 488.544 790.167 488.17C789.491 487.85 788.941 487.314 788.604 486.646L786.271 482.026C785.615 480.726 786.137 479.139 787.437 478.483C788.212 478.092 789.13 478.107 789.891 478.523L795.9 481.809ZM789.172 479.839C788.843 479.66 788.447 479.653 788.113 479.822C787.552 480.105 787.327 480.789 787.61 481.35L789.943 485.97C790.13 486.34 790.434 486.637 790.809 486.814C790.966 486.888 791.154 486.844 791.261 486.707L794.404 482.701L789.172 479.839ZM804.829 455.939C804.904 456.548 804.257 456.984 803.721 456.686C799.976 454.608 797.326 454.17 795.758 455.21C792.468 457.393 788.845 457.043 788.461 453.919C788.012 450.262 792.509 447.79 798.059 449.534C802.155 450.821 804.463 452.956 804.829 455.939ZM797.609 450.965C792.98 449.51 789.656 451.338 789.95 453.736C790.155 455.41 792.415 455.628 794.929 453.96C796.806 452.715 799.452 452.949 802.86 454.557C802.062 453.019 800.334 451.821 797.609 450.965Z" fill="#3B3B3B"/>
<path fill-rule="evenodd" clip-rule="evenodd" d="M746.958 433.828C747.222 425.483 743.39 421.298 735.461 421.272C723.568 421.233 714.413 447.761 736.961 454.584" fill="white"/>
<path d="M739.483 430.243C739.427 430.629 739.081 430.911 738.686 430.883C734.005 430.545 731.012 432.146 729.526 435.723C729.367 436.105 728.928 436.287 728.545 436.128C728.163 435.969 727.981 435.53 728.14 435.147C729.89 430.937 733.502 429.005 738.794 429.387C738.836 429.39 738.877 429.396 738.916 429.406C736.704 426.565 733.112 426.565 726.071 430.447C725.832 430.579 725.553 430.567 725.333 430.44C724.638 431.941 724.118 433.584 723.827 435.306C722.426 443.586 726.527 450.875 736.211 454.238C736.602 454.374 736.809 454.802 736.673 455.193C736.537 455.584 736.11 455.791 735.718 455.655C725.33 452.047 720.827 444.044 722.348 435.056C723.7 427.068 729.625 420.58 735.845 420.852C744.197 421.217 748.171 425.925 747.54 434.666C747.529 434.822 747.47 434.964 747.379 435.078C747.434 435.298 747.388 435.54 747.234 435.73C745.714 437.61 743.839 437.581 742.075 435.712C741.797 435.417 741.563 435.033 741.328 434.527C741.107 434.051 740.358 432.06 740.194 431.672C739.974 431.152 739.738 430.675 739.483 430.243ZM726.3 428.622C734.992 424.082 739.22 425.519 741.575 431.088C741.759 431.524 742.497 433.482 742.689 433.896C742.861 434.269 743.018 434.526 743.166 434.682C744.33 435.915 745.141 435.929 746.064 434.792C746.045 434.717 746.038 434.639 746.044 434.558C746.615 426.643 743.269 422.678 735.779 422.35C732.218 422.195 728.652 424.743 726.3 428.622Z" fill="#3B3B3B"/>
<path fill-rule="evenodd" clip-rule="evenodd" d="M734.366 400.12C747.714 414.185 760.627 424.798 773.103 431.959C785.578 439.12 799.711 441.349 815.5 438.647C836.596 416.577 849.273 404.539 853.529 402.531C859.914 399.518 869.372 402.865 871.202 410.772C872.422 416.043 865.719 433.572 851.093 463.361C876.573 447.366 890.15 437.575 891.822 433.989C894.331 428.61 926.072 399.581 882.283 368.079C853.091 347.077 826.269 352.539 801.82 384.464C804.463 355.133 797.561 335.625 781.113 325.94C756.441 311.413 737.838 319.363 724.331 348.33C715.326 367.641 710.225 379.368 709.028 383.512C729.501 364.847 741.853 356.5 746.082 358.473C750.311 360.445 746.406 374.327 734.366 400.12Z" fill="white"/>
<path d="M857.633 458.475C878.476 445.173 889.77 436.836 891.196 433.778C891.442 433.25 891.883 432.588 892.708 431.468C892.62 431.587 894.561 428.983 895.2 428.098C900.037 421.396 903.087 415.343 904.19 408.471C906.35 395.012 899.895 381.74 881.899 368.793C853.13 348.096 826.827 353.38 802.668 384.766C802.666 384.798 802.663 384.83 802.657 384.862L800.157 398.362C800.081 398.77 799.69 399.039 799.283 398.963C798.875 398.888 798.606 398.496 798.682 398.089L801.148 384.772C801.126 384.689 801.118 384.599 801.126 384.502C803.746 355.432 796.944 336.206 780.786 326.692C756.755 312.542 738.528 319.878 725.064 348.752C718.598 362.618 714.145 372.575 711.717 378.592C712.104 378.784 712.476 378.996 712.832 379.227C731.103 362.953 742.1 355.869 746.452 357.899C751.328 360.172 747.489 373.936 735.315 400.079C748.492 413.911 761.231 424.355 773.529 431.414C785.785 438.449 799.659 440.664 815.183 438.055C836.281 415.99 848.891 404.021 853.263 401.958C860.45 398.567 870.133 402.703 871.986 410.708C873.15 415.734 867.727 430.653 855.67 455.857C855.74 455.926 855.809 455.994 855.877 456.064C856.572 456.781 857.163 457.591 857.633 458.475ZM854.484 454.857C866.209 430.301 871.572 415.569 870.525 411.047C868.896 404.008 860.255 400.318 853.903 403.315C849.774 405.263 837.087 417.311 816.095 439.271C815.984 439.387 815.838 439.465 815.68 439.492C799.724 442.223 785.414 439.965 772.783 432.715C760.238 425.515 747.271 414.856 733.875 400.742C733.663 400.518 733.609 400.188 733.74 399.908C745.476 374.767 749.372 360.915 745.818 359.258C742.328 357.631 731.537 364.619 714.059 380.146C715.549 381.432 716.657 383.075 717.279 384.866C718.186 387.475 718.058 390.395 716.799 393.096C715.553 395.769 713.675 397.156 711.127 398.148C708.428 399.199 705.014 399.737 702.181 398.416C700.193 397.489 697.87 395.491 696.783 393.762C694.859 390.705 695.22 387.316 696.86 383.798C697.981 381.395 699.866 379.191 702.085 378.13C704.603 376.926 707.554 376.989 710.338 378.004C712.791 371.928 717.242 361.976 723.704 348.119C737.521 318.489 756.701 310.77 781.547 325.4C797.808 334.975 804.88 353.927 802.825 382.133C827.101 351.66 853.853 346.769 882.775 367.576C901.207 380.836 907.927 394.653 905.671 408.709C904.523 415.858 901.378 422.101 896.416 428.975C895.769 429.872 893.822 432.484 893.916 432.357C893.153 433.394 892.744 434.007 892.555 434.412C890.947 437.861 879.619 446.238 858.25 459.862C858.686 461.064 858.919 462.366 858.919 463.726C858.919 466.675 857.804 468.726 855.914 470.702C853.911 472.795 851.045 474.726 847.919 474.726C845.725 474.726 842.776 473.896 841.06 472.789C838.024 470.831 836.919 467.607 836.919 463.726C836.919 461.074 837.696 458.28 839.259 456.38C841.276 453.928 844.496 452.726 847.919 452.726C850.354 452.726 852.645 453.518 854.484 454.857Z" fill="#3B3B3B"/>
<path d="M1128.32 513.863L1089.09 522.485C1075.6 525.449 1067.07 538.783 1070.03 552.269C1070.13 552.72 1070.25 553.169 1070.37 553.614C1075.31 571.352 1079.11 584.291 1081.75 592.431C1087.38 609.762 1106 619.246 1123.33 613.615C1123.67 613.505 1124 613.389 1124.34 613.268L1136.92 608.726L1135.42 616.226L1177.92 596.726L1176.77 579.127C1176.54 575.541 1175.85 571.999 1174.72 568.585L1163.25 533.771C1158.43 519.16 1143.34 510.561 1128.32 513.863Z" fill="white"/>
<path fill-rule="evenodd" clip-rule="evenodd" d="M1083.42 563.726L1078.33 597.949L1099.83 610.51L1111.33 587.708L1083.42 563.726ZM1125.92 549.226L1120.33 581.598L1144.27 601.01L1153.33 567.363L1125.92 549.226Z" fill="#56FFB2"/>
<path d="M1134.13 615.602C1134.01 616.203 1134.62 616.689 1135.18 616.434L1177.69 596.983C1177.98 596.854 1178.15 596.564 1178.13 596.254L1177.04 578.906C1176.81 575.222 1176.1 571.584 1174.95 568.078L1163.7 533.953C1158.76 518.968 1143.27 510.155 1127.87 513.556L1088.64 522.214C1074.75 525.279 1065.98 539.022 1069.05 552.909C1069.15 553.364 1069.26 553.815 1069.38 554.264C1074.25 571.739 1077.99 584.497 1080.6 592.54C1086.31 610.107 1105.18 619.721 1122.74 614.013C1123.08 613.903 1123.42 613.787 1123.76 613.665L1135.38 609.471L1134.13 615.602ZM1137.12 608.462C1137.24 607.888 1136.68 607.408 1136.13 607.606L1123.25 612.254C1122.93 612.37 1122.6 612.481 1122.28 612.586C1105.5 618.038 1087.48 608.856 1082.03 592.077C1079.42 584.058 1075.69 571.318 1070.83 553.862C1070.71 553.439 1070.61 553.014 1070.51 552.586C1067.62 539.508 1075.89 526.566 1088.96 523.679L1128.19 515.021C1142.85 511.785 1157.57 520.169 1162.27 534.423L1173.53 568.548C1174.64 571.932 1175.32 575.444 1175.54 579L1176.6 595.833L1135.9 614.456L1137.12 608.462Z" fill="#3B3B3B"/>
<path fill-rule="evenodd" clip-rule="evenodd" d="M1135.19 583.183C1135.48 583.523 1135.39 583.878 1134.93 584.247C1134.5 584.59 1133.76 584.663 1133.66 584.692C1132.63 584.965 1131.58 584.375 1131.28 583.361H1131.28C1130.69 581.342 1130.35 580.171 1130.26 579.846C1130.18 579.559 1129.9 578.412 1129.4 576.405C1129.19 575.559 1129.7 574.701 1130.54 574.476C1131.75 574.153 1132.99 574.852 1133.34 576.051C1133.69 577.229 1133.87 577.846 1133.88 577.901C1133.9 577.988 1134.34 579.749 1135.19 583.183ZM1099.6 594.117C1099.88 594.457 1099.8 594.812 1099.33 595.181C1098.9 595.524 1098.17 595.597 1098.06 595.626C1097.04 595.899 1095.98 595.309 1095.69 594.295C1095.09 592.276 1094.75 591.105 1094.66 590.78C1094.59 590.493 1094.3 589.346 1093.8 587.339C1093.6 586.493 1094.1 585.635 1094.94 585.41C1096.15 585.087 1097.39 585.786 1097.74 586.985C1098.09 588.163 1098.27 588.78 1098.28 588.835C1098.31 588.922 1098.74 590.683 1099.6 594.117ZM1108.83 565.516C1108.62 564.877 1108.93 564.181 1109.54 563.91C1110.2 563.621 1110.97 563.921 1111.26 564.58L1120.34 585.291C1120.39 585.4 1120.44 585.509 1120.48 585.62C1121.51 588.468 1120.04 591.616 1117.19 592.651L1115.69 593.197C1115.38 593.309 1115.07 593.399 1114.75 593.468C1110.92 594.286 1107.15 591.842 1106.33 588.01C1105.87 585.858 1108.53 583.858 1114.33 582.01L1108.83 565.516Z" fill="#3B3B3B"/>
<path fill-rule="evenodd" clip-rule="evenodd" d="M792.291 469.403C794.473 466.618 795.591 465.189 795.645 465.117C795.679 465.071 796.055 464.55 796.771 463.554L796.771 463.554C797.5 462.54 797.286 461.129 796.288 460.377C795.592 459.853 794.604 459.982 794.066 460.667C792.79 462.293 792.062 463.225 791.883 463.462C791.681 463.731 790.968 464.72 789.743 466.432L789.743 466.432C789.128 467.291 789.311 468.485 790.155 469.121C790.244 469.188 790.753 469.72 791.29 469.85C791.866 469.989 792.2 469.84 792.291 469.403Z" fill="#3B3B3B"/>
<path fill-rule="evenodd" clip-rule="evenodd" d="M1093.53 546.248C1089.6 546.985 1085.87 547.644 1082.37 548.226C1075.27 549.404 1072.07 549.761 1072.8 549.295L1070.37 551.726C1069.77 559.207 1069.77 565.874 1070.37 571.726C1070.98 577.577 1074.48 583.744 1080.87 590.226C1077.37 576.591 1076.87 567.091 1079.37 561.726C1081.17 557.872 1086.32 553.691 1094.82 549.183C1094.84 549.197 1094.85 549.211 1094.87 549.226L1104.27 544.641C1104.95 544.337 1105.66 544.032 1106.37 543.726C1106.24 543.753 1106.11 543.78 1105.98 543.807L1159.42 517.726C1165.42 520.726 1169.64 526.31 1172.09 534.478C1174.53 542.646 1174.79 546.895 1172.87 547.226C1158.67 544.259 1148.68 542.592 1142.92 542.226C1126 541.15 1114.09 543.559 1106.37 543.726C1098.74 543.89 1094.46 544.73 1093.53 546.248Z" fill="white"/>
<path d="M1077.07 584.694C1072.93 575.982 1072.78 566.863 1076.63 557.389C1076.79 557.005 1077.23 556.821 1077.61 556.977C1077.99 557.132 1078.18 557.57 1078.02 557.954C1074.06 567.712 1074.51 577.007 1079.37 585.903C1076.93 574.73 1076.82 566.729 1079.1 561.854C1080.99 557.814 1086.25 553.545 1094.88 548.966C1094.98 548.913 1095.09 548.885 1095.19 548.879L1102.98 545.08C1098.02 545.402 1095.17 546.124 1094.58 547.086C1094.47 547.266 1094.29 547.392 1094.08 547.431C1090.14 548.169 1086.41 548.829 1082.9 549.411C1079.64 549.953 1077.19 550.322 1075.57 550.519C1074.74 550.618 1074.12 550.674 1073.7 550.686C1073.56 550.69 1073.43 550.69 1073.32 550.683L1071.51 552.506C1070.93 559.833 1070.94 566.363 1071.53 572.094C1071.94 576.113 1073.78 580.315 1077.07 584.694ZM1171.54 534.363C1171.52 534.357 1171.51 534.35 1171.49 534.342C1168.21 532.701 1164.59 531.386 1160.65 530.399C1156.71 529.415 1152.27 528.921 1147.33 528.921C1146.91 528.921 1146.58 528.586 1146.58 528.171C1146.58 527.757 1146.91 527.421 1147.33 527.421C1152.39 527.421 1156.95 527.928 1161.01 528.944C1164.54 529.826 1167.82 530.966 1170.84 532.364C1168.43 526.028 1164.76 521.588 1159.82 519.01L1110.17 543.241C1110.66 543.204 1111.18 543.161 1111.74 543.112C1112.95 543.005 1117.63 542.554 1117.76 542.541C1127.4 541.635 1134.65 541.368 1143.38 541.923C1149.16 542.291 1159.11 543.95 1173.26 546.901C1173.9 546.631 1174.02 544.952 1173.47 541.908C1173.36 541.93 1173.24 541.926 1173.12 541.891C1167.49 540.235 1161.19 538.909 1154.22 537.914C1147.27 536.921 1140.82 536.59 1134.87 536.92C1134.46 536.943 1134.1 536.627 1134.08 536.213C1134.06 535.799 1134.37 535.446 1134.79 535.423C1140.84 535.086 1147.39 535.422 1154.43 536.429C1161.31 537.411 1167.55 538.714 1173.15 540.339C1172.83 538.853 1172.37 537.118 1171.78 535.139C1171.7 534.877 1171.62 534.619 1171.54 534.363ZM1159.5 517.497C1159.71 517.395 1159.95 517.396 1160.16 517.501C1166.36 520.6 1170.71 526.354 1173.21 534.709C1175.83 543.443 1176.11 547.947 1173.41 548.411C1173.31 548.427 1173.22 548.425 1173.13 548.406C1158.95 545.446 1149 543.783 1143.28 543.42C1134.64 542.871 1127.47 543.135 1117.9 544.035C1117.77 544.046 1113.09 544.499 1111.87 544.606C1109.86 544.783 1108.31 544.884 1106.94 544.918C1106.28 545.204 1105.62 545.489 1105 545.761L1095.61 550.345C1095.52 550.387 1095.43 550.411 1095.34 550.419C1087.12 554.808 1082.16 558.858 1080.46 562.489C1078.05 567.651 1078.54 577.006 1082.01 590.485C1082.2 591.226 1081.28 591.743 1080.75 591.198C1074.24 584.606 1070.66 578.293 1070.03 572.248C1069.43 566.348 1069.43 559.636 1070.03 552.111C1070.05 551.934 1070.12 551.767 1070.25 551.642L1072.49 549.401C1072.56 549.282 1072.67 549.195 1072.8 549.111C1073.14 548.894 1073.48 548.974 1073.71 549.185C1074.08 549.171 1074.64 549.119 1075.39 549.029C1076.99 548.836 1079.41 548.47 1082.66 547.931C1086.07 547.365 1089.69 546.725 1093.52 546.011C1094.9 544.392 1099.1 543.612 1106.36 543.431L1159.5 517.497ZM1105.79 543.779C1105.48 544.152 1105.64 544.744 1106.06 544.939C1106.23 544.935 1106.39 544.931 1106.56 544.927C1105.88 544.943 1105.58 544.17 1105.94 543.715C1105.89 543.737 1105.84 543.758 1105.79 543.779Z" fill="#3B3B3B"/>
<path d="M1182.62 814.289C1154.09 822.468 1122.1 826.625 1086.64 826.757L1096.08 703.454C1096.11 703.041 1095.8 702.681 1095.38 702.649C1094.97 702.617 1094.61 702.926 1094.58 703.339L1085.08 827.453C1085.05 827.889 1085.39 828.26 1085.83 828.26C1121.75 828.188 1154.15 824.012 1183.03 815.731C1211.9 807.456 1253.43 790.442 1307.65 764.687C1308.07 764.487 1308.21 763.953 1307.94 763.573L1250.79 683.76H1260.83C1261.24 683.76 1261.58 683.424 1261.58 683.01C1261.58 682.596 1261.24 682.26 1260.83 682.26H1249.33C1248.72 682.26 1248.36 682.95 1248.72 683.446L1306.2 763.717C1252.44 789.224 1211.25 806.082 1182.62 814.289Z" fill="#3B3B3B"/>
<path fill-rule="evenodd" clip-rule="evenodd" d="M1162.92 557.177C1163.48 548.847 1167.71 545.061 1175.6 545.821C1187.44 546.96 1193.92 574.264 1170.81 578.821" fill="white"/>
<path d="M1175.07 551.97C1178.91 555.073 1180.2 558.762 1178.81 562.908C1178.68 563.301 1178.26 563.514 1177.87 563.383C1177.47 563.252 1177.26 562.827 1177.39 562.434C1178.62 558.759 1177.41 555.588 1173.65 552.771C1173.49 552.648 1173.39 552.469 1173.36 552.28C1172.04 552.787 1170.97 553.902 1170 555.519C1169.78 555.88 1168.76 557.747 1168.48 558.188C1168.17 558.657 1167.89 559.004 1167.57 559.257C1165.56 560.863 1163.7 560.63 1162.46 558.557C1162.36 558.394 1162.33 558.208 1162.37 558.034C1162.23 557.888 1162.16 557.69 1162.17 557.477C1162.76 548.734 1167.35 544.624 1175.68 545.425C1181.87 546.021 1186.84 553.27 1187.06 561.369C1187.32 570.482 1181.75 577.78 1170.96 579.907C1170.55 579.987 1170.16 579.723 1170.08 579.316C1170 578.91 1170.26 578.516 1170.67 578.435C1180.72 576.453 1185.8 569.805 1185.56 561.411C1185.52 559.673 1185.23 557.982 1184.76 556.405C1184.55 556.448 1184.33 556.406 1184.15 556.271C1180.17 553.287 1177.3 551.957 1175.07 551.97ZM1163.66 557.665C1163.69 557.701 1163.72 557.741 1163.75 557.785C1164.5 559.046 1165.31 559.146 1166.63 558.086C1166.8 557.951 1166.99 557.719 1167.22 557.373C1167.46 556.99 1168.47 555.154 1168.71 554.748C1171.79 549.606 1176.13 548.741 1183.98 554.286C1182.17 550.201 1179.03 547.255 1175.53 546.918C1168.07 546.2 1164.2 549.661 1163.67 557.578C1163.67 557.607 1163.66 557.636 1163.66 557.665Z" fill="#3B3B3B"/>
<path fill-rule="evenodd" clip-rule="evenodd" d="M606.379 694.338L666.3 726.569C667.908 727.433 669.331 728.604 670.489 730.015C674.136 734.457 675.217 738.633 673.734 742.544C671.317 748.918 664.19 752.125 657.817 749.707C657.696 749.662 657.576 749.614 657.456 749.564C601.834 726.444 566.199 705.683 550.551 687.28C545.581 681.436 541.339 676.389 537.824 672.138L537.824 672.138C529.906 662.561 531.25 648.379 540.827 640.46C543.583 638.181 546.843 636.592 550.336 635.824C562.449 633.163 574.232 636.06 585.684 644.517L617.184 662.758L633.919 669.726L657.419 655.726C660.972 653.998 663.638 653.164 665.419 653.226C667.199 653.287 669.366 654.287 671.919 656.226C673.417 658.42 674.25 660.087 674.419 661.226C674.805 663.834 673.521 666.81 673.419 667.726C673.25 669.241 672.25 669.908 670.419 669.726C672.724 670.121 674.39 670.621 675.419 671.226C676.447 671.831 677.614 672.998 678.919 674.726L678.919 686.726L640.419 715.226" fill="white"/>
<path d="M642.223 713.053L606.353 693.759C605.988 693.563 605.533 693.699 605.337 694.064C605.141 694.429 605.278 694.884 605.642 695.08L665.564 727.31C667.085 728.129 668.432 729.237 669.528 730.572C673.018 734.823 674.029 738.727 672.651 742.359C670.381 748.345 663.688 751.358 657.702 749.087C657.588 749.044 657.475 748.999 657.363 748.953C601.844 725.875 566.29 705.161 550.741 686.875C545.774 681.034 541.534 675.989 538.021 671.741C530.367 662.483 531.666 648.774 540.923 641.119C543.588 638.916 546.739 637.38 550.116 636.638C562.009 634.025 573.573 636.869 584.927 645.247L615.89 663.178C615.957 663.39 616.118 663.57 616.343 663.654L634.013 670.242C634.232 670.324 634.476 670.299 634.674 670.175L657.288 655.997C658.416 655.289 659.658 654.784 660.959 654.504C665.792 653.462 669.282 654.258 671.541 656.842C674.702 660.459 674.694 665.772 671.74 669.365C669.719 669.078 667.429 669.211 664.879 669.76C663.207 670.119 661.61 670.767 660.16 671.674L634.575 687.674L614.687 680.281C614.298 680.137 613.867 680.334 613.722 680.723C613.578 681.111 613.776 681.543 614.164 681.687L634.398 689.209C634.616 689.29 634.86 689.265 635.057 689.142L660.955 672.946C662.258 672.131 663.693 671.549 665.195 671.226C670.765 670.028 674.803 670.946 677.418 673.929C681.478 678.563 681.014 685.611 676.38 689.671C676.041 689.969 675.684 690.245 675.311 690.499L642.23 713.048C642.228 713.05 642.225 713.051 642.223 713.053ZM643.712 713.853L676.156 691.739C676.579 691.45 676.984 691.137 677.369 690.799C682.625 686.193 683.152 678.197 678.546 672.941C677.153 671.352 675.424 670.274 673.37 669.703C676.304 665.579 676.145 659.831 672.67 655.855C670.011 652.813 665.966 651.891 660.643 653.038C659.172 653.355 657.767 653.926 656.491 654.726L634.191 668.708L617.453 662.467C617.39 662.356 617.297 662.259 617.178 662.19L585.748 643.994C574.128 635.414 562.127 632.463 549.794 635.173C546.184 635.966 542.816 637.608 539.968 639.963C530.072 648.146 528.683 662.801 536.865 672.697C540.383 676.951 544.627 682.001 549.598 687.847C565.345 706.366 601.062 727.175 656.787 750.338C656.914 750.39 657.041 750.441 657.17 750.49C663.93 753.054 671.49 749.652 674.054 742.891C675.643 738.701 674.491 734.254 670.687 729.62C669.467 728.134 667.968 726.9 666.274 725.989L643.712 713.853Z" fill="#3B3B3B"/>
<path d="M826.341 676.243C830.677 663.379 831.919 654.962 831.669 636.236C831.664 635.822 831.995 635.481 832.409 635.476C832.823 635.47 833.163 635.802 833.169 636.216C833.421 655.107 832.154 663.693 827.763 676.722C819.779 700.413 815.111 713.027 813.548 715.042C813.426 715.2 813.245 715.302 813.047 715.327C801.392 716.759 791.191 712.865 782.511 703.683C773.837 694.507 770.185 682.7 771.555 668.321L770.964 632.009C770.958 631.595 771.288 631.253 771.702 631.247C772.116 631.24 772.457 631.57 772.464 631.985L773.051 668.38C771.718 682.427 775.236 693.804 783.601 702.653C791.878 711.408 801.5 715.137 812.532 713.877C814.115 711.359 818.782 698.673 826.341 676.243Z" fill="#3B3B3B"/>
<path d="M756.956 590.282C755.432 589.506 754.054 588.47 752.884 587.222C748.647 582.699 747.176 578.226 748.572 573.869C750.706 567.213 757.831 563.547 764.487 565.68C764.974 565.836 765.451 566.022 765.916 566.236L782.919 574.225C788.478 577.778 789.524 578.756 786.058 577.16C781.443 575.036 774.52 571.848 765.289 567.599C764.879 567.41 764.458 567.246 764.029 567.109C758.162 565.228 751.881 568.46 750.001 574.327C748.79 578.105 750.083 582.039 753.979 586.196C755.03 587.318 756.267 588.248 757.637 588.945L784.858 602.802C785.065 602.908 785.212 603.104 785.255 603.333L789.229 624.551C789.305 624.958 789.037 625.35 788.63 625.426C788.222 625.502 787.831 625.234 787.754 624.827L783.849 603.971L756.956 590.282Z" fill="#3B3B3B"/>
<path d="M778.466 571.745C777.117 570.692 775.962 569.413 775.053 567.965C771.756 562.716 771.166 558.044 773.368 554.034C776.732 547.908 784.425 545.668 790.552 549.032C791.001 549.279 791.434 549.552 791.849 549.851L816.646 567.323C823.799 572.364 828.371 580.299 829.143 589.016L833.217 634.984C833.254 635.397 832.949 635.761 832.536 635.798C832.124 635.834 831.76 635.529 831.723 635.117L827.649 589.148C826.916 580.871 822.575 573.336 815.781 568.549L790.98 551.073C790.607 550.805 790.225 550.564 789.83 550.347C784.43 547.382 777.648 549.356 774.682 554.756C772.773 558.234 773.292 562.342 776.323 567.167C777.14 568.468 778.178 569.617 779.389 570.563L803.466 589.359C803.636 589.492 803.741 589.693 803.753 589.908L805.958 629.142C805.981 629.555 805.664 629.909 805.251 629.933C804.837 629.956 804.483 629.639 804.46 629.226L802.275 590.332L778.466 571.745Z" fill="#3B3B3B"/>
<path fill-rule="evenodd" clip-rule="evenodd" d="M1122.85 568.084C1122.07 565.534 1123.19 562.926 1126.21 560.26C1130.74 556.261 1134.82 557.629 1135.55 560.02C1136.28 562.41 1133.56 563.766 1130.25 563.208C1128.04 562.837 1125.58 564.462 1122.85 568.084ZM1099.04 579.709C1094.83 578.008 1091.88 577.885 1090.18 579.339C1087.64 581.521 1084.6 581.761 1084 579.336C1083.4 576.91 1086.19 573.637 1092.13 574.733C1096.09 575.463 1098.39 577.121 1099.04 579.709Z" fill="white"/>
<path d="M1123.22 568.622C1122.86 569.112 1122.09 568.977 1121.91 568.391C1121.03 565.516 1122.27 562.627 1125.49 559.785C1129.85 555.935 1134.96 556.365 1136.04 559.888C1136.96 562.897 1133.79 564.691 1129.9 564.035C1128.04 563.723 1125.8 565.201 1123.22 568.622ZM1130.15 562.556C1133.12 563.057 1135.1 561.939 1134.6 560.326C1133.9 558.016 1130.12 557.698 1126.48 560.91C1124.34 562.8 1123.25 564.597 1123.14 566.327C1125.6 563.472 1127.93 562.182 1130.15 562.556ZM1099.54 579.615C1099.69 580.209 1099.1 580.721 1098.53 580.491C1094.56 578.885 1091.88 578.773 1090.45 579.996C1087.45 582.564 1083.81 582.658 1083.05 579.604C1082.16 576.03 1086.32 573.028 1092.04 574.082C1096.26 574.86 1098.81 576.698 1099.54 579.615ZM1091.77 575.557C1086.99 574.678 1083.92 576.897 1084.5 579.241C1084.91 580.877 1087.18 580.819 1089.47 578.857C1091.18 577.392 1093.84 577.302 1097.42 578.483C1096.44 577.053 1094.58 576.075 1091.77 575.557Z" fill="#3B3B3B"/>
<path d="M1068.96 556.61C1072.69 559.2 1084.01 557.239 1102.92 550.726C1121.83 544.213 1140.96 532.442 1159.98 517.534L1015.98 327.596L1068.96 556.61Z" fill="white"/>
<path d="M1069.97 556.356C1074 559.152 1085.41 557.174 1104.61 550.565C1123.6 544.023 1142.64 533.272 1161.72 518.316C1162.04 518.063 1162.1 517.6 1161.86 517.274L1018.02 326.275C1017.53 325.628 1016.51 326.106 1016.69 326.895L1069.67 555.909C1069.71 556.09 1069.82 556.25 1069.97 556.356ZM1071.06 555.272L1018.95 330.001L1160.21 517.588C1141.45 532.21 1122.75 542.728 1104.12 549.146C1085.89 555.424 1074.75 557.421 1071.06 555.272Z" fill="#3B3B3B"/>
<path d="M1178.83 887.726C1178.83 887.726 1132.25 925.226 1132.25 944.226C1132.25 963.226 1176.75 1040.73 1176.75 1055.23C1176.75 1069.73 1155.25 1115.73 1085.75 1115.73C1043.57 1115.73 981.552 1115.68 899.695 1115.58C891.963 1115.57 885.702 1109.3 885.711 1101.57C885.714 1098.9 886.481 1096.28 887.921 1094.03C893.289 1085.65 899.23 1076.88 905.746 1067.73C924.246 1041.73 939.246 1015.73 955.246 1004.23C971.246 992.726 988.827 998.339 976.327 974.339C967.994 958.339 954.691 942.577 936.419 927.055" fill="white"/>
<path d="M1178.83 887.726C1178.83 887.726 1132.25 925.226 1132.25 944.226C1132.25 963.226 1176.75 1040.73 1176.75 1055.23C1176.75 1069.73 1155.25 1115.73 1085.75 1115.73C1043.57 1115.73 981.552 1115.68 899.695 1115.58C891.963 1115.57 885.702 1109.3 885.711 1101.57C885.714 1098.9 886.481 1096.28 887.921 1094.03C893.289 1085.65 899.23 1076.88 905.746 1067.73C924.246 1041.73 939.246 1015.73 955.246 1004.23C971.246 992.726 988.827 998.339 976.327 974.339C967.994 958.339 954.691 942.577 936.419 927.055" fill="white"/>
<path fill-rule="evenodd" clip-rule="evenodd" d="M976.919 974.726C998.586 991.392 1011.59 1003.23 1015.92 1010.23C1020.25 1017.23 1000.25 1015.23 955.919 1004.23L976.919 974.726ZM1134.33 937.896C1133.46 943.867 1133.46 948.701 1134.33 952.396C1135.19 956.092 1137.19 960.926 1140.33 966.896L1097.33 956.896L1134.33 937.896Z" fill="#3B3B3B"/>
<path d="M1178.86 887.312C1178.76 887.387 1178.59 887.531 1178.33 887.742C1177.9 888.093 1177.4 888.503 1176.85 888.969C1175.25 890.301 1173.47 891.816 1171.56 893.488C1166.08 898.264 1160.61 903.339 1155.5 908.494C1151.2 912.834 1147.35 917.042 1144.06 921.052C1136.31 930.498 1132 938.411 1132 944.397C1132 952.348 1138.32 967.957 1153.08 999.284C1153.47 1000.12 1153.88 1000.98 1154.32 1001.9C1165.68 1025.98 1166.28 1027.25 1169.61 1034.91C1174.17 1045.41 1176.5 1052.19 1176.5 1055.4C1176.5 1064.49 1169.34 1079.13 1157.29 1090.54C1140.93 1106.03 1117.25 1115.15 1086.25 1115.15C1044.07 1115.15 982.052 1115.1 900.196 1115C892.878 1115 886.953 1109.06 886.961 1101.74C886.964 1099.21 887.69 1096.74 889.053 1094.61C894.413 1086.24 900.348 1077.48 906.857 1068.33C911.67 1061.57 927.215 1038.71 927.123 1038.84C934.702 1027.88 940.28 1020.51 945.731 1014.56C949.352 1010.6 952.802 1007.44 956.184 1005.01C956.949 1004.46 957.735 1003.93 958.545 1003.43C960.796 1002.05 963.156 1000.88 965.944 999.711C967.448 999.082 972.184 997.252 972.688 997.047C983.046 992.849 984.7 988.001 977.493 974.163C969.111 958.07 955.746 942.236 937.404 926.654C937.089 926.386 936.615 926.424 936.347 926.74C936.079 927.056 936.117 927.529 936.433 927.797C954.636 943.261 967.877 958.949 976.162 974.856C979.886 982.006 980.983 986.609 979.946 989.649C979.091 992.157 976.915 993.716 972.125 995.657C971.639 995.854 966.892 997.688 965.365 998.328C962.51 999.523 960.083 1000.72 957.758 1002.16C956.918 1002.67 956.103 1003.22 955.308 1003.79C951.835 1006.28 948.311 1009.52 944.625 1013.55C939.117 1019.56 933.504 1026.97 925.889 1037.99C925.973 1037.87 910.437 1060.71 905.635 1067.46C899.112 1076.63 893.164 1085.41 887.79 1093.8C886.272 1096.17 885.464 1098.92 885.461 1101.74C885.452 1109.88 892.048 1116.5 900.194 1116.5C982.051 1116.6 1044.07 1116.65 1086.25 1116.65C1117.63 1116.65 1141.68 1107.38 1158.32 1091.63C1170.66 1079.95 1178 1064.93 1178 1055.4C1178 1051.89 1175.64 1045.03 1170.98 1034.31C1167.65 1026.63 1167.05 1025.36 1155.67 1001.26C1155.24 1000.34 1154.83 999.475 1154.44 998.645C1139.84 967.662 1133.5 952.006 1133.5 944.397C1133.5 938.866 1137.67 931.196 1145.22 922.004C1148.48 918.033 1152.3 913.859 1156.57 909.549C1161.65 904.423 1167.1 899.372 1172.54 894.618C1174.45 892.954 1176.22 891.446 1177.81 890.121C1178.36 889.658 1178.85 889.25 1179.28 888.903C1179.53 888.694 1179.71 888.553 1179.8 888.481C1180.12 888.221 1180.17 887.749 1179.91 887.426C1179.65 887.104 1179.18 887.053 1178.86 887.312Z" fill="#3B3B3B"/>
<path fill-rule="evenodd" clip-rule="evenodd" d="M1097.33 813.165C1077.83 813.165 1068.33 819.01 1034.83 834.01C1001.33 849.009 1039.47 871.399 982.828 879.34C926.184 887.281 910.684 900.516 928.184 922.575C945.684 944.633 969.414 954.521 1020.18 951.692C1070.95 948.862 1043.33 904.51 1079.83 904.51C1116.33 904.51 1176.18 917.281 1182.18 887.281C1188.18 857.281 1116.83 813.165 1097.33 813.165Z" fill="#3B3B3B"/>
<path fill-rule="evenodd" clip-rule="evenodd" d="M1155.69 456.22L1131 392.818C1130.34 391.117 1129.35 389.562 1128.09 388.24C1124.13 384.08 1120.12 382.497 1116.05 383.493C1109.43 385.115 1105.38 391.798 1107 398.418C1107.04 398.544 1107.07 398.669 1107.1 398.793C1123.27 456.819 1139.54 494.719 1155.89 512.493C1172.68 530.733 1197.73 536.733 1231.05 530.493L1229.55 468.993L1209.77 469.105L1184.92 437.725L1183.42 432.225L1201.92 408.726C1203.92 402.059 1203.09 397.225 1199.42 394.225C1195.75 391.225 1191.92 391.225 1187.92 394.225L1140.42 418.225" fill="white"/>
<path d="M1230.06 530.276C1197.29 536.28 1172.71 530.304 1156.22 512.389C1139.96 494.727 1123.74 456.914 1107.6 398.996C1107.57 398.879 1107.54 398.762 1107.51 398.644C1105.98 392.425 1109.79 386.149 1116.01 384.625C1119.78 383.7 1123.53 385.18 1127.33 389.162C1128.52 390.412 1129.45 391.884 1130.08 393.494L1154.77 456.896C1154.92 457.282 1155.35 457.474 1155.74 457.323C1156.12 457.173 1156.32 456.738 1156.16 456.352L1131.48 392.95C1130.78 391.158 1129.74 389.519 1128.41 388.127C1124.28 383.787 1120 382.102 1115.65 383.168C1108.63 384.889 1104.33 391.978 1106.05 399.001C1106.08 399.134 1106.12 399.267 1106.15 399.399C1122.35 457.532 1138.65 495.518 1155.12 513.405C1172.1 531.855 1197.41 537.918 1230.97 531.634C1231.33 531.566 1231.59 531.246 1231.58 530.878L1230.08 469.378C1230.07 468.97 1229.73 468.644 1229.32 468.647L1209.54 468.759C1209.13 468.761 1208.79 469.099 1208.8 469.513C1208.8 469.927 1209.14 470.261 1209.55 470.259L1228.6 470.151L1230.06 530.276Z" fill="#3B3B3B"/>
<path d="M1201.02 411.345C1201.97 410.176 1202.7 408.851 1203.2 407.43C1204.99 402.287 1204.56 398.159 1201.87 395.149C1197.75 390.557 1190.69 390.156 1186.09 394.254C1185.75 394.554 1185.44 394.875 1185.14 395.213L1162.03 421.478C1161.75 421.789 1161.78 422.263 1162.09 422.536C1162.4 422.81 1162.88 422.78 1163.15 422.469L1186.26 396.204C1186.52 395.911 1186.8 395.634 1187.09 395.374C1191.07 391.826 1197.19 392.173 1200.75 396.15C1203.04 398.706 1203.4 402.268 1201.78 406.937C1201.34 408.194 1200.69 409.366 1199.85 410.399L1183.02 431.117C1182.88 431.298 1182.82 431.537 1182.88 431.764L1187.26 450.106C1187.36 450.509 1187.76 450.757 1188.17 450.661C1188.57 450.565 1188.82 450.16 1188.72 449.757L1184.42 431.775L1201.02 411.345Z" fill="#3B3B3B"/>
<path fill-rule="evenodd" clip-rule="evenodd" d="M1169.24 470.264L1185.01 460.28C1185.07 454.555 1185.04 450.712 1184.92 448.751C1184.46 440.828 1184.92 437.11 1189.36 434.993C1202.42 428.751 1204.69 444.712 1207.92 455.251C1211.16 465.79 1211.07 473.198 1203.3 480.412" fill="white"/>
<path fill-rule="evenodd" clip-rule="evenodd" d="M1169.52 450.059L1164.52 429.059L1183.75 405.328C1184.77 404.067 1185.57 402.637 1186.1 401.103C1188.05 395.484 1187.6 391.082 1184.75 387.896C1180.37 382.992 1172.85 382.568 1167.94 386.948C1167.59 387.269 1167.25 387.611 1166.93 387.973L1141.92 416.726" fill="white"/>
<path d="M1168.75 469.276C1168.4 469.497 1168.29 469.96 1168.51 470.31C1168.73 470.66 1169.2 470.765 1169.55 470.543L1185.32 460.56C1185.54 460.423 1185.67 460.187 1185.67 459.933C1185.72 454.191 1185.69 450.336 1185.58 448.353C1185.08 439.85 1185.85 437.097 1189.58 435.315C1196.71 431.914 1200.66 434.943 1203.78 443.842C1204.33 445.418 1204.83 447.072 1205.5 449.463C1205.63 449.911 1206.16 451.842 1206.3 452.347C1206.61 453.448 1206.86 454.311 1207.11 455.117C1210.6 466.489 1209.66 473.043 1202.7 479.508C1202.4 479.79 1202.38 480.265 1202.66 480.568C1202.94 480.872 1203.42 480.889 1203.72 480.607C1211.16 473.696 1212.19 466.548 1208.54 454.676C1208.3 453.885 1208.05 453.032 1207.75 451.942C1207.61 451.44 1207.07 449.509 1206.95 449.059C1206.27 446.639 1205.76 444.959 1205.19 443.345C1201.82 433.719 1197.07 430.078 1188.94 433.962C1184.47 436.094 1183.55 439.383 1184.08 448.44C1184.19 450.332 1184.22 454.027 1184.17 459.511L1168.75 469.276Z" fill="#3B3B3B"/>
<path d="M1184.64 405.638C1185.72 404.309 1186.56 402.803 1187.12 401.187C1189.15 395.332 1188.67 390.647 1185.63 387.235C1180.97 382.022 1172.97 381.571 1167.76 386.226C1167.38 386.567 1167.01 386.931 1166.68 387.316L1140.26 417.402C1139.99 417.714 1140.02 418.187 1140.33 418.461C1140.64 418.734 1141.12 418.703 1141.39 418.392L1167.8 388.306C1168.1 387.966 1168.42 387.646 1168.76 387.345C1173.35 383.241 1180.4 383.639 1184.51 388.234C1187.15 391.193 1187.57 395.312 1185.7 400.695C1185.2 402.147 1184.44 403.5 1183.48 404.694L1164.25 428.425C1164.1 428.606 1164.04 428.844 1164.1 429.071L1169.1 450.071C1169.19 450.474 1169.6 450.723 1170 450.627C1170.4 450.531 1170.65 450.126 1170.56 449.723L1165.64 429.083L1184.64 405.638Z" fill="#3B3B3B"/>
<path fill-rule="evenodd" clip-rule="evenodd" d="M1229.3 460.879L1217.42 471.226L1229.43 486.097L1219.42 499.226L1229.54 511.815C1222.95 518.995 1219.58 522.632 1219.42 522.726C1219.26 522.82 1223.01 526.6 1230.65 534.066L1229.3 460.879Z" fill="#3B3B3B"/>
<path d="M1148.29 711.652C1146.01 711.126 1143.19 709.582 1141.67 708.014C1139.11 705.378 1138.48 701.879 1139.48 697.56C1140.15 694.687 1141.67 692.054 1143.69 690.503C1146.31 688.489 1149.9 687.906 1153.57 688.755C1156.72 689.481 1159.42 691.453 1161.05 694.14C1162.6 696.707 1163.08 699.796 1162.38 702.847C1161.71 705.731 1160.21 707.69 1157.56 709.426C1154.55 711.404 1151.24 712.335 1148.29 711.652ZM1148.62 710.191C1151.12 710.767 1154.04 709.946 1156.74 708.172C1159.08 706.636 1160.35 704.99 1160.92 702.509C1161.53 699.837 1161.11 697.147 1159.77 694.917C1158.35 692.575 1155.99 690.851 1153.24 690.216C1149.97 689.462 1146.84 689.971 1144.6 691.693C1142.88 693.015 1141.53 695.343 1140.94 697.898C1140.05 701.762 1140.58 704.743 1142.75 706.969C1144.06 708.325 1146.62 709.728 1148.62 710.191ZM1152.65 758.732C1150.37 758.206 1147.55 756.662 1146.03 755.094C1143.47 752.458 1142.84 748.959 1143.84 744.64C1144.5 741.767 1146.03 739.134 1148.05 737.583C1150.67 735.569 1154.26 734.985 1157.93 735.834C1161.08 736.561 1163.78 738.533 1165.41 741.22C1166.96 743.786 1167.44 746.875 1166.74 749.926C1166.07 752.81 1164.57 754.77 1161.92 756.506C1158.91 758.484 1155.6 759.415 1152.65 758.732ZM1152.98 757.27C1155.48 757.847 1158.4 757.026 1161.1 755.252C1163.44 753.716 1164.7 752.07 1165.28 749.589C1165.89 746.916 1165.47 744.227 1164.13 741.996C1162.71 739.654 1160.35 737.931 1157.6 737.296C1154.33 736.542 1151.2 737.051 1148.96 738.772C1147.24 740.095 1145.89 742.423 1145.3 744.977C1144.41 748.841 1144.94 751.823 1147.11 754.049C1148.42 755.405 1150.98 756.808 1152.98 757.27Z" fill="#3B3B3B"/>
<path fill-rule="evenodd" clip-rule="evenodd" d="M975.419 303.726C974.883 300.508 975.005 296.521 977.919 292.226C978.392 291.529 979.558 290.529 981.419 289.226L985.419 286.226L1014.42 282.726C1016.82 281.582 1018.49 280.582 1019.42 279.726C1025.61 274.011 1030.1 267.844 1033.92 264.726C1037.2 262.044 1040.1 262.028 1041.92 261.726C1046.33 260.991 1050.16 265.824 1053.42 276.226L1055.92 290.726L1014.42 313.226C1007.47 318.395 1002.81 321.395 1000.42 322.226C997.236 323.333 994.831 322.48 993.419 321.226C990.419 318.559 991.086 314.726 995.419 309.726C989.61 311.288 985.61 311.788 983.419 311.226C979.549 310.232 975.78 305.889 975.419 303.726Z" fill="white"/>
<path fill-rule="evenodd" clip-rule="evenodd" d="M1075.19 785.252L1100.67 807.253C1110.15 815.448 1114.99 827.794 1113.59 840.252L1111.46 859.21C1110.36 865.827 1107.22 869.867 1102.05 871.332C1096.88 872.797 1093.74 873.345 1092.63 872.976C1089.17 878.076 1086.22 881.198 1083.77 882.341C1081.32 883.484 1077.51 883.518 1072.33 882.442C1068.16 888.15 1064.77 891.601 1062.16 892.795C1061.16 893.253 1059.91 893.546 1058.41 893.677C1053.35 894.114 1048.39 892.128 1045.03 888.326L1037.16 879.41C1029.56 870.796 1026.26 859.202 1028.2 847.877L1028.23 847.698L1024.95 831.536L1013.69 817.752C1018.07 808.387 1027.38 799.706 1041.61 791.709C1055.85 783.712 1067.04 781.56 1075.19 785.252Z" fill="white"/>
<path d="M1023.98 832.34L1012.84 818.7C1012.66 818.477 1012.62 818.169 1012.74 817.908C1017.19 808.381 1026.61 799.596 1040.97 791.529C1055.39 783.427 1066.81 781.231 1075.23 785.043L1075.41 785.158L1100.88 807.159C1110.56 815.515 1115.49 828.105 1114.06 840.809L1111.93 859.806C1110.78 866.692 1107.45 870.977 1101.98 872.527C1097.29 873.855 1094.26 874.447 1092.7 874.279C1089.29 879.242 1086.35 882.311 1083.81 883.494C1081.26 884.684 1077.46 884.752 1072.38 883.746C1068.27 889.321 1064.9 892.716 1062.2 893.951C1061.11 894.447 1059.78 894.76 1058.2 894.897C1052.91 895.355 1047.71 893.277 1044.2 889.296L1036.32 880.379C1028.57 871.596 1025.21 859.772 1027.19 848.223L1027.2 848.183L1023.98 832.34ZM1074.51 786.365C1066.63 782.853 1055.7 784.977 1041.7 792.837C1027.81 800.642 1018.68 809.077 1014.3 818.119L1025.26 831.535C1025.33 831.629 1025.39 831.741 1025.41 831.86L1028.69 848.022C1028.71 848.113 1028.71 848.206 1028.7 848.298L1028.67 848.477C1026.76 859.578 1029.99 870.944 1037.45 879.386L1045.32 888.303C1048.52 891.927 1053.25 893.819 1058.07 893.403C1059.49 893.28 1060.66 893.005 1061.57 892.587C1064.03 891.461 1067.35 888.084 1071.45 882.473C1071.62 882.235 1071.92 882.121 1072.21 882.181C1077.24 883.227 1080.9 883.195 1083.18 882.135C1085.47 881.064 1088.35 878.025 1091.73 873.029C1091.92 872.75 1092.27 872.632 1092.59 872.738C1093.49 873.036 1096.58 872.497 1101.57 871.084C1106.44 869.704 1109.39 865.908 1110.44 859.6L1112.57 840.641C1113.94 828.429 1109.2 816.327 1099.9 808.294L1074.51 786.365Z" fill="#3B3B3B"/>
<path d="M1092.44 846.25C1092.46 845.837 1092.81 845.517 1093.22 845.536C1093.64 845.555 1093.96 845.906 1093.94 846.32L1092.67 873.76C1092.65 874.174 1092.3 874.494 1091.88 874.475C1091.47 874.456 1091.15 874.105 1091.17 873.691L1092.44 846.25ZM1071.05 855.293C1071.05 854.879 1071.39 854.543 1071.8 854.543C1072.22 854.543 1072.55 854.879 1072.55 855.293L1072.55 883.726C1072.55 884.14 1072.22 884.476 1071.8 884.476C1071.39 884.476 1071.05 884.14 1071.05 883.726L1071.05 855.293ZM1045.94 877.668C1046.11 878.046 1045.94 878.49 1045.56 878.658C1045.19 878.826 1044.74 878.656 1044.57 878.277L1024.23 832.53C1024.07 832.152 1024.24 831.709 1024.61 831.54C1024.99 831.372 1025.44 831.543 1025.6 831.921L1045.94 877.668ZM1013.42 818.226C1019.75 806.226 1028.09 797.892 1038.42 793.226C1042.83 791.232 1049.31 787.19 1054.42 785.726C1057.61 784.81 1062.51 783.861 1067.92 784.226C1069.47 784.33 1071.8 784.83 1074.92 785.726L1067.92 794.726L1051.92 788.726C1048.42 798.392 1046.75 803.226 1046.92 803.226C1047.09 803.226 1040.92 802.726 1028.42 801.726L1028.42 817.226L1013.42 818.226Z" fill="#3B3B3B"/>
<path fill-rule="evenodd" clip-rule="evenodd" d="M1014.42 313.726C1018.27 308.83 1020.77 304.996 1021.92 302.226C1023.06 299.455 1023.73 295.622 1023.92 290.726C1028.7 292.726 1033.7 293.726 1038.92 293.726C1044.14 293.726 1049.81 292.726 1055.92 290.726C1053.22 294.806 1050.89 297.973 1048.92 300.226C1044.18 305.646 1037.29 310.019 1028.42 312.226C1025.6 312.926 1020.94 313.426 1014.42 313.726ZM980.419 287.226C979.259 282.008 978.426 277.342 977.919 273.226C977.412 269.109 976.912 262.943 976.419 254.726C985.345 263.806 992.345 270.472 997.419 274.726C1002.49 278.979 1006.99 281.646 1010.92 282.726C1012.12 282.699 1012.79 282.699 1012.92 282.726C1014.28 283 1010.82 284.073 1005.92 284.726C1000.3 285.474 991.803 286.308 980.419 287.226Z" fill="#FFF000"/>
<path d="M711.833 638.085C725.04 654.395 748.969 656.91 765.279 643.703C781.589 630.495 784.104 606.567 770.896 590.257C757.689 573.947 733.76 571.432 717.45 584.64C701.141 597.847 698.626 621.776 711.833 638.085Z" fill="white"/>
<path d="M720.867 647.18C717.402 644.983 714.231 642.194 711.506 638.83C698.038 622.198 700.603 597.798 717.235 584.33C733.866 570.861 758.267 573.426 771.735 590.058C785.203 606.689 782.639 631.09 766.007 644.558C756.865 651.962 745.375 654.52 734.644 652.561C729.725 651.985 725.103 650.299 720.867 647.18ZM709.076 632.578C708.233 631.069 707.505 629.519 706.891 627.939C707.168 628.603 707.462 629.266 707.77 629.926C708.196 630.842 708.632 631.725 709.076 632.578ZM711.605 592.369C712.367 596.328 710.73 616.328 730.122 630.537C745.765 642 761.364 640.563 776.919 626.226C776.903 626.319 776.886 626.413 776.869 626.506C780.867 614.787 778.937 601.335 770.57 591.002C757.623 575.014 734.167 572.548 718.179 585.495C715.645 587.547 713.452 589.862 711.605 592.369Z" fill="#3B3B3B"/>
<path d="M540.919 530.726C561.906 530.726 578.919 513.712 578.919 492.726C578.919 471.739 561.906 454.726 540.919 454.726C519.932 454.726 502.919 471.739 502.919 492.726C502.919 513.712 519.932 530.726 540.919 530.726Z" fill="white"/>
<path d="M513.172 465.676C520.21 458.458 530.041 453.976 540.919 453.976C562.32 453.976 579.669 471.325 579.669 492.726C579.669 514.127 562.32 531.476 540.919 531.476C537.599 531.476 534.377 531.058 531.302 530.273C526.388 529.227 521.809 527.086 517.919 524.726C511.319 520.721 506.501 514.593 504.282 505.378C502.912 501.413 502.169 497.156 502.169 492.726C502.169 485.664 504.058 479.043 507.359 473.341C508.861 470.57 510.781 467.997 513.172 465.676H513.172ZM522.214 460.506C520.974 464.776 511.534 481.988 522.919 502.726C532.079 519.411 546.859 524.857 567.259 519.065C574 512.324 578.169 503.012 578.169 492.726C578.169 472.153 561.492 455.476 540.919 455.476C534.101 455.476 527.711 457.307 522.214 460.506Z" fill="#3B3B3B"/>
<path d="M592.159 330.632C607.755 344.674 631.782 343.415 645.825 327.819C659.868 312.223 658.609 288.195 643.012 274.153C627.416 260.11 603.389 261.369 589.346 276.965C575.303 292.561 576.562 316.589 592.159 330.632Z" fill="white"/>
<path d="M615.398 264.058C625.459 263.403 635.764 266.65 643.848 273.929C659.752 288.249 661.036 312.75 646.716 328.654C632.396 344.559 607.894 345.843 591.99 331.523C588.539 328.415 585.777 324.829 583.713 320.955C581.812 317.764 580.4 314.392 579.414 311.116C577.19 303.724 577.709 295.946 582.226 287.613C583.862 283.75 586.157 280.089 589.122 276.797C593.847 271.549 599.681 267.893 605.949 265.864C608.92 264.81 612.068 264.183 615.398 264.058L615.398 264.058ZM625.578 266.265C621.799 268.609 603.266 275.084 597.851 298.113C593.529 316.494 600.546 330.444 618.904 339.963C628.756 339.701 638.486 335.553 645.601 327.651C659.367 312.362 658.132 288.809 642.844 275.044C637.777 270.481 631.803 267.567 625.578 266.265Z" fill="#3B3B3B"/>
<path d="M927.79 538.661C948.154 543.738 968.777 531.346 973.855 510.983C978.932 490.619 966.54 469.996 946.176 464.919C925.813 459.841 905.189 472.233 900.112 492.597C895.035 512.96 907.427 533.584 927.79 538.661Z" fill="white"/>
<path d="M916.54 468.767C925.115 463.466 935.738 461.495 946.293 464.127C967.059 469.304 979.695 490.335 974.518 511.1C969.34 531.866 948.31 544.502 927.544 539.325C922.896 538.166 918.655 536.213 914.93 533.646C911.894 531.773 909.18 529.551 906.861 527.211C901.426 521.729 898.233 514.617 898.309 505.139C897.94 500.96 898.248 496.65 899.32 492.351C901.028 485.499 904.463 479.532 909.045 474.798C911.173 472.472 913.658 470.441 916.54 468.767ZM926.564 465.938C924.328 469.781 911.004 484.198 917.034 507.074C921.968 525.79 935.219 534.509 956.789 533.234C964.627 528.292 970.644 520.437 973.062 510.737C978.039 490.776 965.892 470.559 945.93 465.582C939.315 463.933 932.671 464.164 926.564 465.938Z" fill="#3B3B3B"/>
<path d="M1017.04 314.23C1016.28 314.135 1015.51 314.013 1014.74 313.864C1014.68 313.852 1014.63 313.833 1014.57 313.808C1014.14 314.224 1013.71 314.634 1013.25 315.039C1011.27 316.825 1009.16 318.407 1006.91 319.877C1006.08 320.418 1005.28 320.914 1004.39 321.442C1004.1 321.616 1002.91 322.316 1002.68 322.457C998.792 324.818 992.589 322.677 991.479 319.142C990.898 317.292 991.784 314.726 994.063 311.36C984.498 313.252 978.321 311.834 975.673 306.953C973.516 302.978 973.669 297.441 976.192 293.004C977.243 291.153 978.642 289.57 980.357 288.303C977.659 281.777 975.992 269.945 975.326 252.755C975.298 252.036 976.2 251.694 976.656 252.251C995.46 275.206 1008.58 284.668 1015.7 280.89C1019.14 279.064 1021.83 276.644 1025.65 272.356C1025.98 271.981 1027.76 269.968 1028.26 269.405C1033.81 263.205 1037.68 260.665 1043.52 260.709C1047.79 260.741 1051.06 265.352 1053.49 274.344H1065.92C1066.49 274.344 1066.85 274.958 1066.57 275.458C1051.28 302.987 1035.8 315.729 1018.54 314.382V327.226C1018.54 327.64 1018.21 327.976 1017.79 327.976C1017.38 327.976 1017.04 327.64 1017.04 327.226V314.23ZM1055.38 290.401C1052.28 288.043 1050.5 285.242 1050.04 281.999C1049.61 278.983 1050.32 276.733 1052.18 275.249C1049.89 266.512 1046.94 262.235 1043.51 262.209C1038.21 262.169 1034.67 264.498 1029.38 270.405C1028.88 270.962 1027.11 272.974 1026.77 273.353C1025.21 275.105 1023.83 276.559 1022.5 277.795C1022.49 277.969 1022.41 278.137 1022.28 278.267C1018.41 281.972 1013.9 284.173 1008.44 285.292C1004.3 286.14 1000.67 286.327 993.19 286.326L992.767 286.326C992.481 286.326 992.481 286.326 992.194 286.326C988.058 286.326 984.611 287.293 981.939 289.031C981.863 289.148 981.753 289.244 981.617 289.306C981.565 289.329 981.513 289.345 981.46 289.356C979.813 290.526 978.484 292.006 977.496 293.745C975.225 297.741 975.086 302.727 976.991 306.237C979.401 310.679 985.558 311.825 995.63 309.489C996.311 309.331 996.819 310.109 996.4 310.668C993.561 314.463 992.435 317.18 992.91 318.692C993.722 321.278 998.828 323.041 1001.9 321.175C1002.14 321.027 1003.34 320.323 1003.63 320.153C1004.49 319.635 1005.28 319.15 1006.09 318.621C1008.28 317.191 1010.33 315.653 1012.25 313.923C1019.12 307.757 1023.17 300.343 1023.17 291.374C1023.17 290.96 1023.5 290.624 1023.92 290.624C1024.33 290.624 1024.67 290.96 1024.67 291.374C1024.67 299.626 1021.42 306.615 1015.83 312.536C1029.85 314.901 1042.72 307.73 1055.38 290.401ZM1010.96 283.115C1002.99 282.136 991.693 272.701 976.918 254.926C977.622 270.514 979.201 281.372 981.632 287.456C984.47 285.76 988.025 284.826 992.194 284.826C992.481 284.826 992.481 284.826 992.768 284.826L993.191 284.826C1000.57 284.827 1004.13 284.643 1008.14 283.823C1009.11 283.623 1010.05 283.388 1010.96 283.115ZM1040.92 279.726C1039.81 279.726 1036.92 278.932 1036.92 276.226C1036.92 273.52 1039.81 272.726 1040.92 272.726C1042.02 272.726 1044.92 273.52 1044.92 276.226C1044.92 278.932 1042.02 279.726 1040.92 279.726Z" fill="#3B3B3B"/>
<path d="M1110.49 602.215C1110.27 605.963 1116.85 607.175 1121.89 603.975C1124.3 602.44 1125.68 602.056 1128.06 601.901C1128.62 601.865 1128.81 601.851 1129.09 601.819C1129.99 601.721 1130.73 601.525 1131.51 601.137C1135.55 599.13 1134.15 594.297 1128.39 593.563C1124.61 593.082 1120.44 594.105 1115.87 596.606C1115.52 596.8 1115.16 596.992 1114.81 597.182C1112.08 598.635 1110.6 600.299 1110.49 602.215ZM1116.59 597.921C1120.9 595.562 1124.77 594.614 1128.2 595.051C1132.6 595.611 1133.44 598.505 1130.85 599.794C1130.24 600.097 1129.67 600.248 1128.93 600.328C1128.68 600.356 1128.5 600.369 1127.96 600.404C1125.35 600.575 1123.73 601.024 1121.08 602.709C1116.9 605.368 1111.86 604.44 1111.98 602.302C1112.06 601.018 1113.2 599.739 1115.51 598.506C1115.87 598.313 1116.23 598.118 1116.59 597.921Z" fill="#3B3B3B"/>
<path fill-rule="evenodd" clip-rule="evenodd" d="M558.241 984.437C540.076 985.345 528.268 983.425 522.817 978.676C514.641 971.554 517.411 953.245 530.585 950.445C539.367 948.578 548.586 959.909 558.241 984.437ZM558.25 984.48C565.807 967.871 572.983 958.21 579.776 955.498C589.966 951.431 605.193 962.188 601.643 975.202C599.276 983.879 584.812 986.971 558.25 984.48Z" fill="white"/>
<path d="M522.542 979.209C513.336 971.189 517.577 952.456 530.647 949.678C539.757 947.742 548.963 958.772 558.522 982.536C565.886 966.738 572.914 957.484 579.716 954.769C591.18 950.193 606.107 962.451 602.585 975.367C600.076 984.564 585.318 987.719 558.398 985.194C558.347 985.19 558.297 985.18 558.251 985.166C540.042 986.053 528.16 984.103 522.542 979.209ZM530.959 951.145C519.126 953.66 515.234 970.853 523.528 978.078C528.684 982.57 539.986 984.479 557.375 983.705C547.994 960.188 539.1 949.415 530.959 951.145ZM601.137 974.972C604.325 963.286 590.619 952.032 580.272 956.162C573.843 958.729 566.911 967.942 559.591 983.797C585.122 986.076 598.943 983.018 601.137 974.972Z" fill="#3B3B3B"/>
<path fill-rule="evenodd" clip-rule="evenodd" d="M791.699 984.27C774.913 983.135 764.168 980.04 759.463 974.984C752.076 967.046 756.745 949.126 770.139 947.719C778.638 946.825 786.28 957.864 793.066 980.833C791.968 964.08 793.622 953.006 798.028 947.611C804.968 939.113 823.501 941.139 826.706 954.243C828.819 962.885 817.928 972.488 794.032 983.051L814.124 1005.24L808.933 1009.16L793.651 991.098L783.556 1008.65L776.435 1006.52L791.699 984.27Z" fill="white"/>
<path d="M759.175 975.638C750.857 966.7 757.034 948.513 770.322 947.116C778.589 946.247 785.846 955.658 792.299 975.171C791.914 961.479 793.694 952.194 797.708 947.28C805.516 937.719 824.515 941.204 827.696 954.208C829.907 963.251 819.109 972.916 795.545 983.459L814.941 1004.89C815.237 1005.21 815.189 1005.72 814.837 1005.99L809.645 1009.9C809.328 1010.14 808.878 1010.09 808.621 1009.78L794.03 992.542L784.468 1009.17C784.294 1009.47 783.936 1009.61 783.602 1009.51L776.481 1007.38C775.994 1007.24 775.79 1006.66 776.078 1006.24L790.601 985.068C774.385 983.851 763.922 980.74 759.175 975.638ZM813.278 1005.28L793.738 983.698C793.394 983.319 793.523 982.716 793.99 982.509C817.56 972.09 828.225 962.686 826.239 954.565C823.361 942.799 805.917 939.6 798.87 948.229C794.619 953.433 792.989 964.351 794.075 980.928C794.134 981.821 792.861 982.048 792.608 981.189C785.921 958.553 778.455 947.77 770.479 948.608C758.448 949.872 752.78 966.564 760.273 974.616C764.809 979.491 775.402 982.542 792.011 983.665C792.59 983.704 792.907 984.359 792.579 984.838L777.896 1006.24L783.463 1007.91L793.263 990.868C793.522 990.417 794.149 990.36 794.485 990.757L809.309 1008.27L813.278 1005.28Z" fill="#3B3B3B"/>
<path d="M1133.23 610.408L1145.23 604.908C1145.61 604.735 1145.77 604.29 1145.6 603.913C1145.43 603.537 1144.98 603.371 1144.61 603.544L1132.61 609.044C1132.23 609.217 1132.06 609.662 1132.24 610.038C1132.41 610.415 1132.86 610.58 1133.23 610.408Z" fill="#3B3B3B"/>
</svg>
