<svg width="1840" height="1380" viewBox="0 0 1840 1380" fill="none" xmlns="http://www.w3.org/2000/svg"><path fill-rule="evenodd" clip-rule="evenodd" d="m1175.7 801.322 110.22-34.596c2.67 9.888 4 18.055 4 24.5 0 6.444-3.17 21.277-9.5 44.5l-14.5 252.004c-30.56-8-54.56-12-72-12h-46.38l-1.21 11.78c-30.56-8-54.56-12-72-12h-87.002l114.002-258.5 76-31.5-1.63 15.812z" fill="#fff"/><path d="m1114.8 1040.01 58.8-238.68a.74.74 0 0 1 .5-.536l111.5-35a.75.75 0 0 1 .95.52c2.68 9.948 4.03 18.176 4.03 24.696 0 6.53-3.17 21.371-9.51 44.621l-13.73 238.619-.51 36.26H898.328l128.502-70.5h87.97zm153.01 0 11.77-204.544.02-.154c6.32-23.151 9.48-37.951 9.48-44.302 0-6.206-1.26-14.059-3.77-23.55l-110.36 34.639-58.6 237.911h151.46z" fill="#3B3B3B"/><path fill-rule="evenodd" clip-rule="evenodd" d="m1086.56 631.444 3.86-6.218 112.5-21.345c55-7.311 82.5-20.967 82.5-40.967s-18.33-29.666-55-29l-1.5-73c15.33-2.387 36.33-1.178 63 3.628 40 7.21 93 35.625 87 107.723-3.36 40.402-27.77 78.73-82 103.461-6.86 3.126-19.53 5.614-38 7.463l-9.14.035 57.64 80.502c-54.18 25.738-95.68 42.738-124.5 51-28.82 8.261-61.15 12.428-97 12.5l8.45-110.473-54.95 18.473 35.5 50.5-32.11 48c-68.704-34.773-100.871-71.106-96.499-109 4.372-37.895 51.039-69.561 139.999-95l.25 1.718z" fill="#fff"/><path d="M1086.12 629.289c.4-.114.81.117.93.515a.755.755 0 0 1-.52.927c-88.689 25.362-135.132 56.877-139.457 94.365-4.326 37.494 27.638 73.599 96.097 108.245.37.187.51.638.33 1.008a.754.754 0 0 1-1.01.33c-68.956-34.899-101.325-71.461-96.907-109.755 4.418-38.301 51.309-70.119 140.537-95.635zm-53.68 91.473 63.98-19.536-1.5 18.5-.8.278a.767.767 0 0 1-.45.43l-49.68 17.463 31.46 47.197c.23.345.14.81-.21 1.04a.75.75 0 0 1-1.04-.208l-31.63-47.45a.995.995 0 0 1-.52-.333c-4.03-4.939-8.06-10.814-12.08-17.624a.997.997 0 0 1 .35-1.37 1.002 1.002 0 0 1 1.37.352c.25.424.5.844.75 1.261z" fill="#3B3B3B"/><path fill-rule="evenodd" clip-rule="evenodd" d="m646.263 1104.12 37.698-.24.754-149.377-70.793-.804c-43.19-.491-79.56 32.176-83.693 75.171l-4.872 50.67c-1.215 12.65 8.049 23.88 20.694 25.1a23 23 0 0 0 2.348.1l76.27-.48 10.12-63.53a2.99 2.99 0 0 1 3.435-2.49 2.992 2.992 0 0 1 2.516 2.7l5.523 63.18z" fill="#fff"/><path fill-rule="evenodd" clip-rule="evenodd" d="m625.804 665.726 16.5-29 76.409 5.284-12.5 69.5-21.953 243.381c-37.092-.065-58.941-.025-65.547.119-6.606.144-11.076.049-13.409-.284l-42.894-22.975c-34.566-18.514-47.579-61.545-29.065-96.111a73.51 73.51 0 0 1 .846-1.532l63.546-111.922" fill="#fff"/><path fill-rule="evenodd" clip-rule="evenodd" d="m625.804 665.726 16.5-29 76.409 5.284-12.5 69.5-21.953 243.381c-37.092-.065-58.941-.025-65.547.119-6.606.144-11.076.049-13.409-.284l-42.894-22.975c-34.566-18.514-47.579-61.545-29.065-96.111a73.51 73.51 0 0 1 .846-1.532l63.546-111.922" fill="#fff"/><path fill-rule="evenodd" clip-rule="evenodd" d="m714.42 641.118-34.824 202.116c-7.833 45.462 16.883 90.282 59.511 107.917 18.849 7.798 39.142 22.383 79.805-5.581 14.908-10.252 27.849-22.578 38.823-36.978a70.998 70.998 0 0 0 8.261-72.207l-91.226-202.43-60.35 7.163z" fill="#fff"/><path d="m717.442 642.2-12.352 68.677-21.901 242.763c-36.683-.063-58.304-.023-64.878.12-6.443.14-10.84.052-13.156-.259l-42.776-22.911c-34.201-18.319-47.076-60.895-28.758-95.096.273-.509.552-1.014.837-1.516l63.546-111.921a.751.751 0 0 0-1.305-.741l-63.546 111.921a70.64 70.64 0 0 0-.854 1.549c-18.71 34.931-5.56 78.416 29.372 97.126l42.894 22.975a.745.745 0 0 0 .248.081c2.387.341 6.885.436 13.531.291 6.597-.143 28.446-.183 65.529-.118a.75.75 0 0 0 .749-.683l21.953-243.381 12.491-69.435a.75.75 0 0 0-.687-.881l-76.408-5.285a.755.755 0 0 0-.704.379l-16.5 29a.75.75 0 0 0 1.304.742l16.267-28.591 75.104 5.194z" fill="#3B3B3B"/><path d="M531.211 1026.73c-.09.73-.17 1.46-.241 2.19l-4.871 50.68c-1.176 12.23 7.786 23.1 20.018 24.28.755.07 1.513.1 2.272.1l75.634-.49 10.02-62.9a3.749 3.749 0 0 1 4.294-3.11 3.744 3.744 0 0 1 3.145 3.37l5.463 62.5 36.265-.23.385-76.39H531.211zm115.052 78.12a.74.74 0 0 1-.752-.68l-5.523-63.18a2.25 2.25 0 0 0-4.463-.16l-10.121 63.53a.748.748 0 0 1-.736.63l-76.27.49c-.809 0-1.618-.03-2.424-.11-13.057-1.26-22.624-12.86-21.368-25.91l4.871-50.68c4.17-43.381 40.869-76.343 84.448-75.848l70.793.804a.75.75 0 0 1 .742.754l-.754 149.38a.743.743 0 0 1-.745.74l-37.698.24z" fill="#3B3B3B"/><path fill-rule="evenodd" clip-rule="evenodd" d="m733.615 1099.52-3.066-104.371c-.873-29.724 22.515-54.528 52.239-55.401a52.757 52.757 0 0 1 1.64-.024c30.331.034 54.892 24.649 54.859 54.98 0 .196-.002.392-.004.587l-1.233 104.569-17.666 20.47c-9.699 11.23-26.003 14.02-38.882 6.64l-47.887-27.45z" fill="#fff"/><path fill-rule="evenodd" clip-rule="evenodd" d="m714.42 641.118-34.824 202.116c-7.833 45.462 16.883 90.282 59.511 107.917 18.849 7.798 39.142 22.383 79.805-5.581 14.908-10.252 27.849-22.578 38.823-36.978a70.998 70.998 0 0 0 8.261-72.207l-91.226-202.43-60.35 7.163z" fill="#fff"/><path d="M713.741 639.809a.751.751 0 0 0-.651.618l-34.824 202.116c-7.892 45.808 17.012 90.969 59.964 108.737 1.209.501 2.468 1.046 4.068 1.757.627.279 3.415 1.529 4.172 1.866 11.872 5.273 19.539 7.454 29.346 7.245 12.795-.273 26.697-5.359 42.931-16.523 14.973-10.298 27.972-22.679 38.994-37.142a71.748 71.748 0 0 0 8.348-72.97l-91.226-202.43a.751.751 0 0 0-.772-.437l-60.35 7.163zm59.981-5.608 91 201.929a70.25 70.25 0 0 1-8.174 71.444c-10.926 14.337-23.809 26.607-38.651 36.815-16.007 11.008-29.633 15.994-42.113 16.259-9.536.203-17.018-1.925-28.705-7.116-.754-.335-3.542-1.585-4.172-1.865a166.402 166.402 0 0 0-4.104-1.773c-42.304-17.5-66.832-61.98-59.059-107.096l34.73-201.565 59.248-7.032z" fill="#3B3B3B"/><path d="M838.366 1040.23c-16.862 11.92-31.726 17.76-44.593 17.5-13.044-.27-33.332-6.98-60.863-20.14l1.806 61.48 47.522 27.24c12.568 7.2 28.478 4.48 37.942-6.48l17.486-20.26.7-59.34zm-105.137 59.31-3.066-104.378c-.886-30.138 22.828-55.288 52.966-56.173a61.553 61.553 0 0 1 1.664-.024c30.745.034 55.641 24.986 55.607 55.731 0 .198-.001.397-.003.595l-1.234 104.569a.771.771 0 0 1-.182.48l-17.665 20.47c-9.934 11.51-26.633 14.36-39.823 6.8l-47.887-27.44a.753.753 0 0 1-.377-.63zm1.499-.05-.012-.42-.365-.21.377.63z" fill="#3B3B3B"/><path fill-rule="evenodd" clip-rule="evenodd" d="M660.919 549.226c-30.667-2-51 16.333-61 55-5.555 21.481 0 27.267 0 37.5 0 13.5 8.003 49.611-32.5 53-28.385 2.375-66.749-22.42-72-63-5.5-42.5 7.749-62.668 19.5-90.5 30.44-72.096 142.348-97.308 177.5-73 23.434 16.205 64.101 33.205 122 51l-5 122.5-21 55c-34.835-3.996-62.002-8.996-81.5-15-19.498-6.004-46.998-17.838-82.5-35.5l36.5-97z" fill="#fff"/><path d="m613.437 651.431-.518-.206.019-.037a.75.75 0 0 1-.181-.957c2.798-4.902 5.378-9.5 7.741-13.794l12.921-25.212a5407.8 5407.8 0 0 1 6.991-17.579c4.08-11.517 8.464-21.964 12.915-31.227a220.524 220.524 0 0 1 5.062-9.931c.518-.95.981-1.778 1.385-2.482l.147-.281a2.487 2.487 0 0 1-.006.035c.201-.348.344-.59.423-.721a.75.75 0 1 1 1.284.775c-.085.142-.254.427-.498.853a127.464 127.464 0 0 0-2.009 3.634c-7.346 43.246-4.577 73.888 8.306 91.924 11.535 16.15 23.071 27.185 34.606 33.105 1.665.376 3.323.74 4.976 1.091 29.268 6.22 54.253 9.001 74.949 8.348a.752.752 0 0 1 .775.726.754.754 0 0 1-.727.775c-20.83.656-45.931-2.139-75.308-8.381-29.277-6.221-60.361-16.374-93.253-30.458z" fill="#3B3B3B"/><path fill-rule="evenodd" clip-rule="evenodd" d="M809.452 715.093c61.661 1.752 94.516-20.347 105.565-67.296 16.573-70.423-66.514-134.938-106.934-148.071l-36.664 136.5 3.5 51.5c5.326 11.893 10.159 19.56 14.5 23 3.333 2.642 10.011 4.097 20.033 4.367z" fill="#fff"/><path d="M809.44 713.976c60.676 1.723 93.731-19.625 104.814-66.719 7.47-31.742-4.937-64.656-31.924-94.847-21.833-24.426-52.175-45.081-74.511-52.339a.75.75 0 1 1 .463-1.426c22.599 7.343 53.163 28.148 75.167 52.765 27.283 30.523 39.864 63.9 32.265 96.191-11.259 47.842-44.975 69.616-106.316 67.874a.75.75 0 0 1 .042-1.499zm420.65-252.436 1.47 71.595c36.54-.527 55.02 9.355 55.02 29.762 0 20.55-27.8 34.351-83.15 41.71a.76.76 0 0 1-.85-.644.758.758 0 0 1 .65-.843c54.64-7.264 81.85-20.773 81.85-40.223 0-19.455-17.94-28.91-54.24-28.25a.75.75 0 0 1-.76-.735l-1.5-73a.744.744 0 0 1 .63-.756c15.43-2.403 36.51-1.189 63.25 3.631 23.26 4.192 45.21 14.233 61.14 29.728 19.61 19.074 29.26 45.305 26.48 78.794-2.79 33.491-19.84 62.1-46.6 83.028-22.93 17.93-51.48 28.584-74.15 28.584a.746.746 0 0 1-.75-.75c0-.414.33-.75.75-.75 22.32 0 50.55-10.534 73.22-28.266 26.45-20.683 43.28-48.921 46.03-81.97 2.75-33.046-6.73-58.836-26.03-77.594-15.7-15.268-37.37-25.185-60.36-29.328-26.21-4.726-46.92-5.963-62.1-3.723zm18.83 221.686 58.5 81-20 10c-6.67-9.667-15.5-21.334-26.5-35-11-13.667-15-32.334-12-56zM660.834 548.668c-31.064-2.026-51.692 16.573-61.775 55.56-3.211 12.417-3.139 18.655-1.092 29.116.302 1.54.45 2.333.597 3.24.314 1.941.471 3.611.471 5.332 0 .611.016 1.288.048 2.061.05 1.244.39 6.821.459 8.281.171 3.676.189 6.784.008 9.811-1.134 18.947-10.138 30.243-32.327 32.1-14.115 1.181-30.609-4.463-44.146-15.232-14.729-11.717-24.605-28.238-27.048-47.117-1.989-15.369-1.62-28.451.841-40.728 1.998-9.961 5.076-18.677 10.581-31.2-.422.959 6.198-13.857 8.025-18.184 13.913-32.952 46.307-58.582 86.534-72.233 36.063-12.238 72.552-12.403 89.849-.442a.75.75 0 1 0 .853-1.234c-17.768-12.287-54.717-12.12-91.184.256-40.601 13.778-73.334 39.676-87.434 73.069-1.819 4.31-8.432 19.11-8.016 18.164-5.545 12.614-8.655 21.422-10.678 31.509-2.495 12.441-2.868 25.688-.858 41.215 2.495 19.28 12.577 36.147 27.601 48.099 13.823 10.996 30.688 16.767 45.205 15.552 12.442-1.041 21.107-5.181 26.555-12.017 4.468-5.605 6.621-12.739 7.144-21.487.185-3.088.167-6.246-.007-9.971-.069-1.477-.409-7.047-.459-8.271a50.82 50.82 0 0 1-.046-2.001c0-1.809-.164-3.557-.491-5.572-.15-.928-.3-1.733-.604-3.288-2.008-10.257-2.077-16.276 1.072-28.452 9.917-38.346 29.955-56.414 60.225-54.44a.75.75 0 1 0 .097-1.496z" fill="#3B3B3B"/><path fill-rule="evenodd" clip-rule="evenodd" d="m1151.48 603.699-102.01 15.687a3 3 0 0 0 .02 5.934l46.14 6.801-15.8 34.777a3 3 0 0 0 4.83 3.385l37.55-36.766 9.66 46.335a2.997 2.997 0 0 0 3.55 2.324 2.997 2.997 0 0 0 2.33-2.362l8.78-45.02 40.66 33.419a2.997 2.997 0 0 0 4.22-.413 2.97 2.97 0 0 0 .48-2.986l-13.36-34.59 43.32 13.186a3.009 3.009 0 0 0 3.75-1.997c.31-1.03.05-2.15-.69-2.933l-25.55-27.048 43.81-11.725a2.997 2.997 0 0 0 2.12-3.673 2.991 2.991 0 0 0-2.74-2.221l-42.15-2.213 20.71-20.198a3.002 3.002 0 0 0 .06-4.242 3.005 3.005 0 0 0-3.62-.522l-66.07 37.061zm-405.69-80.665c-3.311 3.07-7.27 5.145-11.922 6.777-8.403 2.948-18.942 4.246-27.493-.112-6.003-3.058-12.911-9.443-16.06-14.87-4.76-8.203-4.371-16.975-.775-25.993-4.838.168-9.702-.598-14.057-2.816-6.042-3.079-12.999-9.502-16.172-14.958-5.614-9.653-4.132-20.083 1.314-30.772 3.721-7.304 9.781-13.908 16.751-16.947 8.997-3.921 19.552-2.715 28.979 2.088 8.525 4.344 14.613 11.888 17.23 20.361a32.895 32.895 0 0 1 1.329 12.63c3.878 2.618 9.183 9.426 12.194 10.96 4.725 2.407 20.789 6.307 25.506 10.375a25.604 25.604 0 0 1 2.762-1.414c8.997-3.921 19.552-2.715 28.979 2.088 8.525 4.344 14.613 11.888 17.23 20.361 2.518 8.155 1.809 17.164-2.372 25.369-4.138 8.122-10.089 12.207-18.065 14.995-8.453 2.956-19.056 4.25-27.665-.136-6.042-3.079-12.999-9.502-16.172-14.958a27.125 27.125 0 0 1-1.521-3.028z" fill="#3B3B3B"/><path d="m786.463 394.124 18.881 11.685c9.583 5.931 14.24 17.315 11.435 27.952-4.191 15.893-8.303 27.837-12.334 35.833-4.035 8.001-8.972 15.041-14.811 21.118-3.651 3.8-9.138 5.297-14.354 3.917l-2.937-.776a27.095 27.095 0 0 1-9.133-4.382l-14.45-10.654-5.957 5.903-24.425-21.761 24.911-56.21c6.637-14.978 24.413-21.462 39.702-14.483a31.093 31.093 0 0 1 3.472 1.858z" fill="#fff"/><path fill-rule="evenodd" clip-rule="evenodd" d="M769.568 455.043c1.827-8.522 5.703-13.745 11.628-15.669 8.887-2.887 13.88-3.547 18.267-2.438 4.263 1.078 14.996 2.958 14.996 2.958s-4.353 13.914-9.217 27.323c-4.864 13.408-18.331 24.209-18.331 24.209s-24.031-14.07-17.343-36.383z" fill="#FF83F4"/><path d="M805.428 468.701c5.332 2.06 7.21 5.009 5.636 8.849-1.18 2.878-4.52 4.202-7.459 2.957a5.932 5.932 0 0 1-.983-.53l-2.566-1.712a84.246 84.246 0 0 1-10.137 12.857c-3.837 3.987-9.603 5.559-15.085 4.111l-2.818-.745a27.86 27.86 0 0 1-9.594-4.647l-13.49-10.114-4.499 5.369a.756.756 0 0 1-1.057.086l-25.422-20.749a.753.753 0 0 1-.223-.882l24.715-56.791c6.694-15.381 24.866-22.147 40.588-15.111a32.066 32.066 0 0 1 3.759 1.991l18.674 11.54c9.872 6.101 14.669 17.81 11.779 28.752-4.006 15.17-7.943 26.756-11.818 34.769zm-57.216 9.515a.755.755 0 0 1 1.031-.105l14.07 10.548a26.283 26.283 0 0 0 9.055 4.386l2.819.745c4.951 1.308 10.16-.112 13.626-3.713 5.79-6.017 10.687-12.988 14.69-20.916 4.005-7.931 8.102-19.816 12.283-35.643 2.721-10.304-1.797-21.331-11.094-27.076l-18.673-11.54a30.718 30.718 0 0 0-3.577-1.895c-14.954-6.692-32.24-.257-38.607 14.375l-24.491 56.274 24.388 19.906 4.48-5.346z" fill="#3B3B3B"/><path fill-rule="evenodd" clip-rule="evenodd" d="M742.348 396.82c.944-3.331-.513-3.69-4.372-1.077-3.367 2.281-9.872 11.216-19.514 26.804a31 31 0 0 0-4.623 17.2c.094 3.271.389 5.842.883 7.712.919 3.471 3.085 6.638 6.5 9.5l22.5-20.5 8.176-4.901c-5.465 8.795-7.923 13.58-7.375 14.356 1.408 1.995 4.935 3.709 10.579 5.141 4.287-11.89 7.809-19.442 10.566-22.658 2.756-3.215-2.109-12.104-14.598-26.667l-8.722-4.91z" fill="#fff"/><path d="M742.339 393.591c-1.015-.25-2.48.371-4.587 1.798-3.495 2.367-10.02 11.33-19.731 27.03a31.745 31.745 0 0 0-4.735 17.616c.096 3.324.396 5.948.908 7.883.961 3.63 3.216 6.926 6.743 9.883a.75.75 0 0 0 .987-.021l22.445-20.449 5.475-3.283c-4.717 7.736-6.508 11.473-5.737 12.566 1.541 2.183 5.202 3.962 11.007 5.435a.75.75 0 0 0 .89-.473c4.257-11.804 7.752-19.301 10.43-22.424 3.152-3.676-1.795-12.714-14.598-27.644a.761.761 0 0 0-.201-.165l-8.222-4.628c.381-1.708.113-2.832-1.074-3.124zm22.956 34.585c-2.785 3.248-6.256 10.643-10.469 22.248-5.064-1.346-8.228-2.921-9.469-4.641l.006.009c.03.043.032.04.037-.005.019-.16.079-.396.182-.696.225-.655.638-1.571 1.238-2.738 1.218-2.372 3.189-5.751 5.912-10.133.415-.668-.348-1.443-1.023-1.039l-8.176 4.902-.119.088-22.01 20.054c-3.015-2.653-4.928-5.548-5.76-8.691-.478-1.806-.766-4.323-.859-7.542a30.256 30.256 0 0 1 4.512-16.784c9.573-15.476 16.057-24.383 19.296-26.577 1.752-1.187 2.945-1.693 3.387-1.584.044.011.055.026.08.202.047.338-.027.891-.237 1.633a.75.75 0 0 0 .354.858l8.607 4.845c12.11 14.138 16.867 22.844 14.511 25.591z" fill="#3B3B3B"/><path fill-rule="evenodd" clip-rule="evenodd" d="m789.299 479.641 6.009 3.287-3.689 4.702c-.324.412-.89.546-1.364.322a2.614 2.614 0 0 1-1.214-1.184l-2.332-4.62a1.887 1.887 0 0 1 2.59-2.507zm14.554-23.15c-3.965-2.2-6.878-2.682-8.742-1.446-2.794 1.855-5.833 1.724-6.138-.757-.304-2.482 2.865-5.39 8.629-3.579 3.842 1.208 5.926 3.135 6.251 5.782z" fill="#fff"/><path d="M795.9 481.809a.75.75 0 0 1 .23 1.121l-3.689 4.703a1.872 1.872 0 0 1-2.274.537 3.36 3.36 0 0 1-1.563-1.524l-2.333-4.62a2.638 2.638 0 0 1 3.62-3.503l6.009 3.286zm-6.728-1.97a1.14 1.14 0 0 0-1.562 1.511l2.333 4.62c.187.37.491.667.866.844.157.074.345.03.452-.107l3.143-4.006-5.232-2.862zm15.657-23.9a.75.75 0 0 1-1.108.747c-3.745-2.078-6.395-2.516-7.963-1.476-3.29 2.183-6.913 1.833-7.297-1.291-.449-3.657 4.048-6.129 9.598-4.385 4.096 1.287 6.404 3.422 6.77 6.405zm-7.22-4.974c-4.629-1.455-7.953.373-7.659 2.771.205 1.674 2.465 1.892 4.979.224 1.877-1.245 4.523-1.011 7.931.597-.798-1.538-2.526-2.736-5.251-3.592z" fill="#3B3B3B"/><path fill-rule="evenodd" clip-rule="evenodd" d="M746.958 433.828c.264-8.345-3.568-12.53-11.497-12.556-11.893-.039-21.048 26.489 1.5 33.312" fill="#fff"/><path d="M739.483 430.243a.751.751 0 0 1-.797.64c-4.681-.338-7.674 1.263-9.16 4.84a.751.751 0 0 1-1.386-.576c1.75-4.21 5.362-6.142 10.654-5.76a.69.69 0 0 1 .122.019c-2.212-2.841-5.804-2.841-12.845 1.041a.749.749 0 0 1-.738-.007 19.246 19.246 0 0 0-1.506 4.866c-1.401 8.28 2.7 15.569 12.384 18.932a.75.75 0 0 1-.493 1.417c-10.388-3.608-14.891-11.611-13.37-20.599 1.352-7.988 7.277-14.476 13.497-14.204 8.352.365 12.326 5.073 11.695 13.814a.743.743 0 0 1-.161.412.746.746 0 0 1-.145.652c-1.52 1.88-3.395 1.851-5.159-.018-.278-.295-.512-.679-.747-1.185-.221-.476-.97-2.467-1.134-2.855-.22-.52-.456-.997-.711-1.429zm-13.183-1.621c8.692-4.54 12.92-3.103 15.275 2.466.184.436.922 2.394 1.114 2.808.172.373.329.63.477.786 1.164 1.233 1.975 1.247 2.898.11a.728.728 0 0 1-.02-.234c.571-7.915-2.775-11.88-10.265-12.208-3.561-.155-7.127 2.393-9.479 6.272z" fill="#3B3B3B"/><path fill-rule="evenodd" clip-rule="evenodd" d="M734.366 400.12c13.348 14.065 26.261 24.678 38.737 31.839 12.475 7.161 26.608 9.39 42.397 6.688 21.096-22.07 33.773-34.108 38.029-36.116 6.385-3.013 15.843.334 17.673 8.241 1.22 5.271-5.483 22.8-20.109 52.589 25.48-15.995 39.057-25.786 40.729-29.372 2.509-5.379 34.25-34.408-9.539-65.91-29.192-21.002-56.014-15.54-80.463 16.385 2.643-29.331-4.259-48.839-20.707-58.524-24.672-14.527-43.275-6.577-56.782 22.39-9.005 19.311-14.106 31.038-15.303 35.182 20.473-18.665 32.825-27.012 37.054-25.039 4.229 1.972.324 15.854-11.716 41.647z" fill="#fff"/><path d="M857.633 458.475c20.843-13.302 32.137-21.639 33.563-24.697.246-.528.687-1.19 1.512-2.31-.088.119 1.853-2.485 2.492-3.37 4.837-6.702 7.887-12.755 8.99-19.627 2.16-13.459-4.295-26.731-22.291-39.678-28.769-20.697-55.072-15.413-79.231 15.973a.784.784 0 0 1-.011.096l-2.5 13.5a.75.75 0 1 1-1.475-.273l2.466-13.317a.793.793 0 0 1-.022-.27c2.62-29.07-4.182-48.296-20.34-57.81-24.031-14.15-42.258-6.814-55.722 22.06-6.466 13.866-10.919 23.823-13.347 29.84.387.192.759.404 1.115.635 18.271-16.274 29.268-23.358 33.62-21.328 4.876 2.273 1.037 16.037-11.137 42.18 13.177 13.832 25.916 24.276 38.214 31.335 12.256 7.035 26.13 9.25 41.654 6.641 21.098-22.065 33.708-34.034 38.08-36.097 7.187-3.391 16.87.745 18.723 8.75 1.164 5.026-4.259 19.945-16.316 45.149.07.069.139.137.207.207a10.636 10.636 0 0 1 1.756 2.411zm-3.149-3.618c11.725-24.556 17.088-39.288 16.041-43.81-1.629-7.039-10.27-10.729-16.622-7.732-4.129 1.948-16.816 13.996-37.808 35.956a.751.751 0 0 1-.415.221c-15.956 2.731-30.266.473-42.897-6.777-12.545-7.2-25.512-17.859-38.908-31.973a.75.75 0 0 1-.135-.834c11.736-25.141 15.632-38.993 12.078-40.65-3.49-1.627-14.281 5.361-31.759 20.888a11.051 11.051 0 0 1 3.22 4.72c.907 2.609.779 5.529-.48 8.23-1.246 2.673-3.124 4.06-5.672 5.052-2.699 1.051-6.113 1.589-8.946.268-1.988-.927-4.311-2.925-5.398-4.654-1.924-3.057-1.563-6.446.077-9.964 1.121-2.403 3.006-4.607 5.225-5.668 2.518-1.204 5.469-1.141 8.253-.126 2.453-6.076 6.904-16.028 13.366-29.885 13.817-29.63 32.997-37.349 57.843-22.719 16.261 9.575 23.333 28.527 21.278 56.733 24.276-30.473 51.028-35.364 79.95-14.557 18.432 13.26 25.152 27.077 22.896 41.133-1.148 7.149-4.293 13.392-9.255 20.266-.647.897-2.594 3.509-2.5 3.382-.763 1.037-1.172 1.65-1.361 2.055-1.608 3.449-12.936 11.826-34.305 25.45a11.31 11.31 0 0 1 .669 3.864c0 2.949-1.115 5-3.005 6.976-2.003 2.093-4.869 4.024-7.995 4.024-2.194 0-5.143-.83-6.859-1.937-3.036-1.958-4.141-5.182-4.141-9.063 0-2.652.777-5.446 2.34-7.346 2.017-2.452 5.237-3.654 8.66-3.654 2.435 0 4.726.792 6.565 2.131z" fill="#3B3B3B"/><path d="m1128.32 513.863-39.23 8.622c-13.49 2.964-22.02 16.298-19.06 29.784.1.451.22.9.34 1.345 4.94 17.738 8.74 30.677 11.38 38.817 5.63 17.331 24.25 26.815 41.58 21.184.34-.11.67-.226 1.01-.347l12.58-4.542-1.5 7.5 42.5-19.5-1.15-17.599a42.13 42.13 0 0 0-2.05-10.542l-11.47-34.814c-4.82-14.611-19.91-23.21-34.93-19.908z" fill="#fff"/><path fill-rule="evenodd" clip-rule="evenodd" d="m1083.42 563.726-5.09 34.223 21.5 12.561 11.5-22.802-27.91-23.982zm42.5-14.5-5.59 32.372 23.94 19.412 9.06-33.647-27.41-18.137z" fill="#56FFB2"/><path d="M1134.13 615.602a.752.752 0 0 0 1.05.832l42.51-19.451a.74.74 0 0 0 .44-.729l-1.09-17.348a43.436 43.436 0 0 0-2.09-10.828l-11.25-34.125c-4.94-14.985-20.43-23.798-35.83-20.397l-39.23 8.658c-13.89 3.065-22.66 16.808-19.59 30.695.1.455.21.906.33 1.355 4.87 17.475 8.61 30.233 11.22 38.276 5.71 17.567 24.58 27.181 42.14 21.473.34-.11.68-.226 1.02-.348l11.62-4.194-1.25 6.131zm2.99-7.14a.75.75 0 0 0-.99-.856l-12.88 4.648c-.32.116-.65.227-.97.332-16.78 5.452-34.8-3.73-40.25-20.509-2.61-8.019-6.34-20.759-11.2-38.215-.12-.423-.22-.848-.32-1.276-2.89-13.078 5.38-26.02 18.45-28.907l39.23-8.658c14.66-3.236 29.38 5.148 34.08 19.402l11.26 34.125a41.828 41.828 0 0 1 2.01 10.452l1.06 16.833-40.7 18.623 1.22-5.994z" fill="#3B3B3B"/><path fill-rule="evenodd" clip-rule="evenodd" d="M1135.19 583.183c.29.34.2.695-.26 1.064-.43.343-1.17.416-1.27.445a1.953 1.953 0 0 1-2.38-1.331c-.59-2.019-.93-3.19-1.02-3.515-.08-.287-.36-1.434-.86-3.441a1.6 1.6 0 0 1 1.14-1.929 2.296 2.296 0 0 1 2.8 1.575c.35 1.178.53 1.795.54 1.85.02.087.46 1.848 1.31 5.282zm-35.59 10.934c.28.34.2.695-.27 1.064-.43.343-1.16.416-1.27.445a1.942 1.942 0 0 1-2.37-1.331c-.6-2.019-.94-3.19-1.03-3.515-.07-.287-.36-1.434-.86-3.441-.2-.846.3-1.704 1.14-1.929a2.296 2.296 0 0 1 2.8 1.575c.35 1.178.53 1.795.54 1.85.03.087.46 1.848 1.32 5.282zm9.23-28.601c-.21-.639.1-1.335.71-1.606.66-.289 1.43.011 1.72.67l9.08 20.711c.05.109.1.218.14.329a5.493 5.493 0 0 1-3.29 7.031l-1.5.546a7.098 7.098 0 0 1-9.36-5.187c-.46-2.152 2.2-4.152 8-6l-5.5-16.494zm-316.539-96.113c2.182-2.785 3.3-4.214 3.354-4.286.034-.046.41-.567 1.126-1.563a2.298 2.298 0 0 0-.483-3.177 1.601 1.601 0 0 0-2.222.29 376.846 376.846 0 0 0-2.183 2.795c-.202.269-.915 1.258-2.14 2.97a1.948 1.948 0 0 0 .412 2.689c.089.067.598.599 1.135.729.576.139.91-.01 1.001-.447z" fill="#3B3B3B"/><path fill-rule="evenodd" clip-rule="evenodd" d="M1093.53 546.248a551.48 551.48 0 0 1-11.16 1.978c-7.1 1.178-10.3 1.535-9.57 1.069l-2.43 2.431c-.6 7.481-.6 14.148 0 20 .61 5.851 4.11 12.018 10.5 18.5-3.5-13.635-4-23.135-1.5-28.5 1.8-3.854 6.95-8.035 15.45-12.543.02.014.03.028.05.043l9.4-4.585c.68-.304 1.39-.609 2.1-.915l-.39.081 53.44-26.081c6 3 10.22 8.584 12.67 16.752 2.44 8.168 2.7 12.417.78 12.748-14.2-2.967-24.19-4.634-29.95-5-16.92-1.076-28.83 1.333-36.55 1.5-7.63.164-11.91 1.004-12.84 2.522z" fill="#fff"/><path d="M1077.07 584.694c-4.14-8.712-4.29-17.831-.44-27.305.16-.384.6-.568.98-.412.38.155.57.593.41.977-3.96 9.758-3.51 19.053 1.35 27.949-2.44-11.173-2.55-19.174-.27-24.049 1.89-4.04 7.15-8.309 15.78-12.888.1-.053.21-.081.31-.087l7.79-3.799c-4.96.322-7.81 1.044-8.4 2.006a.744.744 0 0 1-.5.345c-3.94.738-7.67 1.398-11.18 1.98-3.26.542-5.71.911-7.33 1.108-.83.099-1.45.155-1.87.167-.14.004-.27.004-.38-.003l-1.81 1.823c-.58 7.327-.57 13.857.02 19.588.41 4.019 2.25 8.221 5.54 12.6zm94.47-50.331c-.02-.006-.03-.013-.05-.021-3.28-1.641-6.9-2.956-10.84-3.943-3.94-.984-8.38-1.478-13.32-1.478a.746.746 0 0 1-.75-.75c0-.414.33-.75.75-.75 5.06 0 9.62.507 13.68 1.523 3.53.882 6.81 2.022 9.83 3.42-2.41-6.336-6.08-10.776-11.02-13.354l-49.65 24.231c.49-.037 1.01-.08 1.57-.129 1.21-.107 5.89-.558 6.02-.571 9.64-.906 16.89-1.173 25.62-.618 5.78.368 15.73 2.027 29.88 4.978.64-.27.76-1.949.21-4.993a.735.735 0 0 1-.35-.017c-5.63-1.656-11.93-2.982-18.9-3.977-6.95-.993-13.4-1.324-19.35-.994a.75.75 0 1 1-.08-1.497c6.05-.337 12.6-.001 19.64 1.006 6.88.982 13.12 2.285 18.72 3.91-.32-1.486-.78-3.221-1.37-5.2l-.24-.776zm-12.04-16.866a.74.74 0 0 1 .66.004c6.2 3.099 10.55 8.853 13.05 17.208 2.62 8.734 2.9 13.238.2 13.702a.75.75 0 0 1-.28-.005c-14.18-2.96-24.13-4.623-29.85-4.986-8.64-.549-15.81-.285-25.38.615-.13.011-4.81.464-6.03.571-2.01.177-3.56.278-4.93.312-.66.286-1.32.571-1.94.843l-9.39 4.584a.802.802 0 0 1-.27.074c-8.22 4.389-13.18 8.439-14.88 12.07-2.41 5.162-1.92 14.517 1.55 27.996.19.741-.73 1.258-1.26.713-6.51-6.592-10.09-12.905-10.72-18.95-.6-5.9-.6-12.612 0-20.137a.758.758 0 0 1 .22-.469l2.24-2.241a.914.914 0 0 1 .31-.29.718.718 0 0 1 .91.074c.37-.014.93-.066 1.68-.156 1.6-.193 4.02-.559 7.27-1.098 3.41-.566 7.03-1.206 10.86-1.92 1.38-1.619 5.58-2.399 12.84-2.58l53.14-25.934zm-53.71 26.282c-.31.373-.15.965.27 1.16l.5-.012c-.68.016-.98-.757-.62-1.212l-.15.064zm76.83 270.51c-28.53 8.179-60.52 12.336-95.98 12.468l9.44-123.303a.754.754 0 0 0-.7-.805.745.745 0 0 0-.8.69l-9.5 124.114c-.03.436.31.807.75.807 35.92-.072 68.32-4.248 97.2-12.529 28.87-8.275 70.4-25.289 124.62-51.044.42-.2.56-.734.29-1.114l-57.15-79.813h10.04c.41 0 .75-.336.75-.75s-.34-.75-.75-.75h-11.5c-.61 0-.97.69-.61 1.186l57.48 80.271c-53.76 25.507-94.95 42.365-123.58 50.572z" fill="#3B3B3B"/><path fill-rule="evenodd" clip-rule="evenodd" d="M1162.92 557.177c.56-8.33 4.79-12.116 12.68-11.356 11.84 1.139 18.32 28.443-4.79 33" fill="#fff"/><path d="M1175.07 551.97c3.84 3.103 5.13 6.792 3.74 10.938a.742.742 0 0 1-.94.475.749.749 0 0 1-.48-.949c1.23-3.675.02-6.846-3.74-9.663a.772.772 0 0 1-.29-.491c-1.32.507-2.39 1.622-3.36 3.239-.22.361-1.24 2.228-1.52 2.669-.31.469-.59.816-.91 1.069-2.01 1.606-3.87 1.373-5.11-.7a.697.697 0 0 1-.09-.523.743.743 0 0 1-.2-.557c.59-8.743 5.18-12.853 13.51-12.052 6.19.596 11.16 7.845 11.38 15.944.26 9.113-5.31 16.411-16.1 18.538a.747.747 0 0 1-.88-.591c-.08-.406.18-.8.59-.881 10.05-1.982 15.13-8.63 14.89-17.024a19.117 19.117 0 0 0-.8-5.006.755.755 0 0 1-.61-.134c-3.98-2.984-6.85-4.314-9.08-4.301zm-11.41 5.695c.03.036.06.076.09.12.75 1.261 1.56 1.361 2.88.301.17-.135.36-.367.59-.713.24-.383 1.25-2.219 1.49-2.625 3.08-5.142 7.42-6.007 15.27-.462-1.81-4.085-4.95-7.031-8.45-7.368-7.46-.718-11.33 2.743-11.86 10.66 0 .029-.01.058-.01.087z" fill="#3B3B3B"/><path fill-rule="evenodd" clip-rule="evenodd" d="m606.379 694.338 59.921 32.231a13.98 13.98 0 0 1 4.189 3.446c3.647 4.442 4.728 8.618 3.245 12.529-2.417 6.374-9.544 9.581-15.917 7.163a10.018 10.018 0 0 1-.361-.143c-55.622-23.12-91.257-43.881-106.905-62.284a1458.043 1458.043 0 0 1-12.727-15.142c-7.918-9.577-6.574-23.759 3.003-31.678a22.505 22.505 0 0 1 9.509-4.636c12.113-2.661 23.896.236 35.348 8.693l31.5 18.241 16.735 6.968 23.5-14c3.553-1.728 6.219-2.562 8-2.5 1.78.061 3.947 1.061 6.5 3 1.498 2.194 2.331 3.861 2.5 5 .386 2.608-.898 5.584-1 6.5-.169 1.515-1.169 2.182-3 2 2.305.395 3.971.895 5 1.5 1.028.605 2.195 1.772 3.5 3.5v12l-38.5 28.5" fill="#fff"/><path d="m642.223 713.053-35.87-19.294a.75.75 0 1 0-.711 1.321l59.922 32.23a13.266 13.266 0 0 1 3.964 3.262c3.49 4.251 4.501 8.155 3.123 11.787-2.27 5.986-8.963 8.999-14.949 6.728a12.565 12.565 0 0 1-.339-.134c-55.519-23.078-91.073-43.792-106.622-62.078a1468.745 1468.745 0 0 1-12.72-15.134c-7.654-9.258-6.355-22.967 2.902-30.622a21.756 21.756 0 0 1 9.193-4.481c11.893-2.613 23.457.231 34.811 8.609l30.963 17.931a.748.748 0 0 0 .453.476l17.67 6.588a.75.75 0 0 0 .661-.067l22.614-14.178a11.427 11.427 0 0 1 3.671-1.493c4.833-1.042 8.323-.246 10.582 2.338 3.161 3.617 3.153 8.93.199 12.523-2.021-.287-4.311-.154-6.861.395a14.73 14.73 0 0 0-4.719 1.914l-25.585 16-19.888-7.393a.75.75 0 0 0-.523 1.406l20.234 7.522a.752.752 0 0 0 .659-.067l25.898-16.196a13.249 13.249 0 0 1 4.24-1.72c5.57-1.198 9.608-.28 12.223 2.703 4.06 4.634 3.596 11.682-1.038 15.742a10.97 10.97 0 0 1-1.069.828l-33.081 22.549-.007.005zm1.489.8 32.444-22.114c.423-.289.828-.602 1.213-.94 5.256-4.606 5.783-12.602 1.177-17.858-1.393-1.589-3.122-2.667-5.176-3.238 2.934-4.124 2.775-9.872-.7-13.848-2.659-3.042-6.704-3.964-12.027-2.817a12.953 12.953 0 0 0-4.152 1.688l-22.3 13.982-16.738-6.241a.745.745 0 0 0-.275-.277l-31.43-18.196c-11.62-8.58-23.621-11.531-35.954-8.821a23.244 23.244 0 0 0-9.826 4.79c-9.896 8.183-11.285 22.838-3.103 32.734a1473.26 1473.26 0 0 0 12.733 15.15c15.747 18.519 51.464 39.328 107.189 62.491.127.052.254.103.383.152 6.76 2.564 14.32-.838 16.884-7.599 1.589-4.19.437-8.637-3.367-13.271a14.749 14.749 0 0 0-4.413-3.631l-22.562-12.136zm182.629-37.61c4.336-12.864 5.578-21.281 5.328-40.007a.75.75 0 0 1 1.5-.02c.252 18.891-1.015 27.477-5.406 40.506-7.984 23.691-12.652 36.305-14.215 38.32a.752.752 0 0 1-.501.285c-11.655 1.432-21.856-2.462-30.536-11.644-8.674-9.176-12.326-20.983-10.956-35.362l-.591-36.312a.75.75 0 0 1 1.5-.024l.587 36.395c-1.333 14.047 2.185 25.424 10.55 34.273 8.277 8.755 17.899 12.484 28.931 11.224 1.583-2.518 6.25-15.204 13.809-37.634zm-69.385-85.961a14.769 14.769 0 0 1-4.072-3.06c-4.237-4.523-5.708-8.996-4.312-13.353 2.134-6.656 9.259-10.322 15.915-8.189.487.156.964.342 1.429.556l17.003 7.989c5.559 3.553 6.605 4.531 3.139 2.935l-20.769-9.561c-.41-.189-.831-.353-1.26-.49-5.867-1.881-12.148 1.351-14.028 7.218-1.211 3.778.082 7.712 3.978 11.869a13.233 13.233 0 0 0 3.658 2.749l27.221 13.857a.753.753 0 0 1 .397.531l3.974 21.218a.75.75 0 0 1-1.475.276l-3.905-20.856-26.893-13.689z" fill="#3B3B3B"/><path d="M778.466 571.745a14.733 14.733 0 0 1-3.413-3.78c-3.297-5.249-3.887-9.921-1.685-13.931 3.364-6.126 11.057-8.366 17.184-5.002.449.247.882.52 1.297.819l24.797 17.472a29.75 29.75 0 0 1 12.497 21.693l4.074 45.968a.75.75 0 1 1-1.494.133l-4.074-45.969a28.247 28.247 0 0 0-11.868-20.599l-24.801-17.476a11.246 11.246 0 0 0-1.15-.726c-5.4-2.965-12.182-.991-15.148 4.409-1.909 3.478-1.39 7.586 1.641 12.411a13.257 13.257 0 0 0 3.066 3.396l24.077 18.796c.17.133.275.334.287.549l2.205 39.234a.75.75 0 0 1-1.498.084l-2.185-38.894-23.809-18.587z" fill="#3B3B3B"/><path fill-rule="evenodd" clip-rule="evenodd" d="M1122.85 568.084c-.78-2.55.34-5.158 3.36-7.824 4.53-3.999 8.61-2.631 9.34-.24.73 2.39-1.99 3.746-5.3 3.188-2.21-.371-4.67 1.254-7.4 4.876zm-23.81 11.625c-4.21-1.701-7.16-1.824-8.86-.37-2.54 2.182-5.58 2.422-6.18-.003-.6-2.426 2.19-5.699 8.13-4.603 3.96.73 6.26 2.388 6.91 4.976z" fill="#fff"/><path d="M1123.22 568.622c-.36.49-1.13.355-1.31-.231-.88-2.875.36-5.764 3.58-8.606 4.36-3.85 9.47-3.42 10.55.103.92 3.009-2.25 4.803-6.14 4.147-1.86-.312-4.1 1.166-6.68 4.587zm6.93-6.066c2.97.501 4.95-.617 4.45-2.23-.7-2.31-4.48-2.628-8.12.584-2.14 1.89-3.23 3.687-3.34 5.417 2.46-2.855 4.79-4.145 7.01-3.771zm-30.61 17.059a.75.75 0 0 1-1.01.876c-3.97-1.606-6.65-1.718-8.08-.495-3 2.568-6.64 2.662-7.4-.392-.89-3.574 3.27-6.576 8.99-5.522 4.22.778 6.77 2.616 7.5 5.533zm-7.77-4.058c-4.78-.879-7.85 1.34-7.27 3.684.41 1.636 2.68 1.578 4.97-.384 1.71-1.465 4.37-1.555 7.95-.374-.98-1.43-2.84-2.408-5.65-2.926z" fill="#3B3B3B"/><path d="M1068.96 556.61c3.73 2.59 15.05.629 33.96-5.884s38.04-18.284 57.06-33.192l-144-189.938 52.98 229.014z" fill="#fff"/><path d="M1069.97 556.356c4.03 2.796 15.44.818 34.64-5.791 18.99-6.542 38.03-17.293 57.11-32.249a.758.758 0 0 0 .14-1.042l-143.84-190.999c-.49-.647-1.51-.169-1.33.62l52.98 229.014a.75.75 0 0 0 .3.447zm1.09-1.084-52.11-225.271 141.26 187.587c-18.76 14.622-37.46 25.14-56.09 31.558-18.23 6.278-29.37 8.275-33.06 6.126z" fill="#3B3B3B"/><path d="M1178.83 887.726s-46.58 37.5-46.58 56.5 44.5 96.504 44.5 111.004-21.5 60.5-91 60.5c-42.18 0-104.198-.05-186.055-.15-7.732-.01-13.993-6.28-13.984-14.01.003-2.67.77-5.29 2.21-7.54 5.368-8.38 11.309-17.15 17.825-26.3 18.5-26 33.5-52 49.5-63.5 16-11.504 33.581-5.891 21.081-29.891-8.333-16-21.636-31.762-39.908-47.284" fill="#fff"/><path d="M1178.83 887.726s-46.58 37.5-46.58 56.5 44.5 96.504 44.5 111.004-21.5 60.5-91 60.5c-42.18 0-104.198-.05-186.055-.15-7.732-.01-13.993-6.28-13.984-14.01.003-2.67.77-5.29 2.21-7.54 5.368-8.38 11.309-17.15 17.825-26.3 18.5-26 33.5-52 49.5-63.5 16-11.504 33.581-5.891 21.081-29.891-8.333-16-21.636-31.762-39.908-47.284" fill="#fff"/><path fill-rule="evenodd" clip-rule="evenodd" d="M976.919 974.726c21.667 16.666 34.671 28.504 39.001 35.504 4.33 7-15.67 5-60.001-6l21-29.504zm157.411-36.83c-.87 5.971-.87 10.805 0 14.5.86 3.696 2.86 8.53 6 14.5l-43-10 37-19z" fill="#3B3B3B"/><path d="M1178.86 887.312c-.1.075-.27.219-.53.43-.43.351-.93.761-1.48 1.227a281.59 281.59 0 0 0-5.29 4.519c-5.48 4.776-10.95 9.851-16.06 15.006-4.3 4.34-8.15 8.548-11.44 12.558-7.75 9.446-12.06 17.359-12.06 23.345 0 7.951 6.32 23.56 21.08 54.887.39.836.8 1.696 1.24 2.616 11.36 24.08 11.96 25.35 15.29 33.01 4.56 10.5 6.89 17.28 6.89 20.49 0 9.09-7.16 23.73-19.21 35.14-16.36 15.49-40.04 24.61-71.04 24.61-42.18 0-104.198-.05-186.054-.15-7.318 0-13.243-5.94-13.235-13.26.003-2.53.729-5 2.092-7.13 5.36-8.37 11.295-17.13 17.804-26.28 4.813-6.76 20.358-29.62 20.266-29.49 7.579-10.96 13.157-18.33 18.608-24.28 3.621-3.96 7.071-7.12 10.453-9.55.765-.55 1.551-1.08 2.361-1.58 2.251-1.38 4.611-2.55 7.399-3.719 1.504-.629 6.24-2.459 6.744-2.664 10.358-4.198 12.012-9.046 4.805-22.884-8.382-16.093-21.747-31.927-40.089-47.509a.75.75 0 1 0-.971 1.143c18.203 15.464 31.444 31.152 39.729 47.059 3.724 7.15 4.821 11.753 3.784 14.793-.855 2.508-3.031 4.067-7.821 6.008-.486.197-5.233 2.031-6.76 2.671-2.855 1.195-5.282 2.392-7.607 3.832-.84.51-1.655 1.06-2.45 1.63-3.473 2.49-6.997 5.73-10.683 9.76-5.508 6.01-11.121 13.42-18.736 24.44.084-.12-15.452 22.72-20.254 29.47-6.523 9.17-12.471 17.95-17.845 26.34a14.737 14.737 0 0 0-2.329 7.94c-.009 8.14 6.587 14.76 14.733 14.76 81.857.1 143.876.15 186.056.15 31.38 0 55.43-9.27 72.07-25.02 12.34-11.68 19.68-26.7 19.68-36.23 0-3.51-2.36-10.37-7.02-21.09-3.33-7.68-3.93-8.95-15.31-33.05-.43-.92-.84-1.785-1.23-2.615-14.6-30.983-20.94-46.639-20.94-54.248 0-5.531 4.17-13.201 11.72-22.393 3.26-3.971 7.08-8.145 11.35-12.455 5.08-5.126 10.53-10.177 15.97-14.931 1.91-1.664 3.68-3.172 5.27-4.497.55-.463 1.04-.871 1.47-1.218.25-.209.43-.35.52-.422.32-.26.37-.732.11-1.055a.746.746 0 0 0-1.05-.114z" fill="#3B3B3B"/><path fill-rule="evenodd" clip-rule="evenodd" d="M1097.33 813.165c-19.5 0-29 5.845-62.5 20.845-33.5 14.999 4.64 37.389-52.002 45.33-56.644 7.941-72.144 21.176-54.644 43.235 17.5 22.058 41.23 31.946 91.996 29.117 50.77-2.83 23.15-47.182 59.65-47.182s96.35 12.771 102.35-17.229-65.35-74.116-84.85-74.116z" fill="#3B3B3B"/><path fill-rule="evenodd" clip-rule="evenodd" d="M1155.69 456.22 1131 392.818a13.955 13.955 0 0 0-2.91-4.578c-3.96-4.16-7.97-5.743-12.04-4.747-6.62 1.622-10.67 8.305-9.05 14.925.04.126.07.251.1.375 16.17 58.026 32.44 95.926 48.79 113.7 16.79 18.24 41.84 24.24 75.16 18l-1.5-61.5-19.78.112-24.85-31.38-1.5-5.5 18.5-23.499c2-6.667 1.17-11.501-2.5-14.501s-7.5-3-11.5 0l-47.5 24" fill="#fff"/><path d="M1230.06 530.276c-32.77 6.004-57.35.028-73.84-17.887-16.26-17.662-32.48-55.475-48.62-113.393l-.09-.352c-1.53-6.219 2.28-12.495 8.5-14.019 3.77-.925 7.52.555 11.32 4.537a13.308 13.308 0 0 1 2.75 4.332l24.69 63.402a.747.747 0 1 0 1.39-.544l-24.68-63.402a14.74 14.74 0 0 0-3.07-4.823c-4.13-4.34-8.41-6.025-12.76-4.959-7.02 1.721-11.32 8.81-9.6 15.833.03.133.07.266.1.398 16.2 58.133 32.5 96.119 48.97 114.006 16.98 18.45 42.29 24.513 75.85 18.229a.75.75 0 0 0 .61-.756l-1.5-61.5a.754.754 0 0 0-.76-.731l-19.78.112a.743.743 0 0 0-.74.754c0 .414.34.748.75.746l19.05-.108 1.46 60.125z" fill="#3B3B3B"/><path d="M1201.02 411.345a13.074 13.074 0 0 0 2.18-3.915c1.79-5.143 1.36-9.271-1.33-12.281-4.12-4.592-11.18-4.993-15.78-.895-.34.3-.65.621-.95.959l-23.11 26.265a.744.744 0 0 0 .06 1.058c.31.274.79.244 1.06-.067l23.11-26.265c.26-.293.54-.57.83-.83 3.98-3.548 10.1-3.201 13.66.776 2.29 2.556 2.65 6.118 1.03 10.787a11.509 11.509 0 0 1-1.93 3.462l-16.83 20.718a.75.75 0 0 0-.14.647l4.38 18.342c.1.403.5.651.91.555.4-.096.65-.501.55-.904l-4.3-17.982 16.6-20.43z" fill="#3B3B3B"/><path fill-rule="evenodd" clip-rule="evenodd" d="m1169.24 470.264 15.77-9.984c.06-5.725.03-9.568-.09-11.529-.46-7.923 0-11.641 4.44-13.758 13.06-6.242 15.33 9.719 18.56 20.258 3.24 10.539 3.15 17.947-4.62 25.161m-33.78-30.353-5-21 19.23-23.731a13.995 13.995 0 0 0 2.35-4.225c1.95-5.619 1.5-10.021-1.35-13.207-4.38-4.904-11.9-5.328-16.81-.948-.35.321-.69.663-1.01 1.025l-25.01 28.753" fill="#fff"/><path d="M1168.75 469.276a.752.752 0 0 0-.24 1.034c.22.35.69.455 1.04.233l15.77-9.983a.737.737 0 0 0 .35-.627c.05-5.742.02-9.597-.09-11.58-.5-8.503.27-11.256 4-13.038 7.13-3.401 11.08-.372 14.2 8.527.55 1.576 1.05 3.23 1.72 5.621.13.448.66 2.379.8 2.884.31 1.101.56 1.964.81 2.77 3.49 11.372 2.55 17.926-4.41 24.391a.75.75 0 1 0 1.02 1.099c7.44-6.911 8.47-14.059 4.82-25.931-.24-.791-.49-1.644-.79-2.734-.14-.502-.68-2.433-.8-2.883-.68-2.42-1.19-4.1-1.76-5.714-3.37-9.626-8.12-13.267-16.25-9.383-4.47 2.132-5.39 5.421-4.86 14.478.11 1.892.14 5.587.09 11.071l-15.42 9.765zm15.89-63.638a14.682 14.682 0 0 0 2.48-4.451c2.03-5.855 1.55-10.54-1.49-13.952-4.66-5.213-12.66-5.664-17.87-1.009-.38.341-.75.705-1.08 1.09l-26.42 30.086a.755.755 0 0 0 .07 1.059c.31.273.79.242 1.06-.069l26.41-30.086c.3-.34.62-.66.96-.961 4.59-4.104 11.64-3.706 15.75.889 2.64 2.959 3.06 7.078 1.19 12.461a13.321 13.321 0 0 1-2.22 3.999l-19.23 23.731a.722.722 0 0 0-.15.646l5 21c.09.403.5.652.9.556a.76.76 0 0 0 .56-.904l-4.92-20.64 19-23.445z" fill="#3B3B3B"/><path fill-rule="evenodd" clip-rule="evenodd" d="m1229.3 460.879-11.88 10.347 12.01 14.871-10.01 13.129 10.12 12.589c-6.59 7.18-9.96 10.817-10.12 10.911-.16.094 3.59 3.874 11.23 11.34l-1.35-73.187z" fill="#3B3B3B"/><path d="M1148.29 711.652c-2.28-.526-5.1-2.07-6.62-3.638-2.56-2.636-3.19-6.135-2.19-10.454.67-2.873 2.19-5.506 4.21-7.057 2.62-2.014 6.21-2.597 9.88-1.748 3.15.726 5.85 2.698 7.48 5.385 1.55 2.567 2.03 5.656 1.33 8.707-.67 2.884-2.17 4.843-4.82 6.579-3.01 1.978-6.32 2.909-9.27 2.226zm.33-1.461c2.5.576 5.42-.245 8.12-2.019 2.34-1.536 3.61-3.182 4.18-5.663.61-2.672.19-5.362-1.15-7.592a10.385 10.385 0 0 0-6.53-4.701c-3.27-.754-6.4-.245-8.64 1.477-1.72 1.322-3.07 3.65-3.66 6.205-.89 3.864-.36 6.845 1.81 9.071 1.31 1.356 3.87 2.759 5.87 3.222zm4.03 48.541c-2.28-.526-5.1-2.07-6.62-3.638-2.56-2.636-3.19-6.135-2.19-10.454.66-2.873 2.19-5.506 4.21-7.057 2.62-2.014 6.21-2.598 9.88-1.749a11.89 11.89 0 0 1 7.48 5.386c1.55 2.566 2.03 5.655 1.33 8.706-.67 2.884-2.17 4.844-4.82 6.58-3.01 1.978-6.32 2.909-9.27 2.226zm.33-1.462c2.5.577 5.42-.244 8.12-2.018 2.34-1.536 3.6-3.182 4.18-5.663.61-2.673.19-5.362-1.15-7.593a10.383 10.383 0 0 0-6.53-4.7c-3.27-.754-6.4-.245-8.64 1.476-1.72 1.323-3.07 3.651-3.66 6.205-.89 3.864-.36 6.846 1.81 9.072 1.31 1.356 3.87 2.759 5.87 3.221z" fill="#3B3B3B"/><path fill-rule="evenodd" clip-rule="evenodd" d="M975.419 303.726c-.536-3.218-.414-7.205 2.5-11.5.473-.697 1.639-1.697 3.5-3l4-3 29.001-3.5c2.4-1.144 4.07-2.144 5-3 6.19-5.715 10.68-11.882 14.5-15 3.28-2.682 6.18-2.698 8-3 4.41-.735 8.24 4.098 11.5 14.5l2.5 14.5-41.5 22.5c-6.95 5.169-11.61 8.169-14 9-3.184 1.107-5.589.254-7.001-1-3-2.667-2.333-6.5 2-11.5-5.809 1.562-9.809 2.062-12 1.5-3.87-.994-7.639-5.337-8-7.5zm99.771 481.526 25.48 22.001a38.015 38.015 0 0 1 12.92 32.999l-2.13 18.958c-1.1 6.617-4.24 10.657-9.41 12.122-5.17 1.465-8.31 2.013-9.42 1.644-3.46 5.1-6.41 8.222-8.86 9.365-2.45 1.143-6.26 1.177-11.44.101-4.17 5.708-7.56 9.159-10.17 10.353-1 .458-2.25.751-3.75.882a16.012 16.012 0 0 1-13.38-5.351l-7.87-8.916a37.977 37.977 0 0 1-8.96-31.533l.03-.179-3.28-16.162-11.26-13.784c4.38-9.365 13.69-18.046 27.92-26.043 14.24-7.997 25.43-10.149 33.58-6.457z" fill="#fff"/><path d="m1023.98 832.34-11.14-13.64a.76.76 0 0 1-.1-.792c4.45-9.527 13.87-18.312 28.23-26.379 14.42-8.102 25.84-10.298 34.26-6.486l.18.115 25.47 22.001a38.727 38.727 0 0 1 13.18 33.65l-2.13 18.997c-1.15 6.886-4.48 11.171-9.95 12.721-4.69 1.328-7.72 1.92-9.28 1.752-3.41 4.963-6.35 8.032-8.89 9.215-2.55 1.19-6.35 1.258-11.43.252-4.11 5.575-7.48 8.97-10.18 10.205-1.09.496-2.42.809-4 .946a16.744 16.744 0 0 1-14-5.601l-7.88-8.917a38.717 38.717 0 0 1-9.13-32.156l.01-.04-3.22-15.843zm50.53-45.975c-7.88-3.512-18.81-1.388-32.81 6.472-13.89 7.805-23.02 16.24-27.4 25.282l10.96 13.416c.07.094.13.206.15.325l3.28 16.162c.02.091.02.184.01.276l-.03.179a37.16 37.16 0 0 0 8.78 30.909l7.87 8.917a15.257 15.257 0 0 0 12.75 5.1c1.42-.123 2.59-.398 3.5-.816 2.46-1.126 5.78-4.503 9.88-10.114a.748.748 0 0 1 .76-.292c5.03 1.046 8.69 1.014 10.97-.046 2.29-1.071 5.17-4.11 8.55-9.106a.752.752 0 0 1 .86-.291c.9.298 3.99-.241 8.98-1.654 4.87-1.38 7.82-5.176 8.87-11.484l2.13-18.959a37.255 37.255 0 0 0-12.67-32.347l-25.39-21.929z" fill="#3B3B3B"/><path d="M1092.44 846.25a.75.75 0 0 1 1.5.07l-1.27 27.44a.753.753 0 0 1-.79.715.748.748 0 0 1-.71-.784l1.27-27.441zm-21.39 9.043c0-.414.34-.75.75-.75.42 0 .75.336.75.75v28.433c0 .414-.33.75-.75.75a.753.753 0 0 1-.75-.75v-28.433zm-25.11 22.375c.17.378 0 .822-.38.99a.753.753 0 0 1-.99-.381l-20.34-45.747a.765.765 0 0 1 .38-.99c.38-.168.83.003.99.381l20.34 45.747zm-32.52-59.442c6.33-12 14.67-20.334 25-25 4.41-1.994 10.89-6.036 16-7.5 3.19-.916 8.09-1.865 13.5-1.5 1.55.104 3.88.604 7 1.5l-7 9-16-6c-3.5 9.666-5.17 14.5-5 14.5.17 0-6-.5-18.5-1.5v15.5l-15 1z" fill="#3B3B3B"/><path fill-rule="evenodd" clip-rule="evenodd" d="M1014.42 313.726c3.85-4.896 6.35-8.73 7.5-11.5 1.14-2.771 1.81-6.604 2-11.5 4.78 2 9.78 3 15 3 5.22 0 10.89-1 17-3-2.7 4.08-5.03 7.247-7 9.5-4.74 5.42-11.63 9.793-20.5 12-2.82.7-7.48 1.2-14 1.5zm-34.001-26.5c-1.16-5.218-1.993-9.884-2.5-14-.507-4.117-1.007-10.283-1.5-18.5 8.926 9.08 15.926 15.746 21 20 5.071 4.253 9.571 6.92 13.501 8 1.2-.027 1.87-.027 2 0 1.36.274-2.1 1.347-7 2-5.62.748-14.117 1.582-25.501 2.5z" fill="#FFF000"/><path d="M711.833 638.085c13.207 16.31 37.136 18.825 53.446 5.618 16.31-13.208 18.825-37.136 5.617-53.446-13.207-16.31-37.136-18.825-53.446-5.617-16.309 13.207-18.824 37.136-5.617 53.445z" fill="#fff"/><path d="M720.867 647.18a38.717 38.717 0 0 1-9.361-8.35c-13.468-16.632-10.903-41.032 5.729-54.5 16.631-13.469 41.032-10.904 54.5 5.728 13.468 16.631 10.904 41.032-5.728 54.5-9.142 7.404-20.632 9.962-31.363 8.003-4.919-.576-9.541-2.262-13.777-5.381zm-11.791-14.602a36.96 36.96 0 0 1-2.185-4.639c.277.664.571 1.327.879 1.987a66.23 66.23 0 0 0 1.306 2.652zm2.529-40.209c.762 3.959-.875 23.959 18.517 38.168 15.643 11.463 31.242 10.026 46.797-4.311l-.05.28c3.998-11.719 2.068-25.171-6.299-35.504-12.947-15.988-36.403-18.454-52.391-5.507a37.333 37.333 0 0 0-6.574 6.874z" fill="#3B3B3B"/><path d="M540.919 530.726c20.987 0 38-17.014 38-38 0-20.987-17.013-38-38-38s-38 17.013-38 38c0 20.986 17.013 38 38 38z" fill="#fff"/><path d="M513.172 465.676c7.038-7.218 16.869-11.7 27.747-11.7 21.401 0 38.75 17.349 38.75 38.75s-17.349 38.75-38.75 38.75c-3.32 0-6.542-.418-9.617-1.203-4.914-1.046-9.493-3.187-13.383-5.547-6.6-4.005-11.418-10.133-13.637-19.348a38.671 38.671 0 0 1-2.113-12.652 38.569 38.569 0 0 1 5.19-19.385 31.647 31.647 0 0 1 5.813-7.665zm9.042-5.17c-1.24 4.27-10.68 21.482.705 42.22 9.16 16.685 23.94 22.131 44.34 16.339 6.741-6.741 10.91-16.053 10.91-26.339 0-20.573-16.677-37.25-37.25-37.25a37.07 37.07 0 0 0-18.705 5.03z" fill="#3B3B3B"/><path d="M592.159 330.632c15.596 14.042 39.623 12.783 53.666-2.813s12.784-39.624-2.813-53.666c-15.596-14.043-39.623-12.784-53.666 2.812s-12.784 39.624 2.813 53.667z" fill="#fff"/><path d="M615.398 264.058c10.061-.655 20.366 2.592 28.45 9.871 15.904 14.32 17.188 38.821 2.868 54.725-14.32 15.905-38.822 17.189-54.726 2.869a38.683 38.683 0 0 1-8.277-10.568c-1.901-3.191-3.313-6.563-4.299-9.839-2.224-7.392-1.705-15.17 2.812-23.503a38.68 38.68 0 0 1 6.896-10.816 38.57 38.57 0 0 1 16.827-10.933 31.66 31.66 0 0 1 9.449-1.806zm10.18 2.207c-3.779 2.344-22.312 8.819-27.727 31.848-4.322 18.381 2.695 32.331 21.053 41.85 9.852-.262 19.582-4.41 26.697-12.312 13.766-15.289 12.531-38.842-2.757-52.607a37.076 37.076 0 0 0-17.266-8.779z" fill="#3B3B3B"/><path d="M927.79 538.661c20.364 5.077 40.987-7.315 46.065-27.678 5.077-20.364-7.315-40.987-27.679-46.064-20.363-5.078-40.987 7.314-46.064 27.678-5.077 20.363 7.315 40.987 27.678 46.064z" fill="#fff"/><path d="M916.54 468.767c8.575-5.301 19.198-7.272 29.753-4.64 20.766 5.177 33.402 26.208 28.225 46.973-5.178 20.766-26.208 33.402-46.974 28.225a38.666 38.666 0 0 1-12.614-5.679 43.854 43.854 0 0 1-8.069-6.435c-5.435-5.482-8.628-12.594-8.552-22.072a38.697 38.697 0 0 1 1.011-12.788 38.566 38.566 0 0 1 9.725-17.553 31.636 31.636 0 0 1 7.495-6.031zm10.024-2.829c-2.236 3.843-15.56 18.26-9.53 41.136 4.934 18.716 18.185 27.435 39.755 26.16 7.838-4.942 13.855-12.797 16.273-22.497 4.977-19.961-7.17-40.178-27.132-45.155a37.074 37.074 0 0 0-19.366.356zm90.476-151.708a34.94 34.94 0 0 1-2.3-.366.867.867 0 0 1-.17-.056 38.1 38.1 0 0 1-1.32 1.231c-1.98 1.786-4.09 3.368-6.34 4.838-.83.541-1.63 1.037-2.52 1.565-.29.174-1.48.874-1.71 1.015-3.888 2.361-10.091.22-11.201-3.315-.581-1.85.305-4.416 2.584-7.782-9.565 1.892-15.742.474-18.39-4.407-2.157-3.975-2.004-9.512.519-13.949a15.035 15.035 0 0 1 4.165-4.701c-2.698-6.526-4.365-18.358-5.031-35.548-.028-.719.874-1.061 1.33-.504 18.804 22.955 31.924 32.417 39.044 28.639 3.44-1.826 6.13-4.246 9.95-8.534.33-.375 2.11-2.388 2.61-2.951 5.55-6.2 9.42-8.74 15.26-8.696 4.27.032 7.54 4.643 9.97 13.635h12.43c.57 0 .93.614.65 1.114-15.29 27.529-30.77 40.271-48.03 38.924v12.844c0 .414-.33.75-.75.75a.753.753 0 0 1-.75-.75V314.23zm38.34-23.829c-3.1-2.358-4.88-5.159-5.34-8.402-.43-3.016.28-5.266 2.14-6.75-2.29-8.737-5.24-13.014-8.67-13.04-5.3-.04-8.84 2.289-14.13 8.196-.5.557-2.27 2.569-2.61 2.948-1.56 1.752-2.94 3.206-4.27 4.442a.734.734 0 0 1-.22.472c-3.87 3.705-8.38 5.906-13.84 7.025-4.14.848-7.77 1.035-15.25 1.034h-.996c-4.136 0-7.583.967-10.255 2.705a.755.755 0 0 1-.479.325 13.557 13.557 0 0 0-3.964 4.389c-2.271 3.996-2.41 8.982-.505 12.492 2.41 4.442 8.567 5.588 18.639 3.252.681-.158 1.189.62.77 1.179-2.839 3.795-3.965 6.512-3.49 8.024.812 2.586 5.918 4.349 8.99 2.483.24-.148 1.44-.852 1.73-1.022.86-.518 1.65-1.003 2.46-1.532 2.19-1.43 4.24-2.968 6.16-4.698 6.87-6.166 10.92-13.58 10.92-22.549 0-.414.33-.75.75-.75.41 0 .75.336.75.75 0 8.252-3.25 15.241-8.84 21.162 14.02 2.365 26.89-4.806 39.55-22.135zm-44.42-7.286c-7.97-.979-19.267-10.414-34.042-28.189.704 15.588 2.283 26.446 4.714 32.53 2.838-1.696 6.393-2.63 10.562-2.63h.997c7.379.001 10.939-.183 14.949-1.003.97-.2 1.91-.435 2.82-.708zm29.96-3.389c-1.11 0-4-.794-4-3.5s2.89-3.5 4-3.5c1.1 0 4 .794 4 3.5s-2.9 3.5-4 3.5zm69.57 322.489c-.22 3.748 6.36 4.96 11.4 1.76 2.41-1.535 3.79-1.919 6.17-2.074.56-.036.75-.05 1.03-.082.9-.098 1.64-.294 2.42-.682 4.04-2.007 2.64-6.84-3.12-7.574-3.78-.481-7.95.542-12.52 3.043-.35.194-.71.386-1.06.576-2.73 1.453-4.21 3.117-4.32 5.033zm6.1-4.294c4.31-2.359 8.18-3.307 11.61-2.87 4.4.56 5.24 3.454 2.65 4.743-.61.303-1.18.454-1.92.534-.25.028-.43.041-.97.076-2.61.171-4.23.62-6.88 2.305-4.18 2.659-9.22 1.731-9.1-.407.08-1.284 1.22-2.563 3.53-3.796.36-.193.72-.388 1.08-.585z" fill="#3B3B3B"/><path fill-rule="evenodd" clip-rule="evenodd" d="M558.241 984.437c-18.165.908-29.973-1.012-35.424-5.761-8.176-7.122-5.406-25.431 7.768-28.231 8.782-1.867 18.001 9.464 27.656 33.992zm.009.043c7.557-16.609 14.733-26.27 21.526-28.982 10.19-4.067 25.417 6.69 21.867 19.704-2.367 8.677-16.831 11.769-43.393 9.278z" fill="#fff"/><path d="M522.542 979.209c-9.206-8.02-4.965-26.753 8.105-29.531 9.11-1.936 18.316 9.094 27.875 32.858 7.364-15.798 14.392-25.052 21.194-27.767 11.464-4.576 26.391 7.682 22.869 20.598-2.509 9.197-17.267 12.352-44.187 9.827a.696.696 0 0 1-.147-.028c-18.209.887-30.091-1.063-35.709-5.957zm8.417-28.064c-11.833 2.515-15.725 19.708-7.431 26.933 5.156 4.492 16.458 6.401 33.847 5.627-9.381-23.517-18.275-34.29-26.416-32.56zm70.178 23.827c3.188-11.686-10.518-22.94-20.865-18.81-6.429 2.567-13.361 11.78-20.681 27.635 25.531 2.279 39.352-.779 41.546-8.825z" fill="#3B3B3B"/><path fill-rule="evenodd" clip-rule="evenodd" d="M791.699 984.27c-16.786-1.135-27.531-4.23-32.236-9.286-7.387-7.938-2.718-25.858 10.676-27.265 8.499-.894 16.141 10.145 22.927 33.114-1.098-16.753.556-27.827 4.962-33.222 6.94-8.498 25.473-6.472 28.678 6.632 2.113 8.642-8.778 18.245-32.674 28.808l20.092 22.189-5.191 3.92-15.282-18.062-10.095 17.552-7.121-2.13 15.264-22.25z" fill="#fff"/><path d="M759.175 975.638c-8.318-8.938-2.141-27.125 11.147-28.522 8.267-.869 15.524 8.542 21.977 28.055-.385-13.692 1.395-22.977 5.409-27.891 7.808-9.561 26.807-6.076 29.988 6.928 2.211 9.043-8.587 18.708-32.151 29.251l19.396 21.431c.296.32.248.83-.104 1.1l-5.192 3.91a.744.744 0 0 1-1.024-.12l-14.591-17.238-9.562 16.628a.75.75 0 0 1-.866.34l-7.121-2.13a.746.746 0 0 1-.403-1.14l14.523-21.172c-16.216-1.217-26.679-4.328-31.426-9.43zm54.103 29.642-19.54-21.582a.75.75 0 0 1 .252-1.189c23.57-10.419 34.235-19.823 32.249-27.944-2.878-11.766-20.322-14.965-27.369-6.336-4.251 5.204-5.881 16.122-4.795 32.699.059.893-1.214 1.12-1.467.261-6.687-22.636-14.153-33.419-22.129-32.581-12.031 1.264-17.699 17.956-10.206 26.008 4.536 4.875 15.129 7.926 31.738 9.049a.75.75 0 0 1 .568 1.173l-14.683 21.402 5.567 1.67 9.8-17.042a.75.75 0 0 1 1.222-.111l14.824 17.513 3.969-2.99zm319.952-394.872 12-5.5a.75.75 0 0 0-.62-1.364l-12 5.5a.741.741 0 0 0-.37.994c.17.377.62.542.99.37z" fill="#3B3B3B"/></svg>