<svg width="1840" height="1380" viewBox="0 0 1840 1380" fill="none" xmlns="http://www.w3.org/2000/svg"><mask id="a" mask-type="alpha" maskUnits="userSpaceOnUse" x="674" y="538" width="519" height="559"><path d="m742.486 539.914 412.314 98.38c23.94 5.713 39.93 28.301 37.36 52.78l-38.67 368.166c-2.42 23.07-23.08 39.81-46.15 37.39l-.76-.09-395.376-48.8c-21.342-2.63-37.247-20.96-36.848-42.46l7.766-418.613c.502-27.057 22.844-48.584 49.901-48.082 3.525.065 7.033.511 10.463 1.329z" fill="#fff"/></mask><g mask="url(#a)"><path d="m742.486 539.914 412.314 98.38c23.94 5.713 39.93 28.301 37.36 52.78l-38.67 368.166c-2.42 23.07-23.08 39.81-46.15 37.39l-.76-.09-395.376-48.8c-21.342-2.63-37.247-20.96-36.848-42.46l7.766-418.613c.502-27.057 22.844-48.584 49.901-48.082 3.525.065 7.033.511 10.463 1.329z" fill="#F2FF9E"/><path fill-rule="evenodd" clip-rule="evenodd" d="m673.654 987.724 244.995-173.943 86.001 66-118.501 202.499-205.995-19.5c-3.358-22.06-5.524-38.73-6.5-50-.976-11.27-.976-19.62 0-25.056z" fill="#CEDF62"/></g><path d="M907.154 580.708a2.64 2.64 0 0 1-.023.414l-11.059 80.215c5.822 1.696 10.077 7.073 10.077 13.443 0 7.686-6.193 13.925-13.861 14l-6.716 48.713c5.565 1.852 9.577 7.101 9.577 13.287 0 7.51-5.913 13.639-13.337 13.985l-12.181 88.357a2.501 2.501 0 0 1-4.953-.683l12.177-88.329c-5.631-1.813-9.706-7.096-9.706-13.33 0-7.555 5.985-13.713 13.473-13.99l6.735-48.851c-5.372-1.957-9.208-7.11-9.208-13.159 0-7.377 5.707-13.422 12.947-13.961l11.082-80.38c.015-.11.037-.216.065-.32L761.154 632.28l89.5-67 103 24.5 42 91-88.5-100.072zm209.116 191.888 4.76 1.551-100.75 308.913-4.75-1.55 100.74-308.914zM795.654 902.78l-120.5 84 7-406 20.809 56.698 92.691 265.302z" fill="#B1BF58"/><mask id="b" mask-type="alpha" maskUnits="userSpaceOnUse" x="872" y="292" width="215" height="301"><path d="m979.735 530.326-.041 61.721-105.603-5.749-1.067-128.231a82.877 82.877 0 0 1-.573-9.741v-74.18c0-45.287 36.713-82 82-82h50.359c45.29 0 82 36.713 82 82v74.18c0 45.287-36.71 82-82 82h-25.075z" fill="#fff"/></mask><g mask="url(#b)"><path d="m964.411 529.003-10.757 60.777-103-24 21.215-126.468a83.063 83.063 0 0 1 1.128-9.693l12.881-73.052c7.864-44.6 50.394-74.379 94.993-66.515l49.599 8.744c44.59 7.864 74.37 50.394 66.51 94.994l-12.88 73.052c-7.86 44.6-50.39 74.38-94.994 66.516l-24.695-4.355z" fill="#81A6FF"/></g><mask id="c" mask-type="alpha" maskUnits="userSpaceOnUse" x="872" y="292" width="215" height="301"><path d="m979.348 530.293-.041 61.722-105.602-5.749-1.068-128.232a82.864 82.864 0 0 1-.573-9.741v-74.179c0-45.288 36.713-82 82-82h50.356c45.29 0 82 36.712 82 82v74.179c0 45.288-36.71 82-82 82h-25.072z" fill="#fff"/></mask><g mask="url(#c)"><path d="m964.026 528.971-10.758 60.777-103-24 21.215-126.468a83.063 83.063 0 0 1 1.128-9.693l12.881-73.052c7.864-44.6 50.394-74.38 94.994-66.516l49.594 8.745c44.6 7.864 74.38 50.394 66.51 94.994l-12.88 73.052c-7.86 44.6-50.39 74.379-94.99 66.515l-24.694-4.354z" fill="#FF8181"/><path fill-rule="evenodd" clip-rule="evenodd" d="m885.654 372.28 196.496-71.5-114.675-25-90.821 17.426 9 79.074z" fill="#383838"/></g><path d="m843.439 320.65-5.869-1.247c-29.172-6.201-57.847 12.421-64.047 41.592l-1.248 5.869c-6.2 29.172 12.421 57.847 41.593 64.047l5.869 1.248c29.172 6.2 57.846-12.421 64.047-41.593l1.248-5.869c6.2-29.171-12.421-57.846-41.593-64.047z" fill="#383838"/><path fill-rule="evenodd" clip-rule="evenodd" d="m989.654 481.28 17.196 13.756a26.98 26.98 0 0 0 11.99 5.472l11.91 2.188c3.81.699 7.74-.006 11.07-1.985l13.33-7.931-10.05-10.054a8.012 8.012 0 0 0-7.05-2.222l-4.4.776-8.37-4.949a8.004 8.004 0 0 0-5.62-.961l-30.006 5.91z" fill="#383838"/><path d="M1095.15 399.78c-14.08-4.929-29.32-3.167-46.75 3.555" stroke="#4F72C5" stroke-width="3" stroke-linecap="round" stroke-linejoin="round"/><path fill-rule="evenodd" clip-rule="evenodd" d="m1017.21 466.617 32.44 6.288a5.002 5.002 0 0 0 5.86-3.957c.14-.762.11-1.548-.1-2.295-3.77-13.53-5.82-24.064-6.15-31.603-.39-8.934-2.05-12.6-5-11l1.39-23.97h-2.5c-11.76 28.821-18.26 45.321-19.5 49.5-.78 2.6-11.32 3.811-12.39 8.97-.2.949.11 2.312.91 4.087a7.015 7.015 0 0 0 5.04 3.98z" fill="#C55858"/><path d="m1139.63 579.094-17.08-3.32-45.81 235.655 17.08 3.32 45.81-235.655z" fill="#8C8C8C"/><path d="m1118.18 653.493-3.61-.701c-11.39-2.213-22.41 5.222-24.62 16.607l-26.39 135.779c-2.22 11.385 5.22 22.409 16.6 24.622l3.61.701c11.38 2.213 22.41-5.223 24.62-16.608l26.39-135.779c2.22-11.385-5.22-22.408-16.6-24.621z" fill="#383838"/><path fill-rule="evenodd" clip-rule="evenodd" d="m1135.29 545.516 3.61.701c11.39 2.213 18.82 13.237 16.61 24.621l-3.59 18.473a12.001 12.001 0 0 1-11.3 9.7c-5.09.205-9.41-.038-12.97-.731-3.73-.724-8.26-2.258-13.58-4.601a11.993 11.993 0 0 1-6.95-13.274l3.55-18.282c2.22-11.384 13.24-18.82 24.62-16.607z" fill="#383838"/><path fill-rule="evenodd" clip-rule="evenodd" d="M1047.29 526.16c-21.14-33.838-22.61-73.536-11.14-108.38 8.85-26.885 24.52-50.902 50.23-66.972 20.14-12.58 41.56-17.382 63.27-18.028 13.02-.387 26.29-.481 39 3.5 12.82 4.018 29.46 11.72 41 20 13.88 9.967 22.17 21.379 31.47 36.263 11.53 18.451 17.52 39.024 19.03 59.237.8 10.708-1.07 24.927-3 35-2.92 15.216-7.57 25.864-16 39.5-9.69 15.664-22.41 31.177-39.12 41.615-12.61 7.884-25.85 13.642-39.38 16.385-20.05 4.066-40.7 2.209-60.5-3.5-13.19-3.802-28.21-10.297-40-18-14.47-9.45-25.16-21.107-34.86-36.62zm14.74-8.887c32 51.215 99.14 66.992 149.95 35.24 50.82-31.752 66.07-99.01 34.07-150.225-32.01-51.214-99.14-66.991-149.96-35.239-50.81 31.752-66.06 99.01-34.06 150.224z" fill="#898989"/><mask id="d" mask-type="alpha" maskUnits="userSpaceOnUse" x="1042" y="349" width="223" height="220"><path d="M1153.48 568.856c24.36 0 47.15-8.886 65.35-22.502 4.44-3.319 8.95-6.412 12.88-10.23 14.33-13.941 24.19-31.368 29.32-50.765 2.19-8.293 3.37-17.044 3.37-26.216 0-49.989-34.92-89.822-81.15-103.055-9.81-2.807-19.05-6.658-29.77-6.658-35.18 0-65.23 17.817-85.56 43.08-15.06 18.734-25.37 40.833-25.37 66.633 0 21.042 7 40.795 17.38 57.493 19.52 31.386 53.56 52.22 93.55 52.22z" fill="#fff"/></mask><g mask="url(#d)"><path d="M1060.44 517.282c12.9 20.66 32.52 35.281 53.71 43.499 5.17 2.003 10.18 4.195 15.5 5.5 19.41 4.763 39.42 3.893 58.59-2.035 8.2-2.534 16.24-6.176 24.02-11.036 42.39-26.49 57.66-77.213 44.39-123.429-2.82-9.804-4.45-19.685-10.13-28.777-18.64-29.831-49.68-45.877-81.87-49.723-23.87-2.852-48.07.123-69.95 13.795-17.85 11.15-30.89 27.549-39.55 45.205-16.27 33.184-15.9 73.091 5.29 107.001z" fill="#fff"/><path opacity=".653" fill-rule="evenodd" clip-rule="evenodd" d="M1173.7 441.516c-4.77-2.02-8.36-3.128-13.65-4.254-5.52-1.173-10.84-1.397-16.3-1.459-6.36-.073-12.46 1.092-18.74 2.531-5.34 1.224-13.36 4.129-24.05 8.716 7.21 8.292 12.87 14.033 16.99 17.224 6.28 4.87 12.21 9.487 19.54 12.319 3.03 1.168 6.69 2.458 10.19 3.437l-57.56 85.19-45.71-63.501 164.5-172.509 25.32 22.718-60.53 89.588zm17.36 9.888a79.404 79.404 0 0 0-7.32-4.832l58.58-85.262 6.32 1.933-57.58 88.161zm-20.18 30.907-65.17 99.77-5.57-13.798 59.2-86.188c1.59.135 3.18.231 4.82.318 2.25.12 4.48.075 6.72-.102z" fill="#E0E0E0"/><path d="M1173.89 484.756c-3.36.377-6.55.46-9.79.257-3.93-.245-6.8-.505-9.49-.924l-4.86 24.543c-.26 1.336-1.58 2.187-2.94 1.899-1.36-.288-2.25-1.604-1.99-2.941l4.85-24.482c-3.9-.95-8.55-2.493-13.17-4.296a50.287 50.287 0 0 1-6.05-2.835l-14.47 12.184c-1.05.879-2.63.742-3.55-.305-.91-1.048-.8-2.609.24-3.488l13.25-11.143c-1.42-.933-2.88-1.959-4.43-3.093-1.49-1.098-2.62-1.954-5.37-4.073-4.32-3.323-10.16-9.164-17.58-17.559-1.13-1.278-.69-3.245.87-3.89 10.81-4.487 18.95-7.326 24.48-8.523 8.08-1.748 13.56-2.499 19.38-2.375 7.07.15 11.83.563 16.86 1.667 5.62 1.231 9.41 2.438 14.49 4.613 6.19 2.655 12.48 6.239 17.8 10.169 4.65 3.445 11.31 9.842 20.04 19.236 1.17 1.257.77 3.248-.79 3.922-8.02 3.482-14.05 5.821-18.13 7.027-5.54 1.641-10.24 2.85-14.52 3.641l6.47 13.81c.58 1.25.04 2.712-1.22 3.265-1.25.553-2.75-.013-3.33-1.263l-7.05-15.043zm18.12-9.155c3.3-.977 8.11-2.797 14.38-5.456-7.35-7.785-13.01-13.144-16.93-16.043-4.99-3.69-10.93-7.076-16.77-9.576-4.77-2.045-8.25-3.153-13.55-4.315-4.65-1.018-9.12-1.405-15.88-1.549-5.34-.114-10.48.59-18.2 2.262-4.64 1.004-11.47 3.324-20.45 6.954 6.12 6.783 10.98 11.559 14.54 14.3 2.73 2.095 3.84 2.937 5.29 4.004 5.2 3.818 9.33 6.281 13.82 8.03 4.89 1.907 9.8 3.508 13.64 4.348 3.66.802 6.91 1.168 12.41 1.512 7.95.496 15.71-.92 27.7-4.471zm-38.01-6.023c-3.13-.686-6.63-4.144-8.08-6.86-1.23-2.308-1.01-4.776-.43-7.583.59-2.837 2-4.887 4.07-6.481 2.38-1.838 5.59-2.963 8.69-2.284 3.53.773 8.15 2.434 9.46 5.669.85 2.074 1.75 6.157 1.26 8.543-.48 2.325-2.39 4.655-3.92 6.181-2.49 2.484-7.46 3.601-11.05 2.815z" fill="#383838"/></g><path fill-rule="evenodd" clip-rule="evenodd" d="M946.333 400.302c2.462 12.34 12.585 21.375 30.368 27.103 17.783 5.728 31.209 4 40.279-5.183-6.55-14.716-15.96-23.994-28.216-27.836-12.258-3.841-26.401-1.869-42.431 5.916z" fill="#fff"/><path fill-rule="evenodd" clip-rule="evenodd" d="M992.491 421.758c2.901.202 5.756-1.184 7.459-3.56 1.05-1.46 1.54-3.333 1.68-5.324.15-2.045-.05-3.89-.92-5.507-1.371-2.523-4.04-4.364-6.894-4.563-2.508-.176-5.024.425-6.712 2.251-1.463 1.584-2.26 4.202-2.43 6.633-.168 2.404.28 5.143 1.484 6.906 1.416 2.075 3.801 2.987 6.333 3.164z" fill="#383838"/><path fill-rule="evenodd" clip-rule="evenodd" d="M945.907 400.38c19.792 1.971 35.129 4.621 46.012 7.949 10.881 3.329 19.431 7.983 25.631 13.962-2.93-15.079-12.66-24.999-29.183-29.759-16.52-4.761-30.674-2.145-42.46 7.848z" fill="#C55858"/><path fill-rule="evenodd" clip-rule="evenodd" d="m1022.97 417.344-45.822-41.064 3-15.5 56.002 52.5a8.047 8.047 0 0 1-13.18 4.064zM850.654 565.28l-21.329-65.469a84.999 84.999 0 0 1 15.902-81.201l40.427-47.83-35 194.5z" fill="#383838"/><mask id="e" mask-type="alpha" maskUnits="userSpaceOnUse" x="919" y="658" width="258" height="219"><path d="m919.644 816.425 155.716-142.91a34.358 34.358 0 0 1 15.79-8.234l-3 13 54.44-18.618c7.06-2.414 14.77 1.132 17.53 8.064.55 1.359 1.2 2.807 1.97 4.343 5.4 10.785 5.4 20.533 0 29.244 7.89 2.489 12.47 8.504 13.71 18.044 1.25 9.541-1.04 17.008-6.85 22.4 9.4 17.518 2.82 39.338-14.7 48.738-.99.533-2.01 1.019-3.05 1.456l-3.44 1.451-123.41 41.066-23.68 42.312-81.026-60.356z" fill="#fff"/></mask><g mask="url(#e)"><path d="m919.644 816.425 155.716-142.91a34.358 34.358 0 0 1 15.79-8.234l-3 13 54.44-18.618c7.06-2.414 14.77 1.132 17.53 8.064.55 1.359 1.2 2.807 1.97 4.343 5.4 10.785 5.4 20.533 0 29.244 7.89 2.489 12.47 8.504 13.71 18.044 1.25 9.541-1.04 17.008-6.85 22.4 9.4 17.518 2.82 39.338-14.7 48.738-.99.533-2.01 1.019-3.05 1.456l-3.44 1.451-123.41 41.066-23.68 42.312-81.026-60.356z" fill="#FF8181"/><path fill-rule="evenodd" clip-rule="evenodd" d="m1092.15 676.781-37.51 16c7.6-11.077 14.27-18.91 20.01-23.5 5.74-4.59 12.4-7.423 20-8.5l-2.5 16z" fill="#C55858"/><path d="M1167.75 741.579c.66-.496 1.6-.359 2.1.304a1.51 1.51 0 0 1-.31 2.1c-4.32 3.23-9.5 5.644-15.51 7.247-.8.214-1.62-.262-1.84-1.063-.21-.8.27-1.622 1.07-1.836 5.65-1.508 10.48-3.76 14.49-6.752zm-7.47-41.088a1.508 1.508 0 0 1 2.1.346c.48.673.32 1.61-.35 2.092-4.49 3.217-9.78 5.522-15.87 6.918-.8.185-1.61-.319-1.79-1.127a1.498 1.498 0 0 1 1.12-1.797c5.71-1.31 10.64-3.455 14.79-6.432z" fill="#C55858"/></g><path fill-rule="evenodd" clip-rule="evenodd" d="M876.654 441.78c20.435 0 37-15.894 37-35.5s-16.565-35.5-37-35.5c-20.434 0-37 15.894-37 35.5 0 15.324 10.12 28.38 24.297 33.353a38.334 38.334 0 0 0 12.703 2.147z" fill="#FF8181"/><mask id="f" mask-type="alpha" maskUnits="userSpaceOnUse" x="836" y="432" width="59" height="75"><path d="M855.197 435.259c2.915 1.784 6.071 3.401 9.554 4.697a14.851 14.851 0 0 0-7.447 3.739 41.156 41.156 0 0 0-11.8 40.633l.638 2.424a16.236 16.236 0 0 0 2.563 5.406c5.267 7.252 15.415 8.862 22.667 3.595l.629-.456c12.882-9.356 17.634-26.346 11.472-41.027l-2.273-5.417a14.926 14.926 0 0 0-2.822-4.375 14.862 14.862 0 0 0-5.507-3.75c.885-4.193 1.44-6.826 1.664-7.897a22.811 22.811 0 0 1 9.706 6.204 22.902 22.902 0 0 1 4.335 6.722l2.274 5.417c7.598 18.105 1.739 39.059-14.148 50.596l-.629.457c-10.827 7.862-25.978 5.459-33.841-5.368a24.214 24.214 0 0 1-3.826-8.072l-.638-2.424a49.153 49.153 0 0 1 14.093-48.531 23.09 23.09 0 0 1 3.336-2.573z" fill="#fff"/></mask><g mask="url(#f)"><path d="M855.197 435.259c2.915 1.784 6.071 3.401 9.554 4.697a14.851 14.851 0 0 0-7.447 3.739 41.156 41.156 0 0 0-11.8 40.633l.638 2.424a16.236 16.236 0 0 0 2.563 5.406c5.267 7.252 15.415 8.862 22.667 3.595l.629-.456c12.882-9.356 17.634-26.346 11.472-41.027l-2.273-5.417a14.926 14.926 0 0 0-2.822-4.375 14.862 14.862 0 0 0-5.507-3.75c.885-4.193 1.44-6.826 1.664-7.897a22.811 22.811 0 0 1 9.706 6.204 22.902 22.902 0 0 1 4.335 6.722l2.274 5.417c7.598 18.105 1.739 39.059-14.148 50.596l-.629.457c-10.827 7.862-25.978 5.459-33.841-5.368a24.214 24.214 0 0 1-3.826-8.072l-.638-2.424a49.153 49.153 0 0 1 14.093-48.531 23.09 23.09 0 0 1 3.336-2.573z" fill="#F2FF9E"/><path fill-rule="evenodd" clip-rule="evenodd" d="m840.148 417.78 36.5-3.5-18.5 115.5-32.5-8 14.5-104z" fill="#CEDF62"/></g><path fill-rule="evenodd" clip-rule="evenodd" d="M635.129 347.78v75.424l69.019-15.947-63.843 37.066 63.843 22.411-69.019-8.189 5.176 67.235-26.745-61.632-37.098 49.564 24.157-59.908-72.471-24.566 72.471 3.017-24.157-53.012 37.098 39.22 21.569-70.683zm672.781 444.796-3.46-99.092-73.91 33.45 59.37-58.17-72.92-53.751 85.84 32.039-9.87-88.097 37.87 79.749 46.33-66.815-28.9 79.813 89.3 4.413s-29.44 7.966-88.31 23.899l34.08 68.542-50.4-49.831-25.02 93.851zm-772.883-74.822 18.964 46.981-36.738-4.84 35.773 17.786a847059.542 847059.542 0 0 1-40.022 29.747l49.317-18.269 12.933 42.362-1.557-42.452 40.873 21.257-31.766-33.573 40.408-25.5-43.777 15.685 18.123-47.365-29.998 38.356-32.533-40.175z" fill="#383838"/><path d="M554.807 873.271c54.947-14.723 87.555-71.202 72.832-126.149-14.723-54.947-71.202-87.555-126.149-72.832-54.947 14.723-87.555 71.202-72.832 126.149 14.723 54.947 71.202 87.555 126.149 72.832z" fill="#383838"/><path d="m502.02 786.504 2.439 9.103-8.385 2.247 1.83 6.827-10.78 2.889-1.829-6.828-29.585 7.927-2.439-9.102 22.62-33.919 10.78-2.888 6.964 25.991 8.385-2.247zm-37.131 9.949 17.967-4.814-4.076-15.211-13.891 20.025zm68.928-.753c-16.649 4.461-26.608-1.086-30.347-15.04-3.723-13.894 2.145-23.618 18.793-28.079 16.589-4.445 26.608 1.087 30.315 14.921 3.723 13.893-2.172 23.753-18.761 28.198zm-2.423-9.043c9.462-2.535 12.506-8.422 10.404-16.267-2.086-7.785-7.649-11.301-17.112-8.766-9.462 2.536-12.538 8.302-10.436 16.147 2.118 7.906 7.682 11.421 17.144 8.886zm74.83-28.074 2.439 9.103-8.384 2.247 1.829 6.827-10.78 2.888-1.829-6.827-29.585 7.927-2.439-9.103 22.62-33.918 10.78-2.888 6.964 25.991 8.385-2.247zm-37.131 9.949 17.967-4.814-4.076-15.211-13.891 20.025z" fill="#fff"/><path fill-rule="evenodd" clip-rule="evenodd" d="M984.474 443.704c-2.153-.497-2.698-2.309-2.326-3.923.373-1.615 1.523-2.42 3.675-1.923 2.153.496 2.698 2.308 2.325 3.923-.372 1.614-1.522 2.42-3.674 1.923zm20.996-1c-2.15-.497-2.69-1.309-2.32-2.923.37-1.615 1.52-3.42 3.67-2.923 2.16.496 2.7 2.308 2.33 3.923-.37 1.614-1.52 2.42-3.68 1.923zm-8.996 11c-2.153-.497-2.698-2.309-2.326-3.923.373-1.615 1.523-2.42 3.675-1.923 2.153.496 2.697 1.808 2.327 3.423-.374 1.614-1.524 2.92-3.676 2.423zm-20 3c-2.153-.497-3.198-1.309-2.826-2.923.373-1.615 2.023-3.42 4.175-2.923 2.153.496 2.198 1.808 1.825 3.423-.372 1.614-1.022 2.92-3.174 2.423zm-14-17c-2.153-.497-3.198-1.809-2.826-3.423.373-1.615 2.023-2.92 4.175-2.423 2.153.496 2.698 2.808 2.325 4.423-.372 1.614-1.522 1.92-3.674 1.423z" fill="#C55858"/></svg>