<svg width="1840" height="1380" viewBox="0 0 1840 1380" fill="none" xmlns="http://www.w3.org/2000/svg">
<mask id="mask0" mask-type="alpha" maskUnits="userSpaceOnUse" x="674" y="538" width="519" height="559">
<path d="M742.486 539.914L1154.8 638.294C1178.74 644.007 1194.73 666.595 1192.16 691.074L1153.49 1059.24C1151.07 1082.31 1130.41 1099.05 1107.34 1096.63C1107.08 1096.6 1106.83 1096.57 1106.58 1096.54L711.204 1047.74C689.862 1045.11 673.957 1026.78 674.356 1005.28L682.122 586.667C682.624 559.61 704.966 538.083 732.023 538.585C735.548 538.65 739.056 539.096 742.486 539.914Z" fill="white"/>
</mask>
<g mask="url(#mask0)">
<path d="M742.486 539.914L1154.8 638.294C1178.74 644.007 1194.73 666.595 1192.16 691.074L1153.49 1059.24C1151.07 1082.31 1130.41 1099.05 1107.34 1096.63C1107.08 1096.6 1106.83 1096.57 1106.58 1096.54L711.204 1047.74C689.862 1045.11 673.957 1026.78 674.356 1005.28L682.122 586.667C682.624 559.61 704.966 538.083 732.023 538.585C735.548 538.65 739.056 539.096 742.486 539.914Z" fill="#F2FF9E"/>
<path fill-rule="evenodd" clip-rule="evenodd" d="M673.654 987.724L918.649 813.781L1004.65 879.781L886.149 1082.28L680.154 1062.78C676.796 1040.72 674.63 1024.05 673.654 1012.78C672.678 1001.51 672.678 993.16 673.654 987.724Z" fill="#CEDF62"/>
</g>
<path d="M907.154 580.708C907.157 580.844 907.15 580.982 907.131 581.122L896.072 661.337C901.894 663.033 906.149 668.41 906.149 674.78C906.149 682.466 899.956 688.705 892.288 688.78L885.572 737.493C891.137 739.345 895.149 744.594 895.149 750.78C895.149 758.29 889.236 764.419 881.812 764.765L869.631 853.122C869.442 854.489 868.181 855.445 866.813 855.257C865.445 855.068 864.489 853.807 864.678 852.439L876.855 764.11C871.224 762.297 867.149 757.014 867.149 750.78C867.149 743.225 873.134 737.067 880.622 736.79L887.357 687.939C881.985 685.982 878.149 680.829 878.149 674.78C878.149 667.403 883.856 661.358 891.096 660.819L902.178 580.439C902.193 580.329 902.215 580.223 902.243 580.119L761.154 632.28L850.654 565.28L953.654 589.78L995.654 680.78L907.154 580.708ZM1116.27 772.596L1121.03 774.147L1020.28 1083.06L1015.53 1081.51L1116.27 772.596ZM795.654 902.78L675.154 986.78L682.154 580.78L702.963 637.478L795.654 902.78Z" fill="#B1BF58"/>
<mask id="mask1" mask-type="alpha" maskUnits="userSpaceOnUse" x="872" y="292" width="215" height="301">
<path d="M979.735 530.326L979.694 592.047L874.091 586.298L873.024 458.067C872.646 454.872 872.451 451.622 872.451 448.326V374.146C872.451 328.859 909.164 292.146 954.451 292.146H1004.81C1050.1 292.146 1086.81 328.859 1086.81 374.146V448.326C1086.81 493.613 1050.1 530.326 1004.81 530.326H979.735Z" fill="white"/>
</mask>
<g mask="url(#mask1)">
<path d="M964.411 529.003L953.654 589.78L850.654 565.78L871.869 439.312C872.052 436.1 872.425 432.865 872.997 429.619L885.878 356.567C893.742 311.967 936.272 282.188 980.871 290.052L1030.47 298.796C1075.06 306.66 1104.84 349.19 1096.98 393.79L1084.1 466.842C1076.24 511.442 1033.71 541.222 989.106 533.358L964.411 529.003Z" fill="#81A6FF"/>
</g>
<mask id="mask2" mask-type="alpha" maskUnits="userSpaceOnUse" x="872" y="292" width="215" height="301">
<path d="M979.348 530.293L979.307 592.015L873.705 586.266L872.637 458.034C872.259 454.84 872.064 451.589 872.064 448.293V374.114C872.064 328.826 908.777 292.114 954.064 292.114H1004.42C1049.71 292.114 1086.42 328.826 1086.42 374.114V448.293C1086.42 493.581 1049.71 530.293 1004.42 530.293H979.348Z" fill="white"/>
</mask>
<g mask="url(#mask2)">
<path d="M964.026 528.971L953.268 589.748L850.268 565.748L871.483 439.28C871.666 436.068 872.039 432.833 872.611 429.587L885.492 356.535C893.356 311.935 935.886 282.155 980.486 290.019L1030.08 298.764C1074.68 306.628 1104.46 349.158 1096.59 393.758L1083.71 466.81C1075.85 511.41 1033.32 541.189 988.72 533.325L964.026 528.971Z" fill="#FF8181"/>
<path fill-rule="evenodd" clip-rule="evenodd" d="M885.654 372.28L1082.15 300.78L967.475 275.78L876.654 293.206L885.654 372.28Z" fill="#383838"/>
</g>
<path d="M843.439 320.65L837.57 319.403C808.398 313.202 779.723 331.824 773.523 360.995L772.275 366.864C766.075 396.036 784.696 424.711 813.868 430.911L819.737 432.159C848.909 438.359 877.583 419.738 883.784 390.566L885.032 384.697C891.232 355.526 872.611 326.851 843.439 320.65Z" fill="#383838"/>
<path fill-rule="evenodd" clip-rule="evenodd" d="M989.654 481.28L1006.85 495.036C1010.33 497.822 1014.45 499.702 1018.84 500.508L1030.75 502.696C1034.56 503.395 1038.49 502.69 1041.82 500.711L1055.15 492.78L1045.1 482.726C1043.25 480.88 1040.62 480.051 1038.05 480.504L1033.65 481.28L1025.28 476.331C1023.59 475.332 1021.59 474.99 1019.66 475.37L989.654 481.28Z" fill="#383838"/>
<path d="M1095.15 399.78C1081.07 394.851 1065.83 396.613 1048.4 403.335" stroke="#4F72C5" stroke-width="3" stroke-linecap="round" stroke-linejoin="round"/>
<path fill-rule="evenodd" clip-rule="evenodd" d="M1017.21 466.617L1049.65 472.905C1052.36 473.431 1054.98 471.659 1055.51 468.948C1055.65 468.186 1055.62 467.4 1055.41 466.653C1051.64 453.123 1049.59 442.589 1049.26 435.05C1048.87 426.116 1047.21 422.45 1044.26 424.05L1045.65 400.08L1043.15 400.08C1031.39 428.901 1024.89 445.401 1023.65 449.58C1022.87 452.18 1012.33 453.391 1011.26 458.55C1011.06 459.499 1011.37 460.862 1012.17 462.637C1013.11 464.702 1014.99 466.185 1017.21 466.617Z" fill="#C55858"/>
<path d="M1139.63 579.094L1122.55 575.774L1076.74 811.429L1093.82 814.749L1139.63 579.094Z" fill="#8C8C8C"/>
<path d="M1118.18 653.493L1114.57 652.792C1103.18 650.579 1092.16 658.014 1089.95 669.399L1063.56 805.178C1061.34 816.563 1068.78 827.587 1080.16 829.8L1083.77 830.501C1095.15 832.714 1106.18 825.278 1108.39 813.893L1134.78 678.114C1137 666.729 1129.56 655.706 1118.18 653.493Z" fill="#383838"/>
<path fill-rule="evenodd" clip-rule="evenodd" d="M1135.29 545.516L1138.9 546.217C1150.29 548.43 1157.72 559.454 1155.51 570.838L1151.92 589.311C1150.86 594.772 1146.18 598.787 1140.62 599.011C1135.53 599.216 1131.21 598.973 1127.65 598.28C1123.92 597.556 1119.39 596.022 1114.07 593.679C1108.93 591.421 1106.05 585.909 1107.12 580.405L1110.67 562.123C1112.89 550.739 1123.91 543.303 1135.29 545.516Z" fill="#383838"/>
<path fill-rule="evenodd" clip-rule="evenodd" d="M1047.29 526.16C1026.15 492.322 1024.68 452.624 1036.15 417.78C1045 390.895 1060.67 366.878 1086.38 350.808C1106.52 338.228 1127.94 333.426 1149.65 332.78C1162.67 332.393 1175.94 332.299 1188.65 336.28C1201.47 340.298 1218.11 348 1229.65 356.28C1243.53 366.247 1251.82 377.659 1261.12 392.543C1272.65 410.994 1278.64 431.567 1280.15 451.78C1280.95 462.488 1279.08 476.707 1277.15 486.78C1274.23 501.996 1269.58 512.644 1261.15 526.28C1251.46 541.944 1238.74 557.457 1222.03 567.895C1209.42 575.779 1196.18 581.537 1182.65 584.28C1162.6 588.346 1141.95 586.489 1122.15 580.78C1108.96 576.978 1093.94 570.483 1082.15 562.78C1067.68 553.33 1056.99 541.673 1047.29 526.16ZM1062.03 517.273C1094.03 568.488 1161.17 584.265 1211.98 552.513C1262.8 520.761 1278.05 453.503 1246.05 402.288C1214.04 351.074 1146.91 335.297 1096.09 367.049C1045.28 398.801 1030.03 466.059 1062.03 517.273Z" fill="#898989"/>
<mask id="mask3" mask-type="alpha" maskUnits="userSpaceOnUse" x="1042" y="349" width="223" height="220">
<path d="M1153.48 568.856C1177.84 568.856 1200.63 559.97 1218.83 546.354C1223.27 543.035 1227.78 539.942 1231.71 536.124C1246.04 522.183 1255.9 504.756 1261.03 485.359C1263.22 477.066 1264.4 468.315 1264.4 459.143C1264.4 409.154 1229.48 369.321 1183.25 356.088C1173.44 353.281 1164.2 349.43 1153.48 349.43C1118.3 349.43 1088.25 367.247 1067.92 392.51C1052.86 411.244 1042.55 433.343 1042.55 459.143C1042.55 480.185 1049.55 499.938 1059.93 516.636C1079.45 548.022 1113.49 568.856 1153.48 568.856Z" fill="white"/>
</mask>
<g mask="url(#mask3)">
<path d="M1060.44 517.282C1073.34 537.942 1092.96 552.563 1114.15 560.781C1119.32 562.784 1124.33 564.976 1129.65 566.281C1149.06 571.044 1169.07 570.174 1188.24 564.246C1196.44 561.712 1204.48 558.07 1212.26 553.21C1254.65 526.72 1269.92 475.997 1256.65 429.781C1253.83 419.977 1252.2 410.096 1246.52 401.004C1227.88 371.173 1196.84 355.127 1164.65 351.281C1140.78 348.429 1116.58 351.404 1094.7 365.076C1076.85 376.226 1063.81 392.625 1055.15 410.281C1038.88 443.465 1039.25 483.372 1060.44 517.282Z" fill="white"/>
<path opacity="0.65332" fill-rule="evenodd" clip-rule="evenodd" d="M1173.7 441.516C1168.93 439.496 1165.34 438.388 1160.05 437.262C1154.53 436.089 1149.21 435.865 1143.75 435.803C1137.39 435.73 1131.29 436.895 1125.01 438.334C1119.67 439.558 1111.65 442.463 1100.96 447.05C1108.17 455.342 1113.83 461.083 1117.95 464.274C1124.23 469.144 1130.16 473.761 1137.49 476.593C1140.52 477.761 1144.18 479.051 1147.68 480.03L1090.12 565.22L1044.41 501.719L1208.91 329.21L1234.23 351.928L1173.7 441.516ZM1191.06 451.404C1188.77 449.696 1186.3 448.071 1183.74 446.572L1242.32 361.31L1248.64 363.243L1191.06 451.404ZM1170.88 482.311L1105.71 582.081L1100.14 568.283L1159.34 482.095C1160.93 482.23 1162.52 482.326 1164.16 482.413C1166.41 482.533 1168.64 482.488 1170.88 482.311Z" fill="#E0E0E0"/>
<path d="M1173.89 484.756C1170.53 485.133 1167.34 485.216 1164.1 485.013C1160.17 484.768 1157.3 484.508 1154.61 484.089L1149.75 508.632C1149.49 509.968 1148.17 510.819 1146.81 510.531C1145.45 510.243 1144.56 508.927 1144.82 507.59L1149.67 483.108C1145.77 482.158 1141.12 480.615 1136.5 478.812C1134.43 478.009 1132.46 477.079 1130.45 475.977L1115.98 488.161C1114.93 489.04 1113.35 488.903 1112.43 487.856C1111.52 486.808 1111.63 485.247 1112.67 484.368L1125.92 473.225C1124.5 472.292 1123.04 471.266 1121.49 470.132C1120 469.034 1118.87 468.178 1116.12 466.059C1111.8 462.736 1105.96 456.895 1098.54 448.5C1097.41 447.222 1097.85 445.255 1099.41 444.61C1110.22 440.123 1118.36 437.284 1123.89 436.087C1131.97 434.339 1137.45 433.588 1143.27 433.712C1150.34 433.862 1155.1 434.275 1160.13 435.379C1165.75 436.61 1169.54 437.817 1174.62 439.992C1180.81 442.647 1187.1 446.231 1192.42 450.161C1197.07 453.606 1203.73 460.003 1212.46 469.397C1213.63 470.654 1213.23 472.645 1211.67 473.319C1203.65 476.801 1197.62 479.14 1193.54 480.346C1188 481.987 1183.3 483.196 1179.02 483.987L1185.49 497.797C1186.07 499.047 1185.53 500.509 1184.27 501.062C1183.02 501.615 1181.52 501.049 1180.94 499.799L1173.89 484.756ZM1192.01 475.601C1195.31 474.624 1200.12 472.804 1206.39 470.145C1199.04 462.36 1193.38 457.001 1189.46 454.102C1184.47 450.412 1178.53 447.026 1172.69 444.526C1167.92 442.481 1164.44 441.373 1159.14 440.211C1154.49 439.193 1150.02 438.806 1143.26 438.662C1137.92 438.548 1132.78 439.252 1125.06 440.924C1120.42 441.928 1113.59 444.248 1104.61 447.878C1110.73 454.661 1115.59 459.437 1119.15 462.178C1121.88 464.273 1122.99 465.115 1124.44 466.182C1129.64 470 1133.77 472.463 1138.26 474.212C1143.15 476.119 1148.06 477.72 1151.9 478.56C1155.56 479.362 1158.81 479.728 1164.31 480.072C1172.26 480.568 1180.02 479.152 1192.01 475.601ZM1154 469.578C1150.87 468.892 1147.37 465.434 1145.92 462.718C1144.69 460.41 1144.91 457.942 1145.49 455.135C1146.08 452.298 1147.49 450.248 1149.56 448.654C1151.94 446.816 1155.15 445.691 1158.25 446.37C1161.78 447.143 1166.4 448.804 1167.71 452.039C1168.56 454.113 1169.46 458.196 1168.97 460.582C1168.49 462.907 1166.58 465.237 1165.05 466.763C1162.56 469.247 1157.59 470.364 1154 469.578Z" fill="#383838"/>
</g>
<path fill-rule="evenodd" clip-rule="evenodd" d="M946.333 400.302C948.795 412.642 958.918 421.677 976.701 427.405C994.484 433.133 1007.91 431.405 1016.98 422.222C1010.43 407.506 1001.02 398.228 988.764 394.386C976.506 390.545 962.363 392.517 946.333 400.302Z" fill="white"/>
<path fill-rule="evenodd" clip-rule="evenodd" d="M992.491 421.758C995.392 421.96 998.247 420.574 999.95 418.198C1001 416.738 1001.49 414.865 1001.63 412.874C1001.78 410.829 1001.58 408.984 1000.71 407.367C999.339 404.844 996.67 403.003 993.816 402.804C991.308 402.628 988.792 403.229 987.104 405.055C985.641 406.639 984.844 409.257 984.674 411.688C984.506 414.092 984.954 416.831 986.158 418.594C987.574 420.669 989.959 421.581 992.491 421.758Z" fill="#383838"/>
<path fill-rule="evenodd" clip-rule="evenodd" d="M945.907 400.38C965.699 402.351 981.036 405.001 991.919 408.329C1002.8 411.658 1011.35 416.312 1017.55 422.291C1014.62 407.212 1004.89 397.292 988.367 392.532C971.847 387.771 957.693 390.387 945.907 400.38Z" fill="#C55858"/>
<path fill-rule="evenodd" clip-rule="evenodd" d="M1022.97 417.344L977.148 376.28L980.148 360.78L1036.15 413.28C1035.08 417.594 1030.73 420.228 1026.41 419.164C1025.13 418.848 1023.95 418.223 1022.97 417.344Z" fill="#383838"/>
<path fill-rule="evenodd" clip-rule="evenodd" d="M850.654 565.28L829.325 499.811C820.204 471.816 826.221 441.096 845.227 418.61L885.654 370.78L850.654 565.28Z" fill="#383838"/>
<mask id="mask4" mask-type="alpha" maskUnits="userSpaceOnUse" x="919" y="658" width="258" height="219">
<path d="M919.644 816.425L1075.36 673.515C1079.81 669.431 1085.25 666.591 1091.15 665.281L1088.15 678.281L1142.59 659.663C1149.65 657.249 1157.36 660.795 1160.12 667.727C1160.67 669.086 1161.32 670.534 1162.09 672.07C1167.49 682.855 1167.49 692.603 1162.09 701.314C1169.98 703.803 1174.56 709.818 1175.8 719.358C1177.05 728.899 1174.76 736.366 1168.95 741.758C1178.35 759.276 1171.77 781.096 1154.25 790.496C1153.26 791.029 1152.24 791.515 1151.2 791.952L1147.76 793.403L1024.35 834.469L1000.67 876.781L919.644 816.425Z" fill="white"/>
</mask>
<g mask="url(#mask4)">
<path d="M919.644 816.425L1075.36 673.515C1079.81 669.431 1085.25 666.591 1091.15 665.281L1088.15 678.281L1142.59 659.663C1149.65 657.249 1157.36 660.795 1160.12 667.727C1160.67 669.086 1161.32 670.534 1162.09 672.07C1167.49 682.855 1167.49 692.603 1162.09 701.314C1169.98 703.803 1174.56 709.818 1175.8 719.358C1177.05 728.899 1174.76 736.366 1168.95 741.758C1178.35 759.276 1171.77 781.096 1154.25 790.496C1153.26 791.029 1152.24 791.515 1151.2 791.952L1147.76 793.403L1024.35 834.469L1000.67 876.781L919.644 816.425Z" fill="#FF8181"/>
<path fill-rule="evenodd" clip-rule="evenodd" d="M1092.15 676.781L1054.64 692.781C1062.24 681.704 1068.91 673.871 1074.65 669.281C1080.39 664.691 1087.05 661.858 1094.65 660.781L1092.15 676.781Z" fill="#C55858"/>
<path d="M1167.75 741.579C1168.41 741.083 1169.35 741.22 1169.85 741.883C1170.34 742.547 1170.2 743.487 1169.54 743.983C1165.22 747.213 1160.04 749.627 1154.03 751.23C1153.23 751.444 1152.41 750.968 1152.19 750.167C1151.98 749.367 1152.46 748.545 1153.26 748.331C1158.91 746.823 1163.74 744.571 1167.75 741.579ZM1160.28 700.491C1160.96 700.008 1161.89 700.163 1162.38 700.837C1162.86 701.51 1162.7 702.447 1162.03 702.929C1157.54 706.146 1152.25 708.451 1146.16 709.847C1145.36 710.032 1144.55 709.528 1144.37 708.72C1144.18 707.913 1144.69 707.108 1145.49 706.923C1151.2 705.613 1156.13 703.468 1160.28 700.491Z" fill="#C55858"/>
</g>
<path fill-rule="evenodd" clip-rule="evenodd" d="M876.654 441.78C897.089 441.78 913.654 425.886 913.654 406.28C913.654 386.674 897.089 370.78 876.654 370.78C856.22 370.78 839.654 386.674 839.654 406.28C839.654 421.604 849.774 434.66 863.951 439.633C867.912 441.022 872.191 441.78 876.654 441.78Z" fill="#FF8181"/>
<mask id="mask5" mask-type="alpha" maskUnits="userSpaceOnUse" x="836" y="432" width="59" height="75">
<path d="M855.197 435.259C858.112 437.043 861.268 438.66 864.751 439.956C862.055 440.45 859.462 441.692 857.304 443.695C846.176 454.026 841.641 469.644 845.504 484.328L846.142 486.752C846.654 488.697 847.523 490.53 848.705 492.158C853.972 499.41 864.12 501.02 871.372 495.753L872.001 495.297C884.883 485.941 889.635 468.951 883.473 454.27L881.2 448.853C880.523 447.241 879.568 445.76 878.378 444.478C876.794 442.772 874.904 441.52 872.871 440.728C873.756 436.535 874.311 433.902 874.535 432.831C878.13 433.996 881.487 436.069 884.241 439.035C886.069 441.004 887.537 443.28 888.576 445.757L890.85 451.174C898.448 469.279 892.589 490.233 876.702 501.77L876.073 502.227C865.246 510.089 850.095 507.686 842.232 496.859C840.467 494.429 839.17 491.692 838.406 488.787L837.768 486.363C833.153 468.825 838.57 450.171 851.861 437.832C852.912 436.857 854.029 436 855.197 435.259Z" fill="white"/>
</mask>
<g mask="url(#mask5)">
<path d="M855.197 435.259C858.112 437.043 861.268 438.66 864.751 439.956C862.055 440.45 859.462 441.692 857.304 443.695C846.176 454.026 841.641 469.644 845.504 484.328L846.142 486.752C846.654 488.697 847.523 490.53 848.705 492.158C853.972 499.41 864.12 501.02 871.372 495.753L872.001 495.297C884.883 485.941 889.635 468.951 883.473 454.27L881.2 448.853C880.523 447.241 879.568 445.76 878.378 444.478C876.794 442.772 874.904 441.52 872.871 440.728C873.756 436.535 874.311 433.902 874.535 432.831C878.13 433.996 881.487 436.069 884.241 439.035C886.069 441.004 887.537 443.28 888.576 445.757L890.85 451.174C898.448 469.279 892.589 490.233 876.702 501.77L876.073 502.227C865.246 510.089 850.095 507.686 842.232 496.859C840.467 494.429 839.17 491.692 838.406 488.787L837.768 486.363C833.153 468.825 838.57 450.171 851.861 437.832C852.912 436.857 854.029 436 855.197 435.259Z" fill="#F2FF9E"/>
<path fill-rule="evenodd" clip-rule="evenodd" d="M840.148 417.78L876.648 414.28L858.148 529.78L825.648 521.78L840.148 417.78Z" fill="#CEDF62"/>
</g>
<path fill-rule="evenodd" clip-rule="evenodd" d="M635.129 347.78V423.204L704.148 407.257L640.305 444.323L704.148 466.734L635.129 458.545L640.305 525.78L613.56 464.148L576.462 513.712L600.619 453.804C552.305 437.427 528.148 429.238 528.148 429.238C528.148 429.238 552.305 430.244 600.619 432.255L576.462 379.243L613.56 418.463L635.129 347.78ZM1307.91 792.576L1304.45 693.484L1230.54 726.934L1289.91 668.764L1216.99 615.013L1302.83 647.052L1292.96 558.955L1330.83 638.704L1377.16 571.889L1348.26 651.702C1407.79 654.644 1437.56 656.115 1437.56 656.115C1437.56 656.115 1408.12 664.081 1349.25 680.014L1383.33 748.556L1332.93 698.725L1307.91 792.576Z" fill="#383838"/>
<path fill-rule="evenodd" clip-rule="evenodd" d="M535.027 717.754L553.991 764.735L517.253 759.895L553.026 777.681C526.345 797.513 513.004 807.428 513.004 807.428C513.004 807.428 529.443 801.339 562.321 789.159L575.254 831.521L573.697 789.069L614.57 810.326L582.804 776.753L623.212 751.253L579.435 766.938L597.558 719.573L567.56 757.929L535.027 717.754Z" fill="#383838"/>
<path d="M554.807 873.271C609.754 858.548 642.362 802.069 627.639 747.122C612.916 692.175 556.437 659.567 501.49 674.29C446.543 689.013 413.935 745.492 428.658 800.439C443.381 855.386 499.86 887.994 554.807 873.271Z" fill="#383838"/>
<path d="M502.02 786.504L504.459 795.607L496.074 797.854L497.904 804.681L487.124 807.57L485.295 800.742L455.71 808.669L453.271 799.567L475.891 765.648L486.671 762.76L493.635 788.751L502.02 786.504ZM464.889 796.453L482.856 791.639L478.78 776.428L464.889 796.453ZM533.817 795.7C517.168 800.161 507.209 794.614 503.47 780.66C499.747 766.766 505.615 757.042 522.263 752.581C538.852 748.136 548.871 753.668 552.578 767.502C556.301 781.395 550.406 791.255 533.817 795.7ZM531.394 786.657C540.856 784.122 543.9 778.235 541.798 770.39C539.712 762.605 534.149 759.089 524.686 761.624C515.224 764.16 512.148 769.926 514.25 777.771C516.368 785.677 521.932 789.192 531.394 786.657ZM606.224 758.583L608.663 767.686L600.279 769.933L602.108 776.76L591.328 779.648L589.499 772.821L559.914 780.748L557.475 771.645L580.095 737.727L590.875 734.839L597.839 760.83L606.224 758.583ZM569.093 768.532L587.06 763.718L582.984 748.507L569.093 768.532Z" fill="white"/>
<path fill-rule="evenodd" clip-rule="evenodd" d="M984.474 443.704C982.321 443.207 981.776 441.395 982.148 439.781C982.521 438.166 983.671 437.361 985.823 437.858C987.976 438.354 988.521 440.166 988.148 441.781C987.776 443.395 986.626 444.201 984.474 443.704ZM1005.47 442.704C1003.32 442.207 1002.78 441.395 1003.15 439.781C1003.52 438.166 1004.67 436.361 1006.82 436.858C1008.98 437.354 1009.52 439.166 1009.15 440.781C1008.78 442.395 1007.63 443.201 1005.47 442.704ZM996.474 453.704C994.321 453.207 993.776 451.395 994.148 449.781C994.521 448.166 995.671 447.361 997.823 447.858C999.976 448.354 1000.52 449.666 1000.15 451.281C999.776 452.895 998.626 454.201 996.474 453.704ZM976.474 456.704C974.321 456.207 973.276 455.395 973.648 453.781C974.021 452.166 975.671 450.361 977.823 450.858C979.976 451.354 980.021 452.666 979.648 454.281C979.276 455.895 978.626 457.201 976.474 456.704ZM962.474 439.704C960.321 439.207 959.276 437.895 959.648 436.281C960.021 434.666 961.671 433.361 963.823 433.858C965.976 434.354 966.521 436.666 966.148 438.281C965.776 439.895 964.626 440.201 962.474 439.704Z" fill="#C55858"/>
</svg>
