<svg width="1840" height="1380" viewBox="0 0 1840 1380" fill="none" xmlns="http://www.w3.org/2000/svg">
<path fill-rule="evenodd" clip-rule="evenodd" d="M838.739 429.095L838.962 429.436L596.304 429.834L605.349 412.685C589.571 407.285 576.263 396.69 576.004 381.833C575.609 359.227 605.573 335.313 629.125 334.902C634.448 334.809 639.56 335.656 644.289 337.284C649.172 317.285 676.466 302.227 698.292 301.846C722.51 301.423 749.957 319.495 750.363 342.76C750.376 343.499 750.361 344.234 750.32 344.966C757.316 340.795 765.536 338.325 774.363 338.171C800.431 337.716 813.536 348.282 830.495 372.913C841.802 389.334 850.898 408.14 857.784 429.334C851.049 429.245 844.701 429.165 838.739 429.095ZM586.405 690.277L586.952 691.01L337.698 691.368L338.017 690.839L316 691.706C336.858 634.908 355.351 606.369 371.479 606.087C382.478 605.895 392.59 609.13 400.381 614.627C402.961 599.682 426.002 588.164 444.257 587.845C461.461 587.545 480.666 597.411 485.11 611.017C490.15 609.418 495.589 608.501 501.271 608.402C528.047 607.934 541.485 617.417 558.85 639.552C570.427 654.308 579.728 671.217 586.754 690.28C586.638 690.279 586.522 690.278 586.405 690.277ZM810.75 897.188L811.001 897.523L697.851 897.685L697.994 897.449L688 897.842C697.47 872.14 705.866 859.226 713.187 859.098C718.18 859.011 722.77 860.474 726.307 862.961C727.479 856.199 737.938 850.986 746.226 850.841C754.035 850.705 762.753 855.169 764.77 861.326C767.058 860.602 769.527 860.187 772.107 860.142C784.262 859.93 790.362 864.22 798.244 874.236C803.499 880.913 807.721 888.564 810.91 897.19C810.857 897.189 810.804 897.189 810.75 897.188Z" fill="#FFDDD4"/>
<path d="M591.022 538.771C609.757 558.344 621.404 585.268 625.863 619.437C627.351 630.765 627.432 641.159 626.755 665.465C626.429 677.174 626.323 682.037 626.303 688.428C626.225 712.763 628.18 730.745 633.594 746.542C640.263 766.003 652.05 780.68 670.34 790.539C683.269 797.508 696.708 800.845 711.702 801.399C723.037 801.817 732.388 800.945 751.619 798.256C776.46 794.783 786.507 794.055 799.263 795.922C816.009 798.373 830.291 805.984 843.546 820.688C852.053 830.125 858.952 840.095 864.997 851.261C870.448 861.329 872.64 866.395 881.443 888.087C890.907 911.406 897.086 923.31 907.609 935.656C921.081 951.462 939.668 963.721 966.385 973.355C967.165 973.636 968.024 973.232 968.305 972.452C968.586 971.673 968.182 970.814 967.403 970.533C941.157 961.069 923.01 949.099 909.892 933.709C899.634 921.675 893.574 909.999 884.223 886.958C875.372 865.152 873.16 860.037 867.635 849.833C861.481 838.465 854.447 828.301 845.774 818.68C832.05 803.455 817.133 795.505 799.697 792.953C786.558 791.03 776.336 791.771 751.203 795.285C732.143 797.95 722.917 798.811 711.813 798.401C697.258 797.863 684.267 794.638 671.763 787.898C654.165 778.412 642.864 764.341 636.432 745.57C631.149 730.155 629.226 712.467 629.303 688.438C629.323 682.079 629.429 677.232 629.754 665.549C630.435 641.074 630.354 630.59 628.837 619.047C624.301 584.281 612.397 556.764 593.189 536.696C592.616 536.098 591.667 536.077 591.068 536.65C590.47 537.223 590.449 538.172 591.022 538.771Z" fill="#383838"/>
<path fill-rule="evenodd" clip-rule="evenodd" d="M556.209 534.225C532.645 544.171 485.754 535.622 450.557 510.726C424.302 492.187 405.403 462.167 402.222 436.261C398.932 409.463 403.965 382.347 416.553 360.147C432.541 331.989 459.761 311.62 488.545 308.086C539.959 301.773 602.516 350.109 609.962 410.754C617.408 471.399 597.314 516.987 556.209 534.225ZM564.116 531.34L573.866 525.408L600.574 541.07C598.963 546.003 595.642 550.138 590.698 553.365C585.755 556.591 577.052 560.38 564.465 564.545L564.116 531.34Z" fill="#D2FF04"/>
<path d="M575.861 528.372L565.57 538.849C564.99 539.44 564.04 539.448 563.449 538.868C562.858 538.287 562.849 537.337 563.43 536.746L571.121 528.916L562.954 533.964C562.25 534.399 561.325 534.181 560.89 533.476C560.454 532.772 560.672 531.847 561.377 531.412L573.176 524.12C573.667 523.817 574.287 523.821 574.773 524.132C617.87 551.671 649.027 560.362 668.325 550.574C695.385 536.813 705.891 541.339 708.341 561.287C709.424 570.112 701.968 580.937 686.245 593.895C681.752 597.533 681.092 604.231 684.834 608.733C685.417 609.481 686.185 610.179 687.092 610.805L718.018 631.289C718.709 631.746 718.898 632.677 718.441 633.368C717.983 634.058 717.053 634.247 716.362 633.79L685.411 613.29C684.243 612.483 683.252 611.583 682.498 610.615C677.716 604.863 678.565 596.254 684.347 591.571C699.328 579.225 706.281 569.13 705.363 561.652C704.328 553.221 702.126 548.523 697.797 546.658C692.458 544.357 683.444 546.251 669.683 553.248C649.566 563.452 618.393 555.083 575.861 528.372Z" fill="#383838"/>
<path d="M529.336 355.157C529.368 355.22 529.432 355.346 529.527 355.534C529.684 355.846 529.873 356.222 530.092 356.663C530.719 357.921 531.471 359.447 532.348 361.247C534.852 366.386 537.856 372.69 541.359 380.205C541.709 380.956 541.385 381.848 540.634 382.198C539.883 382.548 538.99 382.223 538.64 381.473C535.144 373.973 532.148 367.684 529.651 362.561C528.778 360.769 528.03 359.251 527.407 358.001C527.19 357.564 527.003 357.192 526.848 356.884C526.755 356.701 526.694 356.58 526.664 356.52C526.287 355.782 526.58 354.879 527.318 354.503C528.056 354.126 528.96 354.419 529.336 355.157ZM445.359 394.204C445.384 394.258 445.438 394.372 445.521 394.546C445.662 394.839 445.835 395.195 446.041 395.614C446.633 396.817 447.373 398.285 448.271 400.026C450.841 405.011 454.161 411.184 458.309 418.607C458.713 419.33 458.455 420.244 457.732 420.648C457.008 421.052 456.095 420.794 455.69 420.071C451.526 412.619 448.19 406.416 445.604 401.401C444.698 399.643 443.949 398.158 443.349 396.938C443.139 396.51 442.961 396.145 442.816 395.843C442.728 395.659 442.67 395.537 442.641 395.473C442.29 394.722 442.615 393.83 443.366 393.48C444.116 393.129 445.009 393.454 445.359 394.204ZM488.461 456.178C488.273 456.985 487.467 457.487 486.66 457.3C485.853 457.112 485.351 456.306 485.539 455.499C493.395 421.683 516.352 408.22 553.781 415.365C554.595 415.521 555.129 416.306 554.973 417.12C554.818 417.934 554.032 418.467 553.219 418.312C517.314 411.458 495.938 423.994 488.461 456.178Z" fill="#383838"/>
<path d="M563.666 357.07L561.868 357.947C557.897 359.883 556.248 364.673 558.185 368.644L565.637 383.923C567.574 387.895 572.363 389.544 576.334 387.607L578.132 386.73C582.103 384.793 583.752 380.004 581.815 376.033L574.363 360.753C572.426 356.782 567.637 355.133 563.666 357.07Z" fill="white"/>
<path fill-rule="evenodd" clip-rule="evenodd" d="M1168 1113.34L772.302 1115.59C770.093 1115.6 768.292 1113.82 768.279 1111.61C768.268 1109.68 769.637 1108.02 771.532 1107.66L1066.72 1051.56L1034 1016.34L1107.49 1043.81L1110.39 1043.26L1080.5 952.338L1161.7 1023.98L1165.5 971.838L1214.13 1023.98L1270 1030.84L1371.42 1023.98L1441.02 942.79V1007.65L1525 929.338L1485.66 1059.35C1475.96 1091.41 1446.41 1113.34 1412.92 1113.34H1168Z" fill="#CAC8FF"/>
<path fill-rule="evenodd" clip-rule="evenodd" d="M1394.48 799.712C1394.09 800.107 1393.68 800.497 1393.28 800.882C1393.49 804.33 1393.6 807.382 1393.6 810.038C1393.6 822.338 1391.3 835.638 1386.8 849.938C1384.4 857.438 1377.5 862.538 1369.6 862.538H1364.3C1357.1 862.538 1351.2 856.638 1351.2 849.438C1351.3 848.138 1351.4 846.938 1351.8 845.738C1354.54 836.143 1356.43 827.246 1357.46 819.073L1355.2 819.638L1277 372.438L1290.7 355.638L1403.61 703.523C1417.52 742.676 1425.81 769.773 1428.5 784.638C1430.6 796.738 1430.7 810.238 1428.7 825.138C1427.7 832.938 1421.7 839.138 1414 840.438L1408.8 841.338C1401.7 842.638 1394.9 837.838 1393.6 830.738C1393.4 829.538 1393.3 828.338 1393.5 827.138C1394.57 817.109 1394.88 807.983 1394.48 799.712Z" fill="#C298F6"/>
<path fill-rule="evenodd" clip-rule="evenodd" d="M1306.7 522.738C1320.33 575.643 1330.1 615.343 1336 641.838C1341.9 668.333 1348.12 700.338 1354.63 737.853C1364.7 767.165 1374.16 801.66 1383 841.338C1391.84 881.016 1403.17 939.816 1417 1017.74H1267.3L1233.5 601.281L1306.7 522.738Z" fill="#F3D1B1"/>
<path fill-rule="evenodd" clip-rule="evenodd" d="M1250.24 329.499L1258.48 358.453L1285.03 349.51L1275.16 315.513L1277.13 314.251L1279.2 297.66C1280.31 280.415 1266.01 269.534 1249.28 271.752C1231.16 274.14 1227.02 283.723 1222.74 301.722C1222.33 303.371 1220.34 305.555 1216.85 307.983C1215.98 308.59 1215.76 309.875 1216.37 310.748C1216.51 310.991 1216.68 311.136 1216.85 311.281C1219.6 313.099 1220.91 314.456 1220.93 315.184C1221.25 324.642 1226.42 329.951 1239.15 330.549C1242.23 330.596 1245.92 330.278 1250.24 329.499Z" fill="#C298F6"/>
<path fill-rule="evenodd" clip-rule="evenodd" d="M1270.62 299.024C1268.82 296.721 1265.62 296.335 1264.04 296.045C1262.25 295.803 1259.97 296.266 1257.03 297.286C1249.95 296.757 1244.64 295.329 1241.17 293.125C1237.7 290.92 1234.18 286.847 1230.61 280.907C1236.21 273.337 1245.71 269.523 1255.03 271.021C1258.01 271.455 1260.73 272.133 1263.03 272.81C1265.82 273.609 1268.64 275.135 1271.21 277.219C1272.15 277.971 1273.15 278.94 1273.95 279.861C1274.68 280.661 1275.65 282.14 1276.84 284.395C1278.05 286.553 1278.78 289.002 1278.98 291.524L1281.15 317.523L1266.92 315.519C1269.95 312.873 1271.59 310.81 1272.13 309.5C1273.46 305.813 1272.41 301.327 1270.62 299.024Z" fill="#383838"/>
<path fill-rule="evenodd" clip-rule="evenodd" d="M1238.92 303.294L1232.77 308.214C1231.8 308.99 1230.45 309.088 1229.38 308.461L1223.13 304.804L1228.52 298.518C1229.59 297.277 1231.45 297.117 1232.71 298.159L1238.92 303.294Z" fill="white"/>
<path d="M1263.71 303.144L1261.69 307.866C1261.37 308.627 1260.49 308.981 1259.72 308.656C1258.96 308.33 1258.61 307.449 1258.93 306.687L1260.52 302.969L1258.92 302.881C1258.09 302.836 1257.46 302.129 1257.5 301.301C1257.55 300.474 1258.25 299.84 1259.08 299.886L1269.15 300.437C1269.97 300.483 1270.61 301.19 1270.56 302.017C1270.52 302.844 1269.81 303.478 1268.98 303.433L1263.71 303.144ZM1253.89 326.965C1254.7 326.785 1255.5 327.294 1255.68 328.103C1255.86 328.912 1255.35 329.713 1254.54 329.893C1254.55 329.89 1252.04 330.556 1250.49 330.932C1249.69 331.128 1248.88 330.634 1248.68 329.829C1248.49 329.024 1248.98 328.213 1249.79 328.017C1251.28 327.654 1253.83 326.978 1253.89 326.965ZM1224.19 295.779C1223.43 295.459 1223.07 294.58 1223.39 293.816C1223.71 293.052 1224.59 292.692 1225.35 293.013L1233.84 296.572C1234.61 296.893 1234.97 297.772 1234.65 298.536C1234.33 299.3 1233.45 299.659 1232.68 299.339L1224.19 295.779ZM1221.27 315.062C1222.97 316.104 1223.72 317.219 1223.67 318.238C1223.58 319.863 1222.12 320.737 1221.15 318.846C1220.42 317.634 1220.54 316.324 1221.27 315.062ZM1227.78 298.852C1229.48 298.703 1231.01 300.232 1231.19 302.268C1231.37 304.304 1230.13 306.075 1228.42 306.224C1226.72 306.373 1225.19 304.844 1225.01 302.808C1224.83 300.773 1226.07 299.002 1227.78 298.852Z" fill="#383838"/>
<path fill-rule="evenodd" clip-rule="evenodd" d="M1266.96 314.877C1257.93 318.052 1255.93 323.727 1261.04 331.918C1269.18 345.08 1286.49 349.128 1299.65 340.98C1312.81 332.833 1316.86 315.528 1308.71 302.366C1305.01 296.392 1299.16 292.035 1292.36 290.071L1277.79 286.003C1276.37 294.689 1274.87 301.75 1273.38 307.297C1271.88 312.943 1269.81 315.479 1266.96 314.877Z" fill="#383838"/>
<path fill-rule="evenodd" clip-rule="evenodd" d="M1262.97 968.728L1253.21 982.198C1252.73 982.869 1251.79 983.019 1251.12 982.533C1250.45 982.047 1250.3 981.11 1250.79 980.439L1258.09 970.35L1250.49 975.201C1249.6 975.764 1248.61 976.118 1247.57 976.236C1243.8 976.663 1240.4 973.954 1239.97 970.185C1239.88 969.425 1239.91 968.656 1240.04 967.903C1240.81 963.601 1244.92 960.736 1249.22 961.504L1263.64 964.078L1259.43 929.897L1308.74 864.479L1353.74 902.672L1267 1019.82C1261.97 1009.24 1259.04 1001.33 1258.36 994.9C1257.73 988.936 1259.27 980.292 1262.97 968.728ZM1258.89 966.279L1248.7 964.457C1246.02 963.98 1243.47 965.759 1243 968.43C1242.91 968.898 1242.9 969.375 1242.95 969.847C1243.19 971.97 1245.11 973.495 1247.23 973.255C1247.81 973.188 1248.38 972.989 1248.87 972.672L1258.89 966.279Z" fill="#383838"/>
<path fill-rule="evenodd" clip-rule="evenodd" d="M1230.5 973.738L1287.06 920.117L1305.2 902.921L1335.5 874.192C1279.64 827.216 1235.97 792.598 1204.5 770.338C1173.03 748.078 1144.2 731.412 1118 720.338C1142.76 704.239 1164.93 687.073 1184.5 668.838C1204.07 650.604 1231.67 621.397 1267.3 581.216C1283.17 562.723 1294.4 550.096 1301 543.338C1310.9 533.201 1317.6 511.807 1313 498.838L1304.6 456.738H1245.3L1000.3 690.352C981.4 708.343 981.4 736.837 1000.3 754.828L1230.5 973.738Z" fill="#FFE9D4"/>
<path fill-rule="evenodd" clip-rule="evenodd" d="M1310 408.713L1294.39 363.302C1289.39 348.581 1274 340.191 1258.86 343.924L1242.15 347.996L1215.08 459.58L1324.38 457.145L1310.4 409.783C1310.26 409.393 1310.13 409.003 1310 408.713Z" fill="#383838"/>
<path fill-rule="evenodd" clip-rule="evenodd" d="M1298.76 1043.47L1285.24 1041.21C1284.21 1041.04 1283.23 1040.63 1282.38 1040.03C1279.29 1037.82 1278.57 1033.53 1280.78 1030.45C1281.22 1029.82 1281.76 1029.27 1282.36 1028.8C1285.81 1026.12 1290.78 1026.74 1293.47 1030.19L1300.8 1039.62V1017.82H1383L1395 1078.82H1262C1267.4 1068.52 1272.5 1061.12 1277.2 1056.72C1281.61 1052.59 1288.74 1048.2 1298.76 1043.47H1298.76ZM1297.46 1040.21L1291.1 1032.03C1289.43 1029.89 1286.34 1029.5 1284.2 1031.17C1283.83 1031.46 1283.5 1031.8 1283.22 1032.19C1281.98 1033.93 1282.38 1036.34 1284.12 1037.59C1284.6 1037.93 1285.15 1038.16 1285.73 1038.25L1297.46 1040.21Z" fill="#383838"/>
<path fill-rule="evenodd" clip-rule="evenodd" d="M851.103 551.774C834.834 555.889 822.292 558.644 813.5 560.038C801.5 561.938 789.4 562.438 777 561.538C768.6 560.938 761.8 554.638 760.5 546.438L759.8 542.138C758.6 534.538 763.8 527.338 771.4 526.138C772.5 525.738 773.5 525.738 774.5 525.738C789 526.638 802 526.138 813.5 524.338C819.491 523.406 827.194 521.746 836.619 519.383C816.642 515.811 804.877 511.27 801.4 505.838C796.5 498.338 796.1 488.038 800.1 474.838L902.545 497.604L1132 479.484L1228.6 354.784C1237.4 342.984 1253.5 339.484 1266.4 346.484C1279.4 353.584 1285.3 369.084 1280.1 382.984C1230.5 516.684 1191.5 574.784 1146.5 580.684C1115 584.857 1024.76 601.371 875.883 630.323C857.63 638.407 843.914 643.734 834.8 646.338C823 649.738 809.6 651.238 794.5 650.738C786.7 650.538 779.9 645.238 777.7 637.738L776.2 632.638C774.2 625.638 778.2 618.438 785.2 616.438C786.4 616.038 787.6 615.938 788.8 615.938C804.8 615.938 818.5 614.338 829.8 611.138C837.202 609.015 847.172 605.18 859.69 599.614C858.827 597.185 858.027 594.805 857.291 592.474C837.425 599.104 822.828 603.392 813.5 605.338C802.2 607.738 790.9 608.338 779.6 607.338C771.8 606.538 765.4 600.838 763.7 593.138L762.5 587.638C761 580.538 765.5 573.638 772.6 572.138C773.8 571.938 775 571.938 776.2 571.938C790.3 572.838 802.7 572.238 813.5 569.938C821.902 568.18 834.377 564.342 850.924 558.426C850.891 556.7 850.916 555.019 851 553.384C851.028 552.846 851.062 552.309 851.103 551.774Z" fill="#C298F6"/>
<path d="M833.475 520.262C832.689 520.523 831.839 520.099 831.577 519.313C831.315 518.527 831.74 517.677 832.526 517.415C832.666 517.369 832.937 517.278 833.332 517.146C833.99 516.925 834.754 516.668 835.615 516.378C838.073 515.549 840.813 514.618 843.764 513.607C852.194 510.719 860.624 507.768 868.491 504.928C869.27 504.646 870.13 505.05 870.411 505.829C870.692 506.608 870.289 507.468 869.51 507.749C861.626 510.596 853.181 513.552 844.736 516.445C841.781 517.458 839.037 518.39 836.573 519.221C835.711 519.512 834.946 519.769 834.286 519.99C833.889 520.123 833.616 520.214 833.475 520.262ZM770.552 534.249C770.883 533.49 771.767 533.142 772.527 533.474C773.286 533.805 773.633 534.689 773.302 535.448C770.164 542.644 771.075 547.862 775.958 551.554C776.619 552.053 776.75 552.994 776.25 553.655C775.751 554.316 774.81 554.446 774.149 553.947C768.069 549.35 766.896 542.633 770.552 534.249ZM784.552 623.249C784.883 622.49 785.767 622.142 786.527 622.474C787.286 622.805 787.633 623.689 787.302 624.448C784.164 631.644 785.075 636.862 789.958 640.554C790.619 641.053 790.75 641.994 790.25 642.655C789.751 643.316 788.81 643.446 788.149 642.947C782.069 638.35 780.896 631.633 784.552 623.249ZM772.888 578.191C773.245 577.444 774.141 577.128 774.888 577.485C775.636 577.843 775.952 578.738 775.594 579.486C772.207 586.568 772.936 591.814 777.687 595.674C778.33 596.197 778.428 597.141 777.905 597.784C777.383 598.427 776.438 598.525 775.795 598.003C769.88 593.196 768.942 586.443 772.888 578.191ZM799.78 477.21C799.298 476.536 799.454 475.599 800.128 475.118C800.803 474.636 801.739 474.793 802.221 475.467C806.772 481.838 812.974 483.02 821.35 478.987C822.096 478.628 822.992 478.941 823.352 479.688C823.711 480.434 823.397 481.331 822.651 481.69C813.026 486.324 805.229 484.839 799.78 477.21Z" fill="#383838"/>
<path d="M1393.5 791.279C1393.53 790.451 1394.23 789.807 1395.06 789.84C1395.89 789.872 1396.53 790.57 1396.5 791.398L1395 829.398C1394.97 830.225 1394.27 830.87 1393.44 830.837C1392.61 830.805 1391.97 830.107 1392 829.279L1393.5 791.279ZM1401.62 829.306C1400.92 828.872 1400.7 827.948 1401.13 827.243C1401.56 826.537 1402.49 826.316 1403.19 826.75C1409.88 830.858 1415.18 830.682 1419.51 826.361C1420.1 825.776 1421.05 825.777 1421.63 826.364C1422.22 826.951 1422.22 827.9 1421.63 828.485C1416.23 833.866 1409.42 834.093 1401.62 829.306Z" fill="#383838"/>
<path d="M1200.91 541.895C1168.82 532.797 1150.59 545.421 1147.01 579.18C1146.92 580.004 1147.52 580.743 1148.34 580.83C1149.17 580.917 1149.9 580.32 1149.99 579.496C1153.37 547.571 1169.81 536.195 1200.09 544.781C1200.89 545.007 1201.72 544.544 1201.94 543.747C1202.17 542.95 1201.71 542.121 1200.91 541.895Z" fill="#383838"/>
<path d="M1117.03 719.489L1110.03 719.339C1109.2 719.321 1108.52 719.978 1108.5 720.806C1108.48 721.634 1109.14 722.32 1109.97 722.338L1116.97 722.488C1117.8 722.506 1118.48 721.849 1118.5 721.021C1118.52 720.192 1117.86 719.506 1117.03 719.489Z" fill="#383838"/>
<path d="M1303.28 1043.38L1314.01 1053.21C1314.62 1053.77 1314.67 1054.72 1314.11 1055.33C1313.55 1055.94 1312.6 1055.98 1311.99 1055.42L1299.99 1044.42C1299.7 1044.16 1299.53 1043.8 1299.5 1043.44C1298.96 1042.95 1298.79 1042.08 1299.32 1041.4L1308.04 1030.19C1310.72 1026.74 1315.69 1026.12 1319.14 1028.8C1319.75 1029.27 1320.28 1029.82 1320.73 1030.45C1322.93 1033.53 1322.22 1037.82 1319.13 1040.03C1318.28 1040.63 1317.3 1041.04 1316.27 1041.21L1303.28 1043.38ZM1304.05 1040.21L1315.77 1038.25C1316.35 1038.16 1316.91 1037.93 1317.38 1037.59C1319.12 1036.34 1319.53 1033.93 1318.28 1032.19C1318.01 1031.8 1317.68 1031.46 1317.3 1031.17C1315.16 1029.5 1312.07 1029.89 1310.41 1032.03L1304.05 1040.21Z" fill="white"/>
</svg>
