<svg width="1840" height="1380" viewBox="0 0 1840 1380" fill="none" xmlns="http://www.w3.org/2000/svg"><path fill-rule="evenodd" clip-rule="evenodd" d="m838.739 429.095.223.341-242.658.398 9.045-17.149c-15.778-5.4-29.086-15.995-29.345-30.852-.395-22.606 29.569-46.52 53.121-46.931a44.146 44.146 0 0 1 15.164 2.382c4.883-19.999 32.177-35.057 54.003-35.438 24.218-.423 51.665 17.649 52.071 40.914.013.739-.002 1.474-.043 2.206 6.996-4.171 15.216-6.641 24.043-6.795 26.068-.455 39.173 10.111 56.132 34.742 11.307 16.421 20.403 35.227 27.289 56.421-6.735-.089-13.083-.169-19.045-.239zM586.405 690.277l.547.733-249.254.358.319-.529-22.017.867c20.858-56.798 39.351-85.337 55.479-85.619 10.999-.192 21.111 3.043 28.902 8.54 2.58-14.945 25.621-26.463 43.876-26.782 17.204-.3 36.409 9.566 40.853 23.172 5.04-1.599 10.479-2.516 16.161-2.615 26.776-.468 40.214 9.015 57.579 31.15 11.577 14.756 20.878 31.665 27.904 50.728l-.349-.003zM810.75 897.188l.251.335-113.15.162.143-.236-9.994.393c9.47-25.702 17.866-38.616 25.187-38.744 4.993-.087 9.583 1.376 13.12 3.863 1.172-6.762 11.631-11.975 19.919-12.12 7.809-.136 16.527 4.328 18.544 10.485a25.81 25.81 0 0 1 7.337-1.184c12.155-.212 18.255 4.078 26.137 14.094 5.255 6.677 9.477 14.328 12.666 22.954l-.16-.002z" fill="#FFDDD4"/><path d="M591.022 538.771c18.735 19.573 30.382 46.497 34.841 80.666 1.488 11.328 1.569 21.722.892 46.028-.326 11.709-.432 16.572-.452 22.963-.078 24.335 1.877 42.317 7.291 58.114 6.669 19.461 18.456 34.138 36.746 43.997 12.929 6.969 26.368 10.306 41.362 10.86 11.335.418 20.686-.454 39.917-3.143 24.841-3.473 34.888-4.201 47.644-2.334 16.746 2.451 31.028 10.062 44.283 24.766 8.507 9.437 15.406 19.407 21.451 30.573 5.451 10.068 7.643 15.134 16.446 36.826 9.464 23.319 15.643 35.223 26.166 47.569 13.472 15.806 32.059 28.065 58.776 37.699a1.5 1.5 0 0 0 1.018-2.822c-26.246-9.464-44.393-21.434-57.511-36.824-10.258-12.034-16.318-23.71-25.669-46.751-8.851-21.806-11.063-26.921-16.588-37.125-6.154-11.368-13.188-21.532-21.861-31.153-13.724-15.225-28.641-23.175-46.077-25.727-13.139-1.923-23.361-1.182-48.494 2.332-19.06 2.665-28.286 3.526-39.39 3.116-14.555-.538-27.546-3.763-40.05-10.503-17.598-9.486-28.899-23.557-35.331-42.328-5.283-15.415-7.206-33.103-7.129-57.132.02-6.359.126-11.206.451-22.889.681-24.475.6-34.959-.917-46.502-4.536-34.766-16.44-62.283-35.648-82.351a1.5 1.5 0 0 0-2.167 2.075z" fill="#383838"/><path fill-rule="evenodd" clip-rule="evenodd" d="M556.209 534.225c-23.564 9.946-70.455 1.397-105.652-23.499-26.255-18.539-45.154-48.559-48.335-74.465-3.29-26.798 1.743-53.914 14.331-76.114 15.988-28.158 43.208-48.527 71.992-52.061 51.414-6.313 113.971 42.023 121.417 102.668 7.446 60.645-12.648 106.233-53.753 123.471zm7.907-2.885 9.75-5.932 26.708 15.662c-1.611 4.933-4.932 9.068-9.876 12.295-4.943 3.226-13.646 7.015-26.233 11.18l-.349-33.205z" fill="#D2FF04"/><path d="m575.861 528.372-10.291 10.477a1.5 1.5 0 1 1-2.14-2.103l7.691-7.83-8.167 5.048a1.5 1.5 0 0 1-1.577-2.552l11.799-7.292a1.5 1.5 0 0 1 1.597.012c43.097 27.539 74.254 36.23 93.552 26.442 27.06-13.761 37.566-9.235 40.016 10.713 1.083 8.825-6.373 19.65-22.096 32.608-4.493 3.638-5.153 10.336-1.411 14.838.583.748 1.351 1.446 2.258 2.072l30.926 20.484a1.5 1.5 0 1 1-1.656 2.501l-30.951-20.5c-1.168-.807-2.159-1.707-2.913-2.675-4.782-5.752-3.933-14.361 1.849-19.044 14.981-12.346 21.934-22.441 21.016-29.919-1.035-8.431-3.237-13.129-7.566-14.994-5.339-2.301-14.353-.407-28.114 6.59-20.117 10.204-51.29 1.835-93.822-24.876zm-46.525-173.215a190.394 190.394 0 0 1 .756 1.506 574.74 574.74 0 0 1 2.256 4.584 1237.025 1237.025 0 0 1 9.011 18.958 1.5 1.5 0 1 1-2.719 1.268c-3.496-7.5-6.492-13.789-8.989-18.912a569.425 569.425 0 0 0-2.803-5.677 70.52 70.52 0 0 1-.184-.364 1.5 1.5 0 1 1 2.672-1.363zm-83.977 39.047.162.342c.141.293.314.649.52 1.068a265.531 265.531 0 0 0 2.23 4.412c2.57 4.985 5.89 11.158 10.038 18.581a1.5 1.5 0 1 1-2.619 1.464c-4.164-7.452-7.5-13.655-10.086-18.67a270.957 270.957 0 0 1-2.255-4.463 148.737 148.737 0 0 1-.708-1.465 1.5 1.5 0 1 1 2.718-1.269zm43.102 61.974a1.5 1.5 0 1 1-2.922-.679c7.856-33.816 30.813-47.279 68.242-40.134a1.5 1.5 0 0 1-.562 2.947c-35.905-6.854-57.281 5.682-64.758 37.866z" fill="#383838"/><path d="m563.666 357.07-1.798.877a8 8 0 0 0-3.683 10.697l7.452 15.279a8 8 0 0 0 10.697 3.684l1.798-.877a8 8 0 0 0 3.683-10.697l-7.452-15.28a8 8 0 0 0-10.697-3.683z" fill="#fff"/><path fill-rule="evenodd" clip-rule="evenodd" d="m1168 1113.34-395.698 2.25a4.004 4.004 0 0 1-4.023-3.98 3.998 3.998 0 0 1 3.253-3.95l295.188-56.1-32.72-35.22 73.49 27.47 2.9-.55-29.89-90.922 81.2 71.642 3.8-52.142 48.63 52.142 55.87 6.86 101.42-6.86 69.6-81.19v64.86l83.98-78.312-39.34 130.012c-9.7 32.06-39.25 53.99-72.74 53.99H1168z" fill="#CAC8FF"/><path fill-rule="evenodd" clip-rule="evenodd" d="M1394.48 799.712c-.39.395-.8.785-1.2 1.17.21 3.448.32 6.5.32 9.156 0 12.3-2.3 25.6-6.8 39.9-2.4 7.5-9.3 12.6-17.2 12.6h-5.3c-7.2 0-13.1-5.9-13.1-13.1.1-1.3.2-2.5.6-3.7 2.74-9.595 4.63-18.492 5.66-26.665l-2.26.565-78.2-447.2 13.7-16.8 112.91 347.885c13.91 39.153 22.2 66.25 24.89 81.115 2.1 12.1 2.2 25.6.2 40.5-1 7.8-7 14-14.7 15.3l-5.2.9c-7.1 1.3-13.9-3.5-15.2-10.6-.2-1.2-.3-2.4-.1-3.6 1.07-10.029 1.38-19.155.98-27.426z" fill="#C298F6"/><path fill-rule="evenodd" clip-rule="evenodd" d="M1306.7 522.738c13.63 52.905 23.4 92.605 29.3 119.1 5.9 26.495 12.12 58.5 18.63 96.015 10.07 29.312 19.53 63.807 28.37 103.485s20.17 98.478 34 176.402h-149.7l-33.8-416.459 73.2-78.543z" fill="#F3D1B1"/><path fill-rule="evenodd" clip-rule="evenodd" d="m1250.24 329.499 8.24 28.954 26.55-8.943-9.87-33.997 1.97-1.262 2.07-16.591c1.11-17.245-13.19-28.126-29.92-25.908-18.12 2.388-22.26 11.971-26.54 29.97-.41 1.649-2.4 3.833-5.89 6.261-.87.607-1.09 1.892-.48 2.765.14.243.31.388.48.533 2.75 1.818 4.06 3.175 4.08 3.903.32 9.458 5.49 14.767 18.22 15.365 3.08.047 6.77-.271 11.09-1.05z" fill="#C298F6"/><path fill-rule="evenodd" clip-rule="evenodd" d="M1270.62 299.024c-1.8-2.303-5-2.689-6.58-2.979-1.79-.242-4.07.221-7.01 1.241-7.08-.529-12.39-1.957-15.86-4.161-3.47-2.205-6.99-6.278-10.56-12.218 5.6-7.57 15.1-11.384 24.42-9.886 2.98.434 5.7 1.112 8 1.789 2.79.799 5.61 2.325 8.18 4.409.94.752 1.94 1.721 2.74 2.642.73.8 1.7 2.279 2.89 4.534 1.21 2.158 1.94 4.607 2.14 7.129l2.17 25.999-14.23-2.004c3.03-2.646 4.67-4.709 5.21-6.019 1.33-3.687.28-8.173-1.51-10.476z" fill="#383838"/><path fill-rule="evenodd" clip-rule="evenodd" d="m1238.92 303.294-6.15 4.92c-.97.776-2.32.874-3.39.247l-6.25-3.657 5.39-6.286a3.003 3.003 0 0 1 4.19-.359l6.21 5.135z" fill="#fff"/><path d="m1263.71 303.144-2.02 4.722a1.498 1.498 0 0 1-1.97.79 1.507 1.507 0 0 1-.79-1.969l1.59-3.718-1.6-.088a1.505 1.505 0 0 1-1.42-1.58 1.5 1.5 0 0 1 1.58-1.415l10.07.551c.82.046 1.46.753 1.41 1.58a1.496 1.496 0 0 1-1.58 1.416l-5.27-.289zm-9.82 23.821a1.499 1.499 0 1 1 .65 2.928c.01-.003-2.5.663-4.05 1.039-.8.196-1.61-.298-1.81-1.103-.19-.805.3-1.616 1.11-1.812 1.49-.363 4.04-1.039 4.1-1.052zm-29.7-31.186a1.502 1.502 0 0 1-.8-1.963 1.497 1.497 0 0 1 1.96-.803l8.49 3.559a1.5 1.5 0 1 1-1.16 2.767l-8.49-3.56zm-2.92 19.283c1.7 1.042 2.45 2.157 2.4 3.176-.09 1.625-1.55 2.499-2.52.608-.73-1.212-.61-2.522.12-3.784zm6.51-16.21c1.7-.149 3.23 1.38 3.41 3.416.18 2.036-1.06 3.807-2.77 3.956-1.7.149-3.23-1.38-3.41-3.416-.18-2.035 1.06-3.806 2.77-3.956z" fill="#383838"/><path fill-rule="evenodd" clip-rule="evenodd" d="M1266.96 314.877c-9.03 3.175-11.03 8.85-5.92 17.041 8.14 13.162 25.45 17.21 38.61 9.062 13.16-8.147 17.21-25.452 9.06-38.614-3.7-5.974-9.55-10.331-16.35-12.295l-14.57-4.068c-1.42 8.686-2.92 15.747-4.41 21.294-1.5 5.646-3.57 8.182-6.42 7.58zm-3.99 653.851-9.76 13.47a1.495 1.495 0 1 1-2.42-1.759l7.3-10.089-7.6 4.851c-.89.563-1.88.917-2.92 1.035a6.871 6.871 0 0 1-7.6-6.051c-.09-.76-.06-1.529.07-2.282a7.915 7.915 0 0 1 9.18-6.399l14.42 2.574-4.21-34.181 49.31-65.418 45 38.193L1267 1019.82c-5.03-10.58-7.96-18.49-8.64-24.92-.63-5.964.91-14.608 4.61-26.172zm-4.08-2.449-10.19-1.822a4.905 4.905 0 0 0-5.7 3.973c-.09.468-.1.945-.05 1.417a3.87 3.87 0 0 0 4.28 3.408 3.85 3.85 0 0 0 1.64-.583l10.02-6.393z" fill="#383838"/><path fill-rule="evenodd" clip-rule="evenodd" d="m1230.5 973.738 56.56-53.621 18.14-17.196 30.3-28.729c-55.86-46.976-99.53-81.594-131-103.854-31.47-22.26-60.3-38.926-86.5-50 24.76-16.099 46.93-33.265 66.5-51.5 19.57-18.234 47.17-47.441 82.8-87.622 15.87-18.493 27.1-31.12 33.7-37.878 9.9-10.137 16.6-31.531 12-44.5l-8.4-42.1h-59.3l-245 233.614c-18.9 17.991-18.9 46.485 0 64.476l230.2 218.91z" fill="#FFE9D4"/><path fill-rule="evenodd" clip-rule="evenodd" d="m1310 408.713-15.61-45.411c-5-14.721-20.39-23.111-35.53-19.378l-16.71 4.072-27.07 111.584 109.3-2.435-13.98-47.362c-.14-.39-.27-.78-.4-1.07zm-11.24 634.757-13.52-2.26a6.932 6.932 0 0 1-2.86-1.18c-3.09-2.21-3.81-6.5-1.6-9.58.44-.63.98-1.18 1.58-1.65a7.923 7.923 0 0 1 11.11 1.39l7.33 9.43v-21.8h82.2l12 61h-133c5.4-10.3 10.5-17.7 15.2-22.1 4.41-4.13 11.54-8.52 21.56-13.25zm-1.3-3.26-6.36-8.18c-1.67-2.14-4.76-2.53-6.9-.86-.37.29-.7.63-.98 1.02a3.874 3.874 0 0 0 .9 5.4c.48.34 1.03.57 1.61.66l11.73 1.96z" fill="#383838"/><path fill-rule="evenodd" clip-rule="evenodd" d="M851.103 551.774c-16.269 4.115-28.811 6.87-37.603 8.264-12 1.9-24.1 2.4-36.5 1.5-8.4-.6-15.2-6.9-16.5-15.1l-.7-4.3c-1.2-7.6 4-14.8 11.6-16 1.1-.4 2.1-.4 3.1-.4 14.5.9 27.5.4 39-1.4 5.991-.932 13.694-2.592 23.119-4.955-19.977-3.572-31.742-8.113-35.219-13.545-4.9-7.5-5.3-17.8-1.3-31l102.445 22.766L1132 479.484l96.6-124.7c8.8-11.8 24.9-15.3 37.8-8.3 13 7.1 18.9 22.6 13.7 36.5-49.6 133.7-88.6 191.8-133.6 197.7-31.5 4.173-121.74 20.687-270.617 49.639-18.253 8.084-31.969 13.411-41.083 16.015-11.8 3.4-25.2 4.9-40.3 4.4-7.8-.2-14.6-5.5-16.8-13l-1.5-5.1c-2-7 2-14.2 9-16.2 1.2-.4 2.4-.5 3.6-.5 16 0 29.7-1.6 41-4.8 7.402-2.123 17.372-5.958 29.89-11.524a212.056 212.056 0 0 1-2.399-7.14c-19.866 6.63-34.463 10.918-43.791 12.864-11.3 2.4-22.6 3-33.9 2-7.8-.8-14.2-6.5-15.9-14.2l-1.2-5.5c-1.5-7.1 3-14 10.1-15.5 1.2-.2 2.4-.2 3.6-.2 14.1.9 26.5.3 37.3-2 8.402-1.758 20.877-5.596 37.424-11.512a71.621 71.621 0 0 1 .076-5.042c.028-.538.062-1.075.103-1.61z" fill="#C298F6"/><path d="M833.475 520.262a1.502 1.502 0 0 1-.949-2.847l.806-.269 2.283-.768c2.458-.829 5.198-1.76 8.149-2.771 8.43-2.888 16.86-5.839 24.727-8.679a1.499 1.499 0 1 1 1.019 2.821 1613.328 1613.328 0 0 1-24.774 8.696 1738.405 1738.405 0 0 1-10.45 3.545l-.811.272zm-62.923 13.987a1.5 1.5 0 1 1 2.75 1.199c-3.138 7.196-2.227 12.414 2.656 16.106a1.5 1.5 0 1 1-1.809 2.393c-6.08-4.597-7.253-11.314-3.597-19.698zm14 89a1.5 1.5 0 1 1 2.75 1.199c-3.138 7.196-2.227 12.414 2.656 16.106a1.5 1.5 0 1 1-1.809 2.393c-6.08-4.597-7.253-11.314-3.597-19.698zm-11.664-45.058a1.5 1.5 0 0 1 2.706 1.295c-3.387 7.082-2.658 12.328 2.093 16.188a1.5 1.5 0 1 1-1.892 2.329c-5.915-4.807-6.853-11.56-2.907-19.812zM799.78 477.21a1.499 1.499 0 1 1 2.441-1.743c4.551 6.371 10.753 7.553 19.129 3.52a1.5 1.5 0 0 1 1.301 2.703c-9.625 4.634-17.422 3.149-22.871-4.48zm593.72 314.069c.03-.828.73-1.472 1.56-1.439a1.5 1.5 0 0 1 1.44 1.558l-1.5 38a1.499 1.499 0 0 1-1.56 1.439 1.5 1.5 0 0 1-1.44-1.558l1.5-38zm8.12 38.027a1.508 1.508 0 0 1-.49-2.063 1.496 1.496 0 0 1 2.06-.493c6.69 4.108 11.99 3.932 16.32-.389a1.498 1.498 0 0 1 2.12.003c.59.587.59 1.536 0 2.121-5.4 5.381-12.21 5.608-20.01.821zm-200.71-287.411c-32.09-9.098-50.32 3.526-53.9 37.285a1.498 1.498 0 1 0 2.98.316c3.38-31.925 19.82-43.301 50.1-34.715.8.226 1.63-.237 1.85-1.034a1.492 1.492 0 0 0-1.03-1.852zm-83.88 177.594-7-.15a1.5 1.5 0 1 0-.06 2.999l7 .15c.83.018 1.51-.639 1.53-1.467a1.499 1.499 0 0 0-1.47-1.532z" fill="#383838"/><path d="m1303.28 1043.38 10.73 9.83c.61.56.66 1.51.1 2.12-.56.61-1.51.65-2.12.09l-12-11c-.29-.26-.46-.62-.49-.98-.54-.49-.71-1.36-.18-2.04l8.72-11.21c2.68-3.45 7.65-4.07 11.1-1.39.61.47 1.14 1.02 1.59 1.65a6.87 6.87 0 0 1-1.6 9.58c-.85.6-1.83 1.01-2.86 1.18l-12.99 2.17zm.77-3.17 11.72-1.96c.58-.09 1.14-.32 1.61-.66a3.865 3.865 0 0 0 .9-5.4c-.27-.39-.6-.73-.98-1.02a4.905 4.905 0 0 0-6.89.86l-6.36 8.18z" fill="#fff"/></svg>