<svg width="1840" height="1380" viewBox="0 0 1840 1380" fill="none" xmlns="http://www.w3.org/2000/svg"><path fill-rule="evenodd" clip-rule="evenodd" d="M1250 1041.34c2.36-12.3 4.73-21.81 7.09-28.52 2.37-6.71 6.94-16.873 13.72-30.479 5.35 12.753 8.98 22.129 10.88 28.129 1.9 6.01 2.84 11.09 2.84 15.24.21-3.97 1.31-8.27 3.31-12.89 2-4.63 5.62-11.27 10.88-19.929 5.81 10.469 9.91 18.409 12.29 23.839 2.39 5.42 5.38 13.63 8.99 24.61h-70zm-165 30c1.96-12.3 3.92-21.81 5.88-28.52 1.96-6.71 5.75-16.87 11.36-30.48 4.44 12.75 7.44 22.13 9.02 28.13 1.57 6.01 2.35 11.09 2.35 15.24.17-3.97 1.08-8.27 2.74-12.89 1.66-4.63 4.66-11.27 9.01-19.93 4.82 10.47 8.22 18.41 10.19 23.84 1.98 5.42 4.46 13.63 7.45 24.61h-58z" fill="#FF946A"/><path fill-rule="evenodd" clip-rule="evenodd" d="M1024.74 1049.79v-52.598h55.74v52.598m57.41 2.24v-33.01h73.02v44.2" fill="#F4E5AD"/><path fill-rule="evenodd" clip-rule="evenodd" d="M1210.35 1129.25v-89.53h101.45v89.03" fill="#F4E5AD"/><path fill-rule="evenodd" clip-rule="evenodd" d="M1019.17 1084.49v-53.72h11.14v9.51h6.69v-9.51h11.71v9.51h6.69v-9.51h11.7v9.51h6.69v-9.51h13.94v57.08" fill="#AFA26E"/><path fill-rule="evenodd" clip-rule="evenodd" d="M1302.88 1129.25V997.192h54.63V1128.5m-349.49-45.13v45.32h94.75v-14.66c0-16.94 13.73-30.66 30.66-30.66s30.66 13.72 30.66 30.66v14.66h51.28v-88.41h-14.49l-2.23 11.75h-10.04v-11.75h-19.5v11.75h-10.04v-11.75h-18.95v11.75h-9.48v-11.75h-18.95v17.91h-18.39l-17.28 25.18h-68z" fill="#DACA8B"/><path fill-rule="evenodd" clip-rule="evenodd" d="M1003 1118.06h104.79v11.19H1003v-11.19zm158.3 0h59.09v11.19h-59.09v-11.19z" fill="#AFA26E"/><path fill-rule="evenodd" clip-rule="evenodd" d="M1037 1072.18v-17.93c0-2.46 2-4.46 4.46-4.46s4.46 2 4.46 4.46v17.93H1037zm207.91 27.98v-17.93c0-2.46 2-4.46 4.46-4.46s4.46 2 4.46 4.46v17.93h-8.92zm-183.94-27.98v-17.93c0-2.46 2-4.46 4.46-4.46s4.46 2 4.46 4.46v17.93h-8.92zm207.91 27.98v-17.93c0-2.46 2-4.46 4.46-4.46s4.46 2 4.46 4.46v17.93h-8.92zm57.41-50.37v-17.92c0-2.46 2-4.46 4.46-4.46 2.47 0 4.46 2 4.46 4.46v17.92h-8.92zm0 49.25v-17.93c0-2.46 2-4.46 4.46-4.46 2.47 0 4.46 2 4.46 4.46v17.93h-8.92zm-141.58 19.02v-17.93c0-4.31 3.5-7.81 7.81-7.81s7.8 3.5 7.8 7.81v17.93h-15.61zm-25.48-164.698 17.12-38.429 22.23 49.894a691.06 691.06 0 0 0 5.08 8.863c6.11 10.429 15.4 25.538 27.87 45.33-24.12 2.88-42.79 4.32-56.03 4.32-13.24 0-32.09-1.44-56.56-4.32 13.78-20.112 23.63-35.221 29.54-45.33 3.64-6.225 7.23-13.001 10.75-20.328zm-147.31 43.83c9.81-9.468 16.5-19.167 20.06-29.098 3.57-9.931 10.63-28.211 21.19-54.84 10.52 26.147 17.58 44.426 21.18 54.84 3.6 10.413 10.1 20.113 19.51 29.098-13.01 2.239-26.76 3.358-41.25 3.358-14.49 0-28.06-1.119-40.69-3.358zm277.58 2.239c9.82-9.468 16.5-19.168 20.07-29.099 3.57-9.931 10.63-28.211 21.18-54.839 10.52 26.146 17.58 44.426 21.18 54.839 3.6 10.413 10.1 20.113 19.51 29.099-13 2.239-26.75 3.359-41.25 3.359-14.49 0-28.05-1.12-40.69-3.359z" fill="#334E62"/><path fill-rule="evenodd" clip-rule="evenodd" d="M1115.4 624.081c13.15 47.989 11.78 86.899-4.1 116.729-15.88 29.83-21.91 67.455-18.07 112.876l39.63-50.424c-.58 28.969-.22 51.083 1.08 66.341 1.3 15.257 4.1 30.289 8.41 45.097l19.27-42.604c8.39 18.663 17.57 34.229 27.53 46.699 9.97 12.47 26.14 28.63 48.51 48.479 4.2-30.282 6.22-53.273 6.06-68.974-.15-15.701-2.55-31.073-7.19-46.115l27.24 28.776c1.81-14.707-.01-28.156-5.46-40.346-5.44-12.191-13.25-28.942-23.43-50.254l42.92 32.866c-13.08-40.318-36.9-74.035-71.44-101.151s-55.66-59.201-63.38-96.256c-4.63-2.104-8.74-3.3-12.36-3.587-3.62-.287-8.69.329-15.22 1.848z" fill="#FF946A"/><path fill-rule="evenodd" clip-rule="evenodd" d="M1127.34 624.192c5.87 26.413 10.31 48.328 13.34 65.745 2.04 11.743 4.01 28.789 5.92 51.136a100.018 100.018 0 0 0 29.08 62.337l14.45 14.393 1.84-7.19a99.96 99.96 0 0 0-9.97-74.267c-10.91-19.18-19.23-34.834-24.93-46.961-8.82-18.733-16.81-41.044-23.96-66.934l-5.77 1.741z" fill="#FFE676"/><path fill-rule="evenodd" clip-rule="evenodd" d="M960 899.998c-4.5 11.12-8.765 19.033-12.793 23.74-2.117 2.473-4.817 5.372-8.101 8.697a2.382 2.382 0 0 1-3.818-2.752l5.245-10.322a2.308 2.308 0 0 0-1.412-3.262 3.615 3.615 0 0 0-4.109 1.608l-11.315 18.822a2 2 0 0 1-3.703-1.248l2.32-21.139 15.988-21.801L960 899.998z" fill="#437BA6"/><path fill-rule="evenodd" clip-rule="evenodd" d="m760 888.001-85.142-104.66-151.569 46.988a3 3 0 0 0 .603 5.852l74.73 7.137 19.464 41.148a2.999 2.999 0 0 0 3.831 1.5l44.377-17.842 32.672 25.395a3 3 0 0 0 1.829.632l46.862.19 12.343-6.34z" fill="#334E62"/><path fill-rule="evenodd" clip-rule="evenodd" d="m861.31 872.839 33.305 49.063 11.326-27.171a26.005 26.005 0 0 1 7.705-10.257c11.19-8.999 27.556-7.223 36.555 3.967L960 900.625l-9.112-.127a17 17 0 0 0-14.811 8.246l-33.389 55.597-39.765-28.685 2.787 108.594 29.935 29.83 30.097 7.12a4.994 4.994 0 0 1 1.313 9.21l-44.599 25.27c-.009.01-.018.01-.028.02-12.021 6.79-27.272 2.55-34.063-9.47l-31.862-56.4h-32.991v59.76l19.581 10.94a4.006 4.006 0 0 1-1.951 7.5h-68.323c-.726 0-1.452-.05-2.173-.14-9.868-1.2-16.895-10.17-15.696-20.04l7.054-58.02-104.97 55.9a47.93 47.93 0 0 1-16.312 5.23L469 1128.25l206.034-154.378 49.076-110.607a24.93 24.93 0 0 1 2.791-4.781l-1.802.002 18.416-435.503c2.224-52.579 44.817-94.437 97.427-95.744l277.558-6.898c53-1.667 79.5 28.667 79.5 91 0 9.371-10.83 59.371-32.5 150 13.63 12.063 14.9 32.89 2.84 46.519-.77.862-1.57 1.683-2.42 2.46-.07.06-.13.12-.2.181a43.145 43.145 0 0 1-6.97 5.333l.92 5.312c.35 2.05.2 4.154-.43 6.136-2.17 6.843-9.48 10.63-16.32 8.457l-15.27-4.847-11.95 7.011a13.027 13.027 0 0 1-4.1 1.549c-7.05 1.367-13.87-3.239-15.24-10.288l-3.63-18.751-.23-.072-22.5-49-85-68-69.341-4.132c-9.626-.573-17.993 6.54-18.977 16.133l-35.833 349.536.461 17.961z" fill="#7AC6FF"/><path fill-rule="evenodd" clip-rule="evenodd" d="M1171.12 507.335c5.16-4.106 17.49-.6 16.62 9.211-.86 9.811-7.79 25.407-19.46 15.511-11.66-9.896-2.31-20.617 2.84-24.722zm-95.06 3.716c2.52-6.089 15-9 19 0s5.5 26-9.5 23-12.01-16.912-9.5-23z" fill="#fff"/><path fill-rule="evenodd" clip-rule="evenodd" d="M1167.06 522.142a2.495 2.495 0 0 1 2.54-2.456l11 .192a2.492 2.492 0 0 1 2.45 2.543 2.495 2.495 0 0 1-2.54 2.456l-11-.192a2.492 2.492 0 0 1-2.45-2.543zm-87.56.059a2.502 2.502 0 0 1 2.54-2.456l11 .192a2.506 2.506 0 0 1 2.46 2.543 2.5 2.5 0 0 1-2.54 2.456l-11-.192a2.506 2.506 0 0 1-2.46-2.543z" fill="#334E62"/><path fill-rule="evenodd" clip-rule="evenodd" d="M721.651 1049.25 706 1133.34l95.451-.5a7.996 7.996 0 0 0 7.958-8.04 8.018 8.018 0 0 0-1.015-3.86l-1.22-2.18-20.123-9.53-3.354-59.42-62.046-.56zm-27-284.895-131.953 21.638a3 3 0 0 0-.213 5.878l85.363 20.437 6.196 42.051a3 3 0 0 0 3.24 2.55l63.027-5.741 14.259 30.168a3.003 3.003 0 0 0 2.338 1.694l58.584 7.366 10.099 10.985a4.696 4.696 0 0 0 6.064.729 4.479 4.479 0 0 0 1.486-5.796l-4.428-8.495a83.19 83.19 0 0 1-.787-1.547l-42.402-85.553c-13.072-26.373-41.826-41.127-70.873-36.364z" fill="#437BA6"/><path fill-rule="evenodd" clip-rule="evenodd" d="m731.849 714.093-61.654 43.795a3 3 0 0 1-4.443-3.74L737.6 604.021l-56.428 27.164a3 3 0 0 1-4.043-3.92l63.879-143.897-38.13 20.201a3 3 0 0 1-4.115-3.936l50.485-106.548-17.399 321.008zm221.194-390.454L898.72 383.97a5 5 0 0 1-8.446-4.965l15.28-44.62-92.058 67.299a5.002 5.002 0 0 1-7.493-6.127l31.106-67.601 115.934-4.317zM675 974.341l-43.912 8.738a3 3 0 0 0-2.018 4.433l6.263 10.942-37.457 9.806a3 3 0 0 0-2.143 3.66c.146.56.45 1.07.876 1.45l8.164 7.49-39.64 10.1a3 3 0 0 0-.337 5.71l12.751 4.91-43.033 16.64a2.996 2.996 0 0 0 .476 5.73l16.442 3.39L675 974.341zm432.79-435.399c-.12 5.962-30.41-27.768-68.55-112.04-13.63-30.125-35.82-90.092-66.575-179.902l58.145 97.17 11.83-66.149 22.19 123.577 17.64-29.588c17.07 102.129 25.51 157.773 25.32 166.932zm57.07-4.872c-2.71 3.736-6.92-31.19 6.24-101.735 4.71-25.218 17.19-73.216 37.46-143.994l-6.24 87.649 36.68-36.782-40.58 88.432 24.19-10.956c-34.34 72.518-53.59 111.647-57.75 117.386z" fill="#334E62"/><path d="M1165.93 561.377c-.2.513-.79.764-1.3.56a1.005 1.005 0 0 1-.56-1.298c9.22-23.221 25.7-29.117 48.88-17.526 6.44 3.221 13.11 9.343 20.98 18.774 3.18 3.819 6.53 8.117 10.66 13.654 2.21 2.968 9.9 13.436 10.95 14.856 14.77 19.937 24.56 31.186 35.43 39.226 13.8 10.207 27.15 12.682 41.12 6.308 5.11-2.334 9.73-4.638 13.84-6.91 14.82-8.183 20.2-26.828 12.02-41.645a30.925 30.925 0 0 0-5.88-7.555c-7.25-6.787-18.63-6.414-25.42.833-.52.56-1.01 1.153-1.46 1.776l-2.88 3.996a.994.994 0 0 1-1.39.226 1.002 1.002 0 0 1-.23-1.396l2.88-3.996c.5-.691 1.04-1.35 1.62-1.973 7.55-8.054 20.19-8.468 28.24-.926a32.752 32.752 0 0 1 6.27 8.048c8.71 15.784 2.98 35.646-12.8 44.362-4.16 2.299-8.82 4.625-13.98 6.98-14.69 6.703-28.79 4.089-43.14-6.52-11.08-8.194-20.96-19.553-35.84-39.644-1.06-1.425-8.75-11.889-10.96-14.85-4.11-5.511-7.43-9.782-10.59-13.568-7.71-9.237-14.2-15.197-20.34-18.267-22.15-11.075-37.34-5.638-46.12 16.475zm-69.36 3c-8.78-22.113-23.97-27.55-46.12-16.475-8.18 4.087-16.24 13.859-26.77 31.071a509.936 509.936 0 0 0-5.7 9.57 856.16 856.16 0 0 0-2.87 4.927c.12-.205-2.23 3.844-2.88 4.97-13.781 23.737-21.576 35.256-31.027 43.847-12.494 11.357-24.996 13.044-38.29 3.363-22.577-16.442-26.601-35.016-11.894-55.266 6.858-9.442 20.07-11.537 29.511-4.679a21.12 21.12 0 0 1 7.41 9.791 1 1 0 0 1-1.877.691 19.123 19.123 0 0 0-6.708-8.864c-8.548-6.208-20.509-4.312-26.717 4.236-14.028 19.314-10.271 36.654 11.452 52.474 12.469 9.08 23.932 7.532 35.768-3.226 9.242-8.401 16.97-19.822 30.642-43.371.65-1.125 3-5.174 2.88-4.969 1.15-1.99 2.02-3.483 2.87-4.933 2.16-3.706 3.98-6.76 5.72-9.605 10.73-17.526 18.96-27.504 27.58-31.816 23.19-11.591 39.66-5.695 48.88 17.526.2.513-.05 1.094-.56 1.298a1.005 1.005 0 0 1-1.3-.56z" fill="#334E62"/><path fill-rule="evenodd" clip-rule="evenodd" d="M1097.5 563.841c14.57 1.446 24.41 5.946 29.5 13.5s3.43 17.887-5 31l-24.5-44.5z" fill="#437BA6"/></svg>