<svg width="1840" height="1380" viewBox="0 0 1840 1380" fill="none" xmlns="http://www.w3.org/2000/svg">
<path d="M401 1100.56C465.617 1100.56 518 1048.17 518 983.557C518 918.939 465.617 866.557 401 866.557C336.383 866.557 284 918.939 284 983.557C284 1048.17 336.383 1100.56 401 1100.56Z" fill="#CDFFE6"/>
<path fill-rule="evenodd" clip-rule="evenodd" d="M1409.84 1055.97C1404.6 1047.13 1399 1036.08 1393.03 1022.82L1389.1 1024.58C1384.91 1026.45 1379.98 1024.86 1377.67 1020.89C1375.32 1016.84 1376.16 1011.69 1379.69 1008.6L1384.94 1004C1375.12 980.231 1364.42 951.058 1352.82 916.48L1419.32 663.056C1411.66 800.394 1416.16 897.162 1432.82 953.361C1457.82 1037.66 1485.82 1095.62 1510.82 1088.24C1527.49 1083.32 1542.82 1091.93 1556.82 1114.06C1547.49 1114.06 1532.16 1114.06 1510.82 1114.06C1500.16 1114.06 1449.5 1105.21 1421.52 1072.71L1415.1 1075.58C1410.91 1077.45 1405.98 1075.86 1403.67 1071.89C1401.32 1067.84 1402.16 1062.69 1405.69 1059.6L1409.84 1055.97ZM1257 692.556L1273.82 805.556C1196.25 855.406 1146.75 876.239 1125.32 868.056C1093.18 855.782 1077.88 819.866 1045.32 747.556C1024 700.193 997.565 604.443 966.015 460.305C965.015 455.738 963.617 451.268 961.837 446.946C953.93 427.747 957.759 420.284 973.324 424.556C998.824 431.556 1100.24 736.361 1140.17 747.783C1166.79 755.398 1205.73 736.989 1257 692.556Z" fill="#62BE90"/>
<mask id="mask0" mask-type="alpha" maskUnits="userSpaceOnUse" x="704" y="306" width="755" height="805">
<path d="M777.723 527.153C776.07 526.65 774.495 526.285 773 526.056C755.657 523.411 737.279 523.746 717.863 527.062C713.025 527.888 708.154 525.791 705.431 521.709C703.292 518.504 704.157 514.172 707.362 512.033C707.713 511.799 708.085 511.597 708.473 511.43C732.159 501.225 751.5 497.466 766.496 500.154C791.356 504.609 885.288 530.969 922.41 606.294C959.532 681.62 1009.99 800.009 1039.49 833.412C1068.99 866.816 1127.7 921.116 1166.33 882.477C1192.08 856.718 1217.76 798.325 1243.37 707.299L1153.62 450.866C1136.95 403.249 1158.36 350.674 1203.55 328.25C1210.27 324.915 1216.42 322.017 1222 319.556C1237.6 312.675 1282.4 308.398 1356.41 306.725C1411.62 305.478 1457.39 349.226 1458.64 404.441C1458.77 410.192 1458.41 415.943 1457.55 421.631L1421.56 659.935C1414.47 693.065 1409.34 717.134 1406.17 732.142C1385.73 829.012 1372.28 897.066 1365.81 936.304C1364.5 944.286 1353.18 1039.06 1311.5 1078.56C1269.82 1118.06 1163.08 1125.11 1064.05 1078.79C1024.39 1060.24 969.705 1011.58 911 981.056C888.769 969.496 866.381 962.012 844.752 962.339C780.862 963.306 754.469 1050.64 737 1047.06C711 1041.72 702 1028.06 710 1006.06C770.809 940.909 821.084 911.409 860.823 917.556C928.018 927.951 1043.44 1008.05 1086.89 1016.02C1138.57 1025.5 1210.94 1018 1235.38 992.053C1250.04 976.483 1270.31 928.622 1296.17 848.47L1296.06 848.433C1296.37 847.445 1295.83 846.385 1294.84 846.067C1293.95 845.777 1292.98 846.196 1292.57 847.046C1261.03 913.114 1237.59 952.89 1222.24 966.374C1165.32 1016.38 1100.48 1001.26 1050.91 975.504C1032.33 965.849 1013.6 947.552 994.73 920.613L988.098 923.577C983.908 925.45 978.98 923.861 976.672 919.894C974.316 915.843 975.159 910.69 978.685 907.602L983.417 903.456C975.644 890.979 967.847 877.044 960.025 861.652L954.445 862.644C949.926 863.447 945.529 860.714 944.25 856.306C942.943 851.805 945.008 847.009 949.176 844.866L951.252 843.798C949.634 840.398 948.016 836.936 946.396 833.412L935.313 799.245L927.445 800.644C922.926 801.447 918.529 798.714 917.25 794.306C915.943 789.805 918.008 785.009 922.176 782.866L928.881 779.417L914.846 736.15L906.445 737.644C901.926 738.447 897.529 735.714 896.25 731.306C894.943 726.805 897.008 722.009 901.176 719.866L908.365 716.169L879.705 627.819C874.973 613.231 866.949 599.926 856.253 588.935C852.148 584.715 848.163 580.708 844.299 576.911L837.303 582.009C833.593 584.712 828.443 584.183 825.361 580.783C822.213 577.31 821.967 572.094 824.773 568.34L829.124 562.521C817.03 551.506 806.352 542.967 797.089 536.905L789.658 545.786C786.713 549.306 781.587 550.039 777.774 547.485C773.88 544.877 772.379 539.875 774.194 535.554L777.723 527.153Z" fill="white"/>
</mask>
<g mask="url(#mask0)">
<path d="M777.723 527.153C776.07 526.65 774.495 526.285 773 526.056C755.657 523.411 737.279 523.746 717.863 527.062C713.025 527.888 708.154 525.791 705.431 521.709C703.292 518.504 704.157 514.172 707.362 512.033C707.713 511.799 708.085 511.597 708.473 511.43C732.159 501.225 751.5 497.466 766.496 500.154C791.356 504.609 885.288 530.969 922.41 606.294C959.532 681.62 1009.99 800.009 1039.49 833.412C1068.99 866.816 1127.7 921.116 1166.33 882.477C1192.08 856.718 1217.76 798.325 1243.37 707.299L1153.62 450.866C1136.95 403.249 1158.36 350.674 1203.55 328.25C1210.27 324.915 1216.42 322.017 1222 319.556C1237.6 312.675 1282.4 308.398 1356.41 306.725C1411.62 305.478 1457.39 349.226 1458.64 404.441C1458.77 410.192 1458.41 415.943 1457.55 421.631L1421.56 659.935C1414.47 693.065 1409.34 717.134 1406.17 732.142C1385.73 829.012 1372.28 897.066 1365.81 936.304C1364.5 944.286 1353.18 1039.06 1311.5 1078.56C1269.82 1118.06 1163.08 1125.11 1064.05 1078.79C1024.39 1060.24 969.705 1011.58 911 981.056C888.769 969.496 866.381 962.012 844.752 962.339C780.862 963.306 754.469 1050.64 737 1047.06C711 1041.72 702 1028.06 710 1006.06C770.809 940.909 821.084 911.409 860.823 917.556C928.018 927.951 1043.44 1008.05 1086.89 1016.02C1138.57 1025.5 1210.94 1018 1235.38 992.053C1250.04 976.483 1270.31 928.622 1296.17 848.47L1296.06 848.433C1296.37 847.445 1295.83 846.385 1294.84 846.067C1293.95 845.777 1292.98 846.196 1292.57 847.046C1261.03 913.114 1237.59 952.89 1222.24 966.374C1165.32 1016.38 1100.48 1001.26 1050.91 975.504C1032.33 965.849 1013.6 947.552 994.73 920.613L988.098 923.577C983.908 925.45 978.98 923.861 976.672 919.894C974.316 915.843 975.159 910.69 978.685 907.602L983.417 903.456C975.644 890.979 967.847 877.044 960.025 861.652L954.445 862.644C949.926 863.447 945.529 860.714 944.25 856.306C942.943 851.805 945.008 847.009 949.176 844.866L951.252 843.798C949.634 840.398 948.016 836.936 946.396 833.412L935.313 799.245L927.445 800.644C922.926 801.447 918.529 798.714 917.25 794.306C915.943 789.805 918.008 785.009 922.176 782.866L928.881 779.417L914.846 736.15L906.445 737.644C901.926 738.447 897.529 735.714 896.25 731.306C894.943 726.805 897.008 722.009 901.176 719.866L908.365 716.169L879.705 627.819C874.973 613.231 866.949 599.926 856.253 588.935C852.148 584.715 848.163 580.708 844.299 576.911L837.303 582.009C833.593 584.712 828.443 584.183 825.361 580.783C822.213 577.31 821.967 572.094 824.773 568.34L829.124 562.521C817.03 551.506 806.352 542.967 797.089 536.905L789.658 545.786C786.713 549.306 781.587 550.039 777.774 547.485C773.88 544.877 772.379 539.875 774.194 535.554L777.723 527.153Z" fill="#90F6C3"/>
<path fill-rule="evenodd" clip-rule="evenodd" d="M1202.12 387.961L1205.25 396.307C1213.74 418.97 1238.99 430.46 1261.66 421.97C1269.77 418.931 1276.8 413.556 1281.86 406.523L1292.7 391.448C1294.31 389.206 1297.44 388.696 1299.68 390.309C1301.71 391.771 1302.35 394.513 1301.17 396.723L1284.09 428.713C1273.54 448.473 1281 473.045 1300.76 483.596C1307.36 487.115 1314.79 488.745 1322.25 488.307L1348.08 486.787C1350.84 486.625 1353.21 488.728 1353.37 491.485C1353.51 493.832 1351.99 495.959 1349.73 496.593L1316.1 506.008C1295.26 511.845 1283.09 533.478 1288.92 554.326C1291.06 561.939 1295.44 568.73 1301.5 573.807L1342.59 608.231C1344.71 610.005 1344.99 613.158 1343.22 615.275C1342.01 616.714 1340.1 617.357 1338.27 616.939L1312.5 611.057C1293.66 606.757 1274.91 618.542 1270.61 637.38C1269.84 640.737 1269.57 644.188 1269.81 647.623L1272.15 680.784C1272.34 683.539 1270.27 685.929 1267.51 686.123C1265.46 686.267 1263.54 685.144 1262.65 683.29L1243.08 642.309C1239.63 635.084 1230.97 632.024 1223.75 635.474C1218.71 637.882 1215.5 642.971 1215.5 648.557L1146.5 492.557V439.057C1160.18 449.667 1179.88 447.175 1190.49 433.49C1196.23 426.092 1198.36 416.516 1196.3 407.383L1192.56 390.815C1191.96 388.121 1193.65 385.445 1196.34 384.837C1198.78 384.288 1201.25 385.622 1202.12 387.961ZM924.823 1002.56L738.823 1032.06L694.823 979.057L748.323 933.057L847.323 892.057L1131.32 1013.56C1106.94 1015.64 1078.28 1013.47 1045.32 1007.06C1012.37 1000.64 972.202 999.141 924.823 1002.56ZM1332 559.557C1325.92 559.557 1321 554.632 1321 548.557C1321 542.482 1325.92 537.557 1332 537.557C1338.07 537.557 1343 542.482 1343 548.557C1343 554.632 1338.07 559.557 1332 559.557ZM1315 458.557C1308.92 458.557 1304 453.632 1304 447.557C1304 441.482 1308.92 436.557 1315 436.557C1321.07 436.557 1326 441.482 1326 447.557C1326 453.632 1321.07 458.557 1315 458.557ZM1245 400.557C1238.92 400.557 1234 395.632 1234 389.557C1234 383.482 1238.92 378.557 1245 378.557C1251.07 378.557 1256 383.482 1256 389.557C1256 395.632 1251.07 400.557 1245 400.557ZM1166 422.557C1159.92 422.557 1155 417.632 1155 411.557C1155 405.482 1159.92 400.557 1166 400.557C1172.07 400.557 1177 405.482 1177 411.557C1177 417.632 1172.07 422.557 1166 422.557Z" fill="#62BE90"/>
</g>
<path d="M741 762.557H737C732.582 762.557 729 766.138 729 770.557V798.557C729 802.975 732.582 806.557 737 806.557H741C745.418 806.557 749 802.975 749 798.557V770.557C749 766.138 745.418 762.557 741 762.557Z" fill="#E0C37C"/>
<path d="M720.5 759.057H713.5C709.082 759.057 705.5 762.638 705.5 767.057V804.057C705.5 808.475 709.082 812.057 713.5 812.057H720.5C724.918 812.057 728.5 808.475 728.5 804.057V767.057C728.5 762.638 724.918 759.057 720.5 759.057Z" fill="#D8D8D8" stroke="#979797"/>
<path fill-rule="evenodd" clip-rule="evenodd" d="M397.5 923.557H403.5C407.366 923.557 410.5 926.691 410.5 930.557V948.557H390.5V930.557C390.5 926.691 393.634 923.557 397.5 923.557ZM378.611 1007.56L422.361 1007.66L435 1035.66C419.889 1036.81 408.389 1037.38 400.5 1037.38C392.611 1037.38 380.778 1036.81 365 1035.66L378.611 1007.56Z" fill="#F6D890"/>
<path d="M1027.34 297.109C1027.65 288.754 1027.64 282.57 1027.32 278.557C1027.12 276.029 1027.05 272.64 1027.09 268.389C1027.1 267.609 1027.56 266.905 1028.28 266.586C1029.29 266.135 1030.47 266.587 1030.92 267.595L1032.91 272.034C1033.21 272.708 1033.69 273.285 1034.3 273.702C1036.12 274.95 1038.61 274.483 1039.86 272.66L1044.5 265.871C1044.91 265.274 1045.61 264.944 1046.33 265.008C1047.43 265.106 1048.24 266.077 1048.15 267.177L1047.36 275.978C1047.32 276.525 1047.38 277.076 1047.55 277.597C1048.25 279.693 1050.52 280.825 1052.61 280.127L1057.13 278.622C1057.76 278.412 1058.45 278.529 1058.98 278.933C1059.85 279.606 1060.02 280.862 1059.35 281.738L1043.52 302.343L971.945 501.952C969.328 509.248 965.099 515.859 959.572 521.292C939.29 541.233 906.684 540.956 886.743 520.674L867.801 501.407C867.612 501.214 867.42 501.024 867.226 500.836C853.553 487.566 831.711 487.893 818.442 501.567L701.1 622.476L688.9 610.637L806.242 489.727C826.051 469.316 858.655 468.828 879.066 488.637C879.355 488.917 879.641 489.201 879.923 489.489L898.866 508.755C912.224 522.342 934.067 522.528 947.654 509.17C951.357 505.53 954.19 501.101 955.942 496.214L1027.34 297.109V297.109ZM575.027 614.855C578.422 611.613 583.803 611.738 587.044 615.133C590.286 618.528 590.162 623.909 586.766 627.15L517.765 693.031C505.772 704.482 505.332 723.487 516.783 735.48C517.407 736.133 518.06 736.758 518.74 737.353C533.847 750.557 556.329 750.763 571.676 737.839L700.921 629.001C704.512 625.977 709.874 626.437 712.898 630.028C715.922 633.618 715.463 638.981 711.872 642.004L582.626 750.843C560.861 769.171 528.978 768.878 507.553 750.153C506.487 749.221 505.465 748.243 504.487 747.219C486.553 728.435 487.242 698.67 506.026 680.735L575.027 614.855Z" fill="#BEA465"/>
<path d="M400.5 828.557C414.583 828.557 426 839.973 426 854.057V948.557C426 952.975 422.418 956.557 418 956.557H383C378.582 956.557 375 952.975 375 948.557V854.057C375 839.973 386.417 828.557 400.5 828.557ZM415 854.057C415 846.049 408.508 839.557 400.5 839.557C392.492 839.557 386 846.049 386 854.057V945.557H415V854.057ZM367.432 1033.4C378.68 1035.72 389.703 1036.88 400.5 1036.88C411.256 1036.88 421.948 1035.73 432.576 1033.42C433.656 1033.19 434.721 1033.87 434.955 1034.95C434.985 1035.09 435 1035.24 435 1035.38V1035.89C435 1037.06 434.187 1038.07 433.044 1038.33C422.426 1040.69 411.579 1041.88 400.5 1041.88C389.393 1041.88 378.22 1040.69 366.982 1038.31C365.827 1038.06 365 1037.04 365 1035.86V1035.38C365 1034.26 365.906 1033.35 367.023 1033.35C367.16 1033.35 367.297 1033.37 367.432 1033.4Z" fill="#E0C37C"/>
<path fill-rule="evenodd" clip-rule="evenodd" d="M387 944.557H414C427.255 944.557 438 955.302 438 968.557V993.027C438 1005.13 428.982 1015.35 416.968 1016.84C410.477 1017.65 405.154 1018.06 401 1018.06C396.699 1018.06 391.048 1017.62 384.049 1016.76C372.027 1015.27 363 1005.05 363 992.938V968.557C363 955.302 373.745 944.557 387 944.557Z" fill="#62BE90"/>
<path fill-rule="evenodd" clip-rule="evenodd" d="M382.5 960.165C385.538 960.165 388 962.627 388 965.665V996.665C388 999.702 385.538 1002.16 382.5 1002.16C379.462 1002.16 377 999.702 377 996.665V965.665C377 962.627 379.462 960.165 382.5 960.165ZM400.5 957.773C403.538 957.773 406 960.236 406 963.273V999.273C406 1002.31 403.538 1004.77 400.5 1004.77C397.462 1004.77 395 1002.31 395 999.273V963.273C395 960.236 397.462 957.773 400.5 957.773ZM418.5 960.165C421.538 960.165 424 962.627 424 965.665V996.665C424 999.702 421.538 1002.16 418.5 1002.16C415.462 1002.16 413 999.702 413 996.665V965.665C413 962.627 415.462 960.165 418.5 960.165Z" fill="#90F6C3"/>
<path fill-rule="evenodd" clip-rule="evenodd" d="M1212.68 424.557C1250.21 456.382 1271.67 484.382 1277.08 508.557C1282.48 532.731 1275.33 568.731 1255.61 616.557C1217.42 585.008 1195.7 557.508 1190.45 534.057C1185.21 510.605 1192.62 474.105 1212.68 424.557Z" fill="white"/>
<path fill-rule="evenodd" clip-rule="evenodd" d="M1213.29 494.907L1216.95 494.208C1218.84 493.848 1220.66 495.079 1221.04 496.966L1233.14 558.088C1233.51 559.985 1232.28 561.826 1230.39 562.202C1230.38 562.203 1230.37 562.205 1230.36 562.206L1226.7 562.905C1224.81 563.266 1222.98 562.034 1222.61 560.147L1210.51 499.025C1210.13 497.129 1211.37 495.287 1213.26 494.912C1213.27 494.91 1213.28 494.909 1213.29 494.907Z" fill="#737373"/>
<path fill-rule="evenodd" clip-rule="evenodd" d="M961.184 420.423C983.114 411.132 996.993 412.01 1002.82 423.057C1005.17 427.503 1016.06 446.405 1012.32 447.557C1008.9 448.61 977.323 431.057 970.823 431.057C966.49 431.057 965.49 442.057 967.823 464.057C960.987 448.463 956.821 437.963 955.323 432.557C953.955 427.614 956.462 422.423 961.184 420.423V420.423Z" fill="#90F6C3"/>
<mask id="mask1" mask-type="alpha" maskUnits="userSpaceOnUse" x="444" y="598" width="467" height="511">
<path d="M615.6 684.09L710.44 646.405L697.5 616.557L752.251 621.079C761.574 621.849 770.958 621.307 780.13 619.469L884.5 598.557L911 657.057L876 682.557C853.333 698.89 825.333 707.057 792 707.057C775.955 707.057 763.231 706.748 753.828 706.13L768 774.057L626.5 785.339L609.32 752.3C597.052 764.032 586.779 772.284 578.5 777.057C557.807 788.985 529.922 797.95 523.349 800.766C512.783 805.293 499.167 811.89 482.5 820.557C457.167 789.89 444.5 774.557 444.5 774.557C444.5 774.557 453.5 767.223 471.5 752.557L518.5 721.057L551.689 674.6C558.972 664.406 568.105 655.672 578.614 648.851L621 621.339L615.6 684.09ZM636.63 797.573L768 774.057C771.226 797.904 771.726 824.738 769.5 854.557C767.274 884.376 765.774 911.542 765 936.057C770.667 949.723 777 961.557 784 971.557C791 981.557 796.833 990.723 801.5 999.057L849 1066.06L838.5 1079.56L769.5 1108.56L768 1090.06L765 1078.56L696.634 979.188C685.15 962.495 679.007 942.707 679.019 922.445L679.056 864.024L618 941.057C622.453 960.74 625.12 975.907 626 986.557C626.88 997.207 626.363 1008.03 624.446 1019.04L626.198 1040.22V1108.31H487L487.067 1092.73C487.127 1078.59 497.047 1066.42 510.879 1063.5L545.944 1056.11L542.87 1022.81C539.248 1011.35 536.958 1000.44 536 990.057C535.364 983.163 534.386 966.435 533.066 939.871C531.566 909.682 543.801 880.435 566.351 860.306L636.63 797.573Z" fill="white"/>
</mask>
<g mask="url(#mask1)">
<path d="M615.6 684.09L710.44 646.405L697.5 616.557L752.251 621.079C761.574 621.849 770.958 621.307 780.13 619.469L884.5 598.557L911 657.057L876 682.557C853.333 698.89 825.333 707.057 792 707.057C775.955 707.057 763.231 706.748 753.828 706.13L768 774.057L626.5 785.339L609.32 752.3C597.052 764.032 586.779 772.284 578.5 777.057C557.807 788.985 529.922 797.95 523.349 800.766C512.783 805.293 499.167 811.89 482.5 820.557C457.167 789.89 444.5 774.557 444.5 774.557C444.5 774.557 453.5 767.223 471.5 752.557L518.5 721.057L551.689 674.6C558.972 664.406 568.105 655.672 578.614 648.851L621 621.339L615.6 684.09ZM636.63 797.573L768 774.057C771.226 797.904 771.726 824.738 769.5 854.557C767.274 884.376 765.774 911.542 765 936.057C770.667 949.723 777 961.557 784 971.557C791 981.557 796.833 990.723 801.5 999.057L849 1066.06L838.5 1079.56L769.5 1108.56L768 1090.06L765 1078.56L696.634 979.188C685.15 962.495 679.007 942.707 679.019 922.445L679.056 864.024L618 941.057C622.453 960.74 625.12 975.907 626 986.557C626.88 997.207 626.363 1008.03 624.446 1019.04L626.198 1040.22V1108.31H487L487.067 1092.73C487.127 1078.59 497.047 1066.42 510.879 1063.5L545.944 1056.11L542.87 1022.81C539.248 1011.35 536.958 1000.44 536 990.057C535.364 983.163 534.386 966.435 533.066 939.871C531.566 909.682 543.801 880.435 566.351 860.306L636.63 797.573Z" fill="#E8E5DE"/>
<path fill-rule="evenodd" clip-rule="evenodd" d="M538 1022.56L631 1018.06V1111.56L498.5 1114.06L512.5 1060.56L543.5 1048.06L538 1022.56ZM804.5 994.057L872.5 1089.06C796.833 1106.06 758.333 1114.56 757 1114.56C755.667 1114.56 747 1085.72 731 1028.06L804.5 994.057Z" fill="#737373"/>
</g>
<path fill-rule="evenodd" clip-rule="evenodd" d="M584.5 600.557L568.34 619.409C567.237 620.696 567.065 622.539 567.911 624.008L574.082 634.726C575.153 636.587 577.502 637.27 579.404 636.273L597 627.057L584.5 600.557Z" fill="#737373"/>
<path fill-rule="evenodd" clip-rule="evenodd" d="M907.433 669.079L878.119 596.028C884.973 589.929 890.319 586.339 894.156 585.261C901.908 583.083 911.965 586.927 916.438 584.417C928.13 577.856 923.807 568.151 952.441 554.436C981.075 540.722 985.136 539.482 1006.91 541.084C1023.32 542.291 1024.86 550.777 1009.11 562.757C1003.96 566.678 977.083 578.913 974.469 580.921C967.399 586.35 963.432 592.808 962.568 600.295L986.176 595.395C989.504 594.705 992.8 596.705 993.723 599.976C994.701 603.441 993.27 607.135 990.214 609.038C971.887 620.448 957.428 627.462 946.836 630.08C943.383 630.934 939.79 632.692 936.056 635.354C932.828 637.656 933.255 647.596 927.774 654.21C924.81 657.787 918.03 662.743 907.433 669.079ZM493.5 815.557C487.91 821.997 483.076 826.33 479 828.557C471.461 832.675 466.876 826.828 464 829.557C460.674 832.714 456.135 838.735 455 842.057C450.333 855.724 440.667 864.89 426 869.557V854.057L425.062 848.009C423.766 843.428 421.579 845.444 418.5 854.057C417.227 857.619 416 862.557 415 869.557C414.219 875.025 394.5 876.057 382 871.557C374.91 869.004 376.333 859.155 375 854.057C373.22 847.25 371.157 843.893 381.979 829.318C394.596 812.324 406.696 802.45 418.278 799.697C423.336 797.471 427.077 794.925 429.5 792.057C432.201 788.861 432.958 782.623 434.5 779.557C436.291 775.996 441.124 771.496 449 766.057L493.5 815.557Z" fill="#737373"/>
<mask id="mask2" mask-type="alpha" maskUnits="userSpaceOnUse" x="560" y="470" width="181" height="250">
<path d="M584.021 642.906C572.025 601.513 565.518 573.73 564.5 559.557C564.389 558.018 564.039 556.298 563.45 554.396C553.097 520.99 571.169 485.405 604.25 474.057C608.884 472.467 613.683 471.406 618.555 470.894C654.279 467.139 686.282 493.055 690.037 528.778L698.506 609.355L705.287 607.932C709.903 608.008 713.451 608.273 715.932 608.727C718.412 609.181 722.178 610.254 727.229 611.947C732.639 612.341 736.362 613.252 738.395 614.681C740.429 616.11 740.994 618.21 740.091 620.982L732.305 623.06C726.373 626.193 722.353 629.344 720.245 632.513C704.232 656.581 693.775 678.791 684.52 687.763C667.894 703.878 661.127 713.632 634.679 717.688C608.231 721.743 601.224 719.343 583.843 703.201C572.256 692.44 566.141 677.225 565.5 657.557C573.428 651.793 579.128 647.377 582.602 644.309C583.111 643.859 583.584 643.392 584.021 642.906Z" fill="white"/>
</mask>
<g mask="url(#mask2)">
<path d="M584.021 642.906C572.025 601.513 565.518 573.73 564.5 559.557C564.389 558.018 564.039 556.298 563.45 554.396C553.097 520.99 571.169 485.405 604.25 474.057C608.884 472.467 613.683 471.406 618.555 470.894C654.279 467.139 686.282 493.055 690.037 528.778L698.506 609.355L705.287 607.932C709.903 608.008 713.451 608.273 715.932 608.727C718.412 609.181 722.178 610.254 727.229 611.947C732.639 612.341 736.362 613.252 738.395 614.681C740.429 616.11 740.994 618.21 740.091 620.982L732.305 623.06C726.373 626.193 722.353 629.344 720.245 632.513C704.232 656.581 693.775 678.791 684.52 687.763C667.894 703.878 661.127 713.632 634.679 717.688C608.231 721.743 601.224 719.343 583.843 703.201C572.256 692.44 566.141 677.225 565.5 657.557C573.428 651.793 579.128 647.377 582.602 644.309C583.111 643.859 583.584 643.392 584.021 642.906Z" fill="#F6D890"/>
<path fill-rule="evenodd" clip-rule="evenodd" d="M727.099 611.462C719.115 612.726 713.018 615.912 708.808 621.018C695.832 636.759 685.323 667.525 675.064 677.818C652.187 700.772 648.32 700.54 632.749 704.696C617.177 708.851 604.405 703.465 594.444 694.138C587.802 687.92 581.932 673.209 576.833 650.004L562.5 659.057L569.556 686.77C585.775 710.207 593.885 721.925 593.885 721.925C593.885 721.925 614.942 721.77 657.056 721.46L675.223 703.758L752.287 613.932L727.099 611.462Z" fill="#E0C37C"/>
</g>
<path fill-rule="evenodd" clip-rule="evenodd" d="M667.757 571.901C651.121 580.492 630.581 573.424 621.879 556.113C613.177 538.802 619.608 517.804 636.243 509.212C652.879 500.621 673.419 507.69 682.121 525.001C690.823 542.312 684.392 563.31 667.757 571.901Z" fill="#737373"/>
<path d="M649.315 506.998C646.482 507.177 643.672 507.707 640.958 508.587L646.53 512.635L648.738 508.007C648.757 507.967 648.776 507.928 648.796 507.889C648.951 507.577 649.125 507.28 649.315 506.998ZM680.531 523.313C680.502 523.377 680.473 523.441 680.442 523.505L675.567 533.726L685.113 540.659C685.129 540.671 685.145 540.683 685.162 540.695C685.269 534.68 683.717 528.645 680.531 523.313ZM666.849 569.467C666.146 569.211 665.467 568.854 664.832 568.393L660.522 565.262L657.028 572.588C660.416 572.059 663.733 571.017 666.849 569.467ZM624.377 559.176C624.468 558.918 624.573 558.662 624.694 558.41L631.486 544.171L618.935 535.055C618.768 534.934 618.607 534.807 618.452 534.677C617.105 543.122 619.105 551.973 624.377 559.176ZM637.653 509.855C633.748 511.593 630.122 514.104 627.018 517.38C623.217 521.392 620.632 526.093 619.247 531.045C619.595 531.662 620.08 532.218 620.694 532.665L632.785 541.447L645.231 515.359L637.653 509.855ZM671.649 566.549C672.294 566.079 672.925 565.582 673.54 565.06C673.561 565.034 673.581 565.007 673.6 564.98L673.617 564.957L682.776 552.361C683.779 549.894 684.466 547.332 684.838 544.737C684.488 544.092 683.99 543.512 683.353 543.049L674.267 536.45L661.822 562.538L666.592 566.003C668.12 567.112 670.056 567.258 671.649 566.549ZM678.183 519.893C677.07 518.472 675.825 517.121 674.449 515.856C673.789 515.25 673.111 514.676 672.417 514.132L660.26 508.076C658.131 507.51 655.959 507.155 653.777 507.008C652.821 507.463 652.008 508.224 651.503 509.237C651.485 509.274 651.485 509.274 651.467 509.311L649.019 514.443L673.078 531.918L677.714 522.201C678.068 521.457 678.217 520.667 678.183 519.893ZM653.484 572.955C653.536 572.864 653.586 572.772 653.633 572.678C653.651 572.641 653.651 572.641 653.669 572.604L658.034 563.454L633.975 545.979L627.423 559.714C627.025 560.548 626.886 561.44 626.973 562.303C627.543 562.909 628.139 563.5 628.763 564.073C635.723 570.466 644.693 573.403 653.484 572.955ZM671.779 534.642L647.72 517.167L635.274 543.255L659.333 560.73L671.779 534.642ZM686.482 572.522C668.547 591.545 638.379 592.539 619.098 574.742C599.817 556.945 598.726 527.097 616.661 508.074C634.595 489.052 664.764 488.058 684.044 505.854C703.325 523.651 704.416 553.499 686.482 572.522ZM561.125 526.795L571.515 592.899C563.183 588.204 557.461 579.992 556.02 570.662L552.869 550.259C551.518 541.51 554.606 532.733 561.125 526.795Z" fill="#BEA465"/>
<path fill-rule="evenodd" clip-rule="evenodd" d="M762.5 747.556L626.5 785.556L633 801.056L768 774.056C767.386 767.187 766.72 762.021 766 758.556C765.281 755.092 764.115 751.425 762.5 747.556Z" fill="#E0C37C"/>
<path fill-rule="evenodd" clip-rule="evenodd" d="M744 974.557C749.97 974.991 753.004 976.629 753.102 979.471C753.655 995.453 753.454 1006.15 752.5 1011.56C746.5 1045.56 744 1045.56 731 1048.56C706.098 1054.3 697.764 1042.64 706 1013.56L744 974.557Z" fill="#90F6C3"/>
<path fill-rule="evenodd" clip-rule="evenodd" d="M718.916 750.933L725.737 749.359C730.042 748.365 734.338 751.049 735.331 755.354L742.08 784.585C743.074 788.89 740.39 793.186 736.085 794.18L729.264 795.754C724.959 796.748 720.663 794.064 719.669 789.759L712.921 760.528C711.927 756.223 714.611 751.927 718.916 750.933ZM674.54 762.086L681.332 760.393C685.619 759.324 689.961 761.933 691.03 766.22L698.288 795.329C699.357 799.616 696.748 803.958 692.461 805.027L685.669 806.72C681.382 807.789 677.04 805.18 675.971 800.893L668.713 771.784C667.644 767.497 670.253 763.155 674.54 762.086ZM632.06 772.514L638.953 771.298C643.305 770.531 647.454 773.436 648.221 777.787L653.43 807.332C654.198 811.683 651.292 815.832 646.941 816.599L640.048 817.815C635.696 818.582 631.547 815.677 630.78 811.326L625.57 781.781C624.803 777.43 627.709 773.281 632.06 772.514Z" fill="#F6D890"/>
<path fill-rule="evenodd" clip-rule="evenodd" d="M725.424 766.397C722.67 766.205 720.593 763.815 720.785 761.061C720.978 758.306 723.367 756.229 726.122 756.422C728.877 756.614 730.954 759.004 730.761 761.758C730.568 764.513 728.179 766.59 725.424 766.397ZM681.317 777.434C678.56 777.29 676.441 774.937 676.586 772.18C676.73 769.422 679.083 767.304 681.841 767.448C684.598 767.593 686.717 769.945 686.572 772.703C686.428 775.461 684.075 777.579 681.317 777.434ZM637.75 788.297C635.009 787.961 633.06 785.466 633.396 782.725C633.733 779.984 636.228 778.035 638.968 778.372C641.709 778.708 643.658 781.203 643.322 783.944C642.985 786.685 640.491 788.634 637.75 788.297Z" fill="#BEA465"/>
<path fill-rule="evenodd" clip-rule="evenodd" d="M597 670.557C593.134 670.557 590 667.423 590 663.557C590 659.691 593.134 656.557 597 656.557C600.866 656.557 604 659.691 604 663.557C604 667.423 600.866 670.557 597 670.557ZM657 655.557C653.134 655.557 650 652.423 650 648.557C650 644.691 653.134 641.557 657 641.557C660.866 641.557 664 644.691 664 648.557C664 652.423 660.866 655.557 657 655.557ZM631 692.557C627.134 692.557 624 689.423 624 685.557C624 681.691 627.134 678.557 631 678.557C634.866 678.557 638 681.691 638 685.557C638 689.423 634.866 692.557 631 692.557Z" fill="#E0C37C"/>
<path fill-rule="evenodd" clip-rule="evenodd" d="M522.5 1099.56H624.5C626.985 1099.56 629 1101.57 629 1104.06C629 1106.54 626.985 1108.56 624.5 1108.56H507H487V1075.75C487 1071.55 489.916 1067.9 494.021 1066.97L522.5 1060.56V1099.56ZM837.508 1080.91C837.2 1081.16 836.855 1081.36 836.476 1081.52L772.041 1108.87C769.753 1109.85 767.111 1108.78 766.14 1106.49C765.782 1105.65 765.701 1104.76 765.856 1103.92L757.817 1083.47C754.313 1074.55 758.402 1064.46 767.121 1060.49L801.985 1044.65C805.738 1042.94 810.171 1044.01 812.743 1047.23L833.38 1073.08C833.611 1073.01 833.843 1072.96 834.076 1072.93L845.481 1058.84C847.045 1056.91 849.879 1056.61 851.81 1058.18C853.742 1059.74 854.04 1062.57 852.476 1064.51L840.519 1079.27C839.74 1080.23 838.647 1080.79 837.508 1080.91Z" fill="#E0C37C"/>
<path fill-rule="evenodd" clip-rule="evenodd" d="M1032 616.557C1026.48 616.557 1022 612.079 1022 606.557C1022 601.034 1026.48 596.557 1032 596.557C1037.52 596.557 1042 601.034 1042 606.557C1042 612.079 1037.52 616.557 1032 616.557ZM1058 686.557C1052.48 686.557 1048 682.079 1048 676.557C1048 671.034 1052.48 666.557 1058 666.557C1063.52 666.557 1068 671.034 1068 676.557C1068 682.079 1063.52 686.557 1058 686.557ZM1086 752.557C1080.48 752.557 1076 748.079 1076 742.557C1076 737.034 1080.48 732.557 1086 732.557C1091.52 732.557 1096 737.034 1096 742.557C1096 748.079 1091.52 752.557 1086 752.557Z" fill="#90F6C3"/>
<path d="M849.5 948.557C854.194 948.557 858 944.751 858 940.057C858 935.362 854.194 931.557 849.5 931.557C844.806 931.557 841 935.362 841 940.057C841 944.751 844.806 948.557 849.5 948.557Z" fill="#90F6C3"/>
<path d="M921.5 970.557C926.194 970.557 930 966.751 930 962.057C930 957.362 926.194 953.557 921.5 953.557C916.806 953.557 913 957.362 913 962.057C913 966.751 916.806 970.557 921.5 970.557Z" fill="#90F6C3"/>
<path opacity="0.591634" d="M1416.86 513.904L1423.31 514.811L1422.52 520.431L1427.36 521.111L1426.34 528.338L1421.51 527.658L1418.72 547.49L1412.27 546.583L1396.64 524.163L1397.65 516.936L1416.07 519.525L1416.86 513.904ZM1414.1 539.892L1415.91 527.019L1406 525.627L1414.1 539.892ZM1431.76 497.722C1430.06 509.808 1423.97 514.805 1414.36 513.454C1404.79 512.108 1400.35 505.633 1402.05 493.547C1403.74 481.504 1409.84 476.464 1419.37 477.804C1428.94 479.149 1433.45 485.68 1431.76 497.722ZM1425.31 496.318C1426.27 489.515 1423.52 485.968 1418.25 485.226C1413.01 484.491 1409.43 487.149 1408.48 493.952C1407.52 500.754 1410.19 504.29 1415.46 505.032C1420.78 505.779 1424.36 503.12 1425.31 496.318ZM1426.62 442.723L1433.07 443.63L1432.28 449.25L1437.12 449.93L1436.1 457.157L1431.26 456.477L1428.48 476.309L1422.03 475.402L1406.39 452.981L1407.41 445.755L1425.83 448.344L1426.62 442.723ZM1423.84 467.711L1425.65 454.838L1415.75 453.446L1423.84 467.711Z" fill="#62BE90"/>
</svg>
