<svg width="1840" height="1380" viewBox="0 0 1840 1380" fill="none" xmlns="http://www.w3.org/2000/svg"><path d="M401 1100.56c64.617 0 117-52.39 117-117.003 0-64.618-52.383-117-117-117-64.617 0-117 52.382-117 117 0 64.613 52.383 117.003 117 117.003z" fill="#CDFFE6"/><path fill-rule="evenodd" clip-rule="evenodd" d="M1409.84 1055.97c-5.24-8.84-10.84-19.89-16.81-33.15l-3.93 1.76a8.988 8.988 0 0 1-11.43-3.69 9.796 9.796 0 0 1 2.02-12.29l5.25-4.6c-9.82-23.769-20.52-52.942-32.12-87.52l66.5-253.424c-7.66 137.338-3.16 234.106 13.5 290.305 25 84.299 53 142.259 78 134.879 16.67-4.92 32 3.69 46 25.82h-46c-10.66 0-61.32-8.85-89.3-41.35l-6.42 2.87a8.988 8.988 0 0 1-11.43-3.69 9.796 9.796 0 0 1 2.02-12.29l4.15-3.63zM1257 692.556l16.82 113c-77.57 49.85-127.07 70.683-148.5 62.5-32.14-12.274-47.44-48.19-80-120.5-21.32-47.363-47.755-143.113-79.305-287.251a80.032 80.032 0 0 0-4.178-13.359c-7.907-19.199-4.078-26.662 11.487-22.39 25.5 7 126.916 311.805 166.846 323.227 26.62 7.615 65.56-10.794 116.83-55.227z" fill="#62BE90"/><mask id="a" mask-type="alpha" maskUnits="userSpaceOnUse" x="704" y="306" width="755" height="805"><path d="M777.723 527.153a33.909 33.909 0 0 0-4.723-1.097c-17.343-2.645-35.721-2.31-55.137 1.006a12.43 12.43 0 0 1-12.432-5.353 6.977 6.977 0 0 1 3.042-10.279c23.686-10.205 43.027-13.964 58.023-11.276 24.86 4.455 118.792 30.815 155.914 106.14 37.122 75.326 87.58 193.715 117.08 227.118 29.5 33.404 88.21 87.704 126.84 49.065 25.75-25.759 51.43-84.152 77.04-175.178l-89.75-256.433c-16.67-47.617 4.74-100.192 49.93-122.616 6.72-3.335 12.87-6.233 18.45-8.694 15.6-6.881 60.4-11.158 134.41-12.831 55.21-1.247 100.98 42.501 102.23 97.716a99.878 99.878 0 0 1-1.09 17.19l-35.99 238.304c-7.09 33.13-12.22 57.199-15.39 72.207-20.44 96.87-33.89 164.924-40.36 204.162-1.31 7.982-12.63 102.756-54.31 142.256s-148.42 46.55-247.45.23c-39.66-18.55-94.345-67.21-153.05-97.734-22.231-11.56-44.619-19.044-66.248-18.717-63.89.967-90.283 88.301-107.752 84.721-26-5.34-35-19-27-41 60.809-65.151 111.084-94.651 150.823-88.504 67.195 10.395 182.617 90.494 226.067 98.464 51.68 9.48 124.05 1.98 148.49-23.967 14.66-15.57 34.93-63.431 60.79-143.583l-.11-.037a1.89 1.89 0 0 0-1.22-2.366c-.89-.29-1.86.129-2.27.979-31.54 66.068-54.98 105.844-70.33 119.328-56.92 50.006-121.76 34.886-171.33 9.13-18.58-9.655-37.31-27.952-56.18-54.891l-6.632 2.964a8.98 8.98 0 0 1-11.426-3.683 9.794 9.794 0 0 1 2.013-12.292l4.732-4.146c-7.773-12.477-15.57-26.412-23.392-41.804l-5.58.992a8.979 8.979 0 0 1-10.195-6.338 9.793 9.793 0 0 1 4.926-11.44l2.076-1.068a864.063 864.063 0 0 1-4.856-10.386l-11.083-34.167-7.868 1.399a8.979 8.979 0 0 1-10.195-6.338 9.793 9.793 0 0 1 4.926-11.44l6.705-3.449-14.035-43.267-8.401 1.494a8.979 8.979 0 0 1-10.195-6.338 9.793 9.793 0 0 1 4.926-11.44l7.189-3.697-28.66-88.35a99.992 99.992 0 0 0-23.452-38.884 752.316 752.316 0 0 0-11.954-12.024l-6.996 5.098a8.98 8.98 0 0 1-11.942-1.226 9.795 9.795 0 0 1-.588-12.443l4.351-5.819c-12.094-11.015-22.772-19.554-32.035-25.616l-7.431 8.881a8.98 8.98 0 0 1-11.884 1.699 9.795 9.795 0 0 1-3.58-11.931l3.529-8.401z" fill="#fff"/></mask><g mask="url(#a)"><path d="M777.723 527.153a33.909 33.909 0 0 0-4.723-1.097c-17.343-2.645-35.721-2.31-55.137 1.006a12.43 12.43 0 0 1-12.432-5.353 6.977 6.977 0 0 1 3.042-10.279c23.686-10.205 43.027-13.964 58.023-11.276 24.86 4.455 118.792 30.815 155.914 106.14 37.122 75.326 87.58 193.715 117.08 227.118 29.5 33.404 88.21 87.704 126.84 49.065 25.75-25.759 51.43-84.152 77.04-175.178l-89.75-256.433c-16.67-47.617 4.74-100.192 49.93-122.616 6.72-3.335 12.87-6.233 18.45-8.694 15.6-6.881 60.4-11.158 134.41-12.831 55.21-1.247 100.98 42.501 102.23 97.716a99.878 99.878 0 0 1-1.09 17.19l-35.99 238.304c-7.09 33.13-12.22 57.199-15.39 72.207-20.44 96.87-33.89 164.924-40.36 204.162-1.31 7.982-12.63 102.756-54.31 142.256s-148.42 46.55-247.45.23c-39.66-18.55-94.345-67.21-153.05-97.734-22.231-11.56-44.619-19.044-66.248-18.717-63.89.967-90.283 88.301-107.752 84.721-26-5.34-35-19-27-41 60.809-65.151 111.084-94.651 150.823-88.504 67.195 10.395 182.617 90.494 226.067 98.464 51.68 9.48 124.05 1.98 148.49-23.967 14.66-15.57 34.93-63.431 60.79-143.583l-.11-.037a1.89 1.89 0 0 0-1.22-2.366c-.89-.29-1.86.129-2.27.979-31.54 66.068-54.98 105.844-70.33 119.328-56.92 50.006-121.76 34.886-171.33 9.13-18.58-9.655-37.31-27.952-56.18-54.891l-6.632 2.964a8.98 8.98 0 0 1-11.426-3.683 9.794 9.794 0 0 1 2.013-12.292l4.732-4.146c-7.773-12.477-15.57-26.412-23.392-41.804l-5.58.992a8.979 8.979 0 0 1-10.195-6.338 9.793 9.793 0 0 1 4.926-11.44l2.076-1.068a864.063 864.063 0 0 1-4.856-10.386l-11.083-34.167-7.868 1.399a8.979 8.979 0 0 1-10.195-6.338 9.793 9.793 0 0 1 4.926-11.44l6.705-3.449-14.035-43.267-8.401 1.494a8.979 8.979 0 0 1-10.195-6.338 9.793 9.793 0 0 1 4.926-11.44l7.189-3.697-28.66-88.35a99.992 99.992 0 0 0-23.452-38.884 752.316 752.316 0 0 0-11.954-12.024l-6.996 5.098a8.98 8.98 0 0 1-11.942-1.226 9.795 9.795 0 0 1-.588-12.443l4.351-5.819c-12.094-11.015-22.772-19.554-32.035-25.616l-7.431 8.881a8.98 8.98 0 0 1-11.884 1.699 9.795 9.795 0 0 1-3.58-11.931l3.529-8.401z" fill="#90F6C3"/><path fill-rule="evenodd" clip-rule="evenodd" d="m1202.12 387.961 3.13 8.346c8.49 22.663 33.74 34.153 56.41 25.663a43.834 43.834 0 0 0 20.2-15.447l10.84-15.075a5 5 0 0 1 8.47 5.275l-17.08 31.99c-10.55 19.76-3.09 44.332 16.67 54.883a40.602 40.602 0 0 0 21.49 4.711l25.83-1.52a5.001 5.001 0 0 1 1.65 9.806l-33.63 9.415c-20.84 5.837-33.01 27.47-27.18 48.318a39.27 39.27 0 0 0 12.58 19.481l41.09 34.424a5.001 5.001 0 0 1 .63 7.044 5.01 5.01 0 0 1-4.95 1.664l-25.77-5.882c-18.84-4.3-37.59 7.485-41.89 26.323a34.924 34.924 0 0 0-.8 10.243l2.34 33.161a5.002 5.002 0 0 1-9.5 2.506l-19.57-40.981c-3.45-7.225-12.11-10.285-19.33-6.835a14.5 14.5 0 0 0-8.25 13.083l-69-156v-53.5c13.68 10.61 33.38 8.118 43.99-5.567a31.339 31.339 0 0 0 5.81-26.107l-3.74-16.568a5.01 5.01 0 0 1 3.78-5.978 4.994 4.994 0 0 1 5.78 3.124zM924.823 1002.56l-186 29.5-44-53.003 53.5-46 99-41 283.997 121.503c-24.38 2.08-53.04-.09-86-6.5-32.95-6.42-73.118-7.919-120.497-4.5zM1332 559.557c-6.08 0-11-4.925-11-11s4.92-11 11-11c6.07 0 11 4.925 11 11s-4.93 11-11 11zm-17-101c-6.08 0-11-4.925-11-11s4.92-11 11-11c6.07 0 11 4.925 11 11s-4.93 11-11 11zm-70-58c-6.08 0-11-4.925-11-11s4.92-11 11-11c6.07 0 11 4.925 11 11s-4.93 11-11 11zm-79 22c-6.08 0-11-4.925-11-11s4.92-11 11-11c6.07 0 11 4.925 11 11s-4.93 11-11 11z" fill="#62BE90"/></g><path d="M741 762.557h-4a8 8 0 0 0-8 8v28a8 8 0 0 0 8 8h4a8 8 0 0 0 8-8v-28a8 8 0 0 0-8-8z" fill="#E0C37C"/><path d="M720.5 759.057h-7a8 8 0 0 0-8 8v37a8 8 0 0 0 8 8h7a8 8 0 0 0 8-8v-37a8 8 0 0 0-8-8z" fill="#D8D8D8" stroke="#979797"/><path fill-rule="evenodd" clip-rule="evenodd" d="M397.5 923.557h6a7 7 0 0 1 7 7v18h-20v-18a7 7 0 0 1 7-7zm-18.889 84.003 43.75.1 12.639 28c-15.111 1.15-26.611 1.72-34.5 1.72-7.889 0-19.722-.57-35.5-1.72l13.611-28.1z" fill="#F6D890"/><path d="M1027.34 297.109c.31-8.355.3-14.539-.02-18.552-.2-2.528-.27-5.917-.23-10.168.01-.78.47-1.484 1.19-1.803a1.997 1.997 0 0 1 2.64 1.009l1.99 4.439c.3.674.78 1.251 1.39 1.668a4 4 0 0 0 5.56-1.042l4.64-6.789a2.006 2.006 0 0 1 1.83-.863 2.01 2.01 0 0 1 1.82 2.169l-.79 8.801c-.04.547.02 1.098.19 1.619a4.004 4.004 0 0 0 5.06 2.53l4.52-1.505c.63-.21 1.32-.093 1.85.311a2.01 2.01 0 0 1 .37 2.805l-15.83 20.605-71.575 199.609a51.5 51.5 0 0 1-12.373 19.34c-20.282 19.941-52.888 19.664-72.829-.618l-18.942-19.267a30.957 30.957 0 0 0-.575-.571c-13.673-13.27-35.515-12.943-48.784.731L701.1 622.476l-12.2-11.839 117.342-120.91c19.809-20.411 52.413-20.899 72.824-1.09.289.28.575.564.857.852l18.943 19.266c13.358 13.587 35.201 13.773 48.788.415a34.488 34.488 0 0 0 8.288-12.956l71.398-199.105zM575.027 614.855a8.5 8.5 0 0 1 12.017.278 8.498 8.498 0 0 1-.278 12.017l-69.001 65.881c-11.993 11.451-12.433 30.456-.982 42.449a30.354 30.354 0 0 0 1.957 1.873c15.107 13.204 37.589 13.41 52.936.486l129.245-108.838a8.5 8.5 0 0 1 11.977 1.027 8.499 8.499 0 0 1-1.026 11.976L582.626 750.843c-21.765 18.328-53.648 18.035-75.073-.69a47.175 47.175 0 0 1-3.066-2.934c-17.934-18.784-17.245-48.549 1.539-66.484l69.001-65.88z" fill="#BEA465"/><path d="M400.5 828.557c14.083 0 25.5 11.416 25.5 25.5v94.5a8 8 0 0 1-8 8h-35a8 8 0 0 1-8-8v-94.5c0-14.084 11.417-25.5 25.5-25.5zm14.5 25.5c0-8.008-6.492-14.5-14.5-14.5s-14.5 6.492-14.5 14.5v91.5h29v-91.5zM367.432 1033.4c11.248 2.32 22.271 3.48 33.068 3.48a150.6 150.6 0 0 0 32.076-3.46 2.003 2.003 0 0 1 2.424 1.96v.51c0 1.17-.813 2.18-1.956 2.44-10.618 2.36-21.465 3.55-32.544 3.55-11.107 0-22.28-1.19-33.518-3.57a2.51 2.51 0 0 1-1.982-2.45v-.48c0-1.12.906-2.03 2.023-2.03.137 0 .274.02.409.05z" fill="#E0C37C"/><path fill-rule="evenodd" clip-rule="evenodd" d="M387 944.557h27c13.255 0 24 10.745 24 24v24.47c0 12.103-9.018 22.323-21.032 23.813-6.491.81-11.814 1.22-15.968 1.22-4.301 0-9.952-.44-16.951-1.3-12.022-1.49-21.049-11.71-21.049-23.822v-24.381c0-13.255 10.745-24 24-24z" fill="#62BE90"/><path fill-rule="evenodd" clip-rule="evenodd" d="M382.5 960.165a5.5 5.5 0 0 1 5.5 5.5v31a5.496 5.496 0 0 1-5.5 5.495 5.496 5.496 0 0 1-5.5-5.495v-31a5.5 5.5 0 0 1 5.5-5.5zm18-2.392a5.5 5.5 0 0 1 5.5 5.5v36a5.498 5.498 0 0 1-5.5 5.497c-3.038 0-5.5-2.46-5.5-5.497v-36a5.5 5.5 0 0 1 5.5-5.5zm18 2.392a5.5 5.5 0 0 1 5.5 5.5v31a5.496 5.496 0 0 1-5.5 5.495 5.496 5.496 0 0 1-5.5-5.495v-31a5.5 5.5 0 0 1 5.5-5.5z" fill="#90F6C3"/><path fill-rule="evenodd" clip-rule="evenodd" d="M1212.68 424.557c37.53 31.825 58.99 59.825 64.4 84 5.4 24.174-1.75 60.174-21.47 108-38.19-31.549-59.91-59.049-65.16-82.5-5.24-23.452 2.17-59.952 22.23-109.5z" fill="#fff"/><path fill-rule="evenodd" clip-rule="evenodd" d="m1213.29 494.907 3.66-.699c1.89-.36 3.71.871 4.09 2.758l12.1 61.122a3.507 3.507 0 0 1-2.75 4.114l-.03.004-3.66.699a3.498 3.498 0 0 1-4.09-2.758l-12.1-61.122a3.499 3.499 0 0 1 2.75-4.113l.03-.005z" fill="#737373"/><path fill-rule="evenodd" clip-rule="evenodd" d="M961.184 420.423c21.93-9.291 35.809-8.413 41.636 2.634 2.35 4.446 13.24 23.348 9.5 24.5-3.42 1.053-34.997-16.5-41.497-16.5-4.333 0-5.333 11-3 33-6.836-15.594-11.002-26.094-12.5-31.5a10.217 10.217 0 0 1 5.861-12.134z" fill="#90F6C3"/><mask id="b" mask-type="alpha" maskUnits="userSpaceOnUse" x="444" y="598" width="467" height="511"><path d="m615.6 684.09 94.84-37.685-12.94-29.848 54.751 4.522c9.323.77 18.707.228 27.879-1.61l104.37-20.912 26.5 58.5-35 25.5c-22.667 16.333-50.667 24.5-84 24.5-16.045 0-28.769-.309-38.172-.927L768 774.057l-141.5 11.282-17.18-33.039c-12.268 11.732-22.541 19.984-30.82 24.757-20.693 11.928-48.578 20.893-55.151 23.709-10.566 4.527-24.182 11.124-40.849 19.791l-38-46 27-22 47-31.5 33.189-46.457a100.001 100.001 0 0 1 26.925-25.749L621 621.339l-5.4 62.751zm21.03 113.483L768 774.057c3.226 23.847 3.726 50.681 1.5 80.5-2.226 29.819-3.726 56.985-4.5 81.5 5.667 13.666 12 25.5 19 35.5s12.833 19.166 17.5 27.5l47.5 67.003-10.5 13.5-69 29-1.5-18.5-3-11.5-68.366-99.372a100.01 100.01 0 0 1-17.615-56.743l.037-58.421L618 941.057c4.453 19.683 7.12 34.85 8 45.5.88 10.65.363 21.473-1.554 32.483l1.752 21.18v68.09H487l.067-15.58c.06-14.14 9.98-26.31 23.812-29.23l35.065-7.39-3.074-33.3c-3.622-11.46-5.912-22.37-6.87-32.753-.636-6.894-1.614-23.622-2.934-50.186a100 100 0 0 1 33.285-79.565l70.279-62.733z" fill="#fff"/></mask><g mask="url(#b)"><path d="m615.6 684.09 94.84-37.685-12.94-29.848 54.751 4.522c9.323.77 18.707.228 27.879-1.61l104.37-20.912 26.5 58.5-35 25.5c-22.667 16.333-50.667 24.5-84 24.5-16.045 0-28.769-.309-38.172-.927L768 774.057l-141.5 11.282-17.18-33.039c-12.268 11.732-22.541 19.984-30.82 24.757-20.693 11.928-48.578 20.893-55.151 23.709-10.566 4.527-24.182 11.124-40.849 19.791l-38-46 27-22 47-31.5 33.189-46.457a100.001 100.001 0 0 1 26.925-25.749L621 621.339l-5.4 62.751zm21.03 113.483L768 774.057c3.226 23.847 3.726 50.681 1.5 80.5-2.226 29.819-3.726 56.985-4.5 81.5 5.667 13.666 12 25.5 19 35.5s12.833 19.166 17.5 27.5l47.5 67.003-10.5 13.5-69 29-1.5-18.5-3-11.5-68.366-99.372a100.01 100.01 0 0 1-17.615-56.743l.037-58.421L618 941.057c4.453 19.683 7.12 34.85 8 45.5.88 10.65.363 21.473-1.554 32.483l1.752 21.18v68.09H487l.067-15.58c.06-14.14 9.98-26.31 23.812-29.23l35.065-7.39-3.074-33.3c-3.622-11.46-5.912-22.37-6.87-32.753-.636-6.894-1.614-23.622-2.934-50.186a100 100 0 0 1 33.285-79.565l70.279-62.733z" fill="#E8E5DE"/><path fill-rule="evenodd" clip-rule="evenodd" d="m538 1022.56 93-4.5v93.5l-132.5 2.5 14-53.5 31-12.5-5.5-25.5zm266.5-28.503 68 95.003c-75.667 17-114.167 25.5-115.5 25.5-1.333 0-10-28.84-26-86.5l73.5-34.003z" fill="#737373"/></g><path fill-rule="evenodd" clip-rule="evenodd" d="m584.5 600.557-16.16 18.852a4 4 0 0 0-.429 4.599l6.171 10.718a3.998 3.998 0 0 0 5.322 1.547L597 627.057l-12.5-26.5zm322.933 68.522-29.314-73.051c6.854-6.099 12.2-9.689 16.037-10.767 7.752-2.178 17.809 1.666 22.282-.844 11.692-6.561 7.369-16.266 36.003-29.981 28.634-13.714 32.695-14.954 54.469-13.352 16.41 1.207 17.95 9.693 2.2 21.673-5.15 3.921-32.027 16.156-34.641 18.164-7.07 5.429-11.037 11.887-11.901 19.374l23.608-4.9a6.476 6.476 0 0 1 7.547 4.581 8.088 8.088 0 0 1-3.509 9.062c-18.327 11.41-32.786 18.424-43.378 21.042-3.453.854-7.046 2.612-10.78 5.274-3.228 2.302-2.801 12.242-8.282 18.856-2.964 3.577-9.744 8.533-20.341 14.869zM493.5 815.557c-5.59 6.44-10.424 10.773-14.5 13-7.539 4.118-12.124-1.729-15 1-3.326 3.157-7.865 9.178-9 12.5-4.667 13.667-14.333 22.833-29 27.5v-15.5l-.938-6.048c-1.296-4.581-3.483-2.565-6.562 6.048-1.273 3.562-2.5 8.5-3.5 15.5-.781 5.468-20.5 6.5-33 2-7.09-2.553-5.667-12.402-7-17.5-1.78-6.807-3.843-10.164 6.979-24.739 12.617-16.994 24.717-26.868 36.299-29.621 5.058-2.226 8.799-4.772 11.222-7.64 2.701-3.196 3.458-9.434 5-12.5 1.791-3.561 6.624-8.061 14.5-13.5l44.5 49.5z" fill="#737373"/><mask id="c" mask-type="alpha" maskUnits="userSpaceOnUse" x="560" y="470" width="181" height="250"><path d="M584.021 642.906c-11.996-41.393-18.503-69.176-19.521-83.349-.111-1.539-.461-3.259-1.05-5.161-10.353-33.406 7.719-68.991 40.8-80.339a65.015 65.015 0 0 1 14.305-3.163c35.724-3.755 67.727 22.161 71.482 57.884l8.469 80.577 6.781-1.423c4.616.076 8.164.341 10.645.795 2.48.454 6.246 1.527 11.297 3.22 5.41.394 9.133 1.305 11.166 2.734 2.034 1.429 2.599 3.529 1.696 6.301l-7.786 2.078c-5.932 3.133-9.952 6.284-12.06 9.453-16.013 24.068-26.47 46.278-35.725 55.25-16.626 16.115-23.393 25.869-49.841 29.925-26.448 4.055-33.455 1.655-50.836-14.487-11.587-10.761-17.702-25.976-18.343-45.644 7.928-5.764 13.628-10.18 17.102-13.248.509-.45.982-.917 1.419-1.403z" fill="#fff"/></mask><g mask="url(#c)"><path d="M584.021 642.906c-11.996-41.393-18.503-69.176-19.521-83.349-.111-1.539-.461-3.259-1.05-5.161-10.353-33.406 7.719-68.991 40.8-80.339a65.015 65.015 0 0 1 14.305-3.163c35.724-3.755 67.727 22.161 71.482 57.884l8.469 80.577 6.781-1.423c4.616.076 8.164.341 10.645.795 2.48.454 6.246 1.527 11.297 3.22 5.41.394 9.133 1.305 11.166 2.734 2.034 1.429 2.599 3.529 1.696 6.301l-7.786 2.078c-5.932 3.133-9.952 6.284-12.06 9.453-16.013 24.068-26.47 46.278-35.725 55.25-16.626 16.115-23.393 25.869-49.841 29.925-26.448 4.055-33.455 1.655-50.836-14.487-11.587-10.761-17.702-25.976-18.343-45.644 7.928-5.764 13.628-10.18 17.102-13.248.509-.45.982-.917 1.419-1.403z" fill="#F6D890"/><path fill-rule="evenodd" clip-rule="evenodd" d="M727.099 611.462c-7.984 1.264-14.081 4.45-18.291 9.556-12.976 15.741-23.485 46.507-33.744 56.8-22.877 22.954-26.744 22.722-42.315 26.878-15.572 4.155-28.344-1.231-38.305-10.558-6.642-6.218-12.512-20.929-17.611-44.134l-14.333 9.053 7.056 27.713 24.329 35.155 63.171-.465 18.167-17.702 77.064-89.826-25.188-2.47z" fill="#E0C37C"/></g><path fill-rule="evenodd" clip-rule="evenodd" d="M667.757 571.901c-16.636 8.591-37.176 1.523-45.878-15.788-8.702-17.311-2.271-38.309 14.364-46.901 16.636-8.591 37.176-1.522 45.878 15.789 8.702 17.311 2.271 38.309-14.364 46.9z" fill="#737373"/><path d="M649.315 506.998a34.065 34.065 0 0 0-8.357 1.589l5.572 4.048 2.208-4.628.058-.118c.155-.312.329-.609.519-.891zm31.216 16.315c-.029.064-.058.128-.089.192l-4.875 10.221 9.546 6.933.049.036a32.75 32.75 0 0 0-4.631-17.382zm-13.682 46.154a8.214 8.214 0 0 1-2.017-1.074l-4.31-3.131-3.494 7.326a33.736 33.736 0 0 0 9.821-3.121zm-42.472-10.291c.091-.258.196-.514.317-.766l6.792-14.239-12.551-9.116a8.66 8.66 0 0 1-.483-.378 32.745 32.745 0 0 0 5.925 24.499zm13.276-49.321a33.245 33.245 0 0 0-10.635 7.525c-3.801 4.012-6.386 8.713-7.771 13.665a5.104 5.104 0 0 0 1.447 1.62l12.091 8.782 12.446-26.088-7.578-5.504zm33.996 56.694c.645-.47 1.276-.967 1.891-1.489.021-.026.041-.053.06-.08l.017-.023 9.159-12.596a32.48 32.48 0 0 0 2.062-7.624 5.08 5.08 0 0 0-1.485-1.688l-9.086-6.599-12.445 26.088 4.77 3.465a5.091 5.091 0 0 0 5.057.546zm6.534-46.656a33.766 33.766 0 0 0-5.766-5.761l-12.157-6.056a34.175 34.175 0 0 0-6.483-1.068 4.865 4.865 0 0 0-2.274 2.229l-.036.074-2.448 5.132 24.059 17.475 4.636-9.717a4.859 4.859 0 0 0 .469-2.308zm-24.699 53.062c.052-.091.102-.183.149-.277l.036-.074 4.365-9.15-24.059-17.475-6.552 13.735a4.857 4.857 0 0 0-.45 2.589c.57.606 1.166 1.197 1.79 1.77 6.96 6.393 15.93 9.33 24.721 8.882zm18.295-38.313-24.059-17.475-12.446 26.088 24.059 17.475 12.446-26.088zm14.703 37.88c-17.935 19.023-48.103 20.017-67.384 2.22s-20.372-47.645-2.437-66.668c17.934-19.022 48.103-20.016 67.383-2.22 19.281 17.797 20.372 47.645 2.438 66.668zm-125.357-45.727 10.39 66.104c-8.332-4.695-14.054-12.907-15.495-22.237l-3.151-20.403c-1.351-8.749 1.737-17.526 8.256-23.464z" fill="#BEA465"/><path fill-rule="evenodd" clip-rule="evenodd" d="m762.5 747.556-136 38 6.5 15.5 135-27c-.614-6.869-1.28-12.035-2-15.5-.719-3.464-1.885-7.131-3.5-11z" fill="#E0C37C"/><path fill-rule="evenodd" clip-rule="evenodd" d="M744 974.557c5.97.434 9.004 2.072 9.102 4.914.553 15.982.352 26.679-.602 32.089-6 34-8.5 34-21.5 37-24.902 5.74-33.236-5.92-25-35l38-39.003z" fill="#90F6C3"/><path fill-rule="evenodd" clip-rule="evenodd" d="m718.916 750.933 6.821-1.574a7.999 7.999 0 0 1 9.594 5.995l6.749 29.231a8 8 0 0 1-5.995 9.595l-6.821 1.574a8 8 0 0 1-9.595-5.995l-6.748-29.231a8 8 0 0 1 5.995-9.595zm-44.376 11.153 6.792-1.693a8 8 0 0 1 9.698 5.827l7.258 29.109a8 8 0 0 1-5.827 9.698l-6.792 1.693a8 8 0 0 1-9.698-5.827l-7.258-29.109a8 8 0 0 1 5.827-9.698zm-42.48 10.428 6.893-1.216a8 8 0 0 1 9.268 6.489l5.209 29.545a7.999 7.999 0 0 1-6.489 9.267l-6.893 1.216a8 8 0 0 1-9.268-6.489l-5.21-29.545a8 8 0 0 1 6.49-9.267z" fill="#F6D890"/><path fill-rule="evenodd" clip-rule="evenodd" d="M725.424 766.397a5 5 0 1 1 .699-9.976 5 5 0 0 1-.699 9.976zm-44.107 11.037a5 5 0 1 1 .524-9.986 5 5 0 0 1-.524 9.986zm-43.567 10.863a5 5 0 1 1 1.218-9.926 5 5 0 0 1-1.218 9.926z" fill="#BEA465"/><path fill-rule="evenodd" clip-rule="evenodd" d="M597 670.557a7 7 0 1 1 0-14 7 7 0 0 1 0 14zm60-15a7 7 0 1 1 0-14 7 7 0 0 1 0 14zm-26 37a7 7 0 1 1 0-14 7 7 0 0 1 0 14zM522.5 1099.56h102c2.485 0 4.5 2.01 4.5 4.5 0 2.48-2.015 4.5-4.5 4.5H487v-32.81c0-4.2 2.916-7.85 7.021-8.78l28.479-6.41v39zm315.008-18.65c-.308.25-.653.45-1.032.61l-64.435 27.35a4.49 4.49 0 0 1-5.901-2.38 4.465 4.465 0 0 1-.284-2.57l-8.039-20.45c-3.504-8.92.585-19.01 9.304-22.98l34.864-15.84a8.998 8.998 0 0 1 10.758 2.58l20.637 25.85c.231-.07.463-.12.696-.15l11.405-14.09a4.495 4.495 0 0 1 6.329-.66 4.5 4.5 0 0 1 .666 6.33l-11.957 14.76a4.476 4.476 0 0 1-3.011 1.64z" fill="#E0C37C"/><path fill-rule="evenodd" clip-rule="evenodd" d="M1032 616.557c-5.52 0-10-4.478-10-10 0-5.523 4.48-10 10-10s10 4.477 10 10c0 5.522-4.48 10-10 10zm26 70c-5.52 0-10-4.478-10-10 0-5.523 4.48-10 10-10s10 4.477 10 10c0 5.522-4.48 10-10 10zm28 66c-5.52 0-10-4.478-10-10 0-5.523 4.48-10 10-10s10 4.477 10 10c0 5.522-4.48 10-10 10z" fill="#90F6C3"/><path d="M849.5 948.557a8.5 8.5 0 1 0-.001-17.001 8.5 8.5 0 0 0 .001 17.001zm72 22a8.5 8.5 0 1 0-.001-17.001 8.5 8.5 0 0 0 .001 17.001z" fill="#90F6C3"/><path opacity=".592" d="m1416.86 513.904 6.45.907-.79 5.62 4.84.68-1.02 7.227-4.83-.68-2.79 19.832-6.45-.907-15.63-22.42 1.01-7.227 18.42 2.589.79-5.621zm-2.76 25.988 1.81-12.873-9.91-1.392 8.1 14.265zm17.66-42.17c-1.7 12.086-7.79 17.083-17.4 15.732-9.57-1.346-14.01-7.821-12.31-19.907 1.69-12.043 7.79-17.083 17.32-15.743 9.57 1.345 14.08 7.876 12.39 19.918zm-6.45-1.404c.96-6.803-1.79-10.35-7.06-11.092-5.24-.735-8.82 1.923-9.77 8.726-.96 6.802 1.71 10.338 6.98 11.08 5.32.747 8.9-1.912 9.85-8.714zm1.31-53.595 6.45.907-.79 5.62 4.84.68-1.02 7.227-4.84-.68-2.78 19.832-6.45-.907-15.64-22.421 1.02-7.226 18.42 2.589.79-5.621zm-2.78 24.988 1.81-12.873-9.9-1.392 8.09 14.265z" fill="#62BE90"/></svg>