<svg width="1840" height="1380" viewBox="0 0 1840 1380" fill="none" xmlns="http://www.w3.org/2000/svg">
<mask id="mask0" mask-type="alpha" maskUnits="userSpaceOnUse" x="696" y="510" width="506" height="606">
<path d="M895.728 510.502L889.049 523.28C885.865 529.372 883.873 536.016 883.18 542.855L880.228 572.002L713.124 737.402C695.834 754.515 691.311 780.715 701.862 802.635L819.728 1047.5C791.079 1056.03 771.913 1065.19 762.228 1075C752.544 1084.81 749.711 1097.92 753.728 1114.34L872.228 1114.5L884.228 1077L888.299 1056.84C888.955 1053.59 892.12 1051.49 895.368 1052.15C897.337 1052.54 898.976 1053.9 899.735 1055.76L923.728 1114.5H946.728L927.728 1026.5C921.805 1011.39 916.805 999.891 912.728 992.002C908.651 984.112 902.995 974.991 895.76 964.638L798.228 777.502L938.228 598.002L1067.73 1057.5C1040.17 1062.41 1022.67 1069.07 1015.23 1077.5C1007.78 1085.93 1006.28 1098.6 1010.73 1115.5H1151.73L1148.65 1057.56C1148.56 1055.91 1149.83 1054.5 1151.48 1054.41C1152.75 1054.34 1153.92 1055.08 1154.41 1056.25L1179.23 1115.5H1201.23C1188.33 1070.14 1179.99 1041.14 1176.23 1028.5C1170.3 1008.61 1147.73 978.502 1151.73 992.002C1151.73 992.002 1135.31 930.648 1105.23 851.002C1095.49 825.226 1078.6 794.831 1067.87 767.52C1049.17 719.965 1026.5 662.288 999.849 594.487C995.047 582.271 996.976 559.992 988.228 537.738C985.736 531.398 978.736 522.653 967.228 511.502L895.728 510.502Z" fill="white"/>
</mask>
<g mask="url(#mask0)">
<path d="M895.728 510.502L889.049 523.28C885.865 529.372 883.873 536.016 883.18 542.855L880.228 572.002L713.124 737.402C695.834 754.515 691.311 780.715 701.862 802.635L819.728 1047.5C791.079 1056.03 771.913 1065.19 762.228 1075C752.544 1084.81 749.711 1097.92 753.728 1114.34L872.228 1114.5L884.228 1077L888.299 1056.84C888.955 1053.59 892.12 1051.49 895.368 1052.15C897.337 1052.54 898.976 1053.9 899.735 1055.76L923.728 1114.5H946.728L927.728 1026.5C921.805 1011.39 916.805 999.891 912.728 992.002C908.651 984.112 902.995 974.991 895.76 964.638L798.228 777.502L938.228 598.002L1067.73 1057.5C1040.17 1062.41 1022.67 1069.07 1015.23 1077.5C1007.78 1085.93 1006.28 1098.6 1010.73 1115.5H1151.73L1148.65 1057.56C1148.56 1055.91 1149.83 1054.5 1151.48 1054.41C1152.75 1054.34 1153.92 1055.08 1154.41 1056.25L1179.23 1115.5H1201.23C1188.33 1070.14 1179.99 1041.14 1176.23 1028.5C1170.3 1008.61 1147.73 978.502 1151.73 992.002C1151.73 992.002 1135.31 930.648 1105.23 851.002C1095.49 825.226 1078.6 794.831 1067.87 767.52C1049.17 719.965 1026.5 662.288 999.849 594.487C995.047 582.271 996.976 559.992 988.228 537.738C985.736 531.398 978.736 522.653 967.228 511.502L895.728 510.502Z" fill="#FF567B"/>
<path fill-rule="evenodd" clip-rule="evenodd" d="M787.729 991.502L917.229 959.002L976.229 1122.5H741.229L787.729 991.502Z" fill="#002D6F"/>
<path fill-rule="evenodd" clip-rule="evenodd" d="M1033.73 978.502L1161.73 990.502L1230.23 1150.5H995.229L1033.73 978.502Z" fill="#002D6F"/>
</g>
<mask id="mask1" mask-type="alpha" maskUnits="userSpaceOnUse" x="591" y="333" width="624" height="374">
<path d="M869.228 383.502L660.228 333.002L591.228 540.002L684.228 546.002L718.728 425.502L880.228 448.002L891.228 510.559H967.228L975.228 432.502L1129.23 684.502L1201.23 706.502L1214.23 684.502L1158.23 524.002L1001.73 377.502C971.712 385.221 950.045 388.74 936.728 388.059C903.395 386.354 880.895 384.835 869.228 383.502Z" fill="white"/>
</mask>
<g mask="url(#mask1)">
<path d="M869.228 383.502L660.228 333.002L591.228 540.002L684.228 546.002L718.728 425.502L880.228 448.002L891.228 510.559H967.228L975.228 432.502L1129.23 684.502L1201.23 706.502L1214.23 684.502L1158.23 524.002L1001.73 377.502C971.712 385.221 950.045 388.74 936.728 388.059C903.395 386.354 880.895 384.835 869.228 383.502Z" fill="#FFE694"/>
<path d="M980.553 455.754C980.001 455.83 979.503 455.452 979.439 454.909C979.376 454.367 979.771 453.866 980.323 453.79L986.89 452.887C987.441 452.812 987.94 453.19 988.004 453.732C988.067 454.275 987.672 454.776 987.12 454.852L980.553 455.754ZM980.804 445.4C980.253 445.475 979.754 445.097 979.69 444.555C979.627 444.012 980.022 443.511 980.574 443.435L987.141 442.533C987.693 442.457 988.191 442.835 988.255 443.378C988.318 443.92 987.923 444.421 987.371 444.497L980.804 445.4ZM1007.79 451.86C1007.24 451.935 1006.74 451.557 1006.68 451.015C1006.61 450.472 1007.01 449.971 1007.56 449.895L1014.13 448.993C1014.68 448.917 1015.18 449.295 1015.24 449.838C1015.31 450.38 1014.91 450.882 1014.36 450.957L1007.79 451.86ZM1008.04 441.505C1007.49 441.581 1006.99 441.202 1006.93 440.66C1006.87 440.117 1007.26 439.616 1007.81 439.54L1014.38 438.638C1014.93 438.562 1015.43 438.941 1015.49 439.483C1015.56 440.026 1015.16 440.527 1014.61 440.603L1008.04 441.505ZM993.896 454.411C993.351 454.528 992.823 454.189 992.718 453.654C992.613 453.118 992.97 452.59 993.515 452.473L999.949 451.096C1000.49 450.979 1001.02 451.318 1001.13 451.854C1001.23 452.389 1000.88 452.917 1000.33 453.034L993.896 454.411ZM994.147 444.057C993.602 444.173 993.075 443.834 992.969 443.299C992.864 442.764 993.221 442.235 993.766 442.118L1000.2 440.741C1000.75 440.624 1001.27 440.964 1001.38 441.499C1001.48 442.034 1001.13 442.562 1000.58 442.679L994.147 444.057ZM1021.13 450.517C1020.59 450.633 1020.06 450.294 1019.96 449.759C1019.85 449.224 1020.21 448.695 1020.75 448.579L1027.19 447.201C1027.73 447.085 1028.26 447.424 1028.37 447.959C1028.47 448.494 1028.11 449.023 1027.57 449.139L1021.13 450.517ZM1021.39 440.162C1020.84 440.279 1020.31 439.939 1020.21 439.404C1020.1 438.869 1020.46 438.341 1021 438.224L1027.44 436.847C1027.98 436.73 1028.51 437.069 1028.62 437.604C1028.72 438.139 1028.37 438.668 1027.82 438.785L1021.39 440.162ZM1035.03 447.965C1034.48 448.041 1033.98 447.663 1033.92 447.12C1033.85 446.578 1034.25 446.076 1034.8 446.001L1041.37 445.098C1041.92 445.022 1042.42 445.401 1042.48 445.943C1042.54 446.486 1042.15 446.987 1041.6 447.063L1035.03 447.965ZM1035.28 437.61C1034.73 437.686 1034.23 437.308 1034.17 436.765C1034.1 436.223 1034.5 435.722 1035.05 435.646L1041.62 434.744C1042.17 434.668 1042.67 435.046 1042.73 435.589C1042.8 436.131 1042.4 436.632 1041.85 436.708L1035.28 437.61ZM1048.37 446.622C1047.83 446.739 1047.3 446.4 1047.2 445.864C1047.09 445.329 1047.45 444.801 1047.99 444.684L1054.43 443.307C1054.97 443.19 1055.5 443.529 1055.6 444.064C1055.71 444.6 1055.35 445.128 1054.81 445.245L1048.37 446.622ZM1048.62 436.267C1048.08 436.384 1047.55 436.045 1047.45 435.51C1047.34 434.974 1047.7 434.446 1048.24 434.329L1054.68 432.952C1055.22 432.835 1055.75 433.175 1055.86 433.71C1055.96 434.245 1055.6 434.773 1055.06 434.89L1048.62 436.267ZM981.055 435.045C980.504 435.121 980.005 434.742 979.942 434.2C979.878 433.657 980.273 433.156 980.825 433.08L987.392 432.178C987.944 432.102 988.442 432.48 988.506 433.023C988.57 433.565 988.174 434.067 987.623 434.142L981.055 435.045ZM1008.29 431.15C1007.74 431.226 1007.24 430.848 1007.18 430.305C1007.12 429.763 1007.51 429.262 1008.06 429.186L1014.63 428.283C1015.18 428.208 1015.68 428.586 1015.74 429.128C1015.81 429.671 1015.41 430.172 1014.86 430.248L1008.29 431.15ZM994.398 433.702C993.853 433.818 993.326 433.479 993.221 432.944C993.115 432.409 993.472 431.88 994.017 431.764L1000.45 430.386C1001 430.27 1001.52 430.609 1001.63 431.144C1001.73 431.679 1001.38 432.208 1000.83 432.324L994.398 433.702ZM1021.64 429.807C1021.09 429.924 1020.56 429.585 1020.46 429.049C1020.35 428.514 1020.71 427.986 1021.26 427.869L1027.69 426.492C1028.24 426.375 1028.76 426.714 1028.87 427.25C1028.97 427.785 1028.62 428.313 1028.07 428.43L1021.64 429.807ZM1035.53 427.256C1034.98 427.332 1034.48 426.953 1034.42 426.411C1034.36 425.868 1034.75 425.367 1035.3 425.291L1041.87 424.389C1042.42 424.313 1042.92 424.691 1042.98 425.234C1043.05 425.776 1042.65 426.278 1042.1 426.353L1035.53 427.256ZM1048.88 425.913C1048.33 426.029 1047.8 425.69 1047.7 425.155C1047.59 424.62 1047.95 424.091 1048.49 423.975L1054.93 422.597C1055.47 422.481 1056 422.82 1056.11 423.355C1056.21 423.89 1055.86 424.419 1055.31 424.535L1048.88 425.913ZM981.307 424.69C980.755 424.766 980.256 424.388 980.193 423.845C980.129 423.303 980.525 422.801 981.076 422.726L987.643 421.823C988.195 421.747 988.694 422.126 988.757 422.668C988.821 423.211 988.425 423.712 987.874 423.788L981.307 424.69ZM1008.55 420.796C1007.99 420.871 1007.5 420.493 1007.43 419.951C1007.37 419.408 1007.76 418.907 1008.31 418.831L1014.88 417.929C1015.43 417.853 1015.93 418.231 1016 418.774C1016.06 419.316 1015.66 419.817 1015.11 419.893L1008.55 420.796ZM994.649 423.347C994.104 423.464 993.577 423.125 993.472 422.589C993.367 422.054 993.723 421.526 994.268 421.409L1000.7 420.032C1001.25 419.915 1001.77 420.254 1001.88 420.789C1001.99 421.325 1001.63 421.853 1001.08 421.97L994.649 423.347ZM1021.89 419.453C1021.34 419.569 1020.82 419.23 1020.71 418.695C1020.61 418.16 1020.96 417.631 1021.51 417.514L1027.94 416.137C1028.49 416.02 1029.01 416.36 1029.12 416.895C1029.22 417.43 1028.87 417.958 1028.32 418.075L1021.89 419.453ZM1035.78 416.901C1035.23 416.977 1034.73 416.598 1034.67 416.056C1034.61 415.513 1035 415.012 1035.55 414.936L1042.12 414.034C1042.67 413.958 1043.17 414.337 1043.23 414.879C1043.3 415.422 1042.9 415.923 1042.35 415.999L1035.78 416.901ZM1049.13 415.558C1048.58 415.675 1048.05 415.335 1047.95 414.8C1047.84 414.265 1048.2 413.737 1048.75 413.62L1055.18 412.243C1055.73 412.126 1056.25 412.465 1056.36 413C1056.46 413.535 1056.11 414.064 1055.56 414.181L1049.13 415.558ZM981.558 414.335C981.006 414.411 980.508 414.033 980.444 413.49C980.38 412.948 980.776 412.447 981.327 412.371L987.895 411.468C988.446 411.393 988.945 411.771 989.008 412.314C989.072 412.856 988.677 413.357 988.125 413.433L981.558 414.335ZM1008.8 410.441C1008.24 410.517 1007.75 410.138 1007.68 409.596C1007.62 409.053 1008.01 408.552 1008.57 408.476L1015.13 407.574C1015.68 407.498 1016.18 407.876 1016.25 408.419C1016.31 408.961 1015.92 409.463 1015.36 409.538L1008.8 410.441ZM994.901 412.992C994.355 413.109 993.828 412.77 993.723 412.235C993.618 411.699 993.974 411.171 994.519 411.054L1000.95 409.677C1001.5 409.56 1002.03 409.899 1002.13 410.435C1002.24 410.97 1001.88 411.498 1001.34 411.615L994.901 412.992ZM1022.14 409.098C1021.59 409.215 1021.07 408.875 1020.96 408.34C1020.86 407.805 1021.21 407.276 1021.76 407.16L1028.19 405.782C1028.74 405.666 1029.26 406.005 1029.37 406.54C1029.48 407.075 1029.12 407.604 1028.57 407.72L1022.14 409.098ZM1036.04 406.546C1035.48 406.622 1034.98 406.244 1034.92 405.701C1034.86 405.159 1035.25 404.658 1035.8 404.582L1042.37 403.679C1042.92 403.604 1043.42 403.982 1043.49 404.524C1043.55 405.067 1043.15 405.568 1042.6 405.644L1036.04 406.546ZM1049.38 405.203C1048.83 405.32 1048.31 404.981 1048.2 404.445C1048.1 403.91 1048.45 403.382 1049 403.265L1055.43 401.888C1055.98 401.771 1056.5 402.11 1056.61 402.646C1056.71 403.181 1056.36 403.709 1055.81 403.826L1049.38 405.203ZM981.809 403.981C981.257 404.056 980.759 403.678 980.695 403.136C980.632 402.593 981.027 402.092 981.579 402.016L988.146 401.114C988.697 401.038 989.196 401.416 989.26 401.959C989.323 402.501 988.928 403.002 988.376 403.078L981.809 403.981ZM1009.05 400.086C1008.5 400.162 1008 399.784 1007.93 399.241C1007.87 398.699 1008.27 398.197 1008.82 398.122L1015.38 397.219C1015.94 397.143 1016.43 397.522 1016.5 398.064C1016.56 398.607 1016.17 399.108 1015.61 399.184L1009.05 400.086ZM995.152 402.638C994.607 402.754 994.079 402.415 993.974 401.88C993.869 401.345 994.226 400.816 994.771 400.7L1001.21 399.322C1001.75 399.205 1002.28 399.545 1002.38 400.08C1002.49 400.615 1002.13 401.144 1001.59 401.26L995.152 402.638ZM1022.39 398.743C1021.85 398.86 1021.32 398.521 1021.21 397.985C1021.11 397.45 1021.46 396.922 1022.01 396.805L1028.44 395.428C1028.99 395.311 1029.52 395.65 1029.62 396.185C1029.73 396.721 1029.37 397.249 1028.82 397.366L1022.39 398.743ZM1036.29 396.192C1035.73 396.267 1035.24 395.889 1035.17 395.347C1035.11 394.804 1035.5 394.303 1036.06 394.227L1042.62 393.325C1043.17 393.249 1043.67 393.627 1043.74 394.17C1043.8 394.712 1043.41 395.213 1042.85 395.289L1036.29 396.192ZM1049.63 394.849C1049.08 394.965 1048.56 394.626 1048.45 394.091C1048.35 393.556 1048.7 393.027 1049.25 392.91L1055.68 391.533C1056.23 391.416 1056.75 391.756 1056.86 392.291C1056.97 392.826 1056.61 393.354 1056.06 393.471L1049.63 394.849ZM1009.3 389.731C1008.75 389.807 1008.25 389.429 1008.19 388.886C1008.12 388.344 1008.52 387.843 1009.07 387.767L1015.64 386.864C1016.19 386.789 1016.69 387.167 1016.75 387.71C1016.81 388.252 1016.42 388.753 1015.87 388.829L1009.3 389.731ZM995.403 392.283C994.858 392.4 994.331 392.06 994.225 391.525C994.12 390.99 994.477 390.462 995.022 390.345L1001.46 388.968C1002 388.851 1002.53 389.19 1002.63 389.725C1002.74 390.26 1002.38 390.789 1001.84 390.906L995.403 392.283ZM1022.64 388.388C1022.1 388.505 1021.57 388.166 1021.46 387.631C1021.36 387.095 1021.72 386.567 1022.26 386.45L1028.69 385.073C1029.24 384.956 1029.77 385.295 1029.87 385.831C1029.98 386.366 1029.62 386.894 1029.08 387.011L1022.64 388.388ZM985.344 393.175L985.113 391.21L985.344 393.175ZM985.344 393.175L982.06 393.626C980.729 393.809 980.498 391.844 981.83 391.661L985.113 391.21L988.397 390.759C989.729 390.576 989.959 392.541 988.627 392.724L985.344 393.175ZM1039.82 385.386L1039.59 383.421L1039.82 385.386ZM1039.59 383.421C1040.92 383.238 1041.15 385.203 1039.82 385.386L1036.54 385.837C1035.21 386.02 1034.98 384.055 1036.31 383.872L1039.59 383.421L1042.87 382.97C1044.21 382.787 1044.44 384.752 1043.1 384.934L1039.82 385.386C1038.49 385.569 1038.26 383.604 1039.59 383.421ZM1049.88 384.494C1049.34 384.61 1048.81 384.271 1048.7 383.736C1048.6 383.201 1048.95 382.672 1049.5 382.556L1055.93 381.178C1056.48 381.062 1057.01 381.401 1057.11 381.936C1057.22 382.471 1056.86 383 1056.31 383.116L1049.88 384.494ZM894.915 400.98C894.899 400.433 895.337 399.967 895.892 399.939C896.447 399.91 896.909 400.331 896.924 400.878L897.107 407.392C897.122 407.939 896.685 408.405 896.13 408.434C895.575 408.462 895.113 408.041 895.097 407.494L894.915 400.98ZM905.345 401.883C905.33 401.336 905.767 400.869 906.322 400.841C906.877 400.813 907.339 401.234 907.355 401.781L907.537 408.295C907.552 408.842 907.115 409.308 906.56 409.336C906.005 409.364 905.543 408.944 905.527 408.397L905.345 401.883ZM895.825 428.007C895.81 427.46 896.247 426.994 896.802 426.965C897.357 426.937 897.819 427.358 897.834 427.905L898.017 434.419C898.032 434.966 897.595 435.432 897.04 435.46C896.485 435.489 896.023 435.068 896.007 434.521L895.825 428.007ZM906.255 428.91C906.24 428.363 906.677 427.896 907.232 427.868C907.787 427.84 908.249 428.26 908.265 428.807L908.447 435.321C908.462 435.868 908.025 436.335 907.47 436.363C906.915 436.391 906.453 435.971 906.437 435.424L906.255 428.91ZM894.79 414.184C894.733 413.64 895.134 413.143 895.686 413.074C896.238 413.004 896.733 413.388 896.79 413.931L897.467 420.345C897.524 420.888 897.123 421.385 896.571 421.455C896.019 421.524 895.525 421.14 895.467 420.597L894.79 414.184ZM905.22 415.086C905.163 414.543 905.564 414.046 906.116 413.976C906.669 413.907 907.163 414.291 907.22 414.834L907.897 421.247C907.954 421.791 907.553 422.288 907.001 422.357C906.449 422.427 905.955 422.043 905.897 421.499L905.22 415.086ZM895.7 441.21C895.643 440.667 896.044 440.17 896.596 440.101C897.148 440.031 897.643 440.415 897.7 440.958L898.377 447.372C898.434 447.915 898.033 448.412 897.481 448.481C896.929 448.551 896.435 448.167 896.377 447.624L895.7 441.21ZM906.13 442.113C906.073 441.57 906.474 441.073 907.026 441.003C907.579 440.934 908.073 441.318 908.13 441.861L908.807 448.274C908.864 448.818 908.463 449.314 907.911 449.384C907.359 449.454 906.865 449.07 906.807 448.526L906.13 442.113ZM896.735 455.034C896.72 454.487 897.157 454.02 897.712 453.992C898.267 453.964 898.729 454.385 898.745 454.932L898.927 461.446C898.942 461.993 898.505 462.459 897.95 462.487C897.395 462.515 896.933 462.095 896.917 461.548L896.735 455.034ZM907.165 455.936C907.15 455.389 907.587 454.923 908.142 454.895C908.697 454.867 909.159 455.287 909.175 455.834L909.357 462.348C909.372 462.895 908.935 463.362 908.38 463.39C907.825 463.418 907.363 462.997 907.347 462.45L907.165 455.936ZM896.61 468.237C896.553 467.694 896.954 467.197 897.506 467.127C898.059 467.058 898.553 467.442 898.61 467.985L899.287 474.398C899.344 474.942 898.943 475.439 898.391 475.508C897.839 475.578 897.345 475.194 897.287 474.651L896.61 468.237ZM907.04 469.14C906.983 468.596 907.384 468.1 907.936 468.03C908.489 467.96 908.983 468.344 909.04 468.888L909.717 475.301C909.774 475.844 909.373 476.341 908.821 476.411C908.269 476.48 907.775 476.096 907.717 475.553L907.04 469.14ZM915.775 402.785C915.76 402.238 916.197 401.772 916.752 401.744C917.307 401.716 917.769 402.136 917.785 402.683L917.967 409.197C917.982 409.744 917.545 410.21 916.99 410.239C916.435 410.267 915.973 409.846 915.957 409.299L915.775 402.785ZM916.685 429.812C916.67 429.265 917.107 428.799 917.662 428.771C918.217 428.742 918.679 429.163 918.695 429.71L918.877 436.224C918.892 436.771 918.455 437.237 917.9 437.266C917.345 437.294 916.883 436.873 916.867 436.326L916.685 429.812ZM915.65 415.989C915.593 415.445 915.994 414.949 916.546 414.879C917.099 414.809 917.593 415.193 917.65 415.737L918.327 422.15C918.384 422.693 917.983 423.19 917.431 423.26C916.879 423.329 916.385 422.945 916.327 422.402L915.65 415.989ZM916.56 443.016C916.503 442.472 916.904 441.975 917.456 441.906C918.009 441.836 918.503 442.22 918.56 442.763L919.237 449.177C919.294 449.72 918.893 450.217 918.341 450.287C917.789 450.356 917.295 449.972 917.237 449.429L916.56 443.016ZM917.595 456.839C917.58 456.292 918.017 455.826 918.572 455.797C919.127 455.769 919.589 456.19 919.605 456.737L919.787 463.251C919.802 463.798 919.365 464.264 918.81 464.292C918.255 464.321 917.793 463.9 917.777 463.353L917.595 456.839ZM917.47 470.042C917.413 469.499 917.814 469.002 918.366 468.933C918.919 468.863 919.413 469.247 919.47 469.79L920.147 476.204C920.204 476.747 919.803 477.244 919.251 477.313C918.699 477.383 918.205 476.999 918.147 476.456L917.47 470.042ZM926.205 403.688C926.19 403.141 926.627 402.675 927.182 402.646C927.737 402.618 928.199 403.039 928.215 403.586L928.397 410.1C928.412 410.647 927.975 411.113 927.42 411.141C926.865 411.17 926.403 410.749 926.387 410.202L926.205 403.688ZM927.115 430.715C927.1 430.168 927.537 429.701 928.092 429.673C928.647 429.645 929.109 430.066 929.125 430.613L929.307 437.127C929.323 437.674 928.885 438.14 928.33 438.168C927.775 438.196 927.313 437.776 927.298 437.229L927.115 430.715ZM926.08 416.891C926.023 416.348 926.424 415.851 926.976 415.782C927.529 415.712 928.023 416.096 928.08 416.639L928.757 423.053C928.814 423.596 928.413 424.093 927.861 424.162C927.309 424.232 926.815 423.848 926.757 423.305L926.08 416.891ZM926.99 443.918C926.933 443.375 927.334 442.878 927.887 442.808C928.439 442.739 928.933 443.123 928.99 443.666L929.667 450.079C929.724 450.623 929.323 451.12 928.771 451.189C928.219 451.259 927.725 450.875 927.667 450.331L926.99 443.918ZM928.025 457.742C928.01 457.195 928.447 456.728 929.002 456.7C929.557 456.672 930.019 457.092 930.035 457.639L930.217 464.153C930.233 464.7 929.795 465.167 929.24 465.195C928.685 465.223 928.223 464.803 928.208 464.256L928.025 457.742ZM927.901 470.945C927.843 470.402 928.244 469.905 928.797 469.835C929.349 469.766 929.843 470.15 929.9 470.693L930.577 477.106C930.635 477.65 930.233 478.146 929.681 478.216C929.129 478.286 928.635 477.902 928.577 477.358L927.901 470.945ZM936.635 404.591C936.62 404.044 937.057 403.577 937.612 403.549C938.167 403.521 938.629 403.941 938.645 404.488L938.827 411.002C938.843 411.549 938.405 412.016 937.85 412.044C937.295 412.072 936.833 411.652 936.818 411.105L936.635 404.591ZM937.545 431.617C937.53 431.07 937.967 430.604 938.522 430.576C939.077 430.548 939.539 430.968 939.555 431.515L939.737 438.029C939.753 438.576 939.315 439.043 938.76 439.071C938.205 439.099 937.743 438.678 937.728 438.131L937.545 431.617ZM936.511 417.794C936.453 417.251 936.854 416.754 937.406 416.684C937.959 416.615 938.453 416.999 938.51 417.542L939.187 423.955C939.244 424.499 938.843 424.995 938.291 425.065C937.739 425.135 937.245 424.751 937.187 424.207L936.511 417.794ZM937.421 444.821C937.363 444.277 937.764 443.781 938.317 443.711C938.869 443.641 939.363 444.025 939.42 444.569L940.097 450.982C940.155 451.525 939.753 452.022 939.201 452.092C938.649 452.161 938.155 451.777 938.097 451.234L937.421 444.821ZM938.455 458.644C938.44 458.097 938.877 457.631 939.432 457.603C939.987 457.574 940.45 457.995 940.465 458.542L940.647 465.056C940.663 465.603 940.225 466.069 939.67 466.098C939.115 466.126 938.653 465.705 938.638 465.158L938.455 458.644ZM938.331 471.848C938.273 471.304 938.674 470.807 939.227 470.738C939.779 470.668 940.273 471.052 940.33 471.596L941.007 478.009C941.065 478.552 940.663 479.049 940.111 479.119C939.559 479.188 939.065 478.804 939.008 478.261L938.331 471.848ZM947.065 405.493C947.05 404.946 947.487 404.48 948.042 404.452C948.597 404.423 949.059 404.844 949.075 405.391L949.257 411.905C949.273 412.452 948.835 412.918 948.28 412.947C947.725 412.975 947.263 412.554 947.248 412.007L947.065 405.493ZM947.975 432.52C947.96 431.973 948.397 431.507 948.952 431.478C949.507 431.45 949.97 431.871 949.985 432.418L950.167 438.932C950.183 439.479 949.745 439.945 949.19 439.973C948.635 440.002 948.173 439.581 948.158 439.034L947.975 432.52ZM946.941 418.697C946.883 418.153 947.284 417.656 947.837 417.587C948.389 417.517 948.883 417.901 948.94 418.444L949.617 424.858C949.675 425.401 949.273 425.898 948.721 425.968C948.169 426.037 947.675 425.653 947.617 425.11L946.941 418.697ZM947.851 445.723C947.793 445.18 948.194 444.683 948.747 444.614C949.299 444.544 949.793 444.928 949.85 445.471L950.527 451.885C950.585 452.428 950.183 452.925 949.631 452.994C949.079 453.064 948.585 452.68 948.528 452.137L947.851 445.723ZM948.885 459.547C948.87 459 949.307 458.534 949.862 458.505C950.417 458.477 950.88 458.898 950.895 459.445L951.077 465.959C951.093 466.506 950.655 466.972 950.1 467C949.545 467.028 949.083 466.608 949.068 466.061L948.885 459.547ZM948.761 472.75C948.703 472.207 949.104 471.71 949.657 471.64C950.209 471.571 950.703 471.955 950.76 472.498L951.437 478.911C951.495 479.455 951.093 479.952 950.541 480.021C949.989 480.091 949.495 479.707 949.438 479.164L948.761 472.75ZM958.405 433.423C958.39 432.876 958.827 432.409 959.382 432.381C959.937 432.353 960.4 432.773 960.415 433.32L960.597 439.834C960.613 440.381 960.175 440.848 959.62 440.876C959.065 440.904 958.603 440.484 958.588 439.937L958.405 433.423ZM957.371 419.599C957.313 419.056 957.714 418.559 958.267 418.489C958.819 418.42 959.313 418.804 959.37 419.347L960.047 425.76C960.105 426.304 959.703 426.801 959.151 426.87C958.599 426.94 958.105 426.556 958.048 426.012L957.371 419.599ZM958.281 446.626C958.223 446.083 958.624 445.586 959.177 445.516C959.729 445.447 960.223 445.831 960.28 446.374L960.957 452.787C961.015 453.331 960.613 453.827 960.061 453.897C959.509 453.967 959.015 453.583 958.958 453.039L958.281 446.626ZM957.586 409.653L959.596 409.551L957.586 409.653ZM957.586 409.653L957.495 406.396C957.458 405.075 959.468 404.973 959.505 406.294L959.596 409.551L959.687 412.808C959.724 414.128 957.715 414.23 957.678 412.91L957.586 409.653ZM959.407 463.706L961.416 463.604L959.407 463.706ZM961.416 463.604C961.453 464.925 959.444 465.027 959.407 463.706L959.315 460.449C959.278 459.129 961.288 459.027 961.325 460.347L961.416 463.604L961.507 466.861C961.544 468.182 959.535 468.284 959.498 466.963L959.407 463.706C959.37 462.386 961.379 462.284 961.416 463.604ZM959.191 473.653C959.133 473.109 959.535 472.613 960.087 472.543C960.639 472.473 961.133 472.857 961.19 473.401L961.867 479.814C961.925 480.357 961.524 480.854 960.971 480.924C960.419 480.993 959.925 480.609 959.868 480.066L959.191 473.653ZM1033.76 496.504C1033.46 496.055 1033.58 495.437 1034.04 495.123C1034.51 494.809 1035.13 494.919 1035.44 495.368L1039.09 500.714C1039.4 501.163 1039.28 501.781 1038.81 502.095C1038.35 502.409 1037.73 502.299 1037.42 501.85L1033.76 496.504ZM1043.22 491.803C1042.92 491.354 1043.04 490.736 1043.51 490.422C1043.97 490.108 1044.59 490.218 1044.9 490.667L1048.56 496.013C1048.86 496.462 1048.74 497.08 1048.27 497.394C1047.81 497.708 1047.19 497.598 1046.88 497.149L1043.22 491.803ZM1049.07 518.606C1048.76 518.157 1048.88 517.538 1049.35 517.224C1049.81 516.911 1050.43 517.02 1050.74 517.469L1054.4 522.815C1054.7 523.264 1054.58 523.883 1054.12 524.196C1053.65 524.51 1053.03 524.401 1052.72 523.952L1049.07 518.606ZM1058.53 513.905C1058.22 513.456 1058.35 512.837 1058.81 512.524C1059.27 512.21 1059.9 512.319 1060.2 512.768L1063.86 518.114C1064.17 518.563 1064.04 519.182 1063.58 519.496C1063.12 519.809 1062.49 519.7 1062.18 519.251L1058.53 513.905ZM1040.75 507.599C1040.41 507.175 1040.49 506.55 1040.92 506.203C1041.36 505.856 1041.99 505.919 1042.33 506.343L1046.36 511.346C1046.7 511.77 1046.63 512.395 1046.19 512.742C1045.75 513.089 1045.12 513.026 1044.78 512.602L1040.75 507.599ZM1050.21 502.898C1049.87 502.474 1049.95 501.849 1050.39 501.502C1050.82 501.156 1051.46 501.218 1051.8 501.642L1055.83 506.645C1056.17 507.069 1056.09 507.694 1055.65 508.041C1055.21 508.388 1054.58 508.325 1054.24 507.902L1050.21 502.898ZM1056.05 529.7C1055.71 529.276 1055.79 528.652 1056.23 528.305C1056.66 527.958 1057.3 528.02 1057.64 528.444L1061.67 533.447C1062.01 533.871 1061.93 534.496 1061.49 534.843C1061.05 535.19 1060.42 535.128 1060.08 534.704L1056.05 529.7ZM1065.51 525C1065.17 524.576 1065.25 523.951 1065.69 523.604C1066.13 523.257 1066.76 523.319 1067.1 523.743L1071.13 528.747C1071.47 529.17 1071.39 529.795 1070.95 530.142C1070.52 530.489 1069.88 530.427 1069.54 530.003L1065.51 525ZM1064.37 540.707C1064.06 540.258 1064.19 539.64 1064.65 539.326C1065.11 539.012 1065.74 539.122 1066.04 539.571L1069.7 544.917C1070.01 545.366 1069.88 545.984 1069.42 546.298C1068.96 546.612 1068.33 546.502 1068.03 546.053L1064.37 540.707ZM1073.83 536.006C1073.52 535.557 1073.65 534.939 1074.11 534.625C1074.58 534.311 1075.2 534.421 1075.51 534.87L1079.16 540.216C1079.47 540.665 1079.34 541.283 1078.88 541.597C1078.42 541.911 1077.8 541.801 1077.49 541.352L1073.83 536.006ZM1071.36 551.802C1071.01 551.378 1071.09 550.753 1071.53 550.406C1071.97 550.059 1072.6 550.121 1072.94 550.545L1076.97 555.549C1077.31 555.973 1077.23 556.598 1076.79 556.945C1076.36 557.291 1075.72 557.229 1075.38 556.805L1071.36 551.802ZM1080.82 547.101C1080.48 546.677 1080.55 546.052 1080.99 545.705C1081.43 545.358 1082.06 545.421 1082.4 545.845L1086.43 550.848C1086.77 551.272 1086.69 551.897 1086.26 552.244C1085.82 552.591 1085.19 552.528 1084.85 552.104L1080.82 547.101ZM1052.69 487.103C1052.38 486.654 1052.51 486.035 1052.97 485.721C1053.43 485.408 1054.06 485.517 1054.36 485.966L1058.02 491.312C1058.33 491.761 1058.2 492.38 1057.74 492.693C1057.27 493.007 1056.65 492.898 1056.34 492.449L1052.69 487.103ZM1067.99 509.204C1067.68 508.755 1067.81 508.137 1068.27 507.823C1068.73 507.509 1069.36 507.619 1069.67 508.068L1073.32 513.414C1073.63 513.863 1073.5 514.481 1073.04 514.795C1072.58 515.109 1071.95 514.999 1071.65 514.55L1067.99 509.204ZM1059.67 498.197C1059.33 497.773 1059.41 497.149 1059.85 496.802C1060.29 496.455 1060.92 496.517 1061.26 496.941L1065.29 501.944C1065.63 502.368 1065.55 502.993 1065.11 503.34C1064.67 503.687 1064.04 503.625 1063.7 503.201L1059.67 498.197ZM1074.98 520.299C1074.64 519.875 1074.71 519.25 1075.15 518.903C1075.59 518.556 1076.22 518.618 1076.56 519.042L1080.59 524.046C1080.93 524.47 1080.85 525.095 1080.42 525.441C1079.98 525.788 1079.35 525.726 1079.01 525.302L1074.98 520.299ZM1083.29 531.305C1082.99 530.856 1083.11 530.238 1083.58 529.924C1084.04 529.61 1084.66 529.72 1084.97 530.169L1088.63 535.515C1088.93 535.964 1088.81 536.582 1088.34 536.896C1087.88 537.21 1087.26 537.1 1086.95 536.651L1083.29 531.305ZM1090.28 542.4C1089.94 541.976 1090.02 541.351 1090.46 541.004C1090.89 540.657 1091.52 540.72 1091.87 541.144L1095.89 546.147C1096.24 546.571 1096.16 547.196 1095.72 547.543C1095.28 547.89 1094.65 547.827 1094.31 547.404L1090.28 542.4ZM1062.15 482.402C1061.84 481.953 1061.97 481.334 1062.43 481.021C1062.89 480.707 1063.52 480.816 1063.82 481.265L1067.48 486.611C1067.79 487.06 1067.66 487.679 1067.2 487.993C1066.74 488.306 1066.11 488.197 1065.81 487.748L1062.15 482.402ZM1077.45 504.503C1077.15 504.054 1077.27 503.436 1077.73 503.122C1078.2 502.808 1078.82 502.918 1079.13 503.367L1082.78 508.713C1083.09 509.162 1082.97 509.78 1082.5 510.094C1082.04 510.408 1081.42 510.298 1081.11 509.849L1077.45 504.503ZM1069.14 493.496C1068.79 493.073 1068.87 492.448 1069.31 492.101C1069.75 491.754 1070.38 491.816 1070.72 492.24L1074.75 497.244C1075.09 497.667 1075.01 498.292 1074.57 498.639C1074.14 498.986 1073.51 498.924 1073.16 498.5L1069.14 493.496ZM1084.44 515.598C1084.1 515.174 1084.18 514.549 1084.61 514.202C1085.05 513.855 1085.68 513.918 1086.02 514.341L1090.05 519.345C1090.39 519.769 1090.32 520.394 1089.88 520.741C1089.44 521.088 1088.81 521.025 1088.47 520.601L1084.44 515.598ZM1092.76 526.604C1092.45 526.156 1092.58 525.537 1093.04 525.223C1093.5 524.91 1094.12 525.019 1094.43 525.468L1098.09 530.814C1098.39 531.263 1098.27 531.881 1097.81 532.195C1097.34 532.509 1096.72 532.4 1096.41 531.951L1092.76 526.604ZM1099.74 537.699C1099.4 537.275 1099.48 536.65 1099.92 536.304C1100.36 535.957 1100.99 536.019 1101.33 536.443L1105.36 541.446C1105.7 541.87 1105.62 542.495 1105.18 542.842C1104.74 543.189 1104.11 543.127 1103.77 542.703L1099.74 537.699ZM1071.61 477.701C1071.3 477.252 1071.43 476.634 1071.89 476.32C1072.36 476.006 1072.98 476.116 1073.29 476.564L1076.94 481.911C1077.25 482.36 1077.12 482.978 1076.66 483.292C1076.2 483.605 1075.58 483.496 1075.27 483.047L1071.61 477.701ZM1086.92 499.802C1086.61 499.353 1086.73 498.735 1087.2 498.421C1087.66 498.107 1088.28 498.217 1088.59 498.666L1092.25 504.012C1092.55 504.461 1092.43 505.079 1091.97 505.393C1091.5 505.707 1090.88 505.597 1090.57 505.148L1086.92 499.802ZM1078.6 488.796C1078.26 488.372 1078.34 487.747 1078.77 487.4C1079.21 487.053 1079.84 487.115 1080.18 487.539L1084.21 492.543C1084.55 492.967 1084.48 493.591 1084.04 493.938C1083.6 494.285 1082.97 494.223 1082.63 493.799L1078.6 488.796ZM1093.9 510.897C1093.56 510.473 1093.64 509.848 1094.08 509.501C1094.51 509.154 1095.15 509.217 1095.49 509.641L1099.52 514.644C1099.86 515.068 1099.78 515.693 1099.34 516.04C1098.9 516.387 1098.27 516.324 1097.93 515.9L1093.9 510.897ZM1102.22 521.904C1101.91 521.455 1102.04 520.836 1102.5 520.523C1102.96 520.209 1103.59 520.318 1103.89 520.767L1107.55 526.113C1107.86 526.562 1107.73 527.181 1107.27 527.494C1106.81 527.808 1106.18 527.699 1105.88 527.25L1102.22 521.904ZM1109.2 532.998C1108.86 532.575 1108.94 531.95 1109.38 531.603C1109.82 531.256 1110.45 531.318 1110.79 531.742L1114.82 536.746C1115.16 537.169 1115.08 537.794 1114.64 538.141C1114.21 538.488 1113.57 538.426 1113.23 538.002L1109.2 532.998ZM1081.07 473C1080.77 472.551 1080.89 471.933 1081.36 471.619C1081.82 471.305 1082.44 471.415 1082.75 471.864L1086.41 477.21C1086.71 477.659 1086.59 478.277 1086.12 478.591C1085.66 478.905 1085.04 478.795 1084.73 478.346L1081.07 473ZM1096.38 495.101C1096.07 494.652 1096.2 494.034 1096.66 493.72C1097.12 493.407 1097.75 493.516 1098.05 493.965L1101.71 499.311C1102.02 499.76 1101.89 500.378 1101.43 500.692C1100.97 501.006 1100.34 500.896 1100.03 500.448L1096.38 495.101ZM1088.06 484.095C1087.72 483.671 1087.8 483.046 1088.24 482.699C1088.67 482.352 1089.31 482.415 1089.65 482.838L1093.67 487.842C1094.02 488.266 1093.94 488.891 1093.5 489.238C1093.06 489.585 1092.43 489.522 1092.09 489.098L1088.06 484.095ZM1103.36 506.196C1103.02 505.772 1103.1 505.147 1103.54 504.801C1103.98 504.454 1104.61 504.516 1104.95 504.94L1108.98 509.943C1109.32 510.367 1109.24 510.992 1108.8 511.339C1108.37 511.686 1107.73 511.624 1107.39 511.2L1103.36 506.196ZM1111.68 517.203C1111.37 516.754 1111.5 516.136 1111.96 515.822C1112.43 515.508 1113.05 515.617 1113.36 516.066L1117.01 521.413C1117.32 521.861 1117.19 522.48 1116.73 522.794C1116.27 523.107 1115.64 522.998 1115.34 522.549L1111.68 517.203ZM1118.67 528.298C1118.33 527.874 1118.4 527.249 1118.84 526.902C1119.28 526.555 1119.91 526.617 1120.25 527.041L1124.28 532.045C1124.62 532.469 1124.54 533.093 1124.11 533.44C1123.67 533.787 1123.04 533.725 1122.7 533.301L1118.67 528.298ZM1105.84 490.401C1105.53 489.952 1105.66 489.333 1106.12 489.02C1106.58 488.706 1107.21 488.815 1107.52 489.264L1111.17 494.61C1111.48 495.059 1111.35 495.678 1110.89 495.991C1110.43 496.305 1109.8 496.196 1109.5 495.747L1105.84 490.401ZM1097.52 479.394C1097.18 478.97 1097.26 478.345 1097.7 477.998C1098.14 477.651 1098.77 477.714 1099.11 478.138L1103.14 483.141C1103.48 483.565 1103.4 484.19 1102.96 484.537C1102.52 484.884 1101.89 484.821 1101.55 484.397L1097.52 479.394ZM1112.83 501.495C1112.49 501.071 1112.56 500.447 1113 500.1C1113.44 499.753 1114.07 499.815 1114.41 500.239L1118.44 505.242C1118.78 505.666 1118.7 506.291 1118.27 506.638C1117.83 506.985 1117.2 506.923 1116.85 506.499L1112.83 501.495ZM1092.37 470.972L1094.04 469.836L1092.37 470.972ZM1092.37 470.972L1090.54 468.299C1089.8 467.215 1091.47 466.079 1092.21 467.163L1094.04 469.836L1095.87 472.509C1096.61 473.593 1094.93 474.729 1094.19 473.645L1092.37 470.972ZM1122.97 515.175L1124.65 514.039L1122.97 515.175ZM1124.65 514.039C1125.39 515.123 1123.71 516.259 1122.97 515.175L1121.14 512.502C1120.4 511.418 1122.08 510.282 1122.82 511.366L1124.65 514.039L1126.48 516.712C1127.22 517.796 1125.54 518.932 1124.8 517.848L1122.97 515.175C1122.23 514.091 1123.91 512.955 1124.65 514.039ZM1128.13 523.597C1127.79 523.173 1127.87 522.548 1128.3 522.201C1128.74 521.854 1129.37 521.916 1129.72 522.34L1133.74 527.344C1134.08 527.768 1134.01 528.393 1133.57 528.74C1133.13 529.086 1132.5 529.024 1132.16 528.6L1128.13 523.597ZM1078.81 563.662C1078.52 563.202 1078.66 562.588 1079.14 562.29C1079.61 561.992 1080.23 562.123 1080.52 562.583L1083.98 568.056C1084.27 568.516 1084.12 569.13 1083.65 569.428C1083.18 569.726 1082.56 569.595 1082.27 569.135L1078.81 563.662ZM1088.42 559.286C1088.13 558.826 1088.28 558.212 1088.75 557.914C1089.22 557.616 1089.84 557.747 1090.13 558.207L1093.6 563.68C1093.89 564.14 1093.74 564.754 1093.27 565.052C1092.79 565.35 1092.17 565.219 1091.88 564.759L1088.42 559.286ZM1093.31 586.295C1093.01 585.836 1093.16 585.222 1093.64 584.924C1094.11 584.626 1094.73 584.757 1095.02 585.216L1098.48 590.69C1098.77 591.149 1098.62 591.763 1098.15 592.061C1097.68 592.359 1097.06 592.228 1096.77 591.769L1093.31 586.295ZM1102.92 581.919C1102.63 581.46 1102.78 580.846 1103.25 580.548C1103.72 580.25 1104.34 580.381 1104.63 580.84L1108.1 586.314C1108.39 586.773 1108.24 587.387 1107.77 587.685C1107.29 587.983 1106.67 587.852 1106.38 587.393L1102.92 581.919ZM1085.39 575C1085.06 574.564 1085.16 573.942 1085.61 573.61C1086.06 573.278 1086.69 573.362 1087.02 573.798L1090.86 578.941C1091.19 579.377 1091.09 579.999 1090.64 580.331C1090.19 580.663 1089.56 580.579 1089.23 580.143L1085.39 575ZM1095 570.624C1094.68 570.188 1094.78 569.566 1095.23 569.234C1095.68 568.902 1096.31 568.986 1096.63 569.422L1100.48 574.565C1100.8 575.001 1100.7 575.623 1100.25 575.955C1099.8 576.287 1099.18 576.203 1098.85 575.767L1095 570.624ZM1099.89 597.633C1099.56 597.197 1099.66 596.575 1100.11 596.243C1100.56 595.911 1101.19 595.995 1101.52 596.431L1105.36 601.575C1105.69 602.01 1105.59 602.633 1105.14 602.965C1104.69 603.296 1104.06 603.212 1103.73 602.777L1099.89 597.633ZM1109.5 593.257C1109.18 592.822 1109.28 592.199 1109.73 591.867C1110.18 591.535 1110.81 591.619 1111.13 592.055L1114.98 597.199C1115.3 597.634 1115.2 598.257 1114.75 598.589C1114.3 598.92 1113.68 598.836 1113.35 598.401L1109.5 593.257ZM1107.8 608.929C1107.51 608.469 1107.66 607.855 1108.13 607.557C1108.61 607.259 1109.23 607.39 1109.52 607.85L1112.98 613.323C1113.27 613.783 1113.12 614.397 1112.65 614.695C1112.18 614.993 1111.56 614.862 1111.27 614.402L1107.8 608.929ZM1117.42 604.553C1117.13 604.093 1117.28 603.479 1117.75 603.181C1118.22 602.883 1118.84 603.014 1119.13 603.474L1122.59 608.947C1122.89 609.407 1122.74 610.021 1122.26 610.319C1121.79 610.617 1121.17 610.486 1120.88 610.026L1117.42 604.553ZM1114.39 620.267C1114.06 619.831 1114.16 619.209 1114.61 618.877C1115.06 618.545 1115.69 618.629 1116.02 619.065L1119.86 624.208C1120.19 624.644 1120.09 625.266 1119.64 625.598C1119.19 625.93 1118.56 625.846 1118.23 625.41L1114.39 620.267ZM1124 615.891C1123.68 615.455 1123.78 614.833 1124.23 614.501C1124.68 614.169 1125.31 614.253 1125.63 614.689L1129.48 619.832C1129.8 620.268 1129.7 620.89 1129.25 621.222C1128.8 621.554 1128.17 621.47 1127.85 621.034L1124 615.891ZM1098.04 554.91C1097.75 554.45 1097.89 553.836 1098.37 553.538C1098.84 553.24 1099.46 553.371 1099.75 553.831L1103.21 559.304C1103.5 559.764 1103.35 560.378 1102.88 560.676C1102.41 560.974 1101.79 560.843 1101.5 560.383L1098.04 554.91ZM1112.54 577.543C1112.24 577.084 1112.39 576.47 1112.87 576.172C1113.34 575.874 1113.96 576.005 1114.25 576.464L1117.71 581.938C1118 582.397 1117.85 583.011 1117.38 583.309C1116.91 583.607 1116.29 583.476 1116 583.017L1112.54 577.543ZM1104.62 566.248C1104.29 565.812 1104.39 565.19 1104.84 564.858C1105.29 564.526 1105.92 564.61 1106.25 565.046L1110.09 570.189C1110.42 570.625 1110.32 571.247 1109.87 571.579C1109.42 571.911 1108.79 571.827 1108.47 571.391L1104.62 566.248ZM1119.12 588.881C1118.79 588.446 1118.89 587.823 1119.34 587.491C1119.79 587.159 1120.42 587.244 1120.75 587.679L1124.59 592.823C1124.92 593.258 1124.82 593.881 1124.37 594.213C1123.92 594.545 1123.29 594.46 1122.96 594.025L1119.12 588.881ZM1127.03 600.177C1126.74 599.717 1126.89 599.103 1127.36 598.805C1127.84 598.507 1128.46 598.638 1128.75 599.098L1132.21 604.571C1132.5 605.031 1132.35 605.645 1131.88 605.943C1131.41 606.241 1130.79 606.11 1130.5 605.65L1127.03 600.177ZM1133.62 611.515C1133.29 611.079 1133.39 610.457 1133.84 610.125C1134.29 609.793 1134.92 609.877 1135.25 610.313L1139.09 615.456C1139.42 615.892 1139.32 616.514 1138.87 616.846C1138.42 617.178 1137.79 617.094 1137.46 616.658L1133.62 611.515ZM1107.65 550.534C1107.36 550.074 1107.51 549.46 1107.98 549.162C1108.45 548.864 1109.07 548.995 1109.36 549.455L1112.83 554.928C1113.12 555.388 1112.97 556.002 1112.5 556.3C1112.02 556.598 1111.4 556.467 1111.11 556.007L1107.65 550.534ZM1122.15 573.167C1121.86 572.708 1122.01 572.094 1122.48 571.796C1122.95 571.498 1123.57 571.629 1123.86 572.088L1127.33 577.562C1127.62 578.021 1127.47 578.635 1127 578.933C1126.52 579.231 1125.9 579.1 1125.61 578.641L1122.15 573.167ZM1114.23 561.872C1113.91 561.436 1114.01 560.814 1114.46 560.482C1114.91 560.15 1115.54 560.234 1115.86 560.67L1119.71 565.813C1120.03 566.249 1119.93 566.871 1119.48 567.203C1119.03 567.535 1118.41 567.451 1118.08 567.015L1114.23 561.872ZM1128.73 584.505C1128.41 584.07 1128.51 583.447 1128.96 583.115C1129.41 582.783 1130.04 582.868 1130.36 583.303L1134.21 588.447C1134.53 588.882 1134.43 589.505 1133.98 589.837C1133.53 590.169 1132.91 590.084 1132.58 589.649L1128.73 584.505ZM1136.65 595.801C1136.36 595.341 1136.51 594.727 1136.98 594.429C1137.45 594.131 1138.07 594.262 1138.36 594.722L1141.82 600.195C1142.12 600.655 1141.97 601.269 1141.49 601.567C1141.02 601.865 1140.4 601.734 1140.11 601.274L1136.65 595.801ZM1143.23 607.139C1142.91 606.703 1143.01 606.081 1143.46 605.749C1143.91 605.417 1144.54 605.501 1144.86 605.937L1148.71 611.08C1149.03 611.516 1148.93 612.138 1148.48 612.47C1148.03 612.802 1147.4 612.718 1147.08 612.282L1143.23 607.139ZM1117.27 546.158C1116.98 545.698 1117.12 545.084 1117.6 544.786C1118.07 544.488 1118.69 544.619 1118.98 545.079L1122.44 550.552C1122.73 551.012 1122.58 551.626 1122.11 551.924C1121.64 552.222 1121.02 552.091 1120.73 551.631L1117.27 546.158ZM1131.77 568.791C1131.47 568.332 1131.62 567.718 1132.1 567.42C1132.57 567.122 1133.19 567.253 1133.48 567.712L1136.94 573.186C1137.23 573.645 1137.08 574.259 1136.61 574.557C1136.14 574.855 1135.52 574.724 1135.23 574.265L1131.77 568.791ZM1123.85 557.496C1123.52 557.06 1123.62 556.438 1124.07 556.106C1124.52 555.774 1125.15 555.858 1125.48 556.294L1129.32 561.437C1129.65 561.873 1129.55 562.495 1129.1 562.827C1128.65 563.159 1128.02 563.075 1127.7 562.639L1123.85 557.496ZM1138.35 580.129C1138.02 579.694 1138.12 579.071 1138.57 578.739C1139.02 578.407 1139.65 578.492 1139.98 578.927L1143.82 584.071C1144.15 584.506 1144.05 585.129 1143.6 585.461C1143.15 585.793 1142.52 585.708 1142.19 585.273L1138.35 580.129ZM1146.26 591.425C1145.97 590.965 1146.12 590.351 1146.59 590.053C1147.07 589.755 1147.69 589.886 1147.98 590.346L1151.44 595.819C1151.73 596.279 1151.58 596.893 1151.11 597.191C1150.64 597.489 1150.02 597.358 1149.73 596.898L1146.26 591.425ZM1152.85 602.763C1152.52 602.327 1152.62 601.705 1153.07 601.373C1153.52 601.041 1154.15 601.125 1154.48 601.561L1158.32 606.704C1158.65 607.14 1158.55 607.762 1158.1 608.094C1157.65 608.426 1157.02 608.342 1156.69 607.906L1152.85 602.763ZM1126.88 541.782C1126.59 541.322 1126.74 540.708 1127.21 540.41C1127.68 540.112 1128.3 540.243 1128.59 540.703L1132.06 546.176C1132.35 546.636 1132.2 547.25 1131.73 547.548C1131.25 547.846 1130.63 547.715 1130.34 547.255L1126.88 541.782ZM1141.38 564.415C1141.09 563.956 1141.24 563.342 1141.71 563.044C1142.18 562.746 1142.8 562.877 1143.09 563.336L1146.56 568.81C1146.85 569.269 1146.7 569.884 1146.23 570.181C1145.75 570.479 1145.13 570.348 1144.84 569.889L1141.38 564.415ZM1133.46 553.12C1133.14 552.684 1133.24 552.062 1133.69 551.73C1134.14 551.398 1134.77 551.482 1135.09 551.918L1138.94 557.061C1139.26 557.497 1139.16 558.119 1138.71 558.451C1138.26 558.783 1137.64 558.699 1137.31 558.263L1133.46 553.12ZM1147.96 575.753C1147.64 575.318 1147.74 574.695 1148.19 574.363C1148.64 574.031 1149.27 574.116 1149.59 574.551L1153.44 579.695C1153.76 580.13 1153.66 580.753 1153.21 581.085C1152.76 581.417 1152.14 581.332 1151.81 580.897L1147.96 575.753ZM1155.88 587.049C1155.59 586.589 1155.74 585.975 1156.21 585.677C1156.68 585.379 1157.3 585.51 1157.59 585.97L1161.05 591.443C1161.35 591.903 1161.2 592.517 1160.72 592.815C1160.25 593.113 1159.63 592.982 1159.34 592.522L1155.88 587.049ZM1162.46 598.387C1162.14 597.951 1162.24 597.329 1162.69 596.997C1163.14 596.665 1163.77 596.749 1164.09 597.185L1167.94 602.328C1168.26 602.764 1168.16 603.386 1167.71 603.718C1167.26 604.05 1166.63 603.966 1166.31 603.53L1162.46 598.387ZM1151 560.039C1150.7 559.58 1150.85 558.966 1151.33 558.668C1151.8 558.37 1152.42 558.501 1152.71 558.961L1156.17 564.434C1156.46 564.893 1156.31 565.508 1155.84 565.805C1155.37 566.103 1154.75 565.972 1154.46 565.513L1151 560.039ZM1143.08 548.744C1142.75 548.308 1142.85 547.686 1143.3 547.354C1143.75 547.022 1144.38 547.106 1144.71 547.542L1148.55 552.685C1148.88 553.121 1148.78 553.743 1148.33 554.075C1147.88 554.407 1147.25 554.323 1146.93 553.887L1143.08 548.744ZM1157.58 571.377C1157.25 570.942 1157.35 570.319 1157.8 569.987C1158.25 569.655 1158.88 569.74 1159.21 570.175L1163.05 575.319C1163.38 575.754 1163.28 576.377 1162.83 576.709C1162.38 577.041 1161.75 576.956 1161.42 576.521L1157.58 571.377ZM1138.23 540.143L1139.94 539.064L1138.23 540.143ZM1138.23 540.143L1136.5 537.406C1135.79 536.296 1137.51 535.217 1138.21 536.327L1139.94 539.064L1141.67 541.8C1142.37 542.91 1140.66 543.989 1139.96 542.879L1138.23 540.143ZM1167.23 585.41L1168.94 584.331L1167.23 585.41ZM1168.94 584.331C1169.64 585.44 1167.93 586.519 1167.23 585.41L1165.49 582.673C1164.79 581.563 1166.51 580.484 1167.21 581.594L1168.94 584.331L1170.67 587.067C1171.37 588.177 1169.66 589.256 1168.96 588.146L1167.23 585.41C1166.52 584.3 1168.24 583.221 1168.94 584.331ZM1172.08 594.011C1171.75 593.575 1171.85 592.953 1172.3 592.621C1172.75 592.289 1173.38 592.373 1173.71 592.809L1177.55 597.952C1177.88 598.388 1177.78 599.01 1177.33 599.342C1176.88 599.674 1176.25 599.59 1175.92 599.154L1172.08 594.011ZM788.845 431.772C788.31 431.639 787.996 431.1 788.144 430.569C788.291 430.038 788.845 429.715 789.38 429.848L795.753 431.431C796.288 431.564 796.602 432.102 796.455 432.634C796.307 433.165 795.753 433.488 795.218 433.355L788.845 431.772ZM793.009 422.171C792.473 422.038 792.159 421.5 792.307 420.968C792.454 420.437 793.008 420.114 793.543 420.247L799.916 421.83C800.451 421.963 800.765 422.502 800.618 423.033C800.47 423.564 799.917 423.887 799.382 423.754L793.009 422.171ZM815.335 438.196C814.8 438.063 814.486 437.525 814.634 436.994C814.781 436.462 815.335 436.139 815.87 436.272L822.243 437.855C822.778 437.988 823.092 438.527 822.945 439.058C822.797 439.59 822.244 439.913 821.708 439.78L815.335 438.196ZM819.499 428.596C818.964 428.463 818.649 427.924 818.797 427.393C818.945 426.861 819.498 426.538 820.033 426.671L826.406 428.255C826.941 428.388 827.256 428.926 827.108 429.458C826.96 429.989 826.407 430.312 825.872 430.179L819.499 428.596ZM801.607 435.448C801.062 435.355 800.707 434.843 800.814 434.303C800.92 433.763 801.448 433.4 801.993 433.492L808.424 434.582C808.969 434.674 809.325 435.187 809.218 435.727C809.111 436.266 808.583 436.629 808.038 436.537L801.607 435.448ZM805.77 425.847C805.225 425.755 804.87 425.242 804.977 424.702C805.083 424.162 805.611 423.799 806.156 423.892L812.588 424.981C813.133 425.073 813.488 425.586 813.381 426.126C813.275 426.666 812.746 427.029 812.202 426.936L805.77 425.847ZM828.097 441.872C827.552 441.78 827.197 441.267 827.304 440.727C827.41 440.187 827.938 439.825 828.483 439.917L834.915 441.006C835.459 441.099 835.815 441.611 835.708 442.151C835.601 442.691 835.073 443.054 834.529 442.962L828.097 441.872ZM832.26 432.271C831.716 432.179 831.36 431.667 831.467 431.127C831.574 430.587 832.102 430.224 832.646 430.316L839.078 431.406C839.623 431.498 839.978 432.01 839.871 432.55C839.765 433.09 839.237 433.453 838.692 433.361L832.26 432.271ZM841.826 444.621C841.29 444.488 840.976 443.949 841.124 443.418C841.271 442.887 841.825 442.564 842.36 442.697L848.733 444.28C849.268 444.413 849.582 444.951 849.435 445.483C849.287 446.014 848.734 446.337 848.199 446.204L841.826 444.621ZM845.989 435.02C845.454 434.887 845.139 434.349 845.287 433.817C845.435 433.286 845.988 432.963 846.523 433.096L852.896 434.679C853.432 434.812 853.746 435.351 853.598 435.882C853.451 436.413 852.897 436.736 852.362 436.603L845.989 435.02ZM854.587 448.297C854.042 448.204 853.687 447.692 853.794 447.152C853.9 446.612 854.429 446.249 854.973 446.341L861.405 447.431C861.95 447.523 862.305 448.036 862.198 448.575C862.092 449.115 861.564 449.478 861.019 449.386L854.587 448.297ZM858.751 438.696C858.206 438.604 857.85 438.091 857.957 437.551C858.064 437.011 858.592 436.648 859.137 436.741L865.568 437.83C866.113 437.922 866.468 438.435 866.361 438.975C866.255 439.515 865.727 439.878 865.182 439.785L858.751 438.696ZM797.172 412.571C796.637 412.438 796.322 411.899 796.47 411.368C796.618 410.836 797.171 410.513 797.706 410.646L804.079 412.229C804.614 412.362 804.929 412.901 804.781 413.432C804.633 413.964 804.08 414.287 803.545 414.154L797.172 412.571ZM823.662 418.995C823.127 418.862 822.813 418.324 822.96 417.792C823.108 417.261 823.661 416.938 824.196 417.071L830.569 418.654C831.105 418.787 831.419 419.325 831.271 419.857C831.124 420.388 830.57 420.711 830.035 420.578L823.662 418.995ZM809.933 416.246C809.389 416.154 809.033 415.641 809.14 415.101C809.247 414.562 809.775 414.199 810.32 414.291L816.751 415.38C817.296 415.473 817.651 415.985 817.544 416.525C817.438 417.065 816.91 417.428 816.365 417.336L809.933 416.246ZM836.424 422.671C835.879 422.578 835.524 422.066 835.63 421.526C835.737 420.986 836.265 420.623 836.81 420.715L843.241 421.805C843.786 421.897 844.141 422.41 844.035 422.95C843.928 423.49 843.4 423.852 842.855 423.76L836.424 422.671ZM850.152 425.42C849.617 425.287 849.303 424.748 849.45 424.217C849.598 423.685 850.151 423.362 850.687 423.495L857.06 425.078C857.595 425.211 857.909 425.75 857.761 426.281C857.614 426.813 857.06 427.136 856.525 427.003L850.152 425.42ZM862.914 429.095C862.369 429.003 862.014 428.49 862.12 427.95C862.227 427.411 862.755 427.048 863.3 427.14L869.731 428.229C870.276 428.322 870.631 428.834 870.525 429.374C870.418 429.914 869.89 430.277 869.345 430.185L862.914 429.095ZM801.335 402.97C800.8 402.837 800.486 402.298 800.633 401.767C800.781 401.236 801.334 400.913 801.87 401.046L808.243 402.629C808.778 402.762 809.092 403.3 808.944 403.832C808.797 404.363 808.243 404.686 807.708 404.553L801.335 402.97ZM827.825 409.394C827.29 409.261 826.976 408.723 827.123 408.191C827.271 407.66 827.825 407.337 828.36 407.47L834.733 409.053C835.268 409.186 835.582 409.725 835.434 410.256C835.287 410.788 834.733 411.111 834.198 410.978L827.825 409.394ZM814.097 406.646C813.552 406.553 813.197 406.041 813.303 405.501C813.41 404.961 813.938 404.598 814.483 404.69L820.914 405.78C821.459 405.872 821.814 406.385 821.708 406.924C821.601 407.464 821.073 407.827 820.528 407.735L814.097 406.646ZM840.587 413.07C840.042 412.978 839.687 412.465 839.793 411.925C839.9 411.385 840.428 411.023 840.973 411.115L847.404 412.204C847.949 412.297 848.304 412.809 848.198 413.349C848.091 413.889 847.563 414.252 847.018 414.159L840.587 413.07ZM854.315 415.819C853.78 415.686 853.466 415.147 853.614 414.616C853.761 414.085 854.315 413.762 854.85 413.895L861.223 415.478C861.758 415.611 862.072 416.149 861.925 416.681C861.777 417.212 861.223 417.535 860.688 417.402L854.315 415.819ZM867.077 419.495C866.532 419.402 866.177 418.89 866.284 418.35C866.39 417.81 866.918 417.447 867.463 417.539L873.894 418.629C874.439 418.721 874.795 419.234 874.688 419.773C874.581 420.313 874.053 420.676 873.508 420.584L867.077 419.495ZM805.498 393.369C804.963 393.236 804.649 392.698 804.797 392.166C804.944 391.635 805.498 391.312 806.033 391.445L812.406 393.028C812.941 393.161 813.255 393.7 813.108 394.231C812.96 394.762 812.406 395.085 811.871 394.952L805.498 393.369ZM831.988 399.794C831.453 399.661 831.139 399.122 831.287 398.591C831.434 398.059 831.988 397.736 832.523 397.869L838.896 399.453C839.431 399.586 839.745 400.124 839.598 400.655C839.45 401.187 838.897 401.51 838.361 401.377L831.988 399.794ZM818.26 397.045C817.715 396.953 817.36 396.44 817.466 395.9C817.573 395.36 818.101 394.997 818.646 395.09L825.077 396.179C825.622 396.271 825.977 396.784 825.871 397.324C825.764 397.864 825.236 398.227 824.691 398.134L818.26 397.045ZM844.75 403.469C844.205 403.377 843.85 402.865 843.957 402.325C844.063 401.785 844.591 401.422 845.136 401.514L851.568 402.604C852.112 402.696 852.468 403.208 852.361 403.748C852.254 404.288 851.726 404.651 851.181 404.559L844.75 403.469ZM858.479 406.218C857.943 406.085 857.629 405.547 857.777 405.015C857.924 404.484 858.478 404.161 859.013 404.294L865.386 405.877C865.921 406.01 866.235 406.549 866.088 407.08C865.94 407.611 865.387 407.934 864.852 407.801L858.479 406.218ZM871.24 409.894C870.695 409.802 870.34 409.289 870.447 408.749C870.553 408.209 871.082 407.846 871.626 407.939L878.058 409.028C878.603 409.12 878.958 409.633 878.851 410.173C878.745 410.713 878.216 411.076 877.672 410.983L871.24 409.894ZM809.662 383.768C809.126 383.636 808.812 383.097 808.96 382.566C809.107 382.034 809.661 381.711 810.196 381.844L816.569 383.427C817.104 383.56 817.418 384.099 817.271 384.63C817.123 385.162 816.57 385.485 816.034 385.352L809.662 383.768ZM836.152 390.193C835.616 390.06 835.302 389.521 835.45 388.99C835.597 388.459 836.151 388.136 836.686 388.269L843.059 389.852C843.594 389.985 843.909 390.523 843.761 391.055C843.613 391.586 843.06 391.909 842.525 391.776L836.152 390.193ZM822.423 387.444C821.878 387.352 821.523 386.839 821.63 386.299C821.736 385.76 822.264 385.397 822.809 385.489L829.241 386.578C829.785 386.671 830.141 387.183 830.034 387.723C829.928 388.263 829.399 388.626 828.855 388.534L822.423 387.444ZM848.913 393.869C848.369 393.776 848.013 393.264 848.12 392.724C848.226 392.184 848.755 391.821 849.299 391.913L855.731 393.003C856.276 393.095 856.631 393.608 856.524 394.148C856.418 394.688 855.89 395.05 855.345 394.958L848.913 393.869ZM862.642 396.617C862.107 396.485 861.792 395.946 861.94 395.415C862.088 394.883 862.641 394.56 863.176 394.693L869.549 396.276C870.084 396.409 870.399 396.948 870.251 397.479C870.103 398.011 869.55 398.334 869.015 398.201L862.642 396.617ZM875.404 400.293C874.859 400.201 874.503 399.688 874.61 399.148C874.717 398.609 875.245 398.246 875.79 398.338L882.221 399.427C882.766 399.52 883.121 400.032 883.014 400.572C882.908 401.112 882.38 401.475 881.835 401.383L875.404 400.293ZM840.315 380.592C839.78 380.459 839.466 379.921 839.613 379.389C839.761 378.858 840.314 378.535 840.849 378.668L847.222 380.251C847.758 380.384 848.072 380.923 847.924 381.454C847.777 381.985 847.223 382.308 846.688 382.176L840.315 380.592ZM826.586 377.843C826.042 377.751 825.686 377.239 825.793 376.699C825.9 376.159 826.428 375.796 826.973 375.888L833.404 376.978C833.949 377.07 834.304 377.582 834.197 378.122C834.091 378.662 833.563 379.025 833.018 378.933L826.586 377.843ZM853.077 384.268C852.532 384.176 852.177 383.663 852.283 383.123C852.39 382.583 852.918 382.22 853.463 382.313L859.894 383.402C860.439 383.494 860.794 384.007 860.687 384.547C860.581 385.087 860.053 385.45 859.508 385.357L853.077 384.268ZM817.011 374.959L817.546 373.035L817.011 374.959ZM817.011 374.959L813.825 374.168C812.533 373.847 813.067 371.923 814.359 372.244L817.546 373.035L820.732 373.827C822.024 374.148 821.49 376.072 820.198 375.751L817.011 374.959ZM869.992 387.808L870.526 385.884L869.992 387.808ZM870.526 385.884C871.818 386.205 871.284 388.129 869.992 387.808L866.805 387.017C865.513 386.696 866.048 384.772 867.34 385.093L870.526 385.884L873.713 386.676C875.005 386.997 874.47 388.921 873.178 388.6L869.992 387.808C868.699 387.487 869.234 385.563 870.526 385.884ZM879.567 390.692C879.022 390.6 878.667 390.088 878.773 389.548C878.88 389.008 879.408 388.645 879.953 388.737L886.384 389.827C886.929 389.919 887.284 390.431 887.178 390.971C887.071 391.511 886.543 391.874 885.998 391.782L879.567 390.692ZM691.601 414.276C691.061 414.162 690.728 413.635 690.856 413.099C690.985 412.563 691.528 412.222 692.068 412.336L698.498 413.698C699.038 413.812 699.371 414.339 699.242 414.875C699.114 415.41 698.571 415.752 698.031 415.637L691.601 414.276ZM695.425 404.546C694.885 404.431 694.552 403.905 694.681 403.369C694.81 402.833 695.352 402.492 695.892 402.606L702.322 403.967C702.862 404.082 703.196 404.609 703.067 405.144C702.938 405.68 702.396 406.022 701.856 405.907L695.425 404.546ZM718.324 419.779C717.784 419.665 717.451 419.138 717.58 418.602C717.709 418.066 718.251 417.725 718.791 417.839L725.221 419.2C725.761 419.315 726.095 419.842 725.966 420.377C725.837 420.913 725.295 421.255 724.755 421.14L718.324 419.779ZM722.149 410.049C721.609 409.934 721.276 409.407 721.404 408.872C721.533 408.336 722.075 407.994 722.615 408.109L729.046 409.47C729.586 409.584 729.919 410.111 729.79 410.647C729.662 411.183 729.119 411.524 728.579 411.41L722.149 410.049ZM704.496 417.507C703.947 417.433 703.574 416.934 703.661 416.391C703.749 415.848 704.264 415.468 704.813 415.541L711.284 416.407C711.832 416.481 712.206 416.98 712.118 417.523C712.031 418.066 711.515 418.447 710.967 418.373L704.496 417.507ZM708.32 407.777C707.772 407.703 707.398 407.204 707.486 406.661C707.573 406.118 708.089 405.738 708.637 405.811L715.108 406.677C715.657 406.751 716.03 407.25 715.943 407.793C715.855 408.336 715.34 408.716 714.791 408.643L708.32 407.777ZM731.219 423.01C730.671 422.936 730.297 422.437 730.385 421.894C730.472 421.351 730.988 420.971 731.536 421.044L738.007 421.91C738.556 421.984 738.929 422.483 738.842 423.026C738.754 423.569 738.239 423.949 737.69 423.876L731.219 423.01ZM735.044 413.279C734.495 413.206 734.122 412.707 734.209 412.164C734.297 411.621 734.812 411.24 735.361 411.314L741.832 412.18C742.38 412.253 742.754 412.753 742.666 413.296C742.578 413.839 742.063 414.219 741.515 414.146L735.044 413.279ZM745.048 425.282C744.508 425.167 744.175 424.64 744.303 424.105C744.432 423.569 744.974 423.227 745.514 423.342L751.945 424.703C752.485 424.817 752.818 425.344 752.689 425.88C752.56 426.416 752.018 426.757 751.478 426.643L745.048 425.282ZM748.872 415.551C748.332 415.437 747.999 414.91 748.128 414.374C748.257 413.839 748.799 413.497 749.339 413.612L755.769 414.973C756.309 415.087 756.643 415.614 756.514 416.15C756.385 416.686 755.843 417.027 755.303 416.913L748.872 415.551ZM757.942 428.512C757.394 428.439 757.021 427.94 757.108 427.397C757.196 426.854 757.711 426.473 758.259 426.547L764.731 427.413C765.279 427.486 765.652 427.986 765.565 428.529C765.477 429.072 764.962 429.452 764.414 429.379L757.942 428.512ZM761.767 418.782C761.219 418.709 760.845 418.209 760.933 417.667C761.02 417.124 761.536 416.743 762.084 416.817L768.555 417.683C769.104 417.756 769.477 418.256 769.389 418.799C769.302 419.341 768.787 419.722 768.238 419.649L761.767 418.782ZM699.25 394.816C698.71 394.701 698.377 394.174 698.505 393.639C698.634 393.103 699.176 392.761 699.717 392.876L706.147 394.237C706.687 394.351 707.02 394.878 706.891 395.414C706.763 395.95 706.22 396.291 705.68 396.177L699.25 394.816ZM725.973 400.318C725.433 400.204 725.1 399.677 725.229 399.141C725.358 398.606 725.9 398.264 726.44 398.379L732.87 399.74C733.41 399.854 733.744 400.381 733.615 400.917C733.486 401.453 732.944 401.794 732.404 401.68L725.973 400.318ZM712.145 398.046C711.596 397.973 711.223 397.474 711.31 396.931C711.398 396.388 711.913 396.007 712.462 396.081L718.933 396.947C719.481 397.02 719.855 397.52 719.767 398.063C719.68 398.606 719.164 398.986 718.616 398.913L712.145 398.046ZM738.868 403.549C738.32 403.476 737.946 402.976 738.034 402.433C738.121 401.891 738.637 401.51 739.185 401.584L745.656 402.45C746.205 402.523 746.578 403.023 746.49 403.566C746.403 404.108 745.888 404.489 745.339 404.416L738.868 403.549ZM752.697 405.821C752.157 405.707 751.823 405.18 751.952 404.644C752.081 404.109 752.623 403.767 753.163 403.881L759.594 405.243C760.134 405.357 760.467 405.884 760.338 406.42C760.209 406.955 759.667 407.297 759.127 407.183L752.697 405.821ZM765.591 409.052C765.043 408.979 764.67 408.479 764.757 407.936C764.845 407.393 765.36 407.013 765.908 407.086L772.38 407.953C772.928 408.026 773.301 408.526 773.214 409.068C773.126 409.611 772.611 409.992 772.063 409.918L765.591 409.052ZM703.074 385.085C702.534 384.971 702.201 384.444 702.33 383.908C702.459 383.373 703.001 383.031 703.541 383.145L709.971 384.507C710.511 384.621 710.845 385.148 710.716 385.684C710.587 386.22 710.045 386.561 709.505 386.447L703.074 385.085ZM729.798 390.588C729.258 390.474 728.925 389.947 729.053 389.411C729.182 388.876 729.724 388.534 730.264 388.648L736.695 390.01C737.235 390.124 737.568 390.651 737.439 391.187C737.311 391.722 736.768 392.064 736.228 391.95L729.798 390.588ZM715.969 388.316C715.421 388.243 715.047 387.743 715.135 387.2C715.222 386.658 715.738 386.277 716.286 386.351L722.757 387.217C723.306 387.29 723.679 387.79 723.592 388.333C723.504 388.875 722.989 389.256 722.44 389.183L715.969 388.316ZM742.693 393.819C742.144 393.746 741.771 393.246 741.858 392.703C741.946 392.16 742.461 391.78 743.009 391.853L749.481 392.72C750.029 392.793 750.403 393.293 750.315 393.835C750.227 394.378 749.712 394.759 749.164 394.685L742.693 393.819ZM756.521 396.091C755.981 395.977 755.648 395.45 755.777 394.914C755.906 394.378 756.448 394.037 756.988 394.151L763.418 395.513C763.958 395.627 764.292 396.154 764.163 396.689C764.034 397.225 763.492 397.567 762.952 397.452L756.521 396.091ZM769.416 399.322C768.868 399.248 768.494 398.749 768.582 398.206C768.669 397.663 769.185 397.283 769.733 397.356L776.204 398.222C776.752 398.296 777.126 398.795 777.038 399.338C776.951 399.881 776.436 400.262 775.887 400.188L769.416 399.322ZM706.899 375.355C706.359 375.241 706.026 374.714 706.154 374.178C706.283 373.643 706.825 373.301 707.365 373.415L713.796 374.777C714.336 374.891 714.669 375.418 714.54 375.954C714.412 376.489 713.869 376.831 713.329 376.717L706.899 375.355ZM733.622 380.858C733.082 380.744 732.749 380.217 732.878 379.681C733.007 379.145 733.549 378.804 734.089 378.918L740.519 380.28C741.059 380.394 741.393 380.921 741.264 381.456C741.135 381.992 740.593 382.334 740.053 382.219L733.622 380.858ZM719.794 378.586C719.245 378.513 718.872 378.013 718.959 377.47C719.047 376.927 719.562 376.547 720.111 376.62L726.582 377.487C727.13 377.56 727.504 378.06 727.416 378.602C727.328 379.145 726.813 379.526 726.265 379.452L719.794 378.586ZM746.517 384.089C745.969 384.015 745.595 383.516 745.683 382.973C745.77 382.43 746.286 382.05 746.834 382.123L753.305 382.989C753.854 383.063 754.227 383.562 754.139 384.105C754.052 384.648 753.537 385.029 752.988 384.955L746.517 384.089ZM760.346 386.361C759.806 386.246 759.472 385.72 759.601 385.184C759.73 384.648 760.272 384.307 760.812 384.421L767.243 385.782C767.783 385.897 768.116 386.424 767.987 386.959C767.858 387.495 767.316 387.837 766.776 387.722L760.346 386.361ZM773.24 389.592C772.692 389.518 772.319 389.019 772.406 388.476C772.494 387.933 773.009 387.553 773.557 387.626L780.029 388.492C780.577 388.566 780.95 389.065 780.863 389.608C780.775 390.151 780.26 390.531 779.712 390.458L773.24 389.592ZM710.723 365.625C710.183 365.511 709.85 364.984 709.979 364.448C710.108 363.912 710.65 363.571 711.19 363.685L717.62 365.047C718.16 365.161 718.494 365.688 718.365 366.223C718.236 366.759 717.694 367.101 717.154 366.986L710.723 365.625ZM737.447 371.128C736.907 371.013 736.574 370.487 736.702 369.951C736.831 369.415 737.373 369.074 737.913 369.188L744.344 370.549C744.884 370.664 745.217 371.191 745.088 371.726C744.959 372.262 744.417 372.604 743.877 372.489L737.447 371.128ZM723.618 368.856C723.07 368.782 722.696 368.283 722.784 367.74C722.871 367.197 723.387 366.817 723.935 366.89L730.406 367.756C730.955 367.83 731.328 368.329 731.241 368.872C731.153 369.415 730.638 369.796 730.089 369.722L723.618 368.856ZM750.341 374.359C749.793 374.285 749.42 373.786 749.507 373.243C749.595 372.7 750.11 372.32 750.658 372.393L757.13 373.259C757.678 373.333 758.051 373.832 757.964 374.375C757.876 374.918 757.361 375.298 756.813 375.225L750.341 374.359ZM764.17 376.631C763.63 376.516 763.297 375.989 763.426 375.454C763.555 374.918 764.097 374.576 764.637 374.691L771.067 376.052C771.607 376.166 771.941 376.693 771.812 377.229C771.683 377.765 771.141 378.106 770.601 377.992L764.17 376.631ZM777.065 379.861C776.517 379.788 776.143 379.288 776.231 378.746C776.318 378.203 776.834 377.822 777.382 377.896L783.853 378.762C784.401 378.835 784.775 379.335 784.687 379.878C784.6 380.421 784.084 380.801 783.536 380.728L777.065 379.861ZM741.271 361.398C740.731 361.283 740.398 360.756 740.527 360.221C740.656 359.685 741.198 359.343 741.738 359.458L748.168 360.819C748.708 360.933 749.042 361.46 748.913 361.996C748.784 362.532 748.242 362.873 747.702 362.759L741.271 361.398ZM727.443 359.126C726.894 359.052 726.521 358.553 726.608 358.01C726.696 357.467 727.211 357.086 727.759 357.16L734.231 358.026C734.779 358.1 735.153 358.599 735.065 359.142C734.977 359.685 734.462 360.065 733.914 359.992L727.443 359.126ZM754.166 364.628C753.618 364.555 753.244 364.055 753.332 363.513C753.419 362.97 753.935 362.589 754.483 362.663L760.954 363.529C761.503 363.602 761.876 364.102 761.788 364.645C761.701 365.188 761.186 365.568 760.637 365.495L754.166 364.628ZM717.763 356.575L718.23 354.636L717.763 356.575ZM717.763 356.575L714.548 355.895C713.244 355.619 713.711 353.679 715.014 353.955L718.23 354.636L721.445 355.316C722.749 355.592 722.282 357.532 720.978 357.256L717.763 356.575ZM771.21 367.581L771.677 365.641L771.21 367.581ZM771.677 365.641C772.98 365.917 772.514 367.857 771.21 367.581L767.995 366.9C766.691 366.624 767.158 364.684 768.461 364.96L771.677 365.641L774.892 366.322C776.195 366.598 775.729 368.538 774.425 368.262L771.21 367.581C769.906 367.305 770.373 365.365 771.677 365.641ZM780.889 370.131C780.341 370.058 779.968 369.558 780.055 369.015C780.143 368.473 780.658 368.092 781.206 368.165L787.678 369.032C788.226 369.105 788.599 369.605 788.512 370.148C788.424 370.69 787.909 371.071 787.361 370.998L780.889 370.131ZM609.469 401.312C608.927 401.207 608.584 400.686 608.704 400.149C608.823 399.611 609.359 399.26 609.901 399.365L616.358 400.615C616.9 400.72 617.243 401.241 617.123 401.779C617.004 402.316 616.467 402.667 615.925 402.562L609.469 401.312ZM613.122 391.522C612.58 391.417 612.237 390.896 612.357 390.358C612.476 389.821 613.013 389.47 613.555 389.575L620.011 390.825C620.553 390.93 620.896 391.451 620.776 391.988C620.657 392.526 620.121 392.877 619.579 392.772L613.122 391.522ZM636.297 406.352C635.755 406.247 635.412 405.726 635.531 405.188C635.651 404.651 636.187 404.3 636.729 404.405L643.186 405.655C643.728 405.76 644.07 406.28 643.951 406.818C643.832 407.356 643.295 407.706 642.753 407.601L636.297 406.352ZM639.95 396.561C639.408 396.456 639.065 395.935 639.185 395.398C639.304 394.86 639.84 394.509 640.383 394.614L646.839 395.864C647.381 395.969 647.724 396.49 647.604 397.028C647.485 397.565 646.949 397.916 646.407 397.811L639.95 396.561ZM622.424 404.319C621.875 404.255 621.492 403.762 621.57 403.218C621.648 402.674 622.157 402.285 622.707 402.349L629.195 403.103C629.745 403.167 630.127 403.66 630.049 404.204C629.971 404.748 629.462 405.137 628.913 405.073L622.424 404.319ZM626.078 394.529C625.528 394.465 625.146 393.972 625.223 393.428C625.301 392.884 625.81 392.495 626.36 392.559L632.848 393.313C633.398 393.377 633.78 393.87 633.702 394.414C633.624 394.958 633.116 395.347 632.566 395.283L626.078 394.529ZM649.252 409.358C648.703 409.295 648.32 408.802 648.398 408.258C648.476 407.714 648.985 407.324 649.534 407.388L656.023 408.143C656.573 408.207 656.955 408.7 656.877 409.244C656.799 409.788 656.29 410.177 655.741 410.113L649.252 409.358ZM652.906 399.568C652.356 399.504 651.973 399.011 652.051 398.467C652.129 397.923 652.638 397.534 653.188 397.598L659.676 398.352C660.226 398.416 660.608 398.909 660.53 399.453C660.452 399.997 659.944 400.386 659.394 400.322L652.906 399.568ZM663.125 411.391C662.583 411.286 662.24 410.765 662.359 410.227C662.479 409.69 663.015 409.339 663.557 409.444L670.013 410.694C670.556 410.799 670.898 411.32 670.779 411.857C670.66 412.395 670.123 412.746 669.581 412.641L663.125 411.391ZM666.778 401.6C666.236 401.495 665.893 400.975 666.013 400.437C666.132 399.899 666.668 399.549 667.211 399.654L673.667 400.903C674.209 401.008 674.552 401.529 674.432 402.067C674.313 402.605 673.777 402.955 673.234 402.85L666.778 401.6ZM676.08 414.398C675.53 414.334 675.148 413.841 675.226 413.297C675.304 412.753 675.813 412.364 676.362 412.428L682.851 413.182C683.4 413.246 683.783 413.739 683.705 414.283C683.627 414.827 683.118 415.216 682.568 415.152L676.08 414.398ZM679.733 404.607C679.184 404.543 678.801 404.051 678.879 403.507C678.957 402.963 679.466 402.573 680.016 402.637L686.504 403.392C687.054 403.456 687.436 403.948 687.358 404.492C687.28 405.036 686.771 405.426 686.222 405.362L679.733 404.607ZM616.776 381.731C616.234 381.626 615.891 381.105 616.01 380.568C616.13 380.03 616.666 379.679 617.208 379.784L623.664 381.034C624.206 381.139 624.549 381.66 624.43 382.198C624.31 382.735 623.774 383.086 623.232 382.981L616.776 381.731ZM643.604 386.771C643.061 386.666 642.719 386.145 642.838 385.607C642.958 385.069 643.494 384.719 644.036 384.824L650.492 386.074C651.034 386.179 651.377 386.699 651.258 387.237C651.138 387.775 650.602 388.125 650.06 388.02L643.604 386.771ZM629.731 384.738C629.181 384.674 628.799 384.181 628.877 383.637C628.955 383.093 629.464 382.704 630.013 382.768L636.502 383.522C637.051 383.586 637.434 384.079 637.356 384.623C637.278 385.167 636.769 385.556 636.219 385.492L629.731 384.738ZM656.559 389.777C656.009 389.713 655.627 389.221 655.705 388.677C655.783 388.133 656.291 387.743 656.841 387.807L663.33 388.562C663.879 388.626 664.262 389.118 664.184 389.662C664.106 390.206 663.597 390.596 663.047 390.532L656.559 389.777ZM670.432 391.81C669.889 391.705 669.547 391.184 669.666 390.646C669.785 390.109 670.322 389.758 670.864 389.863L677.32 391.113C677.862 391.218 678.205 391.739 678.086 392.276C677.966 392.814 677.43 393.165 676.888 393.06L670.432 391.81ZM683.387 394.817C682.837 394.753 682.455 394.26 682.533 393.716C682.611 393.172 683.119 392.783 683.669 392.847L690.157 393.601C690.707 393.665 691.089 394.158 691.012 394.702C690.934 395.246 690.425 395.635 689.875 395.571L683.387 394.817ZM620.429 371.941C619.887 371.836 619.544 371.315 619.664 370.777C619.783 370.24 620.319 369.889 620.861 369.994L627.318 371.244C627.86 371.349 628.203 371.87 628.083 372.407C627.964 372.945 627.427 373.295 626.885 373.19L620.429 371.941ZM647.257 376.98C646.715 376.875 646.372 376.354 646.491 375.817C646.611 375.279 647.147 374.928 647.689 375.033L654.146 376.283C654.688 376.388 655.03 376.909 654.911 377.446C654.792 377.984 654.255 378.335 653.713 378.23L647.257 376.98ZM633.384 374.947C632.835 374.884 632.452 374.391 632.53 373.847C632.608 373.303 633.117 372.914 633.667 372.977L640.155 373.732C640.705 373.796 641.087 374.289 641.009 374.833C640.931 375.377 640.422 375.766 639.873 375.702L633.384 374.947ZM660.212 379.987C659.663 379.923 659.28 379.43 659.358 378.886C659.436 378.342 659.945 377.953 660.494 378.017L666.983 378.771C667.533 378.835 667.915 379.328 667.837 379.872C667.759 380.416 667.25 380.805 666.701 380.741L660.212 379.987ZM674.085 382.019C673.543 381.914 673.2 381.393 673.319 380.856C673.439 380.318 673.975 379.968 674.517 380.073L680.973 381.322C681.516 381.427 681.858 381.948 681.739 382.486C681.62 383.024 681.083 383.374 680.541 383.269L674.085 382.019ZM687.04 385.026C686.49 384.962 686.108 384.47 686.186 383.926C686.264 383.381 686.773 382.992 687.322 383.056L693.811 383.811C694.36 383.874 694.743 384.367 694.665 384.911C694.587 385.455 694.078 385.845 693.528 385.781L687.04 385.026ZM624.082 362.15C623.54 362.045 623.197 361.524 623.317 360.987C623.436 360.449 623.973 360.098 624.515 360.203L630.971 361.453C631.513 361.558 631.856 362.079 631.736 362.617C631.617 363.154 631.081 363.505 630.539 363.4L624.082 362.15ZM650.91 367.189C650.368 367.084 650.025 366.564 650.145 366.026C650.264 365.488 650.8 365.138 651.343 365.243L657.799 366.492C658.341 366.597 658.684 367.118 658.564 367.656C658.445 368.194 657.909 368.544 657.367 368.439L650.91 367.189ZM637.038 365.157C636.488 365.093 636.106 364.6 636.184 364.056C636.261 363.512 636.77 363.123 637.32 363.187L643.808 363.941C644.358 364.005 644.74 364.498 644.662 365.042C644.584 365.586 644.076 365.975 643.526 365.911L637.038 365.157ZM663.866 370.196C663.316 370.132 662.933 369.64 663.011 369.096C663.089 368.552 663.598 368.162 664.148 368.226L670.636 368.981C671.186 369.045 671.568 369.537 671.49 370.081C671.412 370.625 670.904 371.015 670.354 370.951L663.866 370.196ZM677.738 372.229C677.196 372.124 676.853 371.603 676.973 371.065C677.092 370.528 677.628 370.177 678.171 370.282L684.627 371.532C685.169 371.637 685.512 372.158 685.392 372.695C685.273 373.233 684.737 373.584 684.194 373.479L677.738 372.229ZM690.693 375.236C690.144 375.172 689.761 374.679 689.839 374.135C689.917 373.591 690.426 373.202 690.976 373.266L697.464 374.02C698.014 374.084 698.396 374.577 698.318 375.121C698.24 375.665 697.731 376.054 697.182 375.99L690.693 375.236ZM627.736 352.36C627.194 352.255 626.851 351.734 626.97 351.196C627.09 350.658 627.626 350.308 628.168 350.413L634.624 351.663C635.166 351.768 635.509 352.288 635.39 352.826C635.27 353.364 634.734 353.714 634.192 353.609L627.736 352.36ZM654.564 357.399C654.021 357.294 653.679 356.773 653.798 356.235C653.918 355.698 654.454 355.347 654.996 355.452L661.452 356.702C661.994 356.807 662.337 357.328 662.218 357.865C662.098 358.403 661.562 358.754 661.02 358.649L654.564 357.399ZM640.691 355.366C640.141 355.303 639.759 354.81 639.837 354.266C639.915 353.722 640.424 353.332 640.973 353.396L647.462 354.151C648.011 354.215 648.394 354.707 648.316 355.251C648.238 355.795 647.729 356.185 647.179 356.121L640.691 355.366ZM667.519 360.406C666.969 360.342 666.587 359.849 666.665 359.305C666.743 358.761 667.251 358.372 667.801 358.436L674.29 359.19C674.839 359.254 675.222 359.747 675.144 360.291C675.066 360.835 674.557 361.224 674.007 361.16L667.519 360.406ZM681.392 362.438C680.849 362.333 680.507 361.812 680.626 361.275C680.745 360.737 681.282 360.386 681.824 360.491L688.28 361.741C688.822 361.846 689.165 362.367 689.046 362.905C688.926 363.442 688.39 363.793 687.848 363.688L681.392 362.438ZM694.347 365.445C693.797 365.381 693.415 364.888 693.493 364.344C693.571 363.8 694.079 363.411 694.629 363.475L701.117 364.23C701.667 364.293 702.05 364.786 701.972 365.33C701.894 365.874 701.385 366.263 700.835 366.2L694.347 365.445ZM658.217 347.608C657.675 347.503 657.332 346.982 657.451 346.445C657.571 345.907 658.107 345.557 658.649 345.662L665.106 346.911C665.648 347.016 665.99 347.537 665.871 348.075C665.752 348.612 665.215 348.963 664.673 348.858L658.217 347.608ZM644.344 345.576C643.795 345.512 643.412 345.019 643.49 344.475C643.568 343.931 644.077 343.542 644.627 343.606L651.115 344.36C651.665 344.424 652.047 344.917 651.969 345.461C651.891 346.005 651.382 346.394 650.833 346.33L644.344 345.576ZM671.172 350.615C670.623 350.551 670.24 350.059 670.318 349.514C670.396 348.97 670.905 348.581 671.454 348.645L677.943 349.4C678.493 349.463 678.875 349.956 678.797 350.5C678.719 351.044 678.21 351.434 677.661 351.37L671.172 350.615ZM634.617 343.194L635.05 341.247L634.617 343.194ZM634.617 343.194L631.389 342.569C630.08 342.316 630.513 340.369 631.821 340.622L635.05 341.247L638.278 341.872C639.587 342.125 639.154 344.072 637.845 343.819L634.617 343.194ZM688.273 353.273L688.705 351.326L688.273 353.273ZM688.705 351.326C690.014 351.579 689.582 353.526 688.273 353.273L685.045 352.648C683.736 352.394 684.168 350.447 685.477 350.701L688.705 351.326L691.933 351.951C693.242 352.204 692.81 354.151 691.501 353.898L688.273 353.273C686.964 353.019 687.396 351.072 688.705 351.326ZM698 355.655C697.45 355.591 697.068 355.098 697.146 354.554C697.224 354.01 697.733 353.621 698.282 353.685L704.771 354.439C705.32 354.503 705.703 354.996 705.625 355.54C705.547 356.084 705.038 356.473 704.488 356.409L698 355.655ZM679.718 513.328C679.579 513.862 679.032 514.194 678.494 514.07C677.956 513.947 677.632 513.414 677.771 512.88L679.417 506.526C679.555 505.992 680.103 505.66 680.641 505.784C681.178 505.907 681.502 506.44 681.364 506.974L679.718 513.328ZM670.013 509.617C669.874 510.151 669.327 510.483 668.789 510.359C668.251 510.236 667.927 509.703 668.066 509.169L669.712 502.815C669.85 502.281 670.398 501.949 670.936 502.073C671.473 502.196 671.797 502.729 671.659 503.263L670.013 509.617ZM686.402 486.922C686.263 487.456 685.715 487.788 685.178 487.665C684.64 487.541 684.316 487.008 684.454 486.475L686.101 480.12C686.239 479.587 686.787 479.254 687.324 479.378C687.862 479.502 688.186 480.035 688.048 480.568L686.402 486.922ZM676.697 483.211C676.558 483.745 676.01 484.077 675.473 483.954C674.935 483.83 674.611 483.297 674.749 482.764L676.396 476.409C676.534 475.876 677.082 475.543 677.619 475.667C678.157 475.791 678.481 476.324 678.343 476.857L676.697 483.211ZM683.526 500.583C683.429 501.124 682.907 501.496 682.361 501.413C681.814 501.331 681.45 500.824 681.547 500.283L682.693 493.892C682.79 493.35 683.312 492.978 683.858 493.061C684.405 493.144 684.769 493.65 684.672 494.192L683.526 500.583ZM673.821 496.872C673.724 497.414 673.202 497.785 672.656 497.702C672.109 497.62 671.745 497.113 671.842 496.572L672.988 490.181C673.085 489.639 673.607 489.267 674.153 489.35C674.7 489.433 675.064 489.939 674.967 490.481L673.821 496.872ZM690.21 474.177C690.113 474.719 689.591 475.091 689.045 475.008C688.498 474.925 688.134 474.419 688.231 473.877L689.377 467.486C689.474 466.944 689.995 466.573 690.542 466.656C691.089 466.738 691.453 467.245 691.356 467.786L690.21 474.177ZM680.505 470.466C680.408 471.008 679.886 471.38 679.34 471.297C678.793 471.214 678.429 470.708 678.526 470.166L679.672 463.775C679.769 463.234 680.29 462.862 680.837 462.945C681.384 463.027 681.748 463.534 681.651 464.075L680.505 470.466ZM693.085 460.517C692.947 461.05 692.399 461.383 691.861 461.259C691.324 461.135 691 460.602 691.138 460.069L692.784 453.715C692.923 453.181 693.471 452.849 694.008 452.972C694.546 453.096 694.87 453.629 694.731 454.162L693.085 460.517ZM683.38 456.806C683.242 457.339 682.694 457.672 682.157 457.548C681.619 457.424 681.295 456.892 681.433 456.358L683.079 450.004C683.218 449.47 683.766 449.138 684.303 449.261C684.841 449.385 685.165 449.918 685.026 450.452L683.38 456.806ZM696.894 447.772C696.797 448.313 696.275 448.685 695.728 448.602C695.182 448.519 694.817 448.013 694.914 447.472L696.06 441.08C696.157 440.539 696.679 440.167 697.226 440.25C697.773 440.333 698.137 440.839 698.04 441.38L696.894 447.772ZM687.189 444.061C687.092 444.602 686.57 444.974 686.023 444.891C685.477 444.808 685.112 444.302 685.209 443.761L686.355 437.369C686.452 436.828 686.974 436.456 687.521 436.539C688.068 436.622 688.432 437.128 688.335 437.669L687.189 444.061ZM660.308 505.906C660.169 506.44 659.622 506.772 659.084 506.648C658.546 506.525 658.222 505.992 658.361 505.458L660.007 499.104C660.145 498.571 660.693 498.238 661.231 498.362C661.768 498.486 662.092 499.018 661.954 499.552L660.308 505.906ZM666.992 479.5C666.853 480.034 666.305 480.366 665.768 480.243C665.23 480.119 664.906 479.586 665.044 479.053L666.691 472.699C666.829 472.165 667.377 471.833 667.914 471.956C668.452 472.08 668.776 472.613 668.638 473.146L666.992 479.5ZM664.116 493.161C664.019 493.703 663.497 494.074 662.951 493.992C662.404 493.909 662.04 493.403 662.137 492.861L663.283 486.47C663.38 485.928 663.902 485.557 664.448 485.639C664.995 485.722 665.359 486.228 665.262 486.77L664.116 493.161ZM670.8 466.755C670.703 467.297 670.181 467.669 669.635 467.586C669.088 467.503 668.724 466.997 668.821 466.455L669.967 460.064C670.064 459.523 670.586 459.151 671.132 459.234C671.679 459.317 672.043 459.823 671.946 460.364L670.8 466.755ZM673.675 453.095C673.537 453.628 672.989 453.961 672.452 453.837C671.914 453.713 671.59 453.181 671.728 452.647L673.374 446.293C673.513 445.759 674.061 445.427 674.598 445.551C675.136 445.674 675.46 446.207 675.321 446.741L673.675 453.095ZM677.484 440.35C677.387 440.891 676.865 441.263 676.318 441.18C675.772 441.097 675.407 440.591 675.504 440.05L676.65 433.658C676.747 433.117 677.269 432.745 677.816 432.828C678.363 432.911 678.727 433.417 678.63 433.958L677.484 440.35ZM650.603 502.195C650.464 502.729 649.917 503.061 649.379 502.938C648.841 502.814 648.517 502.281 648.656 501.747L650.302 495.393C650.44 494.86 650.988 494.527 651.526 494.651C652.063 494.775 652.387 495.307 652.249 495.841L650.603 502.195ZM657.287 475.79C657.148 476.323 656.6 476.656 656.063 476.532C655.525 476.408 655.201 475.875 655.339 475.342L656.986 468.988C657.124 468.454 657.672 468.122 658.209 468.245C658.747 468.369 659.071 468.902 658.933 469.435L657.287 475.79ZM654.411 489.45C654.314 489.992 653.792 490.363 653.246 490.281C652.699 490.198 652.335 489.692 652.432 489.15L653.578 482.759C653.675 482.217 654.197 481.846 654.743 481.928C655.29 482.011 655.654 482.517 655.557 483.059L654.411 489.45ZM661.095 463.045C660.998 463.586 660.476 463.958 659.93 463.875C659.383 463.792 659.019 463.286 659.116 462.745L660.262 456.353C660.359 455.812 660.881 455.44 661.427 455.523C661.974 455.606 662.338 456.112 662.241 456.653L661.095 463.045ZM663.97 449.384C663.832 449.918 663.284 450.25 662.747 450.126C662.209 450.003 661.885 449.47 662.023 448.936L663.669 442.582C663.808 442.048 664.356 441.716 664.893 441.84C665.431 441.963 665.755 442.496 665.616 443.03L663.97 449.384ZM667.779 436.639C667.682 437.18 667.16 437.552 666.613 437.469C666.067 437.386 665.702 436.88 665.799 436.339L666.945 429.947C667.042 429.406 667.564 429.034 668.111 429.117C668.658 429.2 669.022 429.706 668.925 430.248L667.779 436.639ZM640.898 498.484C640.76 499.018 640.212 499.35 639.674 499.227C639.136 499.103 638.812 498.57 638.951 498.037L640.597 491.682C640.735 491.149 641.283 490.816 641.821 490.94C642.358 491.064 642.682 491.597 642.544 492.13L640.898 498.484ZM647.582 472.079C647.443 472.612 646.895 472.945 646.358 472.821C645.82 472.697 645.496 472.164 645.634 471.631L647.281 465.277C647.419 464.743 647.967 464.411 648.504 464.534C649.042 464.658 649.366 465.191 649.228 465.724L647.582 472.079ZM644.706 485.739C644.609 486.281 644.087 486.653 643.541 486.57C642.994 486.487 642.63 485.981 642.727 485.439L643.873 479.048C643.97 478.506 644.492 478.135 645.038 478.218C645.585 478.3 645.949 478.807 645.852 479.348L644.706 485.739ZM651.39 459.334C651.293 459.875 650.771 460.247 650.225 460.164C649.678 460.081 649.314 459.575 649.411 459.034L650.557 452.642C650.654 452.101 651.176 451.729 651.722 451.812C652.269 451.895 652.633 452.401 652.536 452.942L651.39 459.334ZM654.265 445.673C654.127 446.207 653.579 446.539 653.041 446.415C652.504 446.292 652.18 445.759 652.318 445.225L653.964 438.871C654.103 438.337 654.651 438.005 655.188 438.129C655.726 438.252 656.05 438.785 655.911 439.319L654.265 445.673ZM658.074 432.928C657.977 433.469 657.455 433.841 656.908 433.758C656.362 433.675 655.997 433.169 656.094 432.628L657.24 426.237C657.337 425.695 657.859 425.323 658.406 425.406C658.953 425.489 659.317 425.995 659.22 426.537L658.074 432.928ZM631.193 494.773C631.055 495.307 630.507 495.639 629.969 495.516C629.431 495.392 629.107 494.859 629.246 494.326L630.892 487.971C631.03 487.438 631.578 487.105 632.116 487.229C632.653 487.353 632.977 487.886 632.839 488.419L631.193 494.773ZM637.877 468.368C637.738 468.901 637.19 469.234 636.653 469.11C636.115 468.986 635.791 468.454 635.929 467.92L637.576 461.566C637.714 461.032 638.262 460.7 638.799 460.823C639.337 460.947 639.661 461.48 639.523 462.014L637.877 468.368ZM635.001 482.028C634.904 482.57 634.382 482.942 633.836 482.859C633.289 482.776 632.925 482.27 633.022 481.728L634.168 475.337C634.265 474.796 634.787 474.424 635.333 474.507C635.88 474.589 636.244 475.096 636.147 475.637L635.001 482.028ZM641.685 455.623C641.588 456.164 641.066 456.536 640.52 456.453C639.973 456.37 639.609 455.864 639.706 455.323L640.852 448.931C640.949 448.39 641.47 448.018 642.017 448.101C642.564 448.184 642.928 448.69 642.831 449.231L641.685 455.623ZM644.56 441.962C644.422 442.496 643.874 442.828 643.337 442.704C642.799 442.581 642.475 442.048 642.613 441.514L644.259 435.16C644.398 434.626 644.946 434.294 645.483 434.418C646.021 434.541 646.345 435.074 646.206 435.608L644.56 441.962ZM648.369 429.217C648.272 429.758 647.75 430.13 647.203 430.047C646.657 429.965 646.292 429.458 646.389 428.917L647.535 422.526C647.632 421.984 648.154 421.612 648.701 421.695C649.248 421.778 649.612 422.284 649.515 422.826L648.369 429.217ZM628.172 464.657C628.033 465.19 627.485 465.523 626.948 465.399C626.41 465.275 626.086 464.743 626.224 464.209L627.871 457.855C628.009 457.321 628.557 456.989 629.094 457.113C629.632 457.236 629.956 457.769 629.818 458.303L628.172 464.657ZM625.296 478.317C625.199 478.859 624.677 479.231 624.131 479.148C623.584 479.065 623.22 478.559 623.317 478.017L624.463 471.626C624.56 471.085 625.082 470.713 625.628 470.796C626.175 470.879 626.539 471.385 626.442 471.926L625.296 478.317ZM631.98 451.912C631.883 452.453 631.361 452.825 630.815 452.742C630.268 452.659 629.904 452.153 630.001 451.612L631.147 445.22C631.244 444.679 631.766 444.307 632.312 444.39C632.859 444.473 633.223 444.979 633.126 445.52L631.98 451.912ZM622.311 487.885L620.364 487.438L622.311 487.885ZM622.311 487.885L621.488 491.062C621.154 492.351 619.207 491.903 619.541 490.615L620.364 487.438L621.187 484.261C621.52 482.972 623.468 483.42 623.134 484.708L622.311 487.885ZM635.678 435.074L633.731 434.626L635.678 435.074ZM633.731 434.626C634.065 433.338 636.012 433.786 635.678 435.074L634.855 438.251C634.522 439.539 632.575 439.092 632.908 437.803L633.731 434.626L634.554 431.449C634.888 430.161 636.835 430.609 636.501 431.897L635.678 435.074C635.345 436.362 633.398 435.915 633.731 434.626ZM638.664 425.506C638.567 426.048 638.045 426.419 637.498 426.336C636.952 426.254 636.587 425.748 636.684 425.206L637.83 418.815C637.928 418.273 638.449 417.901 638.996 417.984C639.543 418.067 639.907 418.573 639.81 419.115L638.664 425.506Z" fill="#002D6F"/>
</g>
<path d="M908.61 520.846C833.843 507.612 804.42 466.726 815.484 403.741C826.5 341.025 868.031 312.978 942.798 326.212C1017.3 339.398 1046.99 380.331 1036.02 442.777C1025 505.492 983.108 534.033 908.61 520.846ZM915.739 480.259C958.664 487.857 981.991 469.876 988.237 434.318C994.435 399.031 978.593 374.397 935.669 366.799C892.744 359.201 869.512 376.639 863.267 412.197C856.973 448.027 872.815 472.661 915.739 480.259Z" fill="#56AAFF"/>
<path d="M908.61 520.846C833.843 507.612 804.42 466.726 815.484 403.741C826.5 341.025 868.031 312.978 942.798 326.212C1017.3 339.398 1046.99 380.331 1036.02 442.777C1025 505.492 983.108 534.033 908.61 520.846ZM915.739 480.259C958.664 487.857 981.991 469.876 988.237 434.318C994.435 399.031 978.593 374.397 935.669 366.799C892.744 359.201 869.512 376.639 863.267 412.197C856.973 448.027 872.815 472.661 915.739 480.259Z" fill="#56AAFF"/>
<path d="M837.569 352.287C850.795 358.413 870.85 366.887 886.827 373.102C874.345 380.863 866.687 394.273 863.489 412.41C857.185 448.161 873.108 472.752 916.223 480.354C959.338 487.956 982.759 470.024 989.015 434.544C993.922 406.714 985.003 385.519 959.76 374.103L995.247 343.847C1031.56 364.123 1044.95 397.96 1037.01 443.008C1025.98 505.586 983.911 534.047 909.082 520.853C833.983 507.611 804.412 466.797 815.494 403.948C819.254 382.621 826.577 365.314 837.569 352.287Z" fill="#56AAFF"/>
<path fill-rule="evenodd" clip-rule="evenodd" d="M938.16 288.668C935.638 286.525 933.862 283.485 933.365 279.95C932.289 272.293 937.623 265.214 945.28 264.138C952.937 263.062 960.016 268.397 961.092 276.053C962.168 283.71 956.834 290.789 949.177 291.865C948.347 291.982 947.523 292.023 946.713 291.995C962.509 299.187 968.68 309.022 965.229 321.502C960.895 337.168 960.895 349.002 965.229 357.002L882.229 341.002C887.082 334.453 890.082 329.453 891.229 326.002C896.904 308.923 896.961 297.502 897.729 297.502C898.729 297.502 910.395 294.002 932.729 287.002C934.619 287.535 936.429 288.09 938.16 288.668Z" fill="#002D6F"/>
<path d="M960.916 321.493C960.828 305.56 949.451 291.11 932.999 287.503L928.052 286.418C909.204 282.285 890.83 293.948 887.014 312.468L884.911 322.674C882.257 335.557 890.734 348.331 903.846 351.206L916.313 353.94L909.526 386.992C913.316 391.147 919.087 393.927 926.838 395.332C934.588 396.737 941.106 395.981 946.391 393.063L958.186 334.998C959.064 332.952 959.75 330.786 960.217 328.518C960.698 326.186 960.925 323.856 960.916 321.556L960.929 321.491L960.916 321.493Z" fill="#FF9C99"/>
<mask id="mask2" mask-type="alpha" maskUnits="userSpaceOnUse" x="884" y="285" width="77" height="112">
<path d="M960.833 321.288C960.809 305.327 949.533 290.898 933.157 287.354L928.234 286.288C909.473 282.228 891.121 293.99 887.245 312.559L885.109 322.792C882.412 335.71 890.806 348.472 903.857 351.296L916.267 353.982L909.372 387.122C913.132 391.269 918.869 394.03 926.585 395.405C934.301 396.78 940.797 395.994 946.074 393.049L958.058 334.829C958.941 332.775 959.633 330.603 960.108 328.329C960.596 325.99 960.832 323.655 960.833 321.351L960.846 321.286L960.833 321.288Z" fill="#FF9C99"/>
</mask>
<g mask="url(#mask2)">
<path fill-rule="evenodd" clip-rule="evenodd" d="M915.379 353.807L934.451 353.419L913.405 359.774L915.379 353.807ZM888.646 306.383C892.564 296.779 897.085 290.111 902.211 286.38C907.338 282.648 916.909 279.056 930.926 275.603L972.444 303.709L957.985 343.093L954.54 355.03L950.23 335.424L929.896 315.314L915.193 312.131L916.381 306.44L906.616 310.274L888.646 306.383Z" fill="#002D6F"/>
</g>
<path d="M785.144 626.313L768.924 682.879L716.68 667.898L704.515 710.323L637.345 691.062L649.51 648.638L465.165 595.778L481.385 539.211L712.043 430.56L779.213 449.821L732.9 611.332L785.144 626.313ZM554.447 560.141L665.953 592.115L693.241 496.95L554.447 560.141Z" fill="#56AAFF"/>
<mask id="mask3" mask-type="alpha" maskUnits="userSpaceOnUse" x="465" y="430" width="321" height="281">
<path d="M785.144 626.313L768.924 682.879L716.68 667.898L704.515 710.323L637.345 691.062L649.51 648.638L465.165 595.778L481.385 539.211L712.043 430.56L779.213 449.821L732.9 611.332L785.144 626.313ZM554.447 560.141L665.953 592.115L693.241 496.95L554.447 560.141Z" fill="#56AAFF"/>
</mask>
<g mask="url(#mask3)">
<path fill-rule="evenodd" clip-rule="evenodd" d="M606.228 581.502L614.228 661.002L595.728 708.502L628.228 727.002L681.228 773.002L692.728 763.502C700.957 754.79 705.624 747.623 706.728 742.002C707.832 736.381 725.666 736.381 760.228 742.002L692.728 557.502L606.228 581.502Z" fill="#002D6F"/>
</g>
<path d="M1331.45 590.353L1362.64 640.257L1316.55 669.057L1339.93 706.485L1280.67 743.515L1257.29 706.087L1094.65 807.711L1063.47 757.807L1137.07 513.694L1196.33 476.664L1285.36 619.153L1331.45 590.353ZM1127.91 717.517L1226.28 656.046L1173.82 572.089L1127.91 717.517Z" fill="#56AAFF"/>
<mask id="mask4" mask-type="alpha" maskUnits="userSpaceOnUse" x="1063" y="476" width="300" height="332">
<path d="M1331.45 590.352L1362.64 640.256L1316.55 669.056L1339.93 706.484L1280.67 743.514L1257.29 706.086L1094.65 807.71L1063.47 757.806L1137.07 513.693L1196.33 476.663L1285.36 619.152L1331.45 590.352ZM1127.91 717.516L1226.28 656.045L1173.82 572.088L1127.91 717.516Z" fill="#56AAFF"/>
</mask>
<g mask="url(#mask4)">
<path fill-rule="evenodd" clip-rule="evenodd" d="M1093.23 691.501C1091.9 691.501 1083.73 720.001 1068.73 777.001L1095.23 817.001L1186.73 777.501L1172.23 684.501C1120.9 689.168 1094.56 691.501 1093.23 691.501Z" fill="#002D6F"/>
</g>
<path fill-rule="evenodd" clip-rule="evenodd" d="M906.729 310.502L883.229 305.502C894.895 286.835 910.729 280.502 930.729 286.502C947.631 291.572 934.323 291.074 911.229 299.002C908.407 299.97 906.907 303.804 906.729 310.502Z" fill="#002D6F"/>
<path d="M891.584 318.37C891.68 318.857 891.728 319.412 891.728 320.001C891.728 321.933 891.205 323.501 890.228 323.501C889.251 323.501 888.728 321.933 888.728 320.001C888.728 319.068 888.85 318.22 889.087 317.592C886.688 317.031 884.621 317.074 882.76 317.707C882.237 317.885 881.669 317.606 881.491 317.083C881.313 316.56 881.593 315.992 882.115 315.814C884.938 314.853 888.076 315.025 891.75 316.286C893.519 316.893 895.56 318.414 897.924 320.843C898.31 321.238 898.301 321.871 897.905 322.257C897.51 322.642 896.877 322.633 896.491 322.238C894.566 320.26 892.918 318.972 891.584 318.37ZM919.494 324.978C919.649 325.55 919.728 326.248 919.728 327.001C919.728 328.933 919.205 330.501 918.228 330.501C917.251 330.501 916.728 328.933 916.728 327.001C916.728 325.971 916.877 325.044 917.164 324.403C915.152 324.052 913.378 324.156 911.76 324.707C911.237 324.885 910.669 324.606 910.491 324.083C910.313 323.56 910.593 322.992 911.115 322.814C913.938 321.853 917.076 322.025 920.75 323.286C922.519 323.893 924.56 325.414 926.924 327.843C927.31 328.238 927.301 328.871 926.905 329.257C926.51 329.642 925.877 329.633 925.491 329.238C923.326 327.014 921.512 325.662 920.101 325.177C919.896 325.107 919.694 325.041 919.494 324.978ZM906.578 322.028L900.836 331.303L904.424 332.021C904.966 332.129 905.317 332.656 905.209 333.197C905.1 333.739 904.574 334.09 904.032 333.982L899.032 332.982C898.348 332.845 898.011 332.068 898.378 331.475L904.878 320.975C905.169 320.505 905.785 320.36 906.255 320.651C906.724 320.942 906.869 321.558 906.578 322.028ZM897.824 339.497C897.275 339.55 896.786 339.147 896.733 338.598C896.68 338.048 897.082 337.559 897.632 337.506L913.132 336.006C913.682 335.953 914.17 336.355 914.224 336.905C914.277 337.455 913.874 337.943 913.324 337.997L897.824 339.497Z" fill="#002D6F"/>
<path fill-rule="evenodd" clip-rule="evenodd" d="M940.44 328.259C945.574 323.125 950.51 322.73 955.249 327.074C962.358 333.591 954.311 345.772 945.831 345.591C940.178 345.47 938.381 339.693 940.44 328.259Z" fill="#FF9C99"/>
<path fill-rule="evenodd" clip-rule="evenodd" d="M627.173 581.053L618.868 601.222C617.274 605.095 613.695 607.79 609.532 608.252C608.985 608.313 608.431 608.279 607.896 608.151C605.33 607.538 603.747 604.962 604.36 602.396L618.782 542.002L621.017 541.036C632.142 536.225 644.527 535.153 656.313 537.982C680.722 543.84 694.545 550.68 697.782 558.502C701.571 567.659 709.099 590.424 720.365 626.797C721.397 630.131 719.532 633.671 716.198 634.703C716.143 634.72 716.088 634.737 716.032 634.752C712.495 635.743 708.788 633.866 707.492 630.429L690.544 585.498C689.294 582.185 685.598 580.509 682.282 581.752C678.885 583.026 677.022 586.682 677.988 590.179L688.472 628.137C689.666 632.46 687.129 636.932 682.807 638.126C682.633 638.174 682.458 638.216 682.282 638.252C677.502 639.236 672.78 636.339 671.492 631.632L661.097 593.637C660.159 590.207 656.619 588.188 653.189 589.126C653.052 589.164 652.916 589.206 652.782 589.252C649.073 590.536 646.909 594.389 647.741 598.224L656.184 637.136C656.826 640.094 654.948 643.013 651.99 643.655C651.429 643.776 650.853 643.809 650.282 643.752C645.782 643.302 642.046 640.079 640.941 635.693L627.173 581.053ZM1140.94 669.745C1149.37 667.886 1158.17 670.165 1164.64 675.879L1176.1 686.002L1165.1 712.502L1141.06 772.877C1139.48 776.865 1135.04 778.901 1130.98 777.502C1130.89 777.471 1130.8 777.439 1130.71 777.405C1126.91 775.929 1125.03 771.653 1126.5 767.853L1141.69 728.76C1141.77 728.538 1141.84 728.309 1141.9 728.077C1142.49 725.456 1140.85 722.848 1138.23 722.252C1138.2 722.247 1138.18 722.241 1138.15 722.236C1135.15 721.596 1132.19 723.513 1131.55 726.519L1122.9 767.174C1122.87 767.281 1122.85 767.387 1122.82 767.493C1121.76 771.594 1117.58 774.061 1113.48 773.002C1109.11 771.875 1106.36 767.566 1107.17 763.129L1114.68 722.009C1115.2 719.191 1113.44 716.456 1110.66 715.752C1110.43 715.693 1110.19 715.654 1109.96 715.635C1107.59 715.441 1105.51 717.205 1105.31 719.575L1101.99 760.229C1101.98 760.308 1101.97 760.386 1101.96 760.464C1101.43 765.442 1096.96 769.04 1091.98 768.502C1086.83 767.946 1083.09 763.359 1083.57 758.205C1086.9 722.65 1090.41 700.416 1094.1 691.502C1097.56 683.122 1113.18 675.87 1140.94 669.745Z" fill="#FF9C99"/>
<path fill-rule="evenodd" clip-rule="evenodd" d="M895.729 964.502L787.729 1035.5L709.729 817.002L895.729 964.502ZM1169.23 1011L1009.23 1001.5L978.229 738.002L1064.23 758.002L1169.23 1011Z" fill="#FF567B"/>
<path d="M954.808 525.893C954.592 525.384 954.83 524.797 955.338 524.582C955.846 524.366 956.433 524.603 956.649 525.111C965.562 546.111 977.577 556.502 992.729 556.502C993.281 556.502 993.729 556.95 993.729 557.502C993.729 558.054 993.281 558.502 992.729 558.502C976.656 558.502 964.005 547.56 954.808 525.893ZM938.659 596.6C939.158 596.838 939.369 597.434 939.131 597.933C938.893 598.431 938.296 598.642 937.798 598.405L915.798 587.905C915.3 587.667 915.088 587.07 915.326 586.571C915.564 586.073 916.161 585.862 916.659 586.1L938.659 596.6ZM876.244 431.176C876.148 430.632 876.511 430.113 877.055 430.017C877.599 429.921 878.117 430.284 878.213 430.828L881.213 447.828C881.309 448.372 880.946 448.891 880.402 448.987C879.859 449.083 879.34 448.72 879.244 448.176L876.244 431.176Z" fill="#002D6F"/>
<path d="M671.729 610.002C677.528 610.002 682.229 605.301 682.229 599.502C682.229 593.703 677.528 589.002 671.729 589.002C665.93 589.002 661.229 593.703 661.229 599.502C661.229 605.301 665.93 610.002 671.729 610.002Z" fill="#FFE694"/>
<path fill-rule="evenodd" clip-rule="evenodd" d="M555.615 769.675L568.895 777.413L580.228 769.002L577.561 782.46L586.228 786.161L578.895 791.208L581.895 803.993L570.561 796.591L562.228 805.002L560.561 793.226C553.672 790.086 550.228 788.516 550.228 788.516C550.228 788.516 553.672 786.497 560.561 782.46L555.615 769.675ZM1203.48 819.991L1223.3 812.073L1223.79 792.477L1236.24 806.903L1247.7 800.582L1246.95 812.924L1263.51 820.573L1245.72 826.647L1247.8 842.96L1233.48 834.715C1224.16 839.57 1219.49 841.997 1219.49 841.997C1219.49 841.997 1220.23 836.501 1221.7 825.509L1203.48 819.991ZM878.308 779.002L898.228 790.502L915.228 778.002L911.228 798.002L924.228 803.502L913.228 811.002L917.728 830.002L900.728 819.002L888.228 831.502L885.728 814.002C875.395 809.335 870.228 807.002 870.228 807.002C870.228 807.002 875.395 804.002 885.728 798.002L878.308 779.002ZM799.764 535.694L813.413 543.647L825.061 535.002L822.321 548.834L831.228 552.637L823.691 557.824L826.774 570.965L815.126 563.357L806.561 572.002L804.848 559.899C797.768 556.672 794.228 555.058 794.228 555.058C794.228 555.058 797.768 552.983 804.848 548.834L799.764 535.694Z" fill="#56AAFF"/>
</svg>
