<svg width="1840" height="1380" viewBox="0 0 1840 1380" fill="none" xmlns="http://www.w3.org/2000/svg"><mask id="a" mask-type="alpha" maskUnits="userSpaceOnUse" x="696" y="510" width="506" height="606"><path d="m895.728 510.502-6.679 12.778a54.017 54.017 0 0 0-5.869 19.575l-2.952 29.147-167.104 165.4c-17.29 17.113-21.813 43.313-11.262 65.233L819.728 1047.5c-28.649 8.53-47.815 17.69-57.5 27.5-9.684 9.81-12.517 22.92-8.5 39.34l118.5.16 12-37.5 4.071-20.16a5.993 5.993 0 0 1 7.069-4.69 5.977 5.977 0 0 1 4.367 3.61l23.993 58.74h23l-19-88c-5.923-15.11-10.923-26.609-15-34.498-4.077-7.89-9.733-17.011-16.968-27.364l-97.532-187.136 140-179.5L1067.73 1057.5c-27.56 4.91-45.06 11.57-52.5 20-7.45 8.43-8.95 21.1-4.5 38h141l-3.08-57.94a2.996 2.996 0 0 1 5.76-1.31l24.82 59.25h22c-12.9-45.36-21.24-74.36-25-87-5.93-19.89-28.5-49.998-24.5-36.498 0 0-16.42-61.354-46.5-141-9.74-25.776-26.63-56.171-37.36-83.482-18.7-47.555-41.37-105.232-68.021-173.033-4.802-12.216-2.873-34.495-11.621-56.749-2.492-6.34-9.492-15.085-21-26.236l-71.5-1z" fill="#fff"/></mask><g mask="url(#a)"><path d="m895.728 510.502-6.679 12.778a54.017 54.017 0 0 0-5.869 19.575l-2.952 29.147-167.104 165.4c-17.29 17.113-21.813 43.313-11.262 65.233L819.728 1047.5c-28.649 8.53-47.815 17.69-57.5 27.5-9.684 9.81-12.517 22.92-8.5 39.34l118.5.16 12-37.5 4.071-20.16a5.993 5.993 0 0 1 7.069-4.69 5.977 5.977 0 0 1 4.367 3.61l23.993 58.74h23l-19-88c-5.923-15.11-10.923-26.609-15-34.498-4.077-7.89-9.733-17.011-16.968-27.364l-97.532-187.136 140-179.5L1067.73 1057.5c-27.56 4.91-45.06 11.57-52.5 20-7.45 8.43-8.95 21.1-4.5 38h141l-3.08-57.94a2.996 2.996 0 0 1 5.76-1.31l24.82 59.25h22c-12.9-45.36-21.24-74.36-25-87-5.93-19.89-28.5-49.998-24.5-36.498 0 0-16.42-61.354-46.5-141-9.74-25.776-26.63-56.171-37.36-83.482-18.7-47.555-41.37-105.232-68.021-173.033-4.802-12.216-2.873-34.495-11.621-56.749-2.492-6.34-9.492-15.085-21-26.236l-71.5-1z" fill="#FF567B"/><path fill-rule="evenodd" clip-rule="evenodd" d="m787.729 991.502 129.5-32.5 59 163.498h-235l46.5-130.998zm246.001-13 128 12 68.5 159.998H995.229l38.501-171.998z" fill="#002D6F"/></g><mask id="b" mask-type="alpha" maskUnits="userSpaceOnUse" x="591" y="333" width="624" height="374"><path d="m869.228 383.502-209-50.5-69 207 93 6 34.5-120.5 161.5 22.5 11 62.557h76l8-78.057 154.002 252 72 22 13-22-56-160.5-156.5-146.5c-30.018 7.719-51.685 11.238-65.002 10.557-33.333-1.705-55.833-3.224-67.5-4.557z" fill="#fff"/></mask><g mask="url(#b)"><path d="m869.228 383.502-209-50.5-69 207 93 6 34.5-120.5 161.5 22.5 11 62.557h76l8-78.057 154.002 252 72 22 13-22-56-160.5-156.5-146.5c-30.018 7.719-51.685 11.238-65.002 10.557-33.333-1.705-55.833-3.224-67.5-4.557z" fill="#FFE694"/><path d="M980.553 455.754a.975.975 0 0 1-1.114-.845 1.023 1.023 0 0 1 .884-1.119l6.567-.903a.977.977 0 0 1 1.114.845 1.024 1.024 0 0 1-.884 1.12l-6.567.902zm.251-10.354a.977.977 0 0 1-1.114-.845 1.024 1.024 0 0 1 .884-1.12l6.567-.902a.975.975 0 0 1 1.114.845 1.023 1.023 0 0 1-.884 1.119l-6.567.903zm26.986 6.46a.971.971 0 0 1-1.11-.845c-.07-.543.33-1.044.88-1.12l6.57-.902a.97.97 0 0 1 1.11.845c.07.542-.33 1.044-.88 1.119l-6.57.903zm.25-10.355a.97.97 0 0 1-1.11-.845c-.06-.543.33-1.044.88-1.12l6.57-.902a.97.97 0 0 1 1.11.845c.07.543-.33 1.044-.88 1.12l-6.57.902zm-14.144 12.906a.979.979 0 0 1-1.178-.757 1.02 1.02 0 0 1 .797-1.181l6.434-1.377a.986.986 0 0 1 1.181.758c.1.535-.25 1.063-.8 1.18l-6.434 1.377zm.251-10.354a.98.98 0 0 1-1.178-.758 1.02 1.02 0 0 1 .797-1.181l6.434-1.377a.981.981 0 0 1 1.18.758c.1.535-.25 1.063-.8 1.18l-6.433 1.378zm26.983 6.46a.972.972 0 0 1-1.17-.758c-.11-.535.25-1.064.79-1.18l6.44-1.378a.987.987 0 0 1 1.18.758 1.03 1.03 0 0 1-.8 1.18l-6.44 1.378zm.26-10.355c-.55.117-1.08-.223-1.18-.758-.11-.535.25-1.063.79-1.18l6.44-1.377a.985.985 0 0 1 1.18.757c.1.535-.25 1.064-.8 1.181l-6.43 1.377zm13.64 7.803a.97.97 0 0 1-1.11-.845c-.07-.542.33-1.044.88-1.119l6.57-.903a.97.97 0 0 1 1.11.845c.06.543-.33 1.044-.88 1.12l-6.57.902zm.25-10.355a.97.97 0 0 1-1.11-.845c-.07-.542.33-1.043.88-1.119l6.57-.902a.97.97 0 0 1 1.11.845c.07.542-.33 1.043-.88 1.119l-6.57.902zm13.09 9.012a.97.97 0 0 1-1.17-.758c-.11-.535.25-1.063.79-1.18l6.44-1.377a.97.97 0 0 1 1.17.757c.11.536-.25 1.064-.79 1.181l-6.44 1.377zm.25-10.355a.97.97 0 0 1-1.17-.757c-.11-.536.25-1.064.79-1.181l6.44-1.377a.986.986 0 0 1 1.18.758 1.03 1.03 0 0 1-.8 1.18l-6.44 1.377zm-67.565-1.222a.974.974 0 0 1-1.113-.845 1.022 1.022 0 0 1 .883-1.12l6.567-.902a.975.975 0 0 1 1.114.845 1.022 1.022 0 0 1-.883 1.119l-6.568.903zm27.235-3.895a.97.97 0 0 1-1.11-.845c-.06-.542.33-1.043.88-1.119l6.57-.903a.971.971 0 0 1 1.11.845c.07.543-.33 1.044-.88 1.12l-6.57.902zm-13.892 2.552a.979.979 0 0 1-1.177-.758 1.018 1.018 0 0 1 .796-1.18l6.433-1.378a.982.982 0 0 1 1.18.758c.1.535-.25 1.064-.8 1.18l-6.432 1.378zm27.242-3.895c-.55.117-1.08-.222-1.18-.758-.11-.535.25-1.063.8-1.18l6.43-1.377a.98.98 0 0 1 1.18.758c.1.535-.25 1.063-.8 1.18l-6.43 1.377zm13.89-2.551a.97.97 0 0 1-1.11-.845c-.06-.543.33-1.044.88-1.12l6.57-.902a.97.97 0 0 1 1.11.845c.07.542-.33 1.044-.88 1.119l-6.57.903zm13.35-1.343c-.55.116-1.08-.223-1.18-.758-.11-.535.25-1.064.79-1.18l6.44-1.378a.987.987 0 0 1 1.18.758c.1.535-.25 1.064-.8 1.18l-6.43 1.378zm-67.573-1.223a.974.974 0 0 1-1.114-.845 1.022 1.022 0 0 1 .883-1.119l6.567-.903a.975.975 0 0 1 1.114.845 1.023 1.023 0 0 1-.883 1.12l-6.567.902zm27.243-3.894a.98.98 0 0 1-1.12-.845c-.06-.543.33-1.044.88-1.12l6.57-.902a.985.985 0 0 1 1.12.845c.06.542-.34 1.043-.89 1.119l-6.56.903zm-13.901 2.551a.977.977 0 0 1-1.177-.758 1.019 1.019 0 0 1 .796-1.18l6.432-1.377a.98.98 0 0 1 1.18.757c.11.536-.25 1.064-.8 1.181l-6.431 1.377zm27.241-3.894a.982.982 0 0 1-1.18-.758c-.1-.535.25-1.064.8-1.181l6.43-1.377a.981.981 0 0 1 1.18.758c.1.535-.25 1.063-.8 1.18l-6.43 1.378zm13.89-2.552a.97.97 0 0 1-1.11-.845c-.06-.543.33-1.044.88-1.12l6.57-.902a.97.97 0 0 1 1.11.845c.07.543-.33 1.044-.88 1.12l-6.57.902zm13.35-1.343c-.55.117-1.08-.223-1.18-.758-.11-.535.25-1.063.8-1.18l6.43-1.377a.98.98 0 0 1 1.18.757c.1.535-.25 1.064-.8 1.181l-6.43 1.377zm-67.572-1.223a.975.975 0 0 1-1.114-.845 1.023 1.023 0 0 1 .883-1.119l6.568-.903a.975.975 0 0 1 1.113.846 1.022 1.022 0 0 1-.883 1.119l-6.567.902zm27.242-3.894a.98.98 0 0 1-1.12-.845c-.06-.543.33-1.044.89-1.12l6.56-.902a.985.985 0 0 1 1.12.845c.06.542-.33 1.044-.89 1.119l-6.56.903zm-13.899 2.551a.978.978 0 0 1-1.178-.757 1.02 1.02 0 0 1 .796-1.181l6.431-1.377c.55-.117 1.08.222 1.18.758.11.535-.25 1.063-.79 1.18l-6.439 1.377zm27.239-3.894a.981.981 0 0 1-1.18-.758c-.1-.535.25-1.064.8-1.18l6.43-1.378a.982.982 0 0 1 1.18.758c.11.535-.25 1.064-.8 1.18l-6.43 1.378zm13.9-2.552c-.56.076-1.06-.302-1.12-.845-.06-.542.33-1.043.88-1.119l6.57-.903a.986.986 0 0 1 1.12.845c.06.543-.34 1.044-.89 1.12l-6.56.902zm13.34-1.343a.98.98 0 0 1-1.18-.758c-.1-.535.25-1.063.8-1.18l6.43-1.377a.98.98 0 0 1 1.18.758c.1.535-.25 1.063-.8 1.18l-6.43 1.377zm-67.571-1.222a.976.976 0 0 1-1.114-.845 1.024 1.024 0 0 1 .884-1.12l6.567-.902a.975.975 0 0 1 1.114.845 1.023 1.023 0 0 1-.884 1.119l-6.567.903zm27.241-3.895a.985.985 0 0 1-1.12-.845c-.06-.542.34-1.044.89-1.119l6.56-.903a.98.98 0 0 1 1.12.845c.06.543-.33 1.044-.89 1.12l-6.56.902zm-13.898 2.552a.98.98 0 0 1-1.178-.758 1.02 1.02 0 0 1 .797-1.18l6.439-1.378a.971.971 0 0 1 1.17.758c.11.535-.25 1.064-.79 1.18l-6.438 1.378zm27.238-3.895a.985.985 0 0 1-1.18-.758c-.1-.535.25-1.063.8-1.18l6.43-1.377c.55-.117 1.08.222 1.18.757.11.536-.25 1.064-.8 1.181l-6.43 1.377zm13.9-2.551a.98.98 0 0 1-1.12-.845c-.06-.543.33-1.044.89-1.12l6.56-.902a.985.985 0 0 1 1.12.845c.06.542-.33 1.043-.89 1.119l-6.56.903zm13.34-1.343a.982.982 0 0 1-1.18-.758c-.1-.535.25-1.064.8-1.181l6.43-1.377a.981.981 0 0 1 1.18.758c.11.535-.25 1.063-.8 1.18l-6.43 1.378zm-40.33-5.118a.97.97 0 0 1-1.11-.845c-.07-.542.33-1.043.88-1.119l6.57-.903a.971.971 0 0 1 1.11.846c.06.542-.33 1.043-.88 1.119l-6.57.902zm-13.897 2.552a.98.98 0 0 1-1.178-.758 1.02 1.02 0 0 1 .797-1.18l6.438-1.377a.97.97 0 0 1 1.17.757c.11.535-.25 1.064-.79 1.181l-6.437 1.377zm27.237-3.895a.985.985 0 0 1-1.18-.757 1.03 1.03 0 0 1 .8-1.181l6.43-1.377c.55-.117 1.08.222 1.18.758.11.535-.25 1.063-.79 1.18l-6.44 1.377zm-37.296 4.787-.231-1.965.231 1.965zm0 0-3.284.451c-1.331.183-1.562-1.782-.23-1.965l3.283-.451 3.284-.451c1.332-.183 1.562 1.782.23 1.965l-3.283.451zm54.476-7.789-.23-1.965.23 1.965zm-.23-1.965c1.33-.183 1.56 1.782.23 1.965l-3.28.451c-1.33.183-1.56-1.782-.23-1.965l3.28-.451 3.28-.451c1.34-.183 1.57 1.782.23 1.964l-3.28.452c-1.33.183-1.56-1.782-.23-1.965zm10.29 1.073a.987.987 0 0 1-1.18-.758c-.1-.535.25-1.064.8-1.18l6.43-1.378c.55-.116 1.08.223 1.18.758.11.535-.25 1.064-.8 1.18l-6.43 1.378zM894.915 400.98a1.025 1.025 0 0 1 .977-1.041.97.97 0 0 1 1.032.939l.183 6.514a1.027 1.027 0 0 1-.977 1.042.973.973 0 0 1-1.033-.94l-.182-6.514zm10.43.903a1.027 1.027 0 0 1 .977-1.042.973.973 0 0 1 1.033.94l.182 6.514a1.026 1.026 0 0 1-.977 1.041.972.972 0 0 1-1.033-.939l-.182-6.514zm-9.52 26.124a1.027 1.027 0 0 1 .977-1.042.971.971 0 0 1 1.032.94l.183 6.514a1.026 1.026 0 0 1-.977 1.041.971.971 0 0 1-1.033-.939l-.182-6.514zm10.43.903a1.027 1.027 0 0 1 .977-1.042.972.972 0 0 1 1.033.939l.182 6.514a1.027 1.027 0 0 1-.977 1.042.972.972 0 0 1-1.033-.939l-.182-6.514zm-11.465-14.726a1.023 1.023 0 0 1 .896-1.11.974.974 0 0 1 1.104.857l.677 6.414a1.024 1.024 0 0 1-.896 1.11.976.976 0 0 1-1.104-.858l-.677-6.413zm10.43.902a1.024 1.024 0 0 1 .896-1.11.975.975 0 0 1 1.104.858l.677 6.413a1.023 1.023 0 0 1-.896 1.11.975.975 0 0 1-1.104-.858l-.677-6.413zm-9.52 26.124a1.023 1.023 0 0 1 .896-1.109.974.974 0 0 1 1.104.857l.677 6.414a1.023 1.023 0 0 1-.896 1.109.975.975 0 0 1-1.104-.857l-.677-6.414zm10.43.903a1.024 1.024 0 0 1 .896-1.11.975.975 0 0 1 1.104.858l.677 6.413a1.024 1.024 0 0 1-.896 1.11.975.975 0 0 1-1.104-.858l-.677-6.413zm-9.395 12.921a1.027 1.027 0 0 1 .977-1.042.973.973 0 0 1 1.033.94l.182 6.514a1.026 1.026 0 0 1-.977 1.041.972.972 0 0 1-1.033-.939l-.182-6.514zm10.43.902a1.026 1.026 0 0 1 .977-1.041.972.972 0 0 1 1.033.939l.182 6.514a1.027 1.027 0 0 1-.977 1.042.973.973 0 0 1-1.033-.94l-.182-6.514zm-10.555 12.301a1.024 1.024 0 0 1 .896-1.11.975.975 0 0 1 1.104.858l.677 6.413a1.023 1.023 0 0 1-.896 1.11.975.975 0 0 1-1.104-.857l-.677-6.414zm10.43.903a1.024 1.024 0 0 1 .896-1.11.974.974 0 0 1 1.104.858l.677 6.413a1.024 1.024 0 0 1-.896 1.11.976.976 0 0 1-1.104-.858l-.677-6.413zm8.735-66.355a1.026 1.026 0 0 1 .977-1.041.972.972 0 0 1 1.033.939l.182 6.514a1.027 1.027 0 0 1-.977 1.042.973.973 0 0 1-1.033-.94l-.182-6.514zm.91 27.027a1.026 1.026 0 0 1 .977-1.041.971.971 0 0 1 1.033.939l.182 6.514a1.027 1.027 0 0 1-.977 1.042.973.973 0 0 1-1.033-.94l-.182-6.514zm-1.035-13.823a1.024 1.024 0 0 1 .896-1.11.974.974 0 0 1 1.104.858l.677 6.413a1.024 1.024 0 0 1-.896 1.11.976.976 0 0 1-1.104-.858l-.677-6.413zm.91 27.027a1.023 1.023 0 0 1 .896-1.11.974.974 0 0 1 1.104.857l.677 6.414a1.024 1.024 0 0 1-.896 1.11.976.976 0 0 1-1.104-.858l-.677-6.413zm1.035 13.823a1.027 1.027 0 0 1 .977-1.042.973.973 0 0 1 1.033.94l.182 6.514a1.026 1.026 0 0 1-.977 1.041.971.971 0 0 1-1.033-.939l-.182-6.514zm-.125 13.203a1.023 1.023 0 0 1 .896-1.109.974.974 0 0 1 1.104.857l.677 6.414a1.023 1.023 0 0 1-.896 1.109.975.975 0 0 1-1.104-.857l-.677-6.414zm8.735-66.354a1.027 1.027 0 0 1 .977-1.042.973.973 0 0 1 1.033.94l.182 6.514a1.026 1.026 0 0 1-.977 1.041.971.971 0 0 1-1.033-.939l-.182-6.514zm.91 27.027a1.027 1.027 0 0 1 .977-1.042.973.973 0 0 1 1.033.94l.182 6.514a1.025 1.025 0 0 1-.977 1.041.97.97 0 0 1-1.032-.939l-.183-6.514zm-1.035-13.824a1.023 1.023 0 0 1 .896-1.109.974.974 0 0 1 1.104.857l.677 6.414a1.023 1.023 0 0 1-.896 1.109.975.975 0 0 1-1.104-.857l-.677-6.414zm.91 27.027a1.024 1.024 0 0 1 .897-1.11.975.975 0 0 1 1.103.858l.677 6.413a1.023 1.023 0 0 1-.896 1.11.975.975 0 0 1-1.104-.858l-.677-6.413zm1.035 13.824a1.027 1.027 0 0 1 .977-1.042.972.972 0 0 1 1.033.939l.182 6.514a1.026 1.026 0 0 1-.977 1.042.97.97 0 0 1-1.032-.939l-.183-6.514zm-.124 13.203a1.023 1.023 0 0 1 .896-1.11.975.975 0 0 1 1.103.858l.677 6.413a1.023 1.023 0 0 1-.896 1.11.975.975 0 0 1-1.104-.858l-.676-6.413zm8.734-66.354a1.027 1.027 0 0 1 .977-1.042.972.972 0 0 1 1.033.939l.182 6.514a1.026 1.026 0 0 1-.977 1.042.97.97 0 0 1-1.032-.939l-.183-6.514zm.91 27.026a1.026 1.026 0 0 1 .977-1.041.972.972 0 0 1 1.033.939l.182 6.514a1.026 1.026 0 0 1-.977 1.042.971.971 0 0 1-1.032-.94l-.183-6.514zm-1.034-13.823a1.023 1.023 0 0 1 .895-1.11.975.975 0 0 1 1.104.858l.677 6.413a1.024 1.024 0 0 1-.896 1.11.975.975 0 0 1-1.104-.858l-.676-6.413zm.91 27.027a1.022 1.022 0 0 1 .896-1.11.973.973 0 0 1 1.103.858l.677 6.413a1.024 1.024 0 0 1-.896 1.11.976.976 0 0 1-1.104-.858l-.676-6.413zm1.034 13.823a1.026 1.026 0 0 1 .977-1.041.97.97 0 0 1 1.033.939l.182 6.514a1.027 1.027 0 0 1-.977 1.042.971.971 0 0 1-1.032-.94l-.183-6.514zm-.124 13.204a1.022 1.022 0 0 1 .896-1.11.973.973 0 0 1 1.103.858l.677 6.413a1.024 1.024 0 0 1-.896 1.11.975.975 0 0 1-1.103-.858l-.677-6.413zm8.734-66.355a1.026 1.026 0 0 1 .977-1.041.971.971 0 0 1 1.033.939l.182 6.514a1.027 1.027 0 0 1-.977 1.042.971.971 0 0 1-1.032-.94l-.183-6.514zm.91 27.027a1.027 1.027 0 0 1 .977-1.042.972.972 0 0 1 1.033.94l.182 6.514a1.025 1.025 0 0 1-.977 1.041.97.97 0 0 1-1.032-.939l-.183-6.514zm-1.034-13.823a1.022 1.022 0 0 1 .896-1.11.973.973 0 0 1 1.103.857l.677 6.414a1.024 1.024 0 0 1-.896 1.11.976.976 0 0 1-1.104-.858l-.676-6.413zm.91 27.026a1.021 1.021 0 0 1 .896-1.109.973.973 0 0 1 1.103.857l.677 6.414a1.022 1.022 0 0 1-.896 1.109.973.973 0 0 1-1.103-.857l-.677-6.414zm1.034 13.824a1.027 1.027 0 0 1 .977-1.042.972.972 0 0 1 1.033.94l.182 6.514A1.025 1.025 0 0 1 950.1 467a.97.97 0 0 1-1.032-.939l-.183-6.514zm-.124 13.203a1.023 1.023 0 0 1 .896-1.11.975.975 0 0 1 1.103.858l.677 6.413a1.022 1.022 0 0 1-.896 1.11.973.973 0 0 1-1.103-.857l-.677-6.414zm9.644-39.327a1.027 1.027 0 0 1 .977-1.042.971.971 0 0 1 1.033.939l.182 6.514a1.026 1.026 0 0 1-.977 1.042.97.97 0 0 1-1.032-.939l-.183-6.514zm-1.034-13.824a1.023 1.023 0 0 1 .896-1.11.975.975 0 0 1 1.103.858l.677 6.413a1.022 1.022 0 0 1-.896 1.11.973.973 0 0 1-1.103-.858l-.677-6.413zm.91 27.027a1.023 1.023 0 0 1 .896-1.11.975.975 0 0 1 1.103.858l.677 6.413a1.023 1.023 0 0 1-.896 1.11.973.973 0 0 1-1.103-.858l-.677-6.413zm-.695-36.973 2.01-.102-2.01.102zm0 0-.091-3.257c-.037-1.321 1.973-1.423 2.01-.102l.091 3.257.091 3.257c.037 1.32-1.972 1.422-2.009.102l-.092-3.257zm1.821 54.053 2.009-.102-2.009.102zm2.009-.102c.037 1.321-1.972 1.423-2.009.102l-.092-3.257c-.037-1.32 1.973-1.422 2.01-.102l.091 3.257.091 3.257c.037 1.321-1.972 1.423-2.009.102l-.091-3.257c-.037-1.32 1.972-1.422 2.009-.102zm-2.225 10.049a1.023 1.023 0 0 1 .896-1.11.973.973 0 0 1 1.103.858l.677 6.413a1.023 1.023 0 0 1-.896 1.11.975.975 0 0 1-1.103-.858l-.677-6.413zm74.569 22.851c-.3-.449-.18-1.067.28-1.381.47-.314 1.09-.204 1.4.245l3.65 5.346a.985.985 0 0 1-.28 1.381 1 1 0 0 1-1.39-.245l-3.66-5.346zm9.46-4.701a.996.996 0 0 1 .29-1.381 1 1 0 0 1 1.39.245l3.66 5.346a.996.996 0 0 1-.29 1.381 1 1 0 0 1-1.39-.245l-3.66-5.346zm5.85 26.803a.986.986 0 0 1 .28-1.382 1 1 0 0 1 1.39.245l3.66 5.346c.3.449.18 1.068-.28 1.381-.47.314-1.09.205-1.4-.244l-3.65-5.346zm9.46-4.701c-.31-.449-.18-1.068.28-1.381.46-.314 1.09-.205 1.39.244l3.66 5.346c.31.449.18 1.068-.28 1.382-.46.313-1.09.204-1.4-.245l-3.65-5.346zm-17.78-6.306c-.34-.424-.26-1.049.17-1.396.44-.347 1.07-.284 1.41.14l4.03 5.003a.988.988 0 0 1-.17 1.396c-.44.347-1.07.284-1.41-.14l-4.03-5.003zm9.46-4.701c-.34-.424-.26-1.049.18-1.396a1.009 1.009 0 0 1 1.41.14l4.03 5.003c.34.424.26 1.049-.18 1.396s-1.07.284-1.41-.139l-4.03-5.004zm5.84 26.802c-.34-.424-.26-1.048.18-1.395a1.008 1.008 0 0 1 1.41.139l4.03 5.003c.34.424.26 1.049-.18 1.396s-1.07.285-1.41-.139l-4.03-5.004zm9.46-4.7c-.34-.424-.26-1.049.18-1.396s1.07-.285 1.41.139l4.03 5.004c.34.423.26 1.048-.18 1.395-.43.347-1.07.285-1.41-.139l-4.03-5.003zm-1.14 15.707c-.31-.449-.18-1.067.28-1.381.46-.314 1.09-.204 1.39.245l3.66 5.346c.31.449.18 1.067-.28 1.381-.46.314-1.09.204-1.39-.245l-3.66-5.346zm9.46-4.701c-.31-.449-.18-1.067.28-1.381.47-.314 1.09-.204 1.4.245l3.65 5.346c.31.449.18 1.067-.28 1.381a1 1 0 0 1-1.39-.245l-3.66-5.346zm-2.47 15.796c-.35-.424-.27-1.049.17-1.396.44-.347 1.07-.285 1.41.139l4.03 5.004c.34.424.26 1.049-.18 1.396-.43.346-1.07.284-1.41-.14l-4.02-5.003zm9.46-4.701a.988.988 0 0 1 .17-1.396c.44-.347 1.07-.284 1.41.14l4.03 5.003c.34.424.26 1.049-.17 1.396-.44.347-1.07.284-1.41-.14l-4.03-5.003zm-28.13-59.998c-.31-.449-.18-1.068.28-1.382.46-.313 1.09-.204 1.39.245l3.66 5.346c.31.449.18 1.068-.28 1.381-.47.314-1.09.205-1.4-.244l-3.65-5.346zm15.3 22.101c-.31-.449-.18-1.067.28-1.381a1.012 1.012 0 0 1 1.4.245l3.65 5.346c.31.449.18 1.067-.28 1.381-.46.314-1.09.204-1.39-.245l-3.66-5.346zm-8.32-11.007c-.34-.424-.26-1.048.18-1.395s1.07-.285 1.41.139l4.03 5.003c.34.424.26 1.049-.18 1.396s-1.07.285-1.41-.139l-4.03-5.004zm15.31 22.102a.988.988 0 0 1 .17-1.396c.44-.347 1.07-.285 1.41.139l4.03 5.004c.34.424.26 1.049-.17 1.395-.44.347-1.07.285-1.41-.139l-4.03-5.003zm8.31 11.006a.996.996 0 0 1 .29-1.381 1 1 0 0 1 1.39.245l3.66 5.346a.996.996 0 0 1-.29 1.381 1 1 0 0 1-1.39-.245l-3.66-5.346zm6.99 11.095c-.34-.424-.26-1.049.18-1.396a1.009 1.009 0 0 1 1.41.14l4.02 5.003c.35.424.27 1.049-.17 1.396-.44.347-1.07.284-1.41-.139l-4.03-5.004zm-28.13-59.998c-.31-.449-.18-1.068.28-1.381.46-.314 1.09-.205 1.39.244l3.66 5.346c.31.449.18 1.068-.28 1.382-.46.313-1.09.204-1.39-.245l-3.66-5.346zm15.3 22.101c-.3-.449-.18-1.067.28-1.381.47-.314 1.09-.204 1.4.245l3.65 5.346a.985.985 0 0 1-.28 1.381 1 1 0 0 1-1.39-.245l-3.66-5.346zm-8.31-11.007c-.35-.423-.27-1.048.17-1.395.44-.347 1.07-.285 1.41.139l4.03 5.004c.34.423.26 1.048-.18 1.395-.43.347-1.06.285-1.41-.139l-4.02-5.004zm15.3 22.102c-.34-.424-.26-1.049.17-1.396.44-.347 1.07-.284 1.41.139l4.03 5.004a.988.988 0 0 1-.17 1.396c-.44.347-1.07.284-1.41-.14l-4.03-5.003zm8.32 11.006c-.31-.448-.18-1.067.28-1.381a1 1 0 0 1 1.39.245l3.66 5.346c.3.449.18 1.067-.28 1.381-.47.314-1.09.205-1.4-.244l-3.65-5.347zm6.98 11.095a.988.988 0 0 1 .18-1.395c.44-.347 1.07-.285 1.41.139l4.03 5.003c.34.424.26 1.049-.18 1.396s-1.07.285-1.41-.139l-4.03-5.004zm-28.13-59.998c-.31-.449-.18-1.067.28-1.381.47-.314 1.09-.204 1.4.244l3.65 5.347c.31.449.18 1.067-.28 1.381a1 1 0 0 1-1.39-.245l-3.66-5.346zm15.31 22.101a.985.985 0 0 1 .28-1.381 1 1 0 0 1 1.39.245l3.66 5.346c.3.449.18 1.067-.28 1.381-.47.314-1.09.204-1.4-.245l-3.65-5.346zm-8.32-11.006c-.34-.424-.26-1.049.17-1.396.44-.347 1.07-.285 1.41.139l4.03 5.004a.987.987 0 0 1-.17 1.395c-.44.347-1.07.285-1.41-.139l-4.03-5.003zm15.3 22.101c-.34-.424-.26-1.049.18-1.396a1.008 1.008 0 0 1 1.41.14l4.03 5.003c.34.424.26 1.049-.18 1.396s-1.07.284-1.41-.14l-4.03-5.003zm8.32 11.007c-.31-.449-.18-1.068.28-1.381.46-.314 1.09-.205 1.39.244l3.66 5.346c.31.449.18 1.068-.28 1.381-.46.314-1.09.205-1.39-.244l-3.66-5.346zm6.98 11.094c-.34-.423-.26-1.048.18-1.395s1.07-.285 1.41.139l4.03 5.004c.34.423.26 1.048-.18 1.395-.43.347-1.07.285-1.41-.139l-4.03-5.004zM1081.07 473a.996.996 0 0 1 .29-1.381 1 1 0 0 1 1.39.245l3.66 5.346a.996.996 0 0 1-.29 1.381 1 1 0 0 1-1.39-.245l-3.66-5.346zm15.31 22.101c-.31-.449-.18-1.067.28-1.381.46-.313 1.09-.204 1.39.245l3.66 5.346c.31.449.18 1.067-.28 1.381-.46.314-1.09.204-1.4-.244l-3.65-5.347zm-8.32-11.006c-.34-.424-.26-1.049.18-1.396a1.009 1.009 0 0 1 1.41.139l4.02 5.004c.35.424.27 1.049-.17 1.396-.44.347-1.07.284-1.41-.14l-4.03-5.003zm15.3 22.101a.988.988 0 0 1 .18-1.395c.44-.347 1.07-.285 1.41.139l4.03 5.003c.34.424.26 1.049-.18 1.396-.43.347-1.07.285-1.41-.139l-4.03-5.004zm8.32 11.007c-.31-.449-.18-1.067.28-1.381.47-.314 1.09-.205 1.4.244l3.65 5.347c.31.448.18 1.067-.28 1.381-.46.313-1.09.204-1.39-.245l-3.66-5.346zm6.99 11.095a.988.988 0 0 1 .17-1.396c.44-.347 1.07-.285 1.41.139l4.03 5.004c.34.424.26 1.048-.17 1.395-.44.347-1.07.285-1.41-.139l-4.03-5.003zm-12.83-37.897c-.31-.449-.18-1.068.28-1.381a1.012 1.012 0 0 1 1.4.244l3.65 5.346c.31.449.18 1.068-.28 1.381-.46.314-1.09.205-1.39-.244l-3.66-5.346zm-8.32-11.007c-.34-.424-.26-1.049.18-1.396s1.07-.284 1.41.14l4.03 5.003c.34.424.26 1.049-.18 1.396s-1.07.284-1.41-.14l-4.03-5.003zm15.31 22.101a.987.987 0 0 1 .17-1.395c.44-.347 1.07-.285 1.41.139l4.03 5.003c.34.424.26 1.049-.17 1.396a1.02 1.02 0 0 1-1.42-.139l-4.02-5.004zm-20.46-30.523 1.67-1.136-1.67 1.136zm0 0-1.83-2.673c-.74-1.084.93-2.22 1.67-1.136l1.83 2.673 1.83 2.673c.74 1.084-.94 2.22-1.68 1.136l-1.82-2.673zm30.6 44.203 1.68-1.136-1.68 1.136zm1.68-1.136c.74 1.084-.94 2.22-1.68 1.136l-1.83-2.673c-.74-1.084.94-2.22 1.68-1.136l1.83 2.673 1.83 2.673c.74 1.084-.94 2.22-1.68 1.136l-1.83-2.673c-.74-1.084.94-2.22 1.68-1.136zm3.48 9.558c-.34-.424-.26-1.049.17-1.396a1.02 1.02 0 0 1 1.42.139l4.02 5.004a.988.988 0 0 1-.17 1.396c-.44.346-1.07.284-1.41-.14l-4.03-5.003zm-49.32 40.065a.991.991 0 0 1 .33-1.372.998.998 0 0 1 1.38.293l3.46 5.473c.29.46.14 1.074-.33 1.372a.998.998 0 0 1-1.38-.293l-3.46-5.473zm9.61-4.376c-.29-.46-.14-1.074.33-1.372a.998.998 0 0 1 1.38.293l3.47 5.473c.29.46.14 1.074-.33 1.372-.48.298-1.1.167-1.39-.293l-3.46-5.473zm4.89 27.009c-.3-.459-.15-1.073.33-1.371a.998.998 0 0 1 1.38.292l3.46 5.474c.29.459.14 1.073-.33 1.371a.998.998 0 0 1-1.38-.292l-3.46-5.474zm9.61-4.376c-.29-.459-.14-1.073.33-1.371a.998.998 0 0 1 1.38.292l3.47 5.474c.29.459.14 1.073-.33 1.371-.48.298-1.1.167-1.39-.292l-3.46-5.474zM1085.39 575a.987.987 0 0 1 .22-1.39 1.014 1.014 0 0 1 1.41.188l3.84 5.143a.987.987 0 0 1-.22 1.39c-.45.332-1.08.248-1.41-.188l-3.84-5.143zm9.61-4.376a.997.997 0 0 1 .23-1.39c.45-.332 1.08-.248 1.4.188l3.85 5.143a.997.997 0 0 1-.23 1.39c-.45.332-1.07.248-1.4-.188l-3.85-5.143zm4.89 27.009a.987.987 0 0 1 .22-1.39 1.014 1.014 0 0 1 1.41.188l3.84 5.144a.987.987 0 0 1-.22 1.39c-.45.331-1.08.247-1.41-.188l-3.84-5.144zm9.61-4.376a.998.998 0 0 1 .23-1.39c.45-.332 1.08-.248 1.4.188l3.85 5.144a.998.998 0 0 1-.23 1.39c-.45.331-1.07.247-1.4-.188l-3.85-5.144zm-1.7 15.672c-.29-.46-.14-1.074.33-1.372.48-.298 1.1-.167 1.39.293l3.46 5.473c.29.46.14 1.074-.33 1.372a.998.998 0 0 1-1.38-.293l-3.47-5.473zm9.62-4.376c-.29-.46-.14-1.074.33-1.372a.998.998 0 0 1 1.38.293l3.46 5.473c.3.46.15 1.074-.33 1.372a.998.998 0 0 1-1.38-.293l-3.46-5.473zm-3.03 15.714a.987.987 0 0 1 .22-1.39 1.014 1.014 0 0 1 1.41.188l3.84 5.143a.987.987 0 0 1-.22 1.39c-.45.332-1.08.248-1.41-.188l-3.84-5.143zm9.61-4.376a.997.997 0 0 1 .23-1.39c.45-.332 1.08-.248 1.4.188l3.85 5.143a.997.997 0 0 1-.23 1.39c-.45.332-1.08.248-1.4-.188l-3.85-5.143zm-25.96-60.981a.991.991 0 0 1 .33-1.372.998.998 0 0 1 1.38.293l3.46 5.473c.29.46.14 1.074-.33 1.372a.998.998 0 0 1-1.38-.293l-3.46-5.473zm14.5 22.633c-.3-.459-.15-1.073.33-1.371a.998.998 0 0 1 1.38.292l3.46 5.474c.29.459.14 1.073-.33 1.371a.998.998 0 0 1-1.38-.292l-3.46-5.474zm-7.92-11.295a.987.987 0 0 1 .22-1.39 1.014 1.014 0 0 1 1.41.188l3.84 5.143a.987.987 0 0 1-.22 1.39c-.45.332-1.08.248-1.4-.188l-3.85-5.143zm14.5 22.633a.987.987 0 0 1 .22-1.39 1.015 1.015 0 0 1 1.41.188l3.84 5.144a.987.987 0 0 1-.22 1.39c-.45.332-1.08.247-1.41-.188l-3.84-5.144zm7.91 11.296c-.29-.46-.14-1.074.33-1.372.48-.298 1.1-.167 1.39.293l3.46 5.473c.29.46.14 1.074-.33 1.372a.998.998 0 0 1-1.38-.293l-3.47-5.473zm6.59 11.338a.987.987 0 0 1 .22-1.39 1.014 1.014 0 0 1 1.41.188l3.84 5.143a.987.987 0 0 1-.22 1.39c-.45.332-1.08.248-1.41-.188l-3.84-5.143zm-25.97-60.981c-.29-.46-.14-1.074.33-1.372a.998.998 0 0 1 1.38.293l3.47 5.473c.29.46.14 1.074-.33 1.372-.48.298-1.1.167-1.39-.293l-3.46-5.473zm14.5 22.633c-.29-.459-.14-1.073.33-1.371a.998.998 0 0 1 1.38.292l3.47 5.474c.29.459.14 1.073-.33 1.371-.48.298-1.1.167-1.39-.292l-3.46-5.474zm-7.92-11.295a.997.997 0 0 1 .23-1.39c.45-.332 1.08-.248 1.4.188l3.85 5.143a.997.997 0 0 1-.23 1.39c-.45.332-1.07.248-1.4-.188l-3.85-5.143zm14.5 22.633a.998.998 0 0 1 .23-1.39c.45-.332 1.08-.247 1.4.188l3.85 5.144a.998.998 0 0 1-.23 1.39c-.45.332-1.07.247-1.4-.188l-3.85-5.144zm7.92 11.296c-.29-.46-.14-1.074.33-1.372a.998.998 0 0 1 1.38.293l3.46 5.473c.3.46.15 1.074-.33 1.372a.998.998 0 0 1-1.38-.293l-3.46-5.473zm6.58 11.338a.997.997 0 0 1 .23-1.39c.45-.332 1.08-.248 1.4.188l3.85 5.143a.997.997 0 0 1-.23 1.39c-.45.332-1.08.248-1.4-.188l-3.85-5.143zm-25.96-60.981a.991.991 0 0 1 .33-1.372.998.998 0 0 1 1.38.293l3.46 5.473c.29.46.14 1.074-.33 1.372a.998.998 0 0 1-1.38-.293l-3.46-5.473zm14.5 22.633c-.3-.459-.15-1.073.33-1.371a.998.998 0 0 1 1.38.292l3.46 5.474c.29.459.14 1.073-.33 1.371a.998.998 0 0 1-1.38-.292l-3.46-5.474zm-7.92-11.295a.987.987 0 0 1 .22-1.39 1.014 1.014 0 0 1 1.41.188l3.84 5.143a.987.987 0 0 1-.22 1.39c-.45.332-1.08.248-1.4-.188l-3.85-5.143zm14.5 22.633a.987.987 0 0 1 .22-1.39 1.015 1.015 0 0 1 1.41.188l3.84 5.144a.987.987 0 0 1-.22 1.39c-.45.332-1.08.247-1.41-.188l-3.84-5.144zm7.91 11.296c-.29-.46-.14-1.074.33-1.372.48-.298 1.1-.167 1.39.293l3.46 5.473c.29.46.14 1.074-.33 1.372a.998.998 0 0 1-1.38-.293l-3.47-5.473zm6.59 11.338a.987.987 0 0 1 .22-1.39 1.014 1.014 0 0 1 1.41.188l3.84 5.143a.987.987 0 0 1-.22 1.39c-.45.332-1.08.248-1.41-.188l-3.84-5.143zm-25.97-60.981c-.29-.46-.14-1.074.33-1.372a.998.998 0 0 1 1.38.293l3.47 5.473c.29.46.14 1.074-.33 1.372-.48.298-1.1.167-1.39-.293l-3.46-5.473zm14.5 22.633c-.29-.459-.14-1.073.33-1.371a.998.998 0 0 1 1.38.292l3.47 5.474c.29.459.14 1.074-.33 1.371-.48.298-1.1.167-1.39-.292l-3.46-5.474zm-7.92-11.295a.997.997 0 0 1 .23-1.39c.45-.332 1.08-.248 1.4.188l3.85 5.143a.997.997 0 0 1-.23 1.39c-.45.332-1.07.248-1.4-.188l-3.85-5.143zm14.5 22.633a.998.998 0 0 1 .23-1.39c.45-.332 1.08-.247 1.4.188l3.85 5.144a.998.998 0 0 1-.23 1.39c-.45.332-1.07.247-1.4-.188l-3.85-5.144zm7.92 11.296c-.29-.46-.14-1.074.33-1.372a.998.998 0 0 1 1.38.293l3.46 5.473c.3.46.15 1.074-.33 1.372a.998.998 0 0 1-1.38-.293l-3.46-5.473zm6.58 11.338a.997.997 0 0 1 .23-1.39c.45-.332 1.08-.248 1.4.188l3.85 5.143a.997.997 0 0 1-.23 1.39c-.45.332-1.08.248-1.4-.188l-3.85-5.143zM1151 560.039c-.3-.459-.15-1.073.33-1.371a.998.998 0 0 1 1.38.293l3.46 5.473c.29.459.14 1.074-.33 1.371a.998.998 0 0 1-1.38-.292l-3.46-5.474zm-7.92-11.295a.987.987 0 0 1 .22-1.39 1.014 1.014 0 0 1 1.41.188l3.84 5.143a.987.987 0 0 1-.22 1.39c-.45.332-1.08.248-1.4-.188l-3.85-5.143zm14.5 22.633a.987.987 0 0 1 .22-1.39 1.015 1.015 0 0 1 1.41.188l3.84 5.144a.987.987 0 0 1-.22 1.39c-.45.332-1.08.247-1.41-.188l-3.84-5.144zm-19.35-31.234 1.71-1.079-1.71 1.079zm0 0-1.73-2.737c-.71-1.11 1.01-2.189 1.71-1.079l1.73 2.737 1.73 2.736c.7 1.11-1.01 2.189-1.71 1.079l-1.73-2.736zm29 45.267 1.71-1.079-1.71 1.079zm1.71-1.079c.7 1.109-1.01 2.188-1.71 1.079l-1.74-2.737c-.7-1.11 1.02-2.189 1.72-1.079l1.73 2.737 1.73 2.736c.7 1.11-1.01 2.189-1.71 1.079l-1.73-2.736c-.71-1.11 1.01-2.189 1.71-1.079zm3.14 9.68a.987.987 0 0 1 .22-1.39 1.014 1.014 0 0 1 1.41.188l3.84 5.143a.987.987 0 0 1-.22 1.39c-.45.332-1.08.248-1.41-.188l-3.84-5.143zM788.845 431.772a.966.966 0 0 1-.701-1.203 1.032 1.032 0 0 1 1.236-.721l6.373 1.583a.967.967 0 0 1 .702 1.203 1.033 1.033 0 0 1-1.237.721l-6.373-1.583zm4.164-9.601a.965.965 0 0 1-.702-1.203 1.032 1.032 0 0 1 1.236-.721l6.373 1.583a.967.967 0 0 1 .702 1.203 1.032 1.032 0 0 1-1.236.721l-6.373-1.583zm22.326 16.025a.965.965 0 0 1-.701-1.202 1.031 1.031 0 0 1 1.236-.722l6.373 1.583a.967.967 0 0 1 .702 1.203 1.033 1.033 0 0 1-1.237.722l-6.373-1.584zm4.164-9.6a.966.966 0 0 1-.702-1.203 1.032 1.032 0 0 1 1.236-.722l6.373 1.584c.535.133.85.671.702 1.203a1.032 1.032 0 0 1-1.236.721l-6.373-1.583zm-17.892 6.852a.966.966 0 0 1-.793-1.145c.106-.54.634-.903 1.179-.811l6.431 1.09a.966.966 0 0 1 .794 1.145 1.033 1.033 0 0 1-1.18.81l-6.431-1.089zm4.163-9.601a.966.966 0 0 1-.793-1.145 1.03 1.03 0 0 1 1.179-.81l6.432 1.089c.545.092.9.605.793 1.145a1.03 1.03 0 0 1-1.179.81l-6.432-1.089zm22.327 16.025a.966.966 0 0 1-.793-1.145 1.03 1.03 0 0 1 1.179-.81l6.432 1.089c.544.093.9.605.793 1.145-.107.54-.635.903-1.179.811l-6.432-1.09zm4.163-9.601a.965.965 0 0 1-.793-1.144c.107-.54.635-.903 1.179-.811l6.432 1.09c.545.092.9.604.793 1.144-.106.54-.634.903-1.179.811l-6.432-1.09zm9.566 12.35a.966.966 0 0 1-.702-1.203 1.032 1.032 0 0 1 1.236-.721l6.373 1.583a.967.967 0 0 1 .702 1.203 1.032 1.032 0 0 1-1.236.721l-6.373-1.583zm4.163-9.601a.966.966 0 0 1-.702-1.203 1.032 1.032 0 0 1 1.236-.721l6.373 1.583c.536.133.85.672.702 1.203a1.032 1.032 0 0 1-1.236.721l-6.373-1.583zm8.598 13.277a.966.966 0 0 1-.793-1.145c.106-.54.635-.903 1.179-.811l6.432 1.09c.545.092.9.605.793 1.144-.106.54-.634.903-1.179.811l-6.432-1.089zm4.164-9.601a.966.966 0 0 1-.794-1.145c.107-.54.635-.903 1.18-.81l6.431 1.089c.545.092.9.605.793 1.145a1.03 1.03 0 0 1-1.179.81l-6.431-1.089zm-61.579-26.125a.966.966 0 0 1-.702-1.203 1.032 1.032 0 0 1 1.236-.722l6.373 1.583c.535.133.85.672.702 1.203a1.032 1.032 0 0 1-1.236.722l-6.373-1.583zm26.49 6.424a.967.967 0 0 1-.702-1.203 1.032 1.032 0 0 1 1.236-.721l6.373 1.583c.536.133.85.671.702 1.203a1.032 1.032 0 0 1-1.236.721l-6.373-1.583zm-13.729-2.749a.966.966 0 0 1-.793-1.145 1.033 1.033 0 0 1 1.18-.81l6.431 1.089c.545.093.9.605.793 1.145-.106.54-.634.903-1.179.811l-6.432-1.09zm26.491 6.425a.968.968 0 0 1-.794-1.145c.107-.54.635-.903 1.18-.811l6.431 1.09c.545.092.9.605.794 1.145-.107.54-.635.902-1.18.81l-6.431-1.089zm13.728 2.749a.967.967 0 0 1-.702-1.203 1.033 1.033 0 0 1 1.237-.722l6.373 1.583a.966.966 0 0 1 .701 1.203 1.031 1.031 0 0 1-1.236.722l-6.373-1.583zm12.762 3.675a.967.967 0 0 1-.794-1.145 1.033 1.033 0 0 1 1.18-.81l6.431 1.089c.545.093.9.605.794 1.145-.107.54-.635.903-1.18.811l-6.431-1.09zm-61.579-26.125a.967.967 0 0 1-.702-1.203 1.033 1.033 0 0 1 1.237-.721l6.373 1.583a.965.965 0 0 1 .701 1.203 1.032 1.032 0 0 1-1.236.721l-6.373-1.583zm26.49 6.424a.967.967 0 0 1-.702-1.203 1.033 1.033 0 0 1 1.237-.721l6.373 1.583a.966.966 0 0 1 .701 1.203 1.031 1.031 0 0 1-1.236.722l-6.373-1.584zm-13.728-2.748a.968.968 0 0 1-.794-1.145c.107-.54.635-.903 1.18-.811l6.431 1.09c.545.092.9.605.794 1.144-.107.54-.635.903-1.18.811l-6.431-1.089zm26.49 6.424a.967.967 0 0 1-.794-1.145c.107-.54.635-.902 1.18-.81l6.431 1.089c.545.093.9.605.794 1.145-.107.54-.635.903-1.18.81l-6.431-1.089zm13.728 2.749a.966.966 0 0 1-.701-1.203 1.032 1.032 0 0 1 1.236-.721l6.373 1.583a.967.967 0 0 1 .702 1.203 1.033 1.033 0 0 1-1.237.721l-6.373-1.583zm12.762 3.676a.966.966 0 0 1-.793-1.145c.106-.54.634-.903 1.179-.811l6.431 1.09a.966.966 0 0 1 .794 1.144c-.107.54-.635.903-1.18.811l-6.431-1.089zm-61.579-26.126a.965.965 0 0 1-.701-1.203 1.032 1.032 0 0 1 1.236-.721l6.373 1.583a.967.967 0 0 1 .702 1.203 1.033 1.033 0 0 1-1.237.721l-6.373-1.583zm26.49 6.425a.966.966 0 0 1-.701-1.203 1.031 1.031 0 0 1 1.236-.722l6.373 1.584a.966.966 0 0 1 .702 1.202 1.033 1.033 0 0 1-1.237.722l-6.373-1.583zm-13.728-2.749a.967.967 0 0 1-.794-1.145c.107-.54.635-.903 1.18-.81l6.431 1.089c.545.092.9.605.794 1.145-.107.54-.635.903-1.18.81l-6.431-1.089zm26.49 6.424a.965.965 0 0 1-.793-1.144c.106-.54.634-.903 1.179-.811l6.432 1.09c.544.092.9.604.793 1.144-.107.54-.635.903-1.18.811l-6.431-1.09zm13.729 2.749a.965.965 0 0 1-.702-1.203 1.032 1.032 0 0 1 1.236-.721l6.373 1.583a.967.967 0 0 1 .702 1.203 1.032 1.032 0 0 1-1.236.721l-6.373-1.583zm12.761 3.676a.966.966 0 0 1-.793-1.145 1.03 1.03 0 0 1 1.179-.81l6.432 1.089c.545.092.9.605.793 1.145a1.03 1.03 0 0 1-1.179.81l-6.432-1.089zm-61.578-26.126a.964.964 0 0 1-.702-1.202 1.031 1.031 0 0 1 1.236-.722l6.373 1.583a.967.967 0 0 1 .702 1.203 1.033 1.033 0 0 1-1.237.722l-6.372-1.584zm26.49 6.425a.966.966 0 0 1-.702-1.203 1.032 1.032 0 0 1 1.236-.721l6.373 1.583c.535.133.85.671.702 1.203a1.032 1.032 0 0 1-1.236.721l-6.373-1.583zm-13.729-2.749a.966.966 0 0 1-.793-1.145 1.031 1.031 0 0 1 1.179-.81l6.432 1.089c.544.093.9.605.793 1.145-.106.54-.635.903-1.179.811l-6.432-1.09zm26.49 6.425a.967.967 0 0 1-.793-1.145c.106-.54.635-.903 1.179-.811l6.432 1.09c.545.092.9.605.793 1.145a1.03 1.03 0 0 1-1.179.81l-6.432-1.089zm13.729 2.748a.965.965 0 0 1-.702-1.202 1.032 1.032 0 0 1 1.236-.722l6.373 1.583c.535.133.85.672.702 1.203a1.032 1.032 0 0 1-1.236.722l-6.373-1.584zm12.762 3.676a.966.966 0 0 1-.794-1.145 1.033 1.033 0 0 1 1.18-.81l6.431 1.089c.545.093.9.605.793 1.145-.106.54-.634.903-1.179.811l-6.431-1.09zm-35.089-19.701a.967.967 0 0 1-.702-1.203 1.032 1.032 0 0 1 1.236-.721l6.373 1.583c.536.133.85.672.702 1.203a1.033 1.033 0 0 1-1.236.722l-6.373-1.584zm-13.729-2.749a.965.965 0 0 1-.793-1.144c.107-.54.635-.903 1.18-.811l6.431 1.09c.545.092.9.604.793 1.144-.106.54-.634.903-1.179.811l-6.432-1.09zm26.491 6.425a.967.967 0 0 1-.794-1.145c.107-.54.635-.903 1.18-.81l6.431 1.089c.545.092.9.605.793 1.145a1.03 1.03 0 0 1-1.179.81l-6.431-1.089zm-36.066-9.309.535-1.924-.535 1.924zm0 0-3.186-.791c-1.292-.321-.758-2.245.534-1.924l3.187.791 3.186.792c1.292.321.758 2.245-.534 1.924l-3.187-.792zm52.981 12.849.534-1.924-.534 1.924zm.534-1.924c1.292.321.758 2.245-.534 1.924l-3.187-.791c-1.292-.321-.757-2.245.535-1.924l3.186.791 3.187.792c1.292.321.757 2.245-.535 1.924l-3.186-.792c-1.293-.321-.758-2.245.534-1.924zm9.041 4.808a.966.966 0 0 1-.794-1.144c.107-.54.635-.903 1.18-.811l6.431 1.09c.545.092.9.604.794 1.144-.107.54-.635.903-1.18.811l-6.431-1.09zm-187.966 23.584a.967.967 0 0 1-.745-1.177 1.033 1.033 0 0 1 1.212-.763l6.43 1.362c.54.114.873.641.744 1.177a1.031 1.031 0 0 1-1.211.762l-6.43-1.361zm3.824-9.73a.966.966 0 0 1-.744-1.177 1.032 1.032 0 0 1 1.211-.763l6.43 1.361c.54.115.874.642.745 1.177a1.031 1.031 0 0 1-1.211.763l-6.431-1.361zm22.899 15.233a.965.965 0 0 1-.744-1.177 1.032 1.032 0 0 1 1.211-.763l6.43 1.361c.54.115.874.642.745 1.177a1.031 1.031 0 0 1-1.211.763l-6.431-1.361zm3.825-9.73a.968.968 0 0 1-.745-1.177 1.031 1.031 0 0 1 1.211-.763l6.431 1.361c.54.114.873.641.744 1.177a1.032 1.032 0 0 1-1.211.763l-6.43-1.361zm-17.653 7.458a.968.968 0 0 1-.835-1.116 1.032 1.032 0 0 1 1.152-.85l6.471.866a.967.967 0 0 1 .834 1.116 1.03 1.03 0 0 1-1.151.85l-6.471-.866zm3.824-9.73a.967.967 0 0 1-.834-1.116 1.031 1.031 0 0 1 1.151-.85l6.471.866a.968.968 0 0 1 .835 1.116 1.032 1.032 0 0 1-1.152.85l-6.471-.866zm22.899 15.233a.967.967 0 0 1-.834-1.116 1.031 1.031 0 0 1 1.151-.85l6.471.866a.968.968 0 0 1 .835 1.116 1.032 1.032 0 0 1-1.152.85l-6.471-.866zm3.825-9.731a.966.966 0 0 1-.835-1.115 1.031 1.031 0 0 1 1.152-.85l6.471.866a.966.966 0 0 1 .834 1.116 1.032 1.032 0 0 1-1.151.85l-6.471-.867zm10.004 12.003a.968.968 0 0 1-.745-1.177 1.031 1.031 0 0 1 1.211-.763l6.431 1.361c.54.114.873.641.744 1.177a1.032 1.032 0 0 1-1.211.763l-6.43-1.361zm3.824-9.731a.965.965 0 0 1-.744-1.177 1.032 1.032 0 0 1 1.211-.762l6.43 1.361c.54.114.874.641.745 1.177a1.032 1.032 0 0 1-1.211.763l-6.431-1.362zm9.07 12.961a.966.966 0 0 1-.834-1.115 1.031 1.031 0 0 1 1.151-.85l6.472.866a.967.967 0 0 1 .834 1.116 1.032 1.032 0 0 1-1.151.85l-6.472-.867zm3.825-9.73a.966.966 0 0 1-.834-1.115 1.03 1.03 0 0 1 1.151-.85l6.471.866a.966.966 0 0 1 .834 1.116 1.031 1.031 0 0 1-1.151.85l-6.471-.867zm-62.517-23.966a.968.968 0 0 1-.745-1.177 1.032 1.032 0 0 1 1.212-.763l6.43 1.361c.54.114.873.641.744 1.177a1.032 1.032 0 0 1-1.211.763l-6.43-1.361zm26.723 5.502a.965.965 0 0 1-.744-1.177 1.032 1.032 0 0 1 1.211-.762l6.43 1.361c.54.114.874.641.745 1.177a1.032 1.032 0 0 1-1.211.763l-6.431-1.362zm-13.828-2.272a.966.966 0 0 1-.835-1.115 1.031 1.031 0 0 1 1.152-.85l6.471.866a.966.966 0 0 1 .834 1.116 1.031 1.031 0 0 1-1.151.85l-6.471-.867zm26.723 5.503a.966.966 0 0 1-.834-1.116 1.03 1.03 0 0 1 1.151-.849l6.471.866a.966.966 0 0 1 .834 1.116 1.031 1.031 0 0 1-1.151.85l-6.471-.867zm13.829 2.272a.966.966 0 0 1-.745-1.177 1.033 1.033 0 0 1 1.211-.763l6.431 1.362c.54.114.873.641.744 1.177a1.033 1.033 0 0 1-1.211.763l-6.43-1.362zm12.894 3.231a.967.967 0 0 1-.834-1.116 1.032 1.032 0 0 1 1.151-.85l6.472.867a.967.967 0 0 1 .834 1.115 1.031 1.031 0 0 1-1.151.85l-6.472-.866zm-62.517-23.967a.965.965 0 0 1-.744-1.177 1.033 1.033 0 0 1 1.211-.763l6.43 1.362c.54.114.874.641.745 1.177a1.032 1.032 0 0 1-1.211.763l-6.431-1.362zm26.724 5.503a.967.967 0 0 1-.745-1.177 1.033 1.033 0 0 1 1.211-.763l6.431 1.362c.54.114.873.641.744 1.177a1.032 1.032 0 0 1-1.211.763l-6.43-1.362zm-13.829-2.272a.966.966 0 0 1-.834-1.116 1.03 1.03 0 0 1 1.151-.849l6.471.866a.967.967 0 0 1 .835 1.116 1.033 1.033 0 0 1-1.152.85l-6.471-.867zm26.724 5.503a.967.967 0 0 1-.835-1.116 1.032 1.032 0 0 1 1.151-.85l6.472.867a.966.966 0 0 1 .834 1.115 1.031 1.031 0 0 1-1.151.85l-6.471-.866zm13.828 2.272a.965.965 0 0 1-.744-1.177 1.032 1.032 0 0 1 1.211-.763l6.43 1.362c.54.114.874.641.745 1.176a1.031 1.031 0 0 1-1.211.763l-6.431-1.361zm12.895 3.231a.967.967 0 0 1-.834-1.116 1.031 1.031 0 0 1 1.151-.85l6.471.866a.967.967 0 0 1 .834 1.116 1.03 1.03 0 0 1-1.151.85l-6.471-.866zm-62.517-23.967a.967.967 0 0 1-.745-1.177 1.033 1.033 0 0 1 1.211-.763l6.431 1.362c.54.114.873.641.744 1.177a1.032 1.032 0 0 1-1.211.763l-6.43-1.362zm26.723 5.503a.965.965 0 0 1-.744-1.177 1.032 1.032 0 0 1 1.211-.763l6.43 1.362c.54.114.874.641.745 1.176a1.031 1.031 0 0 1-1.211.763l-6.431-1.361zm-13.828-2.272a.967.967 0 0 1-.835-1.116 1.032 1.032 0 0 1 1.152-.85l6.471.867a.966.966 0 0 1 .834 1.115 1.031 1.031 0 0 1-1.151.85l-6.471-.866zm26.723 5.503a.967.967 0 0 1-.834-1.116 1.031 1.031 0 0 1 1.151-.85l6.471.866a.966.966 0 0 1 .834 1.116 1.03 1.03 0 0 1-1.151.85l-6.471-.866zm13.829 2.272a.966.966 0 0 1-.745-1.177 1.032 1.032 0 0 1 1.211-.763l6.431 1.361c.54.115.873.642.744 1.177a1.031 1.031 0 0 1-1.211.763l-6.43-1.361zm12.894 3.231a.968.968 0 0 1-.834-1.116 1.032 1.032 0 0 1 1.151-.85l6.472.866a.968.968 0 0 1 .834 1.116 1.032 1.032 0 0 1-1.151.85l-6.472-.866zm-62.517-23.967a.965.965 0 0 1-.744-1.177 1.032 1.032 0 0 1 1.211-.763l6.43 1.362c.54.114.874.641.745 1.176a1.031 1.031 0 0 1-1.211.763l-6.431-1.361zm26.724 5.503a.967.967 0 0 1-.745-1.177 1.032 1.032 0 0 1 1.211-.763l6.431 1.361c.54.115.873.642.744 1.177a1.031 1.031 0 0 1-1.211.763l-6.43-1.361zm-13.829-2.272a.967.967 0 0 1-.834-1.116 1.031 1.031 0 0 1 1.151-.85l6.471.866a.968.968 0 0 1 .835 1.116 1.031 1.031 0 0 1-1.152.85l-6.471-.866zm26.723 5.503a.968.968 0 0 1-.834-1.116 1.032 1.032 0 0 1 1.151-.85l6.472.866a.968.968 0 0 1 .834 1.116 1.032 1.032 0 0 1-1.151.85l-6.472-.866zm13.829 2.272a.966.966 0 0 1-.744-1.177 1.031 1.031 0 0 1 1.211-.763l6.43 1.361c.54.114.874.641.745 1.177a1.032 1.032 0 0 1-1.211.763l-6.431-1.361zm12.895 3.23a.966.966 0 0 1-.834-1.115 1.03 1.03 0 0 1 1.151-.85l6.471.866a.966.966 0 0 1 .834 1.116 1.031 1.031 0 0 1-1.151.85l-6.471-.867zm-35.794-18.463a.966.966 0 0 1-.744-1.177 1.031 1.031 0 0 1 1.211-.763l6.43 1.361c.54.114.874.641.745 1.177a1.032 1.032 0 0 1-1.211.763l-6.431-1.361zm-13.828-2.272a.968.968 0 0 1-.835-1.116 1.031 1.031 0 0 1 1.151-.85l6.472.866a.967.967 0 0 1 .834 1.116 1.032 1.032 0 0 1-1.151.85l-6.471-.866zm26.723 5.502a.966.966 0 0 1-.834-1.115 1.03 1.03 0 0 1 1.151-.85l6.471.866a.966.966 0 0 1 .834 1.116 1.03 1.03 0 0 1-1.151.85l-6.471-.867zm-36.403-8.053.467-1.939-.467 1.939zm0 0-3.215-.68c-1.304-.276-.837-2.216.466-1.94l3.216.681 3.215.68c1.304.276.837 2.216-.467 1.94l-3.215-.681zm53.447 11.006.467-1.94-.467 1.94zm.467-1.94c1.303.276.837 2.216-.467 1.94l-3.215-.681c-1.304-.276-.837-2.216.466-1.94l3.216.681 3.215.681c1.303.276.837 2.216-.467 1.94l-3.215-.681c-1.304-.276-.837-2.216.467-1.94zm9.212 4.49a.967.967 0 0 1-.834-1.116 1.033 1.033 0 0 1 1.151-.85l6.472.867a.967.967 0 0 1 .834 1.116 1.033 1.033 0 0 1-1.151.85l-6.472-.867zm-171.42 31.181a.965.965 0 0 1-.765-1.163 1.031 1.031 0 0 1 1.197-.784l6.457 1.25a.966.966 0 0 1 .765 1.164 1.032 1.032 0 0 1-1.198.783l-6.456-1.25zm3.653-9.79a.966.966 0 0 1-.765-1.164 1.032 1.032 0 0 1 1.198-.783l6.456 1.25a.965.965 0 0 1 .765 1.163 1.031 1.031 0 0 1-1.197.784l-6.457-1.25zm23.175 14.83a.967.967 0 0 1-.766-1.164c.12-.537.656-.888 1.198-.783l6.457 1.25a.966.966 0 0 1 .765 1.163 1.031 1.031 0 0 1-1.198.783l-6.456-1.249zm3.653-9.791a.965.965 0 0 1-.765-1.163 1.032 1.032 0 0 1 1.198-.784l6.456 1.25a.966.966 0 0 1 .765 1.164 1.031 1.031 0 0 1-1.197.783l-6.457-1.25zm-17.526 7.758a.968.968 0 0 1-.854-1.101 1.031 1.031 0 0 1 1.137-.869l6.488.754c.55.064.932.557.854 1.101a1.03 1.03 0 0 1-1.136.869l-6.489-.754zm3.654-9.79a.968.968 0 0 1-.855-1.101 1.031 1.031 0 0 1 1.137-.869l6.488.754c.55.064.932.557.854 1.101a1.03 1.03 0 0 1-1.136.869l-6.488-.754zm23.174 14.829a.966.966 0 0 1-.854-1.1 1.032 1.032 0 0 1 1.136-.87l6.489.755c.55.064.932.557.854 1.101a1.03 1.03 0 0 1-1.136.869l-6.489-.755zm3.654-9.79a.968.968 0 0 1-.855-1.101 1.031 1.031 0 0 1 1.137-.869l6.488.754c.55.064.932.557.854 1.101a1.03 1.03 0 0 1-1.136.869l-6.488-.754zm10.219 11.823a.967.967 0 0 1-.766-1.164c.12-.537.656-.888 1.198-.783l6.456 1.25a.966.966 0 0 1 .766 1.163 1.032 1.032 0 0 1-1.198.784l-6.456-1.25zm3.653-9.791a.965.965 0 0 1-.765-1.163 1.03 1.03 0 0 1 1.198-.783l6.456 1.249a.966.966 0 0 1 .765 1.164 1.03 1.03 0 0 1-1.198.783l-6.456-1.25zm9.302 12.798a.967.967 0 0 1-.854-1.101 1.03 1.03 0 0 1 1.136-.869l6.489.754a.968.968 0 0 1 .854 1.101 1.031 1.031 0 0 1-1.137.869l-6.488-.754zm3.653-9.791a.967.967 0 0 1-.854-1.1 1.032 1.032 0 0 1 1.137-.87l6.488.755c.55.064.932.556.854 1.1a1.032 1.032 0 0 1-1.136.87l-6.489-.755zm-62.957-22.876a.967.967 0 0 1-.766-1.163c.12-.538.656-.889 1.198-.784l6.456 1.25a.967.967 0 0 1 .766 1.164c-.12.537-.656.888-1.198.783l-6.456-1.25zm26.828 5.04a.967.967 0 0 1-.766-1.164c.12-.538.656-.888 1.198-.783l6.456 1.25a.966.966 0 0 1 .766 1.163c-.12.538-.656.888-1.198.783l-6.456-1.249zm-13.873-2.033a.967.967 0 0 1-.854-1.101 1.03 1.03 0 0 1 1.136-.869l6.489.754a.968.968 0 0 1 .854 1.101 1.031 1.031 0 0 1-1.137.869l-6.488-.754zm26.828 5.039a.966.966 0 0 1-.854-1.1 1.031 1.031 0 0 1 1.136-.87l6.489.755a.967.967 0 0 1 .854 1.1 1.032 1.032 0 0 1-1.137.87l-6.488-.755zm13.873 2.033a.967.967 0 0 1-.766-1.164 1.032 1.032 0 0 1 1.198-.783l6.456 1.25a.967.967 0 0 1 .766 1.163c-.12.538-.656.889-1.198.784l-6.456-1.25zm12.955 3.007a.967.967 0 0 1-.854-1.101 1.03 1.03 0 0 1 1.136-.869l6.488.754c.55.064.932.557.855 1.101a1.031 1.031 0 0 1-1.137.869l-6.488-.754zm-62.958-22.876a.966.966 0 0 1-.765-1.164 1.031 1.031 0 0 1 1.197-.783l6.457 1.25a.965.965 0 0 1 .765 1.163 1.031 1.031 0 0 1-1.198.783l-6.456-1.249zm26.828 5.039a.967.967 0 0 1-.766-1.163c.12-.538.656-.889 1.198-.784l6.457 1.25a.966.966 0 0 1 .765 1.163 1.032 1.032 0 0 1-1.198.784l-6.456-1.25zm-13.873-2.033a.966.966 0 0 1-.854-1.1 1.033 1.033 0 0 1 1.137-.87l6.488.755c.55.064.932.557.854 1.101a1.03 1.03 0 0 1-1.136.869l-6.489-.755zm26.828 5.04a.968.968 0 0 1-.854-1.101 1.03 1.03 0 0 1 1.136-.869l6.489.754c.55.064.932.557.854 1.101a1.03 1.03 0 0 1-1.136.869l-6.489-.754zm13.873 2.032a.967.967 0 0 1-.766-1.163c.12-.538.656-.888 1.198-.783l6.456 1.249a.967.967 0 0 1 .766 1.164 1.031 1.031 0 0 1-1.198.783l-6.456-1.25zm12.955 3.007a.966.966 0 0 1-.854-1.1 1.03 1.03 0 0 1 1.136-.87l6.489.755a.966.966 0 0 1 .854 1.1 1.032 1.032 0 0 1-1.137.87l-6.488-.755zm-62.958-22.876a.965.965 0 0 1-.765-1.163 1.032 1.032 0 0 1 1.198-.784l6.456 1.25a.966.966 0 0 1 .765 1.164 1.031 1.031 0 0 1-1.197.783l-6.457-1.25zm26.828 5.039a.965.965 0 0 1-.765-1.163 1.03 1.03 0 0 1 1.198-.783l6.456 1.249a.966.966 0 0 1 .765 1.164 1.03 1.03 0 0 1-1.197.783l-6.457-1.25zm-13.872-2.032a.967.967 0 0 1-.854-1.101 1.03 1.03 0 0 1 1.136-.869l6.488.754c.55.064.932.557.854 1.101a1.03 1.03 0 0 1-1.136.869l-6.488-.754zm26.828 5.039a.967.967 0 0 1-.855-1.1 1.032 1.032 0 0 1 1.137-.87l6.488.755c.55.064.932.556.854 1.1a1.031 1.031 0 0 1-1.136.87l-6.488-.755zm13.872 2.033a.966.966 0 0 1-.765-1.164 1.032 1.032 0 0 1 1.198-.783l6.456 1.25a.965.965 0 0 1 .765 1.163 1.032 1.032 0 0 1-1.198.784l-6.456-1.25zm12.955 3.007a.968.968 0 0 1-.854-1.101 1.031 1.031 0 0 1 1.137-.869l6.488.754c.55.064.932.557.854 1.101a1.03 1.03 0 0 1-1.136.869l-6.489-.754zm-62.957-22.876a.967.967 0 0 1-.766-1.164c.12-.538.656-.888 1.198-.783l6.456 1.25a.966.966 0 0 1 .766 1.163c-.12.538-.656.888-1.198.783l-6.456-1.249zm26.828 5.039a.967.967 0 0 1-.766-1.164c.12-.537.656-.888 1.198-.783l6.456 1.25a.967.967 0 0 1 .766 1.163c-.12.538-.656.889-1.198.784l-6.456-1.25zm-13.873-2.033a.966.966 0 0 1-.854-1.1 1.032 1.032 0 0 1 1.136-.87l6.489.755a.967.967 0 0 1 .854 1.1 1.032 1.032 0 0 1-1.137.87l-6.488-.755zm26.828 5.04a.967.967 0 0 1-.854-1.101 1.03 1.03 0 0 1 1.136-.869l6.489.754a.968.968 0 0 1 .854 1.101 1.031 1.031 0 0 1-1.137.869l-6.488-.754zm13.873 2.032a.966.966 0 0 1-.766-1.163 1.032 1.032 0 0 1 1.198-.784l6.456 1.25a.967.967 0 0 1 .766 1.164c-.12.537-.656.888-1.198.783l-6.456-1.25zm12.955 3.007a.967.967 0 0 1-.854-1.101 1.03 1.03 0 0 1 1.136-.869l6.488.755c.55.063.933.556.855 1.1a1.033 1.033 0 0 1-1.137.87l-6.488-.755zm-36.13-17.837a.967.967 0 0 1-.766-1.163c.12-.538.656-.888 1.198-.783l6.457 1.249a.967.967 0 0 1 .765 1.164 1.032 1.032 0 0 1-1.198.783l-6.456-1.25zm-13.873-2.032a.968.968 0 0 1-.854-1.101 1.031 1.031 0 0 1 1.137-.869l6.488.754c.55.064.932.557.854 1.101a1.03 1.03 0 0 1-1.136.869l-6.489-.754zm26.828 5.039a.967.967 0 0 1-.854-1.101 1.03 1.03 0 0 1 1.136-.869l6.489.755c.55.063.932.556.854 1.1a1.032 1.032 0 0 1-1.136.87l-6.489-.755zm-36.555-7.421.433-1.947-.433 1.947zm0 0-3.228-.625c-1.309-.253-.876-2.2.432-1.947l3.229.625 3.228.625c1.309.253.876 2.2-.433 1.947l-3.228-.625zm53.656 10.079.432-1.947-.432 1.947zm.432-1.947c1.309.253.877 2.2-.432 1.947l-3.228-.625c-1.309-.254-.877-2.201.432-1.947l3.228.625 3.228.625c1.309.253.877 2.2-.432 1.947l-3.228-.625c-1.309-.254-.877-2.201.432-1.947zm9.295 4.329a.967.967 0 0 1-.854-1.101 1.03 1.03 0 0 1 1.136-.869l6.489.754a.968.968 0 0 1 .854 1.101 1.031 1.031 0 0 1-1.137.869l-6.488-.754zm-18.282 157.673a1.032 1.032 0 0 1-1.224.742.965.965 0 0 1-.723-1.19l1.646-6.354a1.031 1.031 0 0 1 1.224-.742.966.966 0 0 1 .723 1.19l-1.646 6.354zm-9.705-3.711a1.032 1.032 0 0 1-1.224.742.965.965 0 0 1-.723-1.19l1.646-6.354a1.031 1.031 0 0 1 1.224-.742.966.966 0 0 1 .723 1.19l-1.646 6.354zm16.389-22.695a1.034 1.034 0 0 1-1.224.743.967.967 0 0 1-.724-1.19l1.647-6.355a1.032 1.032 0 0 1 1.223-.742.967.967 0 0 1 .724 1.19l-1.646 6.354zm-9.705-3.711a1.034 1.034 0 0 1-1.224.743.967.967 0 0 1-.724-1.19l1.647-6.355a1.032 1.032 0 0 1 1.223-.742.967.967 0 0 1 .724 1.19l-1.646 6.354zm6.829 17.372a1.031 1.031 0 0 1-1.165.83.966.966 0 0 1-.814-1.13l1.146-6.391a1.031 1.031 0 0 1 1.165-.831.967.967 0 0 1 .814 1.131l-1.146 6.391zm-9.705-3.711a1.03 1.03 0 0 1-1.165.83.966.966 0 0 1-.814-1.13l1.146-6.391a1.031 1.031 0 0 1 1.165-.831.967.967 0 0 1 .814 1.131l-1.146 6.391zm16.389-22.695a1.031 1.031 0 0 1-1.165.831.967.967 0 0 1-.814-1.131l1.146-6.391a1.03 1.03 0 0 1 1.165-.83.966.966 0 0 1 .814 1.13l-1.146 6.391zm-9.705-3.711a1.031 1.031 0 0 1-1.165.831.967.967 0 0 1-.814-1.131l1.146-6.391a1.03 1.03 0 0 1 1.165-.83.966.966 0 0 1 .814 1.13l-1.146 6.391zm12.58-9.949a1.032 1.032 0 0 1-1.224.742.967.967 0 0 1-.723-1.19l1.646-6.354a1.034 1.034 0 0 1 1.224-.743.965.965 0 0 1 .723 1.19l-1.646 6.355zm-9.705-3.711a1.032 1.032 0 0 1-1.223.742.966.966 0 0 1-.724-1.19l1.646-6.354a1.034 1.034 0 0 1 1.224-.743.966.966 0 0 1 .723 1.191l-1.646 6.354zm13.514-9.034a1.032 1.032 0 0 1-1.166.83.967.967 0 0 1-.814-1.13l1.146-6.392a1.032 1.032 0 0 1 1.166-.83.966.966 0 0 1 .814 1.13l-1.146 6.392zm-9.705-3.711a1.032 1.032 0 0 1-1.166.83.967.967 0 0 1-.814-1.13l1.146-6.392a1.032 1.032 0 0 1 1.166-.83.966.966 0 0 1 .814 1.13l-1.146 6.392zm-26.881 61.845a1.032 1.032 0 0 1-1.224.742.965.965 0 0 1-.723-1.19l1.646-6.354a1.032 1.032 0 0 1 1.224-.742.966.966 0 0 1 .723 1.19l-1.646 6.354zm6.684-26.406a1.034 1.034 0 0 1-1.224.743.967.967 0 0 1-.724-1.19l1.647-6.354a1.032 1.032 0 0 1 1.223-.743.967.967 0 0 1 .724 1.19l-1.646 6.354zm-2.876 13.661a1.032 1.032 0 0 1-1.165.831.967.967 0 0 1-.814-1.131l1.146-6.391a1.032 1.032 0 0 1 1.165-.831.967.967 0 0 1 .814 1.131l-1.146 6.391zm6.684-26.406a1.031 1.031 0 0 1-1.165.831.967.967 0 0 1-.814-1.131l1.146-6.391a1.031 1.031 0 0 1 1.165-.83.966.966 0 0 1 .814 1.13l-1.146 6.391zm2.875-13.66a1.032 1.032 0 0 1-1.223.742.966.966 0 0 1-.724-1.19l1.646-6.354a1.032 1.032 0 0 1 1.224-.742.965.965 0 0 1 .723 1.19l-1.646 6.354zm3.809-12.745a1.032 1.032 0 0 1-1.166.83.967.967 0 0 1-.814-1.13l1.146-6.392a1.032 1.032 0 0 1 1.166-.83.966.966 0 0 1 .814 1.13l-1.146 6.392zm-26.881 61.845a1.033 1.033 0 0 1-1.224.743.966.966 0 0 1-.723-1.191l1.646-6.354a1.032 1.032 0 0 1 1.224-.742.966.966 0 0 1 .723 1.19l-1.646 6.354zm6.684-26.405a1.033 1.033 0 0 1-1.224.742.967.967 0 0 1-.724-1.19l1.647-6.354a1.032 1.032 0 0 1 1.223-.743.967.967 0 0 1 .724 1.19l-1.646 6.355zm-2.876 13.66a1.032 1.032 0 0 1-1.165.831.967.967 0 0 1-.814-1.131l1.146-6.391a1.032 1.032 0 0 1 1.165-.831.967.967 0 0 1 .814 1.131l-1.146 6.391zm6.684-26.405a1.031 1.031 0 0 1-1.165.83.966.966 0 0 1-.814-1.13l1.146-6.392a1.031 1.031 0 0 1 1.165-.83.966.966 0 0 1 .814 1.13l-1.146 6.392zm2.875-13.661a1.03 1.03 0 0 1-1.223.742.966.966 0 0 1-.724-1.19l1.646-6.354a1.032 1.032 0 0 1 1.224-.742.965.965 0 0 1 .723 1.19l-1.646 6.354zm3.809-12.745a1.032 1.032 0 0 1-1.166.83.967.967 0 0 1-.814-1.13l1.146-6.392a1.032 1.032 0 0 1 1.166-.83.967.967 0 0 1 .814 1.131l-1.146 6.391zm-26.881 61.845a1.033 1.033 0 0 1-1.224.743.965.965 0 0 1-.723-1.19l1.646-6.355a1.032 1.032 0 0 1 1.224-.742.967.967 0 0 1 .723 1.19l-1.646 6.354zm6.684-26.405a1.033 1.033 0 0 1-1.224.742.967.967 0 0 1-.724-1.19l1.647-6.354a1.032 1.032 0 0 1 1.223-.743.967.967 0 0 1 .724 1.19l-1.646 6.355zm-2.876 13.66a1.031 1.031 0 0 1-1.165.831.967.967 0 0 1-.814-1.131l1.146-6.391a1.03 1.03 0 0 1 1.165-.83.966.966 0 0 1 .814 1.13l-1.146 6.391zm6.684-26.405a1.031 1.031 0 0 1-1.165.83.966.966 0 0 1-.814-1.13l1.146-6.392a1.031 1.031 0 0 1 1.165-.83.966.966 0 0 1 .814 1.13l-1.146 6.392zm2.875-13.661a1.031 1.031 0 0 1-1.224.742.966.966 0 0 1-.723-1.19l1.646-6.354a1.032 1.032 0 0 1 1.224-.742.965.965 0 0 1 .723 1.19l-1.646 6.354zm3.809-12.745a1.032 1.032 0 0 1-1.166.83.967.967 0 0 1-.814-1.13l1.146-6.391a1.032 1.032 0 0 1 1.166-.831.967.967 0 0 1 .814 1.131l-1.146 6.391zm-26.881 61.845a1.033 1.033 0 0 1-1.224.743.965.965 0 0 1-.723-1.19l1.646-6.355a1.032 1.032 0 0 1 1.224-.742.967.967 0 0 1 .723 1.19l-1.646 6.354zm6.684-26.405a1.033 1.033 0 0 1-1.224.742.966.966 0 0 1-.724-1.19l1.647-6.354a1.032 1.032 0 0 1 1.223-.743.967.967 0 0 1 .724 1.191l-1.646 6.354zm-2.876 13.66a1.031 1.031 0 0 1-1.165.831.967.967 0 0 1-.814-1.131l1.146-6.391a1.031 1.031 0 0 1 1.165-.83.966.966 0 0 1 .814 1.13l-1.146 6.391zm6.684-26.405a1.031 1.031 0 0 1-1.165.83.966.966 0 0 1-.814-1.13l1.146-6.392a1.03 1.03 0 0 1 1.165-.83.966.966 0 0 1 .814 1.13l-1.146 6.392zm2.875-13.661a1.03 1.03 0 0 1-1.223.742.966.966 0 0 1-.724-1.19l1.646-6.354a1.032 1.032 0 0 1 1.224-.742.965.965 0 0 1 .723 1.19l-1.646 6.354zm3.809-12.745a1.032 1.032 0 0 1-1.166.83.966.966 0 0 1-.814-1.13l1.146-6.391a1.032 1.032 0 0 1 1.166-.831.967.967 0 0 1 .814 1.131l-1.146 6.391zm-20.197 35.44a1.033 1.033 0 0 1-1.224.742.966.966 0 0 1-.724-1.19l1.647-6.354a1.03 1.03 0 0 1 1.223-.742.966.966 0 0 1 .724 1.19l-1.646 6.354zm-2.876 13.66a1.031 1.031 0 0 1-1.165.831.967.967 0 0 1-.814-1.131l1.146-6.391a1.031 1.031 0 0 1 1.165-.83.966.966 0 0 1 .814 1.13l-1.146 6.391zm6.684-26.405a1.031 1.031 0 0 1-1.165.83.966.966 0 0 1-.814-1.13l1.146-6.392a1.031 1.031 0 0 1 1.165-.83.966.966 0 0 1 .814 1.13l-1.146 6.392zm-9.669 35.973-1.947-.447 1.947.447zm0 0-.823 3.177c-.334 1.289-2.281.841-1.947-.447l.823-3.177.823-3.177c.333-1.289 2.281-.841 1.947.447l-.823 3.177zm13.367-52.811-1.947-.448 1.947.448zm-1.947-.448c.334-1.288 2.281-.84 1.947.448l-.823 3.177c-.333 1.288-2.28.841-1.947-.448l.823-3.177.823-3.177c.334-1.288 2.281-.84 1.947.448l-.823 3.177c-.333 1.288-2.28.841-1.947-.448zm4.933-9.12a1.031 1.031 0 0 1-1.166.83.966.966 0 0 1-.814-1.13l1.146-6.391a1.032 1.032 0 0 1 1.166-.831.967.967 0 0 1 .814 1.131l-1.146 6.391z" fill="#002D6F"/></g><path d="M908.61 520.846c-74.767-13.234-104.19-54.12-93.126-117.105 11.016-62.716 52.547-90.763 127.314-77.529 74.502 13.186 104.192 54.119 93.222 116.565-11.02 62.715-52.912 91.256-127.41 78.069zm7.129-40.587c42.925 7.598 66.252-10.383 72.498-45.941 6.198-35.287-9.644-59.921-52.568-67.519-42.925-7.598-66.157 9.84-72.402 45.398-6.294 35.83 9.548 60.464 52.472 68.062z" fill="#56AAFF"/><path d="M908.61 520.846c-74.767-13.234-104.19-54.12-93.126-117.105 11.016-62.716 52.547-90.763 127.314-77.529 74.502 13.186 104.192 54.119 93.222 116.565-11.02 62.715-52.912 91.256-127.41 78.069zm7.129-40.587c42.925 7.598 66.252-10.383 72.498-45.941 6.198-35.287-9.644-59.921-52.568-67.519-42.925-7.598-66.157 9.84-72.402 45.398-6.294 35.83 9.548 60.464 52.472 68.062z" fill="#56AAFF"/><path d="M837.569 352.287c13.226 6.126 33.281 14.6 49.258 20.815-12.482 7.761-20.14 21.171-23.338 39.308-6.304 35.751 9.619 60.342 52.734 67.944 43.115 7.602 66.536-10.33 72.792-45.81 4.907-27.83-4.012-49.025-29.255-60.441l35.487-30.256c36.313 20.276 49.703 54.113 41.763 99.161-11.03 62.578-53.099 91.039-127.928 77.845-75.099-13.242-104.67-54.056-93.588-116.905 3.76-21.327 11.083-38.634 22.075-51.661z" fill="#56AAFF"/><path fill-rule="evenodd" clip-rule="evenodd" d="M938.16 288.668a13.95 13.95 0 0 1-4.795-8.718c-1.076-7.657 4.258-14.736 11.915-15.812 7.657-1.076 14.736 4.259 15.812 11.915 1.076 7.657-4.258 14.736-11.915 15.812-.83.117-1.654.158-2.464.13 15.796 7.192 21.967 17.027 18.516 29.507-4.334 15.666-4.334 27.5 0 35.5l-83-16c4.853-6.549 7.853-11.549 9-15 5.675-17.079 5.732-28.5 6.5-28.5 1 0 12.666-3.5 35-10.5 1.89.533 3.7 1.088 5.431 1.666z" fill="#002D6F"/><path d="M960.916 321.493c-.088-15.933-11.465-30.383-27.917-33.99l-4.947-1.085c-18.848-4.133-37.222 7.53-41.038 26.05l-2.103 10.206c-2.654 12.883 5.823 25.657 18.935 28.532l12.467 2.734-6.787 33.052c3.79 4.155 9.561 6.935 17.312 8.34 7.75 1.405 14.268.649 19.553-2.269l11.795-58.065a33.603 33.603 0 0 0 2.031-6.48c.481-2.332.708-4.662.699-6.962l.013-.065-.013.002z" fill="#FF9C99"/><mask id="c" mask-type="alpha" maskUnits="userSpaceOnUse" x="884" y="285" width="77" height="112"><path d="M960.833 321.288c-.024-15.961-11.3-30.39-27.676-33.934l-4.923-1.066c-18.761-4.06-37.113 7.702-40.989 26.271l-2.136 10.233c-2.697 12.918 5.697 25.68 18.748 28.504l12.41 2.686-6.895 33.14c3.76 4.147 9.497 6.908 17.213 8.283 7.716 1.375 14.212.589 19.489-2.356l11.984-58.22a34.093 34.093 0 0 0 2.05-6.5c.488-2.339.724-4.674.725-6.978l.013-.065-.013.002z" fill="#FF9C99"/></mask><g mask="url(#c)"><path fill-rule="evenodd" clip-rule="evenodd" d="m915.379 353.807 19.072-.388-21.046 6.355 1.974-5.967zm-26.733-47.424c3.918-9.604 8.439-16.272 13.565-20.003 5.127-3.732 14.698-7.324 28.715-10.777l41.518 28.106-14.459 39.384-3.445 11.937-4.31-19.606-20.334-20.11-14.703-3.183 1.188-5.691-9.765 3.834-17.97-3.891z" fill="#002D6F"/></g><path d="m785.144 626.313-16.22 56.566-52.244-14.981-12.165 42.425-67.17-19.261 12.165-42.424-184.345-52.86 16.22-56.567L712.043 430.56l67.17 19.261L732.9 611.332l52.244 14.981zm-230.697-66.172 111.506 31.974 27.288-95.165-138.794 63.191z" fill="#56AAFF"/><mask id="d" mask-type="alpha" maskUnits="userSpaceOnUse" x="465" y="430" width="321" height="281"><path d="m785.144 626.313-16.22 56.566-52.244-14.981-12.165 42.425-67.17-19.261 12.165-42.424-184.345-52.86 16.22-56.567L712.043 430.56l67.17 19.261L732.9 611.332l52.244 14.981zm-230.697-66.172 111.506 31.974 27.288-95.165-138.794 63.191z" fill="#56AAFF"/></mask><g mask="url(#d)"><path fill-rule="evenodd" clip-rule="evenodd" d="m606.228 581.502 8 79.5-18.5 47.5 32.5 18.5 53 46 11.5-9.5c8.229-8.712 12.896-15.879 14-21.5 1.104-5.621 18.938-5.621 53.5 0l-67.5-184.5-86.5 24z" fill="#002D6F"/></g><path d="m1331.45 590.353 31.19 49.904-46.09 28.8 23.38 37.428-59.26 37.03-23.38-37.428-162.64 101.624-31.18-49.904 73.6-244.113 59.26-37.03 89.03 142.489 46.09-28.8zm-203.54 127.164 98.37-61.471-52.46-83.957-45.91 145.428z" fill="#56AAFF"/><mask id="e" mask-type="alpha" maskUnits="userSpaceOnUse" x="1063" y="476" width="300" height="332"><path d="m1331.45 590.352 31.19 49.904-46.09 28.8 23.38 37.428-59.26 37.03-23.38-37.428-162.64 101.624-31.18-49.904 73.6-244.113 59.26-37.03 89.03 142.489 46.09-28.8zm-203.54 127.164 98.37-61.471-52.46-83.957-45.91 145.428z" fill="#56AAFF"/></mask><g mask="url(#e)"><path fill-rule="evenodd" clip-rule="evenodd" d="M1093.23 691.501c-1.33 0-9.5 28.5-24.5 85.5l26.5 40 91.5-39.5-14.5-93c-51.33 4.667-77.67 7-79 7z" fill="#002D6F"/></g><path fill-rule="evenodd" clip-rule="evenodd" d="m906.729 310.502-23.5-5c11.666-18.667 27.5-25 47.5-19 16.902 5.07 3.594 4.572-19.5 12.5-2.822.968-4.322 4.802-4.5 11.5z" fill="#002D6F"/><path d="M891.584 318.37c.096.487.144 1.042.144 1.631 0 1.932-.523 3.5-1.5 3.5s-1.5-1.568-1.5-3.5c0-.933.122-1.781.359-2.409-2.399-.561-4.466-.518-6.327.115a1 1 0 1 1-.645-1.893c2.823-.961 5.961-.789 9.635.472 1.769.607 3.81 2.128 6.174 4.557a.999.999 0 1 1-1.433 1.395c-1.925-1.978-3.573-3.266-4.907-3.868zm27.91 6.608c.155.572.234 1.27.234 2.023 0 1.932-.523 3.5-1.5 3.5s-1.5-1.568-1.5-3.5c0-1.03.149-1.957.436-2.598-2.012-.351-3.786-.247-5.404.304a1 1 0 1 1-.645-1.893c2.823-.961 5.961-.789 9.635.472 1.769.607 3.81 2.128 6.174 4.557a.999.999 0 1 1-1.433 1.395c-2.165-2.224-3.979-3.576-5.39-4.061a26.7 26.7 0 0 0-.607-.199zm-12.916-2.95-5.742 9.275 3.588.718a1 1 0 1 1-.392 1.961l-5-1a1 1 0 0 1-.654-1.507l6.5-10.5a1 1 0 1 1 1.7 1.053zm-8.754 17.469a1 1 0 0 1-.192-1.991l15.5-1.5a1 1 0 1 1 .192 1.991l-15.5 1.5z" fill="#002D6F"/><path fill-rule="evenodd" clip-rule="evenodd" d="M940.44 328.259c5.134-5.134 10.07-5.529 14.809-1.185 7.109 6.517-.938 18.698-9.418 18.517-5.653-.121-7.45-5.898-5.391-17.332zM627.173 581.053l-8.305 20.169a11.462 11.462 0 0 1-9.336 7.03 4.776 4.776 0 0 1-5.172-5.856l14.422-60.394 2.235-.966a55.996 55.996 0 0 1 35.296-3.054c24.409 5.858 38.232 12.698 41.469 20.52 3.789 9.157 11.317 31.922 22.583 68.295a6.32 6.32 0 0 1-4.333 7.955 7.084 7.084 0 0 1-8.54-4.323l-16.948-44.931a6.421 6.421 0 0 0-8.262-3.746 7.007 7.007 0 0 0-4.294 8.427l10.484 37.958a8.12 8.12 0 0 1-6.19 10.115 9.252 9.252 0 0 1-10.79-6.62l-10.395-37.995a6.437 6.437 0 0 0-8.315-4.385 7.755 7.755 0 0 0-5.041 8.972l8.443 38.912a5.482 5.482 0 0 1-5.902 6.616 10.735 10.735 0 0 1-9.341-8.059l-13.768-54.64zm513.767 88.692c8.43-1.859 17.23.42 23.7 6.134l11.46 10.123-11 26.5-24.04 60.375c-1.58 3.988-6.02 6.024-10.08 4.625a9.718 9.718 0 0 1-.27-.097c-3.8-1.476-5.68-5.752-4.21-9.552l15.19-39.093c.08-.222.15-.451.21-.683a4.875 4.875 0 0 0-3.67-5.825l-.08-.016c-3-.64-5.96 1.277-6.6 4.283l-8.65 40.655c-.03.107-.05.213-.08.319a7.667 7.667 0 0 1-9.34 5.509 8.597 8.597 0 0 1-6.31-9.873l7.51-41.12a5.44 5.44 0 0 0-4.02-6.257 4.316 4.316 0 0 0-5.35 3.823l-3.32 40.654-.03.235c-.53 4.978-5 8.576-9.98 8.038-5.15-.556-8.89-5.143-8.41-10.297 3.33-35.555 6.84-57.789 10.53-66.703 3.46-8.38 19.08-15.632 46.84-21.757z" fill="#FF9C99"/><path fill-rule="evenodd" clip-rule="evenodd" d="m895.729 964.502-108 70.998-78-218.498 186 147.5zM1169.23 1011l-160-9.5-31.001-263.498 86.001 20 105 252.998z" fill="#FF567B"/><path d="M954.808 525.893a1 1 0 0 1 1.841-.782c8.913 21 20.928 31.391 36.08 31.391a1 1 0 0 1 0 2c-16.073 0-28.724-10.942-37.921-32.609zM938.659 596.6a1 1 0 1 1-.861 1.805l-22-10.5a1.001 1.001 0 0 1 .861-1.805l22 10.5zm-62.415-165.424a1 1 0 0 1 1.969-.348l3 17a1 1 0 0 1-1.969.348l-3-17z" fill="#002D6F"/><path d="M671.729 610.002c5.799 0 10.5-4.701 10.5-10.5s-4.701-10.5-10.5-10.5-10.5 4.701-10.5 10.5 4.701 10.5 10.5 10.5z" fill="#FFE694"/><path fill-rule="evenodd" clip-rule="evenodd" d="m555.615 769.675 13.28 7.738 11.333-8.411-2.667 13.458 8.667 3.701-7.333 5.047 3 12.785-11.334-7.402-8.333 8.411-1.667-11.776-10.333-4.71 10.333-6.056-4.946-12.785zm647.865 50.316 19.82-7.918.49-19.596 12.45 14.426 11.46-6.321-.75 12.342 16.56 7.649-17.79 6.074 2.08 16.313-14.32-8.245c-9.32 4.855-13.99 7.282-13.99 7.282s.74-5.496 2.21-16.488l-18.22-5.518zm-325.172-40.989 19.92 11.5 17-12.5-4 20 13 5.5-11 7.5 4.5 19-17-11-12.5 12.5-2.5-17.5-15.5-7 15.5-9-7.42-19zm-78.544-243.308 13.649 7.953 11.648-8.645-2.74 13.832 8.907 3.803-7.537 5.187 3.083 13.141-11.648-7.608-8.565 8.645-1.713-12.103-10.62-4.841 10.62-6.224-5.084-13.14z" fill="#56AAFF"/></svg>