<svg width="1840" height="1380" viewBox="0 0 1840 1380" fill="none" xmlns="http://www.w3.org/2000/svg">
<path d="M1269.75 590.802L1279.6 530.214C1279.87 528.576 1280.71 527.086 1281.98 526.008C1283.24 524.931 1284.85 524.336 1286.51 524.329C1288.37 524.329 1290.16 525.069 1291.47 526.386C1292.79 527.704 1293.53 529.491 1293.53 531.354V561.078L1311.2 531.219C1311.84 530.137 1312.69 529.199 1313.72 528.466C1314.74 527.733 1315.9 527.22 1317.13 526.96C1318.36 526.699 1319.63 526.698 1320.86 526.955C1322.09 527.212 1323.25 527.722 1324.28 528.452C1326.18 529.814 1327.49 531.859 1327.92 534.161C1328.35 536.463 1327.87 538.842 1326.59 540.801L1312.91 561.71C1312.79 561.896 1312.71 562.106 1312.68 562.326C1312.65 562.545 1312.67 562.769 1312.73 562.98C1312.8 563.191 1312.91 563.385 1313.06 563.548C1313.21 563.71 1313.4 563.838 1313.6 563.921C1313.9 564.036 1314.22 564.057 1314.52 563.981C1314.83 563.904 1315.1 563.734 1315.31 563.494L1332.82 542.725C1334.15 541.137 1336.06 540.142 1338.13 539.954C1340.2 539.767 1342.26 540.404 1343.86 541.725C1344.69 542.406 1345.37 543.249 1345.86 544.202C1346.35 545.154 1346.64 546.196 1346.71 547.265C1346.78 548.333 1346.64 549.405 1346.28 550.415C1345.92 551.425 1345.37 552.352 1344.64 553.139L1325.77 573.616C1325.5 573.902 1325.33 574.263 1325.28 574.65C1325.22 575.036 1325.29 575.43 1325.47 575.778C1325.59 576.029 1325.77 576.249 1325.99 576.422C1326.21 576.596 1326.47 576.718 1326.74 576.781C1327.02 576.844 1327.3 576.846 1327.57 576.787C1327.85 576.727 1328.11 576.608 1328.33 576.437L1346.1 562.824C1347.68 561.616 1349.65 561.044 1351.62 561.221C1353.59 561.399 1355.43 562.312 1356.76 563.78C1358.09 565.248 1358.81 567.16 1358.79 569.136C1358.77 571.113 1358.01 573.01 1356.66 574.454L1307.58 627.011L1269.75 590.802Z" fill="#E4A867"/>
<path d="M786.533 977.013L736.537 1023.43C710.207 1043.92 686.817 1069.71 660.476 1090.21C655.47 1094.1 652.036 1099.67 650.803 1105.9C649.57 1112.12 650.621 1118.58 653.764 1124.09L653.986 1124.48C656.963 1129.7 661.634 1133.75 667.226 1135.95C672.818 1138.16 678.996 1138.39 684.736 1136.6C708.861 1129.1 730.052 1116.31 754.177 1108.81L754.436 1108.94C762.171 1113.01 770.951 1114.64 779.629 1113.63C788.307 1112.62 796.479 1109.02 803.075 1103.29C810.723 1096.65 816.981 1090.98 832.216 1079C810.096 1050.78 808.642 1005.24 786.533 977.013Z" fill="#010101"/>
<path d="M706.078 756.175L713.871 650.974L881.406 643.824C900.826 642.998 920.092 647.599 937.043 657.11C953.995 666.622 967.961 680.668 977.376 697.673L1028.78 790.536L1047.51 774.134L1112.48 797.788L1119.99 836.813C1123.83 856.771 1124.79 881.756 1113.1 898.374C1108.6 904.655 1102.72 909.813 1095.9 913.447C1091.88 915.57 1087.59 917.125 1083.14 918.068L972.512 933.978L831.999 1078.81L754.717 1002.07L873.408 879.54C893.892 858.393 920.659 844.426 949.722 839.721L961.704 837.781L892.528 745.366L706.078 756.175Z" fill="#6C3AE7"/>
<path d="M945.961 504.819C935.234 504.819 925.965 500.058 922.28 492.211L918.291 483.704C918.074 483.236 917.942 482.733 917.902 482.218L911.984 410.178C911.926 409.055 912.308 407.954 913.048 407.108C913.789 406.262 914.83 405.737 915.951 405.646C917.071 405.555 918.183 405.903 919.051 406.618C919.919 407.333 920.474 408.358 920.599 409.476L926.43 480.737L930.089 488.541C932.791 494.292 941.487 497.329 950.782 495.761L967.33 492.967C977.734 491.211 986.348 484.32 987.37 476.89L988.45 469.048L980.16 398.251C980.034 397.116 980.362 395.978 981.072 395.084C981.783 394.19 982.818 393.613 983.952 393.48C985.086 393.346 986.226 393.667 987.125 394.371C988.023 395.076 988.607 396.107 988.748 397.24L997.103 468.578C997.148 468.936 997.148 469.3 997.103 469.658L995.952 478.041C994.411 489.217 982.981 499.069 968.789 501.468L952.241 504.257C950.167 504.62 948.067 504.808 945.961 504.819Z" fill="black"/>
<path d="M1005.12 345.665L874.002 365.285C864.931 366.642 858.677 375.096 860.035 384.167L872.52 467.605C873.877 476.676 882.331 482.93 891.402 481.572L1022.52 461.953C1031.59 460.596 1037.85 452.142 1036.49 443.071L1024 359.632C1022.65 350.561 1014.19 344.308 1005.12 345.665Z" fill="#010101"/>
<path d="M448.604 877.141C474.513 879.513 488.332 888.604 496.163 896.51C508.517 908.973 512.851 925.38 529.264 930.239C534.58 931.733 540.178 931.919 545.58 930.779C545.58 930.779 533.409 941.788 537.928 953.256C542.446 964.724 578.347 1001.68 578.347 1001.68C578.347 1001.68 574.51 995.193 571.207 987.876C567.273 979.175 564.571 972.371 567.311 969.393C568.008 968.637 569.97 967.145 575.742 968.42C577.52 972.917 583.383 985.995 597.862 994.702C605.735 999.408 614.688 1002 623.857 1002.24L586.567 961.308L597.111 925.472L488.283 874.871L448.604 877.141Z" fill="black"/>
<path d="M659.84 903.839L659.877 919.268L627.376 917.831C625.311 919.192 622.209 921.268 618.507 923.883C605.575 933.028 599.111 937.594 596.668 942.48C591.372 953.072 596.717 965.486 598.03 968.55C602.667 979.31 610.925 984.926 621.269 991.978C633.083 1000.01 644.464 1008.68 656.478 1016.41C656.597 1016.48 656.964 1016.72 656.921 1016.84C656.662 1017.56 642.329 1013.15 635.877 1010.95C617.778 1004.76 601.71 999.285 589.621 984.963C585.66 980.272 574.11 966.589 577.191 952.429C579.666 941.08 590.853 932.703 590.161 932.033C589.772 931.655 586.378 934.492 583.8 936.746C580.217 939.389 574.554 944.425 571.824 952.348C568.041 963.373 567.566 976.565 577.391 986.433C584.303 993.378 594.393 1015.62 594.393 1015.62C584.562 1011.05 568.766 1001.77 557.298 984.093C551.05 974.463 541.701 960.055 546.273 943.998C548.975 934.481 555.46 928.326 559.357 925.218C551.607 925.851 540.409 925.58 529.19 920.171C509.296 910.589 511.636 894.597 491.483 885.583C481.847 881.259 448 877.692 448 877.692C451.439 874.657 455.385 872.25 459.657 870.58C473.249 865.322 486.679 869.327 500.325 874.542C543.824 891.182 542.057 902.104 560.07 902.45C583.595 902.882 595.609 884.399 611.179 892.722C611.179 892.722 612.022 893.176 628.727 906.098L659.84 903.839Z" fill="#FDF93F"/>
<path d="M659.806 903.887L651.402 909.588L659.709 918.9L659.806 903.887Z" fill="black"/>
<path d="M629.727 912.55C629.549 912.557 629.372 912.528 629.206 912.466C629.04 912.404 628.887 912.31 628.757 912.189C628.495 911.945 628.34 911.606 628.327 911.248C628.314 910.89 628.444 910.541 628.688 910.278C628.933 910.016 629.271 909.861 629.629 909.848L653.252 908.135C653.61 908.109 653.964 908.225 654.237 908.46C654.509 908.695 654.676 909.028 654.703 909.386C654.729 909.744 654.613 910.099 654.378 910.371C654.143 910.643 653.81 910.811 653.452 910.837L629.824 912.556L629.727 912.55Z" fill="black"/>
<path d="M616.193 896.456C613.415 897.629 606.346 900.158 597.948 898.039C594.939 897.275 592.079 896.008 589.49 894.294C590.636 893.494 598.164 888.409 607.179 890.944C610.623 891.939 613.737 893.843 616.193 896.456Z" fill="black"/>
<path d="M593.327 915.403C592.746 916.261 591.995 916.991 591.122 917.549C590.248 918.107 589.27 918.48 588.247 918.646C586.685 918.873 585.091 918.591 583.702 917.841C583.043 917.479 580.703 916.068 580.151 913.225C579.868 911.479 580.254 909.69 581.232 908.216C581.632 907.551 583.037 905.222 585.847 904.665C587.594 904.382 589.383 904.768 590.857 905.746C591.544 906.157 593.851 907.545 594.408 910.356C594.713 912.115 594.326 913.924 593.327 915.403Z" fill="black"/>
<path d="M999.789 533.03L996.833 515.141C997.264 509.999 996.524 504.825 994.671 500.009C992.207 493.734 987.966 488.314 982.468 484.412L968.66 476.614C966.714 475.512 964.51 474.949 962.274 474.981C960.038 475.013 957.851 475.64 955.938 476.798L941.119 485.753C939.952 487.033 934.715 493.048 935.223 501.631C935.731 510.213 941.67 517.779 950.355 521.086L959.543 524.329L958.192 548.108L1000.35 538.65L999.789 533.03Z" fill="#E58E52"/>
<path d="M964.072 841.888C963.713 841.895 963.367 841.76 963.108 841.512C962.85 841.263 962.701 840.923 962.694 840.564C962.686 840.206 962.822 839.859 963.07 839.601C963.319 839.343 963.659 839.193 964.018 839.186L1042.45 836.073C1042.62 836.066 1042.8 836.095 1042.97 836.156C1043.13 836.218 1043.29 836.312 1043.42 836.433C1043.55 836.553 1043.65 836.699 1043.73 836.86C1043.8 837.021 1043.84 837.196 1043.85 837.373C1043.85 837.55 1043.83 837.727 1043.76 837.894C1043.7 838.06 1043.61 838.213 1043.49 838.343C1043.37 838.474 1043.22 838.579 1043.06 838.653C1042.9 838.727 1042.73 838.769 1042.55 838.775L964.126 841.888H964.072Z" fill="black"/>
<path d="M717.011 653.26L669.507 626.866L663.654 565.04C662.189 554.334 653.007 546.53 642.885 546.762C633.887 546.973 625.824 553.491 623.521 562.727C623.777 591.532 624.454 620.887 625.553 650.791C626.036 663.671 626.593 676.441 627.223 689.102L662.978 702.343C664.625 702.954 666.023 704.093 666.956 705.582C667.888 707.07 668.302 708.825 668.134 710.574V710.73C668.023 711.867 667.669 712.967 667.095 713.955C666.521 714.942 665.742 715.795 664.809 716.454C663.876 717.114 662.812 717.564 661.69 717.776C660.567 717.988 659.412 717.955 658.304 717.68C645.333 714.465 633.195 711.249 619.663 708.033L616.733 755.997C647.246 755.203 676.587 753.333 707.099 752.538C710.002 719.085 714.093 686.708 717.011 653.26Z" fill="#010101"/>
<path d="M948.733 538.38L1015.75 531.354L1028.18 651.331L1058.98 671.327L1118.97 694.382L1201.12 681.595L1262.73 582.155L1321.09 629.714L1256.47 733.126C1252.3 739.563 1246.87 745.095 1240.51 749.393C1234.16 753.69 1227 756.666 1219.47 758.143L1129.24 773.469L1113.57 794.384L1047.09 769.146L1045.47 752.933L985.083 707.19C977.697 701.496 971.548 694.356 967.011 686.208C962.474 678.059 959.644 669.072 958.694 659.794L948.733 538.38Z" fill="#6C3AE7"/>
<path d="M1082.76 680.514C1084.71 681.173 1081.14 759.418 1081.14 759.418L1118.97 691.863L1082.76 680.514Z" fill="white"/>
<path d="M1309.53 624.849L1356.62 572.968C1357.99 571.753 1358.84 570.062 1359.01 568.24C1359.17 566.417 1358.63 564.602 1357.5 563.164C1356.37 561.726 1354.73 560.774 1352.92 560.503C1351.11 560.232 1349.27 560.662 1347.76 561.705C1340.57 566.693 1329.33 577.756 1326.35 576.74C1326.03 576.632 1325.53 576.34 1325.12 575.329L1345.99 551.269C1346.66 550.57 1347.2 549.742 1347.55 548.833C1347.9 547.925 1348.06 546.955 1348.03 545.981C1348 545.007 1347.78 544.049 1347.37 543.165C1346.96 542.28 1346.38 541.486 1345.66 540.831C1344.94 540.175 1344.09 539.671 1343.17 539.349C1342.26 539.026 1341.28 538.892 1340.31 538.954C1339.34 539.016 1338.39 539.272 1337.51 539.708C1336.64 540.145 1335.87 540.751 1335.24 541.493L1313.43 564.553C1313.28 564.731 1313.06 564.843 1312.82 564.869C1312.59 564.894 1312.35 564.831 1312.16 564.691C1311.97 564.55 1311.84 564.344 1311.8 564.112C1311.75 563.881 1311.8 563.641 1311.92 563.44L1327.24 537.877C1328.28 536.144 1328.63 534.08 1328.2 532.104C1327.77 530.128 1326.61 528.39 1324.94 527.242C1323.28 526.095 1321.24 525.624 1319.24 525.926C1317.24 526.228 1315.43 527.28 1314.18 528.868C1307.3 537.607 1299.34 552.388 1292.45 561.127L1293.3 531.203C1293.29 529.406 1292.59 527.682 1291.36 526.378C1290.12 525.075 1288.43 524.288 1286.64 524.177H1286.51C1284.63 524.06 1282.78 524.694 1281.37 525.938C1279.96 527.182 1279.1 528.936 1278.98 530.814C1278.09 544.541 1270.66 576.897 1269.67 590.624C1281.92 602.913 1297.27 612.474 1309.53 624.849Z" fill="#E58E52"/>
<path d="M1107.94 712.984C1107.66 712.982 1107.39 712.893 1107.16 712.729C1106.93 712.564 1106.76 712.332 1106.66 712.065C1105.45 708.482 1104.5 705.261 1103.56 702.148C1102.76 699.446 1101.94 696.711 1100.95 693.723C1097.85 695.085 1095.4 696.176 1092.94 697.268C1090.13 698.516 1087.33 699.765 1083.57 701.413C1083.41 701.499 1083.23 701.55 1083.04 701.563C1082.86 701.576 1082.67 701.551 1082.5 701.489C1082.32 701.428 1082.16 701.331 1082.03 701.205C1081.89 701.079 1081.78 700.926 1081.71 700.757C1081.63 700.587 1081.6 700.404 1081.6 700.219C1081.6 700.034 1081.63 699.85 1081.71 699.68C1081.78 699.51 1081.89 699.357 1082.02 699.23C1082.16 699.104 1082.32 699.006 1082.49 698.943C1086.24 697.29 1089.05 696.047 1091.85 694.798C1094.66 693.55 1097.47 692.307 1101.22 690.653C1101.39 690.578 1101.57 690.539 1101.76 690.539C1101.95 690.539 1102.13 690.578 1102.3 690.653C1102.48 690.728 1102.63 690.838 1102.76 690.976C1102.88 691.113 1102.98 691.276 1103.04 691.453C1104.26 695.041 1105.2 698.262 1106.15 701.375C1107.1 704.488 1108.03 707.661 1109.23 711.195C1109.3 711.399 1109.32 711.616 1109.29 711.83C1109.26 712.043 1109.18 712.246 1109.05 712.422C1108.93 712.597 1108.76 712.74 1108.57 712.837C1108.38 712.935 1108.17 712.986 1107.95 712.984H1107.94Z" fill="black"/>
<path d="M1089.25 697.268C1089.97 701.231 1090.69 705.194 1091.41 709.157C1088.28 716.028 1085.15 722.897 1082.02 729.764L1081.14 759.418L1095.61 733.855L1098.31 711.432L1106 703.753C1104.58 700.029 1103.1 695.587 1101.68 691.863C1097.96 693.485 1092.97 695.646 1089.25 697.268Z" fill="black"/>
<path d="M1145.99 662.68C1144.94 665.307 1143.64 667.825 1142.1 670.198C1137.04 678.434 1133.64 683.974 1127.22 688.2C1123.39 690.695 1119.09 692.397 1114.59 693.204C1108.87 693.928 1103.05 693.29 1097.62 691.34C1093.71 689.913 1086.94 687.459 1082.91 680.812C1079.83 675.732 1079.76 670.625 1079.67 665.139C1079.67 663.518 1079.71 662.005 1079.83 660.584C1080.02 658.319 1080.37 656.07 1080.88 653.855C1081.02 653.228 1081.17 652.645 1081.31 652.115L1078.97 648.921C1078.65 648.49 1078.44 647.984 1078.36 647.451C1078.28 646.918 1078.34 646.373 1078.52 645.867C1078.71 645.361 1079.01 644.908 1079.42 644.551C1079.82 644.193 1080.31 643.942 1080.83 643.819L1084.76 642.852C1087.59 637.498 1091.42 632.739 1096.05 628.833C1105.84 620.386 1116.72 621.202 1120.02 621.445C1122.24 621.607 1123.22 624.083 1125.1 624.418C1128.63 625.016 1131.99 626.332 1134.99 628.285C1137.98 630.237 1140.55 632.783 1142.52 635.767C1142.54 635.767 1142.76 635.405 1142.78 635.405C1151.02 648.089 1149.32 653.85 1145.99 662.68Z" fill="#E58E52"/>
<path d="M1086.12 643.765C1087.82 646.356 1090.05 648.553 1092.67 650.207C1103.78 657.125 1112.74 650.056 1114.11 649.375C1109.52 645.516 1108.83 644.478 1103.91 641.728C1101.48 640.362 1098.71 639.703 1095.92 639.822C1093.13 639.941 1090.43 640.835 1088.12 642.403L1086.12 643.765Z" fill="white"/>
<path d="M1148.32 645.386C1147.78 641.776 1144.84 635.523 1136.86 628.962C1134.33 626.882 1126.79 621.077 1115.96 621.261C1111.57 621.358 1107.25 622.397 1103.3 624.309C1117.18 636.831 1120.11 641.538 1119.51 643.224C1119.45 643.397 1118.97 645.11 1118.11 647.413C1117.2 649.85 1117.02 652.497 1117.57 655.038C1121.61 649.093 1129.38 646.127 1134.16 647.418C1143.07 649.834 1140.35 660.821 1140.19 661.761C1139.66 664.377 1138.52 666.828 1136.84 668.908C1135.17 670.988 1133.03 672.635 1130.58 673.71C1129.73 674.088 1128.81 674.294 1127.88 674.316C1129.73 676.213 1131.86 678.282 1134.22 680.606C1134.49 680.88 1134.82 681.095 1135.19 681.238C1135.55 681.381 1135.94 681.448 1136.33 681.436C1136.72 681.424 1137.1 681.332 1137.45 681.167C1137.81 681.003 1138.12 680.767 1138.38 680.477C1143.29 674.932 1150.98 663.583 1148.32 645.386Z" fill="black"/>
<path d="M1124.68 656.584C1124.49 656.586 1124.3 656.546 1124.12 656.468C1123.94 656.389 1123.79 656.274 1123.66 656.13C1123.43 655.861 1123.31 655.509 1123.33 655.152C1123.35 654.794 1123.51 654.46 1123.78 654.222C1126.16 652.125 1131.98 649.358 1136.98 653.941C1137.23 654.186 1137.37 654.519 1137.38 654.87C1137.39 655.22 1137.27 655.561 1137.03 655.82C1136.8 656.079 1136.47 656.235 1136.12 656.257C1135.77 656.279 1135.42 656.163 1135.16 655.936C1130.68 651.834 1125.77 656.065 1125.57 656.249C1125.32 656.465 1125.01 656.584 1124.68 656.584Z" fill="black"/>
<path d="M1131.16 664.842C1130.93 664.84 1130.7 664.78 1130.5 664.666C1130.3 664.551 1130.13 664.388 1130.01 664.19C1129.89 663.992 1129.82 663.767 1129.81 663.536C1129.8 663.305 1129.85 663.075 1129.96 662.869C1132.5 657.924 1129.86 654.087 1129.83 654.049C1129.63 653.756 1129.54 653.393 1129.61 653.039C1129.67 652.685 1129.87 652.37 1130.16 652.163C1130.45 651.956 1130.81 651.874 1131.17 651.935C1131.52 651.995 1131.84 652.194 1132.04 652.487C1132.19 652.698 1135.65 657.719 1132.36 664.107C1132.25 664.328 1132.08 664.513 1131.86 664.643C1131.65 664.772 1131.41 664.841 1131.16 664.842Z" fill="black"/>
<path d="M1091.93 646.764C1093.12 646.764 1094.09 645.799 1094.09 644.608C1094.09 643.417 1093.12 642.452 1091.93 642.452C1090.74 642.452 1089.78 643.417 1089.78 644.608C1089.78 645.799 1090.74 646.764 1091.93 646.764Z" fill="black"/>
<path d="M1101.98 640.128C1101.65 640.131 1101.33 640.009 1101.08 639.787L1094.4 633.842C1094.13 633.604 1093.97 633.269 1093.95 632.911C1093.93 632.553 1094.05 632.202 1094.29 631.935C1094.53 631.667 1094.86 631.506 1095.22 631.486C1095.58 631.465 1095.93 631.588 1096.2 631.827L1102.88 637.771C1103.08 637.954 1103.22 638.193 1103.29 638.459C1103.35 638.724 1103.33 639.002 1103.24 639.257C1103.14 639.512 1102.97 639.732 1102.74 639.887C1102.52 640.043 1102.25 640.127 1101.98 640.128Z" fill="black"/>
<path d="M1097.49 666.171C1097.15 666.172 1096.82 666.042 1096.57 665.808C1096.32 665.574 1096.17 665.254 1096.15 664.912C1095.96 662.37 1096.77 659.854 1098.39 657.886C1099.74 656.341 1101.54 655.265 1103.55 654.817C1108.13 653.633 1111.99 655.806 1113.44 656.795C1113.58 656.895 1113.71 657.023 1113.81 657.171C1113.9 657.32 1113.97 657.486 1114 657.66C1114.04 657.835 1114.03 658.014 1114 658.187C1113.96 658.361 1113.89 658.526 1113.79 658.673C1113.69 658.819 1113.56 658.944 1113.41 659.042C1113.27 659.139 1113.1 659.206 1112.92 659.238C1112.75 659.271 1112.57 659.27 1112.4 659.233C1112.22 659.197 1112.06 659.127 1111.91 659.027C1111.02 658.416 1107.83 656.503 1104.22 657.432C1102.76 657.745 1101.43 658.52 1100.44 659.643C1099.27 661.061 1098.69 662.873 1098.82 664.706C1098.83 664.883 1098.81 665.061 1098.75 665.229C1098.69 665.397 1098.61 665.552 1098.49 665.686C1098.37 665.819 1098.23 665.929 1098.07 666.007C1097.91 666.086 1097.74 666.132 1097.56 666.144L1097.49 666.171Z" fill="black"/>
<path d="M1085 657.924C1084.46 659.767 1082.48 660.313 1081.87 660.475C1081.21 660.644 1080.52 660.675 1079.85 660.567C1080.04 658.302 1080.38 656.054 1080.89 653.839C1081.34 653.71 1081.8 653.672 1082.26 653.726C1082.72 653.78 1083.16 653.924 1083.56 654.152C1084.17 654.548 1084.64 655.126 1084.89 655.804C1085.15 656.482 1085.19 657.224 1085 657.924Z" fill="black"/>
<path d="M1150.6 631.984C1168.53 631.984 1183.07 617.447 1183.07 599.514C1183.07 581.582 1168.53 567.045 1150.6 567.045C1132.67 567.045 1118.13 581.582 1118.13 599.514C1118.13 617.447 1132.67 631.984 1150.6 631.984Z" fill="#010101"/>
<path d="M1182.88 577.627C1200.81 577.627 1215.35 563.09 1215.35 545.157C1215.35 527.225 1200.81 512.688 1182.88 512.688C1164.94 512.688 1150.41 527.225 1150.41 545.157C1150.41 563.09 1164.94 577.627 1182.88 577.627Z" fill="#010101"/>
<path d="M1024.71 370.659L861.759 395.042L867.117 430.852L1030.07 406.47L1024.71 370.659Z" fill="#FFE715"/>
<path d="M889.546 416.782L1015.43 336.652L1044.07 374.92L1164.8 287.575C1173.76 303.248 1183.3 319.964 1192.26 335.631C1231.37 305.302 1269.88 273.919 1309 243.589L1390 342.381L1256.03 448.668L1232.46 416.145L1113.73 486.099C1100.58 465.202 1087.43 444.305 1074.28 423.408L1024.31 456.915C1014.15 462.152 999.897 467.902 992.612 462.049C986.667 457.283 989.91 448.592 985.532 441.794C980.577 434.114 965.601 429.364 924.02 438.994C915.449 427.986 898.128 427.775 889.546 416.782Z" fill="white"/>
<path d="M1046.55 444.161L1053.45 389.972L891.14 414.713L891.21 481.483L1031.72 461.336C1035.85 460.742 1039.62 458.677 1042.35 455.521C1045.07 452.365 1046.57 448.331 1046.55 444.161Z" fill="#010101"/>
<path d="M980.142 393.11L955.021 396.869L957.341 412.369L982.462 408.61L980.142 393.11Z" fill="#BEFF81"/>
<path d="M1255.77 450.316C1255.49 450.317 1255.22 450.23 1254.99 450.069C1254.76 449.907 1254.59 449.679 1254.49 449.415C1254.4 449.15 1254.39 448.864 1254.47 448.595C1254.55 448.325 1254.7 448.086 1254.92 447.911L1387.77 341.386L1342.42 286.365C1342.2 286.088 1342.09 285.732 1342.12 285.375C1342.16 285.019 1342.33 284.69 1342.61 284.462C1342.88 284.234 1343.24 284.126 1343.6 284.16C1343.95 284.195 1344.28 284.369 1344.51 284.646L1390.73 340.727C1390.84 340.865 1390.93 341.025 1390.98 341.196C1391.03 341.367 1391.04 341.547 1391.03 341.725C1391.01 341.903 1390.95 342.075 1390.87 342.232C1390.78 342.389 1390.67 342.528 1390.53 342.64L1256.61 450.019C1256.37 450.211 1256.08 450.316 1255.77 450.316Z" fill="black"/>
<path d="M1343.47 286.856C1343.27 286.857 1343.07 286.813 1342.89 286.728C1342.71 286.643 1342.55 286.519 1342.43 286.365L1307.66 244.211C1307.55 244.074 1307.46 243.916 1307.41 243.746C1307.36 243.576 1307.34 243.398 1307.36 243.221C1307.37 243.045 1307.43 242.873 1307.51 242.717C1307.59 242.56 1307.71 242.421 1307.84 242.308C1307.98 242.196 1308.14 242.111 1308.31 242.059C1308.48 242.007 1308.66 241.989 1308.83 242.006C1309.01 242.023 1309.18 242.075 1309.34 242.158C1309.49 242.242 1309.63 242.355 1309.75 242.492L1344.51 284.646C1344.74 284.922 1344.84 285.275 1344.81 285.628C1344.78 285.982 1344.6 286.308 1344.33 286.538C1344.09 286.743 1343.79 286.856 1343.47 286.856Z" fill="black"/>
<path d="M1255.49 450.057C1255.28 450.053 1255.07 449.999 1254.88 449.899C1254.69 449.8 1254.53 449.658 1254.41 449.484L1181.01 345.769C1180.81 345.489 1180.73 345.143 1180.78 344.803C1180.82 344.463 1181 344.153 1181.27 343.937L1262.07 279.047C1262.35 278.845 1262.7 278.758 1263.04 278.805C1263.39 278.851 1263.7 279.027 1263.91 279.297C1264.13 279.566 1264.24 279.908 1264.21 280.253C1264.18 280.598 1264.02 280.919 1263.76 281.15L1183.95 345.245L1256.59 447.928C1256.73 448.128 1256.82 448.364 1256.84 448.609C1256.85 448.854 1256.8 449.099 1256.69 449.318C1256.58 449.537 1256.41 449.721 1256.2 449.851C1256 449.982 1255.76 450.053 1255.51 450.057H1255.49Z" fill="black"/>
<path d="M1113.45 487.19C1113.22 487.192 1113 487.135 1112.8 487.024C1112.6 486.914 1112.43 486.753 1112.31 486.558L1042.14 374.921L1013.59 337.782C1013.37 337.495 1013.28 337.135 1013.33 336.78C1013.38 336.425 1013.57 336.105 1013.86 335.89C1014.14 335.675 1014.5 335.583 1014.86 335.634C1015.21 335.684 1015.53 335.874 1015.75 336.161L1044.39 373.348C1044.42 373.382 1044.44 373.418 1044.46 373.456L1113.89 484.007L1231.21 414.464C1231.37 414.374 1231.54 414.314 1231.71 414.289C1231.89 414.264 1232.07 414.274 1232.24 414.318C1232.41 414.362 1232.57 414.44 1232.71 414.546C1232.86 414.653 1232.98 414.787 1233.07 414.94C1233.16 415.093 1233.22 415.262 1233.24 415.438C1233.27 415.614 1233.26 415.793 1233.21 415.965C1233.17 416.137 1233.09 416.299 1232.98 416.441C1232.88 416.583 1232.74 416.703 1232.59 416.793L1114.14 487.001C1113.93 487.126 1113.69 487.191 1113.45 487.19Z" fill="black"/>
<path d="M1088.11 343.499C1087.83 343.499 1087.55 343.409 1087.32 343.241C1087.09 343.073 1086.92 342.837 1086.83 342.566C1086.74 342.295 1086.74 342.003 1086.83 341.732C1086.92 341.461 1087.09 341.225 1087.32 341.057L1163.16 285.711C1163.31 285.596 1163.49 285.516 1163.68 285.476C1163.86 285.436 1164.06 285.436 1164.24 285.478C1164.43 285.515 1164.6 285.59 1164.76 285.699C1164.91 285.808 1165.04 285.948 1165.13 286.111L1194.26 335.177C1194.45 335.485 1194.5 335.853 1194.41 336.201C1194.32 336.549 1194.1 336.847 1193.79 337.03C1193.49 337.214 1193.12 337.267 1192.77 337.179C1192.42 337.091 1192.12 336.868 1191.94 336.56L1163.57 288.77L1088.91 343.24C1088.68 343.408 1088.4 343.499 1088.11 343.499Z" fill="black"/>
<path d="M1046.55 765.363L1117.89 786.44L1113.57 806.436L1040.61 783.738L1046.55 765.363Z" fill="black"/>
<path d="M1081.58 772.052L1072.53 769.492C1067.85 768.168 1062.98 770.89 1061.65 775.571L1059.09 784.625C1057.77 789.307 1060.49 794.175 1065.17 795.499L1074.23 798.059C1078.91 799.383 1083.78 796.661 1085.1 791.98L1087.66 782.926C1088.99 778.244 1086.26 773.376 1081.58 772.052Z" fill="#BEFF81"/>
<path d="M1080.35 780.399L1068.59 777.072L1065.79 786.979L1077.55 790.305L1080.35 780.399Z" fill="black"/>
<path d="M892.686 746.745C892.427 746.743 892.174 746.668 891.956 746.529C891.789 746.421 891.647 746.277 891.541 746.108C891.436 745.939 891.369 745.748 891.346 745.55C890.708 740.243 889.886 734.288 889.611 733.504C889.49 733.168 889.507 732.798 889.658 732.474C889.809 732.15 890.081 731.899 890.416 731.775C890.58 731.712 890.754 731.683 890.929 731.688C891.104 731.693 891.276 731.732 891.436 731.804C891.596 731.876 891.739 731.978 891.859 732.106C891.979 732.234 892.073 732.384 892.135 732.547C892.562 733.661 893.394 740.049 893.832 743.605L904.548 740.151C904.889 740.045 905.257 740.077 905.574 740.241C905.89 740.405 906.129 740.688 906.238 741.027C906.347 741.367 906.318 741.736 906.156 742.053C905.994 742.371 905.714 742.612 905.375 742.724L893.102 746.68C892.967 746.723 892.827 746.745 892.686 746.745Z" fill="black"/>
<path d="M970.892 932.206C970.642 932.204 970.397 932.133 970.185 932C969.972 931.868 969.801 931.68 969.689 931.456C969.577 931.232 969.529 930.982 969.551 930.733C969.572 930.484 969.662 930.245 969.811 930.044L981.068 914.96C981.283 914.674 981.603 914.484 981.958 914.434C982.313 914.383 982.673 914.475 982.96 914.69C983.246 914.905 983.436 915.225 983.486 915.58C983.537 915.935 983.445 916.295 983.23 916.582L971.973 931.66C971.848 931.829 971.685 931.966 971.497 932.061C971.309 932.156 971.102 932.205 970.892 932.206Z" fill="black"/>
<path d="M1213.49 351.498L1268.63 337.798L1234.8 381.968L1213.49 351.498Z" fill="#FFE715"/>
<path d="M1234.8 381.968L1259.44 414.458L1305.22 345.98L1257.34 352.341L1234.8 381.968Z" fill="#BEFF81"/>
<path d="M1346.07 341.273C1345.87 341.276 1345.66 341.232 1345.47 341.144C1345.29 341.056 1345.12 340.926 1344.99 340.765L1301.57 286.348C1301.45 286.211 1301.36 286.05 1301.31 285.877C1301.25 285.704 1301.23 285.521 1301.25 285.34C1301.27 285.159 1301.32 284.983 1301.41 284.823C1301.49 284.663 1301.61 284.522 1301.76 284.408C1301.9 284.295 1302.06 284.212 1302.24 284.163C1302.41 284.115 1302.6 284.103 1302.78 284.127C1302.96 284.151 1303.13 284.211 1303.29 284.304C1303.44 284.397 1303.58 284.521 1303.69 284.668L1347.1 339.079C1347.33 339.359 1347.43 339.716 1347.39 340.072C1347.35 340.427 1347.17 340.752 1346.89 340.976C1346.66 341.163 1346.37 341.267 1346.07 341.273Z" fill="black"/>
<path d="M1192.31 396.343C1192.1 396.343 1191.9 396.295 1191.71 396.201C1191.52 396.107 1191.36 395.971 1191.23 395.803L1150.52 339.338C1150.41 339.195 1150.33 339.031 1150.29 338.857C1150.24 338.682 1150.23 338.501 1150.26 338.323C1150.29 338.145 1150.35 337.974 1150.44 337.82C1150.54 337.666 1150.66 337.533 1150.81 337.427C1150.95 337.322 1151.12 337.247 1151.29 337.206C1151.47 337.165 1151.65 337.16 1151.83 337.19C1152 337.221 1152.17 337.287 1152.32 337.384C1152.48 337.48 1152.61 337.607 1152.71 337.755L1193.43 394.219C1193.58 394.42 1193.67 394.659 1193.69 394.909C1193.71 395.159 1193.67 395.41 1193.55 395.634C1193.44 395.859 1193.27 396.047 1193.06 396.179C1192.84 396.311 1192.6 396.381 1192.34 396.381L1192.31 396.343Z" fill="black"/>
<path d="M1178.8 407.692C1178.59 407.692 1178.38 407.644 1178.2 407.55C1178.01 407.456 1177.85 407.32 1177.72 407.152L1137.01 350.687C1136.9 350.544 1136.82 350.38 1136.78 350.206C1136.73 350.032 1136.72 349.85 1136.75 349.672C1136.78 349.494 1136.84 349.323 1136.93 349.169C1137.03 349.016 1137.15 348.882 1137.29 348.776C1137.44 348.671 1137.61 348.596 1137.78 348.555C1137.96 348.514 1138.14 348.509 1138.32 348.54C1138.49 348.57 1138.66 348.636 1138.81 348.733C1138.97 348.83 1139.1 348.956 1139.2 349.104L1179.91 405.569C1180.07 405.769 1180.16 406.008 1180.18 406.258C1180.2 406.508 1180.15 406.759 1180.04 406.983C1179.93 407.208 1179.76 407.397 1179.54 407.529C1179.33 407.66 1179.08 407.73 1178.83 407.73L1178.8 407.692Z" fill="black"/>
<path d="M1332.44 351.044C1332.24 351.047 1332.03 351.003 1331.84 350.915C1331.66 350.827 1331.49 350.697 1331.36 350.536L1287.94 296.125C1287.83 295.986 1287.75 295.827 1287.7 295.656C1287.65 295.486 1287.64 295.307 1287.66 295.131C1287.68 294.955 1287.73 294.784 1287.82 294.628C1287.9 294.473 1288.02 294.336 1288.16 294.225C1288.29 294.115 1288.45 294.032 1288.62 293.983C1288.8 293.934 1288.97 293.919 1289.15 293.939C1289.33 293.958 1289.5 294.013 1289.65 294.099C1289.81 294.184 1289.94 294.3 1290.06 294.439L1333.47 348.85C1333.7 349.13 1333.8 349.488 1333.76 349.844C1333.72 350.201 1333.54 350.527 1333.26 350.752C1333.03 350.939 1332.74 351.041 1332.44 351.044Z" fill="black"/>
<path d="M1168.42 427.591C1168.32 427.591 1168.22 427.58 1168.12 427.559L1100.02 411.886C1099.67 411.805 1099.37 411.589 1099.18 411.285C1098.99 410.981 1098.93 410.614 1099.01 410.265L1105.16 383.086L1074.77 379.492C1074.59 379.472 1074.42 379.417 1074.26 379.33C1074.11 379.243 1073.97 379.126 1073.86 378.986C1073.75 378.846 1073.67 378.685 1073.62 378.514C1073.57 378.342 1073.55 378.162 1073.57 377.985C1073.59 377.807 1073.65 377.636 1073.74 377.48C1073.82 377.324 1073.94 377.186 1074.08 377.075C1074.22 376.964 1074.38 376.882 1074.55 376.833C1074.72 376.784 1074.9 376.77 1075.08 376.79L1106.97 380.573C1107.15 380.592 1107.33 380.65 1107.5 380.743C1107.66 380.836 1107.8 380.963 1107.91 381.114C1108.02 381.269 1108.1 381.445 1108.14 381.631C1108.17 381.817 1108.17 382.009 1108.13 382.195L1101.94 409.524L1162.37 423.435L1157.35 419.733C1157.07 419.518 1156.88 419.198 1156.82 418.843C1156.77 418.489 1156.87 418.128 1157.08 417.842C1157.3 417.555 1157.62 417.366 1157.97 417.315C1158.33 417.264 1158.69 417.356 1158.97 417.571L1169.24 425.138C1169.47 425.306 1169.64 425.543 1169.73 425.814C1169.81 426.084 1169.81 426.375 1169.72 426.645C1169.63 426.915 1169.46 427.15 1169.23 427.317C1169 427.484 1168.73 427.574 1168.44 427.575L1168.42 427.591Z" fill="black"/>
<path d="M1157.07 431.374C1156.75 431.373 1156.44 431.259 1156.2 431.051C1155.95 430.843 1155.79 430.555 1155.74 430.239C1155.69 429.923 1155.75 429.599 1155.92 429.325C1156.08 429.05 1156.34 428.844 1156.64 428.742L1167.99 424.959C1168.33 424.861 1168.69 424.897 1169 425.059C1169.31 425.221 1169.54 425.497 1169.65 425.829C1169.76 426.16 1169.74 426.522 1169.59 426.837C1169.44 427.153 1169.17 427.397 1168.85 427.52L1157.5 431.304C1157.36 431.35 1157.22 431.374 1157.07 431.374Z" fill="black"/>
</svg>
