<svg width="1840" height="1380" viewBox="0 0 1840 1380" fill="none" xmlns="http://www.w3.org/2000/svg"><path d="m1269.75 590.802 9.85-60.588a7.007 7.007 0 0 1 2.38-4.206 7.025 7.025 0 0 1 4.53-1.679c1.86 0 3.65.74 4.96 2.057a7.02 7.02 0 0 1 2.06 4.968v29.724l17.67-29.859a8.97 8.97 0 0 1 2.52-2.753 9.047 9.047 0 0 1 7.14-1.511c1.23.257 2.39.767 3.42 1.497a9.085 9.085 0 0 1 3.64 5.709 9.092 9.092 0 0 1-1.33 6.64l-13.68 20.909a1.516 1.516 0 0 0-.18 1.27c.07.211.18.405.33.568.15.162.34.29.54.373a1.522 1.522 0 0 0 1.71-.427l17.51-20.769a7.849 7.849 0 0 1 5.31-2.771c2.07-.187 4.13.45 5.73 1.771a7.841 7.841 0 0 1 2.85 5.54 7.882 7.882 0 0 1-2.07 5.874l-18.87 20.477c-.27.286-.44.647-.49 1.034-.06.386.01.78.19 1.128.12.251.3.471.52.644a1.916 1.916 0 0 0 1.58.365c.28-.06.54-.179.76-.35l17.77-13.613a7.924 7.924 0 0 1 5.52-1.603 7.901 7.901 0 0 1 5.14 2.559 7.852 7.852 0 0 1 2.03 5.356 7.903 7.903 0 0 1-2.13 5.318l-49.08 52.557-37.83-36.209z" fill="#E4A867"/><path d="m786.533 977.013-49.996 46.417c-26.33 20.49-49.72 46.28-76.061 66.78a26.34 26.34 0 0 0-9.673 15.69 26.369 26.369 0 0 0 2.961 18.19l.222.39a26.354 26.354 0 0 0 13.24 11.47 26.318 26.318 0 0 0 17.51.65c24.125-7.5 45.316-20.29 69.441-27.79l.259.13a43.334 43.334 0 0 0 25.193 4.69 43.395 43.395 0 0 0 23.446-10.34c7.648-6.64 13.906-12.31 29.141-24.29-22.12-28.22-23.574-73.76-45.683-101.987z" fill="#010101"/><path d="m706.078 756.175 7.793-105.201 167.535-7.15a104.617 104.617 0 0 1 95.97 53.849l51.404 92.863 18.73-16.402 64.97 23.654 7.51 39.025c3.84 19.958 4.8 44.943-6.89 61.561a50.193 50.193 0 0 1-17.2 15.073 49.117 49.117 0 0 1-12.76 4.621l-110.628 15.91-140.513 144.832-77.282-76.74 118.691-122.53a136.652 136.652 0 0 1 76.314-39.819l11.982-1.94-69.176-92.415-186.45 10.809z" fill="#6C3AE7"/><path d="M945.961 504.819c-10.727 0-19.996-4.761-23.681-12.608l-3.989-8.507a4.33 4.33 0 0 1-.389-1.486l-5.918-72.04a4.324 4.324 0 0 1 8.615-.702l5.831 71.261 3.659 7.804c2.702 5.751 11.398 8.788 20.693 7.22l16.548-2.794c10.404-1.756 19.018-8.647 20.04-16.077l1.08-7.842-8.29-70.797a4.324 4.324 0 0 1 8.588-1.011l8.355 71.338c.045.358.045.722 0 1.08l-1.151 8.383c-1.541 11.176-12.971 21.028-27.163 23.427l-16.548 2.789a37.558 37.558 0 0 1-6.28.562z" fill="#000"/><path d="m1005.12 345.665-131.118 19.62c-9.071 1.357-15.325 9.811-13.967 18.882l12.485 83.438c1.357 9.071 9.811 15.325 18.882 13.967l131.118-19.619c9.07-1.357 15.33-9.811 13.97-18.882L1024 359.632c-1.35-9.071-9.81-15.324-18.88-13.967z" fill="#010101"/><path d="M448.604 877.141c25.909 2.372 39.728 11.463 47.559 19.369 12.354 12.463 16.688 28.87 33.101 33.729a34.202 34.202 0 0 0 16.316.54s-12.171 11.009-7.652 22.477c4.518 11.468 40.419 48.424 40.419 48.424s-3.837-6.487-7.14-13.804c-3.934-8.701-6.636-15.505-3.896-18.483.697-.756 2.659-2.248 8.431-.973 1.778 4.497 7.641 17.575 22.12 26.282a53.383 53.383 0 0 0 25.995 7.538l-37.29-40.932 10.544-35.836-108.828-50.601-39.679 2.27z" fill="#000"/><path d="m659.84 903.839.037 15.429-32.501-1.437a332.706 332.706 0 0 0-8.869 6.052c-12.932 9.145-19.396 13.711-21.839 18.597-5.296 10.592.049 23.006 1.362 26.07 4.637 10.76 12.895 16.376 23.239 23.428 11.814 8.032 23.195 16.702 35.209 24.432.119.07.486.31.443.43-.259.72-14.592-3.69-21.044-5.89-18.099-6.19-34.167-11.665-46.256-25.987-3.961-4.691-15.511-18.374-12.43-32.534 2.475-11.349 13.662-19.726 12.97-20.396-.389-.378-3.783 2.459-6.361 4.713-3.583 2.643-9.246 7.679-11.976 15.602-3.783 11.025-4.258 24.217 5.567 34.085 6.912 6.945 17.002 29.187 17.002 29.187-9.831-4.57-25.627-13.85-37.095-31.527-6.248-9.63-15.597-24.038-11.025-40.095 2.702-9.517 9.187-15.672 13.084-18.78-7.75.633-18.948.362-30.167-5.047-19.894-9.582-17.554-25.574-37.707-34.588-9.636-4.324-43.483-7.891-43.483-7.891a39.169 39.169 0 0 1 11.657-7.112c13.592-5.258 27.022-1.253 40.668 3.962 43.499 16.64 41.732 27.562 59.745 27.908 23.525.432 35.539-18.051 51.109-9.728 0 0 .843.454 17.548 13.376l31.113-2.259z" fill="#FDF93F"/><path d="m659.806 903.887-8.404 5.701 8.307 9.312.097-15.013z" fill="#000"/><path d="M629.727 912.55a1.339 1.339 0 0 1-.97-.361 1.354 1.354 0 0 1-.069-1.911c.245-.262.583-.417.941-.43l23.623-1.713a1.358 1.358 0 0 1 1.451 1.251 1.357 1.357 0 0 1-1.251 1.451l-23.628 1.719-.097-.006zm-13.534-16.094c-2.778 1.173-9.847 3.702-18.245 1.583a27.653 27.653 0 0 1-8.458-3.745c1.146-.8 8.674-5.885 17.689-3.35a19.984 19.984 0 0 1 9.014 5.512zm-22.866 18.947a7.617 7.617 0 0 1-5.08 3.243 7.344 7.344 0 0 1-4.545-.805c-.659-.362-2.999-1.773-3.551-4.616a7.027 7.027 0 0 1 1.081-5.009c.4-.665 1.805-2.994 4.615-3.551a7.029 7.029 0 0 1 5.01 1.081c.687.411 2.994 1.799 3.551 4.61a6.908 6.908 0 0 1-1.081 5.047z" fill="#000"/><path d="m999.789 533.03-2.956-17.889a34.19 34.19 0 0 0-2.162-15.132 34.661 34.661 0 0 0-12.203-15.597l-13.808-7.798a12.593 12.593 0 0 0-12.722.184l-14.819 8.955c-1.167 1.28-6.404 7.295-5.896 15.878.508 8.582 6.447 16.148 15.132 19.455l9.188 3.243-1.351 23.779 42.158-9.458-.561-5.62z" fill="#E58E52"/><path d="M964.072 841.888a1.353 1.353 0 0 1-.054-2.702l78.432-3.113c.17-.007.35.022.52.083.16.062.32.156.45.277.13.12.23.266.31.427.07.161.11.336.12.513 0 .177-.02.354-.09.521a1.32 1.32 0 0 1-.7.759c-.16.074-.33.116-.51.122l-78.424 3.113h-.054z" fill="#000"/><path d="m717.011 653.26-47.504-26.394-5.853-61.826c-1.465-10.706-10.647-18.51-20.769-18.278-8.998.211-17.061 6.729-19.364 15.965.256 28.805.933 58.16 2.032 88.064.483 12.88 1.04 25.65 1.67 38.311l35.755 13.241a7.963 7.963 0 0 1 5.156 8.231v.156a7.959 7.959 0 0 1-6.444 7.046 7.941 7.941 0 0 1-3.386-.096c-12.971-3.215-25.109-6.431-38.641-9.647l-2.93 47.964c30.513-.794 59.854-2.664 90.366-3.459 2.903-33.453 6.994-65.83 9.912-99.278z" fill="#010101"/><path d="m948.733 538.38 67.017-7.026 12.43 119.977 30.8 19.996 59.99 23.055 82.15-12.787 61.61-99.44 58.36 47.559-64.62 103.412a57.123 57.123 0 0 1-15.96 16.267 57.193 57.193 0 0 1-21.04 8.75l-90.23 15.326-15.67 20.915-66.48-25.238-1.62-16.213-60.387-45.743a68.684 68.684 0 0 1-26.389-47.396l-9.961-121.414z" fill="#6C3AE7"/><path d="M1082.76 680.514c1.95.659-1.62 78.904-1.62 78.904l37.83-67.555-36.21-11.349z" fill="#fff"/><path d="m1309.53 624.849 47.09-51.881a7.209 7.209 0 0 0 2.39-4.728 7.178 7.178 0 0 0-6.09-7.737 7.195 7.195 0 0 0-5.16 1.202c-7.19 4.988-18.43 16.051-21.41 15.035-.32-.108-.82-.4-1.23-1.411l20.87-24.06a7.36 7.36 0 0 0 1.56-2.436c.35-.908.51-1.878.48-2.852a7.214 7.214 0 0 0-.66-2.816 7.262 7.262 0 0 0-4.2-3.816 7.205 7.205 0 0 0-2.86-.395 7.36 7.36 0 0 0-2.8.754 7.235 7.235 0 0 0-2.27 1.785l-21.81 23.06a.95.95 0 0 1-1.27.138.916.916 0 0 1-.36-.579.932.932 0 0 1 .12-.672l15.32-25.563a7.942 7.942 0 0 0 .96-5.773 7.94 7.94 0 0 0-3.26-4.862 7.95 7.95 0 0 0-10.76 1.626c-6.88 8.739-14.84 23.52-21.73 32.259l.85-29.924a7.098 7.098 0 0 0-1.94-4.825 7.133 7.133 0 0 0-4.72-2.201h-.13a7.104 7.104 0 0 0-7.53 6.637c-.89 13.727-8.32 46.083-9.31 59.81 12.25 12.289 27.6 21.85 39.86 34.225z" fill="#E58E52"/><path d="M1107.94 712.984a1.356 1.356 0 0 1-.78-.255c-.23-.165-.4-.397-.5-.664-1.21-3.583-2.16-6.804-3.1-9.917-.8-2.702-1.62-5.437-2.61-8.425-3.1 1.362-5.55 2.453-8.01 3.545-2.81 1.248-5.61 2.497-9.37 4.145-.16.086-.34.137-.53.15-.18.013-.37-.012-.54-.074a1.249 1.249 0 0 1-.47-.284 1.248 1.248 0 0 1-.32-.448 1.25 1.25 0 0 1-.11-.538c0-.185.03-.369.11-.539.07-.17.18-.323.31-.45.14-.126.3-.224.47-.287 3.75-1.653 6.56-2.896 9.36-4.145 2.81-1.248 5.62-2.491 9.37-4.145a1.324 1.324 0 0 1 1.08 0c.18.075.33.185.46.323.12.137.22.3.28.477 1.22 3.588 2.16 6.809 3.11 9.922.95 3.113 1.88 6.286 3.08 9.82.07.204.09.421.06.635-.03.213-.11.416-.24.592a1.3 1.3 0 0 1-.48.415c-.19.098-.4.149-.62.147h-.01z" fill="#000"/><path d="m1089.25 697.268 2.16 11.889-9.39 20.607-.88 29.654 14.47-25.563 2.7-22.423 7.69-7.679c-1.42-3.724-2.9-8.166-4.32-11.89-3.72 1.622-8.71 3.783-12.43 5.405z" fill="#000"/><path d="M1145.99 662.68a43.378 43.378 0 0 1-3.89 7.518c-5.06 8.236-8.46 13.776-14.88 18.002a34.215 34.215 0 0 1-12.63 5.004c-5.72.724-11.54.086-16.97-1.864-3.91-1.427-10.68-3.881-14.71-10.528-3.08-5.08-3.15-10.187-3.24-15.673 0-1.621.04-3.134.16-4.555.19-2.265.54-4.514 1.05-6.729.14-.627.29-1.21.43-1.74l-2.34-3.194a3.287 3.287 0 0 1-.61-1.47 3.281 3.281 0 0 1 .16-1.584c.19-.506.49-.959.9-1.316.4-.358.89-.609 1.41-.732l3.93-.967a47.183 47.183 0 0 1 11.29-14.019c9.79-8.447 20.67-7.631 23.97-7.388 2.22.162 3.2 2.638 5.08 2.973a26.108 26.108 0 0 1 17.42 11.349c.02 0 .24-.362.26-.362 8.24 12.684 6.54 18.445 3.21 27.275z" fill="#E58E52"/><path d="M1086.12 643.765a21.671 21.671 0 0 0 6.55 6.442c11.11 6.918 20.07-.151 21.44-.832-4.59-3.859-5.28-4.897-10.2-7.647a15.027 15.027 0 0 0-15.79.675l-2 1.362z" fill="#fff"/><path d="M1148.32 645.386c-.54-3.61-3.48-9.863-11.46-16.424-2.53-2.08-10.07-7.885-20.9-7.701a30.615 30.615 0 0 0-12.66 3.048c13.88 12.522 16.81 17.229 16.21 18.915-.06.173-.54 1.886-1.4 4.189a13.581 13.581 0 0 0-.54 7.625c4.04-5.945 11.81-8.911 16.59-7.62 8.91 2.416 6.19 13.403 6.03 14.343a16.606 16.606 0 0 1-3.35 7.147 16.549 16.549 0 0 1-6.26 4.802c-.85.378-1.77.584-2.7.606 1.85 1.897 3.98 3.966 6.34 6.29.27.274.6.489.97.632a2.857 2.857 0 0 0 2.26-.071c.36-.164.67-.4.93-.69 4.91-5.545 12.6-16.894 9.94-35.091z" fill="#000"/><path d="M1124.68 656.584a1.34 1.34 0 0 1-1.02-.454 1.39 1.39 0 0 1-.33-.978c.02-.358.18-.692.45-.93 2.38-2.097 8.2-4.864 13.2-.281.25.245.39.578.4.929.01.35-.11.691-.35.95-.23.259-.56.415-.91.437a1.34 1.34 0 0 1-.96-.321c-4.48-4.102-9.39.129-9.59.313-.25.216-.56.335-.89.335z" fill="#000"/><path d="M1131.16 664.842a1.363 1.363 0 0 1-1.15-.652 1.38 1.38 0 0 1-.2-.654c-.01-.231.04-.461.15-.667 2.54-4.945-.1-8.782-.13-8.82-.2-.293-.29-.656-.22-1.01.06-.354.26-.669.55-.876.29-.207.65-.289 1.01-.228.35.06.67.259.87.552.15.211 3.61 5.232.32 11.62-.11.221-.28.406-.5.536-.21.129-.45.198-.7.199zm-39.23-18.078a2.16 2.16 0 0 0 2.16-2.156 2.16 2.16 0 0 0-2.16-2.156c-1.19 0-2.15.965-2.15 2.156 0 1.191.96 2.156 2.15 2.156zm10.05-6.636c-.33.003-.65-.119-.9-.341l-6.68-5.945a1.337 1.337 0 0 1-.45-.931c-.02-.358.1-.709.34-.976a1.356 1.356 0 0 1 1.91-.108l6.68 5.944c.2.183.34.422.41.688.06.265.04.543-.05.798-.1.255-.27.475-.5.63-.22.156-.49.24-.76.241zm-4.49 26.043a1.343 1.343 0 0 1-1.34-1.259 9.903 9.903 0 0 1 2.24-7.026 9.625 9.625 0 0 1 5.16-3.069c4.58-1.184 8.44.989 9.89 1.978.14.1.27.228.37.376.09.149.16.315.19.489.04.175.03.354 0 .527a1.363 1.363 0 0 1-1.6 1.046 1.347 1.347 0 0 1-.49-.206c-.89-.611-4.08-2.524-7.69-1.595a7.001 7.001 0 0 0-3.78 2.211 7.158 7.158 0 0 0-1.62 5.063c.01.177-.01.355-.07.523a1.35 1.35 0 0 1-.26.457c-.12.133-.26.243-.42.321-.16.079-.33.125-.51.137l-.07.027zm-12.49-8.247c-.54 1.843-2.52 2.389-3.13 2.551-.66.169-1.35.2-2.02.092a47.76 47.76 0 0 1 1.04-6.728 3.473 3.473 0 0 1 2.67.313c.61.396 1.08.974 1.33 1.652.26.678.3 1.42.11 2.12z" fill="#000"/><path d="M1150.6 631.984c17.93 0 32.47-14.537 32.47-32.47 0-17.932-14.54-32.469-32.47-32.469s-32.47 14.537-32.47 32.469c0 17.933 14.54 32.47 32.47 32.47z" fill="#010101"/><path d="M1182.88 577.627c17.93 0 32.47-14.537 32.47-32.47 0-17.932-14.54-32.469-32.47-32.469-17.94 0-32.47 14.537-32.47 32.469 0 17.933 14.53 32.47 32.47 32.47z" fill="#010101"/><path d="m1024.71 370.659-162.951 24.383 5.358 35.81 162.953-24.382-5.36-35.811z" fill="#FFE715"/><path d="m889.546 416.782 125.884-80.13 28.64 38.268 120.73-87.345c8.96 15.673 18.5 32.389 27.46 48.056 39.11-30.329 77.62-61.712 116.74-92.042l81 98.792-133.97 106.287-23.57-32.523-118.73 69.954-39.45-62.691-49.97 33.507c-10.16 5.237-24.413 10.987-31.698 5.134-5.945-4.766-2.702-13.457-7.08-20.255-4.955-7.68-19.931-12.43-61.512-2.8-8.571-11.008-25.892-11.219-34.474-22.212z" fill="#fff"/><path d="m1046.55 444.161 6.9-54.189-162.31 24.741.07 66.77 140.51-20.147a17.284 17.284 0 0 0 14.83-17.175z" fill="#010101"/><path d="m980.142 393.11-25.121 3.759 2.32 15.5 25.121-3.759-2.32-15.5z" fill="#BEFF81"/><path d="M1255.77 450.316c-.28.001-.55-.086-.78-.247-.23-.162-.4-.39-.5-.654a1.35 1.35 0 0 1-.02-.82c.08-.27.23-.509.45-.684l132.85-106.525-45.35-55.021a1.408 1.408 0 0 1-.3-.99c.04-.356.21-.685.49-.913.27-.228.63-.336.99-.302.35.035.68.209.91.486l46.22 56.081c.11.138.2.298.25.469.05.171.06.351.05.529-.02.178-.08.35-.16.507-.09.157-.2.296-.34.408l-133.92 107.379c-.24.192-.53.297-.84.297z" fill="#000"/><path d="M1343.47 286.856c-.2.001-.4-.043-.58-.128a1.27 1.27 0 0 1-.46-.363l-34.77-42.154a1.37 1.37 0 0 1-.25-.465c-.05-.17-.07-.348-.05-.525.01-.176.07-.348.15-.504.08-.157.2-.296.33-.409.14-.112.3-.197.47-.249.17-.052.35-.07.52-.053.18.017.35.069.51.152.15.084.29.197.41.334l34.76 42.154a1.347 1.347 0 0 1-.18 1.892c-.24.205-.54.318-.86.318zm-87.98 163.201a1.37 1.37 0 0 1-.61-.158 1.297 1.297 0 0 1-.47-.415l-73.4-103.715c-.2-.28-.28-.626-.23-.966.04-.34.22-.65.49-.866l80.8-64.89c.28-.202.63-.289.97-.242.35.046.66.222.87.492.22.269.33.611.3.956-.03.345-.19.666-.45.897l-79.81 64.095 72.64 102.683c.14.2.23.436.25.681.01.245-.04.49-.15.709a1.33 1.33 0 0 1-.49.533c-.2.131-.44.202-.69.206h-.02z" fill="#000"/><path d="M1113.45 487.19a1.328 1.328 0 0 1-1.14-.632l-70.17-111.637-28.55-37.139a1.335 1.335 0 0 1-.26-1.002c.05-.355.24-.675.53-.89.28-.215.64-.307 1-.256.35.05.67.24.89.527l28.64 37.187c.03.034.05.07.07.108l69.43 110.551 117.32-69.543a1.365 1.365 0 0 1 1.03-.146c.17.044.33.122.47.228.15.107.27.241.36.394.09.153.15.322.17.498.03.176.02.355-.03.527-.04.172-.12.334-.23.476-.1.142-.24.262-.39.352l-118.45 70.208c-.21.125-.45.19-.69.189zm-25.34-143.691a1.347 1.347 0 0 1-1.28-.933 1.322 1.322 0 0 1 0-.834c.09-.271.26-.507.49-.675l75.84-55.346c.15-.115.33-.195.52-.235.18-.04.38-.04.56.002a1.281 1.281 0 0 1 .89.633l29.13 49.066a1.35 1.35 0 1 1-2.32 1.383l-28.37-47.79-74.66 54.47c-.23.168-.51.259-.8.259zm-41.56 421.864 71.34 21.077-4.32 19.996-72.96-22.698 5.94-18.375z" fill="#000"/><path d="m1081.58 772.052-9.05-2.56c-4.68-1.324-9.55 1.398-10.88 6.079l-2.56 9.054c-1.32 4.682 1.4 9.55 6.08 10.874l9.06 2.56c4.68 1.324 9.55-1.398 10.87-6.079l2.56-9.054c1.33-4.682-1.4-9.55-6.08-10.874z" fill="#BEFF81"/><path d="m1080.35 780.399-11.76-3.327-2.8 9.907 11.76 3.326 2.8-9.906zm-187.664-33.654a1.378 1.378 0 0 1-.73-.216 1.355 1.355 0 0 1-.61-.979c-.638-5.307-1.46-11.262-1.735-12.046a1.353 1.353 0 0 1 .805-1.729 1.323 1.323 0 0 1 1.02.029 1.321 1.321 0 0 1 .699.743c.427 1.114 1.259 7.502 1.697 11.058l10.716-3.454a1.353 1.353 0 0 1 .827 2.573l-12.273 3.956a1.37 1.37 0 0 1-.416.065zm78.206 185.461a1.35 1.35 0 0 1-.707-.206 1.348 1.348 0 0 1-.634-1.267c.021-.249.111-.488.26-.689l11.257-15.084a1.35 1.35 0 0 1 2.418.62 1.35 1.35 0 0 1-.256 1.002l-11.257 15.078a1.347 1.347 0 0 1-1.081.546z" fill="#000"/><path d="m1213.49 351.498 55.14-13.7-33.83 44.17-21.31-30.47z" fill="#FFE715"/><path d="m1234.8 381.968 24.64 32.49 45.78-68.478-47.88 6.361-22.54 29.627z" fill="#BEFF81"/><path d="M1346.07 341.273c-.2.003-.41-.041-.6-.129a1.429 1.429 0 0 1-.48-.379l-43.42-54.417a1.241 1.241 0 0 1-.26-.471c-.06-.173-.08-.356-.06-.537.02-.181.07-.357.16-.517.08-.16.2-.301.35-.415.14-.113.3-.196.48-.245a1.36 1.36 0 0 1 1.05.141c.15.093.29.217.4.364l43.41 54.411c.23.28.33.637.29.993a1.352 1.352 0 0 1-1.32 1.201zm-153.76 55.07c-.21 0-.41-.048-.6-.142-.19-.094-.35-.23-.48-.398l-40.71-56.465a1.253 1.253 0 0 1-.23-.481 1.206 1.206 0 0 1-.03-.534c.03-.178.09-.349.18-.503a1.414 1.414 0 0 1 .85-.614c.18-.041.36-.046.54-.016.17.031.34.097.49.194.16.096.29.223.39.371l40.72 56.464c.15.201.24.44.26.69.02.25-.02.501-.14.725-.11.225-.28.413-.49.545-.22.132-.46.202-.72.202l-.03-.038zm-13.51 11.349c-.21 0-.42-.048-.6-.142-.19-.094-.35-.23-.48-.398l-40.71-56.465a1.253 1.253 0 0 1-.23-.481 1.205 1.205 0 0 1-.03-.534c.03-.178.09-.349.18-.503.1-.153.22-.287.36-.393a1.365 1.365 0 0 1 1.03-.236c.17.03.34.096.49.193.16.097.29.223.39.371l40.71 56.465c.16.2.25.439.27.689.02.25-.03.501-.14.725-.11.225-.28.414-.5.546-.21.131-.46.201-.71.201l-.03-.038zm153.64-56.648c-.2.003-.41-.041-.6-.129a1.429 1.429 0 0 1-.48-.379l-43.42-54.411a1.329 1.329 0 0 1-.28-.994c.02-.176.07-.347.16-.503.08-.155.2-.292.34-.403.13-.11.29-.193.46-.242.18-.049.35-.064.53-.044.18.019.35.074.5.16.16.085.29.201.41.34l43.41 54.411c.23.28.33.638.29.994-.04.357-.22.683-.5.908a1.32 1.32 0 0 1-.82.292zm-164.02 76.547c-.1 0-.2-.011-.3-.032l-68.1-15.673a1.353 1.353 0 0 1-1.01-1.621l6.15-27.179-30.39-3.594c-.18-.02-.35-.075-.51-.162a1.412 1.412 0 0 1-.4-.344c-.11-.14-.19-.301-.24-.472a1.355 1.355 0 0 1-.05-.529c.02-.178.08-.349.17-.505.08-.156.2-.294.34-.405a1.366 1.366 0 0 1 1-.285l31.89 3.783c.18.019.36.077.53.17a1.346 1.346 0 0 1 .64.888c.03.186.03.378-.01.564l-6.19 27.329 60.43 13.911-5.02-3.702a1.421 1.421 0 0 1-.53-.89c-.05-.354.05-.715.26-1.001.22-.287.54-.476.89-.527.36-.051.72.041 1 .256l10.27 7.567c.23.168.4.405.49.676.08.27.08.561-.01.831-.09.27-.26.505-.49.672-.23.167-.5.257-.79.258l-.02.016z" fill="#000"/><path d="M1157.07 431.374a1.335 1.335 0 0 1-.87-.323 1.32 1.32 0 0 1-.46-.812c-.05-.316.01-.64.18-.914.16-.275.42-.481.72-.583l11.35-3.783c.34-.098.7-.062 1.01.1.31.162.54.438.65.77.11.331.09.693-.06 1.008-.15.316-.42.56-.74.683l-11.35 3.784c-.14.046-.28.07-.43.07z" fill="#000"/></svg>