<svg width="1840" height="1380" viewBox="0 0 1840 1380" fill="none" xmlns="http://www.w3.org/2000/svg"><path d="M453.677 697.785a265.782 265.782 0 0 1-9.579-69.049c-.253-44.935 12.672-77.688 38.523-143.188 0 0 10.384-26.318 45.12-69.021 2.817-3.437 7.432-9.015 10.244-7.888 6.648 2.631-6.829 38.753-7.094 74.841-.164 22.865 4.919 54.812 26.786 91.729-17.32 13.274-35.79 21.929-56.722 48.506-20.329 25.806-38.466 54.541-47.278 74.07z" fill="#868686"/><path d="M675.814 895.181c-.366-.293-.563-.4 0 0zm356.006 39.92.34-.09c.21-.165.43-.319.65-.462l-.99.552zm55.57-18.785.34-.13c-.06-.045-.03-.158-.34.13zm-190.775 33.361a5.58 5.58 0 0 0-1.009.04c.293-.017.598-.034 1.009-.04zM620.298 807.386s.034.14.056.247c0-.208-.039-.416-.045-.631l-.011.384zm.395 1.116c.18 1.279-.231-.316-.361-.868a24.59 24.59 0 0 0 .778 4.22c.146-.062-.412-2.705-.417-3.352zm82.071-159.984-.501.304c.208-.118.36-.214.501-.304zm199.622 309.768-.902.034c.301.016.603.004.902-.034zm-226.363-294.68-.119.417c.175-.259.175-.371.119-.417zm356.787 270.942.38-.208c-.13.062-.26.131-.38.208zm99.59-47.599c.07.051.21 0 .35-.039l.12-.096-.47.135zm-23.97-232.836c.01.06.04.117.08.163l1.09.316c-.38-.181-.77-.341-1.17-.479zm64.33 172.154v-.271c-.23.564-.61 1.69-1.09 3.127-.22.727-.56 1.527-.84 2.406-.29.879-.63 1.837-1.03 2.817l.23.361c.52-1.38.95-2.817 1.44-4.203.48-1.386.85-2.823 1.29-4.237z" fill="#4C74EE"/><path d="M1183.65 744.348c.29 2.738.5 5.487.68 8.231a284.596 284.596 0 0 0-3.29-17.207c-.56-2.541-1.13-4.953-1.72-7.285-.3-1.172-.6-2.322-.89-3.46-.3-1.138-.67-2.344-1.05-3.493a62.25 62.25 0 0 0-2.66-6.711 51.959 51.959 0 0 0-1.64-3.257c-.59-1.081-1.17-2.056-1.75-3.082a122.056 122.056 0 0 0-8.61-12.959l.86.936c-.92-1.381-1.9-2.288-5.39-6.48-1.77-2.079-4.17-4.986-7.78-8.976A170.721 170.721 0 0 0 1135 665.5l.04-.057a25.905 25.905 0 0 1-3.02-2.344l2.41 2.096c.79.705 1.61 1.381 2.37 2.125-3.08-2.254-5.92-3.995-10.14-6.813-.84-.681-1.09-.969-1.13-1.126l-2.63-1.657-1.31-.823-1.35-.777-2.65-1.533c-.89-.529-1.82-.986-2.73-1.476-1.05-.721-2.08-1.493-3.16-2.169-1.76-.744-2.35-.71-3.61-1.127-.91-.282-1.79-.619-2.65-1.009-.61-.264-1.32-.597-2.15-.991-.84-.395-1.83-.84-2.97-1.386 1.64 1.031.44.636-1.03.084-1.48-.552-3.27-1.172-2.74-.8a47.75 47.75 0 0 0-2.33-1.194c-2.82-.992-6.98-2.254-10.78-3.229a73.61 73.61 0 0 0-8.68-1.724l.99.282c.63.18 1.53.422 2.63.772 2.19.659 5.16 1.651 8.26 2.817 3.11 1.166 6.33 2.513 9.1 3.82 2.76 1.307 5.07 2.524 6.46 3.268-7.61-3.381-2.05-.772-.63.056l.56.068c1.41.667 2.77 1.42 4.09 2.254.76.552 1.54 1.062 2.36 1.527a.502.502 0 0 0-.08-.164l-.31-.096c-.18-.169-.03-.152.23-.067 0-.107.22-.068 1.41.563l-.25-.079c.96.417 2.19 1.127 3.39 1.758 1.19.631 2.3 1.274 2.95 1.691l-.14.31c1.73.653 6.99 3.944 11.89 7.955.63.474 1.23.986 1.83 1.499l1.77 1.516 1.69 1.465 1.55 1.436 2.67 2.457c.75.733 1.37 1.324 1.83 1.735 1.69 1.792 3.68 3.674 5.77 5.691a76.114 76.114 0 0 1 6.13 6.604c3.14 3.741 3.75 4.817 4.02 5.381.27.563.15.67 1.49 2.71 3.44 5.031-.4-1.234 1.07.715 1.31 2.068 2.59 4.142 3.78 6.266-1.18-1.758-1.52-2.107-1.49-1.955.02.152.38.839.56 1.2 1.74 2.625 3.72 6.141 5.39 9.251.85 1.578 1.58 2.919 2.17 4.046.39.816.86 1.59 1.4 2.31.95 2.39 1.68 4.858 2.2 7.376l.39 1.955c.13.636.29 1.307.51 2.191-.19-1.211-.71-3.606-.57-3.634.57 3.381.49 1.544.2.181.83 2.467 2.22 9.116 3.18 15.28.97 6.164 1.6 11.832 2.06 12.328h-.14c.72 1.127.99-.884 1.77 2.693.04.812.04 1.629.05 2.446.23 1.202.44 2.408.63 3.617.06 2.462-.2 1.273-.27 1.279.42 3.399.66 6.819.72 10.243.07 3.725.03 7.607-.13 11.207.58-2.531 1.09-5.084 1.55-7.657-.12 3.071-.4 7.359-.75 11.015-.35 3.657-.66 6.694-.48 7.325a86.805 86.805 0 0 1-.88 3.595c-1.2 5.995-1.54 8.074-1.54 9.308.11 1.33-.03 2.669-.43 3.944-.27.992-.61 1.961-.92 2.936-.31.974-.62 1.949-.97 2.907.26-.975.48-1.967.7-2.953.23-.986.47-1.972.66-2.969-.77 2.947-1.36 4.987-1.99 6.857-.62 1.871-1.24 3.578-2.08 5.837v.057c.07-.197.15-.386.25-.564-.07.271-.14.564-.23.812-.07.923-.25 1.835-.52 2.721-.17.688-.41 1.471-.7 2.333-.29.862-.6 1.808-.98 2.817-.56 1.403-1.06 2.75-1.59 4.096a87.828 87.828 0 0 1-1.73 4.141c-.65 1.437-1.39 2.959-2.25 4.655-.94 1.656-1.95 3.51-3.26 5.544l-.72 2.372c-1.27 2.068-2.71 4.023-4.1 6.012l-.37-.248 1.57-2.474.88-1.391c.3-.479.56-.998.88-1.516l1.85-3.24c.61-1.127 1.2-2.321 1.82-3.51l.92-1.797.85-1.843c.56-1.228 1.12-2.44 1.69-3.651.56-1.211 1.01-2.411 1.49-3.567l1.29-3.38-.13-.226a354.35 354.35 0 0 1-1.49 3.86c-.5 1.296-1.03 2.569-1.55 3.792l-1.56 3.426-.69 1.498-.68 1.285c-.89 1.505-3.38 5.201-2.13 2.209-.36 1.059-.81 2.079-1.23 3.11l-1.58 2.75c-.51.845-1.02 1.628-1.48 2.372l-1.33 2.107c-.42.665-.87 1.256-1.26 1.842-.81 1.161-1.53 2.22-2.25 3.201l-2.15 2.817-1.07 1.38-1.17 1.375c-.81.941-1.65 1.955-2.62 3.043l-3.38 3.589c-1.31 1.285-2.74 2.755-4.44 4.361.44-.319.87-.652 1.3-.997-2.52 2.738-5.15 5.386-6.2 5.786l-1.58 1.409-.79.704-.82.676-3.26 2.671c-2.26 1.69-4.4 3.381-6.58 4.845-2.18 1.465-4.26 2.846-6.2 4.069-1.93 1.222-3.81 2.208-5.42 3.087l-1.09 1.285c-1.02.608-2.4 1.211-3.61 1.797-1.21.586-2.25 1.127-2.57 1.753-.72.456-1.44.924-2.16 1.363l-2.2 1.307c-1.45.766-2.58 1.443-3.8 2.079a34.997 34.997 0 0 1-4.24 1.978l-.67.242h.06c-3.38 1.488-3.33 1.584-3.38 1.736-.05.152-.25.343-4.19 1.938-.99.28-1.92.745-2.73 1.369a14.585 14.585 0 0 1-3.66 1.933l-4.16.822c-3.59 1.127-5.63 1.989-8.05 2.97a109.952 109.952 0 0 1-10.46 3.82c-1.27.321-2.39.563-3.3.744-.68.131-1.37.204-2.07.219-.89 0-.75-.377.83-1.127-4.38 1.984-1.94 1.082-7.95 3.071-1.01 0-.38-.259.9-.873-1.44.243-2.85.62-4.22 1.127-1.01.47-2.07.827-3.17 1.065-1.05.828-2.25 1.983-3.57 2.349l1.64-.225a95.541 95.541 0 0 1-14.29 3.38l.14-.304-5.45 1.217-.41-.282c-2.6.519-5.21 1.048-7.82 1.516l1.09-.09c-1.83.372-7.887 1.499-11.386 1.809l.096-.209c-4.947.44-9.421 1.065-14.086 1.758-4.665.693-9.579 1.414-15.376 1.972l1.487-.53c-3.983-.045-1.031.71-5.753.913l-.27-.467c-4.091.969-5.37.27-8.238.236l1.381.564-5.392.214c-5.939.118-3.68-.597-2.817-.981l-4.007.71-.811-.524c-2.919.784-2.952.045-8.108.564-.434-.197.868-.366-.89-.395a583.26 583.26 0 0 1-8.502 1.009l5.133-.468-.603.834c-5.353.755-7.269.062-11.1.333l2.637-.271c-6.254.265-6.587-.096-10.142-.276 1.127.152 2.772.378.236.485-1.859.039-1.008-.288-2.766-.389-.423.563-4.913.806-9.015.484.051-.078.141-.152.406-.197a15.17 15.17 0 0 1-3.381.045l1.076-.563-3.499.518c-2.327-.203-5.724.169-5.409-.236l1.324-.096a806.92 806.92 0 0 1-17.562-.688l-.226-.495c-1.763.602-9.533-.722-9.015.129-3.279-.614-13.032-.563-11.021-1.341-5.741-.468-10.142-.659-14.914-.969a164.163 164.163 0 0 1-16.695-1.876c-2.417-.727-7.014-1.476-12.097-2.322-5.082-.845-10.654-1.752-15.044-2.642-8.631-1.471-15.703-2.874-22.779-4.474-7.077-1.6-14.149-3.38-22.696-6.006-4.947-2.164-11.269-4.248-17.664-6.592-6.395-2.344-12.767-4.908-17.805-7.703-1.008-.332-2.028-.636-3.025-.986a79.888 79.888 0 0 0-2.626-1.566l-1.442-.794-1.493-.851-3.178-1.736-3.324-1.887c-4.508-2.598-9.28-5.528-13.422-8.903-2.253-1.341-3.38-2.141-3.87-2.473.377.304.918.806.94 1.172-.563-.496-1.346-1.082-2.141-1.69-.794-.609-1.6-1.268-2.327-1.854-1.459-1.172-2.524-2.13-2.169-2.214.209.146.417.304.637.445.332-.062-1.46-1.499-3.646-3.223-2.186-1.724-4.637-3.882-5.662-5.252l.929 1.725c-1.352-1.364-2.738-2.688-4.062-4.074.383.344.772.676 1.172 1.003a103.79 103.79 0 0 1-11.472-11.94c-1.504-1.955-2.986-3.786-4.259-5.696-.648-.941-1.307-1.859-1.922-2.817l-1.774-2.817c-.288-.468-.592-.936-.874-1.409l-.822-1.437c-.564-.963-1.127-1.921-1.691-2.896-.563-.974-1.048-1.983-1.583-2.997-.27-.502-.563-1.009-.817-1.522-.254-.512-.518-1.048-.783-1.577-.524-1.059-1.065-2.136-1.612-3.24l-1.594-3.443a68.252 68.252 0 0 1-.84-1.791l-.822-1.865a146.916 146.916 0 0 1-1.691-3.944c.862 1.341.344.298-.242-1.178-.299-.738-.631-1.578-.851-2.254-.219-.676-.304-1.234-.157-1.363-.964-5.894-3.297-10.469-4.587-15.213-.039 0-.09-.04-.208-.299-.265-1.397-.564-2.817-.806-4.192-.242-1.375-.507-2.817-.699-4.209 1.691 4.88-1.69-5.95-.208-1.448-.682-5.522-1.251-11.477-1.46-17.709a166.776 166.776 0 0 1 .423-19.309c1.082-13.151 4.124-26.577 8.981-38.415l-.642.969c.146-.378.293-.766.439-1.127.147-.361.322-.772.485-1.166.321-.789.654-1.595.98-2.406.671-1.612 1.42-3.223 2.119-4.801.699-1.577 1.51-3.048 2.254-4.417a53.871 53.871 0 0 1 2.175-3.617c.67-1.037 1.357-2.125 1.972-3.24.614-1.116 1.166-2.254 1.741-3.251 1.127-2.04 1.944-3.832 2.513-4.609a44.057 44.057 0 0 1 2.163-3.212 29.795 29.795 0 0 1 1.978-2.338c1.127-1.189 1.651-1.583.924-.682.845-1.172 1.724-2.293 2.58-3.471l1.313-1.775 1.415-1.786 1.51-1.853c.529-.62 1.126-1.234 1.69-1.871a41.877 41.877 0 0 1 1.876-1.949c.665-.66 1.392-1.296 2.147-1.967.494-.31.957-.669 1.38-1.07a59.117 59.117 0 0 0 2.141-1.905l1.262-1.177c.446-.406.908-.817 1.381-1.24.946-.845 1.899-1.758 2.902-2.586 3.899-3.443 7.837-6.361 8.181-6.08l.028-.112c4.4-2.733 8.581-5.511 12.959-8.153a94.655 94.655 0 0 1 14.216-7.19 4.727 4.727 0 0 1-.485.361 156.081 156.081 0 0 1 20.493-10.396 148.404 148.404 0 0 0-7.184-.789 167.765 167.765 0 0 0-19.817 5.545 162.644 162.644 0 0 0-45.126 32.392 144.607 144.607 0 0 0-26.853 35.621l-1.516 3.059-1.414 3.116c-.485 1.031-.918 2.085-1.347 3.138-.428 1.054-.884 2.102-1.29 3.167a155.003 155.003 0 0 0-4.327 12.959c-1.257 4.372-2.254 8.829-3.071 13.303a150.971 150.971 0 0 0-1.831 13.522 166.222 166.222 0 0 0 4.248 53.922l1.268 3.673 1.347 3.635a116.486 116.486 0 0 0 5.11 16.148 130.245 130.245 0 0 0 8.068 16.469 145.155 145.155 0 0 0 10.441 15.427 191.875 191.875 0 0 0 11.596 13.692l.732-.051c4.649 4.508 4.113 4.429 5.235 5.573 11.161 10.141 23.782 18.649 37.001 25.737a267.086 267.086 0 0 0 40.951 17.467 388.24 388.24 0 0 0 41.694 11.342c13.788 2.981 27.361 5.268 40.5 7.105 2.519.519 7.652 1.127 12.655 1.691 5.004.563 9.877 1.014 11.832 1.38 8.621.366 17.467.744 26.336 1.037 8.868.293 17.726.496 26.284.653l-.648.051h8.097c.344.051.383.118.124.158 4.575-.214 10.469-.214 16.621-.231 6.153-.017 12.571-.034 18.183-.186l-.654.09c16.355-.687 32.426-2.085 48.214-4.192a439.681 439.681 0 0 0 46.763-8.795 336.145 336.145 0 0 0 45.34-14.486c15.09-6 29.52-13.537 43.07-22.493a146.505 146.505 0 0 0 36.3-33.243 154.739 154.739 0 0 0 24.46-46.828c1.63-4.785 2.92-9.68 3.86-14.649a157.746 157.746 0 0 0 2.94-27.152c.12-4.885.03-9.765-.24-14.368a201.4 201.4 0 0 0-1.15-12.745c-.91-7.618-2.03-13.145-2.38-14.666z" fill="#4C74EE"/><path d="m1125.57 659.409.24.146c.12-.203-.28-.349-.24-.146zm54.3 126.853v-.445c-.12.563-.24 1.127-.38 1.69.14-.428.26-.834.38-1.245zm-21.69-86.218c2.25 3.381 2.38 3.522 2.15 2.987a33.8 33.8 0 0 0-2.15-2.987zm-63.8-55.741c-2.09-.755-1.34-.338-.16.242 1.08.35 1.97.71 2.61.936l1.01.377c-1.15-.49-2.26-1.082-3.46-1.555zm7.19 6.288-.7-.084c1.2.451 1.17.366.7.084zm-313.817 193.12c-.175-.09-.276-.096 0 0zm151.232 13.753h.147c.085-.109.177-.212.276-.31l-.423.31zm24.286-2.89h.153c-.029-.062.011-.135-.153 0zm-81.034 5.076a1.027 1.027 0 0 0-.423.04c.14-.021.282-.034.423-.04zm-127.896-41.244.051.085c0-.085 0-.164-.04-.254l-.011.169zm.366.327c.141.491-.203-.05-.315-.242.104.557.339 1.08.687 1.527.152-.084-.383-1.003-.372-1.285zm38.197-53.949-.215.129c.076-.035.148-.079.215-.129zm91.428 103.504h-.383c.127.024.257.024.383 0zm-103.56-99.791v.31a.325.325 0 0 0 0-.31zm158.636 88.64.169-.129a1.18 1.18 0 0 0-.169.129zm45.437-8.496a.334.334 0 0 0 .186.152h.056l-.242-.152zm.867-77.924a.334.334 0 0 0 0 .118l.507-.034a1.935 1.935 0 0 0-.507-.084zm24.718 62.931v-.141c-.19.163-.51.496-.94.918-.43.423-.94.986-1.56 1.578l.17.315c.41-.433.82-.856 1.2-1.312.38-.457.78-.885 1.13-1.358z" fill="#4C74EE"/><path d="M1025.54 802.213v2.829l-.05.946c-.42-2.573-.99-5.12-1.69-7.629a76.406 76.406 0 0 0-.98-3.161l-.25-.743-.13-.384-.16-.433a24.64 24.64 0 0 0-.73-1.691 20.013 20.013 0 0 0-1.84-3.037c-.38-.501-.68-.862-.98-1.245-.3-.383-.66-.806-1.01-1.2a39.092 39.092 0 0 0-4.93-4.739l.51.26c-.49-.564-1.13-.699-3.04-2.108-.96-.693-2.25-1.69-4.08-3.121a135.478 135.478 0 0 0-7.559-5.482v-.057a4.76 4.76 0 0 1-1.453-.772c.755.564 1.51 1.06 2.253 1.617-1.532-.614-2.947-.957-4.924-1.814-.383-.265-.473-.445-.473-.563a87.817 87.817 0 0 0-4.948-1.888l-1.374-.969c-1.623-.276-1.189.772-5.145-.963 1.37 1.064-2.141-.22-1.724.253-.186-.135-.631-.377-.98-.563-2.468-.615-7.19-1.386-8.401-1.24 0 0 2.378.749 4.986 1.792a48.733 48.733 0 0 1 6.593 3.093c-3.296-1.161-.902-.191-.31.214l.265-.084c1.949.766 1.808 1.177 2.755 1.611a.236.236 0 0 0 0-.129h-.141c-.068-.102 0-.13.118-.13 0-.09.119-.124.648.079h-.118c.96.302 1.901.663 2.817 1.082l-.112.321c.828 0 3.155 1.127 5.38 2.603 2.226 1.476 4.373 3.088 5.223 3.64 1.534 1.375 3.944 2.315 5.844 4.017 1.57 1.268 1.86 1.69 1.97 1.972.08.452.31.863.65 1.166 1.72 1.82-.11-.631.65 0 .65.784 1.26 1.589 1.85 2.395-1.26-1.183-.73-.377-.6-.062a36.524 36.524 0 0 1 2.74 3.347c.41.563.83 1.127 1.18 1.487.22.286.51.506.84.637.47.83.8 1.733.98 2.671.08.546.2 1.085.37 1.611 0-.253-.09-.62-.13-.929-.05-.31-.07-.508 0-.564.02.211.05.419.1.626.04.112.07.129.08.078.04-.225.04-.456 0-.681.16.312.29.638.38.974.16.485.3.977.41 1.477.26 1.127.48 2.4.66 3.639.37 2.48.42 4.722.82 4.891h-.13c.61.411 1.05-.434 1.53.997l-.18 1.003c.11.479.25.969.33 1.46-.17.997-.32.507-.39.512.14 1.364.12 2.74-.08 4.097-.12.732-.22 1.487-.38 2.22-.17.732-.35 1.448-.51 2.146.35-.434.68-.884 1.03-1.346.35-.462.71-.93 1-1.42-.13.614-.43 1.329-.67 2.079-.24.749-.56 1.504-.83 2.197-.14.35-.26.682-.37.992-.1.31-.25.563-.34.828-.16.312-.23.665-.19 1.014-.16.203-.32.412-.49.609l-.56.563a34.19 34.19 0 0 0-1.44 2.203c-.22.33-.36.7-.43 1.088-.07.513.14.783-.56 1.516-.62.563-1.2 1.183-1.84 1.724.49-.648.92-1.336 1.37-2.006-.59.747-1.23 1.455-1.92 2.118l-.87.8c-.31.26-.64.524-1.02.834.11-.084.18-.129.22-.124l-.2.265c-.06.387-.23.749-.49 1.043-.42.593-.9 1.141-1.43 1.633-.89.834-1.66 1.618-2.61 2.463a18.246 18.246 0 0 1-3.95 2.597l-.49 1.031c-.89.451-1.785.902-2.698 1.313l-.231-.383a51.22 51.22 0 0 0 9.379-7.325l-.1-.191a41.575 41.575 0 0 1-4.51 4.04c-.61.371-2.34 1.002-1.46 0l-.84 1.126a50.76 50.76 0 0 1-6.323 3.781 59.037 59.037 0 0 1-7.133 2.862l.71-.045c-1.358.722-2.75 1.398-3.279 1.206-4.373 1.612-9.122 2.727-12.199 2.964l-.507.687c-.969.22-2.597-.18-2.89.648l-2.012.721c-1.335.26-2.079.744-3.668.761h-.265a.065.065 0 0 0 0 .039c-3.065.384.13.468-3.38.851-1.184-.169-1.127.896-2.818 1.076l-1.836-.462c-3.161.057-3.567.913-8.08 1.522-2.203 0-3.319-.519-1.961-1.268-1.882.935-.839.563-3.414 1.194-.44-.247-.164-.332.383-.653-2.355-.085-1.403.411-3.161.563-.456.564-.964 1.499-1.533 1.589l.699.107c-1.984.524-4.035.75-6.085.671l.062-.276-2.31.304-.169-.333-3.308.316.457.068a30.696 30.696 0 0 1-4.801.236l.045-.191c-4.152-.417-7.527.479-12.396.625l.632-.406c-1.657-.366-.446.615-2.418.446l-.101-.485c-1.73.648-2.254-.118-3.437-.355l.563.631-2.253-.129c-2.479-.22-1.516-.812-1.155-1.127l-1.691.49-.327-.564c-1.233.637-1.228-.112-3.38.198-.175-.215.372-.327-.355-.429l-3.572.716 2.152-.299-.276.812c-2.254.563-3.031-.158-4.632 0l1.127-.214c-2.614.123-2.744-.231-4.203-.468.451.169 1.127.422.079.49-.778 0-.411-.304-1.127-.423-.197.564-2.079.755-3.769.423a.272.272 0 0 1 .174-.191 2.823 2.823 0 0 1-1.42.033l.474-.563-1.488.513c-.963-.209-2.394.163-2.254-.243l.564-.095a537.984 537.984 0 0 1-7.325-.524l-.073-.491c-.761.626-3.944-.501-3.775.344-1.347-.563-5.449-.068-4.564-.947-4.778-.45-7.449.231-13.213-.833-1.977-1.003-7.646-1.409-11.331-2.018-7.268-.693-11.973-1.166-19.32-2.383-2.085-.992-4.817-1.487-7.601-2-2.783-.513-5.634-1.02-7.832-1.972l-1.38.062c-2.851-1.55-7.753-2.181-11.658-4.412a13.793 13.793 0 0 1-1.87-.428.67.67 0 0 1 .417.563c-.564-.327-1.448-.665-2.147-.986-.699-.321-1.217-.636-1.025-.856l.315.067c.389-.428-3.612-1.256-4.648-2.327l.434.874a66.436 66.436 0 0 1-2.091-1.127l.62.18a35.986 35.986 0 0 1-10.908-5.955c-2.817-2.254-5.404-4.508-8.948-7.534.665.231.271-.033-.174-.467-.446-.434-1.031-.981-.778-1.257a5.11 5.11 0 0 0-.727-1.527 6.756 6.756 0 0 0-.986-1.194 19.126 19.126 0 0 1-2.028-2.164c-.034 0-.079 0-.18-.05-.53-.981-.941-2.023-1.381-3.043.828.721.383.265-.028-.231-.411-.496-.857-1.014-.163-.304a48.065 48.065 0 0 1-1.691-6.671c-.084-.564-.242-1.184-.282-1.787l-.202-1.831a35.588 35.588 0 0 1-.045-3.724 26.245 26.245 0 0 1 1.312-7.432c.096-.304.175-.608.288-.901l.366-.879c.253-.564.462-1.172.755-1.73a27.377 27.377 0 0 1 1.904-3.212l-.433.243c.355-.524.709-1.094 1.064-1.691.355-.597.817-1.127 1.217-1.651.379-.527.795-1.026 1.246-1.493a8.019 8.019 0 0 1 1.251-1.127 6.067 6.067 0 0 0 1.093-1.025c.332-.364.637-.752.912-1.161a19.74 19.74 0 0 1 1.274-1.73c1.442-1.69 3.561-2.214 2.766-1.69 1.809-1.448 3.246-3.381 6.322-4.671.671.057 2.569-1.127 4.44-2.197 1.871-1.071 3.685-1.95 3.888-1.567v.074a48.516 48.516 0 0 0 5.983-2.051 27.363 27.363 0 0 1 6.35-1.758 1.117 1.117 0 0 1-.208.174 101.72 101.72 0 0 1 8.773-4.462 95.068 95.068 0 0 0-3.217-2.389 109.57 109.57 0 0 0-8.954-.389 92.442 92.442 0 0 0-21.895 9.32 57.551 57.551 0 0 0-15.833 11.668 43.167 43.167 0 0 0-6.558 10.666 36.7 36.7 0 0 0-2.857 12.368 39.802 39.802 0 0 0 1.296 12.491 44.446 44.446 0 0 0 4.812 11.371l1.206 1.341 1.256 1.262c2.316 4.259 6.238 8.22 10.582 11.415 4.344 3.195 9.049 5.865 13.235 8.407l.434-.412c2.468 1.189 2.169 1.386 2.738 1.775a136.922 136.922 0 0 0 17.861 6.536c6.046 1.786 12.131 3.229 18.16 4.468 12.058 2.474 23.873 4.125 34.894 5.635 2.096.608 8.609.986 10.254 1.498 7.252-.096 14.887.327 22.042.699l-.27.051 3.38.033c.147.051.158.119.051.158 3.843-.338 9.866.321 14.571.564l-.276.062a335.872 335.872 0 0 0 40.162-1.871c6.592-.71 13.173-1.595 19.782-2.727 6.609-1.133 13.264-2.513 19.997-4.293a80.114 80.114 0 0 0 29.227-13.523 66.072 66.072 0 0 0 8.91-7.888c.59-.462 2.35-2.412 4.3-5.437.47-.761.93-1.618 1.42-2.491.12-.22.25-.439.36-.67.11-.231.22-.474.33-.71l.66-1.465c.11-.248.22-.496.33-.75.11-.253.19-.518.28-.783.19-.524.38-1.053.57-1.589.18-.535.33-1.087.48-1.639.15-.552.29-1.127.43-1.662a40.47 40.47 0 0 0 .8-12.56 37.326 37.326 0 0 0-1.12-6.637z" fill="#4C74EE"/><path d="m994.04 769.731.113.039c.09-.236-.107-.203-.113-.039zm24.41 50.124c0-.057.04-.113.06-.169l-.5.563.44-.394zM1008.78 787c1.13 1.178 1.22 1.211 1.13.975a6.63 6.63 0 0 0-1.13-.975zm-28.809-21.687c-.913-.259-.598 0-.102.265.936.22 1.583.383 1.583.383-.495-.197-.974-.451-1.481-.648zm2.766 4.125-.327.096c.524.118.524.045.327-.096z" fill="#4C74EE"/><path d="M1238.44 585.17s87.29-45.836 104.75-120.7c4.18-17.918 8.95-38.421 17.18-38.99 13.78-.953 29.68 55.955 35.88 91.322 6.97 39.785 11.01 105.764-18.9 192.612-13.01-23.63-37.27-59.961-79.22-90.854a275.953 275.953 0 0 0-59.69-33.39z" fill="#868686"/><path d="M543.631 592.782c.09-.039.107-.096 0 0zm-52.023 51.859a.415.415 0 0 0-.046.056c.053.095.1.193.141.293l-.095-.349zm-7.572 9.195-.062.046c.056.033.107.084.062-.046zm24.486-30.741a.256.256 0 0 0 .067-.083.249.249 0 0 0 .029-.103.936.936 0 0 1-.096.186zm53.178-42.348v.034h.147l-.147-.034zm-.095.287c-.271.051 0-.174.073-.253a1.21 1.21 0 0 0-.806.343c.085.147.558-.14.733-.09zm36.24-15.551-.084.085a.52.52 0 0 0 .084-.085zm-96.359 52.643c.029-.057.074-.113.096-.169a.292.292 0 0 0-.096.169zm90.369-51.138v.282a.484.484 0 0 0 0-.282zm-100.151 78.025.034.135a.785.785 0 0 0-.034-.135zm-13.956 17.861a.521.521 0 0 0-.203-.062l.203.062zm-30.139 47.284a.357.357 0 0 0 .113 0l-.091-.287a.539.539 0 0 0-.022.287zm21.236-34.967s.028.073.056.09c.39-.468.723-.98.992-1.527l-.265-.219-.783 1.656z" fill="#4C74EE"/><path d="m453.841 686.145 1.375-1.127c-1.088 2.422-2.096 4.09-2.975 5.719a34.953 34.953 0 0 0-2.384 5.363v-.287c-.214.265 0 .642-.372 1.69-.371 1.048-1.284 2.705-3.656 5.635h-.062c-.09.237.033.293-.333.682l.885-.981c-.07.829-.231 1.647-.479 2.44a.406.406 0 0 1-.417.146l-.885 2.311-.704.518c-.084.789.902.839-.377 2.485.895-.44-.045 1.07.355.969-.113.062-.316.225-.496.355-.406 1.127-1.127 3.262-1.065 3.899 0 0 3.127-3.758 4.259-4.626-.833 1.465-.107.434.226.22l-.102-.164c.564-.856.919-.693 1.223-1.127a.357.357 0 0 0-.113 0v.079c-.084 0-.118 0-.135-.095-.017-.096-.129-.096 0-.333v.062c.163-.458.369-.899.614-1.318l.31.129c-.146-.467.564-1.515 1.398-2.552l1.183-1.471c.287-.318.545-.661.772-1.025.822-.716.873-2.062 1.605-3.094.964-1.741.879-.681 1.578-1.453.727-1.026-.468.056-.27-.406l1.07-1.127c-.338.8.045.468.237.383.608-1.127 2.045-2.687 1.606-3.346 1.036-1.42 1.29-1.296 1.69-1.939-.225.164-.563.564-.682.496.564-.484.09-.327-.101-.107.231-1.076 3.657-4.299 3.093-4.834l.124.062c-.377-.474-1.037-.378-.963-1.172l.445-.327.135-.766c.394-.361.411-.074.468-.04.338-1.194 1.397-2.547 2.146-3.814l-2.056.659a64.635 64.635 0 0 0 1.577-1.69c.502-.564.868-1.082.716-1.308l.817-.4c2.079-1.69.496-1.69 1.245-2.428l1.099-.811-.626 1.07a18.407 18.407 0 0 1 2.068-1.949s-.101.073-.135.062l.079-.152c-.169-.271 0-.93.439-1.691.699-1.025.789-2.101 2.356-3.471l-.226-.71 1.076-1.087.383.237c-.394.608-.918 1.515-1.464 2.473-.547.958-1.054 1.989-1.516 2.817l.163.136c.564-.958.986-2.17 1.426-2.761.265-.254 1.127-.789 1.059-.068v-.806a34.672 34.672 0 0 1 4.372-6.197l-.366.163c.293-.721.564-1.437 1.009-1.42a19.937 19.937 0 0 1 4.214-4.637l-.253-.563c.298-.384 1.369-.564.884-1.127l.389-.998c.411-.529.389-1.036 1.065-1.493l.135-.084h-.039c1.042-1.127-.417-.276.834-1.505.636-.225-.186-.884.411-1.493l1.127-.236c1.256-.975.789-1.629 2.096-3.415.845-.693 1.69-.715 1.69.192 0-1.189-.107-.626.383-1.854.344 0 .316.158.355.563.936-.71.203-.715.721-1.397-.276-.524-.777-1.268-.636-1.51l-.338.158a5.274 5.274 0 0 1 1.69-2.412l.192.197.591-.969.316.164.913-1.33-.209.118a7.955 7.955 0 0 1 1.454-1.814l.135.141c1.69-1.2 2.164-2.93 3.634-4.75l.102.49c.817-.355-.322-.563.445-1.127l.4.277c.062-1.048.805-.727 1.358-1.009l-.654-.208.806-.739c.935-.766 1.082-.028 1.217.327l.152-.946.524.248c-.102-.874.445-.389.885-1.387.219.079.129.355.439.158l.563-1.786-.439.992-.524-.637c.27-1.211 1.059-1.014 1.409-1.73l-.181.564c.705-1.059 1.009-.874 1.623-1.268-.265.056-.659.152-.389-.293.22-.304.35.045.654-.152-.344-.434.056-1.29.8-1.719.05.057.082.128.09.203.079-.214.051-.394.389-.563l.293.563.056-.913c.434-.225.564-1.025.84-.693l-.096.271 2.58-2.395.384.31c-.231-.715 1.526-1.177.856-1.69.789-.147 1.617-2.079 2-1.127.382-.364.733-.76 1.048-1.183.304-.378.564-.755.868-1.127a9.517 9.517 0 0 1 2.434-2.327c.637-.051 1.409-.564 2.197-1.257.395-.332.784-.71 1.172-1.059a27.77 27.77 0 0 1 1.127-.952l3.212-3.381c.501-.529 1.003-1.07 1.549-1.622l1.815-1.691c2.389-.479 3.944-3.724 6.197-4.581l.243-.732a6.45 6.45 0 0 0 2.411-1.465c.412-.332.834-.676 1.291-.986a6.113 6.113 0 0 1 1.51-.721c.174-.272.378-.523.608-.75a.419.419 0 0 1-.462-.152c.62-.191 1.51-1.127 1.758-.597l-.096.141c.242.513 1.392-1.29 2.254-1.285l-.648-.276 1.02-.563-.192.27a16.164 16.164 0 0 1 5.009-3.679c.8-.434 1.612-.823 2.44-1.33a13.592 13.592 0 0 0 2.535-2.011c-.214.89.637-.784 1.048-.198 1.488.164 1.849-1.256 2.598-1.955a.182.182 0 0 1-.016-.076c0-.026.005-.052.016-.076l1.561-.766c-.474 1.301.732-1.262.27-.124a47.755 47.755 0 0 0 3.324-1.437c1.144-.546 2.305-1.172 3.499-1.786l3.64-1.803c1.212-.608 2.468-1.093 3.685-1.561l-.304-.118c.614-.248 1.273-.597 1.91-.896a5.12 5.12 0 0 1 1.797-.524c1.065-.034 1.815-1.375 2.164-1.555.89-.766 2.113-.366 1.651-.237 1.065-.501 1.814-1.69 3.482-1.882.389.271 1.38-.264 2.321-.771.941-.508 1.837-.93 1.989-.524v-.079a8.463 8.463 0 0 0 2.986-.789 8.106 8.106 0 0 1 3.094-.783.647.647 0 0 1-.085.146c1.251-1.2 2.547-2.411 3.905-3.521-.564-.885-1.217-1.741-1.86-2.598-.766-.236-1.543-.473-2.315-.693a85.908 85.908 0 0 0-2.339-.637 133.722 133.722 0 0 0-10.739 3.821c-1.47.355-2.93.755-4.395 1.127-1.465.371-2.907.833-4.366 1.256a182.416 182.416 0 0 0-19.552 9.922l-1.042 1.324c-2.135.564-4.209 1.893-6.305 3.234s-4.107 2.891-6.277 3.804l.237.518c-1.048.766-1.172.428-1.493.563-2.468 1.758-4.958 3.516-7.325 5.432l-3.572 2.817-3.448 2.902c-1.127.963-2.299 1.893-3.415 2.851-1.115.958-2.208 1.927-3.302 2.857l-3.273 2.738a123.592 123.592 0 0 1-3.161 2.676c-1.014.451-3.217 2.761-4.062 3.077a37.016 37.016 0 0 1-3.381 4.242c-1.228 1.341-2.536 2.598-3.741 3.888l.05-.141-1.053 1.296c-.079 0-.136 0-.13-.084-.896 1.718-3.29 3.527-4.958 5.121l.045-.14a294.496 294.496 0 0 0-6.356 7.583l-5.831 7.748c-1.877 2.608-3.702 5.251-5.635 7.843-.473.653-.974 1.29-1.448 1.955l-1.408 1.989a133.579 133.579 0 0 1-2.942 3.944 25.455 25.455 0 0 0-1.526 1.814 22.58 22.58 0 0 0-1.42 1.989c-.891 1.386-1.747 2.851-2.615 4.339-.867 1.487-1.741 3.009-2.676 4.507-.935 1.499-1.831 3.02-2.885 4.451-.563.423-2.547 3.787-4.4 7.212-1.741 3.173-3.398 6.689-3.578 7.337z" fill="#4C74EE"/><path d="M445.4 705.335v-.051c-.197-.09-.146.017 0 .051zm18.712-23.259-.045.079.451-.141-.406.062zm-8.243 16.577c.428-.716.395-.778.259-.71a1.9 1.9 0 0 0-.259.71zm-12.824 13.196c-.197.4 0 .298.248.124.164-.429.271-.722.271-.722-.152.209-.367.384-.519.598zm3.668-.384.124.203c.056-.254-.011-.276-.124-.203zm872.547 277.856c-.07.056-.07.118 0 0zm39.1-62.193v-.062c-.07-.08-.14-.165-.2-.254l.2.316zm5.32-10.655.05-.056c-.06-.023-.12-.062-.05.056zm-16.98 35.446a.338.338 0 0 0-.05.096.195.195 0 0 0 0 .107c0-.07.02-.139.05-.203zm-42.38 53.181c.01-.02.02-.03.03-.05l-.14.04.11.01zm.06-.31c.25-.11.05.17 0 .26.29-.07.54-.25.71-.51-.14-.13-.53.26-.71.25zm-31.84 23.27.07-.12c-.03.04-.05.08-.07.12zm82.13-72.872c0 .056-.04.123-.06.18a.295.295 0 0 0 .06-.18zm-76.63 70.072-.08-.28c0 .1.03.19.08.28zm80.15-98.448-.07-.124c.02.045.04.087.07.124zm9.6-20.56c.07.02.14.02.22 0h-.22zm18.79-52.828a.403.403 0 0 0-.11 0l.15.26a.576.576 0 0 0-.04-.26zm-12.87 38.838c-.03 0-.05-.067-.08-.078a7.306 7.306 0 0 0-.63 1.69l.31.152.4-1.764z" fill="#4C74EE"/><path d="m1385.88 878.278-1.08 1.431c.52-2.609 1.13-4.457 1.62-6.238.54-1.886.91-3.814 1.13-5.764l.09.277c.14-.305-.13-.631 0-1.725.13-1.093.65-2.924 2.3-6.31h.06c.04-.254-.09-.276.18-.738l-.64 1.127c-.12-.823-.15-1.656-.09-2.485a.45.45 0 0 1 .38-.242l.34-2.446.57-.659c-.1-.789-1.07-.625-.19-2.507-.78.625-.2-1.054-.57-.868.14-.145.28-.297.4-.456.15-1.189.39-3.437.17-4.04 0 0-2.21 4.361-3.11 5.46.48-1.612 0-.446-.28-.164l.14.141c-.34.958-.74.885-.94 1.352.04.006.07.006.11 0l-.04-.073c.02-.007.03-.012.05-.012.01-.001.03.002.04.007.02.006.03.015.04.027.01.011.02.025.02.04.09 0 .15.062.08.327l-.04-.057c-.05.485-.15.962-.3 1.426l-.33-.062c.24.428-.23 1.606-.79 2.817-.29.564-.56 1.195-.82 1.691-.21.373-.39.763-.53 1.166-.64.884-.39 2.208-.87 3.38-.57 1.911-.71.863-1.21 1.764-.48 1.166.44-.158.35.338l-.79 1.347c.16-.851-.15-.44-.31-.316-.34 1.245-1.39 3.077-.82 3.617-.69 1.618-.96 1.556-1.19 2.254.18-.214.42-.665.57-.636-.47.602 0 .343.12.084 0 1.127-2.6 5.003-1.94 5.404l-.13-.034c.47.377 1.13.135 1.21.929l-.37.412.04.783c-.3.434-.38.158-.45.141-.06 1.239-.79 2.817-1.23 4.197l1.85-1.098c-.33.563-.8 1.324-1.13 2-.33.676-.6 1.245-.4 1.431l-.71.563c-1.65 2.102-.1 1.781-.67 2.643l-.89 1.037.37-1.184c-.46.829-.99 1.619-1.58 2.361 0 0 .08-.09.11-.09l-.03.169c.22.226.21.902-.06 1.73-.45 1.127-.3 2.254-1.52 3.91l.38.643-.81 1.301-.42-.146c.25-.682.56-1.691.87-2.733.31-1.042.57-2.181.85-3.071l-.18-.096c-.33 1.054-.48 2.333-.77 3.009-.21.31-.95 1.026-1.02.304l.19.784a34.72 34.72 0 0 1-2.87 7.003l.32-.236c-.12.766-.25 1.532-.66 1.605a19.799 19.799 0 0 1-3.08 5.46l.38.496c-.2.445-1.21.834-.61 1.324l-.15 1.059c-.28.609-.15 1.127-.71 1.691l-.11.112h.05c-.77 1.313.46.175-.48 1.651-.57.366.38.823-.07 1.55l-1.03.479c-1.01 1.228-.41 1.769-1.28 3.797-.67.868-1.47 1.071-1.69.197.26 1.161.24.564.04 1.893-.34.062-.34-.09-.46-.45-.76.901-.04.749-.4 1.527.38.445 1.05 1.059.96 1.329l.3-.231a5.306 5.306 0 0 1-1.13 2.739l-.23-.152-.35 1.076-.35-.085-.57 1.493.18-.157a7.766 7.766 0 0 1-1.01 2.09l-.16-.107c-1.37 1.544-1.46 3.341-2.48 5.443l-.21-.451c-.72.524.44.473-.18 1.223l-.45-.181c.18 1.037-.62.891-1.12 1.285l.68.062-.62.896c-.74.958-1.05.27-1.26-.04l.07.953-.57-.124c.3.828-.34.479-.56 1.549-.22 0-.2-.315-.45-.056l-.16 1.865.21-1.065.65.507c0 1.24-.81 1.223-.99 2.006l.05-.564c-.45 1.184-.78 1.071-1.29 1.595.24-.113.6-.293.44.203-.14.343-.35 0-.6.287.43.349.23 1.274-.39 1.854a.327.327 0 0 1-.14-.169c-.03.225.04.389-.25.636l-.42-.49.15.896c-.37.321-.34 1.127-.66.868l.04-.287-1.99 2.907-.44-.209c.39.643-1.22 1.488-.46 1.832-.73.321-1.12 2.389-1.69 1.555-.29.438-.54.9-.75 1.38-.22.44-.4.873-.59 1.307a9.665 9.665 0 0 1-1.86 2.817c-.61.186-1.24.885-1.85 1.691-.31.411-.61.862-.91 1.296-.3.434-.61.828-.9 1.183l-2.36 4.034c-.37.631-.74 1.274-1.12 1.933l-1.39 2.079c-2.22.997-3 4.507-5.04 5.854l-.19.84a6.407 6.407 0 0 0-2.02 1.96c-.33.417-.67.851-1.04 1.251-.39.405-.83.756-1.31 1.043-.11.303-.26.593-.43.867a.432.432 0 0 1 .49.04c-.56.327-1.23 1.42-1.58.974l.07-.152c-.36-.445-1.07 1.567-1.9 1.747l.7.13-.87.8.13-.31a16.166 16.166 0 0 1-4.06 4.71c-.68.603-1.38 1.127-2.08 1.837-.77.759-1.45 1.608-2.01 2.528 0-.92-.45.91-.99.42-1.48.18-1.52 1.65-2.09 2.5.03 0 .04.06.04.14l-1.35 1.09c.17-1.36-.43 1.4-.23.19-.95.64-1.93 1.35-2.92 2.14-1 .79-1.99 1.66-3.01 2.53l-3.15 2.57c-1.04.84-2.12 1.62-3.24 2.34l.32.06c-.56.37-1.13.86-1.65 1.3-.49.4-1.04.7-1.64.91-1.03.27-1.46 1.74-1.76 2-.7.94-1.98.83-1.56.6-.92.73-1.38 2.06-2.97 2.61-.44-.17-1.28.56-2.09 1.27-.81.71-1.58 1.32-1.82.96v.08c-.99.3-1.91.79-2.73 1.44-.83.66-1.79 1.15-2.81 1.45 0-.06.02-.11.05-.16-.96 1.45-1.95 2.92-3.02 4.3.76.74 1.57 1.43 2.39 2.12.8.06 1.61.11 2.41.15.8.04 1.62.08 2.43.1 3.32-1.92 6.51-3.94 9.61-6.13 1.35-.67 2.68-1.38 4.03-2.08 1.34-.7 2.64-1.46 3.94-2.2 5.89-4.34 11.51-9.03 16.83-14.05l.72-1.52c1.96-1.04 3.69-2.82 5.43-4.57 1.74-1.75 3.38-3.74 5.26-5.111l-.34-.456c.85-.98 1.04-.676 1.33-.851 2.01-2.254 4.05-4.507 5.92-6.93l2.82-3.544 2.72-3.601c.89-1.194 1.81-2.36 2.68-3.544.88-1.183 1.72-2.366 2.58-3.521l2.57-3.381a154.14 154.14 0 0 1 2.49-3.318c.89-.665 2.52-3.381 3.27-3.905a35.669 35.669 0 0 1 2.36-4.891c.89-1.583 1.89-3.104 2.77-4.631v.146l.73-1.493c.08-.039.14 0 .15.057.48-1.882 2.42-4.176 3.68-6.108v.152c1.57-2.958 3.07-5.888 4.51-8.818l3.94-8.852c1.25-2.963 2.44-5.949 3.74-8.908.32-.743.66-1.481.97-2.253l.93-2.254c.63-1.503 1.29-3.005 1.98-4.508.39-.676.74-1.38 1.09-2.107.34-.735.66-1.487.93-2.254.56-1.555 1.07-3.172 1.57-4.817.51-1.645 1.03-3.324 1.61-4.987.58-1.662 1.13-3.38 1.81-4.986.45-.563 1.64-4.26 2.67-8.012.98-3.809 1.81-7.612 1.84-8.226z" fill="#4C74EE"/><path d="M1389.81 857.627v.057c.22.045.15-.057 0-.057zm-13.04 26.86.03-.085-.4.237.37-.152zm4.33-18.002c-.26.794-.21.845-.09.755.08-.243.11-.5.09-.755zm9.55-15.731c.1-.429-.08-.288-.28-.062l-.1.76c.1-.22.25-.456.38-.698zm-3.51 1.194-.16-.169c.01.265.08.265.16.169zm-36.62-179.805c.04.09.09.101 0 0zm-54-49.786s-.04 0-.06-.04c-.1.056-.19.105-.29.147l.35-.107zm-9.51-7.173-.05-.067c-.03.062-.08.112.05.067zm31.75 23.158c.02.027.05.049.08.065.04.015.07.024.11.025a.492.492 0 0 1-.19-.09zm44.55 51.363-.04-.039c.01.049.01.098 0 .147l.04-.108zm-.29-.101c-.06-.265.18 0 .25.062a1.14 1.14 0 0 0-.37-.789c-.14.084.17.547.12.727zm17.07 35.547-.1-.09c.03.037.06.068.1.09zm-56.66-94.044c.05 0 .11.062.16.085a.249.249 0 0 0-.16-.085zm54.9 88.128h-.28c.09.026.19.026.28 0zm-82.16-96.759-.13.039a.38.38 0 0 0 .13-.039zm-18.46-13.202a.74.74 0 0 0 .06-.209h-.03l-.03.209zm-48.51-28.11a.213.213 0 0 0 0 .112l.28-.101a.544.544 0 0 0-.28-.011zm35.83 19.737s-.07.034-.09.062c.48.373 1.01.686 1.57.93l.21-.276-1.69-.716z" fill="#4C74EE"/><path d="m1253.48 586.376 1.21 1.324c-2.47-.98-4.18-1.921-5.84-2.733a35.588 35.588 0 0 0-5.46-2.152l.28-.034c-.27-.203-.64 0-1.69-.298-1.05-.299-2.76-1.172-5.78-3.42l.02-.062c-.24-.079-.29.045-.69-.305l1.02.845c-.83-.037-1.66-.162-2.46-.371a.4.4 0 0 1-.17-.417l-2.34-.789-.57-.688c-.79-.05-.8.941-2.49-.27.47.879-1.07 0-.96.4a7.15 7.15 0 0 0-.37-.479c-1.13-.366-3.32-1.009-3.95-.901 0 0 3.89 2.963 4.81 4.056-1.51-.766-.45-.084-.22.237l.17-.107c.88.507.73.89 1.15 1.172a.217.217 0 0 0 0-.113h-.08v-.047c0-.016.01-.031.02-.045 0-.013.02-.025.03-.033a.096.096 0 0 1 .04-.016c0-.084.09-.129.34 0h-.07c.47.146.92.335 1.35.564l-.12.321c.46-.169 1.54.513 2.61 1.279l1.52 1.127c.33.27.69.513 1.06.727.75.788 2.09.783 3.16 1.476 1.78.884.71.845 1.51 1.51 1.06.687-.07-.468.4-.287l1.18 1.019c-.82-.304-.46.068-.37.254 1.16.563 2.77 1.927 3.38 1.465 1.46.975 1.35 1.234 2.01 1.583-.17-.22-.57-.535-.52-.659.5.563.32.073.1-.107 1.08.186 4.44 3.471 4.96 2.89l-.06.124c.46-.4.33-1.053 1.13-1.014l.34.434.77.101c.38.378.09.406.06.468 1.21.287 2.61 1.285 3.9 1.978l-.74-2.023c.48.428 1.16 1.025 1.75 1.504.59.479 1.13.823 1.34.66l.43.8c1.77 2.005 1.74.422 2.49 1.126l.85 1.065-1.13-.563c.73.603 1.41 1.265 2.04 1.978-.05-.051-.08-.096-.07-.13l.16.068c.26-.175.92-.045 1.69.372 1.06.653 2.14.698 3.57 2.208l.7-.253 1.13 1.025-.22.395c-.63-.372-1.56-.857-2.54-1.358-.98-.502-2.03-.969-2.86-1.398l-.12.164c.97.518 2.21.896 2.81 1.307.27.259.84 1.127.12 1.059l.81-.051a35.19 35.19 0 0 1 6.36 4.108l-.18-.361c.74.26 1.46.524 1.46.947a19.772 19.772 0 0 1 4.81 4.017l.56-.281c.4.281.6 1.346 1.2.839l1.01.349c.56.384 1.05.344 1.53.998 0 .039.07.079.09.124v-.04c1.13.997.26-.428 1.54.772.26.626.88-.225 1.51.344l.28 1.127c1.02 1.211 1.67.721 3.5 1.949.73.812.79 1.634-.12 1.719 1.19-.04.62-.13 1.87.304 0 .344-.15.321-.52.372.74.907.72.18 1.42.67.51-.298 1.24-.839 1.48-.698l-.17-.338c.97.29 1.83.851 2.48 1.617l-.18.197.99.563-.15.321 1.36.857-.12-.203c.69.364 1.32.827 1.87 1.375l-.14.141c1.28 1.634 3.02 2.039 4.9 3.431l-.47.124c.38.8.56-.344 1.16.394l-.26.412c1.05 0 .77.772 1.07 1.318l.18-.665.77.772c.81.902.07 1.076-.27 1.229l.95.112-.23.564c.87-.136.41.428 1.43.828-.08.22-.35.141-.14.439l1.8.496-1-.394.61-.564c1.22.22 1.06 1.015 1.79 1.336l-.56-.158c1.08.659.91.969 1.33 1.566-.06-.259-.18-.648.28-.4.31.203-.03.35.18.643.42-.361 1.3 0 1.75.727a.492.492 0 0 1-.09.069.257.257 0 0 1-.11.032c.22.068.39.034.57.366l-.57.321h.91c.25.429 1.06.564.73.812l-.27-.085 2.5 2.479-.29.395c.71-.259 1.24 1.476 1.72.783.18.783 2.15 1.532 1.22 1.955.38.366.78.698 1.22.992.39.287.78.563 1.18.822a9.709 9.709 0 0 1 2.43 2.333c.07.637.64 1.386 1.34 2.141.35.378.74.755 1.13 1.127.39.372.71.749 1 1.093l3.54 3.059c.56.485 1.13.958 1.69 1.482l1.79 1.741c.57 2.367 3.89 3.781 4.84 6.018l.75.214c.34.89.87 1.693 1.56 2.35.35.394.71.805 1.04 1.245.32.456.59.952.78 1.476.28.162.54.35.78.563-.04-.09-.07-.259.12-.473.22.614 1.18 1.465.68 1.736l-.14-.091c-.51.265 1.34 1.336 1.37 2.175l.25-.659.63.997-.28-.18a16.101 16.101 0 0 1 3.89 4.851c.47.778.89 1.572 1.43 2.378.61.896 1.32 1.717 2.12 2.445-.9-.174.81.603.24 1.043-.11 1.487 1.33 1.791 2.06 2.513a.18.18 0 0 1 .08-.019c.02 0 .05.006.07.019l.83 1.521c-1.31-.417 1.3.682.14.265.46 1.042.98 2.141 1.58 3.262.59 1.121 1.27 2.254 1.93 3.42l1.96 3.561a42.943 42.943 0 0 1 1.69 3.617l.1-.309c.27.602.66 1.245.98 1.87.31.552.51 1.153.6 1.775.07 1.065 1.45 1.752 1.65 2.096.8.851.45 2.09.3 1.64.56 1.036 1.78 1.735 2.03 3.38-.26.4.32 1.369.87 2.288.54.918 1 1.797.6 1.966h.08c.12 1.031.43 2.03.92 2.947.5.95.81 1.99.91 3.06a.724.724 0 0 1-.15-.079c1.25 1.2 2.52 2.445 3.69 3.752.85-.614 1.69-1.29 2.5-1.966.22-.772.42-1.561.6-2.344.18-.783.37-1.572.57-2.361a135.424 135.424 0 0 0-4.27-10.57c-.42-1.454-.88-2.891-1.31-4.344-.44-1.454-.97-2.868-1.45-4.305a181.481 181.481 0 0 0-10.61-19.106l-1.36-.986c-.67-2.113-2.07-4.13-3.5-6.17-1.43-2.04-3.06-3.978-4.07-6.108l-.51.259c-.81-1.019-.48-1.155-.56-1.47-1.86-2.389-3.73-4.806-5.74-7.083-.99-1.126-1.98-2.298-2.96-3.448l-3.04-3.324c-1.02-1.127-1.99-2.22-3-3.291-1.01-1.07-2.01-2.124-2.99-3.177l-2.88-3.156c-.96-1.014-1.9-2.034-2.81-3.048-.5-.992-2.9-3.099-3.25-3.944-1.54-.959-3-2.032-4.38-3.212-1.39-1.166-2.71-2.422-4.05-3.566l.15.039-1.34-.991c0-.085 0-.141.08-.136-1.76-.828-3.66-3.144-5.33-4.738l.14.034a279.81 279.81 0 0 0-7.84-6.029l-7.98-5.494c-2.69-1.769-5.41-3.482-8.08-5.302-.68-.445-1.33-.918-2.02-1.358l-2.05-1.329a188.56 188.56 0 0 1-4.08-2.772c-.6-.502-1.22-.981-1.88-1.448-.66-.479-1.34-.923-2.04-1.33-1.43-.834-2.93-1.629-4.45-2.429-1.53-.8-3.08-1.617-4.61-2.484-1.52-.868-3.1-1.691-4.57-2.694-.45-.563-3.89-2.389-7.4-4.096-3.58-1.572-7.16-3.082-7.79-3.234z" fill="#4C74EE"/><path d="M1233.92 578.752h.05c.09-.225-.02-.146-.05 0zm24.03 17.715-.08-.045.16.445-.08-.4zm-16.91-7.533c.73.394.8.355.72.225a1.923 1.923 0 0 0-.72-.225zm-13.72-12.261c-.41-.174-.3 0-.12.26l.74.236c-.22-.141-.4-.332-.62-.496zm.53 3.651-.2.13c.26.051.28-.017.2-.13zM565.024 722.475c.074-.119.068-.198 0 0zm-4.666 105.555c0 .045 0 .062.034.101.116.032.229.074.338.124l-.372-.225zm5.411 16.52v.107c.073-.033.14-.045 0-.107zm-13.281-55.69a.494.494 0 0 0-.068-.293c.032.095.055.193.068.293zm27.598-94.585-.034.073c.051-.044.105-.084.163-.119l-.129.046zm-.04.4c-.287.276-.073-.175 0-.327a2.5 2.5 0 0 0-.8 1.009c.147.095.586-.598.8-.682zm39.976-42.641-.096.157a.703.703 0 0 0 .096-.157zm-75.986 138.995c0-.09-.04-.192-.062-.276a.562.562 0 0 0 .062.276zm68.661-133.406.096.276a.354.354 0 0 0-.096-.276zM560.73 828.255l.141.085a.576.576 0 0 0-.141-.085zm12.048 30.781a.378.378 0 0 0-.141.175v.045l.141-.22zm53.155 61.9a.396.396 0 0 0 0-.119h-.389c.121.064.253.104.389.119zm-41.994-42.709h.124a17.38 17.38 0 0 0-1.515-2.203l-.321.135c.546.71 1.143 1.381 1.712 2.068z" fill="#4C74EE"/><path d="m594.516 902.128-1.28-2.254c5.86 5.364 8.199 8.345 13.816 12.233l-.383-.124c.332.372.851.355 2.192 1.279.98.661 1.912 1.392 2.789 2.186.603.563 1.273 1.178 2.051 1.916.777.738 1.69 1.572 2.648 2.558l-.04.056c.36.145.674.382.913.687l-1.307-1.442a33.857 33.857 0 0 1 3.291 1.628c.225.243.236.417.202.524l3.144 1.978c.243.327.474.671.722.986 1.093.389 1.126-.67 3.453 1.347-.642-1.127 1.477.45 1.325 0 .09.152.321.434.507.67 1.594.828 4.625 2.327 5.51 2.446 0 0-1.363-1.161-2.873-2.502a35.16 35.16 0 0 1-3.742-3.702c2.034 1.448.603.276.299-.163l-.225.05c-1.189-.912-.975-1.256-1.55-1.735a.269.269 0 0 0 0 .113h.113c0 .095-.04.118-.13.112-.034.085-.129.102-.462-.129h.09a14.388 14.388 0 0 1-1.791-1.206l.18-.287c-.631-.034-2.057-1.251-3.431-2.581-1.375-1.33-2.694-2.817-3.285-3.251-.947-1.189-2.699-1.899-4.04-3.172-1.127-.924-1.336-1.262-1.386-1.493a1.348 1.348 0 0 0-.423-.947c-1.285-1.318.04.564-.563.102l-1.398-1.753c1.009.772.603.175.507-.073-1.453-1.211-3.245-3.679-4.141-3.538-1.69-1.91-1.504-2.141-2.254-2.902.186.338.637.918.564 1.02-.564-.913-.406-.276-.147.056-.67-.423-1.938-2.028-3.121-3.476s-2.203-2.818-2.586-2.688l.095-.096c-.647.135-.619.924-1.611.372l-.338-.687a27.441 27.441 0 0 1-.93-.626c-.372-.659 0-.501.028-.563a17.143 17.143 0 0 1-2.141-2.203c-.36-.423-.726-.862-1.076-1.302-.349-.439-.693-.896-1.031-1.313.13.902.242 1.832.395 2.727-.975-1.6-2.592-4.558-3.206-4.507-.119-.383-.22-.772-.322-1.166-1.56-3.449-1.938-1.691-2.637-3.026a31.167 31.167 0 0 1-.704-1.786c.361.49.733.969 1.127 1.437a27.793 27.793 0 0 1-1.797-3.663c.045.096.062.164.039.192l-.163-.192c-.35 0-1.082-.648-1.837-1.69-.98-1.533-2.175-2.445-3.336-5.172l-.867-.293-.924-2.006.377-.248c.564.89 1.437 2.169 2.395 3.471.958 1.301 1.983 2.636 2.817 3.746l.191-.084c-.94-1.319-2.169-2.71-2.755-3.612-.242-.467-.563-1.848.203-1.217l-.918-.563c-1.499-2.254-2.305-3.347-2.964-4.57a48.507 48.507 0 0 1-1.076-2.017c-.4-.789-.89-1.724-1.46-3.02l.046.564c-.665-.908-1.33-1.815-1.167-2.254a40.75 40.75 0 0 1-2.13-4.508 37.284 37.284 0 0 1-.783-2.09 15.94 15.94 0 0 1-.479-1.837l-.687-.197c-.282-.659 0-1.961-.84-1.955-.287-.423-.597-.84-.867-1.274-.355-.907-.874-1.335-1.043-2.473v-.214a.097.097 0 0 0-.039.028c-.671-2.107-.44.214-1.127-2.254.045-.896-.958-.563-1.307-1.769l.248-1.431c-.434-2.215-1.234-2.316-2.35-5.353-.282-1.549.13-2.468.986-1.69-1.127-1.127-.631-.457-1.521-2.13.186-.361.304-.192.676.124-.186-1.69-.563-.89-.93-2.085-.625-.186-1.589-.327-1.729-.71v.513a10.926 10.926 0 0 1-1.347-4.13h.276c-.191-.518-.394-1.031-.563-1.555l.315-.186-.67-2.254v.338a15.78 15.78 0 0 1-.795-3.313h.197a13.763 13.763 0 0 0-.749-4.124c-.214-.671-.434-1.352-.625-2.085-.192-.732-.4-1.499-.564-2.344l.462.378c.186-1.212-.653-.214-.698-1.617l.467-.147c-.839-1.127-.096-1.583 0-2.451l-.563.485-.085-1.595c-.034-1.758.648-1.161 1.009-.958l-.659-1.127.524-.298c-.75-.783 0-.874-.491-2.339.198-.146.355.22.395-.298l-1.048-2.406.507 1.465-.834-.101a3.244 3.244 0 0 1-.406-1.775 3.762 3.762 0 0 0 0-1.465l.293.755c-.321-1.82 0-1.944.13-2.986-.13.326-.321.833-.479.095-.085-.563.265-.31.321-.828-.276-.045-.507-.394-.653-.885a4.091 4.091 0 0 1-.046-1.724c.041.002.08.013.115.033a.25.25 0 0 1 .088.08 1.429 1.429 0 0 1-.129-.992l.62.288-.615-.998c.147-.687-.326-1.69.085-1.588l.135.383v-1.291l.04-1.29.084-2.575.485-.067c-.333-.26-.271-.958-.22-1.572.051-.615.118-1.127-.299-1.077.502-.952-.141-3.837.772-3.217.175-3.38-.473-5.257.361-9.308a5.23 5.23 0 0 0 .563-1.454c.189-.675.341-1.359.457-2.051.264-1.487.456-3.127.687-4.423.316-2.552.563-4.659.828-6.761.265-2.101.727-4.226 1.223-6.823.952-1.386 1.437-3.296 1.842-5.268.107-.49.209-.986.316-1.477.107-.49.253-.963.394-1.431.255-.89.603-1.751 1.037-2.569l-.113-1.031a16.835 16.835 0 0 0 1.691-3.764c.264-.727.563-1.487.856-2.254.158-.366.333-.738.518-1.098.2-.355.42-.697.66-1.026.066-.461.168-.917.304-1.363a.498.498 0 0 1-.53.242c.564-.755 1.065-2.547 1.522-2.192l-.04.237c.231.175.445-.485.71-1.279a5.177 5.177 0 0 1 1.082-2.051l-.789.242.851-1.504-.102.462c1.003-3.685 2.491-6.006 3.877-8.283.715-1.127 1.471-2.22 2.175-3.459.355-.62.698-1.279 1.037-1.989.338-.71.715-1.448 1.059-2.254.051 1.127.456-1.364 1.127-1.054 1.69-1.025 1.634-2.862 2.253-4.214-.033 0-.056-.056-.056-.158l1.516-2.068c-.062.891.039.4.146-.107.107-.507.22-1.031.124-.242 1.127-1.245 2.254-2.654 3.381-4.141 1.127-1.488 2.349-3.02 3.578-4.581a102.68 102.68 0 0 1 7.809-9.015l-.406.09c.688-.704 1.375-1.561 2.079-2.333a11.313 11.313 0 0 1 1.837-1.944c1.285-.822 1.877-2.727 2.254-3.166.879-1.448 2.513-1.893 1.978-1.437 1.194-1.273 1.808-3.031 3.865-4.389 1.127 0 4.507-4.947 5.122-4.31v-.074c2.755-1.527 4.411-4.158 7.42-5.719a.723.723 0 0 1-.067.203c1.29-2.056 2.625-4.09 4.062-6.074a95.84 95.84 0 0 0-3.262-1.296c-2.13.519-4.249 1.127-6.367 1.691a178.746 178.746 0 0 0-12.469 11.083c-3.454 2.772-6.874 5.634-10.142 8.637-3.685 3.944-7.246 8.029-10.593 12.278-.856 1.042-1.645 2.141-2.473 3.211a79.489 79.489 0 0 0-2.418 3.257l-2.355 3.302-2.253 3.38c-.248.761-.519 1.51-.75 2.254a34.273 34.273 0 0 0-3.099 4.029c-.98 1.476-1.848 3.099-2.755 4.71l-.671 1.217-.636 1.24c-.421.822-.851 1.637-1.29 2.445-.429.811-.896 1.589-1.33 2.372a34.499 34.499 0 0 1-1.347 2.254l.44.372c-.817 1.752-1.077 1.487-1.375 1.876a154.312 154.312 0 0 0-9.072 25.558 244.098 244.098 0 0 0-5.071 25.214c-.507 1.521-.811 6.282-1.183 7.493.406 5.319.231 10.88.434 16.154l-.068-.191c.068.822.102 1.651.209 2.473-.039.107-.107.124-.152.051.34 1.669.51 3.368.507 5.071.101 1.882.135 3.848.208 5.572l-.078-.191a150.853 150.853 0 0 0 6.321 28.589 255.26 255.26 0 0 0 10.756 27.079 54.51 54.51 0 0 0 3.099 6.496c.609 1.082 1.223 2.175 1.877 3.262l2.067 3.24a58.24 58.24 0 0 0 1.065 1.634l1.127 1.617c.733 1.082 1.476 2.17 2.215 3.268 1.538 2.147 2.986 4.378 4.473 6.587.366.941 3.888 5.634 7.86 9.962.49.563.969 1.126 1.465 1.622l1.482 1.527c.969.992 1.876 1.938 2.71 2.744 1.685 1.589 2.941 2.733 3.325 3.02z" fill="#4C74EE"/><path d="m619.408 921.393-.068-.04c-.129.197.023.192.068.04zm-28.257-33.278.085.107-.085-.597v.49zm19.721 18.678c-.896-.834-.98-.823-.907-.642.271.254.577.47.907.642zm17.534 19.749c.563.349.417.101.163-.231l-1.003-.563c.288.247.541.546.84.794zm-.642-4.152.271-.057c-.35-.163-.378-.107-.271.057zm616.136-69.034c-.08.113-.07.192 0 0zm10.65-101.74a5.651 5.651 0 0 0-.03-.096 3.211 3.211 0 0 1-.33-.129l.36.225zm-4.58-16.165v-.107c0-.039-.13.039 0 .107zm10.16 54.411c-.02.099 0 .201.05.288a1.4 1.4 0 0 1-.05-.288zm-32.58 89.796.04-.062c-.05.035-.11.067-.17.096l.13-.034zm.07-.383c.3-.237.06.18-.03.321a2.2 2.2 0 0 0 .85-.918c-.14-.108-.6.535-.82.597zm-42.51 37.153.11-.146a.834.834 0 0 0-.11.146zm83.61-128.155c0 .085 0 .186.03.271a.622.622 0 0 0-.03-.271zm-75.89 123.648-.08-.282c0 .05 0 .1.01.148.02.049.04.094.07.134zm61.34-160.53-.14-.09a.54.54 0 0 0 .14.09zm-10.62-30.127a.427.427 0 0 0 .15-.175v-.039l-.15.214zm-49.77-61.765a.217.217 0 0 0 0 .113l.38.028a1.117 1.117 0 0 0-.38-.141zm39.38 42.906h-.12c.4.766.87 1.495 1.4 2.181l.32-.135-1.6-2.046z" fill="#4C74EE"/><path d="M1223.61 678.819c.39.738.8 1.454 1.17 2.203-1.37-1.352-2.57-2.513-3.62-3.617l-2.98-3.031a53.276 53.276 0 0 0-2.91-2.789c-.52-.462-1.05-.93-1.62-1.409-.57-.479-1.2-.941-1.87-1.437l.37.13c-.31-.372-.81-.361-2.09-1.307-1.27-.947-3.31-2.818-6.94-6.762l.04-.056a2.15 2.15 0 0 1-.86-.699l1.21 1.454a26.252 26.252 0 0 1-3.13-1.69c-.21-.248-.21-.423-.17-.524-.99-.676-1.96-1.375-2.97-2.023l-.65-.997c-1.04-.44-1.13.603-3.29-1.471.56 1.127-1.43-.49-1.31 0-.09-.146-.3-.428-.47-.67-1.5-.908-4.42-2.468-5.37-2.603l.25.208c.16.135.38.327.63.563.52.462 1.2 1.099 1.91 1.792a35.769 35.769 0 0 1 3.46 3.787c-1.9-1.499-.56-.288-.3.157l.22-.045c1.13.947.88 1.279 1.4 1.786a.236.236 0 0 0 0-.118h-.1c0-.101.05-.118.13-.107.04-.079.13-.102.44.146h-.09c.59.373 1.16.786 1.69 1.234l-.19.282c.61.062 1.93 1.302 3.19 2.682.62.693 1.26 1.397 1.78 1.995.39.463.81.904 1.24 1.318a7.29 7.29 0 0 0 1.76 1.583c.73.498 1.41 1.064 2.04 1.691 2.1 1.91.76 1.301 1.64 2.451 1.2 1.329 0-.536.57-.085l1.29 1.758c-.96-.783-.57-.186-.51.062 1.34 1.262 3.02 3.691 3.9 3.572 1.56 1.961 1.37 2.158 2.1 2.919-.16-.333-.56-.907-.5-1.009.5.907.39.276.15-.05.65.417 1.84 2 2.91 3.487 1.06 1.488 2.09 2.789 2.46 2.665l-.1.091c.64-.119.65-.908 1.59-.333l.3.687.9.62c.35.648 0 .491-.05.536.36.298.71.622 1.03.969.33.377.67.789 1 1.217.67.856 1.34 1.769 1.99 2.586l-.31-2.671c.45.795 1.08 1.893 1.63 2.817.56.924 1.07 1.657 1.37 1.64l.28 1.127c.24.598.55 1.165.93 1.69.16.24.37.434.63.564.37.163.63.067.95.721l.63 1.752-1.06-1.414a31.56 31.56 0 0 1 1.69 3.589c-.04-.09-.05-.158-.04-.186l.16.192c.35 0 1.03.653 1.73 1.69.94 1.487 2.11 2.378 3.13 5.071l.86.282.87 1.96-.38.243a145.39 145.39 0 0 0-4.93-7.077l-.19.079c.9 1.29 2.11 2.631 2.62 3.544.2.479.51 1.82-.25 1.2l.89.563c.72 1.127 1.28 1.91 1.69 2.615.41.704.76 1.284 1.08 1.876.32.592.63 1.2 1 1.972.19.383.4.806.63 1.29l.71 1.691v-.524c.63.884 1.26 1.78 1.08 2.214.37.733.74 1.471 1.08 2.209.34.738.6 1.493.87 2.208.47 1.246.85 2.527 1.12 3.832l.67.203c.25.648-.08 1.915.73 1.927l.8 1.256c.33.885.86 1.29.98 2.4v.214l.03-.028c.56 2.079.44-.191 1.01 2.203-.07.868.94.564 1.25 1.736l-.29 1.38c.29 2.175 1.09 2.288 2.07 5.263.21 1.504-.22 2.377-1.06 1.6 1.05 1.127.6.462 1.4 2.107-.2.349-.31.175-.66-.135.09 1.628.5.879.8 2.051.61.197 1.55.372 1.69.749l.04-.501c.32.604.59 1.236.8 1.887.21.705.32 1.431.34 2.164h-.27l.46 1.527-.31.175.56 2.203v-.327c.08.259.25.811.39 1.425.12.6.18 1.209.2 1.82h-.2c-.16 2.891 1.08 5.071 1.44 8.362l-.44-.389c-.27 1.166.64.242.57 1.606l-.48.112c.76 1.127 0 1.539-.12 2.367l.56-.434c0 .513.04 1.025 0 1.544-.11 1.69-.74 1.087-1.08.868l.56 1.126-.56.26c.69.8-.07.839.36 2.287-.2.13-.34-.231-.4.265l.92 2.389-.43-1.448.83.146c.72 1.51 0 2.074.22 3.161l-.25-.749c.22 1.78-.13 1.876-.3 2.879.15-.31.37-.789.48-.067.05.529-.28.287-.37.788.56.119.82 1.409.53 2.564a.262.262 0 0 1-.11-.038.588.588 0 0 1-.09-.08c.15.3.17.645.07.963l-.6-.321.57 1.009c-.18.653.23 1.633-.18 1.532l-.11-.383c-.12 1.69-.3 3.324-.44 4.981l-.49.034c.67.563-.51 2.676.35 2.591-.56.891-.05 3.73-.92 3.071-.52 3.223.19 5.122-.97 8.976-.3.414-.53.877-.67 1.369-.22.641-.41 1.293-.56 1.955-.36 1.42-.6 3.009-.98 4.232-.21 1.234-.41 2.355-.59 3.425-.19 1.071-.42 2.074-.62 3.094-.21 1.019-.41 2.039-.69 3.104-.28 1.065-.56 2.198-.9 3.431-.99 1.291-1.6 3.105-2.1 4.993-.5 1.887-1.13 3.786-2 5.206 0 .338.03.67.04 1.003a12.888 12.888 0 0 0-1.86 3.549 18.186 18.186 0 0 1-2.26 4.085c-.07.447-.19.885-.35 1.307a.513.513 0 0 1 .57-.197c-.57.693-1.21 2.389-1.65 2.017l.06-.225c-.45-.389-1 2.502-1.94 3.11l.8-.174-.92 1.403.12-.446c-1.19 3.499-2.76 5.669-4.25 7.776a40.27 40.27 0 0 0-4.62 7.195c0-1.127-.51 1.296-1.13.947-1.75.828-1.78 2.636-2.46 3.944.02 0 .05.062.04.157-.52.648-1.08 1.251-1.63 1.871.24-1.69-.56 1.848-.28.316-1.17 1.126-2.33 2.422-3.58 3.735-.62.665-1.24 1.351-1.86 2.057-.63.698-1.29 1.38-1.94 2.085l-1.98 2.124-2.06 2.056c-1.36 1.386-2.82 2.66-4.24 3.86l.4-.051c-1.41 1.268-3.05 2.986-4.38 3.64-1.33.654-2.06 2.445-2.47 2.817-1 1.302-2.61 1.561-2.06 1.172-1.25 1.127-2.07 2.71-4.16 3.832-.53-.057-1.76.974-2.91 1.983-1.14 1.008-2.25 1.932-2.5 1.577v.074c-1.38.59-2.66 1.369-3.81 2.315-1.23.943-2.58 1.72-4.01 2.311a.686.686 0 0 1 .08-.192c-.72.952-1.49 1.842-2.25 2.755l-2.32 2.739c1 .563 2.01 1.126 3.03 1.645 2.1-.242 4.24-.485 6.35-.845 4.6-2.857 9.05-5.955 13.33-9.28l2.74-1.736c.93-.563 1.8-1.211 2.7-1.814.9-.603 1.8-1.217 2.68-1.842l2.63-1.933 1.5-1.296 1.45-1.347c.96-.901 1.94-1.791 2.89-2.704 1.87-1.865 3.76-3.696 5.54-5.634 1.77-1.939 3.54-3.911 5.28-5.894.86-1.003 1.69-2.04 2.51-3.054l1.25-1.538 1.19-1.572.86-2.181a25.069 25.069 0 0 0 3.29-3.696c1.07-1.358 2.02-2.873 2.99-4.395.97-1.521 1.88-3.087 2.82-4.592.93-1.504 1.88-2.992 2.89-4.338l-.42-.4c.91-1.645 1.13-1.364 1.47-1.724a156.125 156.125 0 0 0 10.33-24.189 236.364 236.364 0 0 0 6.5-24.115c.4-1.205.69-2.444.87-3.702.14-1.185.4-2.353.77-3.488-.07-5.189.4-10.575.56-15.708l.06.191-.05-2.417c.05-.101.11-.113.16-.034a23.448 23.448 0 0 1-.22-4.952c.05-1.832.08-3.742.1-5.421l.07.192a133.382 133.382 0 0 0-4.71-28.127 207.402 207.402 0 0 0-9.55-26.724 46.776 46.776 0 0 0-2.85-6.407c-.56-1.066-1.15-2.139-1.75-3.217-.62-1.065-1.3-2.118-1.96-3.189-2.62-4.299-5.63-8.497-8.32-12.92a28.24 28.24 0 0 0-2.45-3.651c-.33-.45-.68-.941-1.07-1.431l-1.23-1.527c-.85-1.036-1.74-2.152-2.67-3.223l-2.79-3.115c-.9-1.009-1.81-1.894-2.58-2.705a71.38 71.38 0 0 0-2.01-2.011c-.54-.519-.81-.941-.99-1.105z" fill="#4C74EE"/><path d="m1200.21 659.262.07.046c.14-.209-.01-.209-.07-.046zm26.16 33.384-.07-.101.06.563.01-.462zm-18.62-18.711c.84.839.92.833.86.653a4.12 4.12 0 0 0-.86-.653zm-16.06-20.07c-.54-.372-.4-.119-.17.225l.96.564c-.29-.231-.51-.536-.79-.789zm.41 4.107-.27.045c.36.192.36.124.27-.045z" fill="#4C74EE"/><path d="M1030.15 626.093c-12.63 53.127-20.94 95.926-26.15 124.847-8.219 45.678-9.543 61.376-24.789 74.374-24.561 20.943-67.613 19.845-94.658 19.157a232.438 232.438 0 0 1-26.443-2.197c-27.107-3.798-57.471-8.052-72.16-27.102-8.248-10.705-8.705-22.385-8.355-47.036.4-28.11 1.729-65.269 5.538-109.6l-51.121 35.829c-35.322 24.758-84.431 4.975-92.731-37.356-.886-4.53-1.775-9.064-2.665-13.602l-1.95-52.203-7.606-203.464a.25.25 0 0 1 .054-.172.251.251 0 0 1 .154-.093l111.562-23.546a.26.26 0 0 1 .124.005.268.268 0 0 1 .178.164c.014.04.019.082.013.124-7.285 59.004-12.322 135.711-19.574 194.821a.265.265 0 0 0 .468.197c10.322-12.48 20.329-27.484 30.257-43.086a169.524 169.524 0 0 1 132.409-78.07l13.212-.829a.265.265 0 0 0 .237-.185l3.685-11.517c5.296-16.558 10.594-33.116 15.894-49.673 0-.079.046-.158.074-.237 2.941-9.578 8.868-19.512 19.647-29.023a23.601 23.601 0 0 1 4.006-2.862 60.593 60.593 0 0 1 30.865-7.978 58.596 58.596 0 0 1 27.389 7.516 40.046 40.046 0 0 1 17.056 18.503v.034a40.533 40.533 0 0 1 3.62 15.81c.18 7.793.88 16.211 2.85 20.256.53 1.088.83 2.986 2.49 3.381l10.7 2.631c.76.188 1.44.621 1.93 1.232a3.559 3.559 0 0 1 .08 4.322 3.59 3.59 0 0 1-1.88 1.303l-11.75 3.381a3.29 3.29 0 0 0-1.69 1.127 3.488 3.488 0 0 0-.7 1.91c-.16 1.69-.7 16.661-1.33 37.125 0 .056.01.112.04.159.04.046.08.082.14.1l29.49 10.401c21.05 7.432 47.22 33.339 56.39 60.288 3.38 9.861 16.9 49.583-8.22 78.651-24.02 27.823-63.5 22.662-66.78 22.183z" fill="#191919"/><path d="M1017.12 400.996c.68-3.988-6.29-8.506-15.57-10.092-9.279-1.586-17.353.361-18.035 4.348-.681 3.988 6.288 8.506 15.567 10.092 9.278 1.586 17.348-.361 18.038-4.348z" fill="#fff" stroke="#191919" stroke-width="2" stroke-linecap="round" stroke-linejoin="round"/><path d="M1009.09 404.773a5.07 5.07 0 1 0 0-10.14 5.07 5.07 0 0 0 0 10.14z" fill="#0F0F0F"/><path d="M513.244 976.317c40.568 38.873 18.233 32.253 104.8 78.323 50.975 27.12 111.866 28.67 154.383 40-9.178-10.6-22.233-18.24-29.806-45.17-2.817-9.92-17.331-61.603 8.497-103.483 13.1-21.248 45.745-54.812 44.185-64.638-.355-2.254-1.369-8.841-3.854-9.015h-.164a34.79 34.79 0 0 0-14.756 2.321c-10.751 4.034-87.125 10.024-162.102 41.616-27.665 11.641-57.933 23.856-101.183 60.046z" fill="#868686"/><path d="m733.55 411.748 29.716-74.785a13.932 13.932 0 0 0-7.077-17.819 13.934 13.934 0 0 0-18.171 6.116l-19.681 36.906-3.381-26.482v-58.316a14.367 14.367 0 1 0-28.735 0v47.611l-8.26 1.2-14.892-50.085a13.57 13.57 0 0 0-16.959-9.116l-.26.079a13.571 13.571 0 0 0-9.15 16.531l12.897 47.588-8.451 3.944-20.583-36.06c-4.417-6.581-12.469-9.206-18.858-6.761-7.888 3.031-12.232 13.415-7.888 22.538l33.243 72.683 106.49 24.228z" fill="#191919"/><path d="M1021.47 421.186c-7.89-2.766-16.34-5.538-24.23-8.311a25.672 25.672 0 0 0 7.42 15.777c6.8 7.009 13.06 9.015 15.82 9.578.99-6.648.49-11.223.99-17.044z" fill="#fff"/><path d="m1014.8 361.833-44.605 18.926-9.651-4.828c-9.286-4.643-20.346 2.625-19.321 12.959 0 .248.051.496.09.743.801 5.376 4.26 8.841 5.674 10.103l6.869 5.251-54.001 20.566c5.297-16.558 10.595-33.116 15.895-49.673 0-.079.045-.158.073-.237 2.942-9.578 8.869-19.512 19.648-29.023a23.561 23.561 0 0 1 4.006-2.862 60.593 60.593 0 0 1 30.865-7.978 58.596 58.596 0 0 1 27.389 7.516 40.037 40.037 0 0 1 17.059 18.503l.01.034z" fill="#FFCD6C"/><path d="M465.78 912.529c0-.096-.079-.124 0 0zm43.645 59.083.051.05c.101-.036.204-.066.309-.09l-.36.04zm7.983 8.84.034.073c.039-.056.096-.095-.034-.073zM490.6 951.717a.267.267 0 0 0-.169-.124c.063.031.12.073.169.124zm-34.061-58.852.028.045a1.09 1.09 0 0 1 0-.14l-.028.095zm.265.158c0 .27-.174 0-.236-.113-.035.301.043.605.22.851.157-.068-.057-.575.016-.738zm-10.045-38.133.084.107a.325.325 0 0 0-.084-.107zm37.89 103.053-.146-.119a.248.248 0 0 0 .146.119zm-37.288-96.912h.282a.52.52 0 0 0-.282 0zm78.059 126.977a.466.466 0 0 0-.09.197l.09-.197zm42.337 36.762a.33.33 0 0 0 .034-.1l-.299.04c.082.04.173.06.265.06zm-31.467-26.147c.034 0 .079 0 .102-.04a7.555 7.555 0 0 0-1.364-1.211l-.254.231 1.516 1.02z" fill="#4C74EE"/><path d="m544.893 1015.07-.935-1.53c2.254 1.43 3.741 2.68 5.217 3.79a35.932 35.932 0 0 0 4.959 3.14h-.288c.226.26.637.12 1.606.62.969.5 2.485 1.69 5.037 4.44l-.039.06c.225.13.293 0 .625.43l-.839-1.02c.808.2 1.594.47 2.344.83a.434.434 0 0 1 .084.44l2.152 1.21.406.78c.766.2.969-.77 2.406.74-.304-.95 1.048.2 1.014-.21.081.19.174.38.276.56 1.054.57 3.06 1.62 3.702 1.63 0 0-3.257-3.64-3.944-4.89 1.324 1.04.417.17.248-.19l-.18.08c-.767-.67-.564-1.02-.913-1.38a.362.362 0 0 0-.034.12h.079c0 .08-.045.11-.113.11-.067.01-.113.12-.332-.05h.067c-.428-.23-.835-.5-1.217-.8l.181-.3c-.491.08-1.415-.79-2.322-1.75l-1.284-1.39a7.476 7.476 0 0 0-.896-.91c-.592-.92-1.91-1.17-2.817-2.05-1.584-1.2-.564-.97-1.206-1.77-.913-.87 0 .47-.44.21l-.969-1.23c.738.45.468 0 .411-.17-1.036-.77-2.355-2.42-3.07-2.09-1.257-1.23-1.127-1.46-1.691-1.93.13.25.462.63.389.75-.389-.66-.315-.14-.124.09-1.025-.39-3.713-4.25-4.327-3.78l.085-.11c-.53.3-.525.97-1.308.78l-.253-.49-.738-.25c-.299-.44 0-.41 0-.47-1.127-.51-2.316-1.75-3.454-2.68l.349 2.13c-.394-.51-.946-1.23-1.442-1.81-.496-.59-.941-1.02-1.189-.9l-.276-.86c-1.353-2.31-1.617-.75-2.22-1.59l-.637-1.21.969.78a18.897 18.897 0 0 1-1.628-2.334c.039.056.056.107.045.135l-.147-.096c-.287.124-.912-.13-1.588-.682-.913-.839-1.967-1.087-3.088-2.817l-.738.113-.913-1.223.287-.344a59.651 59.651 0 0 0 2.254 1.815c.89.687 1.814 1.335 2.547 1.91l.158-.135c-.868-.693-2.001-1.296-2.519-1.82-.214-.299-.608-1.251.085-1.06l-.8-.101a35.094 35.094 0 0 1-5.477-5.234l.107.388c-.665-.394-1.335-.794-1.251-1.205a19.692 19.692 0 0 1-3.944-4.857l-.597.174c-.344-.355-.333-1.436-1.014-1.048l-.925-.563c-.462-.479-.974-.564-1.324-1.268a1.115 1.115 0 0 1-.062-.141.134.134 0 0 0 0 .04c-.946-1.2-.332.366-1.363-1.054-.135-.659-.902.057-1.42-.62l-.068-1.127c-.777-1.38-1.498-1.019-3.07-2.574-.564-.936-.462-1.753.445-1.691-1.178-.18-.637 0-1.781-.648.068-.338.203-.287.592-.27-.564-1.031-.682-.31-1.279-.924-.564.197-1.369.563-1.589.411l.107.355a5.276 5.276 0 0 1-2.135-2.051l.225-.158-.868-.726.203-.293-1.177-1.099.084.225a7.793 7.793 0 0 1-1.578-1.69l.158-.107c-.941-1.843-2.58-2.575-4.164-4.299h.496c-.225-.857-.597.236-1.076-.609l.338-.355c-1.031-.214-.608-.907-.8-1.493l-.304.614-.609-.901c-.625-1.037.13-1.071.496-1.127l-.913-.293.327-.479c-.879-.034-.321-.501-1.24-1.082.108-.203.367-.079.215-.406l-1.691-.828.919.564-.71.422c-1.155-.445-.845-1.194-1.505-1.651l.519.26c-.941-.851-.71-1.127-1.014-1.787 0 .265.056.671-.35.344-.265-.265.102-.338-.05-.67-.479.276-1.268-.248-1.578-1.043a.323.323 0 0 1 .208-.062c-.203-.107-.377-.107-.501-.467l.608-.209-.89-.191c-.163-.462-.935-.722-.563-.93l.259.135-2.057-3.026.361-.332c-.744.124-.941-1.69-1.544-1.093-.028-.8-1.82-1.91-.823-2.147a9.255 9.255 0 0 0-1.014-1.205c-.332-.361-.665-.688-1.003-1.032a9.637 9.637 0 0 1-1.944-2.749c.046-.637-.371-1.482-.918-2.355a22.75 22.75 0 0 0-.873-1.319c-.31-.434-.564-.867-.778-1.262-1.093-1.386-1.994-2.524-2.896-3.674-.451-.563-.913-1.126-1.38-1.774l-1.426-2.046c-.118-2.434-3.104-4.44-3.617-6.823l-.693-.349a6.349 6.349 0 0 0-1.088-2.598c-.27-.456-.563-.929-.788-1.425a6.374 6.374 0 0 1-.491-1.6 5.106 5.106 0 0 1-.653-.71c0 .095 0 .264-.214.434-.096-.643-.874-1.657-.333-1.826l.119.118c.563-.169-1.065-1.572-.936-2.4l-.372.597-.428-1.093.242.231a16.106 16.106 0 0 1-2.907-5.499c-.31-.851-.563-1.69-.952-2.603-.426-1-.969-1.945-1.617-2.817.851.343-.682-.744-.04-1.065.378-1.448-.974-2.017-1.555-2.857a.183.183 0 0 1-.146 0l-.53-1.651c1.212.659-1.127-.907-.09-.281a49.841 49.841 0 0 0-.924-3.505c-.361-1.211-.823-2.451-1.257-3.724-.433-1.274-.833-2.575-1.25-3.866-.417-1.29-.716-2.597-.998-3.87l-.163.276c-.152-.643-.406-1.341-.609-2.018a5.316 5.316 0 0 1-.253-1.853c.129-1.06-1.088-1.995-1.217-2.372-.626-.986-.051-2.141 0-1.691-.338-1.127-1.42-2.039-1.347-3.718.327-.344-.056-1.403-.422-2.406-.367-1.003-.648-1.961-.226-2.051h-.073a8.364 8.364 0 0 0-.349-3.065 8.115 8.115 0 0 1-.316-3.178.64.64 0 0 1 .13.107c-1.003-1.414-2.006-2.874-2.908-4.378-.957.439-1.898.947-2.817 1.454a78.04 78.04 0 0 0-1.025 2.192c-.327.732-.665 1.476-.975 2.214.563 3.803 1.318 7.516 2.197 11.19.136 1.504.316 3.003.474 4.507.157 1.505.4 2.998.597 4.508a181.961 181.961 0 0 0 6.942 20.796l1.155 1.223c.259 2.203 1.256 4.446 2.253 6.716.998 2.271 2.254 4.508 2.818 6.762l.563-.158c.603 1.127.248 1.222.304 1.555 1.375 2.699 2.75 5.42 4.299 8.04l2.254 3.944 2.361 3.843c.783 1.268 1.532 2.552 2.316 3.798.783 1.245 1.577 2.462 2.338 3.685l2.254 3.634a134.202 134.202 0 0 1 2.18 3.527c.299 1.065 2.254 3.589 2.446 4.468a36.896 36.896 0 0 1 3.696 3.978c1.127 1.414 2.197 2.89 3.296 4.271l-.13-.068 1.127 1.228c0 .085-.039.136-.107.119 1.572 1.127 3.003 3.775 4.339 5.634l-.136-.062a267.773 267.773 0 0 0 6.57 7.398l6.801 6.908c2.304 2.254 4.648 4.434 6.93 6.727a84.122 84.122 0 0 0 1.724 1.691l1.758 1.69a127.845 127.845 0 0 1 3.494 3.493c.49.603 1.014 1.195 1.566 1.775.554.596 1.141 1.16 1.758 1.691 1.239 1.087 2.563 2.146 3.91 3.222 1.347 1.077 2.716 2.167 4.057 3.317 1.341 1.14 2.721 2.25 3.978 3.5.338.62 3.38 3.08 6.491 5.42 3.2 2.32 6.434 4.48 7.02 4.74z" fill="#4C74EE"/><path d="M562.663 1026.25h-.045c-.13.17-.011.14.045 0zm-20.249-21.94.067.07-.073-.47.006.4zm15.179 10.6c-.648-.53-.71-.5-.665-.36.196.16.422.28.665.36zm11.167 14.62c.366.26.293.05.157-.23l-.676-.37c.186.18.327.42.519.6zm.158-3.68.22-.09c-.242-.1-.276-.04-.22.09z" fill="#4C74EE"/><path d="m1021.47 611.77 3.29 121.991a64.571 64.571 0 0 0 12.52 36.474 64.531 64.531 0 0 0 31.09 22.817l.43.146c17.68 4.564 29.78 2.113 37.18-.563 45.93-16.605 49.59-92.055 90.16-263.127a3349.637 3349.637 0 0 1 16.9-68.177l25.99 3.139c7.07.85 9.18-4.091 9.93-5.1 2.99-4.017 3.29-10.271.3-14.931a13.893 13.893 0 0 0-7.78-5.634l-27.31-8.463c-2.31-8.914-.8-12.785 1.12-14.65 8.08-7.831 32.06 11.399 44.51 1.691.2-.147 4.65-3.725 5.08-9.252.38-5.009-2.66-10.142-7.94-14.013a16.428 16.428 0 0 0-6.12-2.715l-24.68-5.573-24.93 5.071a216.265 216.265 0 0 0-30.11 13.737c-14.21 7.848-34.37 19.478-47.08 38.1-16.11 23.529-6.73 38.68-18.6 82.262a237.882 237.882 0 0 1-19.72 49.583l-14.84-36.691-49.39 73.878z" fill="#191919"/><path d="m1225.47 365.454-50.28-5.916a6.238 6.238 0 0 0-6.93 5.466l-12.5 106.242a6.244 6.244 0 0 0 5.47 6.924l50.28 5.916a6.25 6.25 0 0 0 6.93-5.466l12.5-106.242a6.243 6.243 0 0 0-5.47-6.924z" fill="#FFCD6C"/><path d="m1224.71 371.808-50.27-5.914-11.82 100.534 50.26 5.914 11.83-100.534zm-38.15 105.863c1.55 0 2.81-1.261 2.81-2.817a2.815 2.815 0 1 0-5.63 0 2.817 2.817 0 0 0 2.82 2.817z" fill="#fff"/><path d="M804.695 1095.96c-.225-.05-.344-.03 0 0zm176.735 11.17h.174c.106-.11.221-.21.344-.29l-.518.29zm28.46-.87h.17c-.01-.05.01-.12-.17 0zm-94.129 1.39a1.346 1.346 0 0 0-.49.03c.162-.02.326-.03.49-.03zm-162.716-20.25h.124l-.287-.13.163.13zm.603-.09c.603.21-.203.13-.479.09.649.28 1.337.45 2.04.51.028-.17-1.285-.4-1.561-.6zm-92.681-22.57h.293-.293zm257.211 51.57h-.434c.144.03.29.03.434 0zm-243.024-46.96.237-.22c-.169.06-.225.15-.237.22zm306.794 37.48.203-.12a.854.854 0 0 0-.203.12zm54.122-3c.03.08.09.15.17.19h.07l-.24-.19zm128.47-31.78a.185.185 0 0 0-.12-.07l-.38.42c.18-.1.34-.22.5-.35zm-92.65 27.33c0-.04.1-.09.1-.12-.62 0-2.22.34-4.26.71l-.07.36c1.41-.3 2.83-.62 4.23-.95z" fill="#4C74EE"/><path d="m1112.45 1097.59-3.94.44 14.6-4.51c4.45-1.36 8.81-2.97 13.08-4.81l-.51.35c.77-.2 1.22-.75 3.58-1.8 1.18-.51 2.82-1.2 5.24-2.04 1.2-.41 2.58-.91 4.19-1.44l5.51-1.81v.06c.52-.32 1.09-.56 1.69-.7-.97.29-1.95.56-2.92.84.79-.44 1.51-.9 2.3-1.37.88-.55 1.79-1.06 2.72-1.51.5-.15.71-.1.81 0 1.75-.86 3.49-1.78 5.24-2.66l1.8-.43c.75-.51.84-.88 1.3-1.34.46-.45 1.31-.99 3.55-1.9-1.9.29 1.92-1.46 1.24-1.47.25-.04.79-.19 1.23-.31 1.23-.74 3.01-1.77 4.57-2.79 1.2-.74 2.35-1.56 3.45-2.45l-1.7.71c-1.01.42-2.38 1.02-3.86 1.6-1.48.57-3.05 1.2-4.44 1.69-1.39.49-2.6.88-3.34 1.08 3.6-1.69.89-.56.1-.39l-.16.27c-2.18.96-2.38.56-3.49 1.03 0 .03.07.05.12.07l.11-.12c.13 0 .1.09 0 .18.07.06 0 .18-.59.45l.09-.09c-1.01.55-2.05 1.06-3.11 1.51l-.16-.3c-.7.53-1.48.96-2.32 1.25-1.12.48-2.56.97-4 1.46s-2.93.94-4.17 1.34c-1.25.4-2.25.73-2.82.95-1.26.34-2.49.81-3.65 1.4-1.3.63-2.64 1.18-4 1.65-4.43 1.62-2.38.39-4.68.98-2.82.86.7.16-.4.6l-3.48.79c1.91-.75.8-.57.4-.57-.72.25-1.55.51-2.41.76l-2.56.74c-1.63.49-2.98.98-3.32 1.44-4 1-4.09.74-5.78 1.24.59-.06 1.75-.31 1.8-.18-1.69.21-.73.31-.06.17-1.16.51-4.35 1.24-7.33 1.85-2.97.61-5.66 1.19-5.81 1.63l-.04-.13c-.41.7.65.96-.96 1.74l-1.2.07-1.64.7c-1.19.14-.67-.16-.69-.22-2.71 1.01-6.67 1.72-10.08 2.46l3.95.57c-1.47.18-3.55.42-5.3.69-1.76.27-3.21.53-3.44.84l-1.84-.1c-5.97.31-3.94 1.31-6.3 1.5l-3.02.07 2.89-.57c-2.94.33-4.13.4-6.5.49h.29l-.4.09c-.29.34-1.76.84-3.8 1.19-2.92.46-5.12 1.28-9.86 1.48l-1.06.75-3.55.23-.07-.45c3.42-.52 9.82-1.74 14.18-2.6l.04-.22c-1.3.24-2.67.56-3.94.82-1.28.26-2.44.5-3.3.63-.86.13-3.07-.04-1.57-.6l-1.53.69c-8.67 1.44-8.73 1.47-17.89 2.18l.82.12c-1.79.37-3.57.74-4.13.43-5.47.61-11.19.9-14.79.69l-.73.6c-1.16.07-2.97-.57-3.47.23l-2.46.45c-1.58.09-2.53.48-4.36.31l-.35-.03v.04c-3.6.03.08.47-4.06.47-1.35-.27-1.41.77-3.42.79l-2.07-.62c-3.659-.24-4.234.59-9.507.85-2.547-.14-3.798-.76-2.147-1.4-2.254.79-1.031.5-4.068.96-.485-.27-.164-.34.501-.63-2.721-.22-1.662.33-3.707.38-.564.57-1.234 1.45-1.899 1.51l.8.14c-2.333.41-4.708.53-7.071.35l.09-.27-2.687.19-.175-.34-3.837.17.524.09c-1.849.13-3.705.15-5.556.05l.062-.2c-4.778-.56-8.711.24-14.311.24l.738-.39c-1.899-.41-.53.6-2.817.38l-.107-.48c-2.012.6-2.586-.18-3.944-.44l.631.64-2.592-.18c-2.851-.27-1.736-.84-1.313-1.16l-1.955.45-.366-.56c-1.432.62-1.415-.14-3.911.14-.197-.22.434-.32-.411-.44l-4.124.66 2.484-.26-.326.81c-2.603.56-3.494-.22-5.342-.05l1.279-.2c-3.014.1-3.161-.27-4.851-.52.518.18 1.313.43.09.49-.89 0-.467-.31-1.313-.43-.219.56-2.394.72-4.338.37a.4.4 0 0 1 .076-.12.484.484 0 0 1 .127-.07 3.73 3.73 0 0 1-1.629 0l.564-.56-1.691.5c-1.126-.23-2.755.13-2.586-.28l.637-.08-8.423-.64-.091-.49c-.873.62-4.575-.56-4.349.3-1.561-.56-6.288-.12-5.285-.98-5.522-.49-8.587.19-15.275-.85-2.327-1-8.903-1.35-13.202-1.87-8.451-.53-13.928-.84-22.537-1.62-5.032-1.73-12.96-1.25-18.408-2.65l-1.578.23c-3.589-1.22-9.347-1.18-14.413-2.65-1.295 0-1.966-.05-2.253-.08.231.06.563.2.642.49-1.442-.42-4.468-.64-4.164-1.16h.383c.305-.52-4.507-.46-6.079-1.2l.806.74-2.778-.57h.766a88.16 88.16 0 0 1-14.813-2.16 102.032 102.032 0 0 0-14.221-2.32c1.623-.36-2.299-.08-2.316-.82-2.682-1.43-5.324-.83-7.713-1.06 0 .03-.045.07-.186.1l-4.074-.91c2.62-.39-3.093.14-.699-.16-10.519-2.82-24.532-5.16-36.702-8.39l.484.35c-3.093-.78-7.02-1.45-9.279-2.39-2.26-.95-5.28-.72-6.198-.92-2.671-.27-4.806-1.65-3.713-1.33-2.773-.6-5.567-.49-9.275-1.87-1.093-1.07-10.542-2.17-10.412-3.05l-.056.06c-4.654-2-9.506-2.39-14.441-4.64.103-.01.206-.01.309 0-1.865-.17-3.729-.36-5.583-.6-.919-.12-1.848-.24-2.755-.4-.451-.08-.908-.17-1.341-.27-.399-.09-.789-.2-1.167-.35-.038.33.013.68.147.99.112.35.248.69.389 1.03.287.68.602 1.35.929 2.01 2.817 2.02 5.635 3.8 8.491 5.58 8.452 2.59 16.904 4.83 25.355 6.96a779.737 779.737 0 0 0 20.025 6.1c16.497 3.94 33.068 7.48 49.712 10.64l3.691.05c9.578 3.03 22.425 4.02 32.899 6.56l.31-.52c2.998.46 2.738.77 3.465.98 27.874 4.41 56.784 7.22 82.015 10.09 2.406.56 9.849.96 11.736 1.49 8.283-.06 16.999.49 25.248.95l-.316.04 3.894.08c.163.05.18.12.05.16 4.412-.3 11.269.44 16.673.78l-.316.05c15.692.45 30.837.18 45.932-.46 15.094-.65 30.128-1.69 45.688-2.88 7.26-.28 15.06-1.31 23.1-2.58 8.04-1.27 16.28-2.82 24.54-4.04 1.56 0 10.61-1.77 19.54-4.05 4.47-1.12 8.91-2.36 12.4-3.38 3.48-1.02 6.02-1.85 6.71-2.13z" fill="#4C74EE"/><path d="m1158.78 1079.27-.11.05c.1.22.24.06.11-.05zm-67.42 16.54.21-.04-.87-.13.66.17zm41.92-13c-1.88.61-1.94.7-1.65.69.57-.19 1.12-.42 1.65-.69zm39.98-11.39c.93-.5.51-.42-.11-.26-.93.56-1.59.9-1.59.9.55-.23 1.14-.39 1.7-.64zm-5.3-.81.2-.32c-.52.34-.47.39-.2.32z" fill="#4C74EE"/><path d="m1119.51 483.801 31.55-34.302 26.98-29.603c5.07-5.59 13.4-7.134 19.99-3.426l.64.377c.24.147.46.299.69.451 7.2 4.93 8.07 15.275 2.07 21.619l-23.33 24.668-18.62 43.424-39.97-23.208z" fill="#191919"/><path d="m1154.66 364.87-14.31-15.1-10.91-37.564a11.208 11.208 0 0 0-2.04-3.884 11.038 11.038 0 0 0-7.58-4.045c-1.47-.134-2.95.027-4.36.474l-38.63 12.294c-1.54.49-2.95 1.31-4.14 2.402a10.948 10.948 0 0 0-2.73 3.923c-.62 1.491-.9 3.099-.83 4.71.08 1.611.5 3.188 1.25 4.618l10.63 20.391a11.102 11.102 0 0 0 4.68 4.684c2 1.046 4.28 1.455 6.52 1.17l36.88-4.665 23.89 12.801a1.401 1.401 0 0 0 1.77-.392c.2-.265.3-.593.29-.925a1.417 1.417 0 0 0-.38-.892zm57.92-15.021.72-11.049-6.57-39.441a8.41 8.41 0 0 1 .29-3.891 8.26 8.26 0 0 1 2.05-3.322 8.258 8.258 0 0 1 3.35-2.006 8.215 8.215 0 0 1 3.89-.241l47.72 8.508c1.09.192 2.12.6 3.04 1.197a8.283 8.283 0 0 1 2.33 2.281 8.253 8.253 0 0 1 1.26 3.008 8.324 8.324 0 0 1 0 3.261c-1.27 6.232-2.53 12.463-3.8 18.695a8.206 8.206 0 0 1-2.71 4.611 8.273 8.273 0 0 1-4.98 1.97l-34.3 1.628-8.37 15.889a2.068 2.068 0 0 1-3.92-1.098z" fill="#3B66EC"/><path d="m1086.26 326.455.14.101a.183.183 0 0 0-.05-.075c-.02-.019-.06-.028-.09-.026zm24.87-6.638v-.033c0 .005-.01.011-.01.017 0 .006.01.011.01.016z" fill="#fff"/><path d="M1086.08 330.697c1.36-.197 1.86.299 3.16-.298.67-.169 1.32-.399 1.95-.688.18-.563.83-.225 1.09-.704l.2.22c.09-.164.21-.293.37-.18v.073c.13-.243.37-.181.43-.304v.078l.22-.09v.119c.11-.131.25-.233.41-.299.15-.065.33-.093.5-.079l-.11-.31c.71.186.77-.529 1.44-.259v.079c.49-1.02 1.27.27 1.8-.716-.06.124.08.152.09.231.32-.18.67-.321.51-.946.24-.057.25.146.35.377-.02-.053-.02-.109-.02-.164a.444.444 0 0 1 .06-.156.292.292 0 0 1 .11-.123.384.384 0 0 1 .14-.07l-.06.13.53-.237-.25-.484c.34.067.25.603.49.406l-.11-.423c.42 0 .83.563 1.3.766 1.69-.248 3.13-1.791 4.84-1.442l.15.304c.15.456.23-.806.4-.389l.12-.259c.08.073.2.135.14.259.17 0 .16-.101.24-.27l.24.242c.71.057 1.13-.648 1.81-.715.97.377 2.35-.564 3.14-1.127 1.05-1.026 2.98.45 4.03-.682.06.056.13-.124.11-.175l1.18-.242s5.63-1.302.37-4.046v-.107c-.7-.084-1.13 0-1.41.598-.24-.609-.57.073-.74-.09v-.057c-.26.564-.9-.191-1.16.344 0-.056-.04-.231.04-.265-.25.152-.56.389-.7.028-.62.271-1.57.338-1.83 1.031v-.107c-.13.457-.29.141-.5.412 0-.045-.05-.068-.05-.085-.16.456-.74.259-.91.479l-.08-.237-.49.192h.2c.11.687-.49-.316-.75.214-.38 0-.34 1.572-.79 1.341-.09.361 0-.563-.18-.237-.1-.343.07-.248-.08-.507-.2.231-.5-.248-.76.068l-.08-.265c-.28.603-.86-.152-1.01.389-.36.338-.5-.727-.79-.085l-.27-.321c-.2 0 0 .485-.27.366-.05-.236-.31-.118-.25-.366-.56-.236-.81.761-1.6.316 0 .484-.39.298-.4.665-.07-.192-.64.135-.4-.384 0-.045.08-.05.09.029v-.282c-.48-.406-.56.451-.94.462.13.062.26 0 .22.208l-.34.051v-.242h-.51l.14.259c-.28-.079-.49-.53-.65-.068-.06.254.32.316.09.468a4.629 4.629 0 0 0-1.34-.242c.12.304 0 .321-.08.417l-.09-.271c-.33.49-.31-.563-.66-.141v-.197l.04.592c-.24.642-.36-.507-.56.343.15-.095.24.564 0 .513v-.276c-.1.085-.11.203-.2.169 0-.158-.07-.389-.23-.298v-.361l-.19.563c-.32-.214-.62.237-.82-.101 0 0-.56-.039-.56.394.04-.281-.28-.298-.27-.614-.06.321-.41.659-.65.4v-.045c-.68-.146-.91.699-1.55.468.11.304-.22.208-.04.591-.46.564-1.24-.563-1.13.75-.24.135-.38-.214-.53-.242l.05-.079c-.3.17-.62.285-.95.338-.14.169 0 .755-.37.698.04-.259-.08-.18-.19-.146.06-.056.06-.147-.13-.265a.533.533 0 0 1-.05.175v-.051c-.17.13-.12.192 0 .203.01.05.04.097.07.135-.28-.242-.56.169-.69-.22-.57.248-.89.767-1.34 1.054a.51.51 0 0 1-.05-.272c.02-.094.06-.18.13-.246l-.33.169c-.07-.293.16-.22.25-.31-.56-.361-.73.698-1.33.394l-.05.259h-.03c.01.066 0 .132-.01.196a.553.553 0 0 1-.09.176c-.13-.236-.15-.563-.39-.507-.25-.191-.51.265-.72.473.14 0 .14.158.1.265-.12.04-.25-.197-.32-.062l-.1-.343c.13.309-.23.433-.23.563-.14-.237.13-.27.11-.468l-.71.243c-.2.326.13.31.08.642-.21.13-.37.428-.69.287l.17.288a.796.796 0 0 1-.21.192.678.678 0 0 1-.54.08.7.7 0 0 1-.26-.126c-2.53 3.33.23 3.572.23 3.572 1.39.35 1.81-.71 3.24-1.341zm164.53-20.931-.09-.141c-.01.03 0 .061.02.087.01.026.04.045.07.054z" fill="#fff"/><path d="M1252.25 305.867c-1.34-.293-1.64-.941-3.07-.834-.68-.077-1.37-.092-2.05-.045-.36.439-.87-.085-1.27.276l-.12-.282c-.14.124-.3.197-.41.04v-.074c-.21.181-.41.04-.51.13v-.079h-.24l.05-.107a1.083 1.083 0 0 1-.98.034v.327c-.6-.429-.91.219-1.44-.271v-.073c-.82.783-1.1-.704-1.93.034.1-.096 0-.175 0-.254-.36.062-.74.068-.8.71-.26-.034-.19-.22-.2-.473 0 .055-.02.109-.04.157a.392.392 0 0 1-.11.127.383.383 0 0 1-.31.088l.1-.096-.56.034.06.563c-.29-.18 0-.653-.31-.563l-.04.434c-.41-.124-.57-.817-.96-1.178-1.65-.361-3.56.563-5.03-.355l-.04-.338c0-.485-.5.67-.51.22l-.21.197c-.04-.09-.13-.192-.03-.293-.17-.034-.18.045-.32.18l-.14-.321c-.64-.299-1.26.22-1.94.034-.77-.693-2.4-.293-3.34-.062-1.34.563-2.63-1.476-4.01-.789-.04-.073-.16.073-.17.124l-1.18-.186s-5.76-.777-1.78 3.657l-.04.101c.63.321 1.04.417 1.54-.062 0 .654.53.119.66.344v.051c.44-.457.77.496 1.2.09 0 .051-.05.231-.14.231.29-.057.69-.158.67.22.68-.034 1.59.236 2.08-.316l-.04.096c.28-.378.32-.028.62-.203v.096c.3-.372.77 0 1-.13v.248h.57l-.19-.073c.14-.682.35.468.78.062.35.124.87-1.352 1.21-.975.21-.304-.21.507.08.287 0 .355-.15.209-.11.502.28-.141.4.411.74.203v.276c.47-.462.76.451 1.09 0 .45-.186.2.856.71.355l.13.394c.19.085.19-.445.39-.242-.04.237.24.22.1.428.44.423 1.03-.428 1.6.271.19-.451.48-.141.62-.479 0 .203.64.095.23.495-.03.034-.08 0-.07-.056l-.07.271c.31.563.69-.22 1.04-.102-.1-.101-.24-.09-.13-.27l.33.073-.09.22.48.186-.04-.293c.23.174.27.67.57.293.14-.214-.2-.412.07-.474.35.288.75.524 1.17.699 0-.327.11-.304.23-.355v.282c.48-.344.09.631.56.366l-.06.192.18-.564c.45-.513.15.603.67-.107-.18.028 0-.625.18-.484l-.08.264c.12-.045.17-.152.25-.09-.09.141-.08.389.1.361l-.15.327.37-.462c.23.315.67 0 .74.383 0 0 .52.242.69-.164-.14.248.15.378.04.671.17-.276.61-.473.74-.141l-.03.028c.56.383 1.13-.327 1.62.118 0-.326.28-.124.25-.563.61-.355.96.947 1.3-.31.27-.045.28.327.4.411l-.07.057a2.81 2.81 0 0 1 1.01 0c.19-.107.28-.699.59-.524-.13.225 0 .197.13.208-.08.034-.11.113 0 .293a.44.44 0 0 1 .11-.146v.056c.21-.062.18-.141.09-.18a.389.389 0 0 0 0-.152c.18.326.56.039.56.445.62-.028 1.13-.406 1.63-.513a.51.51 0 0 1-.05.273.426.426 0 0 1-.21.183l.37-.039c-.03.299-.23.152-.34.203.37.529.93-.395 1.39.101l.13-.231v.045a.58.58 0 0 1 .07-.183.508.508 0 0 1 .15-.138c.04.271-.06.609.18.614.17.276.57-.067.85-.18-.14-.062-.07-.203 0-.287.12 0 .17.27.27.169v.355c0-.338.36-.327.43-.468.04.27-.22.208-.27.4l.75.028c.29-.236 0-.338.15-.636.24-.046.49-.265.74 0l-.05-.322a.695.695 0 0 1 .54-.103c.09.02.18.058.26.113a.66.66 0 0 1 .19.204c3.55-2.219 1.05-3.414 1.05-3.414-1.24-.834-2 .011-3.57.096zm.08 16.013-.09-.141c-.01.03 0 .062.01.088.02.026.05.045.08.053zm-3.64-4.682.03-.029-.03.029z" fill="#fff"/><path d="M1253.84 317.913c-1.35-.253-1.69-.89-3.09-.738a11.43 11.43 0 0 0-2.06 0c-.35.456-.86-.051-1.26.321l-.12-.276c-.14.124-.3.209-.41.051v-.073c-.21.191-.42.05-.52.146v-.079h-.23l.05-.112a1.09 1.09 0 0 1-.49.15c-.17.012-.34-.016-.49-.083v.327c-.62-.411-.9.253-1.45-.22v-.079c-.79.812-1.13-.665-1.93.096.1-.096-.03-.169 0-.248-.35.068-.73.09-.78.733-.26 0-.19-.214-.21-.462 0 .054-.02.108-.04.156a.562.562 0 0 1-.1.129.422.422 0 0 1-.31.098l.11-.102-.57.057.08.563c-.29-.169-.04-.648-.33-.563v.439c-.41-.112-.61-.8-.99-1.127-1.69-.304-3.54.693-5.07-.186l-.05-.338c0-.484-.48.688-.51.237l-.19.208c-.05-.09-.15-.191-.05-.293-.17-.033-.18.046-.31.186l-.16-.315c-.64-.276-1.25.265-1.93.101-.8-.67-2.41-.219-3.34.045-1.32.631-2.68-1.386-4.03-.653-.04-.073-.17.073-.17.129l-1.19-.152s-5.78-.563-1.65 3.713l-.04.102c.64.304 1.05.388 1.53-.113.03.654.56.107.67.327v.051c.44-.468.8.473 1.21.05 0 .051-.04.231-.13.231.29-.062.68-.174.67.203.68-.056 1.6.186 2.07-.389l-.03.102c.27-.389.32-.04.61-.226v.102c.29-.383.78 0 1-.169v.253h.54l-.19-.067c.11-.682.36.456.78.039.36.113.83-1.38 1.18-1.02.2-.31-.19.513.09.288 0 .355-.14.214-.09.507.28-.152.4.394.74.174v.282c.46-.484.77.423 1.08-.045.46-.203.24.851.73.332l.15.389c.18.079.17-.45.37-.253-.03.236.25.208.11.428.46.406 1.03-.462 1.62.208.17-.45.47-.152.6-.495 0 .202.64.078.25.49 0 .034-.08 0-.07-.057l-.07.277c.33.563.68-.243 1.04-.136-.1-.101-.25-.084-.14-.27l.33.062-.08.225.49.175-.05-.293c.24.163.29.653.56.27.14-.219-.2-.405.06-.479.36.28.76.504 1.19.665 0-.327.1-.31.22-.366v.282c.46-.361.12.625.56.349l-.05.192.16-.564c.43-.529.17.592.66-.135-.18.034-.04-.62.17-.485l-.08.265c.13-.05.17-.158.25-.096-.08.141-.07.389.11.355l-.14.333.36-.479c.24.31.67 0 .75.361 0 0 .56.225.68-.181-.13.248.17.366.07.665.15-.282.59-.49.74-.169l-.03.034c.59.36 1.08-.366 1.61.062 0-.327.28-.13.24-.564.6-.366.99.919 1.28-.349.27-.051.29.321.43.394l-.07.068c.33-.061.67-.061 1 0 .19-.113.26-.704.57-.563-.13.231 0 .197.13.208-.08.028-.11.113.04.282a.446.446 0 0 1 .1-.147v.057c.21-.068.18-.147.09-.181a.389.389 0 0 0 0-.152c.19.321.56 0 .56.428.61-.05 1.08-.445 1.6-.563.02.093 0 .19-.04.274a.424.424 0 0 1-.2.188l.36-.056c0 .304-.22.163-.33.214.4.518.92-.428 1.39.056l.13-.231v.04a.415.415 0 0 1 .07-.184.379.379 0 0 1 .14-.138c.05.265-.06.603.2.603.18.265.56-.09.84-.208-.14-.057-.09-.197 0-.288.12 0 .18.265.28.164v.355c0-.338.35-.338.41-.479.05.265-.21.208-.26.406h.76c.28-.248 0-.338.12-.637.24-.056.49-.287.74-.051l-.06-.321a.759.759 0 0 1 .26-.117.678.678 0 0 1 .54.098c.08.052.15.12.2.199 3.48-2.332.93-3.454.93-3.454-1.18-.788-1.92.079-3.48.22zm-161.38 21.501.14.101a.194.194 0 0 0-.05-.076.154.154 0 0 0-.09-.025zm24.87-6.638v-.033c-.01.005-.01.011-.01.017 0 .006 0 .011.01.016z" fill="#fff"/><path d="M1092.28 343.657c1.35-.197 1.86.298 3.16-.299.67-.169 1.32-.399 1.95-.687.18-.564.83-.226 1.08-.704l.21.219c.09-.163.21-.293.37-.18v.073c.13-.242.37-.18.43-.304v.079l.22-.09v.118c.11-.13.25-.233.41-.298.15-.066.32-.093.49-.079l-.1-.31c.71.186.77-.53 1.44-.26v.079c.49-1.019 1.27.271 1.8-.715-.06.124.08.152.09.231.32-.181.67-.321.5-.947.25-.056.26.147.35.378-.01-.054-.02-.109-.01-.164a.77.77 0 0 1 .05-.156c.03-.048.07-.09.11-.123.05-.033.1-.057.15-.07l-.06.13.52-.237-.24-.485c.33.068.24.603.49.406l-.12-.423c.43 0 .84.564 1.31.767 1.69-.248 3.13-1.792 4.84-1.443l.15.305c.15.456.23-.806.4-.389l.12-.259c.07.073.2.135.14.259.17 0 .15-.102.23-.271l.25.243c.71.056 1.13-.648 1.8-.716.97.378 2.35-.563 3.15-1.127 1.05-1.025 2.98.451 4.03-.682.06.057.13-.124.11-.174l1.18-.243s5.63-1.301.37-4.045v-.107c-.7-.085-1.13 0-1.42.597-.23-.608-.56.073-.73-.09v-.056c-.26.563-.9-.192-1.16.343 0-.056-.04-.231.04-.264-.25.152-.56.388-.7.028-.62.27-1.57.338-1.83 1.031v-.107c-.13.456-.29.141-.5.411 0-.045-.06-.068-.06-.084-.15.456-.73.259-.9.478l-.08-.236-.49.191h.2c.11.688-.5-.315-.75.215-.38 0-.34 1.572-.79 1.341-.09.36 0-.564-.18-.237-.1-.344.06-.248-.08-.507-.21.231-.5-.248-.76.067l-.08-.264c-.28.602-.86-.153-1.01.388-.36.338-.5-.727-.8-.084l-.26-.321c-.2 0 0 .484-.27.366-.05-.237-.31-.118-.25-.366-.56-.237-.82.76-1.6.315 0 .485-.39.299-.4.665-.07-.192-.64.135-.4-.383 0-.045.07-.051.09.028v-.282c-.48-.405-.56.451-.94.462.13.062.26 0 .21.209l-.33.051v-.243h-.52l.14.259c-.27-.078-.48-.529-.64-.067-.07.253.32.315.09.467a4.663 4.663 0 0 0-1.34-.242c.12.304 0 .321-.08.417l-.09-.27c-.33.49-.31-.564-.66-.141v-.197l.04.591c-.25.643-.36-.507-.57.344.16-.096.25.563 0 .513v-.276c-.09.084-.1.202-.19.169 0-.158-.07-.389-.23-.299v-.361l-.19.564c-.32-.214-.62.236-.82-.102 0 0-.56-.039-.56.395.04-.282-.28-.299-.27-.614-.06.321-.41.659-.65.4v-.045c-.68-.147-.91.698-1.55.467.11.305-.22.209-.04.592-.46.563-1.24-.564-1.13.749-.24.136-.38-.214-.53-.242l.04-.079c-.29.171-.61.285-.94.338-.14.169 0 .755-.37.699.04-.259-.08-.18-.2-.147.07-.056.07-.146-.13-.264 0 .06-.01.12-.04.174v-.05c-.17.129-.12.191 0 .202a.34.34 0 0 0 .07.136c-.28-.243-.56.169-.7-.22-.56.248-.88.766-1.33 1.053a.43.43 0 0 1-.05-.272c.02-.094.06-.18.13-.246l-.33.169c-.07-.293.16-.22.25-.31-.56-.36-.73.699-1.34.395l-.04.259h-.04c.02.065.01.132 0 .196a.564.564 0 0 1-.09.176c-.14-.237-.15-.564-.39-.507-.25-.192-.51.264-.73.473.15 0 .14.158.11.265-.12.039-.25-.197-.32-.062l-.1-.344c.13.31-.23.434-.23.563-.14-.236.13-.27.1-.467l-.71.242c-.19.327.13.31.09.642-.21.13-.37.429-.69.288l.16.287a.636.636 0 0 1-.2.193.697.697 0 0 1-.27.096.698.698 0 0 1-.28-.016.775.775 0 0 1-.25-.126c-2.53 3.33.23 3.572.23 3.572 1.39.349 1.81-.71 3.24-1.341z" fill="#fff"/></svg>