<svg width="1840" height="1380" viewBox="0 0 1840 1380" fill="none" xmlns="http://www.w3.org/2000/svg">
<path fill-rule="evenodd" clip-rule="evenodd" d="M439.569 881.002C437.696 881.11 436.378 881.277 435.615 881.505C431.525 882.727 428.881 884.425 427.213 885.526C422.665 888.526 420.057 893.427 418.81 896.081C416.686 900.605 416.521 906.804 418.316 914.678C419.584 918.524 421.232 921.54 423.259 923.726C425.285 925.912 429.366 928.504 435.5 931.502C555.076 969.385 635.242 994.885 676 1008C700.312 1015.83 725.656 1022.31 744.5 1028.5C806.125 1048.77 838.418 1058.78 881.5 1071.5C883.646 1072.14 891.98 1074.47 906.5 1078.5L1051 1094L1074 1023.5L965.5 739.502L975 560.502L936.5 560.002C954.902 475.132 967.735 411.466 975 369.002C982.265 326.539 981.317 320.74 972.155 351.606C971.637 336.192 970.085 325.657 967.5 320.002C963.773 311.85 956.86 305.258 952.5 300.002C943.603 289.28 928.243 279.507 906.419 270.683C889.792 266.992 877.27 265.484 868.856 266.159C860.442 266.835 847.921 270.353 831.293 276.714C828.986 275.374 799.99 296.819 744.304 341.051C688.618 385.282 567.517 480.766 381 627.502C374.333 639.836 374.333 649.336 381 656.002C391 666.002 394.753 665.111 402.5 663.002C404.122 662.561 412.289 657.894 427 649.002L511 592.502L505 629.002C505.182 633.513 506.349 636.679 508.5 638.502C510.651 640.326 514.318 641.326 519.5 641.502L570 614.502L669.672 656.198C666.746 664.241 665.022 670.509 664.5 675.002C663.978 679.496 664.645 682.329 666.5 683.502C666.576 683.084 683.076 686.417 716 693.502C729.463 696.4 755.831 702.155 795.103 710.77C797.133 724.246 798.932 731.157 800.5 731.502C809.258 733.434 822.888 753.927 852.5 749.002C853.791 748.788 857.625 741.121 864 726.002L871.327 828.599C868.823 835.012 867.047 839.48 866 842.002C864.953 844.525 862.453 846.858 858.5 849.002C852.772 852.997 847.272 855.497 842 856.502C840.145 856.856 838.016 857.889 835.834 858.243C833.155 858.677 828.542 859.18 821.995 859.75L603.5 828.502C597.446 826.308 592.113 828.059 587.5 833.755C582.887 839.452 583.387 846.534 589 855.002L630.5 881.002L519.333 855.234C513.073 854.229 508.295 856.407 505 861.769C502.838 865.286 501.9 869.053 503 873.002C503.384 874.383 504.545 876.503 506.483 879.361L548 906.502L445.5 881.002H439.569Z" fill="white"/>
<path fill-rule="evenodd" clip-rule="evenodd" d="M971.857 351.688H960C956.962 351.688 954.5 349.226 954.5 346.188V345.188C954.5 342.15 956.962 339.688 960 339.688H970.283C970.512 333.083 975.412 327.37 982.183 326.345C982.876 326.241 983.576 326.188 984.277 326.188H989.255C996.612 326.188 1002.71 331.881 1003.22 339.22L1005 364.883L973.899 365.188L971.857 351.688Z" fill="white"/>
<path fill-rule="evenodd" clip-rule="evenodd" d="M526 561.002C537.972 563.345 559.422 573.721 590.349 592.129C603.692 600.07 620.431 611.152 637.24 624.762C642.23 628.802 649.7 635.336 656.694 641.329C662.491 646.295 668.069 650.462 670.662 656.39C672.407 660.381 666.923 665.66 665.174 673.46C664.85 674.908 664.728 677.922 666.172 681.492C666.424 682.114 667.089 682.951 668.167 684.002C670.489 683.613 666.665 682.944 656.694 681.994C637.426 680.159 625.34 680.931 614.293 676.974C594.673 669.945 581.038 663.084 573.389 656.39L616.788 636.811C611.98 632.227 607.491 629.048 603.319 627.272C590.597 621.856 573.301 617.883 565.907 611.709C560.547 607.234 553.382 601.238 546.951 593.133C542.413 587.414 535.43 576.704 526 561.002Z" fill="#FFF8D7"/>
<path fill-rule="evenodd" clip-rule="evenodd" d="M788.482 374.758C788.3 373.46 788.211 372.127 788.211 370.779C788.211 365.934 789.7 360.982 792.376 357.533C795.759 353.173 800.967 350.91 806.656 350.91C813.235 350.91 819.01 354.621 822.275 360.206C822.166 359.293 822.11 358.347 822.11 357.368C822.11 354.303 822.201 351.335 823.3 348.728C826.232 341.767 833.144 337.002 840.555 337.002C845.264 337.002 850.385 338.733 853.645 341.939C857.436 345.669 859 351.32 859 357.368C859 364.367 856.73 370.365 851.86 374.03C848.903 376.256 844.403 377.733 840.555 377.733C837.24 377.733 833.723 375.721 831.035 374.03C828.502 372.438 826.428 370.418 824.919 367.977C825.039 368.892 825.101 369.828 825.101 370.779C825.101 374.842 824.663 378.47 822.721 381.617C819.416 386.97 813.071 390.648 806.656 390.648C802.188 390.648 797.352 389.28 794.161 386.433C792.822 385.239 791.721 383.808 790.847 382.207C790.677 385.348 789.153 388.353 786.518 390.34L760.191 410.193C758.428 411.523 755.92 411.171 754.589 409.408C754.339 409.076 754.142 408.707 754.006 408.315L750.936 399.501C749.801 396.242 750.629 392.622 753.068 390.181L753.262 389.986L750.605 389.182C747.909 388.366 745.751 386.335 744.772 383.694L742.262 376.916C741.495 374.844 742.552 372.543 744.624 371.776C745.015 371.631 745.426 371.548 745.843 371.53L778.591 370.14C782.508 369.974 786.174 371.752 788.482 374.758Z" fill="#341F16"/>
<path fill-rule="evenodd" clip-rule="evenodd" d="M1304.72 638.198L1454.9 646.056C1460.13 646.33 1464.15 650.789 1463.87 656.017C1463.87 656.018 1463.87 656.018 1463.87 656.018C1463.6 661.247 1459.14 665.263 1453.91 664.99L1148.82 649.04C1146.61 648.925 1144.91 647.044 1145.03 644.837C1145.03 644.837 1145.03 644.837 1145.03 644.837L1145.35 638.746L1145 628.79C1144.92 626.583 1146.65 624.73 1148.86 624.653C1148.86 624.653 1148.86 624.653 1148.86 624.653L1454.19 614.008C1459.42 613.825 1463.81 617.919 1463.99 623.152C1464.18 628.384 1460.08 632.774 1454.85 632.956C1454.85 632.956 1454.85 632.956 1454.85 632.956L1304.72 638.198Z" fill="#341F16"/>
<path d="M924 319.252H982C982.414 319.252 982.75 319.588 982.75 320.002V345.002C982.75 345.417 982.414 345.752 982 345.752H924C918.063 345.752 913.25 340.94 913.25 335.002V330.002C913.25 324.065 918.063 319.252 924 319.252ZM981.25 320.752H924C918.891 320.752 914.75 324.894 914.75 330.002V335.002C914.75 340.111 918.891 344.252 924 344.252H981.25V320.752Z" fill="#341F16"/>
<path fill-rule="evenodd" clip-rule="evenodd" d="M1147 618.843V656.091C1147 702.302 1109.54 739.763 1063.33 739.763H970.866C952.645 740.733 937.087 726.748 936.118 708.526C935.777 702.132 937.302 695.777 940.507 690.234L945.587 681.446C923.299 683.257 921.132 670.126 939.087 642.056C957.041 613.985 967.634 586.634 970.866 560.002H1088.16C1120.66 560.002 1147 586.346 1147 618.843Z" fill="#FFF8D7"/>
<path fill-rule="evenodd" clip-rule="evenodd" d="M1147 618.843V656.091C1147 702.302 1109.54 739.763 1063.33 739.763H970.866C952.645 740.733 937.087 726.748 936.118 708.526C935.777 702.132 937.302 695.777 940.507 690.234L945.587 681.446C923.299 683.257 921.132 670.126 939.087 642.056C957.041 613.985 967.634 586.634 970.866 560.002H1088.16C1120.66 560.002 1147 586.346 1147 618.843Z" fill="#FFF8D7"/>
<path fill-rule="evenodd" clip-rule="evenodd" d="M788.482 374.758C788.3 373.46 788.211 372.127 788.211 370.779C788.211 365.934 789.7 360.982 792.376 357.533C795.759 353.173 800.967 350.91 806.656 350.91C813.235 350.91 819.01 354.621 822.275 360.206C822.166 359.293 822.11 358.347 822.11 357.368C822.11 354.303 822.201 351.335 823.3 348.728C826.232 341.767 833.144 337.002 840.555 337.002C845.264 337.002 850.385 338.733 853.645 341.939C857.436 345.669 859 351.32 859 357.368C859 364.367 856.73 370.365 851.86 374.03C848.903 376.256 844.403 377.733 840.555 377.733C837.24 377.733 833.723 375.721 831.035 374.03C828.502 372.438 826.428 370.418 824.919 367.977C825.039 368.892 825.101 369.828 825.101 370.779C825.101 374.842 824.663 378.47 822.721 381.617C819.416 386.97 813.071 390.648 806.656 390.648C802.188 390.648 797.352 389.28 794.161 386.433C792.822 385.239 791.721 383.808 790.847 382.207C790.677 385.348 789.153 388.353 786.518 390.34L760.191 410.193C758.428 411.523 755.92 411.171 754.589 409.408C754.339 409.076 754.142 408.707 754.006 408.315L750.936 399.501C749.801 396.242 750.629 392.622 753.068 390.181L753.262 389.986L750.605 389.182C747.909 388.366 745.751 386.335 744.772 383.694L742.262 376.916C741.495 374.844 742.552 372.543 744.624 371.776C745.015 371.631 745.426 371.548 745.843 371.53L778.591 370.14C782.508 369.974 786.174 371.752 788.482 374.758Z" fill="#341F16"/>
<path fill-rule="evenodd" clip-rule="evenodd" d="M526 561.002C537.972 563.345 559.422 573.721 590.349 592.129C603.692 600.07 620.431 611.152 637.24 624.762C642.23 628.802 649.7 635.336 656.694 641.329C662.491 646.295 668.069 650.462 670.662 656.39C672.407 660.381 666.923 665.66 665.174 673.46C664.85 674.908 664.728 677.922 666.172 681.492C666.424 682.114 667.089 682.951 668.167 684.002C670.489 683.613 666.665 682.944 656.694 681.994C637.426 680.159 625.34 680.931 614.293 676.974C594.673 669.945 581.038 663.084 573.389 656.39L616.788 636.811C611.98 632.227 607.491 629.048 603.319 627.272C590.597 621.856 573.301 617.883 565.907 611.709C560.547 607.234 553.382 601.238 546.951 593.133C542.413 587.414 535.43 576.704 526 561.002Z" fill="#FFF8D7"/>
<path fill-rule="evenodd" clip-rule="evenodd" d="M850.616 387.974C851.563 387.797 852.524 387.631 853.5 387.477L853.324 387.927L867.13 387.685C867.222 387.685 867.313 387.686 867.404 387.686C869.505 386.61 873.008 386.789 877.913 388.223C921.535 401.494 947.929 403.295 957.093 393.627C966.258 383.959 970.954 376.416 971.183 364.541L1010 364.002C1009.28 398.45 1000.66 415.494 981.965 430.206C977.208 433.951 971.183 434.512 961.478 445.815C951.774 457.119 929.67 454.966 919.965 452.813C913.708 451.424 906.16 446.939 897.322 439.357V474.881H825.814L812.225 533.002H765.775C761.201 525.101 765.468 495.775 778.585 475.066C785.796 463.683 789.211 438.137 801.012 419.276C808.563 407.207 823.854 393.028 850.486 387.999L850.5 387.976L850.616 387.974Z" fill="#FFF8D7"/>
<mask id="mask0" mask-type="alpha" maskUnits="userSpaceOnUse" x="852" y="294" width="68" height="97">
<path d="M852 350.857V328.002C852 309.225 867.222 294.002 886 294.002C904.778 294.002 920 309.225 920 328.002V351.518C920 361.459 911.941 369.518 902 369.518C901.004 369.518 900.01 369.436 899.028 369.271C888.745 367.55 881.706 366.648 877.913 366.565L878 387.817C873.651 389.456 869.317 390.456 865 390.817C860.683 391.178 856.349 390.311 852 388.218V350.857Z" fill="white"/>
</mask>
<g mask="url(#mask0)">
<path d="M852 350.857V328.002C852 309.225 867.222 294.002 886 294.002C904.778 294.002 920 309.225 920 328.002V351.518C920 361.459 911.941 369.518 902 369.518C901.004 369.518 900.01 369.436 899.028 369.271C888.745 367.55 881.706 366.648 877.913 366.565L878 387.817C873.651 389.456 869.317 390.456 865 390.817C860.683 391.178 856.349 390.311 852 388.218V350.857Z" fill="white"/>
</g>
<mask id="mask1" mask-type="alpha" maskUnits="userSpaceOnUse" x="851" y="294" width="73" height="98">
<path d="M852 373.242L851.153 328.496C850.799 309.803 865.666 294.362 884.359 294.009C884.573 294.004 884.787 294.002 885 294.002H886.267C906.612 294.002 923.105 310.496 923.105 330.841C923.105 331.769 923.07 332.697 923 333.622L921.509 353.315C920.759 363.228 912.114 370.655 902.201 369.904C901.643 369.862 901.087 369.794 900.536 369.7C889.43 367.807 881.889 366.817 877.913 366.73L878 388.002C873.651 389.641 869.318 390.641 865 391.002C860.683 391.363 856.349 390.497 852 388.403V373.242Z" fill="white"/>
</mask>
<g mask="url(#mask1)">
<path d="M852 373.242L851.153 328.496C850.799 309.803 865.666 294.362 884.359 294.009C884.573 294.004 884.787 294.002 885 294.002H886.267C906.612 294.002 923.105 310.496 923.105 330.841C923.105 331.769 923.07 332.697 923 333.622L921.509 353.315C920.759 363.228 912.114 370.655 902.201 369.904C901.643 369.862 901.087 369.794 900.536 369.7C889.43 367.807 881.889 366.817 877.913 366.73L878 388.002C873.651 389.641 869.318 390.641 865 391.002C860.683 391.363 856.349 390.497 852 388.403V373.242Z" fill="white"/>
<path fill-rule="evenodd" clip-rule="evenodd" d="M851.721 352.188C862.037 352.188 871.791 347.488 878.22 339.42L911.581 297.552L920.651 310.466L927 283.645L849 277.188L851.721 352.188Z" fill="#341F16"/>
</g>
<path d="M852.393 373.677L852 328.861C852.08 325.794 852.246 323.453 852.499 321.839C852.568 321.399 852.741 320.38 853.021 318.785C855.546 304.343 868.089 293.859 882.668 294.004L889.465 294.072C901.994 294.196 913.019 302.421 916.773 314.445C918.496 319.965 919.512 325.272 919.819 330.365C920.253 337.57 919.907 345.844 918.782 355.187C917.726 363.961 909.816 370.225 901.088 369.199L877.931 366.476V375.002" stroke="#341F16" stroke-width="1.5" stroke-linecap="round" stroke-linejoin="round"/>
<path fill-rule="evenodd" clip-rule="evenodd" d="M922.735 319.002H984V346.002H922.735C918.64 346.002 915.062 343.239 914.027 339.277C913.342 336.656 913 334.398 913 332.502C913 330.607 913.342 328.349 914.027 325.728C915.062 321.766 918.64 319.002 922.735 319.002Z" fill="white"/>
<path d="M922.707 319.002H984V346.002H922.707C918.63 346.002 915.066 343.248 914.032 339.297C913.344 336.667 913 334.403 913 332.502C913 330.602 913.344 328.337 914.032 325.708C915.066 321.757 918.63 319.002 922.707 319.002ZM922.707 320.5C919.31 320.5 916.34 322.795 915.478 326.088C914.82 328.602 914.495 330.744 914.495 332.502C914.495 334.261 914.82 336.403 915.478 338.917C916.34 342.209 919.31 344.505 922.707 344.505H982.505V320.5H922.707Z" fill="#341F16"/>
<path fill-rule="evenodd" clip-rule="evenodd" d="M877.221 388.111L872.901 389.017L873.471 374.422H886L877.221 388.111ZM872.655 389.225C865.297 389.972 860.54 390.181 858.386 389.851C856.231 389.521 853.711 388.513 850.824 386.828L848 374.002L869.891 374.741L872.655 389.225Z" fill="#FFF8D7"/>
<path fill-rule="evenodd" clip-rule="evenodd" d="M849.264 280.831C844.664 280.968 841.029 280.802 838.36 280.332C835.691 279.861 833.238 278.751 831 277.002C840.718 273.186 848.218 270.686 853.5 269.502C865.972 266.708 876.249 265.622 880.729 265.832C897.095 266.6 910.907 271.383 923.374 277.516C929.274 280.418 937.623 286.573 948.42 295.982C942.488 296.01 938.181 295.85 935.5 295.502C930.437 294.846 925.959 293.06 921.5 292.502C913.164 291.46 907.189 293.982 902.639 292.467C897.989 290.92 894.269 288.458 890.969 287.988C882.337 286.757 877.24 287.018 870.381 285.813C865.64 284.98 858.601 283.319 849.264 280.831ZM902 1078C903.905 1075.41 905.239 1073.57 906 1072.5C909.463 1067.63 911.896 1064.43 914 1062.5C921.45 1055.67 933.54 1060.73 940.5 1055.5C945.848 1051.49 949.378 1047.05 954 1043C958.018 1039.49 962.951 1040.02 968 1040C974.597 1039.98 981.342 1039.85 986 1037C992.032 1033.32 997.875 1027.49 1003.5 1026.5C1011.93 1025.02 1019.19 1028.34 1026 1027C1033.86 1025.46 1039.49 1020.14 1045.5 1018C1049.97 1016.41 1054.16 1016.58 1062 1019C1064.25 1019.7 1068.41 1021.03 1074.5 1023C1076.27 1029.83 1077.27 1035.17 1077.5 1039C1077.72 1042.58 1077.82 1046.01 1077.5 1050C1075.5 1075 1064.43 1086.19 1050 1096.5C1045.34 1099.83 1041.33 1100.32 1038.5 1101.5C1033.83 1103.46 1031.26 1105.13 1022.5 1106C1020.61 1106.19 1016.92 1106.27 1014.5 1106.5C1006.75 1107.26 991.326 1101.38 963.5 1094C949.329 1090.25 928.829 1084.91 902 1078Z" fill="#FFF8D7"/>
<path fill-rule="evenodd" clip-rule="evenodd" d="M799.095 730.002L787.881 752.012C786.878 753.98 787.661 756.389 789.629 757.392C789.671 757.413 789.713 757.433 789.756 757.453L800.931 762.661C802.865 763.562 805.166 762.786 806.16 760.898L809 755.502L810.64 763.721C811.413 767.599 813.791 770.968 817.184 772.998L847.421 791.078C850.739 793.063 855.037 791.981 857.022 788.663C857.762 787.425 858.102 785.988 857.994 784.549L855.238 747.695" fill="#341F16"/>
<path fill-rule="evenodd" clip-rule="evenodd" d="M992.552 312.002H1079.76L1080 353.002L992.627 352.53C987.235 352.501 982.42 349.146 980.526 344.097C978.842 339.609 978 335.82 978 332.732C978 329.698 978.704 325.862 980.113 321.224C981.777 315.747 986.828 312.002 992.552 312.002Z" fill="white"/>
<path d="M992.75 312.002H1080.25C1080.66 312.002 1081 312.342 1081 312.762V352.243C1081 352.663 1080.66 353.002 1080.25 353.002H992.75C984.604 353.002 978 346.317 978 338.07V326.935C978 318.688 984.604 312.002 992.75 312.002ZM1079.5 313.521H992.75C985.432 313.521 979.5 319.526 979.5 326.935V338.07C979.5 345.478 985.432 351.484 992.75 351.484H1079.5V313.521Z" fill="#341F16"/>
<path fill-rule="evenodd" clip-rule="evenodd" d="M1090.01 307.806L1094.6 307.15L1174 307.002V357.855L1093.21 357.991C1088.99 357.998 1084.93 356.334 1081.93 353.36C1078.56 350.027 1076.81 348.25 1076.68 348.031C1072.51 341.067 1074.45 336.564 1074.45 332.429C1074.45 328.703 1075.31 324.147 1077.04 318.761C1078.91 312.927 1083.95 308.674 1090.01 307.806Z" fill="white"/>
<path d="M1097 592.002H1072C1057.64 592.002 1046 603.643 1046 618.002V622.002C1046 636.362 1057.64 648.002 1072 648.002H1097C1111.36 648.002 1123 636.362 1123 622.002V618.002C1123 603.643 1111.36 592.002 1097 592.002Z" fill="white"/>
<mask id="mask2" mask-type="alpha" maskUnits="userSpaceOnUse" x="1046" y="592" width="77" height="57">
<path d="M1097 592.002H1072C1057.64 592.002 1046 603.643 1046 618.002V622.002C1046 636.362 1057.64 648.002 1072 648.002H1097C1111.36 648.002 1123 636.362 1123 622.002V618.002C1123 603.643 1111.36 592.002 1097 592.002Z" fill="white"/>
</mask>
<g mask="url(#mask2)">
<path d="M1082 599.502C1082 592.047 1075.96 586.002 1068.5 586.002C1061.04 586.002 1055 592.047 1055 599.502V609.502C1055 616.958 1061.04 623.002 1068.5 623.002C1075.96 623.002 1082 616.958 1082 609.502V599.502Z" fill="#341F16"/>
</g>
<path d="M890.239 334.258C890.481 333.917 890.956 333.834 891.302 334.072C894.716 336.429 897.749 336.554 900.579 334.477C900.917 334.229 901.394 334.298 901.646 334.632C901.897 334.965 901.827 335.437 901.489 335.685C898.114 338.162 894.367 338.025 890.427 335.306C890.082 335.067 889.998 334.598 890.239 334.258ZM902.894 352.586C902.706 352.214 902.858 351.762 903.235 351.577C904.702 350.853 906.511 350.494 908.661 350.494C910.844 350.494 912.505 350.863 913.66 351.623C914.011 351.854 914.105 352.321 913.872 352.667C913.638 353.013 913.164 353.106 912.814 352.876C911.936 352.299 910.544 351.999 908.661 351.999C906.743 351.999 905.161 352.309 903.917 352.923C903.54 353.109 903.082 352.958 902.894 352.586ZM909.951 335.043C909.204 331.85 907.312 329.031 904.625 327.105C898.468 322.692 889.852 324.039 885.38 330.114C885.132 330.45 884.655 330.525 884.315 330.281C883.974 330.036 883.898 329.566 884.146 329.229C889.113 322.482 898.683 320.985 905.521 325.887C908.506 328.026 910.607 331.157 911.438 334.704L913.98 345.558C914.091 346.029 913.728 346.48 913.237 346.48H907.864C907.443 346.48 907.102 346.143 907.102 345.727C907.102 345.311 907.443 344.975 907.864 344.975H912.278L909.951 335.043Z" fill="#341F16"/>
<path d="M1094.88 306.002H1155.25C1155.66 306.002 1156 306.341 1156 306.76V358.245C1156 358.663 1155.66 359.002 1155.25 359.002H1094.88C1082.8 359.002 1073 349.172 1073 337.045V327.96C1073 315.833 1082.8 306.002 1094.88 306.002ZM1154.49 307.517H1094.88C1083.63 307.517 1074.51 316.669 1074.51 327.96V337.045C1074.51 348.336 1083.63 357.488 1094.88 357.488H1154.49V307.517Z" fill="#341F16"/>
<path fill-rule="evenodd" clip-rule="evenodd" d="M994.5 306.208C995.37 304.316 997.281 303.002 999.5 303.002H1000.5C1003.54 303.002 1006 305.465 1006 308.502V321.502C1006 324.54 1003.54 327.002 1000.5 327.002H999.5C997.066 327.002 995.001 325.421 994.277 323.23C993.329 324.886 991.545 326.002 989.5 326.002C986.462 326.002 984 323.54 984 320.502V308.502C984 305.465 986.462 303.002 989.5 303.002C991.719 303.002 993.63 304.316 994.5 306.208ZM973.5 309.002C976.538 309.002 979 311.465 979 314.502V327.502C979 330.54 976.538 333.002 973.5 333.002C970.462 333.002 968 330.54 968 327.502V314.502C968 311.465 970.462 309.002 973.5 309.002Z" fill="white"/>
<path d="M842.41 752.422C842.032 752.226 841.89 751.769 842.092 751.401C842.294 751.034 842.764 750.895 843.142 751.092L855.555 757.547C855.933 757.743 856.076 758.2 855.874 758.568C855.672 758.935 855.202 759.074 854.824 758.877L842.41 752.422ZM842.433 758.469C842.048 758.285 841.891 757.833 842.08 757.459C842.27 757.085 842.735 756.932 843.119 757.116L856.567 763.571C856.952 763.756 857.109 764.208 856.92 764.582C856.73 764.955 856.265 765.109 855.881 764.924L842.433 758.469Z" fill="white"/>
<path d="M938.766 561.002L938.735 561.152C938.652 561.558 938.256 561.82 937.85 561.737C937.494 561.665 937.249 561.351 937.25 561.002H897.722C897.308 561.002 896.972 560.666 896.972 560.252C896.972 559.838 897.308 559.502 897.722 559.502H937.54L960.265 447.853C960.348 447.447 960.744 447.185 961.15 447.268C961.555 447.35 961.818 447.746 961.735 448.152L939.071 559.502H970.715C970.725 559.502 970.735 559.502 970.745 559.502H1087.24C1120.8 559.502 1148 586.688 1148 620.224V654.208C1148 701.544 1109.6 739.918 1062.24 739.918H967.817L1074.94 1021.77L1074.98 1021.93L1077.1 1037.32C1081.71 1070.88 1058.23 1101.82 1024.65 1106.43C1020.01 1107.07 1015.32 1107.17 1010.67 1106.74L1010.55 1106.72L901.574 1078.25C901.542 1078.24 901.511 1078.23 901.48 1078.22L435.445 930.794L435.337 930.75L431.363 928.772C418.555 922.396 413.344 906.851 419.723 894.05C424.566 884.333 434.959 878.667 445.755 879.857L445.854 879.875L543.71 904.206L508.481 882.424C501.083 877.85 498.796 868.148 503.372 860.754C506.941 854.99 513.8 852.155 520.399 853.718L626.31 878.794L591.801 857.635C583.915 852.799 581.445 842.49 586.283 834.609C589.759 828.945 596.258 825.873 602.844 826.778L621.798 829.384L822.267 857.863H832.807C850.867 857.863 866.6 845.568 870.963 828.063L863.471 726.73C863.44 726.317 863.75 725.957 864.164 725.927C864.577 725.896 864.936 726.206 864.967 726.619L872.468 828.072C872.473 828.15 872.467 828.229 872.448 828.306C867.961 846.543 851.597 859.362 832.807 859.362H822.214L822.109 859.355L621.59 830.869L602.64 828.263C596.644 827.439 590.727 830.237 587.561 835.393C583.157 842.568 585.406 851.954 592.586 856.357L631.085 879.964C631.812 880.409 631.35 881.529 630.52 881.332L520.053 855.177C514.082 853.763 507.876 856.328 504.648 861.543C500.507 868.233 502.577 877.011 509.27 881.149L548.579 905.453C549.307 905.903 548.834 907.025 548.003 906.818L445.541 881.342C435.388 880.244 425.621 885.579 421.066 894.719C415.056 906.778 419.966 921.424 432.032 927.43L435.954 929.382L901.434 1076.63L908.699 1066.69C912.596 1061.35 918.544 1057.87 925.111 1057.1L933.393 1056.13C937.898 1055.6 942.071 1053.5 945.176 1050.19L950.942 1044.06C954.109 1040.69 958.527 1038.78 963.152 1038.78H976.917C980.835 1038.78 984.635 1037.45 987.694 1035L993.577 1030.3C998.018 1026.75 1003.67 1025.08 1009.33 1025.64L1017.82 1026.49C1022.82 1026.99 1027.85 1025.78 1032.08 1023.05L1037.61 1019.5C1044.26 1015.21 1052.51 1014.22 1059.98 1016.81L1073.19 1021.38L966.195 739.871C960.559 739.299 955.147 737.353 950.437 734.199C934.564 723.574 930.315 702.1 940.947 686.236L943.519 682.398C939.919 683.055 936.176 682.381 933.008 680.46C925.902 676.15 923.637 666.899 927.949 659.797C942.799 635.338 952.002 619.037 955.541 610.928C960.42 599.753 965.178 583.106 969.808 561.002H938.766ZM556.884 559.003C556.93 558.842 557.029 558.696 557.177 558.593L627.702 509.612C628.042 509.376 628.51 509.46 628.746 509.8C628.983 510.14 628.899 510.607 628.558 510.844L559.217 559.003H640.849L730.768 502.596C731.118 502.376 731.582 502.481 731.802 502.832C732.022 503.183 731.917 503.646 731.565 503.866L643.671 559.003H824.714C825.129 559.003 825.465 559.338 825.465 559.752C825.465 560.166 825.129 560.502 824.714 560.502H526.977C530.488 566.609 533.353 571.426 535.57 574.953C535.818 574.944 536.065 575.058 536.216 575.278C536.378 575.514 536.387 575.811 536.263 576.048C544.973 589.745 552.472 599.145 562.666 607.654C566.892 611.182 572.668 614.13 581.015 617.384C582.702 618.042 594.025 622.206 596.814 623.369C598.22 623.955 599.445 624.509 600.527 625.052C606.373 627.988 611.908 631.34 617.131 635.109C617.593 635.442 617.529 636.149 617.014 636.394L576.208 655.814C588.949 664.193 600.535 670.422 610.964 674.5C612.455 675.083 613.945 675.585 615.461 676.018C620.713 677.516 625.436 678.109 635.289 678.761C636.041 678.811 638.722 678.985 638.875 678.995C640.361 679.092 641.536 679.172 642.712 679.255C645.744 679.468 648.479 679.688 651.265 679.949C654.488 680.251 660.169 681.086 668.359 682.463L795.373 710.45C795.777 710.539 796.033 710.939 795.944 711.343C795.854 711.747 795.454 712.003 795.05 711.914L668.073 683.934C659.955 682.571 654.301 681.74 651.125 681.442C648.352 681.182 645.628 680.963 642.607 680.75C641.433 680.667 640.26 680.588 638.777 680.491C638.625 680.481 635.943 680.307 635.19 680.257C625.236 679.599 620.433 678.995 615.049 677.459C613.487 677.014 611.953 676.497 610.418 675.896C599.579 671.658 587.532 665.136 574.272 656.332C573.786 656.01 573.838 655.281 574.364 655.031L615.219 635.587C610.366 632.164 605.244 629.099 599.853 626.391C598.806 625.866 597.612 625.326 596.236 624.752C593.482 623.604 582.183 619.449 580.47 618.781C576.932 617.401 573.844 616.074 571.128 614.73C571.074 614.781 571.012 614.825 570.942 614.86C549.046 625.658 533.392 633.979 523.989 639.814C517.947 643.565 510.006 641.71 506.253 635.672C504.565 632.956 503.949 629.708 504.525 626.563L510.533 593.794L409.975 660.359C400.354 666.728 387.44 664.548 380.446 655.376C373.467 646.222 374.846 633.217 383.59 625.727L389.581 620.597L494.841 537.328L785.744 307.201L813.602 286.896C823.367 279.779 834.333 274.475 845.977 271.237L857.26 268.1C876.029 262.881 896.025 264.288 913.877 272.083L919.325 274.462C936.904 282.138 951.926 294.669 962.626 310.581L967.872 318.385C968.104 318.728 968.012 319.194 967.668 319.425C967.324 319.656 966.858 319.565 966.627 319.221L961.38 311.418C957.756 306.027 953.628 301.031 949.068 296.488C948.986 296.527 948.896 296.552 948.8 296.559C943.379 296.968 939.328 296.968 936.625 296.553C934.594 296.241 931.426 295.401 927.103 294.034C924.059 293.071 920.866 292.671 917.679 292.853L912.005 293.177C907.461 293.436 902.922 292.575 898.789 290.669L897.694 290.164C893.981 288.452 889.941 287.565 885.852 287.565H877.398C872.228 287.565 867.1 286.628 862.264 284.8L857.805 283.114C853.744 281.578 849.446 280.764 845.104 280.707C843.873 280.691 842.722 280.644 841.651 280.566C838.964 280.369 835.274 279.867 830.574 279.058C830.384 279.025 830.222 278.923 830.112 278.782C824.64 281.401 819.408 284.52 814.486 288.108L786.652 308.395L495.772 538.503L390.534 621.754L384.566 626.866C376.426 633.838 375.142 645.945 381.64 654.467C388.154 663.011 400.184 665.041 409.146 659.109L511.169 591.574L534.271 575.704C531.912 571.95 528.834 566.761 525.037 560.136C525.002 560.077 524.975 560.013 524.957 559.945C524.956 559.943 524.956 559.941 524.955 559.94C524.94 559.88 524.931 559.817 524.931 559.752C524.931 559.727 524.933 559.701 524.935 559.676C524.946 559.571 524.979 559.468 525.032 559.376C525.086 559.284 525.159 559.205 525.245 559.143C525.265 559.128 525.286 559.114 525.309 559.102C525.361 559.072 525.416 559.049 525.471 559.032C525.477 559.031 525.483 559.029 525.489 559.028C525.557 559.009 525.626 559.001 525.695 559.003H556.884ZM569.501 613.899C566.439 612.283 563.884 610.624 561.705 608.805C551.398 600.202 543.827 590.723 535.073 576.972L512.271 592.637L506.001 626.833C505.492 629.612 506.036 632.481 507.528 634.881C510.844 640.216 517.859 641.854 523.197 638.541C532.539 632.743 547.97 624.531 569.501 613.899ZM966.763 738.419H1062.24C1108.78 738.419 1146.5 700.716 1146.5 654.208V620.224C1146.5 587.516 1119.97 561.002 1087.24 561.002H971.34C966.672 583.351 961.866 600.189 956.916 611.528C953.34 619.72 944.117 636.057 929.231 660.575C925.349 666.969 927.388 675.298 933.786 679.178C937.156 681.221 941.248 681.698 944.996 680.482C945.674 680.263 946.247 681.022 945.851 681.613L942.193 687.07C932.022 702.246 936.087 722.789 951.271 732.954C955.894 736.048 961.222 737.928 966.763 738.419ZM1073.63 1023.12L1059.49 1018.23C1052.45 1015.79 1044.68 1016.72 1038.42 1020.76L1032.9 1024.31C1028.38 1027.22 1023.01 1028.51 1017.67 1027.98L1009.18 1027.13C1003.91 1026.61 998.649 1028.16 994.515 1031.47L988.631 1036.17C985.306 1038.83 981.175 1040.28 976.917 1040.28H963.152C958.941 1040.28 954.918 1042.02 952.036 1045.08L946.269 1051.22C942.922 1054.78 938.424 1057.05 933.569 1057.62L925.286 1058.59C919.134 1059.31 913.562 1062.57 909.911 1067.57L902.978 1077.06L1010.86 1105.26C1015.39 1105.67 1019.94 1105.56 1024.44 1104.95C1057.2 1100.45 1080.11 1070.26 1075.61 1037.52L1073.63 1023.12ZM947.684 295.136C939.283 287.087 929.49 280.537 918.724 275.836L913.276 273.457C895.74 265.8 876.099 264.418 857.662 269.545L846.379 272.682C841.52 274.033 836.781 275.749 832.201 277.812C836.207 278.478 839.395 278.897 841.76 279.07C842.8 279.146 843.922 279.192 845.124 279.208C849.64 279.267 854.112 280.114 858.336 281.711L862.795 283.397C867.461 285.162 872.409 286.066 877.398 286.066H885.852C890.158 286.066 894.413 287 898.323 288.803L899.417 289.308C903.327 291.111 907.621 291.925 911.92 291.68L917.594 291.356C920.963 291.164 924.338 291.587 927.555 292.604C931.811 293.95 934.917 294.773 936.853 295.071C939.255 295.44 942.871 295.464 947.684 295.136Z" fill="#341F16"/>
<path d="M527.423 560.433C527.05 560.251 526.894 559.8 527.076 559.426C527.257 559.052 527.707 558.897 528.08 559.078C564.142 576.655 590.546 590.891 607.301 601.795C622.145 611.454 641.937 626.62 666.685 647.297C672.203 651.907 673.613 659.827 670.026 666.066C668.182 669.272 667.089 672.03 666.74 674.327C666.099 678.536 666.997 681.236 669.375 682.595C669.735 682.801 669.861 683.261 669.655 683.622C669.449 683.984 668.991 684.109 668.63 683.903C665.634 682.191 664.529 678.867 665.254 674.1C665.636 671.594 666.795 668.669 668.724 665.314C671.946 659.71 670.679 652.595 665.722 648.454C641.016 627.812 621.267 612.679 606.483 603.058C589.79 592.195 563.434 577.984 527.423 560.433ZM617.183 636.276C616.788 636.15 616.569 635.727 616.695 635.33C616.821 634.934 617.243 634.715 617.639 634.841L639.678 641.869C640.073 641.995 640.292 642.419 640.166 642.815C640.04 643.211 639.618 643.43 639.222 643.304L617.183 636.276ZM548.565 907.218C548.163 907.114 547.921 906.702 548.024 906.297C548.126 905.893 548.534 905.648 548.936 905.752L664.436 935.513C664.837 935.616 665.079 936.028 664.977 936.433C664.874 936.838 664.466 937.082 664.064 936.979L548.565 907.218ZM631.084 881.497C630.68 881.405 630.427 881 630.519 880.592C630.61 880.185 631.012 879.929 631.416 880.021L790.415 916.34C790.819 916.432 791.073 916.837 790.981 917.245C790.89 917.652 790.488 917.908 790.084 917.816L631.084 881.497Z" fill="#341F16"/>
<path d="M1071.43 591.033H1096.57C1111.43 591.033 1123.47 603.099 1123.47 617.984V622.014C1123.47 636.898 1111.43 648.965 1096.57 648.965H1071.43C1056.57 648.965 1044.53 636.898 1044.53 622.014V617.984C1044.53 603.099 1056.57 591.033 1071.43 591.033ZM1071.43 592.544C1057.41 592.544 1046.04 603.934 1046.04 617.984V622.014C1046.04 636.064 1057.41 647.454 1071.43 647.454H1096.57C1110.59 647.454 1121.96 636.064 1121.96 622.014V617.984C1121.96 603.934 1110.59 592.544 1096.57 592.544H1071.43ZM1069.92 587.002H1098.08C1115.16 587.002 1129 600.873 1129 617.984V623.021C1129 640.132 1115.16 654.002 1098.08 654.002H1069.92C1052.84 654.002 1039 640.132 1039 623.021V617.984C1039 600.873 1052.84 587.002 1069.92 587.002ZM1069.92 588.514C1053.68 588.514 1040.51 601.708 1040.51 617.984V623.021C1040.51 639.297 1053.68 652.491 1069.92 652.491H1098.08C1114.32 652.491 1127.49 639.297 1127.49 623.021V617.984C1127.49 601.708 1114.32 588.514 1098.08 588.514H1069.92Z" fill="#341F16"/>
<path d="M812.308 536.599L809.274 560.005C809.226 560.382 808.903 560.663 808.523 560.66L750.926 560.159C750.762 560.158 750.604 560.103 750.474 560.003C748.914 558.803 748 556.947 748 554.978C748 551.477 750.838 548.638 754.339 548.638H777.071L787.367 532.948C787.594 532.601 788.06 532.505 788.407 532.732C788.754 532.96 788.851 533.426 788.623 533.773L778.105 549.802C777.966 550.013 777.73 550.141 777.477 550.141H754.339C751.668 550.141 749.503 552.307 749.503 554.978C749.503 556.398 750.126 557.743 751.201 558.659L807.87 559.152L811.29 532.763C811.344 532.351 811.72 532.061 812.132 532.114C812.543 532.168 812.834 532.545 812.78 532.956L812.756 533.146C815.039 540.168 816.868 545.322 818.238 548.599C819.578 551.804 822.029 555.235 825.629 558.92C828.42 562.193 830.311 566.317 831.303 571.282C832.291 576.221 832.291 581.491 831.304 587.1C827.394 607.414 824.051 622.46 821.272 632.245C818.493 642.033 813.81 655.246 807.218 671.904C800.817 687.042 797.162 698.176 796.253 705.268C795.36 712.232 796.473 720.349 799.603 729.618L854.687 747.326L900.969 639.331L904.387 628.3C909.269 612.542 908.848 595.617 903.189 580.122L881.448 520.595C881.269 520.104 881.632 519.585 882.154 519.585H889.667C890.081 519.585 890.418 519.922 890.418 520.337C890.418 520.752 890.081 521.088 889.667 521.088H883.228L904.6 579.606C910.372 595.411 910.802 612.672 905.822 628.744L902.377 639.849L855.799 748.547C855.646 748.903 855.247 749.085 854.878 748.966L798.783 730.934C798.558 730.861 798.379 730.686 798.303 730.461C795.011 720.841 793.826 712.38 794.762 705.077C795.693 697.814 799.384 686.574 805.828 671.335C812.396 654.735 817.063 641.566 819.827 631.835C822.592 622.1 825.927 607.091 829.827 586.828C830.78 581.409 830.78 576.327 829.83 571.577C828.885 566.853 827.103 562.964 824.52 559.933C820.831 556.16 818.273 552.579 816.852 549.179C815.666 546.343 814.152 542.152 812.308 536.599ZM938.927 559.586C939.105 559.96 938.946 560.409 938.572 560.587C938.197 560.765 937.749 560.607 937.57 560.232L897.002 475.077C896.823 474.703 896.982 474.254 897.357 474.076C897.731 473.897 898.18 474.056 898.358 474.431L938.927 559.586ZM841.342 475.149C841.401 474.738 841.782 474.452 842.192 474.511C842.603 474.57 842.889 474.95 842.83 475.361L839.949 495.53C838.581 505.107 829.71 511.761 820.135 510.393C819.539 510.308 818.948 510.192 818.364 510.046C817.962 509.945 817.717 509.537 817.818 509.135C817.918 508.732 818.326 508.487 818.729 508.588C819.262 508.721 819.803 508.827 820.347 508.905C829.101 510.156 837.211 504.072 838.461 495.318L841.342 475.149ZM835.834 475.143C835.895 474.733 836.278 474.45 836.688 474.512C837.099 474.573 837.381 474.956 837.32 475.366L834.62 493.368C833.576 500.328 827.089 505.123 820.13 504.079C820.062 504.069 819.993 504.058 819.925 504.047C819.516 503.979 819.24 503.592 819.308 503.182C819.376 502.773 819.763 502.497 820.172 502.565C820.232 502.575 820.293 502.584 820.353 502.593C826.491 503.514 832.213 499.284 833.134 493.145L835.834 475.143ZM807.784 559.812L808.536 559.157L807.87 559.152L807.784 559.812Z" fill="#341F16"/>
<path d="M877.045 389.126C876.065 389.641 874.949 390.057 873.698 390.376V411.394C873.698 411.809 873.362 412.146 872.949 412.146C872.535 412.146 872.2 411.809 872.2 411.394V390.7C869.732 391.146 866.806 391.272 863.421 391.083C857.584 390.758 853.567 389.805 851.334 388.163L835.952 393.204C816.285 399.65 800.882 415.169 794.526 434.943L785.035 464.47C784.528 466.048 783.902 467.585 783.164 469.068L771.69 492.116C765.466 504.62 763.874 518.933 767.187 532.498H811.445L834.774 433.786C834.87 433.382 835.273 433.132 835.676 433.228C836.078 433.324 836.327 433.729 836.232 434.134L826.732 474.328H896.654L896.165 438.985C896.156 438.341 896.905 437.984 897.396 438.398C903.411 443.471 908.529 447.119 912.74 449.341C916.915 451.544 921.476 453.02 926.427 453.768H940.691C949.482 453.768 957.863 450.032 963.762 443.484C968.821 437.868 974.767 433.127 981.361 429.453C988.369 425.547 994.287 419.407 999.117 411.017C1005.57 399.801 1009.04 384.298 1009.49 364.507H971.438C970.285 371.141 969.317 375.641 968.522 378.034C963.948 391.817 950.828 400.884 936.375 400.248C930.622 399.995 925.249 399.445 920.255 398.596C910.332 396.909 895.931 393.753 877.045 389.126ZM878.159 387.85C896.64 392.368 910.757 395.456 920.505 397.113C925.435 397.951 930.747 398.495 936.441 398.745C950.225 399.352 962.738 390.704 967.101 377.558C967.889 375.184 968.882 370.531 970.07 363.627C970.132 363.266 970.443 363.002 970.807 363.002H1010.25C1010.67 363.002 1011.01 363.348 1011 363.769C1010.62 384.16 1007.1 400.161 1000.41 411.77C995.454 420.386 989.345 426.723 982.087 430.768C975.638 434.362 969.822 439 964.872 444.494C958.69 451.357 949.906 455.272 940.691 455.272H926.372L926.261 455.264C921.125 454.494 916.384 452.963 912.044 450.673C908.023 448.551 903.24 445.193 897.686 440.597L898.162 475.07C898.168 475.489 897.831 475.832 897.413 475.832H826.516C826.469 475.832 826.424 475.828 826.379 475.82L812.765 533.424C812.685 533.763 812.384 534.002 812.037 534.002H766.602C766.26 534.002 765.962 533.77 765.877 533.437C762.29 519.354 763.878 504.445 770.351 491.443L781.824 468.396C782.529 466.98 783.126 465.514 783.61 464.008L793.1 434.481C799.604 414.248 815.364 398.369 835.488 391.774L850.555 386.836L846.767 373.998C846.621 373.502 847.005 373.01 847.519 373.033L869.986 374.035C870.332 374.051 870.623 374.303 870.688 374.644L872.415 383.606L872.7 374.763C872.713 374.357 873.044 374.035 873.448 374.035H885.93C886.528 374.035 886.885 374.704 886.553 375.204L878.159 387.85ZM876.422 387.755L884.531 375.539H874.173L873.747 388.806C874.75 388.524 875.641 388.173 876.422 387.755ZM869.33 375.512L848.502 374.582L852.131 386.883C854.033 388.343 857.837 389.265 863.504 389.581C866.798 389.765 869.621 389.641 871.97 389.213L869.33 375.512Z" fill="#341F16"/>
<path fill-rule="evenodd" clip-rule="evenodd" d="M1224 364.318L1224.5 299.502H1163.02C1158.39 299.502 1154.22 302.27 1152.42 306.528C1149.14 314.299 1147.5 322.789 1147.5 332.002C1147.5 341.206 1149.14 349.688 1152.41 357.452C1154.21 361.723 1158.4 364.495 1163.04 364.483L1224 364.318Z" fill="#341F16" stroke="#341F16"/>
<path fill-rule="evenodd" clip-rule="evenodd" d="M1224.5 364.002C1227.81 364.002 1230 350.452 1230 332.502C1230 314.553 1227.31 300.002 1224 300.002C1220.69 300.002 1219 314.553 1219 332.502C1219 350.452 1221.19 364.002 1224.5 364.002Z" fill="white"/>
<path d="M995.101 323.571C994.031 325.556 991.938 326.904 989.532 326.904C986.036 326.904 983.203 324.06 983.203 320.552V308.355C983.203 304.847 986.036 302.002 989.532 302.002C991.938 302.002 994.031 303.35 995.101 305.335C996.172 303.35 998.264 302.002 1000.67 302.002C1004.17 302.002 1007 304.847 1007 308.355V320.552C1007 324.06 1004.17 326.904 1000.67 326.904C998.264 326.904 996.172 325.556 995.101 323.571ZM994.342 320.552V308.355C994.342 305.689 992.188 303.527 989.532 303.527C986.875 303.527 984.721 305.689 984.721 308.355V320.552C984.721 323.218 986.875 325.379 989.532 325.379C992.188 325.379 994.342 323.218 994.342 320.552ZM995.861 320.552C995.861 323.218 998.014 325.379 1000.67 325.379C1003.33 325.379 1005.48 323.218 1005.48 320.552V308.355C1005.48 305.689 1003.33 303.527 1000.67 303.527C998.014 303.527 995.861 305.689 995.861 308.355V320.552ZM973.329 308.101C976.825 308.101 979.658 310.945 979.658 314.453V326.65C979.658 330.158 976.825 333.002 973.329 333.002C969.834 333.002 967 330.158 967 326.65V314.453C967 310.945 969.834 308.101 973.329 308.101ZM973.329 309.625C970.673 309.625 968.519 311.787 968.519 314.453V326.65C968.519 329.316 970.673 331.478 973.329 331.478C975.986 331.478 978.139 329.316 978.139 326.65V314.453C978.139 311.787 975.986 309.625 973.329 309.625Z" fill="#341F16"/>
<path d="M974.519 364.407C974.598 364.756 974.901 365.002 975.25 365.002H1005.25C1005.69 365.002 1006.03 364.618 1006 364.17L1005 351.878C1004.96 351.455 1004.6 351.141 1004.19 351.176C1003.77 351.211 1003.47 351.582 1003.5 352.005L1004.43 363.466H975.847L972.981 350.744C972.902 350.396 972.599 350.149 972.25 350.149H961.241C958.973 350.149 956.962 348.658 956.254 346.451C955.853 345.204 955.576 344.53 955.28 344.227C954.987 343.927 954.513 343.927 954.22 344.227C953.927 344.528 953.927 345.014 954.22 345.314C954.271 345.367 954.521 345.973 954.829 346.931C955.74 349.768 958.326 351.685 961.241 351.685H971.653L974.519 364.407Z" fill="#341F16"/>
<path d="M1224.5 365.002C1228.43 365.002 1231 350.503 1231 332.002C1231 313.502 1228.43 299.002 1224.5 299.002C1220.57 299.002 1218 313.502 1218 332.002C1218 350.503 1220.57 365.002 1224.5 365.002ZM1224.5 363.491C1222.11 363.491 1219.56 349.118 1219.56 332.002C1219.56 314.887 1222.11 300.514 1224.5 300.514C1226.89 300.514 1229.44 314.887 1229.44 332.002C1229.44 349.118 1226.89 363.491 1224.5 363.491Z" fill="#341F16"/>
<path fill-rule="evenodd" clip-rule="evenodd" d="M1215 304.213L1219 292.002L1222 303.704L1239 308.792L1222 310.827L1216 321.002L1214.78 313.54L1213 311.845L1195 306.248L1215 304.213Z" fill="white"/>
<path d="M1218.6 291.508C1218.86 290.782 1219.9 290.857 1220.06 291.612L1222.53 303.741L1239.43 308.093C1240.24 308.303 1240.16 309.49 1239.33 309.588L1222.37 311.573L1216.59 322.595C1216.26 323.225 1215.32 323.096 1215.17 322.4L1213.1 312.683L1194.54 307.123C1193.75 306.884 1193.86 305.718 1194.68 305.635L1214.28 303.651L1218.6 291.508ZM1214.75 303.603L1214.12 304.104L1214.28 303.651L1214.75 303.603ZM1215.54 304.618C1215.45 304.895 1215.2 305.09 1214.91 305.119L1198.65 306.764L1213.96 311.352C1214.23 311.431 1214.43 311.65 1214.49 311.922L1216.22 320.028L1221.21 310.507C1221.33 310.285 1221.55 310.135 1221.79 310.106L1235.09 308.549L1221.69 305.099C1221.41 305.027 1221.2 304.8 1221.14 304.514L1219.12 294.585L1215.54 304.618Z" fill="#341F16"/>
</svg>
