<svg width="1840" height="1380" viewBox="0 0 1840 1380" fill="none" xmlns="http://www.w3.org/2000/svg"><path fill-rule="evenodd" clip-rule="evenodd" d="M439.569 881.002c-1.873.108-3.191.275-3.954.503-4.09 1.222-6.734 2.92-8.402 4.021-4.548 3-7.156 7.901-8.403 10.555-2.124 4.524-2.289 10.723-.494 18.597 1.268 3.846 2.916 6.862 4.943 9.048 2.026 2.186 6.107 4.778 12.241 7.776C555.076 969.385 635.242 994.885 676 1008c24.312 7.83 49.656 14.31 68.5 20.5 61.625 20.27 93.918 30.28 137 43 2.146.64 10.48 2.97 25 7L1051 1094l23-70.5-108.5-283.998 9.5-179-38.5-.5c18.402-84.87 31.235-148.536 38.5-191 7.265-42.463 6.317-48.262-2.845-17.396-.518-15.414-2.07-25.949-4.655-31.604-3.727-8.152-10.64-14.744-15-20-8.897-10.722-24.257-20.495-46.081-29.319-16.627-3.691-29.149-5.199-37.563-4.524-8.414.676-20.935 4.194-37.563 10.555-2.307-1.34-31.303 20.105-86.989 64.337C688.618 385.282 567.517 480.766 381 627.502c-6.667 12.334-6.667 21.834 0 28.5 10 10 13.753 9.109 21.5 7 1.622-.441 9.789-5.108 24.5-14l84-56.5-6 36.5c.182 4.511 1.349 7.677 3.5 9.5 2.151 1.824 5.818 2.824 11 3l50.5-27 99.672 41.696c-2.926 8.043-4.65 14.311-5.172 18.804-.522 4.494.145 7.327 2 8.5.076-.418 16.576 2.915 49.5 10 13.463 2.898 39.831 8.653 79.103 17.268 2.03 13.476 3.829 20.387 5.397 20.732 8.758 1.932 22.388 22.425 52 17.5 1.291-.214 5.125-7.881 11.5-23l7.327 102.597c-2.504 6.413-4.28 10.881-5.327 13.403-1.047 2.523-3.547 4.856-7.5 7-5.728 3.995-11.228 6.495-16.5 7.5-1.855.354-3.984 1.387-6.166 1.741-2.679.434-7.292.937-13.839 1.507L603.5 828.502c-6.054-2.194-11.387-.443-16 5.253-4.613 5.697-4.113 12.779 1.5 21.247l41.5 26-111.167-25.768c-6.26-1.005-11.038 1.173-14.333 6.535-2.162 3.517-3.1 7.284-2 11.233.384 1.381 1.545 3.501 3.483 6.359L548 906.502l-102.5-25.5h-5.931z" fill="#fff"/><path fill-rule="evenodd" clip-rule="evenodd" d="M971.857 351.688H960a5.5 5.5 0 0 1-5.5-5.5v-1a5.5 5.5 0 0 1 5.5-5.5h10.283c.229-6.605 5.129-12.318 11.9-13.343a14.11 14.11 0 0 1 2.094-.157h4.978c7.357 0 13.455 5.693 13.965 13.032l1.78 25.663-31.101.305-2.042-13.5z" fill="#fff"/><path fill-rule="evenodd" clip-rule="evenodd" d="M526 561.002c11.972 2.343 33.422 12.719 64.349 31.127 13.343 7.941 30.082 19.023 46.891 32.633 4.99 4.04 12.46 10.574 19.454 16.567 5.797 4.966 11.375 9.133 13.968 15.061 1.745 3.991-3.739 9.27-5.488 17.07-.324 1.448-.446 4.462.998 8.032.252.622.917 1.459 1.995 2.51 2.322-.389-1.502-1.058-11.473-2.008-19.268-1.835-31.354-1.063-42.401-5.02-19.62-7.029-33.255-13.89-40.904-20.584l43.399-19.579c-4.808-4.584-9.297-7.763-13.469-9.539-12.722-5.416-30.018-9.389-37.412-15.563-5.36-4.475-12.525-10.471-18.956-18.576-4.538-5.719-11.521-16.429-20.951-32.131z" fill="#FFF8D7"/><path fill-rule="evenodd" clip-rule="evenodd" d="M788.482 374.758a28.696 28.696 0 0 1-.271-3.979c0-4.845 1.489-9.797 4.165-13.246 3.383-4.36 8.591-6.623 14.28-6.623 6.579 0 12.354 3.711 15.619 9.296a23.93 23.93 0 0 1-.165-2.838c0-3.065.091-6.033 1.19-8.64 2.932-6.961 9.844-11.726 17.255-11.726 4.709 0 9.83 1.731 13.09 4.937 3.791 3.73 5.355 9.381 5.355 15.429 0 6.999-2.27 12.997-7.14 16.662-2.957 2.226-7.457 3.703-11.305 3.703-3.315 0-6.832-2.012-9.52-3.703-2.533-1.592-4.607-3.612-6.116-6.053.12.915.182 1.851.182 2.802 0 4.063-.438 7.691-2.38 10.838-3.305 5.353-9.65 9.031-16.065 9.031-4.468 0-9.304-1.368-12.495-4.215-1.339-1.194-2.44-2.625-3.314-4.226a10.918 10.918 0 0 1-4.329 8.133l-26.327 19.853a4 4 0 0 1-6.185-1.878l-3.07-8.814a8.998 8.998 0 0 1 2.132-9.32l.194-.195-2.657-.804a9.003 9.003 0 0 1-5.833-5.488l-2.51-6.778a4 4 0 0 1 3.581-5.386l32.748-1.39a11.84 11.84 0 0 1 9.891 4.618zm516.238 263.44 150.18 7.858c5.23.274 9.25 4.733 8.97 9.961v.001c-.27 5.229-4.73 9.245-9.96 8.972l-305.09-15.95a3.997 3.997 0 0 1-3.79-4.203l.32-6.091-.35-9.956a3.999 3.999 0 0 1 3.86-4.137l305.33-10.645c5.23-.183 9.62 3.911 9.8 9.144.19 5.232-3.91 9.622-9.14 9.804l-150.13 5.242z" fill="#341F16"/><path d="M924 319.252h58a.75.75 0 0 1 .75.75v25a.75.75 0 0 1-.75.75h-58c-5.937 0-10.75-4.812-10.75-10.75v-5c0-5.937 4.813-10.75 10.75-10.75zm57.25 1.5H924a9.25 9.25 0 0 0-9.25 9.25v5a9.25 9.25 0 0 0 9.25 9.25h57.25v-23.5z" fill="#341F16"/><path fill-rule="evenodd" clip-rule="evenodd" d="M1147 618.843v37.248c0 46.211-37.46 83.672-83.67 83.672h-92.464c-18.221.97-33.779-13.015-34.748-31.237a33.03 33.03 0 0 1 4.389-18.292l5.08-8.788c-22.288 1.811-24.455-11.32-6.5-39.39 17.954-28.071 28.547-55.422 31.779-82.054h117.294c32.5 0 58.84 26.344 58.84 58.841z" fill="#FFF8D7"/><path fill-rule="evenodd" clip-rule="evenodd" d="M1147 618.843v37.248c0 46.211-37.46 83.672-83.67 83.672h-92.464c-18.221.97-33.779-13.015-34.748-31.237a33.03 33.03 0 0 1 4.389-18.292l5.08-8.788c-22.288 1.811-24.455-11.32-6.5-39.39 17.954-28.071 28.547-55.422 31.779-82.054h117.294c32.5 0 58.84 26.344 58.84 58.841z" fill="#FFF8D7"/><path fill-rule="evenodd" clip-rule="evenodd" d="M788.482 374.758a28.696 28.696 0 0 1-.271-3.979c0-4.845 1.489-9.797 4.165-13.246 3.383-4.36 8.591-6.623 14.28-6.623 6.579 0 12.354 3.711 15.619 9.296a23.93 23.93 0 0 1-.165-2.838c0-3.065.091-6.033 1.19-8.64 2.932-6.961 9.844-11.726 17.255-11.726 4.709 0 9.83 1.731 13.09 4.937 3.791 3.73 5.355 9.381 5.355 15.429 0 6.999-2.27 12.997-7.14 16.662-2.957 2.226-7.457 3.703-11.305 3.703-3.315 0-6.832-2.012-9.52-3.703-2.533-1.592-4.607-3.612-6.116-6.053.12.915.182 1.851.182 2.802 0 4.063-.438 7.691-2.38 10.838-3.305 5.353-9.65 9.031-16.065 9.031-4.468 0-9.304-1.368-12.495-4.215-1.339-1.194-2.44-2.625-3.314-4.226a10.918 10.918 0 0 1-4.329 8.133l-26.327 19.853a4 4 0 0 1-6.185-1.878l-3.07-8.814a8.998 8.998 0 0 1 2.132-9.32l.194-.195-2.657-.804a9.003 9.003 0 0 1-5.833-5.488l-2.51-6.778a4 4 0 0 1 3.581-5.386l32.748-1.39a11.84 11.84 0 0 1 9.891 4.618z" fill="#341F16"/><path fill-rule="evenodd" clip-rule="evenodd" d="M526 561.002c11.972 2.343 33.422 12.719 64.349 31.127 13.343 7.941 30.082 19.023 46.891 32.633 4.99 4.04 12.46 10.574 19.454 16.567 5.797 4.966 11.375 9.133 13.968 15.061 1.745 3.991-3.739 9.27-5.488 17.07-.324 1.448-.446 4.462.998 8.032.252.622.917 1.459 1.995 2.51 2.322-.389-1.502-1.058-11.473-2.008-19.268-1.835-31.354-1.063-42.401-5.02-19.62-7.029-33.255-13.89-40.904-20.584l43.399-19.579c-4.808-4.584-9.297-7.763-13.469-9.539-12.722-5.416-30.018-9.389-37.412-15.563-5.36-4.475-12.525-10.471-18.956-18.576-4.538-5.719-11.521-16.429-20.951-32.131zm324.616-173.028a103.47 103.47 0 0 1 2.884-.497l-.176.45 13.806-.242.274.001c2.101-1.076 5.604-.897 10.509.537 43.622 13.271 70.016 15.072 79.18 5.404 9.165-9.668 13.861-17.211 14.09-29.086l38.817-.539c-.72 34.448-9.34 51.492-28.035 66.204-4.757 3.745-10.782 4.306-20.487 15.609-9.704 11.304-31.808 9.151-41.513 6.998-6.257-1.389-13.805-5.874-22.643-13.456v35.524h-71.508l-13.589 58.121h-46.45c-4.574-7.901-.307-37.227 12.81-57.936 7.211-11.383 10.626-36.929 22.427-55.79 7.551-12.069 22.842-26.248 49.474-31.277l.014-.023.116-.002z" fill="#FFF8D7"/><mask id="a" mask-type="alpha" maskUnits="userSpaceOnUse" x="852" y="294" width="68" height="97"><path d="M852 350.857v-22.855c0-18.777 15.222-34 34-34s34 15.223 34 34v23.516c0 9.941-8.059 18-18 18-.996 0-1.99-.082-2.972-.247-10.283-1.721-17.322-2.623-21.115-2.706l.087 21.252c-4.349 1.639-8.683 2.639-13 3-4.317.361-8.651-.506-13-2.599v-37.361z" fill="#fff"/></mask><g mask="url(#a)"><path d="M852 350.857v-22.855c0-18.777 15.222-34 34-34s34 15.223 34 34v23.516c0 9.941-8.059 18-18 18-.996 0-1.99-.082-2.972-.247-10.283-1.721-17.322-2.623-21.115-2.706l.087 21.252c-4.349 1.639-8.683 2.639-13 3-4.317.361-8.651-.506-13-2.599v-37.361z" fill="#fff"/></g><mask id="b" mask-type="alpha" maskUnits="userSpaceOnUse" x="851" y="294" width="73" height="98"><path d="m852 373.242-.847-44.746c-.354-18.693 14.513-34.134 33.206-34.487.214-.005.428-.007.641-.007h1.267c20.345 0 36.838 16.494 36.838 36.839 0 .928-.035 1.856-.105 2.781l-1.491 19.693c-.75 9.913-9.395 17.34-19.308 16.589a17.887 17.887 0 0 1-1.665-.204c-11.106-1.893-18.647-2.883-22.623-2.97l.087 21.272c-4.349 1.639-8.682 2.639-13 3-4.317.361-8.651-.505-13-2.599v-15.161z" fill="#fff"/></mask><g mask="url(#b)"><path d="m852 373.242-.847-44.746c-.354-18.693 14.513-34.134 33.206-34.487.214-.005.428-.007.641-.007h1.267c20.345 0 36.838 16.494 36.838 36.839 0 .928-.035 1.856-.105 2.781l-1.491 19.693c-.75 9.913-9.395 17.34-19.308 16.589a17.887 17.887 0 0 1-1.665-.204c-11.106-1.893-18.647-2.883-22.623-2.97l.087 21.272c-4.349 1.639-8.682 2.639-13 3-4.317.361-8.651-.505-13-2.599v-15.161z" fill="#fff"/><path fill-rule="evenodd" clip-rule="evenodd" d="M851.721 352.188c10.316 0 20.07-4.7 26.499-12.768l33.361-41.868 9.07 12.914L927 283.645l-78-6.457 2.721 75z" fill="#341F16"/></g><path d="M852.393 373.677 852 328.861c.08-3.067.246-5.408.499-7.022.069-.44.242-1.459.522-3.054 2.525-14.442 15.068-24.926 29.647-24.781l6.797.068c12.529.124 23.554 8.349 27.308 20.373 1.723 5.52 2.739 10.827 3.046 15.92.434 7.205.088 15.479-1.037 24.822-1.056 8.774-8.966 15.038-17.694 14.012l-23.157-2.723v8.526" stroke="#341F16" stroke-width="1.5" stroke-linecap="round" stroke-linejoin="round"/><path fill-rule="evenodd" clip-rule="evenodd" d="M922.735 319.002H984v27h-61.265a9 9 0 0 1-8.708-6.725c-.685-2.621-1.027-4.879-1.027-6.775 0-1.895.342-4.153 1.027-6.774a9 9 0 0 1 8.708-6.726z" fill="#fff"/><path d="M922.707 319.002H984v27h-61.293a8.97 8.97 0 0 1-8.675-6.705c-.688-2.63-1.032-4.894-1.032-6.795 0-1.9.344-4.165 1.032-6.794a8.971 8.971 0 0 1 8.675-6.706zm0 1.498a7.476 7.476 0 0 0-7.229 5.588c-.658 2.514-.983 4.656-.983 6.414 0 1.759.325 3.901.983 6.415a7.477 7.477 0 0 0 7.229 5.588h59.798V320.5h-59.798z" fill="#341F16"/><path fill-rule="evenodd" clip-rule="evenodd" d="m877.221 388.111-4.32.906.57-14.595H886l-8.779 13.689zm-4.566 1.114c-7.358.747-12.115.956-14.269.626-2.155-.33-4.675-1.338-7.562-3.023L848 374.002l21.891.739 2.764 14.484zm-23.391-108.394c-4.6.137-8.235-.029-10.904-.499-2.669-.471-5.122-1.581-7.36-3.33 9.718-3.816 17.218-6.316 22.5-7.5 12.472-2.794 22.749-3.88 27.229-3.67 16.366.768 30.178 5.551 42.645 11.684 5.9 2.902 14.249 9.057 25.046 18.466-5.932.028-10.239-.132-12.92-.48-5.063-.656-9.541-2.442-14-3-8.336-1.042-14.311 1.48-18.861-.035-4.65-1.547-8.37-4.009-11.67-4.479-8.632-1.231-13.729-.97-20.588-2.175-4.741-.833-11.78-2.494-21.117-4.982zM902 1078c1.905-2.59 3.239-4.43 4-5.5 3.463-4.87 5.896-8.07 8-10 7.45-6.83 19.54-1.77 26.5-7 5.348-4.01 8.878-8.45 13.5-12.5 4.018-3.51 8.951-2.98 14-3 6.597-.02 13.342-.15 18-3 6.032-3.68 11.875-9.51 17.5-10.5 8.43-1.48 15.69 1.84 22.5.5 7.86-1.54 13.49-6.86 19.5-9 4.47-1.59 8.66-1.42 16.5 1 2.25.7 6.41 2.03 12.5 4 1.77 6.83 2.77 12.17 3 16 .22 3.58.32 7.01 0 11-2 25-13.07 36.19-27.5 46.5-4.66 3.33-8.67 3.82-11.5 5-4.67 1.96-7.24 3.63-16 4.5-1.89.19-5.58.27-8 .5-7.75.76-23.174-5.12-51-12.5-14.171-3.75-34.671-9.09-61.5-16z" fill="#FFF8D7"/><path fill-rule="evenodd" clip-rule="evenodd" d="m799.095 730.002-11.214 22.01a4 4 0 0 0 1.875 5.441l11.175 5.208a4 4 0 0 0 5.229-1.763l2.84-5.396 1.64 8.219a14.001 14.001 0 0 0 6.544 9.277l30.237 18.08a7 7 0 0 0 10.573-6.529l-2.756-36.854" fill="#341F16"/><path fill-rule="evenodd" clip-rule="evenodd" d="M992.552 312.002h87.208l.24 41-87.373-.472a13 13 0 0 1-12.101-8.433c-1.684-4.488-2.526-8.277-2.526-11.365 0-3.034.704-6.87 2.113-11.508a13.001 13.001 0 0 1 12.439-9.222z" fill="#fff"/><path d="M992.75 312.002h87.5c.41 0 .75.34.75.76v39.481c0 .42-.34.759-.75.759h-87.5c-8.146 0-14.75-6.685-14.75-14.932v-11.135c0-8.247 6.604-14.933 14.75-14.933zm86.75 1.519h-86.75c-7.318 0-13.25 6.005-13.25 13.414v11.135c0 7.408 5.932 13.414 13.25 13.414h86.75v-37.963z" fill="#341F16"/><path fill-rule="evenodd" clip-rule="evenodd" d="m1090.01 307.806 4.59-.656 79.4-.148v50.853l-80.79.136a15.991 15.991 0 0 1-11.28-4.631c-3.37-3.333-5.12-5.11-5.25-5.329-4.17-6.964-2.23-11.467-2.23-15.602 0-3.726.86-8.282 2.59-13.668a16.005 16.005 0 0 1 12.97-10.955z" fill="#fff"/><path d="M1097 592.002h-25c-14.36 0-26 11.641-26 26v4c0 14.36 11.64 26 26 26h25c14.36 0 26-11.64 26-26v-4c0-14.359-11.64-26-26-26z" fill="#fff"/><mask id="c" mask-type="alpha" maskUnits="userSpaceOnUse" x="1046" y="592" width="77" height="57"><path d="M1097 592.002h-25c-14.36 0-26 11.641-26 26v4c0 14.36 11.64 26 26 26h25c14.36 0 26-11.64 26-26v-4c0-14.359-11.64-26-26-26z" fill="#fff"/></mask><g mask="url(#c)"><path d="M1082 599.502c0-7.455-6.04-13.5-13.5-13.5s-13.5 6.045-13.5 13.5v10c0 7.456 6.04 13.5 13.5 13.5s13.5-6.044 13.5-13.5v-10z" fill="#341F16"/></g><path d="M890.239 334.258a.77.77 0 0 1 1.063-.186c3.414 2.357 6.447 2.482 9.277.405a.769.769 0 0 1 1.067.155.746.746 0 0 1-.157 1.053c-3.375 2.477-7.122 2.34-11.062-.379a.747.747 0 0 1-.188-1.048zm12.655 18.328a.747.747 0 0 1 .341-1.009c1.467-.724 3.276-1.083 5.426-1.083 2.183 0 3.844.369 4.999 1.129a.747.747 0 0 1 .212 1.044.77.77 0 0 1-1.058.209c-.878-.577-2.27-.877-4.153-.877-1.918 0-3.5.31-4.744.924a.767.767 0 0 1-1.023-.337zm7.057-17.543a13.58 13.58 0 0 0-5.326-7.938c-6.157-4.413-14.773-3.066-19.245 3.009a.77.77 0 0 1-1.065.167.747.747 0 0 1-.169-1.052c4.967-6.747 14.537-8.244 21.375-3.342a15.088 15.088 0 0 1 5.917 8.817l2.542 10.854a.755.755 0 0 1-.743.922h-5.373a.757.757 0 0 1-.762-.753c0-.416.341-.752.762-.752h4.414l-2.327-9.932zm184.929-29.041h60.37c.41 0 .75.339.75.758v51.485c0 .418-.34.757-.75.757h-60.37c-12.08 0-21.88-9.83-21.88-21.957v-9.085c0-12.127 9.8-21.958 21.88-21.958zm59.61 1.515h-59.61c-11.25 0-20.37 9.152-20.37 20.443v9.085c0 11.291 9.12 20.443 20.37 20.443h59.61v-49.971z" fill="#341F16"/><path fill-rule="evenodd" clip-rule="evenodd" d="M994.5 306.208a5.501 5.501 0 0 1 5-3.206h1c3.04 0 5.5 2.463 5.5 5.5v13c0 3.038-2.46 5.5-5.5 5.5h-1a5.502 5.502 0 0 1-5.223-3.772A5.5 5.5 0 0 1 984 320.502v-12a5.5 5.5 0 0 1 10.5-2.294zm-21 2.794a5.5 5.5 0 0 1 5.5 5.5v13a5.5 5.5 0 1 1-11 0v-13a5.5 5.5 0 0 1 5.5-5.5z" fill="#fff"/><path d="M842.41 752.422a.744.744 0 0 1-.318-1.021.787.787 0 0 1 1.05-.309l12.413 6.455a.744.744 0 0 1 .319 1.021.787.787 0 0 1-1.05.309l-12.414-6.455zm.023 6.047a.744.744 0 0 1-.353-1.01.786.786 0 0 1 1.039-.343l13.448 6.455a.746.746 0 0 1 .353 1.011.786.786 0 0 1-1.039.342l-13.448-6.455z" fill="#fff"/><path d="m938.766 561.002-.031.15a.75.75 0 0 1-1.485-.15h-39.528a.75.75 0 0 1 0-1.5h39.818l22.725-111.649a.75.75 0 0 1 1.47.299l-22.664 111.35h148.169c33.56 0 60.76 27.186 60.76 60.722v33.984c0 47.336-38.4 85.71-85.76 85.71h-94.423l107.123 281.852.04.16 2.12 15.39c4.61 33.56-18.87 64.5-52.45 69.11-4.64.64-9.33.74-13.98.31l-.12-.02-108.976-28.47-.094-.03-466.035-147.426-.108-.044-3.974-1.978c-12.808-6.376-18.019-21.921-11.64-34.722a25.913 25.913 0 0 1 26.032-14.193l.099.018 97.856 24.331-35.229-21.782c-7.398-4.574-9.685-14.276-5.109-21.67a15.756 15.756 0 0 1 17.027-7.036l105.911 25.076-34.509-21.159c-7.886-4.836-10.356-15.145-5.518-23.026a16.754 16.754 0 0 1 16.561-7.831l18.954 2.606 200.469 28.479h10.54c18.06 0 33.793-12.295 38.156-29.8l-7.492-101.333a.749.749 0 1 1 1.496-.111l7.501 101.453a.77.77 0 0 1-.02.234c-4.487 18.237-20.851 31.056-39.641 31.056h-10.593l-.105-.007-200.519-28.486-18.95-2.606a15.258 15.258 0 0 0-15.079 7.13c-4.404 7.175-2.155 16.561 5.025 20.964l38.499 23.607c.727.445.265 1.565-.565 1.368l-110.467-26.155a14.255 14.255 0 0 0-15.405 6.366c-4.141 6.69-2.071 15.468 4.622 19.606l39.309 24.304c.728.45.255 1.572-.576 1.365l-102.462-25.476a24.412 24.412 0 0 0-24.475 13.377c-6.01 12.059-1.1 26.705 10.966 32.711l3.922 1.952 465.48 147.248 7.265-9.94a23.748 23.748 0 0 1 16.412-9.59l8.282-.97a19.23 19.23 0 0 0 11.783-5.94l5.766-6.13a16.753 16.753 0 0 1 12.21-5.28h13.765c3.918 0 7.718-1.33 10.777-3.78l5.883-4.7a21.788 21.788 0 0 1 15.753-4.66l8.49.85c5 .5 10.03-.71 14.26-3.44l5.53-3.55c6.65-4.29 14.9-5.28 22.37-2.69l13.21 4.57-106.995-281.509a34.6 34.6 0 0 1-15.758-5.672c-15.873-10.625-20.122-32.099-9.49-47.963l2.572-3.838a15.06 15.06 0 0 1-10.511-1.938c-7.106-4.31-9.371-13.561-5.059-20.663 14.85-24.459 24.053-40.76 27.592-48.869 4.879-11.175 9.637-27.822 14.267-49.926h-31.042zm-381.882-1.999a.747.747 0 0 1 .293-.41l70.525-48.981a.75.75 0 0 1 .856 1.232l-69.341 48.159h81.632l89.919-56.407a.75.75 0 1 1 .797 1.27l-87.894 55.137h181.043a.75.75 0 1 1 0 1.499H526.977c3.511 6.107 6.376 10.924 8.593 14.451a.749.749 0 0 1 .693 1.095c8.71 13.697 16.209 23.097 26.403 31.606 4.226 3.528 10.002 6.476 18.349 9.73 1.687.658 13.01 4.822 15.799 5.985a58.385 58.385 0 0 1 3.713 1.683 121.527 121.527 0 0 1 16.604 10.057.75.75 0 0 1-.117 1.285l-40.806 19.42c12.741 8.379 24.327 14.608 34.756 18.686a50.05 50.05 0 0 0 4.497 1.518c5.252 1.498 9.975 2.091 19.828 2.743l3.586.234c1.486.097 2.661.177 3.837.26 3.032.213 5.767.433 8.553.694 3.223.302 8.904 1.137 17.094 2.514l127.014 27.987a.75.75 0 1 1-.323 1.464l-126.977-27.98c-8.118-1.363-13.772-2.194-16.948-2.492-2.773-.26-5.497-.479-8.518-.692a711.336 711.336 0 0 0-3.83-.259l-3.587-.234c-9.954-.658-14.757-1.262-20.141-2.798a50.93 50.93 0 0 1-4.631-1.563c-10.839-4.238-22.886-10.76-36.146-19.564a.75.75 0 0 1 .092-1.301l40.855-19.444a120.297 120.297 0 0 0-15.366-9.196 57.467 57.467 0 0 0-3.617-1.639c-2.754-1.148-14.053-5.303-15.766-5.971-3.538-1.38-6.626-2.707-9.342-4.051a.774.774 0 0 1-.186.13c-21.896 10.798-37.55 19.119-46.953 24.954-6.042 3.751-13.983 1.896-17.736-4.142a12.867 12.867 0 0 1-1.728-9.109l6.008-32.769-100.558 66.565c-9.621 6.369-22.535 4.189-29.529-4.983-6.979-9.154-5.6-22.159 3.144-29.649l5.991-5.13 105.26-83.269 290.903-230.127 27.858-20.305a100.832 100.832 0 0 1 32.375-15.659l11.283-3.137a84.752 84.752 0 0 1 56.617 3.983l5.448 2.379a100.778 100.778 0 0 1 43.301 36.119l5.246 7.804a.75.75 0 0 1-1.245.836l-5.247-7.803a99.178 99.178 0 0 0-12.312-14.93.749.749 0 0 1-.268.071c-5.421.409-9.472.409-12.175-.006-2.031-.312-5.199-1.152-9.522-2.519a26.275 26.275 0 0 0-9.424-1.181l-5.674.324a27.785 27.785 0 0 1-13.216-2.508l-1.095-.505a28.282 28.282 0 0 0-11.842-2.599h-8.454c-5.17 0-10.298-.937-15.134-2.765l-4.459-1.686a37.283 37.283 0 0 0-12.701-2.407 58.082 58.082 0 0 1-3.453-.141c-2.687-.197-6.377-.699-11.077-1.508a.747.747 0 0 1-.462-.276 99.3 99.3 0 0 0-15.626 9.326l-27.834 20.287-290.88 230.108-105.238 83.251-5.968 5.112c-8.14 6.972-9.424 19.079-2.926 27.601 6.514 8.544 18.544 10.574 27.506 4.642l102.023-67.535 23.102-15.87c-2.359-3.754-5.437-8.943-9.234-15.568a.75.75 0 0 1-.08-.191l-.002-.005a.775.775 0 0 1-.02-.264.762.762 0 0 1 .097-.3.766.766 0 0 1 .439-.344l.018-.004a.688.688 0 0 1 .206-.025h31.189zm12.617 54.896c-3.062-1.616-5.617-3.275-7.796-5.094-10.307-8.603-17.878-18.082-26.632-31.833l-22.802 15.665-6.27 34.196a11.365 11.365 0 0 0 1.527 8.048c3.316 5.335 10.331 6.973 15.669 3.66 9.342-5.798 24.773-14.01 46.304-24.642zm397.262 124.52h95.477c46.54 0 84.26-37.703 84.26-84.211v-33.984c0-32.708-26.53-59.222-59.26-59.222h-115.9c-4.668 22.349-9.474 39.187-14.424 50.526-3.576 8.192-12.799 24.529-27.685 49.047-3.882 6.394-1.843 14.723 4.555 18.603a13.555 13.555 0 0 0 11.21 1.304c.678-.219 1.251.54.855 1.131l-3.658 5.457c-10.171 15.176-6.106 35.719 9.078 45.884a33.109 33.109 0 0 0 15.492 5.465zm106.867 284.701-14.14-4.89a24.224 24.224 0 0 0-21.07 2.53l-5.52 3.55c-4.52 2.91-9.89 4.2-15.23 3.67l-8.49-.85a20.265 20.265 0 0 0-14.665 4.34l-5.884 4.7a18.752 18.752 0 0 1-11.714 4.11h-13.765c-4.211 0-8.234 1.74-11.116 4.8l-5.767 6.14a20.76 20.76 0 0 1-12.7 6.4l-8.283.97a22.248 22.248 0 0 0-15.375 8.98l-6.933 9.49 107.882 28.2c4.53.41 9.08.3 13.58-.31 32.76-4.5 55.67-34.69 51.17-67.43l-1.98-14.4zM947.684 295.136a99.296 99.296 0 0 0-28.96-19.3l-5.448-2.379a83.247 83.247 0 0 0-55.614-3.912l-11.283 3.137a99.27 99.27 0 0 0-14.178 5.13c4.006.666 7.194 1.085 9.559 1.258 1.04.076 2.162.122 3.364.138 4.516.059 8.988.906 13.212 2.503l4.459 1.686a41.275 41.275 0 0 0 14.603 2.669h8.454c4.306 0 8.561.934 12.471 2.737l1.094.505a26.287 26.287 0 0 0 12.503 2.372l5.674-.324a27.797 27.797 0 0 1 9.961 1.248c4.256 1.346 7.362 2.169 9.298 2.467 2.402.369 6.018.393 10.831.065z" fill="#341F16"/><path d="M527.423 560.433a.754.754 0 0 1 .657-1.355c36.062 17.577 62.466 31.813 79.221 42.717 14.844 9.659 34.636 24.825 59.384 45.502 5.518 4.61 6.928 12.53 3.341 18.769-1.844 3.206-2.937 5.964-3.286 8.261-.641 4.209.257 6.909 2.635 8.268a.754.754 0 0 1-.745 1.308c-2.996-1.712-4.101-5.036-3.376-9.803.382-2.506 1.541-5.431 3.47-8.786 3.222-5.604 1.955-12.719-3.002-16.86-24.706-20.642-44.455-35.775-59.239-45.396-16.693-10.863-43.049-25.074-79.06-42.625zm89.76 75.843a.753.753 0 0 1 .456-1.435l22.039 7.028a.754.754 0 0 1-.456 1.435l-22.039-7.028zm-68.618 270.942a.757.757 0 0 1 .371-1.466l115.5 29.761a.757.757 0 0 1-.372 1.466l-115.499-29.761zm82.519-25.721a.755.755 0 0 1-.565-.905.75.75 0 0 1 .897-.571l158.999 36.319a.756.756 0 0 1 .566.905.75.75 0 0 1-.897.571l-159-36.319zm440.346-290.464h25.14c14.86 0 26.9 12.066 26.9 26.951v4.03c0 14.884-12.04 26.951-26.9 26.951h-25.14c-14.86 0-26.9-12.067-26.9-26.951v-4.03c0-14.885 12.04-26.951 26.9-26.951zm0 1.511c-14.02 0-25.39 11.39-25.39 25.44v4.03c0 14.05 11.37 25.44 25.39 25.44h25.14c14.02 0 25.39-11.39 25.39-25.44v-4.03c0-14.05-11.37-25.44-25.39-25.44h-25.14zm-1.51-5.542h28.16c17.08 0 30.92 13.871 30.92 30.982v5.037c0 17.111-13.84 30.981-30.92 30.981h-28.16c-17.08 0-30.92-13.87-30.92-30.981v-5.037c0-17.111 13.84-30.982 30.92-30.982zm0 1.512c-16.24 0-29.41 13.194-29.41 29.47v5.037c0 16.276 13.17 29.47 29.41 29.47h28.16c16.24 0 29.41-13.194 29.41-29.47v-5.037c0-16.276-13.17-29.47-29.41-29.47h-28.16zm-257.612-51.915-3.034 23.406a.75.75 0 0 1-.751.655l-57.597-.501a.748.748 0 0 1-.452-.156 6.34 6.34 0 0 1 3.865-11.365h22.732l10.296-15.69a.751.751 0 1 1 1.256.825l-10.518 16.029a.753.753 0 0 1-.628.339h-23.138a4.837 4.837 0 0 0-3.138 8.518l56.669.493 3.42-26.389a.752.752 0 0 1 1.49.193l-.024.19c2.283 7.022 4.112 12.176 5.482 15.453 1.34 3.205 3.791 6.636 7.391 10.321 2.791 3.273 4.682 7.397 5.674 12.362.988 4.939.988 10.209.001 15.818-3.91 20.314-7.253 35.36-10.032 45.145-2.779 9.788-7.462 23.001-14.054 39.659-6.401 15.138-10.056 26.272-10.965 33.364-.893 6.964.22 15.081 3.35 24.35l55.084 17.708 46.282-107.995 3.418-11.031a75.4 75.4 0 0 0-1.198-48.178l-21.741-59.527a.752.752 0 0 1 .706-1.01h7.513a.752.752 0 0 1 0 1.503h-6.439l21.372 58.518a76.895 76.895 0 0 1 1.222 49.138l-3.445 11.105-46.578 108.698a.752.752 0 0 1-.921.419l-56.095-18.032a.751.751 0 0 1-.48-.473c-3.292-9.62-4.477-18.081-3.541-25.384.931-7.263 4.622-18.503 11.066-33.742 6.568-16.6 11.235-29.769 13.999-39.5 2.765-9.735 6.1-24.744 10-45.007.953-5.419.953-10.501.003-15.251-.945-4.724-2.727-8.613-5.31-11.644-3.689-3.773-6.247-7.354-7.668-10.754-1.186-2.836-2.7-7.027-4.544-12.58zm126.619 22.987a.752.752 0 0 1-1.357.646l-40.568-85.155a.75.75 0 1 1 1.356-.646l40.569 85.155zm-97.585-84.437a.752.752 0 0 1 1.488.212l-2.881 20.169c-1.368 9.577-10.239 16.231-19.814 14.863a17.474 17.474 0 0 1-1.771-.347.751.751 0 0 1 .365-1.458c.533.133 1.074.239 1.618.317 8.754 1.251 16.864-4.833 18.114-13.587l2.881-20.169zm-5.508-.006a.75.75 0 1 1 1.486.223l-2.7 18.002c-1.044 6.96-7.531 11.755-14.49 10.711l-.205-.032a.751.751 0 0 1 .247-1.482l.181.028c6.138.921 11.86-3.309 12.781-9.448l2.7-18.002zm-28.05 84.669.752-.655-.666-.005-.086.66z" fill="#341F16"/><path d="M877.045 389.126c-.98.515-2.096.931-3.347 1.25v21.018a.751.751 0 0 1-.749.752.75.75 0 0 1-.749-.752V390.7c-2.468.446-5.394.572-8.779.383-5.837-.325-9.854-1.278-12.087-2.92l-15.382 5.041c-19.667 6.446-35.07 21.965-41.426 41.739l-9.491 29.527a32.933 32.933 0 0 1-1.871 4.598l-11.474 23.048a59.15 59.15 0 0 0-4.503 40.382h44.258l23.329-98.712a.75.75 0 1 1 1.458.348l-9.5 40.194h69.922l-.489-35.343a.75.75 0 0 1 1.231-.587c6.015 5.073 11.133 8.721 15.344 10.943 4.175 2.203 8.736 3.679 13.687 4.427h14.264a31.053 31.053 0 0 0 23.071-10.284 68.682 68.682 0 0 1 17.599-14.031c7.008-3.906 12.926-10.046 17.756-18.436 6.453-11.216 9.923-26.719 10.373-46.51h-38.052c-1.153 6.634-2.121 11.134-2.916 13.527-4.574 13.783-17.694 22.85-32.147 22.214-5.753-.253-11.126-.803-16.12-1.652-9.923-1.687-24.324-4.843-43.21-9.47zm1.114-1.276c18.481 4.518 32.598 7.606 42.346 9.263 4.93.838 10.242 1.382 15.936 1.632 13.784.607 26.297-8.041 30.66-21.187.788-2.374 1.781-7.027 2.969-13.931a.75.75 0 0 1 .737-.625h39.443c.42 0 .76.346.75.767-.38 20.391-3.9 36.392-10.59 48.001-4.956 8.616-11.065 14.953-18.323 18.998a67.222 67.222 0 0 0-17.215 13.726 32.544 32.544 0 0 1-24.181 10.778h-14.319l-.111-.008c-5.136-.77-9.877-2.301-14.217-4.591-4.021-2.122-8.804-5.48-14.358-10.076l.476 34.473a.75.75 0 0 1-.749.762h-70.897a.776.776 0 0 1-.137-.012l-13.614 57.604a.748.748 0 0 1-.728.578h-45.435a.748.748 0 0 1-.725-.565 60.655 60.655 0 0 1 4.474-41.994l11.473-23.047a31.397 31.397 0 0 0 1.786-4.388l9.49-29.527c6.504-20.233 22.264-36.112 42.388-42.707l15.067-4.938-3.788-12.838a.752.752 0 0 1 .752-.965l22.467 1.002a.75.75 0 0 1 .702.609l1.727 8.962.285-8.843a.75.75 0 0 1 .748-.728h12.482c.598 0 .955.669.623 1.169l-8.394 12.646zm-1.737-.095 8.109-12.216h-10.358l-.426 13.267a13.27 13.27 0 0 0 2.675-1.051zm-7.092-12.243-20.828-.93 3.629 12.301c1.902 1.46 5.706 2.382 11.373 2.698 3.294.184 6.117.06 8.466-.368l-2.64-13.701z" fill="#341F16"/><path fill-rule="evenodd" clip-rule="evenodd" d="m1224 364.318.5-64.816h-61.48c-4.63 0-8.8 2.768-10.6 7.026-3.28 7.771-4.92 16.261-4.92 25.474 0 9.204 1.64 17.686 4.91 25.45a11.5 11.5 0 0 0 10.63 7.031l60.96-.165z" fill="#341F16" stroke="#341F16"/><path fill-rule="evenodd" clip-rule="evenodd" d="M1224.5 364.002c3.31 0 5.5-13.55 5.5-31.5 0-17.949-2.69-32.5-6-32.5s-5 14.551-5 32.5c0 17.95 2.19 31.5 5.5 31.5z" fill="#fff"/><path d="M995.101 323.571a6.323 6.323 0 0 1-5.569 3.333c-3.496 0-6.329-2.844-6.329-6.352v-12.197c0-3.508 2.833-6.353 6.329-6.353a6.323 6.323 0 0 1 5.569 3.333 6.325 6.325 0 0 1 5.569-3.333c3.5 0 6.33 2.845 6.33 6.353v12.197c0 3.508-2.83 6.352-6.33 6.352a6.325 6.325 0 0 1-5.569-3.333zm-.759-3.019v-12.197c0-2.666-2.154-4.828-4.81-4.828-2.657 0-4.811 2.162-4.811 4.828v12.197c0 2.666 2.154 4.827 4.811 4.827 2.656 0 4.81-2.161 4.81-4.827zm1.519 0c0 2.666 2.153 4.827 4.809 4.827 2.66 0 4.81-2.161 4.81-4.827v-12.197c0-2.666-2.15-4.828-4.81-4.828-2.656 0-4.809 2.162-4.809 4.828v12.197zm-22.532-12.451c3.496 0 6.329 2.844 6.329 6.352v12.197c0 3.508-2.833 6.352-6.329 6.352-3.495 0-6.329-2.844-6.329-6.352v-12.197c0-3.508 2.834-6.352 6.329-6.352zm0 1.524c-2.656 0-4.81 2.162-4.81 4.828v12.197c0 2.666 2.154 4.828 4.81 4.828 2.657 0 4.81-2.162 4.81-4.828v-12.197c0-2.666-2.153-4.828-4.81-4.828zm1.19 54.782a.754.754 0 0 0 .731.595h30c.44 0 .78-.384.75-.832l-1-12.292a.761.761 0 0 0-.81-.702.764.764 0 0 0-.69.829l.93 11.461h-28.583l-2.866-12.722a.755.755 0 0 0-.731-.595h-11.009c-2.268 0-4.279-1.491-4.987-3.698-.401-1.247-.678-1.921-.974-2.224a.737.737 0 0 0-1.06 0 .782.782 0 0 0 0 1.087c.051.053.301.659.609 1.617.911 2.837 3.497 4.754 6.412 4.754h10.412l2.866 12.722zm249.981.595c3.93 0 6.5-14.499 6.5-33 0-18.5-2.57-33-6.5-33s-6.5 14.5-6.5 33c0 18.501 2.57 33 6.5 33zm0-1.511c-2.39 0-4.94-14.373-4.94-31.489 0-17.115 2.55-31.488 4.94-31.488 2.39 0 4.94 14.373 4.94 31.488 0 17.116-2.55 31.489-4.94 31.489z" fill="#341F16"/><path fill-rule="evenodd" clip-rule="evenodd" d="m1215 304.213 4-12.211 3 11.702 17 5.088-17 2.035-6 10.175-1.22-7.462-1.78-1.695-18-5.597 20-2.035z" fill="#fff"/><path d="M1218.6 291.508c.26-.726 1.3-.651 1.46.104l2.47 12.129 16.9 4.352c.81.21.73 1.397-.1 1.495l-16.96 1.985-5.78 11.022c-.33.63-1.27.501-1.42-.195l-2.07-9.717-18.56-5.56c-.79-.239-.68-1.405.14-1.488l19.6-1.984 4.32-12.143zm-3.85 12.095-.63.501.16-.453.47-.048zm.79 1.015a.738.738 0 0 1-.63.501l-16.26 1.645 15.31 4.588c.27.079.47.298.53.57l1.73 8.106 4.99-9.521a.773.773 0 0 1 .58-.401l13.3-1.557-13.4-3.45a.758.758 0 0 1-.55-.585l-2.02-9.929-3.58 10.033z" fill="#341F16"/></svg>