<svg width="1840" height="1380" viewBox="0 0 1840 1380" fill="none" xmlns="http://www.w3.org/2000/svg"><path d="M921.431 388.131c35.99 36.692 57.999 70.211 70.635 91.814 55.494 94.877 40.184 174.801 95.534 375.229 9.06 32.83 12.97 68.55 22.03 101.36 86.19-26.933 177.51-56.802 263.69-83.735l-129.27-77.89c1.45-4.28 9.59-29.643-4.41-55.823-15.69-29.334-46.13-35.308-49.95-35.99 3.16-6.341 12.88-27.783 5.88-52.881-7.72-27.738-32.69-48.871-63.9-54.356 2.08-4.918 15.14-37.207-1.47-71.98-17.66-36.937-54.28-46.271-59.04-47.384 1.8-2.105 33.89-40.896 18.28-88.364-12.87-39.208-48.34-53.982-53.43-56.003-6.72-1.577-46.513-10.242-81.75 14.805-19.601 13.937-28.89 31.974-32.829 41.198z" fill="#FF3636"/><path d="m1108.3 958.974-.53-1.931c-4.55-16.48-7.86-33.95-11.05-50.854-3.2-16.904-6.44-34.201-10.99-50.532-23.46-84.971-34.34-148.905-43.08-200.273-11.86-69.721-20.43-120.092-52.251-174.486-18.971-32.425-42.634-63.188-70.346-91.408l-.907-.921.508-1.191c5.098-11.928 15.044-28.903 33.473-42.015 34.021-24.178 72.363-17.677 83.313-15.108l.27.083c6.87 2.73 41.76 18.295 54.55 57.195 14.07 42.768-9.65 78.45-16.73 87.854 11.06 3.174 41.64 14.658 57.42 47.693 14.93 31.253 6.64 60.349 2.4 71.356 30.81 6.238 55.43 27.732 63.09 55.296 6.1 21.951 0 41.262-4.93 52.006 9.25 2.118 34.76 10.17 48.84 36.479 12.79 23.914 7.66 47.294 5.01 55.868L1378 873.366l-4.1 1.287c-43.09 13.46-88.19 27.905-131.85 41.842-43.65 13.936-88.75 28.394-131.84 41.841l-1.91.638zM923.722 387.707c27.539 28.227 51.092 58.925 70.011 91.266 32.187 54.999 40.797 105.666 52.727 175.786 8.73 51.285 19.59 115.116 43 199.9 4.55 16.479 7.85 33.944 11.05 50.854 3.06 16.151 6.21 32.83 10.46 48.601 42.48-13.293 86.9-27.506 129.9-41.263 42.26-13.518 85.92-27.493 127.78-40.593l-126.93-76.447.5-1.468c2.25-6.643 8.61-30.19-4.29-54.291-14.8-27.68-43.06-34.021-48.58-35.006l-2.53-.45 1.15-2.311c4.81-9.656 11.95-29.16 5.74-51.497-7.46-26.831-31.94-47.636-62.38-52.972l-2.39-.418.95-2.234c3.55-8.368 13.95-38.198-1.43-70.397-16.74-35.108-51.04-44.784-57.74-46.348l-3.09-.727 2.07-2.408c1.36-1.596 33.32-39.633 17.91-86.502-12.18-37.027-45.29-52.006-52.18-54.762-10.72-2.497-47.49-8.612-80.05 14.536-17.11 12.114-26.617 27.763-31.658 39.151z" fill="#000"/><path d="m992.24 391.067-168.654-95.316 1.854-1.802c17.779-17.181 41.275-25.356 64.404-22.331a69.053 69.053 0 0 1 50.467 33.068l51.929 86.381zm-162.217-96.12L981.38 380.49l-44.377-73.808a65.215 65.215 0 0 0-47.636-31.227c-21.191-2.768-42.672 4.319-59.344 19.492z" fill="#000"/><path d="m1234.85 397.935-255.743-14.767 119.543-53.763a98.141 98.141 0 0 1 41.75-8.624 98.242 98.242 0 0 1 41.48 9.891 98.24 98.24 0 0 1 33.37 26.538 98.227 98.227 0 0 1 18.97 38.183l.63 2.542zM995.072 380.22l234.728 13.557a94.173 94.173 0 0 0-18.81-35.66 94.31 94.31 0 0 0-110.76-25.184L995.072 380.22z" fill="#000"/><path d="M1148.66 468.596c-.32.001-.65-.081-.93-.238l-160.287-88.189a1.934 1.934 0 0 1 1.867-3.386l160.29 88.189c.37.206.67.532.84.926.17.394.2.833.1 1.249a1.95 1.95 0 0 1-.69 1.046c-.34.262-.76.404-1.19.403z" fill="#000"/><path d="M1016.38 400.04c5.42 6.869 16.74 24.462 22.21 44.095 5.47 19.633 6.97 34.915 7.21 38.623 1.68 25.626 19.91 136.468 73.9 426.785a263.143 263.143 0 0 1-103 84.327 1027.873 1027.873 0 0 1-52.784-63.728 1023.555 1023.555 0 0 1-54.716-79.177l-229.807 9.012c-24.094-1.082-81.855-7.21-122.95-50.854-23.393-24.841-31.426-51.266-45.331-96.963-13.035-42.859-15.938-77.729-22.201-138.4-2.131-20.599-3.541-43.772-3.689-70.757v-1.371a113.937 113.937 0 0 1 106.703-114.26l138.174-8.896h.122c128.673-6.785 142.068-10.641 179.945-8.684 49.656 2.556 86.245 4.944 106.214 30.248z" fill="#fff"/><path d="M1021.85 403.581c-29.257 10.035-71.703 20.373-128.099 18.668-75.959-2.298-133.379-27.629-163.659-43.773 53.911-1.455 97.008-4.204 126.317-6.437 45.356-3.457 71.124-4.796 106.857 2.575 40.564 8.368 45.094 20.154 58.584 28.967z" fill="#FF3636"/><path d="M730.247 378.476s-144.238 85.659-234.011 73.725a114.045 114.045 0 0 1 95.689-64.829l138.174-8.896h.148z" fill="#FF3636"/><path d="m1011.16 999.573-1.09-1.455c-17.895-23.817-34.844-48.723-51.233-72.824-16.138-23.721-32.83-48.278-50.378-71.665-34.561 2.639-146.973 10.544-227.831 8.6-11.091-.27-34.155-.824-61.546-10.756-34.072-12.353-55.964-31.163-68.33-44.764-22.678-24.938-36.048-47.352-41.842-94.273-2.523-20.38-6.006-38.81-9.701-58.321-7.782-41.198-15.835-83.767-16.209-151.132v-1.384a115.01 115.01 0 0 1 11.195-50.383 116.448 116.448 0 0 1 97.587-66.11c41.868-2.691 83.737-5.388 125.609-8.092l12.655-.811h.058c50.815-2.684 83.349-4.886 107.109-6.488 36.402-2.466 50.023-3.393 73.068-2.202 48.53 2.51 86.857 4.506 107.869 31.111 5.79 7.351 17.08 25.073 22.61 44.886 2.11 7.577 5.28 22.318 7.28 38.932.2 1.706.34 3.039.45 3.959l.06.599c3.22 29.276 27.89 171.3 73.39 422.124l.17.946-.57.779a266.042 266.042 0 0 1-51.93 53.564c-19.4 15.037-42.71 27.918-56.77 34.381l-1.68.779zm-100.583-150.63.747.991c17.895 23.818 34.844 48.723 51.233 72.824 16.029 23.567 32.592 47.912 50.023 71.195 13.97-6.579 35.88-18.848 54.23-33.087a261.05 261.05 0 0 0 50.5-51.871c-45.39-250.328-70.03-392.12-73.24-421.487l-.06-.605c-.1-.907-.24-2.227-.45-3.901-1.93-16.363-5.08-30.84-7.14-38.262-5.33-19.125-16.22-36.222-21.81-43.303-19.745-25.021-57.177-26.953-104.561-29.399-22.781-1.178-36.325-.264-72.534 2.189-23.772 1.609-56.325 3.811-107.179 6.495h-.09l-12.559.811-125.621 8.085a111.957 111.957 0 0 0-93.803 63.529 110.645 110.645 0 0 0-10.795 48.414v1.352c.373 66.946 8.368 109.354 16.131 150.34 3.702 19.582 7.204 38.082 9.74 58.578 5.665 45.704 18.668 67.545 40.741 91.801 12.024 13.222 33.325 31.542 66.528 43.554 26.701 9.655 49.27 10.228 60.117 10.486 81.643 1.931 195.626-6.148 228.616-8.684l1.236-.045z" fill="#000"/><path d="m798.481 550.348-21.796-22.362c-4.062-5.073-3.495-12.675 1.287-16.879l8.143-7.196c4.777-4.217 11.909-3.367 15.797 1.886l7.937 10.711c3.496 4.725 9.701 5.961 14.471 2.89l4.667-2.999c4.287-2.755 6.276-8.279 4.841-13.454-.94-3.399-1.882-6.798-2.826-10.196-1.7-6.142 1.423-12.572 7.081-14.549l9.282-3.257c5.549-1.931 11.587 1.075 13.84 6.907 1.867 4.884 3.736 9.77 5.607 14.658a11.28 11.28 0 0 0 10.377 7.493h6.34c5.259 0 9.753-3.972 10.757-9.489.914-5.059 1.832-10.119 2.755-15.179 1.152-6.347 6.862-10.479 12.829-9.276l8.574 1.726c6.084 1.223 10.12 7.518 9.013 14.001l-2.575 14.528c-.966 5.504 1.808 11.027 6.656 13.241l.173.084c5.047 2.305 10.873.354 13.731-4.609l8.819-15.327c3.341-5.793 10.602-7.332 15.848-3.334l11.478 8.754a12.488 12.488 0 0 1 3.102 15.958c-6.334 11.001-10.473 18.533-20.772 26.901-52.869 5.935-112.567 2.433-165.436 8.368zm-296.754 28.968-36.692-22.672a12.043 12.043 0 0 1 .927-16.924l8.368-7.467a11.538 11.538 0 0 1 8.629-2.906 11.54 11.54 0 0 1 4.461 1.304 11.537 11.537 0 0 1 3.583 2.961l8.58 10.447a11.532 11.532 0 0 0 15.257 2.408l4.827-3.155a11.95 11.95 0 0 0 4.77-13.621l-3.218-10.106a11.899 11.899 0 0 1 7.081-14.805l9.656-3.567a11.642 11.642 0 0 1 14.689 6.437c2.103 4.863 4.189 9.697 6.257 14.503a11.71 11.71 0 0 0 11.104 7.146l6.656-.219a11.664 11.664 0 0 0 11.066-9.849c.858-5.085 1.703-10.175 2.536-15.269a11.632 11.632 0 0 1 13.254-9.707l9.012 1.435a11.923 11.923 0 0 1 9.759 13.705l-2.337 14.612a11.969 11.969 0 0 0 7.3 13.023l.187.077a11.517 11.517 0 0 0 14.303-5.066l8.903-15.623a11.509 11.509 0 0 1 16.556-3.862l12.231 8.368a12.045 12.045 0 0 1 3.63 15.855c-6.34 11.226-11.393 13.569-19.762 24.512-55.36 7.725-106.213 10.3-161.573 18.025zm129.934 352.602s-33.068 72.782-11.355 106.772c21.712 33.99 43.972 40.5 43.972 40.5 5.716-9.16 19.704-34.86 13.299-70.7-7.377-41.283-36.949-68.751-45.916-76.572z" fill="#000"/><path d="M492.348 574.115c4.763-5.839 32.701-38.913 81.327-42.672 48.626-3.76 81.398 24.699 86.992 29.739-4.551 5.556-36.434 43.129-89.393 43.535-43.155.309-71.994-24.333-78.926-30.602z" fill="#fff"/><path d="M570.462 606.648c-40.65 0-69.038-21.719-79.409-31.105a1.932 1.932 0 0 1-.199-2.652c7.557-9.263 35.868-39.756 82.673-43.374 46.804-3.617 79.531 22.222 88.433 30.255a1.934 1.934 0 0 1 .2 2.659 127.46 127.46 0 0 1-26.965 24.088c-19.743 13.209-41.243 19.987-63.909 20.154l-.824-.025zm-75.43-32.733c11.027 9.617 37.812 28.87 75.43 28.87h.786c47.777-.347 78.533-31.934 86.715-41.404-10.299-8.851-40.998-31.342-84.153-28.014-43.155 3.328-69.992 30.242-78.778 40.548z" fill="#000"/><path d="M799.124 550.541c4.757-5.832 32.643-38.906 81.199-42.659 48.555-3.753 81.275 24.713 86.863 29.746-4.545 5.556-36.377 43.129-89.252 43.522-43.109.309-71.877-24.332-78.81-30.609z" fill="#fff"/><path d="M877.149 583.088c-40.593 0-68.955-21.726-79.306-31.117a1.93 1.93 0 0 1-.2-2.652c7.544-9.257 35.804-39.75 82.538-43.361 46.733-3.612 79.421 22.227 88.305 30.254a1.932 1.932 0 0 1 .206 2.659 127.497 127.497 0 0 1-26.921 24.088c-19.717 13.203-41.198 19.955-63.811 20.142l-.811-.013zm-75.315-32.746c11.007 9.617 37.76 28.884 75.315 28.884h.778c47.706-.335 78.437-31.922 86.581-41.391-10.3-8.852-40.941-31.362-84.025-28.021-43.084 3.34-69.888 30.235-78.662 40.534l.013-.006z" fill="#000"/><path d="M553.238 593.889c6.89 0 12.475-5.585 12.475-12.475s-5.585-12.475-12.475-12.475-12.475 5.585-12.475 12.475 5.585 12.475 12.475 12.475z" fill="#fff"/><path d="M553.224 595.821a14.409 14.409 0 0 1-14.194-16.817 14.404 14.404 0 0 1 10.725-11.57 14.413 14.413 0 0 1 14.896 5.194 14.407 14.407 0 0 1 2.947 7.685 14.419 14.419 0 0 1-13.261 15.45c-.373.045-.74.058-1.113.058zm0-24.944c-.271 0-.541 0-.818.032a10.539 10.539 0 1 0 1.616 21.017 10.53 10.53 0 0 0 7.212-3.644 10.54 10.54 0 0 0 2.514-7.679 10.557 10.557 0 0 0-10.524-9.726z" fill="#000"/><path d="M863.567 570.046c6.89 0 12.475-5.585 12.475-12.475s-5.585-12.475-12.475-12.475-12.475 5.585-12.475 12.475 5.585 12.475 12.475 12.475z" fill="#fff"/><path d="M863.56 571.977a14.402 14.402 0 0 1-14.2-16.812 14.408 14.408 0 0 1 18.945-11.198 14.411 14.411 0 0 1 9.623 12.503 14.414 14.414 0 0 1-13.261 15.449c-.367.045-.74.058-1.107.058zm0-24.944h-.811a10.528 10.528 0 0 0-10.117 10.72 10.523 10.523 0 0 0 10.523 10.322 10.526 10.526 0 0 0 .405-21.042z" fill="#000"/><path d="m1115.19 879.288 43.13 164.792-53.04 63.73H849.148v-.22a24.9 24.9 0 0 1 3.974-17.07 24.9 24.9 0 0 1 14.236-10.22l17.381-4.68-8.652-17.31c-11.406-22.8 5.15-49.63 30.673-49.63h80.465l-16.872-67.595 144.837-61.797z" fill="#301F77"/><path d="M818.905 905.101a84.713 84.713 0 0 0-18.739.116 75.79 75.79 0 0 0-14.213 3.418c4.073 16.904 8.15 33.804 12.231 50.7 4.171 21.809 8.347 43.615 12.526 65.435l22.698-2.81c13.454-1.81 25.794-8.06 34.555-17.98a60.168 60.168 0 0 0 14.928-36.316c.225-3.746.579-9.482-1.211-16.324-7.615-29.174-45.092-44.153-62.775-46.239z" fill="#fff"/><path d="m808.897 1027.27-12.92-67.459-12.694-52.637 1.931-.644a78.006 78.006 0 0 1 14.638-3.515 86.425 86.425 0 0 1 19.312-.122c16.865 1.989 56.57 16.814 64.694 47.906 1.86 7.126 1.512 13.022 1.287 16.923v.096a62.716 62.716 0 0 1-15.494 37.672c-8.967 10.16-21.732 16.81-35.939 18.72l-24.815 3.06zm-20.265-117.161 11.761 48.781 12.134 63.36 20.599-2.57c13.113-1.77 24.886-7.89 33.145-17.24a58.252 58.252 0 0 0 14.368-34.956v-.097c.212-3.618.534-9.083-1.146-15.52-7.538-28.864-44.951-42.698-60.863-44.571a83.2 83.2 0 0 0-18.172.11c-4.01.58-7.966 1.49-11.826 2.723v-.02z" fill="#000"/><path d="M852.115 1067.58c-.881 0-1.752-.19-2.554-.55a6.13 6.13 0 0 1-3.334-3.87 6.07 6.07 0 0 1-.17-2.6 229.328 229.328 0 0 0 .509-49.81c-2.453-24.959-10.377-59.72-34.24-83.576-22.967-22.968-53.261-26.006-79.988-28.684l-2.401-.245a205.91 205.91 0 0 0-38.108-.27c-29.392 2.536-52.579 29.65-53.937 63.084v.541l-12.231-.47v-.586c1.609-39.543 29.611-71.678 65.112-74.742a217.609 217.609 0 0 1 40.387.29l2.395.238c28.761 2.884 61.365 6.154 87.416 32.186 20.966 20.972 34.034 52.553 37.787 91.344 2.806 28.97-.47 51.54-.644 52.49a6.077 6.077 0 0 1-2.035 3.72 6.151 6.151 0 0 1-3.964 1.51z" fill="#000"/><path d="M1068.88 1060.6a138.974 138.974 0 0 0-16.83 45.53l136.52.45a44.066 44.066 0 0 0-10.3-19.65c-9.84-10.72-22.07-13.1-25.98-13.7 11.69-14.16 12.31-34.05 2.15-47.59-.26-.35-.52-.69-.79-1.02-11.53-14.23-32.45-16.51-47.18-5.63-15.21 11.19-28 25.34-37.59 41.61z" fill="#fff"/><path d="m1191.41 1108.84-142.06-.47.48-2.65c2.94-16.3 8.73-31.97 17.11-46.26a141.14 141.14 0 0 1 38.16-42.27c15.92-11.77 37.98-9.13 50.27 6.01.29.36.57.72.85 1.09 10.15 13.51 9.99 32.92 0 47.42a45.702 45.702 0 0 1 34.53 34.35l.66 2.78zm-136.64-4.96 130.85.43a41.505 41.505 0 0 0-9.01-15.86 42.395 42.395 0 0 0-24.66-13l-3.92-.59 2.53-3.07c10.82-13.14 11.7-31.98 2.08-44.8-.24-.32-.49-.64-.75-.95-10.74-13.26-30.1-15.56-44.08-5.23a136.737 136.737 0 0 0-36.96 40.93c-7.67 13.05-13.1 27.3-16.08 42.14z" fill="#000"/><path d="M677.816 960.57c1.573-13.06-14.605-25.75-36.136-28.344-21.531-2.594-40.26 5.89-41.834 18.95-1.573 13.059 14.605 25.749 36.136 28.343 21.531 2.594 40.26-5.89 41.834-18.949z" fill="#F8BE5A"/><path d="M643.713 981.935a66.748 66.748 0 0 1-7.957-.482c-10.756-1.288-20.599-5.073-27.68-10.641-7.37-5.793-10.943-12.836-10.125-19.852.817-7.017 6.012-13.003 14.554-16.872 8.214-3.721 18.668-5.06 29.431-3.759 10.763 1.3 20.599 5.072 27.68 10.64 7.37 5.794 10.943 12.836 10.125 19.853-.817 7.016-6.012 13.003-14.554 16.871-6.173 2.794-13.602 4.242-21.474 4.242zm-9.766-48.227c-7.319 0-14.162 1.326-19.865 3.901-7.261 3.289-11.632 8.195-12.308 13.814-.676 5.62 2.401 11.426 8.678 16.344 6.546 5.15 15.7 8.639 25.748 9.856 10.049 1.216 19.788 0 27.378-3.451 7.261-3.289 11.632-8.194 12.307-13.814.683-5.62-2.401-11.426-8.677-16.344-6.546-5.15-15.7-8.639-25.749-9.855a63.488 63.488 0 0 0-7.512-.451z" fill="#000"/><path d="M640.126 930.142s-97.845-7.725-128.744 23.817c-30.898 31.542-29.611 54.721-29.611 54.721 12.933 2.43 48.401 7.36 87.546-10.304 45.092-20.342 65.286-57.214 70.809-68.234z" fill="#80BFFF"/><path d="M509.097 1013.11a150.31 150.31 0 0 1-27.68-2.54l-1.487-.28-.084-1.51c-.051-.98-.972-24.386 30.165-56.172 13.151-13.428 39.125-21.61 77.201-24.314a402.23 402.23 0 0 1 53.075-.077l2.858.225-1.288 2.575c-8.896 17.748-30.042 50.32-71.742 69.133a148.158 148.158 0 0 1-61.018 12.96zm-25.35-6.04c17.291 3.04 49.908 5.27 84.778-10.451 38.623-17.439 59.17-46.992 68.536-64.739-16.414-.946-97.336-4.094-124.301 23.431-25.427 25.961-28.626 46.229-29.013 51.759z" fill="#000"/><path d="M640.126 930.451s26.611 94.469 66.895 112.549c40.284 18.07 61.585 8.84 61.585 8.84-2.183-12.97-9.843-47.95-39.956-78.569-34.722-35.269-76.293-41.449-88.524-42.82z" fill="#80BFFF"/><path d="M752.571 1056.16c-10.595 0-26.122-2.32-46.347-11.4-17.155-7.73-33.815-29.24-49.528-64.022a402.648 402.648 0 0 1-18.442-49.766l-.779-2.762 2.851.322c19.73 2.202 57.613 10.776 89.689 43.387 28.427 28.901 37.568 62.281 40.484 79.601l.251 1.49-1.391.6c-.489.2-6.128 2.55-16.788 2.55zM642.792 932.716c4.795 15.726 29.842 92.744 65.015 108.514 33.158 14.87 53.281 10.86 58.579 9.31-3.129-17.28-12.321-48.65-39.145-75.924-29.727-30.216-64.584-39.235-84.449-41.9z" fill="#000"/><path d="m897.709 579.58-14.213 56.112a23.1 23.1 0 0 0 7.898 23.651l1.082.875a23.088 23.088 0 0 0 32.121-3.077 23.102 23.102 0 0 0 2.408-26.392l-29.296-51.169z" fill="#80BFFF"/><path d="M906.909 667.203a24.846 24.846 0 0 1-15.642-5.485l-1.088-.875a25.107 25.107 0 0 1-8.555-25.627l14.213-56.106a1.933 1.933 0 0 1 2.723-1.261c.345.169.632.438.824.772l29.295 51.188a24.962 24.962 0 0 1-21.77 37.394zm-8.497-82.512-13.042 51.497a21.202 21.202 0 0 0 7.235 21.661l1.082.876a21.16 21.16 0 0 0 31.639-26.985l-26.914-47.049z" fill="#000"/><path d="m579.616 604.897-18.384 46.991a20.124 20.124 0 0 0 4.261 21.307l.844.876a20.124 20.124 0 0 0 28.085.811 20.123 20.123 0 0 0 4.944-22.53l-19.75-47.455z" fill="#80BFFF"/><path d="M580.814 682.078a22.026 22.026 0 0 1-15.881-6.688l-.843-.869a22.113 22.113 0 0 1-4.667-23.354l18.378-46.991a1.932 1.932 0 0 1 1.783-1.23 1.936 1.936 0 0 1 1.783 1.191l19.769 47.436a21.995 21.995 0 0 1-1.99 20.702 21.99 21.99 0 0 1-18.351 9.784l.019.019zm-1.152-72.025-16.641 42.524a18.228 18.228 0 0 0 3.863 19.26l.843.869a18.184 18.184 0 0 0 29.875-19.627l-17.94-43.026z" fill="#000"/><path d="m620.049 693.981-4.879 31.014a12.536 12.536 0 0 0 5.445 12.379l.644.418a12.525 12.525 0 0 0 17.194-3.263 12.532 12.532 0 0 0 0-14.362l-18.404-26.186z" fill="#80BFFF"/><path d="M628.115 741.784a14.33 14.33 0 0 1-7.937-2.382l-.644-.419a14.496 14.496 0 0 1-6.283-14.29l4.88-31.014a1.928 1.928 0 0 1 1.471-1.583 1.926 1.926 0 0 1 2.018.772l18.371 26.186a14.42 14.42 0 0 1 .987 14.991 14.417 14.417 0 0 1-5.351 5.677 14.42 14.42 0 0 1-7.525 2.062h.013zm-6.901-42.782-4.132 26.29a10.621 10.621 0 0 0 4.602 10.447l.644.419a10.6 10.6 0 0 0 13.433-1.443 10.6 10.6 0 0 0 1.096-13.466l-15.643-22.247z" fill="#000"/><path d="m568.802 721.539-18.449 39.105a17.275 17.275 0 0 0 2.401 18.475l.644.792a17.244 17.244 0 0 0 23.991 2.343 17.26 17.26 0 0 0 5.764-8.621 17.26 17.26 0 0 0-.221-10.369l-14.13-41.725z" fill="#80BFFF"/><path d="M566.665 787.938a19.186 19.186 0 0 1-14.729-6.778l-.643-.798a19.237 19.237 0 0 1-2.678-20.541l18.455-39.106a1.93 1.93 0 0 1 1.86-1.107 1.93 1.93 0 0 1 1.713 1.287l14.162 41.726a19.245 19.245 0 0 1-6.161 21.12 19.036 19.036 0 0 1-11.979 4.197zm1.847-61.256-16.415 34.761a15.34 15.34 0 0 0 2.137 16.402l.644.798a15.316 15.316 0 0 0 19.256 3.479 15.316 15.316 0 0 0 6.969-18.284l-12.591-37.156z" fill="#000"/><path d="m962.178 663.359-8.6 40.555a16.532 16.532 0 0 0 6.314 16.736l.805.599a16.545 16.545 0 0 0 22.916-3.103 16.55 16.55 0 0 0 .979-18.957l-22.414-35.83z" fill="#80BFFF"/><path d="M970.514 726.405a18.37 18.37 0 0 1-10.943-3.605l-.805-.579a18.523 18.523 0 0 1-7.081-18.668l8.607-40.586a1.933 1.933 0 0 1 2.67-1.384c.354.155.652.413.857.74l22.415 35.836a18.44 18.44 0 0 1-6.32 25.72 18.453 18.453 0 0 1-9.4 2.52v.006zm-7.435-57.973-7.615 35.906a14.67 14.67 0 0 0 5.581 14.767l.805.592a14.61 14.61 0 0 0 18.633-.984 14.612 14.612 0 0 0 2.474-18.494l-19.878-31.787z" fill="#000"/><path d="m878.836 719.363-9.746 45.987a18.746 18.746 0 0 0 7.158 18.938l.908.644a18.742 18.742 0 0 0 25.967-3.521 18.737 18.737 0 0 0 1.114-21.475l-25.401-40.573z" fill="#80BFFF"/><path d="M888.279 790.558a20.522 20.522 0 0 1-12.276-4.036l-.907-.676a20.749 20.749 0 0 1-7.899-20.895l9.753-45.987a1.925 1.925 0 0 1 1.546-1.516 1.936 1.936 0 0 1 1.981.872l25.401 40.612a20.644 20.644 0 0 1 .55 21.009 20.636 20.636 0 0 1-18.149 10.598v.019zm-8.542-66.116-8.761 41.314a16.862 16.862 0 0 0 6.437 16.987l.908.644a16.817 16.817 0 0 0 21.442-1.139 16.821 16.821 0 0 0 2.852-21.282l-22.878-36.524zm-185.732-95.309a1.893 1.893 0 0 1-1.32-.528 1.932 1.932 0 0 1-.09-2.723c.316-.335 7.821-8.227 21.243-12.739 12.34-4.159 32.186-6.077 56.647 8.368a1.934 1.934 0 0 1 .318 3.308 1.939 1.939 0 0 1-1.519.334 1.931 1.931 0 0 1-.73-.314c-18.578-10.943-36.505-13.698-53.3-8.111-12.552 4.178-19.756 11.71-19.833 11.787a1.94 1.94 0 0 1-1.416.618zm214.551 223.762a1.935 1.935 0 0 1-1.973-1.889 1.934 1.934 0 0 1 1.89-1.973l39.949-1.731a1.932 1.932 0 0 1 1.508 3.237 1.931 1.931 0 0 1-1.341.625l-39.949 1.738-.084-.007zM704.499 575.64a15.212 15.212 0 0 1-14.877-18.423l38.437-178.503a1.93 1.93 0 1 1 3.772.811l-38.436 178.503a11.36 11.36 0 0 0 12.79 13.621l36.344-5.465a1.918 1.918 0 0 1 1.465.331 1.927 1.927 0 0 1 .747 2.045 1.922 1.922 0 0 1-1.632 1.441l-36.37 5.452c-.741.119-1.49.181-2.24.187z" fill="#000"/><path d="m818.983 901.538-33.694 5.354c-9.48 1.507-15.944 10.413-14.437 19.893l.988 6.218c1.507 9.48 10.413 15.943 19.893 14.437l33.694-5.355c9.48-1.507 15.944-10.413 14.437-19.893l-.988-6.217c-1.507-9.48-10.413-15.944-19.893-14.437z" fill="#fff"/><path d="M788.993 949.885a19.642 19.642 0 0 1-19.312-16.557l-.991-6.218a19.64 19.64 0 0 1 16.305-22.472l33.699-5.356a19.64 19.64 0 0 1 22.472 16.312l.985 6.212a19.62 19.62 0 0 1-9.119 19.817 19.615 19.615 0 0 1-7.186 2.655l-33.693 5.356a19.793 19.793 0 0 1-3.16.251zm32.784-46.348a15.28 15.28 0 0 0-2.407.193l-33.699 5.356a15.11 15.11 0 0 0-12.335 11.412 15.094 15.094 0 0 0-.224 5.897l.985 6.219a15.135 15.135 0 0 0 17.316 12.565l33.692-5.356a15.132 15.132 0 0 0 12.566-17.316l-.992-6.212a15.112 15.112 0 0 0-14.902-12.758z" fill="#000"/><path d="m827.057 941.231-33.694 5.355c-9.48 1.506-15.943 10.412-14.437 19.892l1.031 6.485c1.506 9.48 10.413 15.944 19.893 14.437l33.694-5.355c9.48-1.506 15.943-10.412 14.437-19.892l-1.031-6.485c-1.506-9.48-10.413-15.944-19.893-14.437z" fill="#fff"/><path d="M797.11 989.84a19.636 19.636 0 0 1-19.35-16.556l-1.03-6.483a19.62 19.62 0 0 1 9.119-19.817 19.615 19.615 0 0 1 7.186-2.655l33.692-5.356a19.638 19.638 0 0 1 14.615 3.497 19.637 19.637 0 0 1 7.858 12.809l1.036 6.488a19.643 19.643 0 0 1-16.312 22.473l-33.692 5.355a19.556 19.556 0 0 1-3.122.245zm32.714-46.605c-.8-.002-1.599.061-2.389.187l-33.692 5.355a15.135 15.135 0 0 0-12.565 17.316l1.03 6.483a15.126 15.126 0 0 0 17.316 12.565l33.692-5.356a15.114 15.114 0 0 0 12.337-11.412c.463-1.932.54-3.936.228-5.897l-1.03-6.489a15.152 15.152 0 0 0-14.927-12.752z" fill="#000"/><path d="m831.373 980.413-33.694 5.354c-9.48 1.507-15.944 10.413-14.437 19.893l.831 5.23c1.507 9.48 10.413 15.95 19.893 14.44l33.694-5.36c9.48-1.5 15.944-10.41 14.437-19.89l-.831-5.23c-1.507-9.48-10.413-15.944-19.893-14.437z" fill="#fff"/><path d="M801.222 1027.77a19.604 19.604 0 0 1-12.698-4.73 19.615 19.615 0 0 1-6.613-11.82l-.831-5.24a19.626 19.626 0 0 1 16.306-22.468l33.692-5.355a19.636 19.636 0 0 1 22.472 16.311l.83 5.227a19.622 19.622 0 0 1-9.119 19.815 19.7 19.7 0 0 1-7.186 2.66l-33.692 5.35c-1.045.17-2.102.26-3.161.25zm32.939-45.352a15.28 15.28 0 0 0-2.407.193l-33.692 5.356a15.114 15.114 0 0 0-12.337 11.412 15.127 15.127 0 0 0-.229 5.901l.831 5.23c.631 3.96 2.81 7.51 6.057 9.87a15.2 15.2 0 0 0 11.259 2.7l33.692-5.36a15.12 15.12 0 0 0 9.867-6.06 15.119 15.119 0 0 0 2.698-11.26l-.83-5.224a15.149 15.149 0 0 0-14.909-12.758z" fill="#000"/><path d="M1016.7 923.061s43.77 28.323 70.81 8.368 27.04-50.21 27.04-50.21l-97.85 41.842z" fill="#F8BE5A"/><path d="M1063.96 940.441c-6.92 0-14.49-1.287-22.59-3.862a118.623 118.623 0 0 1-25.74-11.883c-.3-.19-.54-.457-.69-.772a1.97 1.97 0 0 1-.19-1.015c.03-.349.15-.684.36-.968.2-.284.48-.506.81-.644l97.84-41.842a1.938 1.938 0 0 1 1.84.145c.27.175.49.415.64.698.16.283.24.599.24.921 0 1.288-.32 31.465-27.82 51.762-6.74 4.969-15.09 7.46-24.7 7.46zm-43-17.116c10.43 5.883 43.87 22.427 65.4 6.54 20.99-15.494 25.2-37.651 26.04-45.64l-91.44 39.1z" fill="#000"/><path d="M970.354 941.085c9.655 18.668 30.896 22.665 41.196 14.806 7.87-6 10.64-19.833 5.15-32.83l-46.346 18.024z" fill="#F8BE5A"/><path d="M999.127 961.645a30.289 30.289 0 0 1-6.688-.766c-10.055-2.253-18.732-9.141-23.817-18.906a1.908 1.908 0 0 1-.215-.775 1.932 1.932 0 0 1 1.225-1.915l46.348-18.025a1.93 1.93 0 0 1 1.45.022c.46.196.83.565 1.03 1.028 5.6 13.26 3.12 28.355-5.76 35.121-3.62 2.768-8.37 4.216-13.573 4.216zm-26.006-19.562c4.629 7.724 11.877 13.17 20.161 15.031 6.521 1.461 12.918.431 17.098-2.762 7.15-5.446 9.27-17.574 5.23-28.794l-42.489 16.525zM830.023 1107.81l222.087-1.29-238.824-45.06 16.737 46.35zm202.127-84.97c-.14 0-.27-.02-.4-.05l-45.065-9.65a1.936 1.936 0 0 1-1.398-2.28 1.941 1.941 0 0 1 2.209-1.5l45.064 9.66c.46.1.87.37 1.15.76.28.38.4.86.35 1.33-.05.47-.27.91-.62 1.23-.36.32-.81.5-1.29.5z" fill="#000"/></svg>