<svg width="1840" height="1380" viewBox="0 0 1840 1380" fill="none" xmlns="http://www.w3.org/2000/svg">
<path d="M921.431 388.131C957.421 424.823 979.43 458.342 992.066 479.945C1047.56 574.822 1032.25 654.746 1087.6 855.174C1096.66 888.004 1100.57 923.724 1109.63 956.534C1195.82 929.601 1287.14 899.732 1373.32 872.799L1244.05 794.909C1245.5 790.629 1253.64 765.266 1239.64 739.086C1223.95 709.752 1193.51 703.778 1189.69 703.096C1192.85 696.755 1202.57 675.313 1195.57 650.215C1187.85 622.477 1162.88 601.344 1131.67 595.859C1133.75 590.941 1146.81 558.652 1130.2 523.879C1112.54 486.942 1075.92 477.608 1071.16 476.495C1072.96 474.39 1105.05 435.599 1089.44 388.131C1076.57 348.923 1041.1 334.149 1036.01 332.128C1029.29 330.551 989.497 321.886 954.26 346.933C934.659 360.87 925.37 378.907 921.431 388.131Z" fill="#FF3636"/>
<path d="M1108.3 958.974L1107.77 957.043C1103.22 940.563 1099.91 923.093 1096.72 906.189C1093.52 889.285 1090.28 871.988 1085.73 855.657C1062.27 770.686 1051.39 706.752 1042.65 655.384C1030.79 585.663 1022.22 535.292 990.399 480.898C971.428 448.473 947.765 417.71 920.053 389.49L919.146 388.569L919.654 387.378C924.752 375.45 934.698 358.475 953.127 345.363C987.148 321.185 1025.49 327.686 1036.44 330.255L1036.71 330.338C1043.58 333.068 1078.47 348.633 1091.26 387.533C1105.33 430.301 1081.61 465.983 1074.53 475.387C1085.59 478.561 1116.17 490.045 1131.95 523.08C1146.88 554.333 1138.59 583.429 1134.35 594.436C1165.16 600.674 1189.78 622.168 1197.44 649.732C1203.54 671.683 1197.44 690.994 1192.51 701.738C1201.76 703.856 1227.27 711.908 1241.35 738.217C1254.14 762.131 1249.01 785.511 1246.36 794.085L1378 873.366L1373.9 874.653C1330.81 888.113 1285.71 902.558 1242.05 916.495C1198.4 930.431 1153.3 944.889 1110.21 958.336L1108.3 958.974ZM923.722 387.707C951.261 415.934 974.814 446.632 993.733 478.973C1025.92 533.972 1034.53 584.639 1046.46 654.759C1055.19 706.044 1066.05 769.875 1089.46 854.659C1094.01 871.138 1097.31 888.603 1100.51 905.513C1103.57 921.664 1106.72 938.343 1110.97 954.114C1153.45 940.821 1197.87 926.608 1240.87 912.851C1283.13 899.333 1326.79 885.358 1368.65 872.258L1241.72 795.811L1242.22 794.343C1244.47 787.7 1250.83 764.153 1237.93 740.052C1223.13 712.372 1194.87 706.031 1189.35 705.046L1186.82 704.596L1187.97 702.285C1192.78 692.629 1199.92 673.125 1193.71 650.788C1186.25 623.957 1161.77 603.152 1131.33 597.816L1128.94 597.398L1129.89 595.164C1133.44 586.796 1143.84 556.966 1128.46 524.767C1111.72 489.659 1077.42 479.983 1070.72 478.419L1067.63 477.692L1069.7 475.284C1071.06 473.688 1103.02 435.651 1087.61 388.782C1075.43 351.755 1042.32 336.776 1035.43 334.02C1024.71 331.523 987.94 325.408 955.38 348.556C938.27 360.67 928.763 376.319 923.722 387.707Z" fill="black"/>
<path d="M992.24 391.067L823.586 295.751L825.44 293.949C843.219 276.768 866.715 268.593 889.844 271.618C900.21 272.951 910.139 276.62 918.881 282.348C927.623 288.076 934.951 295.714 940.311 304.686L992.24 391.067ZM830.023 294.947L981.38 380.49L937.003 306.682C931.942 298.212 925.026 291.001 916.775 285.592C908.523 280.183 899.152 276.717 889.367 275.455C868.176 272.687 846.695 279.774 830.023 294.947Z" fill="black"/>
<path d="M1234.85 397.935L979.107 383.168L1098.65 329.405C1111.76 323.506 1126.02 320.563 1140.4 320.781C1154.78 321 1168.94 324.377 1181.88 330.672C1194.81 336.966 1206.2 346.026 1215.25 357.21C1224.29 368.394 1230.77 381.429 1234.22 395.393L1234.85 397.935ZM995.072 380.22L1229.8 393.777C1226.18 380.673 1219.76 368.508 1210.99 358.117C1202.22 347.726 1191.31 339.354 1179 333.574C1166.69 327.795 1153.28 324.746 1139.69 324.635C1126.09 324.524 1112.63 327.355 1100.23 332.933L995.072 380.22Z" fill="black"/>
<path d="M1148.66 468.596C1148.34 468.597 1148.01 468.515 1147.73 468.358L987.443 380.169C986.994 379.921 986.662 379.505 986.519 379.013C986.377 378.52 986.436 377.991 986.684 377.542C986.931 377.093 987.347 376.761 987.84 376.619C988.332 376.476 988.861 376.535 989.31 376.783L1149.6 464.972C1149.97 465.178 1150.27 465.504 1150.44 465.898C1150.61 466.292 1150.64 466.731 1150.54 467.147C1150.43 467.562 1150.19 467.93 1149.85 468.193C1149.51 468.455 1149.09 468.597 1148.66 468.596Z" fill="black"/>
<path d="M1016.38 400.04C1021.8 406.909 1033.12 424.502 1038.59 444.135C1044.06 463.768 1045.56 479.05 1045.8 482.758C1047.48 508.384 1065.71 619.226 1119.7 909.543C1093.16 946.017 1057.69 975.055 1016.7 993.87C999.507 974.739 981.747 953.522 963.916 930.142C942.97 902.674 924.849 876.069 909.2 850.965L679.393 859.977C655.299 858.895 597.538 852.767 556.443 809.123C533.05 784.282 525.017 757.857 511.112 712.16C498.077 669.301 495.174 634.431 488.911 573.76C486.78 553.161 485.37 529.988 485.222 503.003C485.222 502.546 485.222 502.089 485.222 501.632C485.081 472.571 496.051 444.555 515.886 423.315C535.721 402.075 562.922 389.217 591.925 387.372L730.099 378.476H730.221C858.894 371.691 872.289 367.835 910.166 369.792C959.822 372.348 996.411 374.736 1016.38 400.04Z" fill="white"/>
<path d="M1021.85 403.581C992.593 413.616 950.147 423.954 893.751 422.249C817.792 419.951 760.372 394.62 730.092 378.476C784.003 377.021 827.1 374.272 856.409 372.039C901.765 368.582 927.533 367.243 963.266 374.614C1003.83 382.982 1008.36 394.768 1021.85 403.581Z" fill="#FF3636"/>
<path d="M730.247 378.476C730.247 378.476 586.009 464.135 496.236 452.201C504.964 433.85 518.437 418.164 535.26 406.767C552.083 395.369 571.646 388.673 591.925 387.372L730.099 378.476H730.247Z" fill="#FF3636"/>
<path d="M1011.16 999.573L1010.07 998.118C992.175 974.301 975.226 949.395 958.837 925.294C942.699 901.573 926.007 877.016 908.459 853.629C873.898 856.268 761.486 864.173 680.628 862.229C669.537 861.959 646.473 861.405 619.082 851.473C585.01 839.12 563.118 820.31 550.752 806.709C528.074 781.771 514.704 759.357 508.91 712.436C506.387 692.056 502.904 673.626 499.209 654.115C491.427 612.917 483.374 570.348 483 502.983C483 502.533 483 502.069 483 501.599C482.867 484.174 486.694 466.945 494.195 451.216C503.109 432.511 516.852 416.523 534.007 404.902C551.161 393.281 571.106 386.447 591.782 385.106C633.65 382.415 675.519 379.718 717.391 377.014L730.046 376.203H730.104C780.919 373.519 813.453 371.317 837.213 369.715C873.615 367.249 887.236 366.322 910.281 367.513C958.811 370.023 997.138 372.019 1018.15 398.624C1023.94 405.975 1035.23 423.697 1040.76 443.51C1042.87 451.087 1046.04 465.828 1048.04 482.442C1048.24 484.148 1048.38 485.481 1048.49 486.401L1048.55 487C1051.77 516.276 1076.44 658.3 1121.94 909.124L1122.11 910.07L1121.54 910.849C1106.83 931.055 1089.35 949.087 1069.61 964.413C1050.21 979.45 1026.9 992.331 1012.84 998.794L1011.16 999.573ZM910.577 848.943L911.324 849.934C929.219 873.752 946.168 898.657 962.557 922.758C978.586 946.325 995.149 970.67 1012.58 993.953C1026.55 987.374 1048.46 975.105 1066.81 960.866C1085.97 946.004 1102.97 928.546 1117.31 908.995C1071.92 658.667 1047.28 516.875 1044.07 487.508L1044.01 486.903C1043.91 485.996 1043.77 484.676 1043.56 483.002C1041.63 466.639 1038.48 452.162 1036.42 444.74C1031.09 425.615 1020.2 408.518 1014.61 401.437C994.865 376.416 957.433 374.484 910.049 372.038C887.268 370.86 873.724 371.774 837.515 374.227C813.743 375.836 781.19 378.038 730.336 380.722H730.246L717.687 381.533L592.066 389.618C572.193 390.908 553.024 397.475 536.536 408.642C520.047 419.809 506.835 435.172 498.263 453.147C491.047 468.26 487.356 484.814 487.468 501.561C487.468 502.018 487.468 502.468 487.468 502.913C487.841 569.859 495.836 612.267 503.599 653.253C507.301 672.835 510.803 691.335 513.339 711.831C519.004 757.535 532.007 779.376 554.08 803.632C566.104 816.854 587.405 835.174 620.608 847.186C647.309 856.841 669.878 857.414 680.725 857.672C762.368 859.603 876.351 851.524 909.341 848.988L910.577 848.943Z" fill="black"/>
<path d="M798.481 550.348L776.685 527.986C772.623 522.913 773.19 515.311 777.972 511.107L786.115 503.911C790.892 499.694 798.024 500.544 801.912 505.797L809.849 516.508C813.345 521.233 819.55 522.469 824.32 519.398L828.987 516.399C833.274 513.644 835.263 508.12 833.828 502.945C832.888 499.546 831.946 496.147 831.002 492.749C829.302 486.607 832.425 480.177 838.083 478.2L847.365 474.943C852.914 473.012 858.952 476.018 861.205 481.85C863.072 486.734 864.941 491.62 866.812 496.508C867.579 498.661 868.982 500.53 870.835 501.868C872.688 503.206 874.904 503.95 877.189 504.001H883.529C888.788 504.001 893.282 500.029 894.286 494.512C895.2 489.453 896.118 484.393 897.041 479.333C898.193 472.986 903.903 468.854 909.87 470.057L918.444 471.783C924.528 473.006 928.564 479.301 927.457 485.784L924.882 500.312C923.916 505.816 926.69 511.339 931.538 513.553L931.711 513.637C936.758 515.942 942.584 513.991 945.442 509.028L954.261 493.701C957.602 487.908 964.863 486.369 970.109 490.367L981.587 499.121C983.924 500.973 985.521 503.599 986.09 506.526C986.659 509.453 986.162 512.487 984.689 515.079C978.355 526.08 974.216 533.612 963.917 541.98C911.048 547.915 851.35 544.413 798.481 550.348Z" fill="black"/>
<path d="M501.727 579.316L465.035 556.644C462.929 554.27 461.844 551.161 462.018 547.992C462.192 544.823 463.609 541.85 465.962 539.72L474.33 532.253C475.496 531.208 476.862 530.412 478.345 529.912C479.829 529.413 481.398 529.22 482.959 529.347C484.519 529.475 486.037 529.918 487.42 530.651C488.803 531.385 490.022 532.392 491.003 533.612L499.583 544.059C501.378 546.277 503.931 547.75 506.749 548.195C509.567 548.64 512.449 548.024 514.84 546.467L519.667 543.312C521.838 541.872 523.479 539.762 524.34 537.303C525.201 534.844 525.235 532.171 524.437 529.691L521.219 519.585C520.274 516.68 520.481 513.523 521.8 510.767C523.118 508.011 525.445 505.867 528.3 504.78L537.956 501.213C540.763 500.199 543.852 500.302 546.585 501.5C549.319 502.698 551.488 504.899 552.645 507.65C554.748 512.513 556.834 517.347 558.902 522.153C559.819 524.323 561.37 526.166 563.351 527.441C565.332 528.715 567.651 529.363 570.006 529.299L576.662 529.08C579.362 528.974 581.941 527.934 583.959 526.138C585.977 524.341 587.309 521.9 587.728 519.231C588.586 514.146 589.431 509.056 590.264 503.962C590.738 500.919 592.4 498.188 594.884 496.368C597.369 494.549 600.474 493.788 603.518 494.255L612.53 495.69C615.639 496.22 618.41 497.959 620.239 500.527C622.068 503.096 622.805 506.284 622.289 509.395L619.952 524.007C619.513 526.684 619.996 529.43 621.322 531.796C622.649 534.162 624.74 536.008 627.252 537.03L627.439 537.107C630.032 538.139 632.912 538.195 635.543 537.263C638.174 536.331 640.377 534.475 641.742 532.041L650.645 516.418C651.427 515.022 652.491 513.805 653.769 512.844C655.048 511.883 656.513 511.198 658.071 510.835C659.629 510.472 661.245 510.437 662.817 510.733C664.389 511.029 665.882 511.65 667.201 512.556L679.432 520.924C681.909 522.635 683.656 525.211 684.328 528.146C685 531.081 684.548 534.16 683.062 536.779C676.722 548.005 671.669 550.348 663.3 561.291C607.94 569.016 557.087 571.591 501.727 579.316Z" fill="black"/>
<path d="M631.661 931.918C631.661 931.918 598.593 1004.7 620.306 1038.69C642.018 1072.68 664.278 1079.19 664.278 1079.19C669.994 1070.03 683.982 1044.33 677.577 1008.49C670.2 967.207 640.628 939.739 631.661 931.918Z" fill="black"/>
<path d="M492.348 574.115C497.111 568.276 525.049 535.202 573.675 531.443C622.301 527.683 655.073 556.142 660.667 561.182C656.116 566.738 624.233 604.311 571.274 604.717C528.119 605.026 499.28 580.384 492.348 574.115Z" fill="white"/>
<path d="M570.462 606.648C529.812 606.648 501.424 584.929 491.053 575.543C490.687 575.211 490.462 574.751 490.424 574.257C490.387 573.763 490.541 573.275 490.854 572.891C498.411 563.628 526.722 533.135 573.527 529.517C620.331 525.9 653.058 551.739 661.96 559.772C662.329 560.105 662.555 560.566 662.593 561.061C662.63 561.557 662.475 562.047 662.16 562.431C654.362 571.701 645.282 579.812 635.195 586.519C615.452 599.728 593.952 606.506 571.286 606.673L570.462 606.648ZM495.032 573.915C506.059 583.532 532.844 602.785 570.462 602.785H571.248C619.025 602.438 649.781 570.851 657.963 561.381C647.664 552.53 616.965 530.039 573.81 533.367C530.655 536.695 503.818 563.609 495.032 573.915Z" fill="black"/>
<path d="M799.124 550.541C803.881 544.709 831.767 511.635 880.323 507.882C928.878 504.129 961.598 532.595 967.186 537.628C962.641 543.184 930.809 580.757 877.934 581.15C834.825 581.459 806.057 556.818 799.124 550.541Z" fill="white"/>
<path d="M877.149 583.088C836.556 583.088 808.194 561.362 797.843 551.971C797.476 551.638 797.251 551.178 797.213 550.684C797.176 550.191 797.33 549.702 797.643 549.319C805.187 540.062 833.447 509.569 880.181 505.958C926.914 502.346 959.602 528.185 968.486 536.212C968.855 536.544 969.083 537.005 969.121 537.5C969.16 537.996 969.006 538.486 968.692 538.871C960.907 548.137 951.843 556.248 941.771 562.959C922.054 576.162 900.573 582.914 877.96 583.101L877.149 583.088ZM801.834 550.342C812.841 559.959 839.594 579.226 877.149 579.226H877.927C925.633 578.891 956.364 547.304 964.508 537.835C954.208 528.983 923.567 506.473 880.483 509.814C837.399 513.154 810.595 540.049 801.821 550.348L801.834 550.342Z" fill="black"/>
<path d="M553.238 593.889C560.128 593.889 565.713 588.304 565.713 581.414C565.713 574.524 560.128 568.939 553.238 568.939C546.348 568.939 540.763 574.524 540.763 581.414C540.763 588.304 546.348 593.889 553.238 593.889Z" fill="white"/>
<path d="M553.224 595.821C550.422 595.819 547.681 595 545.337 593.464C542.994 591.928 541.149 589.742 540.029 587.174C538.908 584.606 538.561 581.766 539.03 579.004C539.499 576.241 540.763 573.676 542.668 571.621C544.573 569.566 547.036 568.111 549.755 567.434C552.474 566.758 555.331 566.889 557.977 567.811C560.623 568.734 562.942 570.408 564.651 572.628C566.36 574.849 567.384 577.52 567.598 580.313C567.882 584.119 566.646 587.882 564.16 590.778C561.674 593.674 558.142 595.467 554.337 595.763C553.964 595.808 553.597 595.821 553.224 595.821ZM553.224 570.877C552.953 570.877 552.683 570.877 552.406 570.909C549.619 571.123 547.031 572.436 545.212 574.558C543.393 576.68 542.491 579.438 542.705 582.225C542.92 585.012 544.232 587.6 546.354 589.419C548.477 591.239 551.235 592.14 554.022 591.926C555.404 591.823 556.753 591.448 557.991 590.822C559.228 590.197 560.33 589.334 561.234 588.282C562.137 587.23 562.824 586.011 563.256 584.693C563.687 583.375 563.855 581.986 563.748 580.603C563.539 577.955 562.34 575.483 560.389 573.68C558.439 571.878 555.88 570.876 553.224 570.877Z" fill="black"/>
<path d="M863.567 570.046C870.457 570.046 876.042 564.461 876.042 557.571C876.042 550.681 870.457 545.096 863.567 545.096C856.677 545.096 851.092 550.681 851.092 557.571C851.092 564.461 856.677 570.046 863.567 570.046Z" fill="white"/>
<path d="M863.56 571.977C860.758 571.977 858.017 571.159 855.672 569.624C853.328 568.089 851.482 565.903 850.361 563.335C849.239 560.767 848.892 557.928 849.36 555.165C849.828 552.402 851.091 549.835 852.996 547.78C854.9 545.724 857.363 544.269 860.082 543.591C862.802 542.914 865.659 543.045 868.305 543.967C870.952 544.89 873.271 546.564 874.98 548.784C876.69 551.005 877.714 553.676 877.928 556.47C878.214 560.276 876.978 564.04 874.492 566.937C872.006 569.833 868.473 571.625 864.667 571.919C864.3 571.964 863.927 571.977 863.56 571.977ZM863.56 547.033C863.29 547.033 863.019 547.033 862.749 547.033C859.995 547.139 857.392 548.322 855.5 550.326C853.609 552.331 852.579 554.997 852.632 557.753C852.685 560.509 853.817 563.134 855.785 565.064C857.752 566.994 860.398 568.075 863.155 568.075C865.911 568.075 868.557 566.994 870.525 565.064C872.492 563.134 873.624 560.509 873.677 557.753C873.731 554.997 872.701 552.331 870.809 550.326C868.917 548.322 866.314 547.139 863.56 547.033Z" fill="black"/>
<path d="M1115.19 879.288L1158.32 1044.08L1105.28 1107.81H849.148V1107.59C848.36 1101.61 849.772 1095.54 853.122 1090.52C856.472 1085.5 861.531 1081.87 867.358 1080.3L884.739 1075.62L876.087 1058.31C864.681 1035.51 881.237 1008.68 906.76 1008.68H987.225L970.353 941.085L1115.19 879.288Z" fill="#301F77"/>
<path d="M818.905 905.101C812.674 904.447 806.389 904.485 800.166 905.217C795.329 905.896 790.57 907.04 785.953 908.635C790.026 925.539 794.103 942.439 798.184 959.335C802.355 981.144 806.531 1002.95 810.71 1024.77L833.408 1021.96C846.862 1020.15 859.202 1013.9 867.963 1003.98C876.86 993.883 882.117 981.097 882.891 967.664C883.116 963.918 883.47 958.182 881.68 951.34C874.065 922.166 836.588 907.187 818.905 905.101Z" fill="white"/>
<path d="M808.897 1027.27L795.977 959.811L783.283 907.174L785.214 906.53C789.969 904.889 794.871 903.712 799.852 903.015C806.265 902.253 812.743 902.212 819.164 902.893C836.029 904.882 875.734 919.707 883.858 950.799C885.718 957.925 885.37 963.821 885.145 967.722V967.818C884.316 981.75 878.863 995.006 869.651 1005.49C860.684 1015.65 847.919 1022.3 833.712 1024.21L808.897 1027.27ZM788.632 910.109L800.393 958.89L812.527 1022.25L833.126 1019.68C846.239 1017.91 858.012 1011.79 866.271 1002.44C874.813 992.707 879.868 980.408 880.639 967.484V967.387C880.851 963.769 881.173 958.304 879.493 951.867C871.955 923.003 834.542 909.169 818.63 907.296C812.587 906.669 806.493 906.706 800.458 907.406C796.448 907.986 792.492 908.896 788.632 910.129V910.109Z" fill="black"/>
<path d="M852.115 1067.58C851.234 1067.58 850.363 1067.39 849.561 1067.03C848.76 1066.66 848.047 1066.13 847.472 1065.46C846.896 1064.79 846.472 1064.01 846.227 1063.16C845.983 1062.32 845.925 1061.43 846.057 1060.56C848.035 1044.03 848.205 1027.33 846.566 1010.75C844.113 985.791 836.189 951.03 812.326 927.174C789.359 904.206 759.065 901.168 732.338 898.49L729.937 898.245C717.27 896.977 704.513 896.887 691.829 897.975C662.437 900.511 639.25 927.625 637.892 961.059V961.6L625.661 961.13V960.544C627.27 921.001 655.272 888.866 690.773 885.802C704.215 884.647 717.736 884.743 731.16 886.092L733.555 886.33C762.316 889.214 794.92 892.484 820.971 918.516C841.937 939.488 855.005 971.069 858.758 1009.86C861.564 1038.83 858.288 1061.4 858.114 1062.35C857.901 1063.8 857.179 1065.12 856.079 1066.07C854.979 1067.03 853.573 1067.56 852.115 1067.58Z" fill="black"/>
<path d="M1068.88 1060.6C1060.64 1074.67 1054.95 1090.08 1052.05 1106.13L1188.57 1106.58C1186.87 1099.26 1183.32 1092.49 1178.27 1086.93C1168.43 1076.21 1156.2 1073.83 1152.29 1073.23C1163.98 1059.07 1164.6 1039.18 1154.44 1025.64C1154.18 1025.29 1153.92 1024.95 1153.65 1024.62C1142.12 1010.39 1121.2 1008.11 1106.47 1018.99C1091.26 1030.18 1078.47 1044.33 1068.88 1060.6Z" fill="white"/>
<path d="M1191.41 1108.84L1049.35 1108.37L1049.83 1105.72C1052.77 1089.42 1058.56 1073.75 1066.94 1059.46C1076.66 1042.92 1089.64 1028.54 1105.1 1017.19C1121.02 1005.42 1143.08 1008.06 1155.37 1023.2C1155.66 1023.56 1155.94 1023.92 1156.22 1024.29C1166.37 1037.8 1166.21 1057.21 1156.22 1071.71C1164.63 1073.6 1172.33 1077.82 1178.44 1083.9C1184.55 1089.98 1188.82 1097.66 1190.75 1106.06L1191.41 1108.84ZM1054.77 1103.88L1185.62 1104.31C1183.83 1098.42 1180.75 1093 1176.61 1088.45C1170.09 1081.46 1161.4 1076.88 1151.95 1075.45L1148.03 1074.86L1150.56 1071.79C1161.38 1058.65 1162.26 1039.81 1152.64 1026.99C1152.4 1026.67 1152.15 1026.35 1151.89 1026.04C1141.15 1012.78 1121.79 1010.48 1107.81 1020.81C1092.84 1031.8 1080.26 1045.73 1070.85 1061.74C1063.18 1074.79 1057.75 1089.04 1054.77 1103.88Z" fill="black"/>
<path d="M677.816 960.57C679.389 947.51 663.211 934.82 641.68 932.226C620.149 929.632 601.42 938.116 599.846 951.176C598.273 964.235 614.451 976.925 635.982 979.519C657.513 982.113 676.242 973.629 677.816 960.57Z" fill="#F8BE5A"/>
<path d="M643.713 981.935C641.053 981.933 638.396 981.772 635.756 981.453C625 980.165 615.157 976.38 608.076 970.812C600.706 965.019 597.133 957.976 597.951 950.96C598.768 943.943 603.963 937.957 612.505 934.088C620.719 930.367 631.173 929.028 641.936 930.329C652.699 931.629 662.535 935.401 669.616 940.969C676.986 946.763 680.559 953.805 679.741 960.822C678.924 967.838 673.729 973.825 665.187 977.693C659.014 980.487 651.585 981.935 643.713 981.935ZM633.947 933.708C626.628 933.708 619.785 935.034 614.082 937.609C606.821 940.898 602.45 945.804 601.774 951.423C601.098 957.043 604.175 962.849 610.452 967.767C616.998 972.917 626.152 976.406 636.2 977.623C646.249 978.839 655.988 977.623 663.578 974.172C670.839 970.883 675.21 965.978 675.885 960.358C676.568 954.738 673.484 948.932 667.208 944.014C660.662 938.864 651.508 935.375 641.459 934.159C638.967 933.86 636.458 933.71 633.947 933.708Z" fill="black"/>
<path d="M640.126 930.142C640.126 930.142 542.281 922.417 511.382 953.959C480.484 985.501 481.771 1008.68 481.771 1008.68C494.704 1011.11 530.172 1016.04 569.317 998.376C614.409 978.034 634.603 941.162 640.126 930.142Z" fill="#80BFFF"/>
<path d="M509.097 1013.11C499.812 1013.12 490.546 1012.27 481.417 1010.57L479.93 1010.29L479.846 1008.78C479.795 1007.8 478.874 984.394 510.011 952.608C523.162 939.18 549.136 930.998 587.212 928.294C604.883 927.1 622.613 927.074 640.287 928.217L643.145 928.442L641.857 931.017C632.961 948.765 611.815 981.337 570.115 1000.15C550.928 1008.75 530.126 1013.17 509.097 1013.11ZM483.747 1007.07C501.038 1010.11 533.655 1012.34 568.525 996.619C607.148 979.18 627.695 949.627 637.061 931.88C620.647 930.934 539.725 927.786 512.76 955.311C487.333 981.272 484.134 1001.54 483.747 1007.07Z" fill="black"/>
<path d="M640.126 930.451C640.126 930.451 666.737 1024.92 707.021 1043C747.305 1061.07 768.606 1051.84 768.606 1051.84C766.423 1038.87 758.763 1003.89 728.65 973.271C693.928 938.002 652.357 931.822 640.126 930.451Z" fill="#80BFFF"/>
<path d="M752.571 1056.16C741.976 1056.16 726.449 1053.84 706.224 1044.76C689.069 1037.03 672.409 1015.52 656.696 980.738C649.461 964.573 643.3 947.948 638.254 930.972L637.475 928.21L640.326 928.532C660.056 930.734 697.939 939.308 730.015 971.919C758.442 1000.82 767.583 1034.2 770.499 1051.52L770.75 1053.01L769.359 1053.61C768.87 1053.81 763.231 1056.16 752.571 1056.16ZM642.792 932.716C647.587 948.442 672.634 1025.46 707.807 1041.23C740.965 1056.1 761.088 1052.09 766.386 1050.54C763.257 1033.26 754.065 1001.89 727.241 974.616C697.514 944.4 662.657 935.381 642.792 932.716Z" fill="black"/>
<path d="M897.709 579.58L883.496 635.692C882.412 639.977 882.579 644.483 883.979 648.675C885.38 652.867 887.953 656.569 891.394 659.343L892.476 660.218C897.171 664.001 903.161 665.797 909.163 665.222C915.166 664.647 920.705 661.747 924.597 657.141C927.658 653.521 929.531 649.046 929.962 644.324C930.392 639.603 929.36 634.863 927.005 630.749L897.709 579.58Z" fill="#80BFFF"/>
<path d="M906.909 667.203C901.221 667.219 895.699 665.283 891.267 661.718L890.179 660.843C886.458 657.831 883.676 653.819 882.16 649.278C880.644 644.738 880.458 639.859 881.624 635.216L895.837 579.11C895.931 578.737 896.134 578.4 896.421 578.144C896.708 577.887 897.064 577.722 897.445 577.669C897.826 577.617 898.215 577.679 898.56 577.849C898.905 578.018 899.192 578.287 899.384 578.621L928.679 629.809C930.864 633.614 932.007 637.927 931.994 642.314C931.981 646.702 930.812 651.008 928.604 654.799C926.397 658.591 923.229 661.734 919.42 663.911C915.612 666.089 911.296 667.224 906.909 667.203ZM898.412 584.691L885.37 636.188C884.383 640.113 884.54 644.238 885.822 648.076C887.105 651.914 889.458 655.306 892.605 657.849L893.687 658.725C897.527 661.818 902.327 663.472 907.257 663.403C912.187 663.333 916.938 661.544 920.69 658.345C924.441 655.145 926.957 650.736 927.804 645.878C928.65 641.021 927.774 636.02 925.326 631.74L898.412 584.691Z" fill="black"/>
<path d="M579.616 604.897L561.232 651.888C559.828 655.475 559.484 659.39 560.239 663.167C560.995 666.943 562.818 670.424 565.493 673.195L566.337 674.071C569.987 677.842 574.967 680.038 580.214 680.19C585.461 680.341 590.56 678.437 594.422 674.882C597.456 672.086 599.558 668.426 600.442 664.396C601.327 660.366 600.951 656.161 599.366 652.352L579.616 604.897Z" fill="#80BFFF"/>
<path d="M580.814 682.078C577.853 682.088 574.921 681.501 572.192 680.352C569.464 679.203 566.995 677.515 564.933 675.39L564.09 674.521C561.165 671.48 559.171 667.664 558.344 663.526C557.517 659.388 557.891 655.099 559.423 651.167L577.801 604.176C577.941 603.816 578.186 603.507 578.504 603.288C578.822 603.068 579.198 602.95 579.584 602.946C579.966 602.946 580.339 603.06 580.656 603.271C580.974 603.483 581.221 603.785 581.367 604.137L601.136 651.573C602.538 654.92 603.09 658.562 602.743 662.174C602.396 665.786 601.16 669.256 599.146 672.275C597.132 675.293 594.402 677.766 591.2 679.474C587.998 681.181 584.423 682.069 580.795 682.059L580.814 682.078ZM579.662 610.053L563.021 652.577C561.758 655.821 561.451 659.359 562.135 662.772C562.82 666.185 564.468 669.331 566.884 671.837L567.727 672.706C570.67 675.76 574.587 677.689 578.801 678.16C583.016 678.631 587.263 677.615 590.807 675.286C594.351 672.958 596.97 669.464 598.211 665.409C599.452 661.353 599.236 656.992 597.602 653.079L579.662 610.053Z" fill="black"/>
<path d="M620.049 693.981L615.17 724.995C614.799 727.363 615.114 729.788 616.08 731.982C617.045 734.176 618.619 736.047 620.615 737.374L621.259 737.792C623.984 739.6 627.308 740.271 630.52 739.661C633.733 739.051 636.58 737.209 638.453 734.529C639.925 732.424 640.715 729.917 640.715 727.348C640.715 724.779 639.925 722.272 638.453 720.167L620.049 693.981Z" fill="#80BFFF"/>
<path d="M628.115 741.784C625.292 741.789 622.531 740.96 620.178 739.402L619.534 738.983C617.233 737.449 615.418 735.288 614.305 732.756C613.192 730.224 612.826 727.426 613.251 724.693L618.131 693.679C618.19 693.298 618.362 692.944 618.624 692.662C618.886 692.38 619.227 692.183 619.602 692.096C619.977 692.008 620.369 692.035 620.729 692.173C621.088 692.31 621.399 692.552 621.62 692.868L639.991 719.054C641.517 721.221 642.416 723.766 642.59 726.411C642.764 729.055 642.207 731.696 640.978 734.045C639.75 736.393 637.899 738.357 635.627 739.722C633.356 741.088 630.752 741.801 628.102 741.784H628.115ZM621.214 699.002L617.082 725.292C616.775 727.291 617.045 729.336 617.86 731.186C618.675 733.037 620.002 734.617 621.684 735.739L622.328 736.158C624.385 737.518 626.852 738.118 629.304 737.855C631.756 737.591 634.04 736.481 635.761 734.715C637.482 732.948 638.533 730.637 638.733 728.179C638.933 725.721 638.27 723.27 636.857 721.249L621.214 699.002Z" fill="black"/>
<path d="M568.802 721.539L550.353 760.644C548.945 763.631 548.423 766.959 548.848 770.233C549.274 773.508 550.629 776.592 552.754 779.119L553.398 779.911C556.299 783.358 560.433 785.533 564.916 785.97C569.4 786.408 573.877 785.074 577.389 782.254C580.149 780.039 582.161 777.029 583.153 773.633C584.144 770.236 584.067 766.616 582.932 763.264L568.802 721.539Z" fill="#80BFFF"/>
<path d="M566.665 787.938C563.864 787.952 561.094 787.353 558.549 786.182C556.005 785.011 553.748 783.297 551.936 781.16L551.293 780.362C548.934 777.55 547.428 774.122 546.953 770.482C546.479 766.843 547.055 763.143 548.615 759.821L567.07 720.715C567.234 720.366 567.499 720.073 567.831 719.876C568.162 719.679 568.545 719.585 568.93 719.608C569.311 719.629 569.677 719.763 569.982 719.992C570.286 720.221 570.516 720.536 570.643 720.895L584.805 762.621C586.06 766.349 586.142 770.372 585.041 774.148C583.939 777.925 581.707 781.273 578.644 783.741C575.249 786.469 571.02 787.951 566.665 787.938ZM568.512 726.682L552.097 761.443C550.849 764.095 550.387 767.05 550.766 769.957C551.144 772.863 552.348 775.601 554.234 777.845L554.878 778.643C557.178 781.378 560.362 783.222 563.878 783.857C567.395 784.492 571.022 783.879 574.134 782.122C577.245 780.365 579.645 777.576 580.918 774.237C582.191 770.898 582.256 767.22 581.103 763.838L568.512 726.682Z" fill="black"/>
<path d="M962.178 663.359L953.578 703.914C952.914 707.015 953.157 710.242 954.277 713.209C955.396 716.177 957.346 718.76 959.892 720.65L960.697 721.249C964.165 723.827 968.505 724.947 972.787 724.367C977.07 723.787 980.956 721.554 983.613 718.146C985.701 715.468 986.914 712.213 987.089 708.822C987.264 705.43 986.392 702.068 984.592 699.189L962.178 663.359Z" fill="#80BFFF"/>
<path d="M970.514 726.405C966.574 726.408 962.738 725.144 959.571 722.8L958.766 722.221C955.926 720.111 953.75 717.231 952.495 713.923C951.24 710.614 950.959 707.016 951.685 703.553L960.292 662.967C960.369 662.588 960.557 662.242 960.832 661.972C961.108 661.701 961.458 661.52 961.838 661.451C962.217 661.382 962.609 661.428 962.962 661.583C963.316 661.738 963.614 661.996 963.819 662.323L986.234 698.159C987.988 700.956 988.959 704.174 989.045 707.475C989.131 710.777 988.329 714.041 986.723 716.926C985.117 719.812 982.765 722.213 979.914 723.879C977.063 725.545 973.817 726.415 970.514 726.399V726.405ZM963.079 668.432L955.464 704.338C954.89 707.076 955.11 709.92 956.099 712.536C957.088 715.153 958.804 717.432 961.045 719.105L961.85 719.697C964.583 721.732 967.941 722.746 971.344 722.567C974.746 722.387 977.979 721.024 980.483 718.713C982.987 716.402 984.605 713.289 985.057 709.912C985.508 706.535 984.766 703.106 982.957 700.219L963.079 668.432Z" fill="black"/>
<path d="M878.836 719.363L869.09 765.35C868.345 768.861 868.623 772.511 869.892 775.869C871.161 779.226 873.367 782.148 876.248 784.288L877.156 784.932C881.086 787.854 886.004 789.121 890.857 788.463C895.71 787.805 900.113 785.273 903.123 781.411C905.491 778.378 906.868 774.691 907.067 770.849C907.266 767.007 906.278 763.197 904.237 759.936L878.836 719.363Z" fill="#80BFFF"/>
<path d="M888.279 790.558C883.859 790.57 879.554 789.154 876.003 786.522L875.096 785.846C871.924 783.479 869.495 780.254 868.096 776.552C866.696 772.849 866.384 768.824 867.197 764.951L876.95 718.964C877.026 718.585 877.215 718.239 877.49 717.969C877.766 717.699 878.116 717.517 878.496 717.448C878.875 717.379 879.267 717.425 879.62 717.58C879.973 717.736 880.272 717.993 880.477 718.32L905.878 758.932C907.843 762.064 908.931 765.666 909.028 769.361C909.125 773.057 908.227 776.711 906.428 779.941C904.63 783.171 901.996 785.859 898.804 787.723C895.611 789.587 891.976 790.56 888.279 790.539V790.558ZM879.737 724.442L870.976 765.756C870.316 768.906 870.571 772.18 871.712 775.19C872.853 778.2 874.831 780.821 877.413 782.743L878.321 783.387C881.467 785.726 885.332 786.892 889.247 786.684C893.162 786.476 896.882 784.907 899.763 782.248C902.644 779.589 904.506 776.007 905.026 772.121C905.547 768.236 904.694 764.29 902.615 760.966L879.737 724.442Z" fill="black"/>
<path d="M694.005 629.133C693.513 629.135 693.04 628.946 692.685 628.605C692.313 628.255 692.095 627.772 692.078 627.262C692.061 626.752 692.247 626.256 692.595 625.882C692.911 625.547 700.416 617.655 713.838 613.143C726.178 608.984 746.024 607.066 770.485 621.511C770.727 621.625 770.943 621.788 771.119 621.99C771.295 622.191 771.428 622.427 771.508 622.683C771.587 622.939 771.613 623.208 771.584 623.474C771.554 623.74 771.469 623.997 771.335 624.229C771.2 624.46 771.019 624.661 770.803 624.819C770.587 624.977 770.34 625.088 770.079 625.146C769.817 625.203 769.546 625.205 769.284 625.153C769.021 625.1 768.773 624.993 768.554 624.839C749.976 613.896 732.049 611.141 715.254 616.728C702.702 620.906 695.498 628.438 695.421 628.515C695.24 628.71 695.021 628.865 694.777 628.972C694.534 629.078 694.271 629.133 694.005 629.133Z" fill="black"/>
<path d="M908.556 852.895C908.044 852.907 907.549 852.714 907.179 852.359C906.809 852.005 906.595 851.518 906.583 851.006C906.572 850.494 906.765 849.998 907.119 849.628C907.474 849.258 907.961 849.044 908.473 849.033L948.422 847.302C948.934 847.279 949.434 847.462 949.812 847.808C950.19 848.155 950.415 848.637 950.437 849.149C950.459 849.661 950.277 850.161 949.93 850.539C949.584 850.917 949.101 851.142 948.589 851.164L908.64 852.902L908.556 852.895Z" fill="black"/>
<path d="M704.499 575.64C702.228 575.641 699.985 575.134 697.936 574.156C695.887 573.177 694.082 571.752 692.656 569.985C691.229 568.218 690.216 566.154 689.691 563.945C689.166 561.736 689.143 559.437 689.622 557.217L728.059 378.714C728.102 378.457 728.197 378.211 728.338 377.991C728.479 377.772 728.663 377.583 728.879 377.437C729.095 377.29 729.338 377.189 729.594 377.139C729.85 377.089 730.114 377.092 730.369 377.147C730.624 377.202 730.865 377.307 731.078 377.458C731.291 377.609 731.472 377.801 731.608 378.023C731.745 378.246 731.835 378.493 731.873 378.751C731.912 379.01 731.897 379.273 731.831 379.525L693.395 558.028C693.009 559.824 693.065 561.687 693.557 563.457C694.049 565.227 694.963 566.851 696.221 568.19C697.478 569.529 699.042 570.544 700.777 571.146C702.513 571.748 704.368 571.921 706.185 571.649L742.529 566.184C742.783 566.138 743.044 566.144 743.295 566.201C743.547 566.258 743.784 566.365 743.994 566.515C744.204 566.665 744.381 566.856 744.516 567.076C744.651 567.295 744.74 567.54 744.779 567.795C744.818 568.05 744.805 568.31 744.741 568.56C744.678 568.81 744.565 569.045 744.409 569.25C744.254 569.456 744.058 569.628 743.835 569.757C743.612 569.886 743.365 569.969 743.109 570.001L706.739 575.453C705.998 575.572 705.249 575.634 704.499 575.64Z" fill="black"/>
<path d="M818.983 901.538L785.289 906.892C775.809 908.399 769.345 917.305 770.852 926.785L771.84 933.003C773.347 942.483 782.253 948.946 791.733 947.44L825.427 942.085C834.907 940.578 841.371 931.672 839.864 922.192L838.876 915.975C837.369 906.495 828.463 900.031 818.983 901.538Z" fill="white"/>
<path d="M788.993 949.885C784.333 949.865 779.832 948.188 776.294 945.155C772.757 942.122 770.413 937.93 769.681 933.328L768.69 927.11C767.874 921.968 769.134 916.713 772.191 912.499C775.248 908.285 779.854 905.457 784.995 904.638L818.694 899.282C823.837 898.466 829.093 899.727 833.307 902.785C837.521 905.844 840.348 910.451 841.166 915.594L842.151 921.806C842.557 924.352 842.457 926.953 841.857 929.461C841.257 931.968 840.169 934.333 838.654 936.42C837.14 938.507 835.23 940.275 833.032 941.623C830.834 942.972 828.392 943.874 825.846 944.278L792.153 949.634C791.108 949.802 790.051 949.886 788.993 949.885ZM821.777 903.537C820.971 903.538 820.166 903.602 819.37 903.73L785.671 909.086C783.709 909.396 781.828 910.09 780.134 911.128C778.441 912.166 776.969 913.528 775.802 915.136C774.636 916.744 773.798 918.566 773.336 920.498C772.874 922.43 772.798 924.434 773.112 926.395L774.097 932.614C774.729 936.576 776.907 940.125 780.154 942.481C783.401 944.837 787.451 945.808 791.413 945.179L825.105 939.823C829.067 939.192 832.616 937.013 834.972 933.766C837.329 930.519 838.299 926.47 837.671 922.507L836.679 916.295C836.119 912.744 834.311 909.508 831.58 907.17C828.848 904.832 825.373 903.544 821.777 903.537Z" fill="black"/>
<path d="M827.057 941.231L793.363 946.586C783.883 948.092 777.42 956.998 778.926 966.478L779.957 972.963C781.463 982.443 790.37 988.907 799.85 987.4L833.544 982.045C843.024 980.539 849.487 971.633 847.981 962.153L846.95 955.668C845.444 946.188 836.537 939.724 827.057 941.231Z" fill="white"/>
<path d="M797.11 989.84C792.443 989.829 787.933 988.157 784.388 985.123C780.842 982.089 778.492 977.892 777.76 973.284L776.73 966.801C776.324 964.255 776.424 961.654 777.024 959.146C777.624 956.639 778.712 954.274 780.227 952.187C781.741 950.1 783.651 948.332 785.849 946.984C788.047 945.635 790.489 944.733 793.035 944.329L826.727 938.973C829.274 938.568 831.875 938.668 834.382 939.268C836.89 939.868 839.255 940.956 841.342 942.47C843.429 943.984 845.197 945.895 846.545 948.093C847.893 950.29 848.795 952.732 849.2 955.279L850.236 961.767C851.052 966.91 849.791 972.167 846.733 976.381C843.674 980.595 839.067 983.422 833.924 984.24L800.232 989.595C799.199 989.76 798.155 989.842 797.11 989.84ZM829.824 943.235C829.024 943.233 828.225 943.296 827.435 943.422L793.743 948.777C789.781 949.409 786.232 951.587 783.876 954.834C781.52 958.081 780.549 962.131 781.178 966.093L782.208 972.576C782.519 974.538 783.214 976.42 784.252 978.114C785.291 979.808 786.654 981.28 788.262 982.447C789.87 983.614 791.692 984.452 793.625 984.915C795.557 985.377 797.562 985.454 799.524 985.141L833.216 979.785C835.178 979.474 837.059 978.78 838.753 977.741C840.446 976.703 841.918 975.341 843.085 973.734C844.252 972.126 845.091 970.305 845.553 968.373C846.016 966.441 846.093 964.437 845.781 962.476L844.751 955.987C844.182 952.436 842.367 949.203 839.632 946.866C836.897 944.53 833.42 943.243 829.824 943.235Z" fill="black"/>
<path d="M831.373 980.413L797.679 985.767C788.199 987.274 781.735 996.18 783.242 1005.66L784.073 1010.89C785.58 1020.37 794.486 1026.84 803.966 1025.33L837.66 1019.97C847.14 1018.47 853.604 1009.56 852.097 1000.08L851.266 994.85C849.759 985.37 840.853 978.906 831.373 980.413Z" fill="white"/>
<path d="M801.222 1027.77C796.563 1027.75 792.062 1026.08 788.524 1023.04C784.986 1020.01 782.642 1015.82 781.911 1011.22L781.08 1005.98C780.675 1003.44 780.775 1000.84 781.375 998.329C781.975 995.822 783.063 993.457 784.577 991.37C786.091 989.283 788.002 987.515 790.2 986.167C792.397 984.819 794.839 983.917 797.386 983.512L831.078 978.157C836.221 977.341 841.477 978.601 845.691 981.66C849.905 984.719 852.732 989.326 853.55 994.468L854.38 999.695C854.786 1002.24 854.686 1004.84 854.086 1007.35C853.486 1009.86 852.398 1012.22 850.884 1014.31C849.37 1016.4 847.459 1018.16 845.261 1019.51C843.064 1020.86 840.622 1021.76 838.075 1022.17L804.383 1027.52C803.338 1027.69 802.281 1027.78 801.222 1027.77ZM834.161 982.418C833.355 982.419 832.55 982.483 831.754 982.611L798.062 987.967C796.1 988.278 794.219 988.972 792.525 990.011C790.832 991.049 789.36 992.411 788.193 994.018C787.026 995.626 786.187 997.447 785.725 999.379C785.262 1001.31 785.184 1003.31 785.496 1005.28L786.327 1010.51C786.958 1014.47 789.137 1018.02 792.384 1020.38C795.631 1022.73 799.68 1023.7 803.643 1023.08L837.335 1017.72C841.297 1017.09 844.846 1014.91 847.202 1011.66C849.558 1008.42 850.529 1004.37 849.9 1000.4L849.07 995.176C848.503 991.627 846.692 988.394 843.961 986.057C841.23 983.719 837.756 982.43 834.161 982.418Z" fill="black"/>
<path d="M1016.7 923.061C1016.7 923.061 1060.47 951.384 1087.51 931.429C1114.55 911.474 1114.55 881.219 1114.55 881.219L1016.7 923.061Z" fill="#F8BE5A"/>
<path d="M1063.96 940.441C1057.04 940.441 1049.47 939.154 1041.37 936.579C1032.35 933.661 1023.7 929.672 1015.63 924.696C1015.33 924.506 1015.09 924.239 1014.94 923.924C1014.79 923.61 1014.72 923.259 1014.75 922.909C1014.78 922.56 1014.9 922.225 1015.11 921.941C1015.31 921.657 1015.59 921.435 1015.92 921.297L1113.76 879.455C1114.05 879.325 1114.38 879.269 1114.7 879.295C1115.02 879.32 1115.33 879.425 1115.6 879.6C1115.87 879.775 1116.09 880.015 1116.24 880.298C1116.4 880.581 1116.48 880.897 1116.48 881.219C1116.48 882.507 1116.16 912.684 1088.66 932.981C1081.92 937.95 1073.57 940.441 1063.96 940.441ZM1020.96 923.325C1031.39 929.208 1064.83 945.752 1086.36 929.865C1107.35 914.371 1111.56 892.214 1112.4 884.225L1020.96 923.325Z" fill="black"/>
<path d="M970.354 941.085C980.009 959.753 1001.25 963.75 1011.55 955.891C1019.42 949.891 1022.19 936.058 1016.7 923.061L970.354 941.085Z" fill="#F8BE5A"/>
<path d="M999.127 961.645C996.876 961.639 994.633 961.382 992.439 960.879C982.384 958.626 973.707 951.738 968.622 941.973C968.496 941.733 968.423 941.469 968.407 941.198C968.39 940.927 968.431 940.656 968.527 940.403C968.622 940.149 968.77 939.918 968.96 939.725C969.151 939.532 969.38 939.381 969.632 939.283L1015.98 921.258C1016.45 921.077 1016.97 921.084 1017.43 921.28C1017.89 921.476 1018.26 921.845 1018.46 922.308C1024.06 935.568 1021.58 950.663 1012.7 957.429C1009.08 960.197 1004.33 961.645 999.127 961.645ZM973.121 942.083C977.75 949.807 984.998 955.253 993.282 957.114C999.803 958.575 1006.2 957.545 1010.38 954.352C1017.53 948.906 1019.65 936.778 1015.61 925.558L973.121 942.083Z" fill="black"/>
<path d="M830.023 1107.81L1052.11 1106.52L813.286 1061.46L830.023 1107.81Z" fill="black"/>
<path d="M1032.15 1022.84C1032.01 1022.84 1031.88 1022.82 1031.75 1022.79L986.685 1013.14C986.204 1013.01 985.79 1012.7 985.53 1012.28C985.27 1011.86 985.183 1011.35 985.287 1010.86C985.392 1010.38 985.68 1009.95 986.091 1009.67C986.502 1009.39 987.006 1009.28 987.496 1009.36L1032.56 1019.02C1033.02 1019.12 1033.43 1019.39 1033.71 1019.78C1033.99 1020.16 1034.11 1020.64 1034.06 1021.11C1034.01 1021.58 1033.79 1022.02 1033.44 1022.34C1033.08 1022.66 1032.63 1022.84 1032.15 1022.84Z" fill="black"/>
</svg>
