<svg width="1840" height="1380" viewBox="0 0 1840 1380" fill="none" xmlns="http://www.w3.org/2000/svg">
<path d="M527.043 668.407L524.019 667.197C519.583 677.279 515.147 687.36 510.711 697.442L525.228 636.347L522.664 633.867L501.032 697.442L514.945 609.126L510.106 606.707L490.144 691.393L501.032 603.682L497.403 601.868L479.256 688.973L488.329 601.263H483.49L463.529 695.022C466.15 663.971 468.771 632.919 471.392 601.868L467.158 602.472L450.826 697.442C453.044 666.794 455.262 636.145 457.479 605.497L453.85 606.102L437.518 701.676L444.492 616.615L440.542 617.595L420.581 705.306L429.152 631.605L424.815 633.927C420.177 660.341 415.54 686.755 410.902 713.169C411.707 699.662 412.517 687.358 413.322 673.851L410.297 674.456L394.806 729.943L515.55 713.774C519.381 698.652 523.212 683.529 527.043 668.407Z" fill="#EC088F"/>
<path d="M523.861 913.132C522.403 916.864 519.778 921.667 514.89 924.02C507.885 927.414 501.365 923.331 494.057 921.721C494.057 921.721 482.77 919.302 432.545 947.127L446.385 964.809L473.896 948.349C486.162 954.3 499.649 957.303 513.281 957.12C538.512 956.721 556.362 945.325 563.071 940.522" fill="#7D6C36"/>
<path d="M1359.67 838.438L1358.18 840.198L1358.66 838.136L1348.24 835.02L1345.47 837.174L1345.93 834.325L1337.25 831.712L1335.19 834.131L1335.84 831.27L1327.81 828.85L1324.3 832.939L1325.4 828.143L1317.87 825.862L1314.62 829.915L1316.1 825.33L1305.07 821.985C1302.53 824.132 1300.71 825.681 1300.71 825.681L1302.65 821.247L1296.21 819.293L1291.03 824.471L1291.98 818.005L1284 815.585L1278.94 821.446L1280.71 814.557L1273.79 812.439L1268.05 819.027L1269.74 811.199L1263.43 809.258L1258.37 816.002L1259.81 808.139L1252.46 805.87L1246.88 812.978L1247.3 804.291L1240.37 802.15L1235.38 811.163L1236.59 800.977L1229.58 798.805L1224.49 808.743L1227.06 798.025L1220.16 795.883L1213.61 805.719L1216.47 794.734L1209.94 792.695L1202.11 803.299L1204.28 790.929L1197.75 788.884L1191.83 800.275L1194.32 787.808L1186.81 785.455L1179.73 797.855L1182.19 784.003L1173.91 781.396L1167.03 793.016L1169.12 779.878L1160.3 777.089L1152.51 790.596L1154.06 775.117L1146.29 772.649L1140.41 786.362L1142.39 771.409L1133.92 768.711L1126.5 783.338L1128.35 766.933L1120.11 764.295L1112.59 780.313L1115.07 762.68L1108.03 760.418L1101.09 775.474L1103.66 759.021L1097.62 757.073L1089 775.474L1092.02 755.258L1085.29 753.092L1076.9 771.24L1079.96 751.362L1074.06 749.451L1065.4 771.24L1067.1 747.189C1064.69 746.408 1062.3 745.628 1059.93 744.854L1052.1 766.4L1056.26 743.656L1049.07 741.309L1038.18 763.376L1044.04 739.664L1039.07 738.036L1028.51 760.351L1032.9 736.01L1026.98 734.068L1016.41 757.932L1021.02 732.102L1014.97 730.118L1003.71 754.907L1007.51 727.638L1001.18 725.539L989.792 751.883L994.293 723.259L988.697 721.402L977.694 748.253L982.727 719.412L977.597 717.712L965.596 745.834L971.555 715.697L966.594 714.046L954.103 743.414L960.328 711.959L955.083 710.211L941.4 740.39L946.239 707.271L941.098 705.559L929.302 736.76L934.571 703.4L929.55 701.736L917.204 733.131L922.188 699.305L916.998 697.593L903.896 730.711L909.691 695.197L904.755 693.588L889.984 730.711L897.714 691.296L893.298 689.868L877.885 726.477L884.037 686.892L879.259 685.368L864.578 722.847L853.689 719.823L859.98 679.331L856.2 678.175L842.801 716.798L849.51 676.143L844.894 674.764L828.888 714.379L836.057 672.163L831.066 670.723L813.766 711.354L820.88 667.868L816.911 666.779L802.273 708.33L808.322 664.499C806.967 664.144 805.618 663.797 804.275 663.458L790.175 705.305L777.472 701.676L766.584 698.046L771.635 656.06L767.793 655.334L756.3 694.417L760.014 653.973L756.845 653.465L745.412 696.232V651.886C743.847 651.697 742.293 651.523 740.748 651.366L730.29 693.207L731.995 650.61C730.689 650.519 729.4 650.447 728.118 650.38L716.982 693.207L720.43 650.12C719.311 650.12 718.198 650.12 717.097 650.12L704.884 695.022V650.544C703.547 650.64 702.216 650.755 700.903 650.888L690.971 696.232L688.896 652.6C687.487 652.866 686.089 653.151 684.71 653.465L677.663 698.651L671.959 657.07C670.572 657.546 669.203 658.05 667.852 658.583L664.96 705.305L657.701 663.138C655.85 664.089 654.022 665.097 652.215 666.162L648.628 714.379L640.625 673.99C638.806 675.373 637.038 676.802 635.32 678.278V719.823L628.061 685.041C625.521 687.614 623.101 690.279 620.802 693.038V733.131L615.038 700.466C612.574 703.87 610.261 707.38 608.099 710.997V747.648L602.813 720.543C600.252 725.551 597.929 730.693 595.844 735.968L594.187 760.351L591.598 747.648C579.947 782.944 577.141 821.501 577.08 852.52L1430.6 859.44C1406.27 852.31 1382.63 845.31 1359.67 838.438Z" fill="#EC088F"/>
<path d="M918.414 1042.03C918.414 1042.03 933.034 1121.19 1020.64 1126.38L1028.45 1097.05C1028.45 1097.05 996.537 1081.25 984.85 1060.53C978.348 1049.04 976.412 1036.62 975.976 1027.87C975.798 1024.11 974.771 1020.45 972.973 1017.15C971.175 1013.85 968.653 1011 965.596 1008.81C946.481 995.186 907.653 966.096 900.46 949.721C890.837 927.836 811.479 956.623 811.479 956.623C840.509 992.51 876.997 1021.65 918.414 1042.03Z" fill="#7D6C36"/>
<path d="M1467.8 877.158L921.523 964.965L750.56 956.944L592.977 949.492C585.696 949.155 578.53 947.544 571.805 944.731L500.512 914.94C497.127 913.549 493.907 911.786 490.912 909.683C477.788 900.33 468.779 886.274 465.76 870.443C465.542 869.234 465.397 868.078 465.282 866.886L458.199 793.155C457.752 788.498 456.106 784.037 453.422 780.206C450.738 776.375 447.107 773.304 442.883 771.294L439.332 769.624C434.041 767.108 428.103 766.285 422.327 767.265C416.551 768.246 411.218 770.984 407.054 775.105L401.277 780.809C395.43 786.586 388.106 790.642 380.106 792.532C378.145 792.991 376.138 793.224 374.123 793.228C368.079 793.254 362.214 791.174 357.537 787.346C352.859 783.518 349.661 778.18 348.492 772.25C347.322 766.32 348.254 760.168 351.128 754.85C354.002 749.533 358.638 745.382 364.239 743.112L464.387 701.936C483.012 694.284 504.649 698.911 517.957 714.034C523.341 720.156 527.067 727.566 528.095 735.593L526.438 779.103C532.19 802.779 561.401 811.363 579.064 794.577L626.313 737.716C643.321 721.552 664.079 709.869 686.72 703.715C709.362 697.562 733.178 697.131 756.028 702.462L1468.1 868.465C1472.83 869.572 1472.59 876.389 1467.8 877.158Z" fill="#DDD71D"/>
<path d="M750.56 956.944L592.977 949.492C585.696 949.155 578.53 947.544 571.805 944.731L500.512 914.94C497.127 913.549 493.907 911.786 490.912 909.683C484.699 905.264 479.35 899.743 475.13 893.393C500.112 888.391 538.826 884.32 563.258 899.442C601.712 923.27 750.56 956.944 750.56 956.944Z" fill="#EBE777"/>
<path d="M704.835 818.174C720.685 893.027 748.433 964.855 787.023 1030.92C780.974 1052.7 774.925 1074.46 768.876 1096.19L730.162 1084.75L724.016 1120.12L761.321 1130.76C768.285 1132.7 775.686 1132.36 782.445 1129.8C789.205 1127.23 794.969 1122.58 798.897 1116.51L841.428 1050.81C844.833 1045.53 846.769 1039.44 847.035 1033.16L849.4 980.469C849.804 971.327 850.207 962.189 850.61 953.055" fill="#DDD71D"/>
<path d="M608.238 890.447C597.427 903.274 589.209 918.077 584.042 934.037C582.488 938.86 581.226 943.773 580.261 948.748C578.781 956.458 574.534 963.361 568.32 968.159C565.852 970.055 563.599 972.216 561.6 974.601C545.268 994.194 553.192 1021.27 554.051 1024C562.223 1024.05 570.486 1023.96 578.658 1024C581.779 1008.53 587.493 993.69 595.559 980.118C605.746 963.036 617.082 952.468 627.105 943.267C638.619 932.697 651.251 923.413 664.778 915.581" fill="#DDD71D"/>
<path d="M457.443 728.328C457.268 729.215 456.903 730.053 456.374 730.786C455.844 731.518 455.162 732.128 454.375 732.572C453.588 733.016 452.714 733.285 451.813 733.359C450.912 733.434 450.006 733.313 449.156 733.004C447.77 732.609 446.544 731.786 445.654 730.651C445.038 729.807 444.614 728.839 444.412 727.814C444.209 726.789 444.233 725.732 444.48 724.717C444.788 723.568 445.401 722.523 446.253 721.693C447.1 720.872 448.146 720.286 449.288 719.993C450.431 719.699 451.63 719.707 452.768 720.017C453.647 720.286 454.464 720.729 455.169 721.319C455.874 721.909 456.455 722.635 456.875 723.453C457.645 724.957 457.847 726.688 457.443 728.328Z" fill="#424242"/>
<path d="M851.41 518.252C862.692 518.252 871.837 509.106 871.837 497.824C871.837 486.542 862.692 477.396 851.41 477.396C840.128 477.396 830.982 486.542 830.982 497.824C830.982 509.106 840.128 518.252 851.41 518.252Z" fill="#1A467F"/>
<path d="M432.545 947.109L423.562 952.711C423.352 952.839 423.189 953.032 423.1 953.262C423.011 953.491 423 953.744 423.069 953.98C423.138 954.216 423.283 954.423 423.481 954.569C423.68 954.715 423.921 954.791 424.167 954.786H432.557L427.717 963.218C427.606 963.41 427.555 963.631 427.57 963.852C427.585 964.073 427.665 964.286 427.8 964.461C427.936 964.637 428.12 964.768 428.331 964.839C428.541 964.909 428.768 964.916 428.982 964.857L437.916 962.48L434.807 969.212C434.707 969.43 434.68 969.673 434.728 969.908C434.776 970.142 434.898 970.355 435.075 970.515C435.252 970.676 435.476 970.775 435.714 970.8C435.952 970.825 436.191 970.773 436.398 970.652L446.379 964.785C441.765 958.897 437.154 953.005 432.545 947.109Z" fill="#424242"/>
<path d="M554.034 1024L552.727 1035.88C552.703 1036.12 552.758 1036.37 552.883 1036.57C553.008 1036.78 553.196 1036.94 553.421 1037.04C553.645 1037.13 553.893 1037.14 554.128 1037.08C554.363 1037.02 554.571 1036.89 554.723 1036.7L560.627 1029.27L564.638 1039.3C564.722 1039.51 564.866 1039.68 565.05 1039.8C565.234 1039.93 565.451 1039.99 565.672 1039.99C565.894 1039.99 566.11 1039.93 566.294 1039.8C566.478 1039.68 566.622 1039.51 566.706 1039.3L570.82 1029.86L574.606 1037.37C574.713 1037.59 574.885 1037.76 575.098 1037.87C575.311 1037.98 575.553 1038.02 575.789 1037.98C576.025 1037.94 576.243 1037.83 576.41 1037.66C576.577 1037.48 576.685 1037.26 576.718 1037.03C577.359 1032.68 578.042 1028.26 578.641 1023.97C570.499 1023.94 562.182 1024.09 554.034 1024Z" fill="#424242"/>
<path d="M730.121 1084.75L712.506 1080.69C712.166 1080.6 711.806 1080.63 711.482 1080.76C711.157 1080.9 710.885 1081.13 710.707 1081.44C710.529 1081.74 710.455 1082.09 710.496 1082.44C710.537 1082.79 710.69 1083.12 710.933 1083.37L720.261 1093.29L705.193 1096.92C704.884 1096.99 704.604 1097.16 704.388 1097.39C704.173 1097.63 704.031 1097.92 703.98 1098.23C703.93 1098.55 703.973 1098.87 704.105 1099.16C704.237 1099.45 704.451 1099.69 704.721 1099.86L717.266 1107.65L705.822 1111.47C705.498 1111.58 705.216 1111.79 705.018 1112.07C704.82 1112.35 704.716 1112.68 704.721 1113.02C704.726 1113.36 704.839 1113.69 705.044 1113.97C705.25 1114.24 705.537 1114.44 705.864 1114.54C711.913 1116.35 718.023 1118.41 723.981 1120.15C725.029 1114.59 726.054 1108.94 727.054 1103.22C728.139 1096.99 729.161 1090.83 730.121 1084.75Z" fill="#424242"/>
<path d="M1019.24 1126.27L1033.99 1130.71C1034.27 1130.81 1034.57 1130.81 1034.85 1130.72C1035.13 1130.63 1035.37 1130.46 1035.54 1130.22C1035.71 1129.98 1035.8 1129.69 1035.8 1129.39C1035.79 1129.1 1035.69 1128.82 1035.5 1128.59L1028.35 1119.59L1041.27 1117.61C1041.54 1117.56 1041.78 1117.44 1041.97 1117.26C1042.17 1117.08 1042.3 1116.85 1042.37 1116.59C1042.43 1116.34 1042.42 1116.07 1042.33 1115.82C1042.25 1115.57 1042.09 1115.35 1041.88 1115.19L1031.87 1107.76L1041.76 1105.34C1042.05 1105.27 1042.3 1105.11 1042.48 1104.89C1042.67 1104.67 1042.78 1104.4 1042.8 1104.11C1042.82 1103.82 1042.75 1103.53 1042.59 1103.29C1042.44 1103.04 1042.21 1102.86 1041.94 1102.75C1036.99 1100.81 1031.98 1098.65 1027.1 1096.77C1025.82 1101.37 1024.57 1106.04 1023.33 1110.78C1021.99 1115.92 1020.48 1121.23 1019.24 1126.27Z" fill="#424242"/>
<path d="M837.962 592.189L866.768 689.088C868.059 693.43 868.318 698.013 867.526 702.473C866.733 706.932 864.91 711.145 862.202 714.776C859.494 718.407 855.976 721.356 851.927 723.387C847.878 725.419 843.411 726.477 838.882 726.477H770.818L797.803 816.771C799.134 821.224 799.146 825.967 797.837 830.426C796.528 834.886 793.955 838.871 790.429 841.898L761.14 867.062C758.258 869.536 754.606 870.935 750.809 871.018C747.011 871.102 743.302 869.867 740.313 867.522C738.982 866.459 737.875 865.141 737.057 863.647C736.239 862.152 735.726 860.51 735.547 858.816C735.369 857.121 735.529 855.409 736.018 853.776C736.507 852.144 737.315 850.626 738.396 849.308L763.559 818.422L719.402 732.139C716.745 726.942 715.76 721.05 716.583 715.271C717.406 709.493 719.997 704.11 723.999 699.861L724.192 699.656C728.118 695.494 733.398 692.869 739.085 692.252L796.66 686.003L763.559 609.126L704.884 699.861C681.308 703.439 658.918 712.56 639.555 726.477L689.544 666.205L740.15 573.05C741.425 570.709 743.187 568.669 745.316 567.067C747.446 565.464 749.894 564.336 752.496 563.758L817.825 548.878C821.922 547.947 826.189 548.091 830.214 549.295L925.068 577.671C939.183 538.554 953.297 499.437 967.411 460.32L983.139 499.639C971.867 532.275 960.596 564.91 949.325 597.542C947.485 602.871 943.731 607.326 938.792 610.043C933.852 612.76 928.08 613.546 922.594 612.247L837.962 592.189Z" fill="#348BFE"/>
<path d="M851.675 475.993L851.36 509.868C851.3 516.175 848.81 522.216 844.408 526.733C840.005 531.251 834.03 533.896 827.727 534.118C826.421 534.16 825.115 534.099 823.819 533.937L810.632 532.279L810.13 568.513L779.601 570.975L770.267 476.852C769.77 473.794 770.111 470.659 771.253 467.779C774.138 460.762 782.057 456.183 791.396 455.898L794.421 455.747L828.579 454.072C837.387 453.636 845.777 458.372 849.551 466.345C850.986 469.357 851.712 472.657 851.675 475.993Z" fill="#348BFE"/>
<path d="M851.675 482.387L851.36 511.786C851.349 512.755 851.264 513.721 851.106 514.677C850.645 517.087 849.776 519.401 848.535 521.518C846.285 525.148 837.218 529.273 825.259 528.07C822.567 527.574 808.805 524.755 801.111 512.191C798.493 507.864 796.9 502.995 796.453 497.958L795.782 486.936C795.032 474.754 805.841 464.361 819.881 463.763L828.586 463.394C837.393 463.012 845.783 467.126 849.558 474.046C850.97 476.598 851.699 479.471 851.675 482.387Z" fill="#EBE777"/>
<path d="M843.753 497.691C843.786 499.194 845.031 500.386 846.534 500.353C848.037 500.32 849.229 499.075 849.196 497.572L849.143 495.153C849.11 493.65 847.865 492.458 846.362 492.491C844.859 492.524 843.667 493.769 843.7 495.272L843.753 497.691Z" fill="#424242"/>
<path d="M819.537 497.988C819.57 499.491 820.816 500.683 822.319 500.65C823.822 500.617 825.013 499.371 824.98 497.868L824.927 495.449C824.894 493.946 823.649 492.755 822.146 492.788C820.643 492.821 819.451 494.066 819.484 495.569L819.537 497.988Z" fill="#424242"/>
<path d="M1042.52 467.244C1046.7 467.152 1050.01 463.693 1049.92 459.518C1049.83 455.343 1046.37 452.033 1042.19 452.125L985.949 453.362C981.774 453.454 978.464 456.913 978.556 461.088C978.648 465.263 982.107 468.573 986.282 468.481L1042.52 467.244Z" fill="#1A467F"/>
<path d="M1047.45 443.306C1051.59 442.721 1054.46 438.895 1053.88 434.76C1053.29 430.625 1049.47 427.748 1045.33 428.332L989.632 436.21C985.497 436.795 982.619 440.621 983.204 444.756C983.789 448.891 987.615 451.769 991.75 451.184L1047.45 443.306Z" fill="#1A467F"/>
<path d="M810.65 532.171L794.923 529.503C794.662 529.473 794.398 529.528 794.171 529.661C793.944 529.794 793.767 529.997 793.665 530.239C793.564 530.482 793.545 530.751 793.61 531.006C793.676 531.26 793.822 531.487 794.028 531.651L810.469 543.428C810.534 539.678 810.594 535.925 810.65 532.171Z" fill="#1A467F"/>
<path d="M754.951 518.252C766.233 518.252 775.378 509.106 775.378 497.824C775.378 486.542 766.233 477.396 754.951 477.396C743.669 477.396 734.523 486.542 734.523 497.824C734.523 509.106 743.669 518.252 754.951 518.252Z" fill="#348BFE"/>
<path d="M993.651 433.572C995.105 429.657 993.11 425.305 989.195 423.852C985.28 422.398 980.928 424.393 979.475 428.308L959.893 481.046C958.439 484.961 960.435 489.313 964.349 490.766C968.264 492.22 972.616 490.225 974.07 486.31L993.651 433.572Z" fill="#348BFE"/>
<path d="M1001.46 428.213L999.482 427.479C995.567 426.025 991.215 428.02 989.762 431.935L964.762 499.264C963.309 503.179 965.304 507.531 969.219 508.984L971.198 509.719C975.113 511.173 979.465 509.177 980.918 505.262L1005.92 437.934C1007.37 434.019 1005.38 429.667 1001.46 428.213Z" fill="#348BFE"/>
<path d="M1043.41 424.464C1047.46 423.44 1049.91 419.328 1048.89 415.28C1047.87 411.231 1043.76 408.779 1039.71 409.803L985.167 423.593C981.119 424.617 978.666 428.729 979.69 432.777C980.714 436.826 984.826 439.278 988.874 438.254L1043.41 424.464Z" fill="#348BFE"/>
<path d="M846.715 483.911C844.79 483.911 842.943 484.676 841.582 486.037C840.221 487.398 839.456 489.245 839.456 491.17H853.974C853.974 489.245 853.209 487.398 851.848 486.037C850.486 484.676 848.64 483.911 846.715 483.911Z" fill="#348BFE"/>
<path d="M1020.99 386.513C1023.08 382.896 1021.84 378.272 1018.22 376.184C1014.61 374.096 1009.98 375.335 1007.9 378.952L979.767 427.671C977.679 431.287 978.918 435.911 982.535 437.999C986.151 440.087 990.776 438.848 992.864 435.232L1020.99 386.513Z" fill="#348BFE"/>
<path d="M796.829 685.949L821.999 684.552C822.206 684.542 822.403 684.456 822.55 684.31C822.698 684.164 822.786 683.968 822.798 683.761C822.81 683.553 822.745 683.349 822.615 683.187C822.486 683.024 822.3 682.916 822.095 682.882L793.199 678.007L796.829 685.949Z" fill="#1A467F"/>
<path d="M837.151 477.972L842.801 505.688C842.891 506.129 842.881 506.584 842.773 507.02C842.665 507.456 842.461 507.863 842.176 508.211C841.891 508.559 841.532 508.838 841.126 509.03C840.719 509.221 840.274 509.319 839.825 509.318H836.147C835.727 509.319 835.311 509.233 834.926 509.065C834.541 508.897 834.195 508.651 833.911 508.342C833.626 508.033 833.409 507.668 833.274 507.27C833.138 506.873 833.086 506.451 833.123 506.033L835.409 478.074C835.437 477.87 835.535 477.682 835.686 477.542C835.837 477.402 836.032 477.318 836.238 477.306C836.444 477.294 836.647 477.354 836.814 477.475C836.98 477.597 837.1 477.772 837.151 477.972Z" fill="#1A467F"/>
<path d="M754.485 508.108C760.165 508.108 764.769 503.504 764.769 497.824C764.769 492.145 760.165 487.541 754.485 487.541C748.806 487.541 744.202 492.145 744.202 497.824C744.202 503.504 748.806 508.108 754.485 508.108Z" fill="#EBE777"/>
<path d="M821.914 483.911C819.989 483.911 818.143 484.676 816.781 486.037C815.42 487.398 814.655 489.245 814.655 491.17H829.173C829.173 489.245 828.408 487.398 827.047 486.037C825.686 484.676 823.839 483.911 821.914 483.911Z" fill="#348BFE"/>
<path d="M1491.86 248L1274.1 368.98L1263.21 318.169L1167.03 440.086L1234.41 532.437L1316.86 611.637L1416.85 466.369L1386.61 468.184L1491.86 248Z" fill="#DDD71D"/>
<path d="M1244.73 418.582C1181.82 412.884 1126.25 459.244 1120.55 522.129C1120.49 522.819 1120.44 523.502 1120.4 524.192C1123.23 523.28 1126.24 523.014 1129.19 523.414C1132.14 523.814 1134.97 524.87 1137.46 526.504C1139.95 528.139 1142.04 530.31 1143.58 532.858C1145.13 535.407 1146.08 538.269 1146.37 541.233C1146.67 544.198 1146.29 547.191 1145.28 549.992C1144.26 552.793 1142.63 555.332 1140.51 557.422C1138.39 559.511 1135.82 561.1 1133.01 562.069C1130.19 563.039 1127.19 563.366 1124.23 563.027C1130.45 585.407 1143.34 605.363 1161.18 620.239C1179.02 635.115 1200.97 644.206 1224.11 646.303C1287.02 651.996 1342.58 605.636 1348.27 542.75C1353.97 479.865 1307.61 424.268 1244.73 418.582Z" fill="black"/>
<path d="M1254.13 556.5C1265.16 556.5 1274.1 547.562 1274.1 536.538C1274.1 525.513 1265.16 516.576 1254.13 516.576C1243.11 516.576 1234.17 525.513 1234.17 536.538C1234.17 547.562 1243.11 556.5 1254.13 556.5Z" fill="white"/>
<path d="M1273.49 532.909C1295.21 532.909 1312.81 515.305 1312.81 493.59C1312.81 471.875 1295.21 454.271 1273.49 454.271C1251.78 454.271 1234.17 471.875 1234.17 493.59C1234.17 515.305 1251.78 532.909 1273.49 532.909Z" fill="white"/>
</svg>
