<svg width="1840" height="1380" viewBox="0 0 1840 1380" fill="none" xmlns="http://www.w3.org/2000/svg"><path d="m527.043 668.407-3.024-1.21-13.308 30.245 14.517-61.095-2.564-2.48-21.632 63.575 13.913-88.316-4.839-2.419-19.962 84.686 10.888-87.711-3.629-1.814-18.147 87.105 9.073-87.71h-4.839l-19.961 93.759 7.863-93.154-4.234.604-16.332 94.97 6.653-91.945-3.629.605-16.332 95.574 6.974-85.061-3.95.98-19.961 87.711 8.571-73.701-4.337 2.322-13.913 79.242c.805-13.507 1.615-25.811 2.42-39.318l-3.025.605-15.491 55.487 120.744-16.169 11.493-45.367z" fill="#EC088F"/><path d="M523.861 913.132c-1.458 3.732-4.083 8.535-8.971 10.888-7.005 3.394-13.525-.689-20.833-2.299 0 0-11.287-2.419-61.512 25.406l13.84 17.682 27.511-16.46a87.537 87.537 0 0 0 39.385 8.771c25.231-.399 43.081-11.795 49.79-16.598" fill="#7D6C36"/><path d="m1359.67 838.438-1.49 1.76.48-2.062-10.42-3.116-2.77 2.154.46-2.849-8.68-2.613-2.06 2.419.65-2.861-8.03-2.42-3.51 4.089 1.1-4.796-7.53-2.281-3.25 4.053 1.48-4.585-11.03-3.345c-2.54 2.147-4.36 3.696-4.36 3.696l1.94-4.434-6.44-1.954-5.18 5.178.95-6.466-7.98-2.42-5.06 5.861 1.77-6.889-6.92-2.118-5.74 6.588 1.69-7.828-6.31-1.941-5.06 6.744 1.44-7.863-7.35-2.269-5.58 7.108.42-8.687-6.93-2.141-4.99 9.013 1.21-10.186-7.01-2.172-5.09 9.938 2.57-10.718-6.9-2.142-6.55 9.836 2.86-10.985-6.53-2.039-7.83 10.604 2.17-12.37-6.53-2.045-5.92 11.391 2.49-12.467-7.51-2.353-7.08 12.4 2.46-13.852-8.28-2.607-6.88 11.62 2.09-13.138-8.82-2.789-7.79 13.507 1.55-15.479-7.77-2.468-5.88 13.713 1.98-14.953-8.47-2.698-7.42 14.627 1.85-16.405-8.24-2.638-7.52 16.018 2.48-17.633-7.04-2.262-6.94 15.056 2.57-16.453-6.04-1.948-8.62 18.401 3.02-20.216-6.73-2.166-8.39 18.148 3.06-19.878-5.9-1.911-8.66 21.789 1.7-24.051c-2.41-.781-4.8-1.561-7.17-2.335l-7.83 21.546 4.16-22.744-7.19-2.347-10.89 22.067 5.86-23.712-4.97-1.628-10.56 22.315 4.39-24.341-5.92-1.942-10.57 23.864 4.61-25.83-6.05-1.984-11.26 24.789 3.8-27.269-6.33-2.099-11.388 26.344 4.501-28.624-5.596-1.857-11.003 26.851 5.033-28.841-5.13-1.7-12.001 28.122 5.959-30.137-4.961-1.651-12.491 29.368 6.225-31.455-5.245-1.748L941.4 740.39l4.839-33.119-5.141-1.712-11.796 31.201 5.269-33.36-5.021-1.664-12.346 31.395 4.984-33.826-5.19-1.712-13.102 33.118 5.795-35.514-4.936-1.609-14.771 37.123 7.73-39.415-4.416-1.428-15.413 36.609 6.152-39.585-4.778-1.524-14.681 37.479-10.889-3.024 6.291-40.492-3.78-1.156-13.399 38.623 6.709-40.655-4.616-1.379-16.006 39.615 7.169-42.216-4.991-1.44-17.3 40.631 7.114-43.486-3.969-1.089-14.638 41.551 6.049-43.831a465.42 465.42 0 0 0-4.047-1.041l-14.1 41.847-12.703-3.629-10.888-3.63 5.051-41.986-3.842-.726-11.493 39.083 3.714-40.444-3.169-.508-11.433 42.767v-44.346a248.123 248.123 0 0 0-4.664-.52l-10.458 41.841 1.705-42.597a223.103 223.103 0 0 0-3.877-.23l-11.136 42.827 3.448-43.087h-3.333l-12.213 44.902v-44.478c-1.337.096-2.668.211-3.981.344l-9.932 45.344-2.075-43.632a114.75 114.75 0 0 0-4.186.865l-7.047 45.186-5.704-41.581c-1.387.476-2.756.98-4.107 1.513l-2.892 46.722-7.259-42.167a108.054 108.054 0 0 0-5.486 3.024l-3.587 48.217-8.003-40.389a114.222 114.222 0 0 0-5.305 4.288v41.545l-7.259-34.782a128.184 128.184 0 0 0-7.259 7.997v40.093l-5.764-32.665a143.602 143.602 0 0 0-6.939 10.531v36.651l-5.286-27.105a175.744 175.744 0 0 0-6.969 15.425l-1.657 24.383-2.589-12.703c-11.651 35.296-14.457 73.853-14.518 104.872l853.52 6.92c-24.33-7.13-47.97-14.13-70.93-21.002z" fill="#EC088F"/><path d="M918.414 1042.03s14.62 79.16 102.226 84.35l7.81-29.33s-31.913-15.8-43.6-36.52c-6.502-11.49-8.438-23.91-8.874-32.66a24.847 24.847 0 0 0-3.003-10.72 24.936 24.936 0 0 0-7.377-8.34c-19.115-13.624-57.943-42.714-65.136-59.089-9.623-21.885-88.981 6.902-88.981 6.902a318.285 318.285 0 0 0 106.935 85.407z" fill="#7D6C36"/><path d="m1467.8 877.158-546.277 87.807-170.963-8.021-157.583-7.452a62.333 62.333 0 0 1-21.172-4.761l-71.293-29.791a49.34 49.34 0 0 1-9.6-5.257 62.58 62.58 0 0 1-25.152-39.24 43.03 43.03 0 0 1-.478-3.557l-7.083-73.731a27.076 27.076 0 0 0-15.316-21.861l-3.551-1.67a28.496 28.496 0 0 0-32.278 5.481l-5.777 5.704a44.766 44.766 0 0 1-21.171 11.723 26.48 26.48 0 0 1-5.983.696 26.011 26.011 0 0 1-9.884-50.116l100.148-41.176c18.625-7.652 40.262-3.025 53.57 12.098 5.384 6.122 9.11 13.532 10.138 21.559l-1.657 43.51c5.752 23.676 34.963 32.26 52.626 15.474l47.249-56.861a141.6 141.6 0 0 1 129.715-35.254L1468.1 868.465c4.73 1.107 4.49 7.924-.3 8.693z" fill="#DDD71D"/><path d="m750.56 956.944-157.583-7.452a62.333 62.333 0 0 1-21.172-4.761l-71.293-29.791a49.34 49.34 0 0 1-9.6-5.257 62.314 62.314 0 0 1-15.782-16.29c24.982-5.002 63.696-9.073 88.128 6.049 38.454 23.828 187.302 57.502 187.302 57.502z" fill="#EBE777"/><path d="M704.835 818.174a715.78 715.78 0 0 0 82.188 212.746c-6.049 21.78-12.098 43.54-18.147 65.27l-38.714-11.44-6.146 35.37 37.305 10.64a33.932 33.932 0 0 0 21.124-.96 33.96 33.96 0 0 0 16.452-13.29l42.531-65.7a35.319 35.319 0 0 0 5.607-17.65l2.365-52.691 1.21-27.414m-242.372-62.608a129.557 129.557 0 0 0-24.196 43.59 126.538 126.538 0 0 0-3.781 14.711 32.191 32.191 0 0 1-11.941 19.411 42.76 42.76 0 0 0-6.72 6.442c-16.332 19.593-8.408 46.669-7.549 49.399 8.172.05 16.435-.04 24.607 0a140.153 140.153 0 0 1 16.901-43.882c10.187-17.082 21.523-27.65 31.546-36.851a215.032 215.032 0 0 1 37.673-27.686" fill="#DDD71D"/><path d="M457.443 728.328a6.276 6.276 0 0 1-3.068 4.244 6.257 6.257 0 0 1-5.219.432 6.828 6.828 0 0 1-3.502-2.353 7.19 7.19 0 0 1-1.174-5.934 6.613 6.613 0 0 1 1.773-3.024 6.797 6.797 0 0 1 6.515-1.676 6.879 6.879 0 0 1 4.107 3.436 7.016 7.016 0 0 1 .568 4.875z" fill="#424242"/><path d="M851.41 518.252c11.282 0 20.427-9.146 20.427-20.428s-9.145-20.428-20.427-20.428-20.428 9.146-20.428 20.428 9.146 20.428 20.428 20.428z" fill="#1A467F"/><path d="m432.545 947.109-8.983 5.602a1.119 1.119 0 0 0 .605 2.075h8.39l-4.84 8.432a1.116 1.116 0 0 0 .083 1.243 1.122 1.122 0 0 0 1.182.396l8.934-2.377-3.109 6.732a1.126 1.126 0 0 0 1.591 1.44l9.981-5.867c-4.614-5.888-9.225-11.78-13.834-17.676zM554.034 1024l-1.307 11.88c-.024.24.031.49.156.69.125.21.313.37.538.47.224.09.472.1.707.04.235-.06.443-.19.595-.38l5.904-7.43 4.011 10.03c.084.21.228.38.412.5.184.13.401.19.622.19.222 0 .438-.06.622-.19.184-.12.328-.29.412-.5l4.114-9.44 3.786 7.51c.107.22.279.39.492.5.213.11.455.15.691.11.236-.04.454-.15.621-.32.167-.18.275-.4.308-.63.641-4.35 1.324-8.77 1.923-13.06-8.142-.03-16.459.12-24.607.03zm176.087 60.75-17.615-4.06c-.34-.09-.7-.06-1.024.07-.325.14-.597.37-.775.68-.178.3-.252.65-.211 1 .041.35.194.68.437.93l9.328 9.92-15.068 3.63a1.6 1.6 0 0 0-1.213 1.31 1.62 1.62 0 0 0 .741 1.63l12.545 7.79-11.444 3.82a1.625 1.625 0 0 0-1.101 1.55c.005.34.118.67.323.95.206.27.493.47.82.57 6.049 1.81 12.159 3.87 18.117 5.61 1.048-5.56 2.073-11.21 3.073-16.93 1.085-6.23 2.107-12.39 3.067-18.47zm289.119 41.52 14.75 4.44c.28.1.58.1.86.01.28-.09.52-.26.69-.5.17-.24.26-.53.26-.83-.01-.29-.11-.57-.3-.8l-7.15-9 12.92-1.98c.27-.05.51-.17.7-.35.2-.18.33-.41.4-.67.06-.25.05-.52-.04-.77-.08-.25-.24-.47-.45-.63l-10.01-7.43 9.89-2.42c.29-.07.54-.23.72-.45.19-.22.3-.49.32-.78.02-.29-.05-.58-.21-.82-.15-.25-.38-.43-.65-.54-4.95-1.94-9.96-4.1-14.84-5.98-1.28 4.6-2.53 9.27-3.77 14.01-1.34 5.14-2.85 10.45-4.09 15.49z" fill="#424242"/><path d="m837.962 592.189 28.806 96.899a29.103 29.103 0 0 1-14.841 34.299 29.083 29.083 0 0 1-13.045 3.09h-68.064l26.985 90.294a24.038 24.038 0 0 1-7.374 25.127l-29.289 25.164a16.414 16.414 0 0 1-20.827.46 12.87 12.87 0 0 1-4.295-13.746 12.869 12.869 0 0 1 2.378-4.468l25.163-30.886-44.157-86.283a28.293 28.293 0 0 1 4.597-32.278l.193-.205a24.037 24.037 0 0 1 14.893-7.404l57.575-6.249-33.101-76.877-58.675 90.735a150.67 150.67 0 0 0-65.329 26.616l49.989-60.272 50.606-93.155a18.654 18.654 0 0 1 12.346-9.292l65.329-14.88a24.378 24.378 0 0 1 12.389.417l94.854 28.376 42.343-117.351 15.728 39.319-33.814 97.903a22.737 22.737 0 0 1-26.731 14.705l-84.632-20.058z" fill="#348BFE"/><path d="m851.675 475.993-.315 33.875a24.498 24.498 0 0 1-23.633 24.25 25.017 25.017 0 0 1-3.908-.181l-13.187-1.658-.502 36.234-30.529 2.462-9.334-94.123a17.15 17.15 0 0 1 .986-9.073c2.885-7.017 10.804-11.596 20.143-11.881l3.025-.151 34.158-1.675c8.808-.436 17.198 4.3 20.972 12.273a21.866 21.866 0 0 1 2.124 9.648z" fill="#348BFE"/><path d="m851.675 482.387-.315 29.399a19.052 19.052 0 0 1-.254 2.891 21.523 21.523 0 0 1-2.571 6.841c-2.25 3.63-11.317 7.755-23.276 6.552-2.692-.496-16.454-3.315-24.148-15.879a33.157 33.157 0 0 1-4.658-14.233l-.671-11.022c-.75-12.182 10.059-22.575 24.099-23.173l8.705-.369c8.807-.382 17.197 3.732 20.972 10.652a16.94 16.94 0 0 1 2.117 8.341z" fill="#EBE777"/><path d="M843.753 497.691a2.722 2.722 0 0 0 5.443-.119l-.053-2.419a2.722 2.722 0 0 0-5.443.119l.053 2.419zm-24.216.297a2.723 2.723 0 0 0 5.443-.12l-.053-2.419a2.721 2.721 0 1 0-5.443.12l.053 2.419z" fill="#424242"/><path d="M1042.52 467.244a7.56 7.56 0 1 0-.33-15.119l-56.241 1.237a7.561 7.561 0 1 0 .333 15.119l56.238-1.237zm4.93-23.938a7.563 7.563 0 0 0 6.43-8.546 7.566 7.566 0 0 0-8.55-6.428l-55.698 7.878a7.561 7.561 0 1 0 2.118 14.974l55.7-7.878zm-236.8 88.865-15.727-2.668a1.213 1.213 0 0 0-1.313 1.503c.066.254.212.481.418.645l16.441 11.777c.065-3.75.125-7.503.181-11.257z" fill="#1A467F"/><path d="M754.951 518.252c11.282 0 20.427-9.146 20.427-20.428s-9.145-20.428-20.427-20.428-20.428 9.146-20.428 20.428 9.146 20.428 20.428 20.428zm238.7-84.68a7.56 7.56 0 0 0-4.456-9.72 7.56 7.56 0 0 0-9.72 4.456l-19.582 52.738a7.561 7.561 0 0 0 14.177 5.264l19.581-52.738z" fill="#348BFE"/><path d="m1001.46 428.213-1.978-.734a7.56 7.56 0 0 0-9.72 4.456l-25 67.329a7.561 7.561 0 0 0 4.457 9.72l1.979.735a7.56 7.56 0 0 0 9.72-4.457l25.002-67.328a7.563 7.563 0 0 0-4.46-9.721z" fill="#348BFE"/><path d="M1043.41 424.464a7.565 7.565 0 0 0 5.48-9.184 7.554 7.554 0 0 0-9.18-5.477l-54.543 13.79a7.562 7.562 0 0 0 3.707 14.661l54.536-13.79zm-196.695 59.447a7.26 7.26 0 0 0-7.259 7.259h14.518a7.26 7.26 0 0 0-7.259-7.259z" fill="#348BFE"/><path d="M1020.99 386.513a7.557 7.557 0 0 0-2.77-10.329c-3.61-2.088-8.24-.849-10.32 2.768l-28.133 48.719a7.562 7.562 0 0 0 13.097 7.561l28.126-48.719z" fill="#348BFE"/><path d="m796.829 685.949 25.17-1.397a.84.84 0 0 0 .096-1.67l-28.896-4.875 3.63 7.942zm40.322-207.977 5.65 27.716a3.024 3.024 0 0 1-2.976 3.63h-3.678a3.035 3.035 0 0 1-2.236-.976 3.004 3.004 0 0 1-.637-1.072 3.003 3.003 0 0 1-.151-1.237l2.286-27.959a.89.89 0 0 1 1.405-.599.891.891 0 0 1 .337.497z" fill="#1A467F"/><path d="M754.485 508.108c5.68 0 10.284-4.604 10.284-10.284 0-5.679-4.604-10.283-10.284-10.283-5.679 0-10.283 4.604-10.283 10.283 0 5.68 4.604 10.284 10.283 10.284z" fill="#EBE777"/><path d="M821.914 483.911a7.262 7.262 0 0 0-7.259 7.259h14.518a7.26 7.26 0 0 0-7.259-7.259z" fill="#348BFE"/><path d="M1491.86 248 1274.1 368.98l-10.89-50.811-96.18 121.917 67.38 92.351 82.45 79.2 99.99-145.268-30.24 1.815L1491.86 248z" fill="#DDD71D"/><path d="M1244.73 418.582c-62.91-5.698-118.48 40.662-124.18 103.547a71.5 71.5 0 0 0-.15 2.063 19.949 19.949 0 0 1 23.18 8.666 19.83 19.83 0 0 1 2.79 8.375c.3 2.965-.08 5.958-1.09 8.759a19.972 19.972 0 0 1-12.27 12.077c-2.82.97-5.82 1.297-8.78.958a114.373 114.373 0 0 0 99.88 83.276c62.91 5.693 118.47-40.667 124.16-103.553 5.7-62.885-40.66-118.482-103.54-124.168z" fill="#000"/><path d="M1254.13 556.5c11.03 0 19.97-8.938 19.97-19.962 0-11.025-8.94-19.962-19.97-19.962-11.02 0-19.96 8.937-19.96 19.962 0 11.024 8.94 19.962 19.96 19.962z" fill="#fff"/><path d="M1273.49 532.909c21.72 0 39.32-17.604 39.32-39.319 0-21.715-17.6-39.319-39.32-39.319-21.71 0-39.32 17.604-39.32 39.319 0 21.715 17.61 39.319 39.32 39.319z" fill="#fff"/></svg>