<svg width="1840" height="1380" viewBox="0 0 1840 1380" fill="none" xmlns="http://www.w3.org/2000/svg">
<path d="M1177.06 435.626L1184.52 293L1232.86 430.761L1339.61 378.993L1279.34 470.817L1438.53 514.092L1300.36 565.331L1382.36 621.576L1237.96 588.945L1226.89 701.537L1182.16 600.706L1066.75 678.798L1147.12 556.351L1001.41 487.449L1129.39 482.627C1129.39 482.627 1064.74 395.074 1069.45 396.72C1074.16 398.367 1177.06 435.626 1177.06 435.626Z" fill="#F1FF24" stroke="black" stroke-width="1.5" stroke-miterlimit="10"/>
<path d="M928.486 418.115L1033.18 456.994C1033.64 457.172 1034.09 457.356 1034.53 457.534C1057.97 467.4 1072.31 491.364 1070.67 516.744L1046.74 614.13L1153.66 557.972L1223.32 586.051L1071.04 711.328L1014.34 703.228L981.945 597.391" fill="#6EFF50"/>
<path d="M928.486 418.115L1033.18 456.994C1033.64 457.172 1034.09 457.356 1034.53 457.534C1057.97 467.4 1072.31 491.364 1070.67 516.744L1046.74 614.13L1153.66 557.972L1223.32 586.051L1071.04 711.328L1014.34 703.228L981.945 597.391" stroke="black" stroke-width="1.5" stroke-miterlimit="10"/>
<path d="M850.728 959.181L815.629 1022.63L780.53 1086.08H834.529L869.088 1018.58L885.288 1018.04C886.368 1021.79 887.447 1025.57 888.527 1029.38C890.007 1034.63 891.447 1039.85 892.847 1045.04C964.487 1033.7 1036.12 1023.44 1107.76 1012.1C1106.86 1006.35 1104.43 1000.94 1100.74 996.44C1091.23 985.138 1073.63 981.471 1055.92 986.72L973.845 999.68L992.745 959.181H850.728Z" fill="black"/>
<path d="M786.378 594.625L764.638 664.51C757.273 694.339 779.067 723.433 809.76 724.762L987.345 727.526C962.145 765.685 937.216 804.024 912.557 842.543C885.5 884.813 858.77 927.292 832.369 969.98L995.984 972.14L1111.74 710.096C1127.5 674.413 1104.35 633.639 1065.64 628.887L786.378 594.625Z" fill="#842EFF" stroke="black" stroke-width="1.5" stroke-miterlimit="10"/>
<path d="M480.838 991.693L402 1086.08H471.118L512.157 1031L531.597 1033.16L513.237 1086.08H740.031C741.387 1081.04 741.588 1075.77 740.618 1070.64C739.649 1065.52 737.535 1060.68 734.434 1056.49C731.332 1052.3 727.324 1048.86 722.709 1046.44C718.093 1044.01 712.989 1042.66 707.778 1042.48L607.735 1039.1L635.744 993.697" fill="black"/>
<path d="M788.09 567.691C697.55 692.758 570.837 868.048 480.298 993.114L669.293 994.82L856.128 693.508" fill="#842EFF"/>
<path d="M788.09 567.691C697.55 692.758 570.837 868.048 480.298 993.114L669.293 994.82L856.128 693.508" stroke="black" stroke-width="1.5" stroke-miterlimit="10"/>
<path d="M817.79 419.735L763.251 539.612L1000.3 533.132L929.027 418.115" fill="#6EFF50"/>
<path d="M965.745 432.154C976.16 444.603 986.599 457.022 997.064 469.413C1006.05 480.044 1015.05 490.664 1024.06 501.272C1033.78 501.451 1028.38 502.714 1038.1 502.892L997.064 443.494C983.565 438.634 979.785 437.014 965.745 432.154Z" fill="#F1FF24" stroke="black" stroke-width="1.5" stroke-miterlimit="10"/>
<path d="M1022.17 509.373C1028.88 509.373 1034.32 503.933 1034.32 497.223C1034.32 490.513 1028.88 485.073 1022.17 485.073C1015.46 485.073 1010.02 490.513 1010.02 497.223C1010.02 503.933 1015.46 509.373 1022.17 509.373Z" fill="black"/>
<path d="M811.158 622.705C808.069 615.75 781.259 519.665 781.259 519.665L795.412 502.893L809.149 543.392L811.158 622.705Z" fill="#F1FF24" stroke="black" stroke-width="1.5" stroke-miterlimit="10"/>
<path d="M939.788 419.994C959.79 419.994 976.005 403.779 976.005 383.777C976.005 363.775 959.79 347.561 939.788 347.561C919.786 347.561 903.571 363.775 903.571 383.777C903.571 403.779 919.786 419.994 939.788 419.994Z" fill="white" stroke="black" stroke-width="1.5" stroke-linecap="round" stroke-linejoin="round"/>
<path d="M822.649 647.349C809.9 635.119 808.891 613.298 806.871 569.651C804.711 523.374 811.564 510.992 815.333 505.306C817.136 502.579 828.686 485.678 850.432 479.063C873.365 472.086 894.576 480.51 904.56 484.463C927.018 493.383 932.882 504.831 953.483 505.63C963.391 506.008 972.555 503.767 974.817 503.184C991.444 498.918 996.039 491.806 1009 490.154C1014.97 489.447 1021.01 489.999 1026.74 491.774C1029.72 492.607 1032.51 494.021 1034.95 495.933C1037.38 497.846 1039.42 500.22 1040.93 502.919C1041.93 504.719 1042.63 506.668 1043.01 508.692C1044.21 515.139 1041.48 519.41 1036.47 535.518C1034.65 541.372 1033.34 546.161 1032.56 549.142L1038.5 557.28C1011.66 570.596 995.704 589.517 999.014 603.114C1000.76 610.268 1007.89 616.181 1009.17 617.245C1021.84 627.748 1035.9 623.995 1038.94 631.906C1040.97 637.187 1036.39 643.197 1035.89 643.829C1027.57 654.439 1007.14 650.211 1004.3 649.628C992.345 647.15 988.576 641.917 969.401 637.495C969.401 637.495 965.935 636.695 963.013 636.177C938.536 631.857 914.528 654.445 887.82 660.925C867.938 665.747 839.389 663.414 822.649 647.349Z" fill="#FF6131" stroke="black" stroke-width="1.5" stroke-miterlimit="10"/>
<path d="M920.972 544.949L912.424 544.863C907.13 544.81 902.796 549.059 902.743 554.352L902.402 588.485C902.349 593.778 906.597 598.112 911.891 598.165L920.439 598.251C925.732 598.304 930.066 594.055 930.119 588.762L930.461 554.63C930.513 549.336 926.265 545.002 920.972 544.949Z" fill="black"/>
<path d="M976.379 542.527L967.907 542.48C962.592 542.45 958.26 546.734 958.23 552.048L958.04 586.105C958.011 591.419 962.295 595.751 967.609 595.781L976.081 595.828C981.395 595.858 985.728 591.574 985.757 586.259L985.948 552.203C985.977 546.889 981.693 542.557 976.379 542.527Z" fill="black"/>
<path d="M990.843 595.43C990.653 594.093 990.2 592.806 989.511 591.644C988.822 590.482 987.91 589.467 986.828 588.658C985.746 587.85 984.514 587.263 983.205 586.931C981.895 586.599 980.533 586.53 979.196 586.726L939.075 592.531V592.396L979.46 586.564C982.159 586.174 984.593 584.727 986.225 582.543C987.857 580.359 988.555 577.615 988.165 574.916C987.775 572.218 986.328 569.784 984.144 568.152C981.96 566.519 979.216 565.822 976.517 566.212L940.365 572.011L975.421 565.342C976.749 565.094 978.014 564.587 979.146 563.85C980.277 563.112 981.252 562.159 982.016 561.045C982.779 559.931 983.315 558.678 983.594 557.356C983.872 556.035 983.888 554.671 983.64 553.344C983.392 552.016 982.884 550.751 982.147 549.619C981.41 548.488 980.457 547.513 979.343 546.75C978.229 545.987 976.975 545.45 975.654 545.172C974.332 544.893 972.969 544.877 971.641 545.125L933.227 552.259L888.532 558.198L890.687 620.61L940.511 613.05L982.133 607.04C983.468 606.85 984.752 606.399 985.912 605.713C987.072 605.026 988.085 604.118 988.894 603.04C989.703 601.962 990.291 600.735 990.626 599.429C990.96 598.123 991.034 596.765 990.843 595.43Z" fill="white" stroke="black" stroke-width="1.5" stroke-miterlimit="10"/>
<path d="M952.246 395.976L980.066 404.767L963.71 376.196C963.71 376.196 952.435 352.496 928.789 362.826" fill="white"/>
<path d="M952.246 395.976L980.066 404.767L963.71 376.196C963.71 376.196 952.435 352.496 928.789 362.826" stroke="black" stroke-width="1.5" stroke-linecap="round" stroke-linejoin="round"/>
<path d="M1303.88 587.497L1000.3 589.041L1000.09 554.768L1303.67 553.229L1303.88 587.497Z" fill="#EDD1B0" stroke="black" stroke-width="1.5" stroke-miterlimit="10"/>
<path d="M929.291 418.509C892.642 406.089 855.993 393.102 819.344 380.672C808.629 377.037 797.107 376.494 786.097 379.105C775.088 381.716 765.037 387.376 757.095 395.435L747.591 405.085L662.02 509.156C628.33 550.136 655.043 612.045 707.962 615.657L892.161 628.234L900.736 549.936L773.429 528.941L841.5 448.273" fill="#6EFF50"/>
<path d="M929.291 418.509C892.642 406.089 855.993 393.102 819.344 380.672C808.629 377.037 797.107 376.494 786.097 379.105C775.088 381.716 765.037 387.376 757.095 395.435L747.591 405.085L662.02 509.156C628.33 550.136 655.043 612.045 707.962 615.657L892.161 628.234L900.736 549.936L773.429 528.941L841.5 448.273" stroke="black" stroke-width="1.5" stroke-miterlimit="10"/>
<path d="M1262.92 587.67L1263.09 553.241L1347.3 544.25C1348.93 544.076 1350.58 544.246 1352.15 544.749C1353.71 545.252 1355.15 546.078 1356.38 547.172C1357.6 548.267 1358.58 549.606 1359.26 551.103C1359.93 552.6 1360.29 554.223 1360.3 555.865L1360.46 582.189C1360.47 583.812 1360.14 585.42 1359.5 586.91C1358.86 588.401 1357.91 589.742 1356.73 590.85C1355.54 591.958 1354.14 592.808 1352.61 593.347C1351.08 593.886 1349.45 594.103 1347.83 593.983L1262.92 587.67Z" fill="#EDD1B0" stroke="black" stroke-width="1.5" stroke-miterlimit="10"/>
<path d="M987.345 580.353L1281.62 578.998" stroke="black" stroke-width="1.5" stroke-miterlimit="10"/>
<path d="M1205.01 579.202C1207.36 574.032 1205.07 567.938 1199.9 565.59C1194.73 563.243 1188.63 565.531 1186.29 570.701L1173.15 599.632C1170.8 604.802 1173.09 610.896 1178.26 613.244C1183.43 615.591 1189.53 613.303 1191.87 608.133L1205.01 579.202Z" fill="white" stroke="black" stroke-width="1.5" stroke-miterlimit="10"/>
<path d="M998.057 713.206L987.576 727.3L1000.26 728.164" stroke="black" stroke-width="1.5" stroke-miterlimit="10"/>
<path d="M1221.74 592.326C1224.09 587.155 1221.8 581.061 1216.63 578.713C1211.46 576.366 1205.36 578.654 1203.02 583.824L1194.37 602.872C1192.02 608.042 1194.31 614.137 1199.48 616.484C1204.65 618.832 1210.74 616.543 1213.09 611.373L1221.74 592.326Z" fill="white" stroke="black" stroke-width="1.5" stroke-miterlimit="10"/>
<path d="M1248.02 582.711C1250.17 577.453 1247.64 571.453 1242.38 569.31C1237.12 567.168 1231.12 569.693 1228.98 574.952L1218.36 601.015C1216.22 606.274 1218.74 612.273 1224 614.416C1229.26 616.559 1235.26 614.033 1237.4 608.775L1248.02 582.711Z" fill="white" stroke="black" stroke-width="1.5" stroke-miterlimit="10"/>
<path d="M1283.26 560.823L1279.82 560.995C1261.19 561.935 1237.16 558.393 1220.34 550.309C1210.48 545.573 1199.21 535.584 1193.53 517.678C1183.32 485.538 1214.48 442.015 1242.75 441.502C1251.84 441.334 1263.91 445.552 1270.35 455.628C1278.74 468.75 1272.51 483.842 1271.74 485.581C1263.64 504.356 1241.8 507.035 1240.85 507.132" stroke="black" stroke-width="1.5" stroke-miterlimit="10"/>
<path d="M985.185 564.991L1113.16 563.965C1115 564.019 1158.72 564.586 1175.8 533.288C1182.1 521.738 1188.64 498.773 1176.09 484.717C1169.85 477.735 1157.3 471.142 1144.77 476.023C1134.24 480.116 1127.15 490.97 1127.22 503.265" stroke="black" stroke-width="1.5" stroke-miterlimit="10"/>
<path d="M958.504 368.814C958.504 368.814 968.963 364.618 974.59 373.749L958.504 368.814Z" fill="white"/>
<path d="M958.504 368.814C958.504 368.814 968.963 364.618 974.59 373.749" stroke="black" stroke-width="1.5" stroke-linecap="round" stroke-linejoin="round"/>
<path d="M942.871 374.71C944.55 374.71 945.911 373.349 945.911 371.67C945.911 369.991 944.55 368.63 942.871 368.63C941.192 368.63 939.831 369.991 939.831 371.67C939.831 373.349 941.192 374.71 942.871 374.71Z" fill="white" stroke="black" stroke-width="1.5" stroke-linecap="round" stroke-linejoin="round"/>
<path d="M972.349 383.146C974.028 383.146 975.389 381.785 975.389 380.106C975.389 378.427 974.028 377.065 972.349 377.065C970.67 377.065 969.309 378.427 969.309 380.106C969.309 381.785 970.67 383.146 972.349 383.146Z" fill="white" stroke="black" stroke-width="1.5" stroke-linecap="round" stroke-linejoin="round"/>
<path d="M1286.89 564.132C1289.08 564.132 1290.86 562.353 1290.86 560.158C1290.86 557.963 1289.08 556.184 1286.89 556.184C1284.69 556.184 1282.91 557.963 1282.91 560.158C1282.91 562.353 1284.69 564.132 1286.89 564.132Z" fill="white" stroke="black" stroke-width="1.5" stroke-miterlimit="10"/>
<path d="M1353.89 714.566H1220.73C1207.55 714.566 1196.86 725.252 1196.86 738.434V751.177C1196.86 764.359 1207.55 775.045 1220.73 775.045H1353.89C1367.07 775.045 1377.75 764.359 1377.75 751.177V738.434C1377.75 725.252 1367.07 714.566 1353.89 714.566Z" fill="black"/>
<path d="M1285.65 582.837C1287.85 582.837 1289.62 581.058 1289.62 578.863C1289.62 576.668 1287.85 574.889 1285.65 574.889C1283.46 574.889 1281.68 576.668 1281.68 578.863C1281.68 581.058 1283.46 582.837 1285.65 582.837Z" fill="white" stroke="black" stroke-width="1.5" stroke-miterlimit="10"/>
<path d="M1310.96 584.074C1313.15 584.074 1314.93 582.294 1314.93 580.099C1314.93 577.904 1313.15 576.125 1310.96 576.125C1308.76 576.125 1306.98 577.904 1306.98 580.099C1306.98 582.294 1308.76 584.074 1310.96 584.074Z" fill="white" stroke="black" stroke-width="1.5" stroke-miterlimit="10"/>
<path d="M1402.59 775.046H1173.82V1086.08H1402.59V775.046Z" fill="#F1FF24" stroke="black" stroke-width="1.5" stroke-miterlimit="10"/>
<path d="M1334.88 585.111C1337.08 585.111 1338.86 583.331 1338.86 581.136C1338.86 578.941 1337.08 577.162 1334.88 577.162C1332.69 577.162 1330.91 578.941 1330.91 581.136C1330.91 583.331 1332.69 585.111 1334.88 585.111Z" fill="white" stroke="black" stroke-width="1.5" stroke-miterlimit="10"/>
<path d="M1258.75 757.923C1266.02 757.923 1271.92 752.026 1271.92 744.752C1271.92 737.479 1266.02 731.582 1258.75 731.582C1251.47 731.582 1245.58 737.479 1245.58 744.752C1245.58 752.026 1251.47 757.923 1258.75 757.923Z" fill="white" stroke="black" stroke-width="1.5" stroke-miterlimit="10"/>
<path d="M1311.6 562.923C1313.8 562.923 1315.58 561.144 1315.58 558.949C1315.58 556.754 1313.8 554.975 1311.6 554.975C1309.41 554.975 1307.63 556.754 1307.63 558.949C1307.63 561.144 1309.41 562.923 1311.6 562.923Z" fill="white" stroke="black" stroke-width="1.5" stroke-miterlimit="10"/>
<path d="M1334.93 561.519C1337.12 561.519 1338.9 559.74 1338.9 557.545C1338.9 555.35 1337.12 553.57 1334.93 553.57C1332.73 553.57 1330.95 555.35 1330.95 557.545C1330.95 559.74 1332.73 561.519 1334.93 561.519Z" fill="white" stroke="black" stroke-width="1.5" stroke-miterlimit="10"/>
<path d="M950.086 406.776C952.471 406.776 954.405 404.841 954.405 402.456C954.405 400.07 952.471 398.136 950.086 398.136C947.7 398.136 945.766 400.07 945.766 402.456C945.766 404.841 947.7 406.776 950.086 406.776Z" fill="black"/>
<path d="M1288.21 1060.16C1323.41 1060.16 1351.95 1031.62 1351.95 996.412C1351.95 961.207 1323.41 932.667 1288.21 932.667C1253 932.667 1224.46 961.207 1224.46 996.412C1224.46 1031.62 1253 1060.16 1288.21 1060.16Z" fill="white" stroke="black" stroke-width="1.5" stroke-miterlimit="10"/>
<path d="M1288.21 1055.11C1320.63 1055.11 1346.91 1028.83 1346.91 996.412C1346.91 963.995 1320.63 937.716 1288.21 937.716C1255.79 937.716 1229.51 963.995 1229.51 996.412C1229.51 1028.83 1255.79 1055.11 1288.21 1055.11Z" fill="black"/>
<path d="M1288.21 925.556C1323.41 925.556 1351.95 897.016 1351.95 861.811C1351.95 826.605 1323.41 798.065 1288.21 798.065C1253 798.065 1224.46 826.605 1224.46 861.811C1224.46 897.016 1253 925.556 1288.21 925.556Z" fill="white" stroke="black" stroke-width="1.5" stroke-miterlimit="10"/>
<path d="M1288.21 920.507C1320.63 920.507 1346.91 894.228 1346.91 861.811C1346.91 829.394 1320.63 803.114 1288.21 803.114C1255.79 803.114 1229.51 829.394 1229.51 861.811C1229.51 894.228 1255.79 920.507 1288.21 920.507Z" fill="black"/>
<path d="M1261.12 734.277C1261.12 732.935 1260.03 731.847 1258.69 731.847C1257.35 731.847 1256.26 732.935 1256.26 734.277V755.336C1256.26 756.678 1257.35 757.766 1258.69 757.766C1260.03 757.766 1261.12 756.678 1261.12 755.336V734.277Z" fill="white" stroke="black" stroke-width="1.5" stroke-miterlimit="10"/>
<path d="M1315.45 757.923C1322.72 757.923 1328.62 752.026 1328.62 744.752C1328.62 737.479 1322.72 731.582 1315.45 731.582C1308.17 731.582 1302.28 737.479 1302.28 744.752C1302.28 752.026 1308.17 757.923 1315.45 757.923Z" fill="white" stroke="black" stroke-width="1.5" stroke-miterlimit="10"/>
<path d="M1323.55 737.819C1324.35 736.74 1324.12 735.219 1323.04 734.42C1321.96 733.622 1320.44 733.849 1319.64 734.928L1307.11 751.854C1306.31 752.933 1306.54 754.455 1307.62 755.253C1308.7 756.052 1310.22 755.824 1311.02 754.746L1323.55 737.819Z" fill="white" stroke="black" stroke-width="1.5" stroke-miterlimit="10"/>
<path d="M896.341 1075.43L892.345 1040.56L1019.49 1025.99L1021.49 1047.74" fill="#FF6131"/>
<path d="M896.341 1075.43L892.345 1040.56L1019.49 1025.99L1021.49 1047.74" stroke="black" stroke-width="1.5" stroke-miterlimit="10"/>
<path d="M1104.52 1035.86L893.927 1067.18V1086.08H1104.52V1035.86Z" fill="#FF6131" stroke="black" stroke-width="1.5" stroke-miterlimit="10"/>
<path d="M1082.27 1039.07L1066.76 1041.15L1065.71 1033.39C1065.58 1032.37 1065.64 1031.34 1065.9 1030.34C1066.17 1029.35 1066.62 1028.42 1067.25 1027.6C1067.87 1026.78 1068.65 1026.09 1069.54 1025.58C1070.43 1025.06 1071.41 1024.73 1072.43 1024.59C1073.45 1024.45 1074.49 1024.52 1075.48 1024.78C1076.47 1025.04 1077.41 1025.5 1078.22 1026.12C1079.04 1026.75 1079.73 1027.53 1080.24 1028.42C1080.76 1029.31 1081.1 1030.29 1081.23 1031.31L1082.27 1039.07Z" fill="black"/>
</svg>
