<svg width="1840" height="1380" viewBox="0 0 1840 1380" fill="none" xmlns="http://www.w3.org/2000/svg"><path d="M1177.06 435.626 1184.52 293l48.34 137.761 106.75-51.768-60.27 91.824 159.19 43.275-138.17 51.239 82 56.245-144.4-32.631-11.07 112.592-44.73-100.831-115.41 78.092 80.37-122.447-145.71-68.902 127.98-4.822s-64.65-87.553-59.94-85.907c4.71 1.647 107.61 38.906 107.61 38.906z" fill="#F1FF24" stroke="#000" stroke-width="1.5" stroke-miterlimit="10"/><path d="m928.486 418.115 104.694 38.879c.46.178.91.362 1.35.54 23.44 9.866 37.78 33.83 36.14 59.21l-23.93 97.386 106.92-56.158 69.66 28.079-152.28 125.277-56.7-8.1-32.395-105.837" fill="#6EFF50"/><path d="m928.486 418.115 104.694 38.879c.46.178.91.362 1.35.54 23.44 9.866 37.78 33.83 36.14 59.21l-23.93 97.386 106.92-56.158 69.66 28.079-152.28 125.277-56.7-8.1-32.395-105.837" stroke="#000" stroke-width="1.5" stroke-miterlimit="10"/><path d="m850.728 959.181-35.099 63.449-35.099 63.45h53.999l34.559-67.5 16.2-.54c1.08 3.75 2.159 7.53 3.239 11.34 1.48 5.25 2.92 10.47 4.32 15.66 71.64-11.34 143.273-21.6 214.913-32.94-.9-5.75-3.33-11.16-7.02-15.66-9.51-11.302-27.11-14.969-44.82-9.72l-82.075 12.96 18.9-40.499H850.728z" fill="#000"/><path d="m786.378 594.625-21.74 69.885c-7.365 29.829 14.429 58.923 45.122 60.252l177.585 2.764A9655.555 9655.555 0 0 0 832.369 969.98l163.615 2.16 115.756-262.044c15.76-35.683-7.39-76.457-46.1-81.209l-279.262-34.262z" fill="#842EFF" stroke="#000" stroke-width="1.5" stroke-miterlimit="10"/><path d="M480.838 991.693 402 1086.08h69.118l41.039-55.08 19.44 2.16-18.36 52.92h226.794a34.624 34.624 0 0 0-5.597-29.59 34.575 34.575 0 0 0-11.725-10.05 34.612 34.612 0 0 0-14.931-3.96l-100.043-3.38 28.009-45.403" fill="#000"/><path d="M788.09 567.691c-90.54 125.067-217.253 300.357-307.792 425.423l188.995 1.706 186.835-301.312" fill="#842EFF"/><path d="M788.09 567.691c-90.54 125.067-217.253 300.357-307.792 425.423l188.995 1.706 186.835-301.312" stroke="#000" stroke-width="1.5" stroke-miterlimit="10"/><path d="m817.79 419.735-54.539 119.877 237.049-6.48-71.273-115.017" fill="#6EFF50"/><path d="M965.745 432.154a10446.596 10446.596 0 0 0 31.319 37.259 17518.719 17518.719 0 0 0 26.996 31.859c9.72.179 4.32 1.442 14.04 1.62l-41.036-59.398c-13.499-4.86-17.279-6.48-31.319-11.34z" fill="#F1FF24" stroke="#000" stroke-width="1.5" stroke-miterlimit="10"/><path d="M1022.17 509.373c6.71 0 12.15-5.44 12.15-12.15s-5.44-12.15-12.15-12.15-12.15 5.44-12.15 12.15 5.44 12.15 12.15 12.15z" fill="#000"/><path d="M811.158 622.705c-3.089-6.955-29.899-103.04-29.899-103.04l14.153-16.772 13.737 40.499 2.009 79.313z" fill="#F1FF24" stroke="#000" stroke-width="1.5" stroke-miterlimit="10"/><path d="M939.788 419.994c20.002 0 36.217-16.215 36.217-36.217s-16.215-36.216-36.217-36.216-36.217 16.214-36.217 36.216c0 20.002 16.215 36.217 36.217 36.217z" fill="#fff" stroke="#000" stroke-width="1.5" stroke-linecap="round" stroke-linejoin="round"/><path d="M822.649 647.349c-12.749-12.23-13.758-34.051-15.778-77.698-2.16-46.277 4.693-58.659 8.462-64.345 1.803-2.727 13.353-19.628 35.099-26.243 22.933-6.977 44.144 1.447 54.128 5.4 22.458 8.92 28.322 20.368 48.923 21.167 9.908.378 19.072-1.863 21.334-2.446 16.627-4.266 21.222-11.378 34.183-13.03a42.888 42.888 0 0 1 17.74 1.62c2.98.833 5.77 2.247 8.21 4.159a23.522 23.522 0 0 1 5.98 6.986c1 1.8 1.7 3.749 2.08 5.773 1.2 6.447-1.53 10.718-6.54 26.826a314.973 314.973 0 0 0-3.91 13.624l5.94 8.138c-26.84 13.316-42.796 32.237-39.486 45.834 1.746 7.154 8.876 13.067 10.156 14.131 12.67 10.503 26.73 6.75 29.77 14.661 2.03 5.281-2.55 11.291-3.05 11.923-8.32 10.61-28.75 6.382-31.59 5.799-11.955-2.478-15.724-7.711-34.899-12.133 0 0-3.466-.8-6.388-1.318-24.477-4.32-48.485 18.268-75.193 24.748-19.882 4.822-48.431 2.489-65.171-13.576z" fill="#FF6131" stroke="#000" stroke-width="1.5" stroke-miterlimit="10"/><path d="m920.972 544.949-8.548-.086c-5.294-.053-9.628 4.196-9.681 9.489l-.341 34.133c-.053 5.293 4.195 9.627 9.489 9.68l8.548.086c5.293.053 9.627-4.196 9.68-9.489l.342-34.132c.052-5.294-4.196-9.628-9.489-9.681zm55.407-2.422-8.472-.047a9.622 9.622 0 0 0-9.677 9.568l-.19 34.057c-.029 5.314 4.255 9.646 9.569 9.676l8.472.047c5.314.03 9.647-4.254 9.676-9.569l.191-34.056c.029-5.314-4.255-9.646-9.569-9.676z" fill="#000"/><path d="M990.843 595.43a10.253 10.253 0 0 0-4.015-6.772 10.259 10.259 0 0 0-7.632-1.932l-40.121 5.805v-.135l40.385-5.832a10.282 10.282 0 1 0-2.943-20.352l-36.152 5.799 35.056-6.669a10.287 10.287 0 0 0 6.595-4.297 10.285 10.285 0 0 0-10.375-15.92l-38.414 7.134-44.695 5.939 2.155 62.412 49.824-7.56 41.622-6.01a10.265 10.265 0 0 0 6.761-4 10.263 10.263 0 0 0 1.949-7.61z" fill="#fff" stroke="#000" stroke-width="1.5" stroke-miterlimit="10"/><path d="m952.246 395.976 27.82 8.791-16.356-28.571s-11.275-23.7-34.921-13.37" fill="#fff"/><path d="m952.246 395.976 27.82 8.791-16.356-28.571s-11.275-23.7-34.921-13.37" stroke="#000" stroke-width="1.5" stroke-linecap="round" stroke-linejoin="round"/><path d="m1303.88 587.497-303.58 1.544-.21-34.273 303.58-1.539.21 34.268z" fill="#EDD1B0" stroke="#000" stroke-width="1.5" stroke-miterlimit="10"/><path d="M929.291 418.509c-36.649-12.42-73.298-25.407-109.947-37.837a60.228 60.228 0 0 0-62.249 14.763l-9.504 9.65-85.571 104.071c-33.69 40.98-6.977 102.889 45.942 106.501l184.199 12.577 8.575-78.298-127.307-20.995 68.071-80.668" fill="#6EFF50"/><path d="M929.291 418.509c-36.649-12.42-73.298-25.407-109.947-37.837a60.228 60.228 0 0 0-62.249 14.763l-9.504 9.65-85.571 104.071c-33.69 40.98-6.977 102.889 45.942 106.501l184.199 12.577 8.575-78.298-127.307-20.995 68.071-80.668" stroke="#000" stroke-width="1.5" stroke-miterlimit="10"/><path d="m1262.92 587.67.17-34.429 84.21-8.991c1.63-.174 3.28-.004 4.85.499 1.56.503 3 1.329 4.23 2.423a11.885 11.885 0 0 1 2.88 3.931c.67 1.497 1.03 3.12 1.04 4.762l.16 26.324c.01 1.623-.32 3.231-.96 4.721a11.804 11.804 0 0 1-2.77 3.94 11.778 11.778 0 0 1-8.9 3.133l-84.91-6.313z" fill="#EDD1B0" stroke="#000" stroke-width="1.5" stroke-miterlimit="10"/><path d="m987.345 580.353 294.275-1.355" stroke="#000" stroke-width="1.5" stroke-miterlimit="10"/><path d="M1205.01 579.202c2.35-5.17.06-11.264-5.11-13.612-5.17-2.347-11.27-.059-13.61 5.111l-13.14 28.931c-2.35 5.17-.06 11.264 5.11 13.612 5.17 2.347 11.27.059 13.61-5.111l13.14-28.931z" fill="#fff" stroke="#000" stroke-width="1.5" stroke-miterlimit="10"/><path d="M998.057 713.206 987.576 727.3l12.684.864" stroke="#000" stroke-width="1.5" stroke-miterlimit="10"/><path d="M1221.74 592.326c2.35-5.171.06-11.265-5.11-13.613-5.17-2.347-11.27-.059-13.61 5.111l-8.65 19.048c-2.35 5.17-.06 11.265 5.11 13.612 5.17 2.348 11.26.059 13.61-5.111l8.65-19.047zm26.28-9.615c2.15-5.258-.38-11.258-5.64-13.401-5.26-2.142-11.26.383-13.4 5.642l-10.62 26.063c-2.14 5.259.38 11.258 5.64 13.401 5.26 2.143 11.26-.383 13.4-5.641l10.62-26.064z" fill="#fff" stroke="#000" stroke-width="1.5" stroke-miterlimit="10"/><path d="m1283.26 560.823-3.44.172c-18.63.94-42.66-2.602-59.48-10.686-9.86-4.736-21.13-14.725-26.81-32.631-10.21-32.14 20.95-75.663 49.22-76.176 9.09-.168 21.16 4.05 27.6 14.126 8.39 13.122 2.16 28.214 1.39 29.953-8.1 18.775-29.94 21.454-30.89 21.551m-255.665 57.859 127.975-1.026c1.84.054 45.56.621 62.64-30.677 6.3-11.55 12.84-34.515.29-48.571-6.24-6.982-18.79-13.575-31.32-8.694-10.53 4.093-17.62 14.947-17.55 27.242" stroke="#000" stroke-width="1.5" stroke-miterlimit="10"/><path d="M958.504 368.814s10.459-4.196 16.086 4.935l-16.086-4.935z" fill="#fff"/><path d="M958.504 368.814s10.459-4.196 16.086 4.935" stroke="#000" stroke-width="1.5" stroke-linecap="round" stroke-linejoin="round"/><path d="M942.871 374.71a3.04 3.04 0 1 0 0-6.08 3.04 3.04 0 0 0 0 6.08zm29.478 8.436a3.04 3.04 0 1 0 0-6.08 3.04 3.04 0 0 0 0 6.08z" fill="#fff" stroke="#000" stroke-width="1.5" stroke-linecap="round" stroke-linejoin="round"/><path d="M1286.89 564.132a3.974 3.974 0 0 0 0-7.948c-2.2 0-3.98 1.779-3.98 3.974a3.976 3.976 0 0 0 3.98 3.974z" fill="#fff" stroke="#000" stroke-width="1.5" stroke-miterlimit="10"/><path d="M1353.89 714.566h-133.16c-13.18 0-23.87 10.686-23.87 23.868v12.743c0 13.182 10.69 23.868 23.87 23.868h133.16c13.18 0 23.86-10.686 23.86-23.868v-12.743c0-13.182-10.68-23.868-23.86-23.868z" fill="#000"/><path d="M1285.65 582.837c2.2 0 3.97-1.779 3.97-3.974a3.967 3.967 0 0 0-3.97-3.974 3.974 3.974 0 0 0 0 7.948zm25.31 1.237a3.974 3.974 0 1 0-.009-7.949 3.974 3.974 0 0 0 .009 7.949z" fill="#fff" stroke="#000" stroke-width="1.5" stroke-miterlimit="10"/><path d="M1402.59 775.046h-228.77v311.034h228.77V775.046z" fill="#F1FF24" stroke="#000" stroke-width="1.5" stroke-miterlimit="10"/><path d="M1334.88 585.111a3.976 3.976 0 1 0 .009-7.947 3.976 3.976 0 0 0-.009 7.947zm-76.13 172.812c7.27 0 13.17-5.897 13.17-13.171 0-7.273-5.9-13.17-13.17-13.17-7.28 0-13.17 5.897-13.17 13.17 0 7.274 5.89 13.171 13.17 13.171zm52.85-195c2.2 0 3.98-1.779 3.98-3.974a3.976 3.976 0 0 0-7.95 0 3.974 3.974 0 0 0 3.97 3.974zm23.33-1.404a3.974 3.974 0 1 0-.009-7.95 3.974 3.974 0 0 0 .009 7.95z" fill="#fff" stroke="#000" stroke-width="1.5" stroke-miterlimit="10"/><path d="M950.086 406.776a4.32 4.32 0 1 0-.003-8.64 4.32 4.32 0 0 0 .003 8.64z" fill="#000"/><path d="M1288.21 1060.16c35.2 0 63.74-28.54 63.74-63.748 0-35.205-28.54-63.745-63.74-63.745-35.21 0-63.75 28.54-63.75 63.745 0 35.208 28.54 63.748 63.75 63.748z" fill="#fff" stroke="#000" stroke-width="1.5" stroke-miterlimit="10"/><path d="M1288.21 1055.11c32.42 0 58.7-26.28 58.7-58.698 0-32.417-26.28-58.696-58.7-58.696s-58.7 26.279-58.7 58.696c0 32.418 26.28 58.698 58.7 58.698z" fill="#000"/><path d="M1288.21 925.556c35.2 0 63.74-28.54 63.74-63.745 0-35.206-28.54-63.746-63.74-63.746-35.21 0-63.75 28.54-63.75 63.746 0 35.205 28.54 63.745 63.75 63.745z" fill="#fff" stroke="#000" stroke-width="1.5" stroke-miterlimit="10"/><path d="M1288.21 920.507c32.42 0 58.7-26.279 58.7-58.696s-26.28-58.697-58.7-58.697-58.7 26.28-58.7 58.697 26.28 58.696 58.7 58.696z" fill="#000"/><path d="M1261.12 734.277c0-1.342-1.09-2.43-2.43-2.43a2.431 2.431 0 0 0-2.43 2.43v21.059c0 1.342 1.09 2.43 2.43 2.43s2.43-1.088 2.43-2.43v-21.059zm54.33 23.646c7.27 0 13.17-5.897 13.17-13.171 0-7.273-5.9-13.17-13.17-13.17-7.28 0-13.17 5.897-13.17 13.17 0 7.274 5.89 13.171 13.17 13.171z" fill="#fff" stroke="#000" stroke-width="1.5" stroke-miterlimit="10"/><path d="M1323.55 737.819a2.432 2.432 0 0 0-3.91-2.891l-12.53 16.926a2.431 2.431 0 0 0 3.91 2.892l12.53-16.927z" fill="#fff" stroke="#000" stroke-width="1.5" stroke-miterlimit="10"/><path d="m896.341 1075.43-3.996-34.87 127.145-14.57 2 21.75" fill="#FF6131"/><path d="m896.341 1075.43-3.996-34.87 127.145-14.57 2 21.75" stroke="#000" stroke-width="1.5" stroke-miterlimit="10"/><path d="m1104.52 1035.86-210.593 31.32v18.9h210.593v-50.22z" fill="#FF6131" stroke="#000" stroke-width="1.5" stroke-miterlimit="10"/><path d="m1082.27 1039.07-15.51 2.08-1.05-7.76c-.13-1.02-.07-2.05.19-3.05.27-.99.72-1.92 1.35-2.74.62-.82 1.4-1.51 2.29-2.02a7.836 7.836 0 0 1 8.68.54c.82.63 1.51 1.41 2.02 2.3.52.89.86 1.87.99 2.89l1.04 7.76z" fill="#000"/></svg>