<svg width="1840" height="1380" viewBox="0 0 1840 1380" fill="none" xmlns="http://www.w3.org/2000/svg">
<path d="M889.932 771.922C865.378 731.265 822.791 717.773 808.799 714.001C804.98 703.471 803.823 692.159 805.431 681.073C808.602 659.291 813.777 623.888 814.282 621.301L708.482 662.457L600.875 698.612C602.918 700.296 629.566 724.154 645.948 738.848C654.29 746.327 660.652 755.753 664.469 766.287C656.141 778.146 632.074 815.783 639.258 862.731C646.044 907.069 676.952 935.131 697.532 953.871C712.391 967.354 729.004 978.764 746.922 987.793C754.816 993.454 763.828 997.364 773.355 999.261C782.882 1001.16 792.704 1001 802.165 998.793C805.398 998.041 811.616 996.447 817.442 994.651C820.012 993.854 823.279 992.838 827.017 991.525L827.634 991.295L828.252 991.076C831.961 989.69 835.121 988.382 837.607 987.344C843.22 984.992 849.029 982.231 851.992 980.738C860.666 976.37 868.307 970.201 874.405 962.643C880.503 955.085 884.916 946.312 887.35 936.91C895.324 918.502 900.771 899.1 903.542 879.231C907.37 851.691 913.117 810.322 889.932 771.922Z" fill="#D6B49A"/>
<path d="M786.668 1001.42C772.249 1001.41 758.193 996.901 746.466 988.511C728.508 979.45 711.855 968.005 696.959 954.488C676.367 935.771 645.252 907.49 638.422 862.854C631.804 819.605 651.179 783.842 663.52 766.157C659.729 755.923 653.506 746.764 645.387 739.47C629.442 725.164 602.384 700.919 600.341 699.263C600.226 699.166 600.138 699.042 600.086 698.901C600.034 698.76 600.019 698.608 600.044 698.46C600.071 698.312 600.138 698.173 600.236 698.059C600.335 697.945 600.462 697.858 600.605 697.809L708.218 661.648L813.995 620.52C814.135 620.466 814.287 620.451 814.434 620.475C814.582 620.5 814.721 620.563 814.835 620.66C814.95 620.756 815.037 620.882 815.087 621.023C815.136 621.164 815.147 621.316 815.118 621.463C814.618 624.045 809.365 659.993 806.278 681.196C804.716 691.998 805.803 703.017 809.444 713.305C830.249 718.979 868.032 734.032 890.65 771.489C913.992 810.142 908.206 851.792 904.378 879.355C901.597 899.276 896.139 918.73 888.152 937.191C885.677 946.696 881.204 955.565 875.03 963.204C868.856 970.844 861.125 977.08 852.351 981.495C849.124 983.117 843.404 985.828 837.904 988.124C835.317 989.207 832.258 990.47 828.649 991.822L828.52 991.884L827.286 992.327L827.156 992.367C823.503 993.641 820.349 994.612 817.671 995.453C811.975 997.216 805.852 998.821 802.338 999.618C797.201 1000.81 791.943 1001.42 786.668 1001.42ZM602.547 698.937C608.26 703.932 631.99 725.198 646.515 738.224C654.952 745.802 661.392 755.342 665.266 766C665.312 766.127 665.327 766.263 665.31 766.397C665.292 766.531 665.242 766.659 665.165 766.769C652.98 784.123 633.522 819.644 640.094 862.602C646.829 906.654 677.697 934.693 698.104 953.248C712.903 966.676 729.449 978.043 747.292 987.04L747.404 987.108C755.2 992.698 764.101 996.559 773.509 998.433C782.918 1000.31 792.619 1000.15 801.962 997.973C805.453 997.16 811.531 995.594 817.189 993.843C819.877 993.018 823.054 992.019 826.73 990.733L826.842 990.7L827.841 990.341L827.948 990.29C831.585 988.932 834.683 987.658 837.27 986.569C842.725 984.29 848.4 981.602 851.604 979.991C860.175 975.679 867.726 969.587 873.752 962.121C879.778 954.656 884.14 945.99 886.547 936.703C886.56 936.661 886.575 936.619 886.592 936.579C894.535 918.243 899.961 898.916 902.722 879.125C906.516 851.798 912.263 810.501 889.219 772.359C866.752 735.154 829.048 720.326 808.579 714.815C808.451 714.777 808.333 714.71 808.236 714.618C808.138 714.526 808.064 714.413 808.018 714.287C804.165 703.622 802.999 692.172 804.623 680.95C807.429 661.648 812.037 630.118 813.232 622.625L708.796 663.237L602.547 698.937Z" fill="black"/>
<path d="M713.379 676.026C772.314 654.68 817.439 630.057 814.169 621.028C810.899 611.999 760.472 621.984 701.537 643.33C642.602 664.675 597.477 689.299 600.747 698.328C604.017 707.356 654.445 697.371 713.379 676.026Z" fill="#020202"/>
<path d="M611.578 702.457C605.506 702.457 600.999 701.418 599.972 698.59C597.727 692.416 613.672 682.196 627.428 674.686C646.51 664.281 672.726 652.854 701.265 642.51C729.804 632.167 757.266 624.152 778.576 619.931C793.954 616.889 812.745 614.549 814.973 620.706C817.201 626.863 801.273 637.105 787.517 644.615C768.434 655.02 742.224 666.447 713.68 676.785C685.135 687.123 657.684 695.144 636.368 699.37C628.051 701.014 618.734 702.457 611.578 702.457ZM803.411 618.5C798.287 618.5 790.559 619.275 778.907 621.581C757.67 625.791 730.304 633.783 701.837 644.093C673.371 654.403 647.234 665.796 628.225 676.162C601.42 690.788 601.027 696.592 601.543 698.017C602.06 699.443 606.078 703.63 636.032 697.714C657.263 693.51 684.635 685.513 713.096 675.203C741.557 664.893 767.699 653.505 786.703 643.133C813.502 628.507 813.895 622.71 813.379 621.278C813.076 620.425 811.454 618.5 803.411 618.5Z" fill="black"/>
<path d="M825.782 1013.3L825.731 1059.78C825.731 1063.25 829.469 1066.08 834.083 1066.08H834.251C838.865 1066.08 842.614 1063.27 842.614 1059.79L842.664 1013.83C842.664 1013.53 838.764 1013.27 834.027 1013.27H825.782" fill="#818181"/>
<path d="M834.246 1066.92H834.066C829.015 1066.92 824.873 1063.71 824.873 1059.78L824.924 1012.45H834.01C836.311 1012.45 838.5 1012.51 840.184 1012.61C842.496 1012.76 843.518 1012.86 843.518 1013.83L843.467 1059.8C843.437 1060.82 843.168 1061.81 842.68 1062.7C842.192 1063.59 841.5 1064.35 840.661 1064.92C838.793 1066.26 836.543 1066.96 834.246 1066.92ZM826.607 1014.17L826.557 1059.81C826.557 1062.81 829.924 1065.26 834.066 1065.27H834.246C836.178 1065.3 838.07 1064.71 839.639 1063.58C840.264 1063.16 840.782 1062.6 841.149 1061.95C841.517 1061.29 841.725 1060.56 841.755 1059.81L841.806 1014.46C839.232 1014.21 836.646 1014.11 834.061 1014.14H826.607V1014.17Z" fill="#191818"/>
<path d="M1269.16 1013.3L1269.11 1059.78C1269.11 1063.25 1272.85 1066.08 1277.46 1066.08H1277.63C1282.25 1066.08 1286 1063.27 1286 1059.79L1286.05 1013.83C1286.05 1013.53 1282.12 1013.27 1277.41 1013.27H1269.16" fill="#818181"/>
<path d="M1277.63 1066.92H1277.45C1272.4 1066.92 1268.25 1063.71 1268.25 1059.78L1268.31 1012.45H1277.39C1279.72 1012.45 1281.88 1012.51 1283.54 1012.61C1285.85 1012.76 1286.87 1012.86 1286.87 1013.83L1286.82 1059.8C1286.79 1060.82 1286.52 1061.81 1286.03 1062.7C1285.55 1063.59 1284.85 1064.35 1284.01 1064.92C1282.15 1066.26 1279.92 1066.96 1277.63 1066.92ZM1269.99 1014.17L1269.94 1059.81C1269.94 1062.81 1273.31 1065.26 1277.45 1065.27H1277.63C1279.56 1065.3 1281.45 1064.71 1283.02 1063.58C1283.65 1063.16 1284.16 1062.6 1284.53 1061.95C1284.9 1061.29 1285.11 1060.56 1285.14 1059.81L1285.19 1014.46C1282.61 1014.21 1280.03 1014.11 1277.44 1014.14H1269.99V1014.17Z" fill="#191818"/>
<path d="M1312.1 1001.79H711.428C709.828 1001.79 708.293 1002.43 707.162 1003.56C706.03 1004.69 705.395 1006.22 705.395 1007.82C705.395 1009.42 706.03 1010.96 707.162 1012.09C708.293 1013.22 709.828 1013.86 711.428 1013.86H1306.21C1307.01 1013.86 1307.8 1013.7 1308.55 1013.38C1309.29 1013.07 1309.96 1012.61 1310.52 1012.04C1311.08 1011.46 1311.52 1010.78 1311.82 1010.03C1312.11 1009.29 1312.25 1008.49 1312.23 1007.68L1312.1 1001.79Z" fill="#DCDBDA"/>
<path d="M1306.21 1014.7H711.429C709.606 1014.7 707.857 1013.97 706.567 1012.69C705.278 1011.4 704.554 1009.65 704.554 1007.82C704.554 1006 705.278 1004.25 706.567 1002.96C707.857 1001.67 709.606 1000.95 711.429 1000.95H1312.94L1313.09 1007.68C1313.11 1008.6 1312.95 1009.51 1312.61 1010.36C1312.27 1011.21 1311.77 1011.99 1311.13 1012.64C1310.49 1013.3 1309.72 1013.81 1308.87 1014.17C1308.03 1014.52 1307.12 1014.7 1306.21 1014.7ZM711.429 1002.63C710.052 1002.63 708.732 1003.18 707.758 1004.15C706.784 1005.13 706.237 1006.45 706.237 1007.82C706.237 1009.2 706.784 1010.52 707.758 1011.49C708.732 1012.47 710.052 1013.01 711.429 1013.01H1306.21C1306.9 1013.01 1307.58 1012.88 1308.22 1012.61C1308.86 1012.34 1309.43 1011.95 1309.92 1011.45C1310.4 1010.96 1310.78 1010.37 1311.03 1009.73C1311.29 1009.08 1311.41 1008.4 1311.39 1007.71L1311.27 1002.65L711.429 1002.63Z" fill="black"/>
<path d="M681.397 688.056C681.397 688.056 659.721 770.839 663.336 805.518C665.491 826.217 664.818 860.52 663.897 884.878C663.613 892.547 660.342 899.801 654.783 905.091C649.224 910.382 641.817 913.289 634.143 913.194C626.47 913.099 619.137 910.008 613.711 904.581C608.285 899.155 605.196 891.822 605.101 884.148C604.95 871.801 603.541 862.406 604.821 855.413C612.493 813.426 600.74 812.758 607.672 774.448C608.858 770.302 610.085 766.132 611.354 761.938C617.987 740.049 625.256 719.704 632.961 699.859C641.234 699.078 650.472 696.62 660.423 694.398C668.073 692.692 675.071 690.143 681.397 688.056Z" fill="#4EA7F1"/>
<path d="M634.532 914.028C626.583 914 618.963 910.856 613.307 905.271C607.651 899.687 604.41 892.107 604.281 884.159C604.23 879.793 604.011 875.74 603.821 872.126C603.473 865.548 603.169 859.863 604.011 855.289C607.94 833.9 606.756 823.23 605.628 812.915C604.505 802.739 603.461 793.131 606.862 774.324V774.245C608.064 770.058 609.304 765.827 610.55 761.718C616.583 741.8 623.458 722.055 632.18 699.577L632.371 699.095L632.887 699.044C639.319 698.444 646.396 696.799 653.889 695.059C655.971 694.577 658.087 694.083 660.242 693.606C666.101 692.205 671.881 690.493 677.557 688.476C678.765 688.064 679.953 687.668 681.121 687.286L682.585 686.798L682.198 688.296C681.979 689.121 660.596 771.321 664.154 805.461C666.298 826.065 665.658 860.054 664.743 884.934C664.472 892.757 661.168 900.168 655.529 905.599C649.89 911.029 642.36 914.052 634.532 914.028ZM608.513 774.638C605.145 793.159 606.2 802.661 607.3 812.707C608.423 823.141 609.624 833.933 605.667 855.564C604.864 859.969 605.162 865.565 605.504 872.036C605.695 875.645 605.914 879.736 605.964 884.137C606.06 891.588 609.063 898.707 614.333 903.976C619.604 909.244 626.724 912.245 634.176 912.337C641.627 912.429 648.82 909.606 654.219 904.47C659.618 899.333 662.797 892.291 663.077 884.844C663.991 860.014 664.631 826.115 662.515 805.607C659.198 773.74 677.321 700.728 680.223 689.34L678.107 690.019C672.375 692.055 666.54 693.782 660.624 695.194C658.48 695.677 656.366 696.161 654.282 696.648C646.935 698.331 639.981 699.97 633.578 700.621C624.957 722.852 618.155 742.423 612.183 762.156C610.937 766.287 609.702 770.474 608.513 774.638Z" fill="black"/>
<path d="M691.516 864.774C686.51 864.774 682.845 857.517 681.414 854.671C671.541 835.123 686.465 801.022 692.257 788.916C697.791 801.376 711.519 835.196 701.652 854.671C700.159 857.562 696.506 864.774 691.516 864.774Z" fill="#4EA7F1"/>
<path d="M691.516 865.616C685.988 865.616 682.245 858.202 680.651 855.036C671.323 836.571 683.457 805.445 691.477 788.54L692.263 786.856L693.009 788.54C700.524 805.45 711.732 836.566 702.382 855.019C700.782 858.202 697.028 865.616 691.516 865.616ZM692.207 790.931C684.349 807.875 673.439 837.037 682.144 854.279C683.479 856.916 687.021 863.932 691.511 863.932C696.001 863.932 699.537 856.916 700.878 854.279C709.605 837.032 699.57 807.881 692.207 790.931Z" fill="black"/>
<path d="M1362.77 777.573C1300.61 723.789 1223.58 735.744 1212.47 737.652C1105.54 754.719 1019.06 793.776 1005.82 843.329C1003.1 853.56 1000.9 863.925 999.25 874.382C972.788 869.892 928.371 867.692 902.503 895.833L902.374 895.979C895.028 904.016 900.18 917.003 911.012 918.131C917.5 918.804 925.295 919.456 934.085 919.882C952.331 920.769 991.382 949.067 1015.84 967.874C1031.09 985.3 1052.62 995.98 1075.73 997.581H1076.1C1082.88 1002.13 1100.79 1012.8 1125.58 1012.41C1138.66 1012.19 1151.51 1008.98 1163.16 1003.02L1253.17 1001.79C1294.83 1013.88 1328.29 1012.62 1348.68 1010.07C1377.98 1006.4 1388.98 999.085 1393.91 995.038C1410.91 981.007 1417.1 959.152 1421.48 937.269C1430.47 892.308 1415.99 823.629 1362.77 777.573Z" fill="#F8F3ED"/>
<path d="M1124.31 1013.3C1101.64 1013.3 1084.35 1004.11 1075.86 998.457H1075.67C1052.37 996.843 1030.65 986.082 1015.26 968.52C974.848 937.478 947.516 921.376 934.046 920.753C926.245 920.371 918.466 919.782 910.923 918.996C908.285 918.727 905.775 917.727 903.675 916.109C901.575 914.491 899.968 912.319 899.036 909.837C898.084 907.425 897.834 904.792 898.314 902.244C898.795 899.695 899.987 897.335 901.752 895.435L901.881 895.295C913.46 882.701 929.826 874.888 950.541 872.059C968.433 869.618 986.376 871.425 998.555 873.44C1000.19 863.236 1002.34 853.12 1005 843.133C1011.38 819.269 1035.11 796.6 1073.64 777.58C1110.05 759.62 1158.01 745.516 1212.34 736.839C1220.33 735.47 1241.8 732.624 1268.57 735.913C1305.17 740.403 1337.04 754.226 1363.32 776.957C1388.03 798.463 1406.35 826.361 1416.26 857.591C1425 884.873 1427.15 913.238 1422.31 937.45C1418.21 957.907 1412.35 980.963 1394.44 995.701C1385.27 1003.24 1370.34 1008.22 1348.78 1010.92C1317.65 1014.82 1285.44 1012.04 1253.06 1002.65L1163.36 1003.88C1151.65 1009.82 1138.74 1013.03 1125.6 1013.27C1125.17 1013.3 1124.73 1013.3 1124.31 1013.3ZM1076.32 996.762L1076.56 996.908C1084.98 1002.52 1102.54 1011.97 1125.57 1011.6C1138.52 1011.36 1151.24 1008.18 1162.78 1002.3L1162.95 1002.21L1253.31 1000.98L1253.43 1001.01C1285.64 1010.36 1317.66 1013.13 1348.6 1009.26C1369.83 1006.61 1384.49 1001.75 1393.4 994.416C1410.88 980.026 1416.65 957.301 1420.68 937.13C1429.58 892.652 1415.07 823.961 1362.25 778.242C1302.19 726.26 1227.08 736.025 1212.65 738.512C1158.47 747.16 1110.67 761.197 1074.41 779.101C1036.34 797.902 1012.91 820.195 1006.65 843.576C1003.94 853.781 1001.76 864.12 1000.12 874.551L999.981 875.393L999.139 875.247C974.444 871.044 929.101 868.209 903.166 896.434L903.037 896.575C901.482 898.245 900.433 900.323 900.011 902.566C899.589 904.809 899.811 907.126 900.652 909.247C901.472 911.429 902.882 913.34 904.726 914.767C906.569 916.193 908.773 917.078 911.091 917.324C918.606 918.104 926.351 918.693 934.102 919.069C947.931 919.743 975.595 935.946 1016.32 967.235L1016.45 967.347C1031.55 984.597 1052.85 995.175 1075.72 996.773L1076.32 996.762Z" fill="black"/>
<path d="M998.645 873.546C993.38 858.084 985.366 828.77 984.681 801.062C984.174 780.48 986.544 759.929 991.725 740.004C976.991 709.729 970.668 676.051 973.417 642.494C973.561 640.865 974.12 639.299 975.041 637.947C975.961 636.596 977.213 635.502 978.676 634.77C980.138 634.039 981.764 633.694 983.398 633.769C985.032 633.844 986.619 634.336 988.009 635.198L1062.15 681.281C1089.74 673.785 1118.72 672.981 1146.69 678.935L1213.93 623.933C1214.99 623.069 1216.25 622.499 1217.6 622.283C1218.94 622.067 1220.32 622.212 1221.6 622.703C1222.87 623.195 1223.99 624.015 1224.84 625.08C1225.69 626.145 1226.24 627.417 1226.44 628.766C1231.91 666.847 1228.73 705.671 1217.14 742.356C1222.3 758.141 1223.67 774.917 1221.15 791.33" fill="#F8F3ED"/>
<path d="M997.848 873.815C994.761 864.751 984.625 832.715 983.817 801.084C983.307 780.528 985.661 760.001 990.81 740.093C976.108 709.757 969.806 676.035 972.559 642.437C972.693 640.664 973.285 638.955 974.278 637.48C975.271 636.004 976.63 634.811 978.222 634.018C979.822 633.205 981.606 632.819 983.4 632.898C985.194 632.978 986.937 633.52 988.459 634.473L1062.29 680.366C1089.78 672.96 1118.62 672.156 1146.48 678.02L1213.41 623.259C1214.57 622.299 1215.98 621.667 1217.47 621.427C1218.97 621.186 1220.5 621.348 1221.91 621.893C1223.32 622.439 1224.56 623.35 1225.5 624.533C1226.45 625.715 1227.06 627.128 1227.28 628.625C1232.76 666.742 1229.6 705.603 1218.03 742.333C1223.15 758.17 1224.5 774.986 1221.96 791.436L1220.27 791.178C1222.77 774.896 1221.41 758.255 1216.3 742.597L1216.21 742.338L1216.3 742.08C1227.85 705.515 1231.02 666.817 1225.56 628.861C1225.38 627.66 1224.89 626.528 1224.13 625.58C1223.37 624.633 1222.38 623.903 1221.24 623.466C1220.11 623.029 1218.88 622.9 1217.68 623.093C1216.49 623.285 1215.36 623.792 1214.42 624.562L1146.86 679.838L1146.47 679.754C1118.64 673.827 1089.79 674.627 1062.32 682.089L1061.97 682.184L987.521 635.904C986.244 635.105 984.781 634.65 983.275 634.583C981.77 634.516 980.272 634.84 978.929 635.523C977.6 636.184 976.464 637.179 975.633 638.409C974.802 639.639 974.304 641.064 974.186 642.544C971.442 675.957 977.737 709.494 992.41 739.639L992.545 739.919L992.466 740.223C987.304 760.07 984.942 780.543 985.45 801.044C986.231 832.44 996.299 864.274 999.369 873.282L997.848 873.815Z" fill="black"/>
<path d="M614.917 973.166H614.754C614.754 973.166 609.984 973.105 605.527 968.828C602.019 965.461 605.05 950.627 615.63 933.425C624.666 950.902 626.899 965.489 623.577 968.828C619.311 973.144 614.917 973.166 614.917 973.166Z" fill="#4EA7F1"/>
<path d="M614.923 974.008H614.754C614.541 974.008 609.596 973.89 604.955 969.44C600.628 965.292 605.106 948.937 614.934 932.959L615.714 931.69L616.399 933.015C624.817 949.33 628.258 965.309 624.2 969.4C619.738 973.89 615.153 973.986 614.934 973.986L614.923 974.008ZM615.574 935.148C605.247 952.406 603.372 965.595 606.105 968.222C610.275 972.223 614.715 972.324 614.76 972.324H614.911C614.996 972.324 619.059 972.201 622.993 968.239C625.597 965.59 624.396 952.737 615.574 935.148Z" fill="black"/>
<path d="M1423.79 908.624C1432.1 912.452 1445.25 920.079 1454.09 934.441C1474.53 967.639 1459.3 1016.25 1430.88 1041.82C1410.24 1060.39 1386.49 1063.31 1367.8 1065.72C1356.84 1067.12 1306.06 1073.45 1271.19 1041.82C1264.13 1035.43 1247.61 1020.43 1250.05 1001.9C1251.31 992.362 1257.79 979.627 1268.83 976.085C1290 969.272 1302.67 1004.24 1342.41 1008.54C1348.13 1009.16 1372.65 1011.11 1391.8 995.634C1394.93 993.097 1400.11 988.337 1406.39 977.674C1412.84 966.713 1423.75 943.994 1423.79 908.624Z" fill="#333333"/>
<path d="M1345.82 1068C1315.3 1068 1289.1 1059.21 1270.61 1042.45C1263.46 1035.96 1246.7 1020.76 1249.21 1001.79C1250.6 991.261 1257.7 978.779 1268.57 975.266C1279.23 971.837 1287.53 978.358 1298.06 986.603C1308.81 995.022 1322.2 1005.49 1342.49 1007.69C1351.25 1008.64 1373.54 1009.29 1391.26 994.96C1394.5 992.345 1399.51 987.664 1405.66 977.23C1416.93 958.097 1422.91 934.374 1422.94 908.624V907.311L1424.14 907.872C1437.6 914.09 1447.95 922.885 1454.81 934.009C1464.44 949.651 1466.86 969.962 1461.62 991.2C1456.77 1010.88 1445.77 1029.56 1431.43 1042.46C1410.77 1061.05 1387.25 1064.07 1368.35 1066.5L1367.9 1066.56C1360.58 1067.51 1353.2 1067.99 1345.82 1068ZM1274.25 976.04C1272.5 976.044 1270.76 976.324 1269.09 976.871C1258.89 980.154 1252.21 992.025 1250.88 1002.01C1248.49 1020.1 1264.79 1034.89 1271.75 1041.2C1294.2 1061.54 1328.25 1069.95 1367.72 1064.88L1368.17 1064.82C1386.84 1062.42 1410.07 1059.44 1430.34 1041.2C1457.84 1016.44 1473.69 967.818 1453.4 934.884C1446.93 924.372 1437.26 915.987 1424.65 909.948C1424.42 935.491 1418.38 959.024 1407.14 978.083C1400.85 988.747 1395.69 993.574 1392.35 996.273C1374.14 1011 1351.31 1010.3 1342.35 1009.36C1321.58 1007.12 1307.97 996.453 1297.06 987.933C1288.73 981.423 1281.85 976.04 1274.25 976.04Z" fill="#191818"/>
<path d="M1163.37 1003.75C1163.18 1003.75 1162.99 1003.69 1162.84 1003.57C1162.69 1003.45 1162.59 1003.28 1162.55 1003.09C1162.51 1002.91 1162.53 1002.71 1162.62 1002.54C1162.7 1002.37 1162.84 1002.23 1163.02 1002.15C1163.4 1001.97 1201.48 983.943 1210.26 949.954C1210.28 949.842 1210.33 949.735 1210.39 949.641C1210.46 949.547 1210.54 949.467 1210.64 949.406C1210.74 949.345 1210.85 949.305 1210.96 949.287C1211.07 949.27 1211.19 949.275 1211.3 949.304C1211.41 949.333 1211.51 949.384 1211.6 949.454C1211.69 949.524 1211.77 949.612 1211.82 949.712C1211.88 949.812 1211.91 949.923 1211.92 950.037C1211.94 950.151 1211.92 950.266 1211.89 950.375C1207.2 968.565 1194.34 982.096 1184.39 990.223C1178.03 995.467 1171.1 999.976 1163.72 1003.66C1163.61 1003.72 1163.49 1003.75 1163.37 1003.75Z" fill="#191818"/>
<path d="M1146.72 678.946L1213.96 623.944C1215.01 623.079 1216.28 622.51 1217.63 622.294C1218.97 622.078 1220.35 622.223 1221.62 622.714C1222.9 623.205 1224.01 624.025 1224.87 625.09C1225.72 626.156 1226.27 627.427 1226.47 628.776C1228.29 641.449 1228.79 654.291 1228.91 674.237C1229.04 694.184 1222.02 712.469 1217.25 742.496C1200.72 714.658 1176.12 692.497 1146.72 678.946Z" fill="#333333"/>
<path d="M1217.71 744.92L1216.52 742.928C1200.08 715.236 1175.62 693.191 1146.37 679.709L1145.15 679.148L1213.43 623.276C1214.6 622.316 1216 621.683 1217.5 621.443C1218.99 621.203 1220.52 621.364 1221.93 621.91C1223.35 622.456 1224.59 623.367 1225.53 624.549C1226.47 625.732 1227.09 627.144 1227.31 628.642C1229.2 641.859 1229.64 655.368 1229.76 674.243C1229.84 686.461 1227.21 698.253 1224.15 711.896C1222.17 720.775 1219.93 730.838 1218.06 742.63L1217.71 744.92ZM1148.29 678.749C1176.6 692.092 1200.4 713.418 1216.76 740.104C1218.56 729.233 1220.65 719.866 1222.5 711.532C1225.64 697.428 1228.11 686.276 1228.05 674.254C1227.93 655.452 1227.48 641.999 1225.61 628.877C1225.43 627.677 1224.94 626.545 1224.18 625.597C1223.42 624.649 1222.42 623.92 1221.29 623.483C1220.16 623.046 1218.93 622.917 1217.73 623.109C1216.53 623.302 1215.41 623.809 1214.47 624.578L1148.29 678.749Z" fill="#191818"/>
<path d="M1078.06 999.265C1077.85 999.266 1077.66 999.192 1077.5 999.057C1075.93 997.687 1072.26 993.916 1072.18 988.517C1072.11 983.763 1074.83 980.457 1075.72 979.368C1080.27 973.829 1086.98 973.324 1094.77 972.735C1099.16 972.403 1104.14 972.027 1109.27 970.669C1118.31 968.278 1126.87 963.064 1134.71 955.173C1134.87 955.025 1135.08 954.944 1135.3 954.947C1135.51 954.951 1135.72 955.04 1135.88 955.194C1136.03 955.348 1136.12 955.556 1136.12 955.774C1136.13 955.992 1136.05 956.204 1135.9 956.363C1127.85 964.467 1119.06 969.833 1109.7 972.297C1104.42 973.694 1099.36 974.076 1094.9 974.413C1087.19 974.974 1081.11 975.457 1077.02 980.435C1076.23 981.406 1073.81 984.364 1073.86 988.494C1073.93 993.209 1077.23 996.565 1078.61 997.788C1078.78 997.936 1078.88 998.144 1078.89 998.367C1078.91 998.59 1078.84 998.81 1078.69 998.978C1078.61 999.068 1078.51 999.14 1078.41 999.189C1078.3 999.239 1078.18 999.264 1078.06 999.265Z" fill="#191818"/>
<path d="M1102.76 827.244C1150.18 827.244 1188.63 797.845 1188.63 761.579C1188.63 725.313 1150.18 695.913 1102.76 695.913C1055.33 695.913 1016.88 725.313 1016.88 761.579C1016.88 797.845 1055.33 827.244 1102.76 827.244Z" fill="#333333"/>
<path d="M1102.76 828.085C1054.94 828.085 1016.04 798.249 1016.04 761.578C1016.04 724.906 1054.94 695.07 1102.76 695.07C1150.57 695.07 1189.47 724.906 1189.47 761.578C1189.47 798.249 1150.57 828.085 1102.76 828.085ZM1102.76 696.754C1055.89 696.754 1017.73 725.832 1017.73 761.578C1017.73 797.323 1055.89 826.401 1102.76 826.401C1149.62 826.401 1187.78 797.323 1187.78 761.578C1187.78 725.832 1149.62 696.754 1102.76 696.754Z" fill="#191818"/>
<path d="M1048.03 775.048C1057.8 775.048 1065.71 767.133 1065.71 757.369C1065.71 747.605 1057.8 739.689 1048.03 739.689C1038.27 739.689 1030.36 747.605 1030.36 757.369C1030.36 767.133 1038.27 775.048 1048.03 775.048Z" fill="#F8F59C"/>
<path d="M1048.03 775.89C1044.37 775.89 1040.79 774.803 1037.74 772.768C1034.7 770.733 1032.33 767.841 1030.92 764.456C1029.52 761.072 1029.15 757.348 1029.87 753.755C1030.58 750.163 1032.35 746.863 1034.94 744.272C1037.53 741.682 1040.83 739.918 1044.42 739.204C1048.01 738.489 1051.74 738.856 1055.12 740.257C1058.51 741.659 1061.4 744.033 1063.43 747.079C1065.47 750.125 1066.56 753.706 1066.56 757.369C1066.56 762.281 1064.6 766.992 1061.13 770.465C1057.66 773.938 1052.95 775.89 1048.03 775.89ZM1048.03 740.531C1044.7 740.531 1041.45 741.519 1038.68 743.369C1035.91 745.219 1033.75 747.849 1032.48 750.925C1031.2 754.002 1030.87 757.387 1031.52 760.653C1032.17 763.92 1033.77 766.92 1036.13 769.274C1038.48 771.629 1041.48 773.233 1044.75 773.882C1048.02 774.532 1051.4 774.199 1054.48 772.924C1057.55 771.65 1060.18 769.492 1062.03 766.723C1063.88 763.954 1064.87 760.699 1064.87 757.369C1064.87 752.903 1063.1 748.621 1059.94 745.463C1056.78 742.305 1052.5 740.531 1048.03 740.531Z" fill="#191818"/>
<path d="M1226.23 629.125C1226.23 629.125 1186.94 682.443 1183.01 694.79C1180.07 704.023 1193.46 699.449 1200.41 696.553C1200.71 696.429 1201.04 696.398 1201.36 696.466C1201.68 696.534 1201.97 696.696 1202.19 696.931C1202.42 697.167 1202.57 697.465 1202.62 697.786C1202.67 698.107 1202.62 698.436 1202.48 698.73L1197.82 708.569C1197.53 709.2 1197.42 709.906 1197.52 710.597C1197.62 711.288 1197.92 711.936 1198.38 712.458C1198.84 712.981 1199.45 713.356 1200.12 713.536C1200.8 713.717 1201.51 713.695 1202.17 713.474L1207.74 711.622C1208.03 711.524 1208.35 711.512 1208.65 711.588C1208.95 711.665 1209.22 711.826 1209.43 712.053C1209.64 712.279 1209.78 712.562 1209.83 712.867C1209.89 713.172 1209.85 713.486 1209.73 713.772L1207.72 723.414L1217.26 742.496C1228.69 705.852 1231.76 667.112 1226.24 629.125H1226.23Z" fill="#F3D2C9"/>
<path d="M1217.43 744.741L1206.82 723.526L1208.95 713.424C1209 713.286 1209.02 713.136 1209 712.989C1208.97 712.843 1208.9 712.707 1208.8 712.599C1208.7 712.49 1208.57 712.412 1208.42 712.375C1208.28 712.339 1208.13 712.344 1207.99 712.391L1202.43 714.249C1201.61 714.524 1200.72 714.551 1199.89 714.328C1199.05 714.105 1198.3 713.641 1197.73 712.994C1197.16 712.347 1196.79 711.545 1196.67 710.69C1196.55 709.834 1196.68 708.962 1197.05 708.182L1201.71 698.343C1201.78 698.202 1201.8 698.043 1201.78 697.889C1201.75 697.734 1201.68 697.591 1201.57 697.479C1201.47 697.365 1201.33 697.286 1201.17 697.254C1201.02 697.222 1200.86 697.238 1200.72 697.299C1191.3 701.228 1185.3 702.115 1182.89 699.915C1181.66 698.792 1181.43 696.962 1182.21 694.51C1186.14 682.162 1223.94 630.781 1225.55 628.597L1226.77 626.947L1227.06 628.973C1232.61 667.084 1229.54 705.953 1218.08 742.721L1217.43 744.741ZM1208.59 723.302L1217.06 740.24C1227.74 704.967 1230.69 667.805 1225.68 631.291C1219.02 640.417 1187.27 684.188 1183.82 695.043C1183.25 696.822 1183.32 698.051 1184.03 698.702C1185.8 700.324 1191.8 699.23 1200.07 695.773C1200.53 695.583 1201.04 695.538 1201.52 695.641C1202.01 695.744 1202.45 695.992 1202.79 696.351C1203.13 696.711 1203.36 697.165 1203.44 697.655C1203.52 698.144 1203.45 698.647 1203.23 699.095L1198.58 708.928C1198.35 709.41 1198.27 709.948 1198.34 710.476C1198.42 711.004 1198.64 711.498 1199 711.897C1199.35 712.297 1199.81 712.583 1200.33 712.722C1200.84 712.861 1201.39 712.845 1201.89 712.677L1207.45 710.825C1207.89 710.678 1208.37 710.658 1208.82 710.768C1209.27 710.878 1209.68 711.114 1210 711.448C1210.32 711.781 1210.54 712.199 1210.64 712.653C1210.73 713.107 1210.69 713.579 1210.53 714.013L1208.59 723.302Z" fill="black"/>
<path d="M1061.78 681.32C1037.17 666.06 1011.64 649.835 987.022 634.575C981.931 631.42 973.742 635.484 973.67 641.472C973.518 654.274 971.425 668.468 975.353 688.055C977.469 698.629 978.412 704.096 980.55 711.347C983.422 721.095 987.129 730.578 991.629 739.69C994.524 733.985 997.904 728.54 1001.73 723.414C1004.96 719.087 1016.64 704.096 1037.65 691.984C1045.3 687.585 1053.39 684.011 1061.78 681.32Z" fill="#333333"/>
<path d="M991.618 741.569L990.877 740.06C986.358 730.905 982.633 721.38 979.742 711.588C977.941 705.476 976.936 700.515 975.477 693.011C975.185 691.529 974.871 689.941 974.528 688.218C971.492 673.064 972.036 661.093 972.513 650.553C972.659 647.387 972.794 644.379 972.828 641.461C972.861 638.542 974.708 635.691 977.767 634.013C981.022 632.222 984.737 632.166 987.465 633.861C999.773 641.483 1012.51 649.486 1024.84 657.226C1037.16 664.965 1049.91 672.974 1062.23 680.607L1063.78 681.567L1062.04 682.128C1053.7 684.801 1045.67 688.351 1038.07 692.719C1019.18 703.613 1007.61 716.942 1002.41 723.924C998.61 729.013 995.256 734.416 992.381 740.077L991.618 741.569ZM982.969 634.327C981.432 634.34 979.923 634.739 978.581 635.489C976.061 636.87 974.54 639.109 974.512 641.483C974.478 644.446 974.337 647.449 974.197 650.626C973.72 661.076 973.181 672.913 976.178 687.892C976.521 689.615 976.835 691.198 977.133 692.685C978.654 700.408 979.574 705.077 981.359 711.111C984.063 720.276 987.505 729.206 991.652 737.815C994.396 732.61 997.541 727.626 1001.06 722.908C1006.35 715.825 1018.07 702.299 1037.23 691.254C1044.41 687.128 1051.97 683.722 1059.82 681.084C1047.98 673.738 1035.77 666.071 1023.95 658.635C1011.6 650.895 998.892 642.92 986.589 635.27C985.493 634.626 984.24 634.3 982.969 634.327Z" fill="#191818"/>
<path d="M973.669 640.349C973.669 640.349 1015.98 677.357 1021.21 687.05C1021.52 687.611 1022.83 690.204 1021.86 691.377C1020.01 693.622 1012.09 687.965 1008.47 690.861C1008.1 691.16 1007.79 691.525 1007.56 691.938C1007.15 692.704 1006.97 693.572 1007.05 694.436C1007.12 695.301 1007.44 696.125 1007.98 696.81C1009.19 698.42 1010.78 701.002 1010.63 703.455C1010.63 704.184 1010.41 704.895 1009.99 705.492C1008.9 706.817 1006.89 706.828 1006.33 706.828C1002.66 706.828 1000.67 703.286 1000.58 703.124C1000.1 702.736 999.5 702.531 998.884 702.544C998.268 702.558 997.676 702.789 997.214 703.197C996.921 703.504 996.736 703.898 996.686 704.319C996.556 705.29 996.716 706.279 997.146 707.159C998.364 709.623 996.939 717.57 996.108 721.151C994.854 726.493 992.771 731.606 989.934 736.304C984.883 725.27 978.064 707.681 974.781 686.354C972.998 674.706 972.342 662.914 972.822 651.141C973.035 646.747 973.389 643.043 973.669 640.349Z" fill="#F3D2C9"/>
<path d="M989.946 737.164H989.901C989.748 737.156 989.599 737.105 989.472 737.018C989.346 736.931 989.246 736.81 989.183 736.67C981.821 720.727 976.695 703.845 973.951 686.5C972.159 674.805 971.499 662.964 971.981 651.142C972.149 647.522 972.43 643.846 972.822 640.276C972.836 640.122 972.892 639.974 972.985 639.849C973.077 639.724 973.202 639.627 973.346 639.569C973.49 639.511 973.648 639.494 973.801 639.52C973.954 639.545 974.097 639.613 974.214 639.715C975.943 641.23 1016.69 676.937 1021.92 686.652C1022.48 687.729 1023.73 690.412 1022.48 691.916C1021.24 693.42 1018.96 692.668 1016.27 691.877C1013.59 691.086 1010.59 690.193 1008.98 691.518C1008.69 691.749 1008.45 692.033 1008.28 692.354C1007.95 692.974 1007.81 693.675 1007.88 694.372C1007.94 695.069 1008.2 695.732 1008.64 696.283C1010 698.096 1011.59 700.823 1011.44 703.478C1011.43 704.386 1011.14 705.269 1010.61 706.004C1009.72 707.087 1008.27 707.642 1006.31 707.648C1002.53 707.648 1000.37 704.426 999.914 703.658C999.594 703.449 999.216 703.349 998.836 703.371C998.455 703.393 998.091 703.537 997.798 703.781C997.636 703.969 997.536 704.202 997.512 704.449C997.411 705.248 997.545 706.06 997.899 706.784C999.487 709.994 997.192 720.186 996.922 721.337C995.65 726.764 993.534 731.959 990.653 736.732C990.582 736.858 990.48 736.964 990.356 737.04C990.232 737.116 990.091 737.158 989.946 737.164ZM974.338 642.055C974.035 645.092 973.816 648.162 973.676 651.198C973.194 662.915 973.846 674.651 975.623 686.242C978.249 702.903 983.099 719.137 990.041 734.509C992.423 730.279 994.194 725.733 995.3 721.006C996.294 716.723 997.411 709.607 996.423 707.575C995.899 706.535 995.703 705.361 995.862 704.208C995.937 703.601 996.209 703.035 996.636 702.597C997.251 702.049 998.04 701.738 998.863 701.721C999.687 701.703 1000.49 701.98 1001.13 702.501C1001.2 702.563 1001.27 702.642 1001.31 702.732C1001.31 702.765 1003.11 705.992 1006.31 705.992C1007.75 705.992 1008.76 705.644 1009.31 704.965C1009.62 704.506 1009.78 703.966 1009.77 703.416C1009.88 701.267 1008.48 698.926 1007.28 697.321C1006.65 696.507 1006.27 695.525 1006.18 694.496C1006.1 693.467 1006.31 692.436 1006.81 691.529C1007.09 691.023 1007.47 690.575 1007.93 690.21C1010.25 688.358 1013.71 689.374 1016.76 690.272C1018.52 690.788 1020.69 691.428 1021.21 690.833C1021.58 690.379 1021.26 688.925 1020.46 687.466C1015.86 678.918 981.314 648.212 974.338 642.055Z" fill="black"/>
<path d="M1048.03 769.996C1055.01 769.996 1060.66 764.342 1060.66 757.368C1060.66 750.394 1055.01 744.74 1048.03 744.74C1041.06 744.74 1035.41 750.394 1035.41 757.368C1035.41 764.342 1041.06 769.996 1048.03 769.996Z" fill="black"/>
<path d="M1048.03 770.838C1045.37 770.838 1042.77 770.048 1040.55 768.568C1038.34 767.088 1036.61 764.984 1035.59 762.523C1034.57 760.062 1034.3 757.353 1034.82 754.74C1035.34 752.128 1036.63 749.727 1038.51 747.844C1040.39 745.96 1042.79 744.677 1045.41 744.157C1048.02 743.638 1050.73 743.904 1053.19 744.924C1055.65 745.943 1057.75 747.67 1059.23 749.885C1060.71 752.1 1061.5 754.704 1061.5 757.368C1061.5 760.941 1060.08 764.367 1057.56 766.893C1055.03 769.419 1051.61 770.838 1048.03 770.838ZM1048.03 745.582C1045.7 745.582 1043.42 746.273 1041.49 747.568C1039.55 748.864 1038.04 750.704 1037.15 752.858C1036.25 755.012 1036.02 757.381 1036.47 759.668C1036.93 761.954 1038.05 764.054 1039.7 765.702C1041.35 767.351 1043.45 768.473 1045.73 768.928C1048.02 769.383 1050.39 769.149 1052.54 768.257C1054.7 767.365 1056.54 765.855 1057.83 763.916C1059.13 761.978 1059.82 759.699 1059.82 757.368C1059.82 754.242 1058.58 751.245 1056.37 749.034C1054.16 746.824 1051.16 745.582 1048.03 745.582Z" fill="#191818"/>
<path d="M1161.41 775.048C1171.17 775.048 1179.08 767.133 1179.08 757.369C1179.08 747.605 1171.17 739.689 1161.41 739.689C1151.64 739.689 1143.73 747.605 1143.73 757.369C1143.73 767.133 1151.64 775.048 1161.41 775.048Z" fill="#F8F59C"/>
<path d="M1161.4 775.89C1157.74 775.89 1154.16 774.803 1151.12 772.768C1148.07 770.733 1145.7 767.841 1144.29 764.456C1142.89 761.072 1142.53 757.348 1143.24 753.755C1143.95 750.163 1145.72 746.863 1148.31 744.272C1150.9 741.682 1154.2 739.918 1157.79 739.204C1161.38 738.489 1165.11 738.856 1168.49 740.257C1171.88 741.659 1174.77 744.033 1176.8 747.079C1178.84 750.125 1179.93 753.706 1179.93 757.369C1179.93 762.281 1177.97 766.992 1174.5 770.465C1171.03 773.938 1166.32 775.89 1161.4 775.89ZM1161.4 740.531C1158.07 740.531 1154.82 741.519 1152.05 743.369C1149.28 745.219 1147.12 747.849 1145.85 750.925C1144.57 754.002 1144.24 757.387 1144.89 760.653C1145.54 763.92 1147.14 766.92 1149.5 769.274C1151.85 771.629 1154.85 773.233 1158.12 773.882C1161.39 774.532 1164.77 774.199 1167.85 772.924C1170.92 771.65 1173.55 769.492 1175.4 766.723C1177.25 763.954 1178.24 760.699 1178.24 757.369C1178.24 752.903 1176.47 748.621 1173.31 745.463C1170.15 742.305 1165.87 740.531 1161.4 740.531Z" fill="#191818"/>
<path d="M1161.41 769.996C1168.38 769.996 1174.03 764.342 1174.03 757.368C1174.03 750.394 1168.38 744.74 1161.41 744.74C1154.43 744.74 1148.78 750.394 1148.78 757.368C1148.78 764.342 1154.43 769.996 1161.41 769.996Z" fill="black"/>
<path d="M1161.41 770.838C1158.74 770.838 1156.14 770.048 1153.92 768.568C1151.71 767.088 1149.98 764.984 1148.96 762.523C1147.94 760.062 1147.67 757.353 1148.19 754.74C1148.71 752.128 1150 749.727 1151.88 747.844C1153.76 745.96 1156.16 744.677 1158.78 744.157C1161.39 743.638 1164.1 743.904 1166.56 744.924C1169.02 745.943 1171.13 747.67 1172.61 749.885C1174.09 752.1 1174.88 754.704 1174.88 757.368C1174.88 760.941 1173.46 764.367 1170.93 766.893C1168.4 769.419 1164.98 770.838 1161.41 770.838ZM1161.41 745.582C1159.07 745.582 1156.8 746.273 1154.86 747.568C1152.92 748.864 1151.41 750.704 1150.52 752.858C1149.62 755.012 1149.39 757.381 1149.85 759.668C1150.3 761.954 1151.42 764.054 1153.07 765.702C1154.72 767.351 1156.82 768.473 1159.11 768.928C1161.39 769.383 1163.76 769.149 1165.92 768.257C1168.07 767.365 1169.91 765.855 1171.21 763.916C1172.5 761.978 1173.19 759.699 1173.19 757.368C1173.19 754.242 1171.95 751.245 1169.74 749.034C1167.53 746.824 1164.53 745.582 1161.41 745.582Z" fill="#191818"/>
<path d="M1098.69 760.809L1104.44 761.578L1109.71 760.826C1109.94 760.793 1110.17 760.826 1110.38 760.921C1110.59 761.016 1110.77 761.17 1110.89 761.363C1111.01 761.556 1111.08 761.781 1111.08 762.011C1111.08 762.242 1111.02 762.467 1110.89 762.661L1105.79 770.675C1105.64 770.902 1105.44 771.089 1105.2 771.22C1104.96 771.351 1104.69 771.422 1104.42 771.426C1104.14 771.43 1103.87 771.369 1103.63 771.246C1103.39 771.123 1103.18 770.942 1103.02 770.72L1097.54 762.678C1097.41 762.485 1097.34 762.259 1097.33 762.028C1097.33 761.796 1097.39 761.568 1097.51 761.371C1097.63 761.174 1097.81 761.016 1098.02 760.916C1098.23 760.816 1098.46 760.779 1098.69 760.809Z" fill="#F3D2C9"/>
<path d="M1104.39 772.287C1103.98 772.285 1103.58 772.181 1103.22 771.985C1102.85 771.789 1102.55 771.507 1102.32 771.164L1096.84 763.127C1096.62 762.801 1096.49 762.418 1096.48 762.023C1096.48 761.628 1096.58 761.239 1096.79 760.903C1097 760.567 1097.3 760.298 1097.65 760.129C1098.01 759.96 1098.41 759.898 1098.8 759.951L1104.41 760.703L1109.57 759.962C1109.96 759.908 1110.35 759.966 1110.7 760.129C1111.06 760.292 1111.36 760.552 1111.57 760.88C1111.78 761.208 1111.9 761.589 1111.9 761.979C1111.9 762.37 1111.79 762.752 1111.58 763.082L1106.48 771.097C1106.26 771.447 1105.96 771.737 1105.59 771.94C1105.23 772.143 1104.83 772.252 1104.41 772.259L1104.39 772.287ZM1098.52 761.623C1098.46 761.623 1098.4 761.639 1098.35 761.669C1098.3 761.7 1098.26 761.744 1098.23 761.797C1098.19 761.855 1098.16 761.923 1098.16 761.994C1098.16 762.064 1098.19 762.133 1098.23 762.19L1103.71 770.227C1103.79 770.337 1103.89 770.428 1104.01 770.49C1104.13 770.552 1104.26 770.585 1104.4 770.586C1104.54 770.586 1104.67 770.55 1104.79 770.483C1104.91 770.417 1105.01 770.321 1105.08 770.205L1110.18 762.19C1110.22 762.134 1110.24 762.066 1110.24 761.996C1110.24 761.927 1110.22 761.859 1110.18 761.803C1110.14 761.744 1110.09 761.696 1110.02 761.667C1109.96 761.638 1109.89 761.629 1109.82 761.64L1104.44 762.409L1098.57 761.629L1098.52 761.623Z" fill="black"/>
<path d="M1096.05 781.031C1095.49 781.031 1094.88 780.997 1094.25 780.936C1094.03 780.913 1093.82 780.803 1093.68 780.629C1093.54 780.456 1093.47 780.233 1093.49 780.01C1093.52 779.786 1093.63 779.581 1093.8 779.439C1093.97 779.297 1094.2 779.23 1094.42 779.252C1097.71 779.577 1100.12 778.96 1101.58 777.411C1103.72 775.166 1103.19 771.602 1103.18 771.563C1103.15 771.34 1103.2 771.112 1103.34 770.93C1103.47 770.748 1103.67 770.626 1103.89 770.592C1104.12 770.558 1104.35 770.614 1104.53 770.747C1104.71 770.881 1104.83 771.081 1104.87 771.305C1104.87 771.479 1105.53 775.71 1102.83 778.567C1101.27 780.212 1099 781.031 1096.05 781.031Z" fill="black"/>
<path d="M1112.46 781.592C1109.52 781.592 1107.26 780.773 1105.73 779.139C1103.03 776.283 1103.66 772.051 1103.69 771.877C1103.73 771.654 1103.85 771.453 1104.03 771.319C1104.21 771.186 1104.44 771.13 1104.66 771.164C1104.89 771.198 1105.09 771.32 1105.22 771.502C1105.35 771.684 1105.41 771.912 1105.38 772.135C1105.38 772.197 1104.86 775.755 1106.98 777.994C1108.45 779.538 1110.85 780.15 1114.14 779.824C1114.36 779.802 1114.58 779.869 1114.76 780.011C1114.93 780.153 1115.04 780.359 1115.06 780.582C1115.09 780.805 1115.02 781.028 1114.88 781.202C1114.73 781.375 1114.53 781.486 1114.31 781.508C1113.64 781.558 1113.04 781.592 1112.46 781.592Z" fill="black"/>
<path d="M1221.74 763.262L1261.31 751.195L1221.74 763.262Z" fill="#F8F3ED"/>
<path d="M1221.74 764.103C1221.54 764.101 1221.35 764.028 1221.19 763.897C1221.04 763.765 1220.94 763.584 1220.91 763.386C1220.88 763.188 1220.93 762.986 1221.03 762.816C1221.14 762.646 1221.3 762.519 1221.49 762.458L1261.06 750.392C1261.27 750.344 1261.49 750.376 1261.67 750.483C1261.85 750.589 1261.99 750.761 1262.05 750.964C1262.12 751.168 1262.1 751.387 1262.01 751.579C1261.91 751.771 1261.75 751.92 1261.55 751.997L1221.99 764.064C1221.91 764.09 1221.82 764.103 1221.74 764.103Z" fill="black"/>
<path d="M1223.14 771.961L1260.46 777.854L1223.14 771.961Z" fill="#F8F3ED"/>
<path d="M1260.46 778.696H1260.34L1223.01 772.803C1222.79 772.769 1222.59 772.647 1222.46 772.465C1222.32 772.283 1222.27 772.055 1222.3 771.832C1222.33 771.609 1222.46 771.408 1222.64 771.275C1222.82 771.141 1223.05 771.085 1223.27 771.119L1260.59 777.012C1260.82 777.029 1261.02 777.134 1261.17 777.304C1261.32 777.474 1261.39 777.695 1261.37 777.919C1261.35 778.142 1261.25 778.349 1261.08 778.495C1260.91 778.641 1260.69 778.713 1260.46 778.696Z" fill="black"/>
<path d="M985.736 771.961L951.781 779.538L985.736 771.961Z" fill="#F8F3ED"/>
<path d="M951.781 780.379C951.558 780.404 951.334 780.339 951.159 780.198C950.984 780.058 950.871 779.853 950.847 779.63C950.822 779.407 950.888 779.183 951.028 779.008C951.169 778.832 951.373 778.72 951.596 778.696L985.551 771.119C985.763 771.085 985.979 771.133 986.156 771.253C986.333 771.373 986.457 771.556 986.504 771.765C986.552 771.973 986.518 772.192 986.409 772.376C986.301 772.561 986.127 772.697 985.922 772.758L951.967 780.334C951.907 780.358 951.845 780.373 951.781 780.379Z" fill="black"/>
<path d="M987.139 762.701L949.816 756.808L987.139 762.701Z" fill="#F8F3ED"/>
<path d="M987.139 763.542H987.01L949.687 757.649C949.577 757.632 949.471 757.593 949.375 757.535C949.279 757.477 949.196 757.401 949.13 757.311C949.064 757.221 949.016 757.118 948.989 757.01C948.963 756.901 948.958 756.788 948.975 756.678C948.992 756.567 949.03 756.461 949.088 756.365C949.146 756.27 949.222 756.186 949.313 756.12C949.403 756.054 949.505 756.006 949.614 755.98C949.722 755.953 949.835 755.948 949.946 755.965L987.268 761.858C987.492 761.875 987.699 761.98 987.845 762.15C987.99 762.32 988.063 762.541 988.046 762.764C988.029 762.988 987.923 763.195 987.753 763.341C987.583 763.487 987.363 763.559 987.139 763.542Z" fill="black"/>
<path d="M566.93 427.919C591.945 439.351 620.417 465.023 654.321 497.783C706.399 548.104 738.957 629.355 749.171 659.982C745.933 661.486 732.205 636.028 728.967 637.532C718.151 607.932 696.824 559.603 650.954 512.375C613.463 473.773 580.798 445.211 554.42 432.678L566.93 427.919Z" fill="#8BB174"/>
<path d="M748.852 660.907C746.854 660.907 744.037 657.237 738.385 649.256C735.298 644.901 730.64 638.323 729.282 638.323L728.451 638.704L728.187 637.829C710.564 589.562 685.106 548.748 650.36 512.969C608.828 470.185 578.206 444.918 554.073 433.446L552.288 432.605L566.97 426.992L567.296 427.138C591.255 438.094 618.588 462.059 654.917 497.164C677.558 519.053 698.846 548.883 718.203 585.869C735.983 619.897 746.344 648.852 749.969 659.712L750.211 660.425L749.526 660.739C749.317 660.845 749.087 660.903 748.852 660.907ZM729.534 636.645C731.521 636.937 734.333 640.624 739.755 648.279C742.28 651.854 745.855 656.906 747.814 658.589C742.202 642.167 709.734 552.514 653.738 498.377C617.695 463.568 590.57 439.76 566.903 428.839L556.542 432.767C580.586 444.694 610.854 469.877 651.561 511.785C686.33 547.598 711.85 588.434 729.534 636.645Z" fill="black"/>
<path d="M705.985 678.323C664.071 642.965 605.376 600.036 585.8 592.515C535.412 573.152 490.681 564.705 461.715 564.419C464.828 561.224 467.947 558.032 471.071 554.844C498.572 554.721 538.201 562.359 582.758 577.855C600.628 584.079 669.033 628.637 718.018 673.631L705.985 678.323Z" fill="#8BB174"/>
<path d="M705.826 679.288L705.439 678.968C664.732 644.603 605.459 600.955 585.496 593.3C540.669 576.086 494.367 565.58 461.702 565.26H459.732L470.71 554.035H471.709C500.333 554.035 540.855 562.42 583.004 577.097C600.588 583.22 668.313 626.901 718.55 673.069L719.543 673.984L705.826 679.288ZM463.684 563.604C496.404 564.3 541.955 574.767 586.13 591.728C606.189 599.434 665.372 642.959 706.174 677.357L716.445 673.339C667.286 628.439 599.392 584.539 582.476 578.651C540.507 564.059 500.198 555.685 471.737 555.685H471.451L463.684 563.604Z" fill="black"/>
<path d="M749.755 661.003C739.788 647.589 716.328 606.484 702.656 593.222C675.353 566.792 643.753 545.198 609.209 529.363L596.688 534.1C634.995 552.368 669.733 577.329 699.266 607.808C709.2 618.073 729.82 655.946 737.666 666.178L749.755 661.003Z" fill="#8BB174"/>
<path d="M737.397 667.222L736.999 666.705C733.85 662.592 728.816 654.319 722.968 644.744C714.336 630.573 704.559 614.51 698.644 608.398C669.2 577.972 634.542 553.071 596.312 534.875L594.55 533.994L609.238 528.438L609.563 528.583C644.206 544.445 675.888 566.102 703.246 592.621C712.299 601.399 725.662 622.367 736.398 639.205C742.106 648.184 747.062 655.901 750.43 660.476L751.069 661.329L737.397 667.222ZM598.826 534.207C636.536 552.416 670.735 577.139 699.85 607.236C705.895 613.483 715.728 629.63 724.399 643.88C729.736 652.641 734.788 660.936 737.925 665.168L748.426 660.678C745.03 655.986 740.338 648.617 734.956 640.164C724.264 623.383 710.963 602.499 702.05 593.856C674.92 567.551 643.514 546.052 609.176 530.278L598.826 534.207Z" fill="black"/>
<path d="M1117.91 968.677L1136.99 1011.33C1127.47 1012.41 1117.84 1012.22 1108.37 1010.77C1108.37 1010.77 1091.98 1008.87 1081.1 1000.67C1073.53 994.988 1073.17 990.986 1073.08 989.791C1072.64 984.324 1076.24 980.457 1077.64 979.127L1078.06 978.745C1083.11 974.334 1092.09 973.734 1092.65 973.694C1098.4 973.341 1106.34 971.853 1117.91 968.677Z" fill="#333333"/>
<path d="M1124.72 1012.86C1119.2 1012.87 1113.69 1012.44 1108.24 1011.6C1107.59 1011.53 1091.54 1009.59 1080.59 1001.37C1075.34 997.441 1072.53 993.568 1072.24 989.887C1071.8 984.398 1075.05 980.43 1077.06 978.549L1077.5 978.145C1082.49 973.779 1090.97 972.999 1092.59 972.887C1098.66 972.477 1106.87 970.832 1117.68 967.835L1118.38 967.645L1138.23 1011.98L1137.11 1012.11C1133 1012.59 1128.86 1012.84 1124.72 1012.86ZM1117.42 969.682C1106.84 972.555 1098.74 974.172 1092.69 974.57C1091.74 974.632 1083.27 975.317 1078.6 979.414C1078.43 979.565 1078.27 979.711 1078.22 979.762C1076.43 981.445 1073.51 984.965 1073.9 989.752C1074.15 992.929 1076.74 996.386 1081.58 1000.02C1092.16 1007.96 1108.28 1009.92 1108.45 1009.93C1117.48 1011.32 1126.65 1011.55 1135.73 1010.62L1117.42 969.682Z" fill="#191818"/>
<path d="M946.045 922.504L963.006 872.143C951.485 871.974 940.043 874.072 929.331 878.317C921.62 881.536 914.432 885.887 908.004 891.226C907.443 891.703 899.585 898.454 899.305 904.959C899.305 905.313 899.305 905.644 899.305 905.666C899.434 911.15 903.419 914.646 904.951 915.769L905.411 916.105C910.109 919.428 915.839 919.058 924.286 919.265C929.051 919.383 931.43 919.445 934.388 919.826C938.349 920.35 942.252 921.247 946.045 922.504Z" fill="#333333"/>
<path d="M946.045 923.351C945.955 923.349 945.866 923.334 945.781 923.306C942.038 922.069 938.185 921.191 934.276 920.685C931.357 920.303 928.983 920.247 924.257 920.123C923.197 920.123 922.175 920.079 921.193 920.062C914.25 919.949 909.233 919.865 904.917 916.812L904.434 916.453C902.262 914.769 898.592 911.188 898.457 905.683C898.457 905.683 898.457 905.307 898.457 904.914C898.76 898.1 906.567 891.326 907.437 890.574C913.961 885.187 921.244 880.792 929.05 877.531C939.864 873.253 951.411 871.136 963.039 871.301C963.173 871.302 963.305 871.335 963.424 871.398C963.542 871.46 963.644 871.55 963.721 871.66C963.798 871.77 963.847 871.896 963.866 872.029C963.884 872.162 963.87 872.297 963.825 872.423L946.864 922.784C946.806 922.953 946.695 923.1 946.547 923.201C946.4 923.303 946.224 923.356 946.045 923.351ZM961.76 872.973C950.759 872.973 939.858 875.05 929.629 879.097C922.008 882.294 914.901 886.598 908.537 891.871C908.206 892.151 900.405 898.791 900.118 904.992C900.118 905.301 900.118 905.593 900.118 905.632C900.236 910.448 903.486 913.647 905.433 915.123L905.865 915.443C909.76 918.193 914.559 918.249 921.199 918.384C922.186 918.384 923.208 918.417 924.28 918.445C929.062 918.563 931.464 918.625 934.466 919.007C938.205 919.494 941.893 920.309 945.489 921.442L961.816 872.968L961.76 872.973Z" fill="#191818"/>
<path d="M451.601 394.518L435.858 385.931C431.933 383.79 428.729 380.535 426.652 376.575C424.574 372.616 423.716 368.13 424.184 363.684L425.503 351.219C426.031 346.222 427.638 341.4 430.212 337.086C432.787 332.772 436.268 329.068 440.415 326.232C442.82 324.588 445.616 323.607 448.521 323.389C451.426 323.17 454.337 323.721 456.961 324.986C458.475 325.691 460.026 326.313 461.608 326.849C479.891 333.311 496.522 343.731 510.313 357.364L485.915 401.607L451.601 394.518Z" fill="#DA4E22"/>
<path d="M486.347 402.556L451.309 395.316L451.197 395.254L435.454 386.673C431.381 384.455 428.059 381.077 425.907 376.969C423.756 372.86 422.873 368.205 423.37 363.595L424.689 351.129C425.226 346.011 426.871 341.071 429.508 336.652C432.145 332.233 435.711 328.44 439.961 325.537C442.491 323.811 445.431 322.782 448.485 322.552C451.539 322.322 454.599 322.901 457.359 324.229C458.847 324.919 460.37 325.53 461.922 326.059C480.321 332.556 497.055 343.044 510.924 356.77L511.379 357.213L486.347 402.556ZM451.893 393.716L485.477 400.659L509.269 357.516C495.658 344.183 479.295 333.988 461.327 327.647C459.717 327.108 458.138 326.482 456.596 325.772C454.103 324.571 451.339 324.049 448.58 324.257C445.821 324.464 443.165 325.396 440.881 326.957C436.832 329.721 433.433 333.334 430.92 337.544C428.407 341.754 426.84 346.461 426.328 351.337L425.009 363.802C424.549 368.083 425.37 372.404 427.368 376.218C429.366 380.032 432.452 383.167 436.234 385.225L451.893 393.716Z" fill="black"/>
<path d="M466.435 379.652L466.047 379.68C461.114 380.039 456.428 381.981 452.687 385.217C448.946 388.453 446.349 392.809 445.281 397.639L443.777 404.442C442.22 411.487 443.248 418.858 446.674 425.208C450.1 431.558 455.695 436.464 462.439 439.031L508.736 456.654L515.863 406.03L483.873 384.316C478.752 380.84 472.607 379.196 466.435 379.652Z" fill="#DA4E22"/>
<path d="M509.426 457.817L462.141 439.823C455.209 437.184 449.456 432.14 445.933 425.612C442.41 419.084 441.352 411.506 442.953 404.263L444.457 397.466C445.543 392.448 448.23 387.919 452.113 384.561C455.995 381.202 460.864 379.196 465.986 378.844L466.373 378.816C472.729 378.364 479.054 380.057 484.333 383.626L516.762 405.638L509.426 457.817ZM466.497 380.494L466.109 380.522C461.349 380.849 456.824 382.713 453.215 385.835C449.606 388.957 447.11 393.167 446.101 397.831L444.597 404.627C443.118 411.473 444.133 418.622 447.459 424.786C450.785 430.95 456.203 435.723 462.736 438.246L508.051 455.493L514.955 406.446L483.424 385.023C478.457 381.664 472.506 380.069 466.525 380.494H466.497Z" fill="black"/>
<path d="M548.528 348.682L530.495 324.779C527.054 320.211 522.383 316.717 517.029 314.707C511.675 312.696 505.859 312.251 500.261 313.425L494.351 314.665C491.492 315.261 488.825 316.553 486.586 318.428C484.348 320.303 482.607 322.703 481.52 325.413C480.432 328.123 480.031 331.059 480.353 333.962C480.674 336.864 481.708 339.642 483.362 342.048L498.516 363.544L546.002 380.724L548.528 348.682Z" fill="#DA4E22"/>
<path d="M546.754 381.897L497.982 364.251L482.672 342.537C480.945 340.017 479.867 337.109 479.534 334.072C479.2 331.036 479.622 327.963 480.76 325.129C481.899 322.294 483.72 319.784 486.061 317.822C488.403 315.859 491.192 314.505 494.183 313.88L500.098 312.645C505.841 311.456 511.803 311.917 517.294 313.975C522.786 316.033 527.582 319.604 531.129 324.274L549.353 348.407L549.325 348.727L546.754 381.897ZM499.049 362.848L545.245 379.562L547.636 348.963L529.799 325.312C526.444 320.891 521.906 317.509 516.71 315.559C511.513 313.608 505.871 313.168 500.435 314.289L494.519 315.53C491.802 316.099 489.266 317.329 487.138 319.112C485.009 320.896 483.354 323.177 482.318 325.753C481.282 328.329 480.898 331.121 481.199 333.882C481.501 336.642 482.479 339.285 484.047 341.577L499.049 362.848Z" fill="black"/>
<path d="M509.504 425.847C529.692 425.847 546.058 409.481 546.058 389.293C546.058 369.105 529.692 352.739 509.504 352.739C489.316 352.739 472.95 369.105 472.95 389.293C472.95 409.481 489.316 425.847 509.504 425.847Z" fill="#F8F59C"/>
<path d="M509.487 426.673C503.403 426.67 497.412 425.184 492.034 422.342C486.655 419.5 482.051 415.389 478.621 410.365C475.191 405.341 473.038 399.555 472.35 393.511C471.662 387.467 472.459 381.346 474.673 375.679C476.886 370.013 480.448 364.972 485.051 360.994C489.654 357.016 495.157 354.221 501.085 352.852C507.012 351.483 513.184 351.58 519.065 353.137C524.946 354.693 530.358 357.66 534.832 361.782C540.372 366.88 544.242 373.532 545.938 380.867C547.634 388.201 547.076 395.877 544.337 402.89C541.598 409.902 536.806 415.924 530.588 420.167C524.37 424.411 517.015 426.678 509.487 426.673ZM509.515 353.599C501.193 353.602 493.134 356.513 486.731 361.827C480.328 367.142 475.982 374.527 474.447 382.706C472.911 390.885 474.281 399.343 478.32 406.619C482.359 413.894 488.813 419.53 496.566 422.552C504.32 425.574 512.886 425.792 520.783 423.168C528.68 420.545 535.412 415.244 539.816 408.183C544.22 401.122 546.018 392.744 544.9 384.498C543.782 376.252 539.818 368.656 533.693 363.022C527.107 356.95 518.473 353.585 509.515 353.599Z" fill="#191818"/>
<path d="M517.855 348.671L516.07 362.382C515.358 367.832 516.66 373.001 519.719 376.874L544.222 407.899L558.59 445.385C561.558 440.316 564.098 435.009 566.184 429.518C566.184 429.518 571.605 414.264 570.983 397.185C569.86 365.486 547.494 340.269 543.757 336.156C542.163 334.229 540.003 332.855 537.583 332.227C532.913 331.104 529.035 333.579 527.02 334.859C520.297 339.13 518.355 346.454 517.855 348.671Z" fill="#DA4E22"/>
<path d="M558.417 447.282L543.477 408.321L519.057 377.408C515.847 373.344 514.494 367.973 515.235 362.254L517.037 348.47C517.845 344.861 520.163 338.205 526.578 334.13C528.587 332.856 532.751 330.201 537.803 331.391C540.399 332.055 542.716 333.527 544.42 335.595C550.565 342.358 570.753 366.839 571.848 397.135C572.465 414.186 567.055 429.626 567.004 429.783C564.891 435.327 562.325 440.688 559.332 445.812L558.417 447.282ZM518.687 348.818L516.902 362.49C516.223 367.726 517.463 372.648 520.376 376.352L544.964 407.479L545.009 407.597L558.748 443.438C561.3 438.861 563.523 434.109 565.399 429.216C565.45 429.081 570.748 413.928 570.142 397.225C569.064 367.479 549.196 343.407 543.134 336.734C541.655 334.935 539.643 333.652 537.387 333.069C533.066 332.037 529.423 334.349 527.47 335.589C521.588 339.299 519.444 345.456 518.687 348.818Z" fill="black"/>
<path d="M508.118 456.727L480.393 443.914C474.715 441.281 470.298 436.524 468.093 430.666C465.889 424.808 466.073 418.319 468.606 412.596L474.37 399.587C477.59 392.323 483.442 386.548 490.747 383.424C498.053 380.3 506.271 380.059 513.747 382.749L546.962 394.732C553.591 397.13 559.191 401.74 562.819 407.785C566.446 413.83 567.878 420.94 566.875 427.918C565.372 435.06 561.978 441.666 557.047 447.046C544.285 460.712 526.117 459.954 522.884 459.797C517.829 459.573 512.843 458.537 508.118 456.727Z" fill="#DA4E22"/>
<path d="M524.956 460.695C524.182 460.695 523.48 460.695 522.868 460.656C517.716 460.426 512.635 459.364 507.821 457.513H507.765L480.057 444.677C474.194 441.933 469.636 437.008 467.353 430.951C465.071 424.894 465.245 418.185 467.838 412.254L473.597 399.245C476.921 391.8 482.932 385.884 490.429 382.68C497.927 379.477 506.357 379.221 514.034 381.964L547.249 393.946C554.053 396.425 559.799 401.165 563.527 407.374C567.255 413.582 568.738 420.882 567.729 428.053V428.115C566.195 435.407 562.727 442.151 557.688 447.641C547.002 459.051 532.449 460.695 524.956 460.695ZM508.428 455.981C513.067 457.758 517.962 458.777 522.924 459C529.238 459.269 545.15 458.596 556.431 446.518C561.255 441.257 564.575 434.796 566.045 427.812C566.995 421.029 565.589 414.126 562.06 408.256C558.532 402.386 553.095 397.905 546.659 395.563L513.445 383.575C506.169 380.975 498.18 381.217 491.075 384.253C483.97 387.29 478.273 392.896 475.123 399.952L469.359 412.967C466.944 418.492 466.783 424.743 468.91 430.386C471.037 436.029 475.285 440.617 480.747 443.173L508.428 455.981Z" fill="black"/>
<path d="M411.293 503.377L408.992 495.436C407.542 490.431 407.885 485.078 409.961 480.299C412.037 475.52 415.715 471.616 420.362 469.259C424.523 467.154 429.188 466.249 433.834 466.646C438.48 467.042 442.924 468.725 446.668 471.504C453.734 473.873 485.702 485.434 502.124 518.924C507.818 530.628 510.928 543.42 511.244 556.432C511.259 557.262 511.05 558.081 510.64 558.804C510.229 559.526 509.632 560.124 508.911 560.537C508.19 560.949 507.371 561.16 506.541 561.148C505.71 561.136 504.898 560.901 504.19 560.467L411.293 503.377Z" fill="#DA4E22"/>
<path d="M506.609 562.012C505.593 562.008 504.598 561.722 503.735 561.187L410.569 503.94L408.178 495.684C406.678 490.492 407.034 484.939 409.185 479.982C411.336 475.024 415.148 470.971 419.964 468.52C424.238 466.335 429.036 465.386 433.819 465.777C438.603 466.169 443.182 467.886 447.044 470.737C458.83 474.699 487.51 487.226 502.86 518.543C508.629 530.348 511.771 543.263 512.07 556.399C512.105 557.383 511.87 558.358 511.389 559.217C510.908 560.076 510.2 560.787 509.342 561.271C508.512 561.753 507.569 562.008 506.609 562.012ZM412.011 502.834L504.616 559.75C505.197 560.11 505.864 560.306 506.547 560.318C507.229 560.331 507.903 560.159 508.496 559.82C509.089 559.482 509.58 558.989 509.916 558.395C510.253 557.801 510.423 557.127 510.408 556.444C510.116 543.548 507.037 530.867 501.384 519.273C486.23 488.416 457.887 476.13 446.382 472.257L446.253 472.213L446.146 472.134C442.532 469.445 438.237 467.821 433.748 467.446C429.259 467.071 424.754 467.96 420.744 470.013C416.275 472.282 412.736 476.04 410.739 480.637C408.741 485.235 408.409 490.385 409.8 495.201L412.011 502.834Z" fill="black"/>
<path d="M385.138 581.278L394.747 588.434C397.612 590.561 400.703 592.368 403.962 593.822C407.872 595.546 411.89 597.014 415.99 598.217C424.863 600.821 446.751 607.23 471.092 598.273C489.759 591.403 501.36 578.629 507.411 570.289C507.828 569.732 508.089 569.075 508.169 568.383C508.248 567.692 508.143 566.992 507.863 566.355C507.583 565.718 507.139 565.167 506.577 564.758C506.014 564.348 505.353 564.096 504.66 564.026L398.978 552.043C395.243 551.62 391.467 552.348 388.156 554.13C384.846 555.913 382.16 558.665 380.457 562.017C378.842 565.264 378.425 568.977 379.282 572.502C380.138 576.026 382.212 579.135 385.138 581.278Z" fill="#DA4E22"/>
<path d="M444.782 603.728C431.874 603.728 421.474 600.675 415.766 599.002C411.63 597.793 407.578 596.312 403.637 594.569C400.319 593.091 397.174 591.252 394.259 589.085L384.645 581.952C381.551 579.697 379.359 576.417 378.457 572.696C377.556 568.976 378.004 565.056 379.723 561.635C381.513 558.139 384.323 555.27 387.781 553.407C391.239 551.545 395.182 550.778 399.086 551.207L504.751 563.178C505.588 563.268 506.386 563.577 507.066 564.073C507.746 564.569 508.283 565.235 508.624 566.004C508.966 566.773 509.098 567.619 509.01 568.456C508.921 569.293 508.613 570.091 508.118 570.772C501.451 579.965 489.67 592.329 471.408 599.053C462.879 602.175 453.864 603.758 444.782 603.728ZM385.638 580.577L395.264 587.71C398.075 589.805 401.112 591.58 404.317 593.003C408.189 594.733 412.171 596.206 416.237 597.414C425.363 600.091 446.735 606.349 470.818 597.487C488.677 590.915 500.211 578.803 506.738 569.801C507.062 569.359 507.264 568.839 507.322 568.294C507.38 567.749 507.293 567.198 507.069 566.697C506.853 566.198 506.507 565.765 506.068 565.444C505.629 565.122 505.113 564.923 504.571 564.868L398.884 552.879C395.318 552.489 391.719 553.193 388.563 554.897C385.407 556.601 382.845 559.225 381.216 562.421C379.69 565.482 379.297 568.984 380.106 572.308C380.916 575.631 382.876 578.56 385.638 580.577Z" fill="black"/>
<path d="M377.426 524.453C378.626 529.481 380.898 534.19 384.087 538.259C387.276 542.327 391.306 545.659 395.902 548.025L428.129 564.61C430.29 565.457 433.45 566.636 437.317 567.876C445.55 570.552 454 572.505 462.573 573.713C477.878 575.531 494.765 570.705 504.351 567.309C505.276 566.981 506.127 566.474 506.855 565.817C507.583 565.159 508.175 564.365 508.596 563.478C509.016 562.592 509.258 561.631 509.307 560.652C509.356 559.672 509.211 558.692 508.881 557.768C503.145 541.89 494.692 532.748 489.928 528.325C481.127 520.159 470.447 514.709 461.91 510.365C456.506 507.606 450.963 505.128 445.303 502.94L417.858 495.358C408.78 492.866 399.086 494.043 390.868 498.635L388.112 500.173C383.934 502.509 380.631 506.142 378.702 510.523C376.774 514.904 376.326 519.794 377.426 524.453Z" fill="#DA4E22"/>
<path d="M469.668 574.964C467.273 574.971 464.88 574.836 462.501 574.56C457.281 573.937 447.482 572.029 437.059 568.69C433.95 567.691 430.841 566.585 427.821 565.406L427.743 565.373L395.516 548.782C390.81 546.362 386.684 542.952 383.421 538.786C380.158 534.62 377.836 529.797 376.613 524.649C375.47 519.806 375.934 514.722 377.934 510.166C379.935 505.61 383.364 501.828 387.704 499.393L390.459 497.855C398.875 493.134 408.818 491.939 418.112 494.533L445.613 502.137C451.3 504.338 456.871 506.828 462.304 509.596C470.914 513.991 481.622 519.452 490.507 527.696C498.925 535.486 505.357 545.505 509.679 557.47C510.048 558.499 510.21 559.591 510.155 560.683C510.101 561.775 509.832 562.845 509.362 563.833C508.893 564.82 508.233 565.705 507.42 566.436C506.608 567.168 505.659 567.731 504.627 568.095C495.378 571.406 482.391 574.964 469.668 574.964ZM428.472 563.852C431.447 565.019 434.511 566.097 437.576 567.084C447.88 570.39 457.55 572.276 462.703 572.888C477.228 574.611 493.229 570.379 504.1 566.523C504.921 566.233 505.677 565.784 506.324 565.201C506.97 564.619 507.496 563.914 507.869 563.127C508.243 562.341 508.457 561.488 508.5 560.618C508.542 559.749 508.413 558.879 508.118 558.06C503.887 546.341 497.584 536.553 489.384 528.942C480.674 520.86 470.077 515.472 461.563 511.112C456.194 508.375 450.688 505.913 445.068 503.737L417.663 496.166C408.796 493.698 399.313 494.838 391.284 499.337L388.534 500.875C384.513 503.131 381.336 506.634 379.481 510.854C377.626 515.075 377.195 519.785 378.252 524.273C379.422 529.182 381.64 533.78 384.754 537.752C387.867 541.724 391.803 544.975 396.291 547.284L428.472 563.852Z" fill="black"/>
<path d="M582.645 480.608C581.811 480.593 580.983 480.762 580.221 481.104C579.459 481.445 578.782 481.95 578.237 482.583C577.693 483.216 577.295 483.961 577.071 484.765C576.847 485.57 576.804 486.414 576.943 487.237C579.188 500.527 584.902 529.846 592.849 537.255C603.215 546.919 619.873 602.567 666.203 590.831C698.015 582.771 688.238 549.568 678.977 529.532C673.848 518.396 665.704 508.918 655.467 502.171C645.297 495.532 634.234 490.373 622.612 486.849C609.644 482.924 596.193 480.823 582.645 480.608Z" fill="#DA4E22"/>
<path d="M653.866 593.283C625.686 593.283 610.241 566.848 600.548 550.236C597.344 544.747 594.577 540.004 592.287 537.888C584.379 530.519 578.767 503.091 576.123 487.376C575.962 486.431 576.011 485.462 576.268 484.537C576.524 483.613 576.982 482.757 577.607 482.03C578.233 481.303 579.011 480.723 579.887 480.332C580.763 479.941 581.714 479.747 582.673 479.766C596.304 479.978 609.84 482.094 622.886 486.052C634.578 489.599 645.706 494.79 655.937 501.469C666.311 508.296 674.561 517.896 679.751 529.178C686.301 543.344 692.71 563.161 686.059 577.108C682.619 584.326 676.013 589.22 666.416 591.644C662.317 592.711 658.102 593.262 653.866 593.283ZM582.538 481.444C581.834 481.446 581.14 481.6 580.502 481.898C579.864 482.195 579.299 482.628 578.846 483.165C578.392 483.703 578.061 484.334 577.876 485.012C577.691 485.691 577.656 486.402 577.773 487.096C579.872 499.561 585.597 529.346 593.421 536.637C595.89 538.938 598.584 543.551 601.996 549.388C612.812 567.909 630.917 598.901 665.978 590.017C675.053 587.715 681.289 583.13 684.499 576.384C690.869 563.026 684.578 543.725 678.185 529.885C673.127 518.888 665.084 509.531 654.972 502.878C644.874 496.286 633.891 491.161 622.353 487.657C609.455 483.748 596.075 481.657 582.6 481.444H582.538Z" fill="black"/>
<path d="M768.889 652.978C770.5 652.136 753.663 488.814 706.518 425.955C659.374 363.096 648.149 352.993 648.149 352.993C648.149 352.993 647.026 400.699 667.231 434.373C687.436 468.048 711.008 524.172 717.743 536.52C724.478 548.867 749.173 661.677 749.173 661.677L768.889 652.978Z" fill="#8BB174"/>
<path d="M748.571 662.861L748.352 661.856C748.1 660.734 723.601 549.046 717.001 536.923C714.823 532.933 710.906 524.408 705.945 513.615C695.691 491.317 680.2 457.625 666.506 434.805C646.408 401.31 647.306 353.453 647.306 352.97L647.351 351.141L648.709 352.37C649.169 352.779 660.534 363.241 707.191 425.449C731.621 458.001 747.449 516.932 756.417 560.63C766.385 609.172 770.353 650.429 769.769 653.062C769.744 653.203 769.687 653.338 769.604 653.455C769.52 653.573 769.412 653.67 769.287 653.741H769.23L748.571 662.861ZM648.99 355.03C649.068 364.453 650.454 404.762 667.96 433.941C681.693 456.834 697.212 490.582 707.477 512.908C712.427 523.672 716.339 532.175 718.488 536.115C724.937 547.946 747.157 648.56 749.778 660.492L768.158 652.416C768.428 647.859 764.19 606.854 754.756 560.933C745.815 517.437 730.061 458.787 705.844 426.493C667.993 375.992 653.221 359.475 648.99 355.03Z" fill="black"/>
</svg>
