<svg width="1840" height="1380" viewBox="0 0 1840 1380" fill="none" xmlns="http://www.w3.org/2000/svg"><path d="M889.932 771.922c-24.554-40.657-67.141-54.149-81.133-57.921a67.965 67.965 0 0 1-3.368-32.928c3.171-21.782 8.346-57.185 8.851-59.772l-105.8 41.156-107.607 36.155c2.043 1.684 28.691 25.542 45.073 40.236a67.933 67.933 0 0 1 18.521 27.439c-8.328 11.859-32.395 49.496-25.211 96.444 6.786 44.338 37.694 72.4 58.274 91.14a222.487 222.487 0 0 0 49.39 33.922 68.218 68.218 0 0 0 55.243 11c3.233-.752 9.451-2.346 15.277-4.142 2.57-.797 5.837-1.813 9.575-3.126l.617-.23.618-.219c3.709-1.386 6.869-2.694 9.355-3.732 5.613-2.352 11.422-5.113 14.385-6.606a68.199 68.199 0 0 0 35.358-43.828 222.386 222.386 0 0 0 16.192-57.679c3.828-27.54 9.575-68.909-13.61-107.309z" fill="#D6B49A"/><path d="M786.668 1001.42a69.169 69.169 0 0 1-40.202-12.909 223.487 223.487 0 0 1-49.507-34.023c-20.592-18.717-51.707-46.998-58.537-91.634-6.618-43.249 12.757-79.012 25.098-96.697a67.302 67.302 0 0 0-18.133-26.687c-15.945-14.306-43.003-38.551-45.046-40.207a.865.865 0 0 1-.297-.803.852.852 0 0 1 .561-.651l107.613-36.161 105.777-41.128a.844.844 0 0 1 .84.14.838.838 0 0 1 .283.803c-.5 2.582-5.753 38.53-8.84 59.733a67.35 67.35 0 0 0 3.166 32.109c20.805 5.674 58.588 20.727 81.206 58.184 23.342 38.653 17.556 80.303 13.728 107.866a223.465 223.465 0 0 1-16.226 57.836 69.084 69.084 0 0 1-35.801 44.304 248.126 248.126 0 0 1-14.447 6.629c-2.587 1.083-5.646 2.346-9.255 3.698l-.129.062-1.234.443-.13.04c-3.653 1.274-6.807 2.245-9.485 3.086-5.696 1.763-11.819 3.368-15.333 4.165a69.337 69.337 0 0 1-15.67 1.802zM602.547 698.937c5.713 4.995 29.443 26.261 43.968 39.287A69.035 69.035 0 0 1 665.266 766a.846.846 0 0 1-.101.769c-12.185 17.354-31.643 52.875-25.071 95.833 6.735 44.052 37.603 72.091 58.01 90.646a221.833 221.833 0 0 0 49.188 33.792l.112.068a67.394 67.394 0 0 0 54.558 10.865 242.492 242.492 0 0 0 15.227-4.13 252.454 252.454 0 0 0 9.541-3.11l.112-.033.999-.359.107-.051a239.333 239.333 0 0 0 9.322-3.721 246.938 246.938 0 0 0 14.334-6.578 67.37 67.37 0 0 0 34.943-43.288c.013-.042.028-.084.045-.124a221.552 221.552 0 0 0 16.13-57.454c3.794-27.327 9.541-68.624-13.503-106.766-22.467-37.205-60.171-52.033-80.64-57.544a.85.85 0 0 1-.561-.528 69.02 69.02 0 0 1-3.395-33.337c2.806-19.302 7.414-50.832 8.609-58.325l-104.436 40.612-106.249 35.7z" fill="#000"/><path d="M713.379 676.026c58.935-21.346 104.06-45.969 100.79-54.998-3.27-9.029-53.697.956-112.632 22.302-58.935 21.345-104.06 45.969-100.79 54.998 3.27 9.028 53.698-.957 112.632-22.302z" fill="#020202"/><path d="M611.578 702.457c-6.072 0-10.579-1.039-11.606-3.867-2.245-6.174 13.7-16.394 27.456-23.904 19.082-10.405 45.298-21.832 73.837-32.176 28.539-10.343 56.001-18.358 77.311-22.579 15.378-3.042 34.169-5.382 36.397.775 2.228 6.157-13.7 16.399-27.456 23.909-19.083 10.405-45.293 21.832-73.837 32.17-28.545 10.338-55.996 18.359-77.312 22.585-8.317 1.644-17.634 3.087-24.79 3.087zM803.411 618.5c-5.124 0-12.852.775-24.504 3.081-21.237 4.21-48.603 12.202-77.07 22.512-28.466 10.31-54.603 21.703-73.612 32.069-26.805 14.626-27.198 20.43-26.682 21.855.517 1.426 4.535 5.613 34.489-.303 21.231-4.204 48.603-12.201 77.064-22.511 28.461-10.31 54.603-21.698 73.607-32.07 26.799-14.626 27.192-20.423 26.676-21.855-.303-.853-1.925-2.778-9.968-2.778z" fill="#000"/><path d="m825.782 1013.3-.051 46.48c0 3.47 3.738 6.3 8.352 6.3h.168c4.614 0 8.363-2.81 8.363-6.29l.05-45.96c0-.3-3.9-.56-8.637-.56h-8.245" fill="#818181"/><path d="M834.246 1066.92h-.18c-5.051 0-9.193-3.21-9.193-7.14l.051-47.33h9.086c2.301 0 4.49.06 6.174.16 2.312.15 3.334.25 3.334 1.22l-.051 45.97a6.412 6.412 0 0 1-2.806 5.12 10.686 10.686 0 0 1-6.415 2zm-7.639-52.75-.05 45.64c0 3 3.367 5.45 7.509 5.46h.18a8.987 8.987 0 0 0 5.393-1.69 4.827 4.827 0 0 0 1.51-1.63 4.78 4.78 0 0 0 .606-2.14l.051-45.35a71.53 71.53 0 0 0-7.745-.32h-7.454v.03z" fill="#191818"/><path d="m1269.16 1013.3-.05 46.48c0 3.47 3.74 6.3 8.35 6.3h.17c4.62 0 8.37-2.81 8.37-6.29l.05-45.96c0-.3-3.93-.56-8.64-.56h-8.25" fill="#818181"/><path d="M1277.63 1066.92h-.18c-5.05 0-9.2-3.21-9.2-7.14l.06-47.33h9.08c2.33 0 4.49.06 6.15.16 2.31.15 3.33.25 3.33 1.22l-.05 45.97a6.39 6.39 0 0 1-.79 2.9c-.48.89-1.18 1.65-2.02 2.22a10.58 10.58 0 0 1-6.38 2zm-7.64-52.75-.05 45.64c0 3 3.37 5.45 7.51 5.46h.18c1.93.03 3.82-.56 5.39-1.69.63-.42 1.14-.98 1.51-1.63.37-.66.58-1.39.61-2.14l.05-45.35c-2.58-.25-5.16-.35-7.75-.32h-7.45v.03z" fill="#191818"/><path d="M1312.1 1001.79H711.428a6.041 6.041 0 0 0-6.033 6.03 6.037 6.037 0 0 0 6.033 6.04h594.782c.8 0 1.59-.16 2.34-.48.74-.31 1.41-.77 1.97-1.34.56-.58 1-1.26 1.3-2.01.29-.74.43-1.54.41-2.35l-.13-5.89z" fill="#DCDBDA"/><path d="M1306.21 1014.7H711.429a6.914 6.914 0 0 1-4.862-2.01 6.885 6.885 0 0 1 0-9.73 6.872 6.872 0 0 1 4.862-2.01h601.511l.15 6.73c.02.92-.14 1.83-.48 2.68a6.85 6.85 0 0 1-3.74 3.81c-.84.35-1.75.53-2.66.53zm-594.781-12.07c-1.377 0-2.697.55-3.671 1.52a5.211 5.211 0 0 0-1.521 3.67c0 1.38.547 2.7 1.521 3.67a5.165 5.165 0 0 0 3.671 1.52h594.781a5.15 5.15 0 0 0 4.82-3.28c.26-.65.38-1.33.36-2.02l-.12-5.06-599.841-.02z" fill="#000"/><path d="M681.397 688.056s-21.676 82.783-18.061 117.462c2.155 20.699 1.482 55.002.561 79.36a29.405 29.405 0 0 1-29.754 28.316 29.408 29.408 0 0 1-29.042-29.046c-.151-12.347-1.56-21.742-.28-28.735 7.672-41.987-4.081-42.655 2.851-80.965a857.962 857.962 0 0 1 3.682-12.51c6.633-21.889 13.902-42.234 21.607-62.079 8.273-.781 17.511-3.239 27.462-5.461 7.65-1.706 14.648-4.255 20.974-6.342z" fill="#4EA7F1"/><path d="M634.532 914.028a30.36 30.36 0 0 1-30.251-29.869c-.051-4.366-.27-8.419-.46-12.033-.348-6.578-.652-12.263.19-16.837 3.929-21.389 2.745-32.059 1.617-42.374-1.123-10.176-2.167-19.784 1.234-38.591v-.079a884.879 884.879 0 0 1 3.688-12.527c6.033-19.918 12.908-39.663 21.63-62.141l.191-.482.516-.051c6.432-.6 13.509-2.245 21.002-3.985 2.082-.482 4.198-.976 6.353-1.453a169.289 169.289 0 0 0 17.315-5.13c1.208-.412 2.396-.808 3.564-1.19l1.464-.488-.387 1.498c-.219.825-21.602 83.025-18.044 117.165 2.144 20.604 1.504 54.593.589 79.473a30.14 30.14 0 0 1-30.211 29.094zm-26.019-139.39c-3.368 18.521-2.313 28.023-1.213 38.069 1.123 10.434 2.324 21.226-1.633 42.857-.803 4.405-.505 10.001-.163 16.472.191 3.609.41 7.7.46 12.101a28.57 28.57 0 0 0 57.113.707c.914-24.83 1.554-58.729-.562-79.237-3.317-31.867 14.806-104.879 17.708-116.267l-2.116.679a170.455 170.455 0 0 1-17.483 5.175c-2.144.483-4.258.967-6.342 1.454-7.347 1.683-14.301 3.322-20.704 3.973-8.621 22.231-15.423 41.802-21.395 61.535a881.705 881.705 0 0 0-3.67 12.482z" fill="#000"/><path d="M691.516 864.774c-5.006 0-8.671-7.257-10.102-10.103-9.873-19.548 5.051-53.649 10.843-65.755 5.534 12.46 19.262 46.28 9.395 65.755-1.493 2.891-5.146 10.103-10.136 10.103z" fill="#4EA7F1"/><path d="M691.516 865.616c-5.528 0-9.271-7.414-10.865-10.58-9.328-18.465 2.806-49.591 10.826-66.496l.786-1.684.746 1.684c7.515 16.91 18.723 48.026 9.373 66.479-1.6 3.183-5.354 10.597-10.866 10.597zm.691-74.685c-7.858 16.944-18.768 46.106-10.063 63.348 1.335 2.637 4.877 9.653 9.367 9.653 4.49 0 8.026-7.016 9.367-9.653 8.727-17.247-1.308-46.398-8.671-63.348z" fill="#000"/><path d="M1362.77 777.573c-62.16-53.784-139.19-41.829-150.3-39.921-106.93 17.067-193.41 56.124-206.65 105.677a307.279 307.279 0 0 0-6.57 31.053c-26.462-4.49-70.879-6.69-96.747 21.451l-.129.146c-7.346 8.037-2.194 21.024 8.638 22.152a422.218 422.218 0 0 0 23.073 1.751c18.246.887 57.297 29.185 81.755 47.992a87.626 87.626 0 0 0 59.89 29.707h.37c6.78 4.549 24.69 15.219 49.48 14.829a85.658 85.658 0 0 0 37.58-9.39l90.01-1.23c41.66 12.09 75.12 10.83 95.51 8.28 29.3-3.67 40.3-10.985 45.23-15.032 17-14.031 23.19-35.886 27.57-57.769 8.99-44.961-5.49-113.64-58.71-159.696z" fill="#F8F3ED"/><path d="M1124.31 1013.3c-22.67 0-39.96-9.19-48.45-14.843h-.19a88.452 88.452 0 0 1-60.41-29.937c-40.412-31.042-67.744-47.144-81.214-47.767a424.439 424.439 0 0 1-23.123-1.757 14.243 14.243 0 0 1-11.887-9.159 13.75 13.75 0 0 1 2.716-14.402l.129-.14c11.579-12.594 27.945-20.407 48.66-23.236 17.892-2.441 35.835-.634 48.014 1.381a305.639 305.639 0 0 1 6.445-30.307c6.38-23.864 30.11-46.533 68.64-65.553 36.41-17.96 84.37-32.064 138.7-40.741 7.99-1.369 29.46-4.215 56.23-.926 36.6 4.49 68.47 18.313 94.75 41.044a178.46 178.46 0 0 1 52.94 80.634c8.74 27.282 10.89 55.647 6.05 79.859-4.1 20.457-9.96 43.513-27.87 58.251-9.17 7.539-24.1 12.519-45.66 15.219-31.13 3.9-63.34 1.12-95.72-8.27l-89.7 1.23a86.978 86.978 0 0 1-37.76 9.39c-.43.03-.87.03-1.29.03zm-47.99-16.538.24.146c8.42 5.612 25.98 15.062 49.01 14.692a85.437 85.437 0 0 0 37.21-9.3l.17-.09 90.36-1.23.12.03c32.21 9.35 64.23 12.12 95.17 8.25 21.23-2.65 35.89-7.51 44.8-14.844 17.48-14.39 23.25-37.115 27.28-57.286 8.9-44.478-5.61-113.169-58.43-158.888-60.06-51.982-135.17-42.217-149.6-39.73-54.18 8.648-101.98 22.685-138.24 40.589-38.07 18.801-61.5 41.094-67.76 64.475a305.644 305.644 0 0 0-6.53 30.975l-.139.842-.842-.146c-24.695-4.203-70.038-7.038-95.973 21.187l-.129.141a12.065 12.065 0 0 0-2.385 12.672 12.57 12.57 0 0 0 10.439 8.077c7.515.78 15.26 1.369 23.011 1.745 13.829.674 41.493 16.877 82.218 48.166l.13.112a86.804 86.804 0 0 0 59.27 29.426l.6-.011z" fill="#000"/><path d="M998.645 873.546c-5.265-15.462-13.279-44.776-13.964-72.484a220.995 220.995 0 0 1 7.044-61.058 187.789 187.789 0 0 1-18.308-97.51 9.575 9.575 0 0 1 5.259-7.724 9.578 9.578 0 0 1 9.333.428l74.141 46.083c27.59-7.496 56.57-8.3 84.54-2.346l67.24-55.002a7.735 7.735 0 0 1 3.67-1.65 7.734 7.734 0 0 1 4 .42 7.71 7.71 0 0 1 3.24 2.377 7.72 7.72 0 0 1 1.6 3.686 256.158 256.158 0 0 1-9.3 113.59 105.894 105.894 0 0 1 4.01 48.974" fill="#F8F3ED"/><path d="M997.848 873.815c-3.087-9.064-13.223-41.1-14.031-72.731a221.621 221.621 0 0 1 6.993-60.991 188.603 188.603 0 0 1-18.251-97.656 10.262 10.262 0 0 1 5.663-8.419 10.406 10.406 0 0 1 10.237.455l73.831 45.893a180.603 180.603 0 0 1 84.19-2.346l66.93-54.761a8.546 8.546 0 0 1 8.5-1.366 8.51 8.51 0 0 1 3.59 2.64 8.498 8.498 0 0 1 1.78 4.092 256.819 256.819 0 0 1-9.25 113.708 106.698 106.698 0 0 1 3.93 49.103l-1.69-.258a105.152 105.152 0 0 0-3.97-48.581l-.09-.259.09-.258a255.235 255.235 0 0 0 9.26-113.219 6.867 6.867 0 0 0-1.43-3.281 6.84 6.84 0 0 0-2.89-2.114 6.857 6.857 0 0 0-6.82 1.096l-67.56 55.276-.39-.084a178.878 178.878 0 0 0-84.15 2.335l-.35.095-74.449-46.28a8.737 8.737 0 0 0-8.592-.381 8.602 8.602 0 0 0-4.743 7.021 186.901 186.901 0 0 0 18.224 97.095l.135.28-.079.304a219.984 219.984 0 0 0-7.016 60.821c.781 31.396 10.849 63.23 13.919 72.238l-1.521.533z" fill="#000"/><path d="M614.917 973.166h-.163s-4.77-.061-9.227-4.338c-3.508-3.367-.477-18.201 10.103-35.403 9.036 17.477 11.269 32.064 7.947 35.403-4.266 4.316-8.66 4.338-8.66 4.338z" fill="#4EA7F1"/><path d="M614.923 974.008h-.169c-.213 0-5.158-.118-9.799-4.568-4.327-4.148.151-20.503 9.979-36.481l.78-1.269.685 1.325c8.418 16.315 11.859 32.294 7.801 36.385-4.462 4.49-9.047 4.586-9.266 4.586l-.011.022zm.651-38.86c-10.327 17.258-12.202 30.447-9.469 33.074 4.17 4.001 8.61 4.102 8.655 4.102h.151c.085 0 4.148-.123 8.082-4.085 2.604-2.649 1.403-15.502-7.419-33.091z" fill="#000"/><path d="M1423.79 908.624c8.31 3.828 21.46 11.455 30.3 25.817 20.44 33.198 5.21 81.809-23.21 107.379-20.64 18.57-44.39 21.49-63.08 23.9-10.96 1.4-61.74 7.73-96.61-23.9-7.06-6.39-23.58-21.39-21.14-39.92 1.26-9.538 7.74-22.273 18.78-25.815 21.17-6.813 33.84 28.155 73.58 32.455 5.72.62 30.24 2.57 49.39-12.906 3.13-2.537 8.31-7.297 14.59-17.96 6.45-10.961 17.36-33.68 17.4-69.05z" fill="#333"/><path d="M1345.82 1068c-30.52 0-56.72-8.79-75.21-25.55-7.15-6.49-23.91-21.69-21.4-40.66 1.39-10.529 8.49-23.011 19.36-26.524 10.66-3.429 18.96 3.092 29.49 11.337 10.75 8.419 24.14 18.887 44.43 21.087 8.76.95 31.05 1.6 48.77-12.73 3.24-2.615 8.25-7.296 14.4-17.73 11.27-19.133 17.25-42.856 17.28-68.606v-1.313l1.2.561c13.46 6.218 23.81 15.013 30.67 26.137 9.63 15.642 12.05 35.953 6.81 57.191-4.85 19.68-15.85 38.36-30.19 51.26-20.66 18.59-44.18 21.61-63.08 24.04l-.45.06c-7.32.95-14.7 1.43-22.08 1.44zm-71.57-91.96c-1.75.004-3.49.284-5.16.831-10.2 3.283-16.88 15.154-18.21 25.139-2.39 18.09 13.91 32.88 20.87 39.19 22.45 20.34 56.5 28.75 95.97 23.68l.45-.06c18.67-2.4 41.9-5.38 62.17-23.62 27.5-24.76 43.35-73.382 23.06-106.316-6.47-10.512-16.14-18.897-28.75-24.936-.23 25.543-6.27 49.076-17.51 68.135-6.29 10.664-11.45 15.491-14.79 18.19-18.21 14.727-41.04 14.027-50 13.087-20.77-2.24-34.38-12.907-45.29-21.427-8.33-6.51-15.21-11.893-22.81-11.893zm-110.88 27.71a.85.85 0 0 1-.53-.18.829.829 0 0 1-.29-.48.811.811 0 0 1 .07-.55.8.8 0 0 1 .4-.39c.38-.18 38.46-18.207 47.24-52.196a.882.882 0 0 1 .13-.313.888.888 0 0 1 .25-.235.85.85 0 0 1 .66-.102c.11.029.21.08.3.15.09.07.17.158.22.258.06.1.09.211.1.325.02.114 0 .229-.03.338-4.69 18.19-17.55 31.721-27.5 39.848a109.049 109.049 0 0 1-20.67 13.437.73.73 0 0 1-.35.09z" fill="#191818"/><path d="m1146.72 678.946 67.24-55.002a7.683 7.683 0 0 1 3.67-1.65 7.73 7.73 0 0 1 7.24 2.796 7.725 7.725 0 0 1 1.6 3.686c1.82 12.673 2.32 25.515 2.44 45.461.13 19.947-6.89 38.232-11.66 68.259a159.846 159.846 0 0 0-70.53-63.55z" fill="#333"/><path d="m1217.71 744.92-1.19-1.992a158.96 158.96 0 0 0-70.15-63.219l-1.22-.561 68.28-55.872a8.534 8.534 0 0 1 8.5-1.366 8.485 8.485 0 0 1 3.6 2.639 8.597 8.597 0 0 1 1.78 4.093c1.89 13.217 2.33 26.726 2.45 45.601.08 12.218-2.55 24.01-5.61 37.653-1.98 8.879-4.22 18.942-6.09 30.734l-.35 2.29zm-69.42-66.171a160.657 160.657 0 0 1 68.47 61.355c1.8-10.871 3.89-20.238 5.74-28.572 3.14-14.104 5.61-25.256 5.55-37.278-.12-18.802-.57-32.255-2.44-45.377a6.867 6.867 0 0 0-1.43-3.28 6.868 6.868 0 0 0-6.45-2.488c-1.2.193-2.32.7-3.26 1.469l-66.18 54.171zm-70.23 320.516a.848.848 0 0 1-.56-.208c-1.57-1.37-5.24-5.141-5.32-10.54-.07-4.754 2.65-8.06 3.54-9.149 4.55-5.539 11.26-6.044 19.05-6.633 4.39-.332 9.37-.708 14.5-2.066 9.04-2.391 17.6-7.605 25.44-15.496a.85.85 0 0 1 .59-.226.87.87 0 0 1 .58.247c.15.154.24.362.24.58.01.218-.07.43-.22.589-8.05 8.104-16.84 13.47-26.2 15.934-5.28 1.397-10.34 1.779-14.8 2.116-7.71.561-13.79 1.044-17.88 6.022-.79.971-3.21 3.929-3.16 8.059.07 4.715 3.37 8.071 4.75 9.294.17.148.27.356.28.579a.805.805 0 0 1-.2.611.923.923 0 0 1-.28.211.864.864 0 0 1-.35.076z" fill="#191818"/><path d="M1102.76 827.244c47.42 0 85.87-29.399 85.87-65.665 0-36.266-38.45-65.666-85.87-65.666-47.43 0-85.88 29.4-85.88 65.666s38.45 65.665 85.88 65.665z" fill="#333"/><path d="M1102.76 828.085c-47.82 0-86.72-29.836-86.72-66.507 0-36.672 38.9-66.508 86.72-66.508 47.81 0 86.71 29.836 86.71 66.508 0 36.671-38.9 66.507-86.71 66.507zm0-131.331c-46.87 0-85.03 29.078-85.03 64.824 0 35.745 38.16 64.823 85.03 64.823 46.86 0 85.02-29.078 85.02-64.823 0-35.746-38.16-64.824-85.02-64.824z" fill="#191818"/><path d="M1048.03 775.048c9.77 0 17.68-7.915 17.68-17.679s-7.91-17.68-17.68-17.68c-9.76 0-17.67 7.916-17.67 17.68s7.91 17.679 17.67 17.679z" fill="#F8F59C"/><path d="M1048.03 775.89c-3.66 0-7.24-1.087-10.29-3.122a18.604 18.604 0 0 1-6.82-8.312 18.49 18.49 0 0 1-1.05-10.701 18.496 18.496 0 0 1 5.07-9.483 18.517 18.517 0 0 1 28.49 2.807 18.492 18.492 0 0 1 3.13 10.29c0 4.912-1.96 9.623-5.43 13.096a18.512 18.512 0 0 1-13.1 5.425zm0-35.359c-3.33 0-6.58.988-9.35 2.838a16.8 16.8 0 0 0-6.2 7.556 16.789 16.789 0 0 0-.96 9.728 16.798 16.798 0 0 0 4.61 8.621 16.835 16.835 0 0 0 18.35 3.65 16.851 16.851 0 0 0 10.39-15.555c0-4.466-1.77-8.748-4.93-11.906a16.842 16.842 0 0 0-11.91-4.932z" fill="#191818"/><path d="M1226.23 629.125s-39.29 53.318-43.22 65.665c-2.94 9.233 10.45 4.659 17.4 1.763a1.608 1.608 0 0 1 1.78.378c.23.236.38.534.43.855.05.321 0 .65-.14.944l-4.66 9.839c-.29.631-.4 1.337-.3 2.028.1.691.4 1.339.86 1.861a3.548 3.548 0 0 0 3.79 1.016l5.57-1.852a1.604 1.604 0 0 1 1.69.431c.21.226.35.509.4.814.06.305.02.619-.1.905l-2.01 9.642 9.54 19.082a256.742 256.742 0 0 0 8.98-113.371h-.01z" fill="#F3D2C9"/><path d="m1217.43 744.741-10.61-21.215 2.13-10.102c.05-.138.07-.288.05-.435a.82.82 0 0 0-.2-.39.758.758 0 0 0-.38-.224.76.76 0 0 0-.43.016l-5.56 1.858a4.415 4.415 0 0 1-4.7-1.255 4.418 4.418 0 0 1-.68-4.812l4.66-9.839a.79.79 0 0 0 .07-.454.796.796 0 0 0-.21-.41.715.715 0 0 0-.4-.225.746.746 0 0 0-.45.045c-9.42 3.929-15.42 4.816-17.83 2.616-1.23-1.123-1.46-2.953-.68-5.405 3.93-12.348 41.73-63.729 43.34-65.913l1.22-1.65.29 2.026a257.537 257.537 0 0 1-8.98 113.748l-.65 2.02zm-8.84-21.439 8.47 16.938a255.915 255.915 0 0 0 8.62-108.949c-6.66 9.126-38.41 52.897-41.86 63.752-.57 1.779-.5 3.008.21 3.659 1.77 1.622 7.77.528 16.04-2.929a2.462 2.462 0 0 1 3.37 1.882c.08.489.01.992-.21 1.44l-4.65 9.833c-.23.482-.31 1.02-.24 1.548.08.528.3 1.022.66 1.421.35.4.81.686 1.33.825a2.7 2.7 0 0 0 1.56-.045l5.56-1.852c.44-.147.92-.167 1.37-.057.45.11.86.346 1.18.68.32.333.54.751.64 1.205.09.454.05.926-.11 1.36l-1.94 9.289z" fill="#000"/><path d="M1061.78 681.32c-24.61-15.26-50.14-31.485-74.758-46.745-5.091-3.155-13.28.909-13.352 6.897-.152 12.802-2.245 26.996 1.683 46.583 2.116 10.574 3.059 16.041 5.197 23.292a176.942 176.942 0 0 0 11.079 28.343 111.768 111.768 0 0 1 10.101-16.276c3.23-4.327 14.91-19.318 35.92-31.43a124.985 124.985 0 0 1 24.13-10.664z" fill="#333"/><path d="m991.618 741.569-.741-1.509a178.54 178.54 0 0 1-11.135-28.472c-1.801-6.112-2.806-11.073-4.265-18.577-.292-1.482-.606-3.07-.949-4.793-3.036-15.154-2.492-27.125-2.015-37.665.146-3.166.281-6.174.315-9.092.033-2.919 1.88-5.77 4.939-7.448 3.255-1.791 6.97-1.847 9.698-.152 12.308 7.622 25.045 15.625 37.375 23.365 12.32 7.739 25.07 15.748 37.39 23.381l1.55.96-1.74.561a124.117 124.117 0 0 0-23.97 10.591c-18.89 10.894-30.46 24.223-35.66 31.205a111.002 111.002 0 0 0-10.029 16.153l-.763 1.492zm-8.649-107.242a9.152 9.152 0 0 0-4.388 1.162c-2.52 1.381-4.041 3.62-4.069 5.994-.034 2.963-.175 5.966-.315 9.143-.477 10.45-1.016 22.287 1.981 37.266.343 1.723.657 3.306.955 4.793 1.521 7.723 2.441 12.392 4.226 18.426a176.838 176.838 0 0 0 10.293 26.704 113.332 113.332 0 0 1 9.408-14.907c5.29-7.083 17.01-20.609 36.17-31.654a125.67 125.67 0 0 1 22.59-10.17c-11.84-7.346-24.05-15.013-35.87-22.449-12.35-7.74-25.058-15.715-37.361-23.365a6.857 6.857 0 0 0-3.62-.943z" fill="#191818"/><path d="M973.669 640.349s42.311 37.008 47.541 46.701c.31.561 1.62 3.154.65 4.327-1.85 2.245-9.77-3.412-13.39-.516-.37.299-.68.664-.91 1.077a4.43 4.43 0 0 0-.51 2.498 4.4 4.4 0 0 0 .93 2.374c1.21 1.61 2.8 4.192 2.65 6.645 0 .729-.22 1.44-.64 2.037-1.09 1.325-3.1 1.336-3.66 1.336-3.67 0-5.66-3.542-5.75-3.704a2.609 2.609 0 0 0-3.366.073 1.96 1.96 0 0 0-.528 1.122c-.13.971.03 1.96.46 2.84 1.218 2.464-.207 10.411-1.038 13.992a52.54 52.54 0 0 1-6.174 15.153c-5.051-11.034-11.87-28.623-15.153-49.95a183.353 183.353 0 0 1-1.959-35.213c.213-4.394.567-8.098.847-10.792z" fill="#F3D2C9"/><path d="M989.946 737.164h-.045a.839.839 0 0 1-.718-.494 190.777 190.777 0 0 1-15.232-50.17 183.968 183.968 0 0 1-1.97-35.358c.168-3.62.449-7.296.841-10.866a.843.843 0 0 1 1.392-.561c1.729 1.515 42.476 37.222 47.706 46.937.56 1.077 1.81 3.76.56 5.264-1.24 1.504-3.52.752-6.21-.039-2.68-.791-5.68-1.684-7.29-.359-.29.231-.53.515-.7.836a3.54 3.54 0 0 0-.4 2.018c.06.697.32 1.36.76 1.911 1.36 1.813 2.95 4.54 2.8 7.195-.01.908-.3 1.791-.83 2.526-.89 1.083-2.34 1.638-4.3 1.644-3.78 0-5.94-3.222-6.396-3.99a1.783 1.783 0 0 0-2.116.123 1.2 1.2 0 0 0-.286.668 4.136 4.136 0 0 0 .387 2.335c1.588 3.21-.707 13.402-.977 14.553a53.354 53.354 0 0 1-6.269 15.395.851.851 0 0 1-.707.432zm-15.608-95.109a172.403 172.403 0 0 0-.662 9.143 181.915 181.915 0 0 0 1.947 35.044 188.631 188.631 0 0 0 14.418 48.267 51.372 51.372 0 0 0 5.259-13.503c.994-4.283 2.111-11.399 1.123-13.431a5.74 5.74 0 0 1-.561-3.367 2.8 2.8 0 0 1 .774-1.611 3.454 3.454 0 0 1 2.227-.876 3.47 3.47 0 0 1 2.267.78c.07.062.14.141.18.231 0 .033 1.8 3.26 5 3.26 1.44 0 2.45-.348 3-1.027.31-.459.47-.999.46-1.549.11-2.149-1.29-4.49-2.49-6.095a5.38 5.38 0 0 1-1.1-2.825c-.08-1.029.13-2.06.63-2.967.28-.506.66-.954 1.12-1.319 2.32-1.852 5.78-.836 8.83.062 1.76.516 3.93 1.156 4.45.561.37-.454.05-1.908-.75-3.367-4.6-8.548-39.146-39.254-46.122-45.411zm73.692 127.941c6.98 0 12.63-5.654 12.63-12.628s-5.65-12.628-12.63-12.628c-6.97 0-12.62 5.654-12.62 12.628s5.65 12.628 12.62 12.628z" fill="#000"/><path d="M1048.03 770.838c-2.66 0-5.26-.79-7.48-2.27a13.505 13.505 0 0 1-4.96-6.045 13.466 13.466 0 0 1-.77-7.783 13.504 13.504 0 0 1 3.69-6.896 13.438 13.438 0 0 1 6.9-3.687 13.46 13.46 0 0 1 13.82 5.728 13.469 13.469 0 0 1 2.27 7.483 13.49 13.49 0 0 1-3.94 9.525 13.476 13.476 0 0 1-9.53 3.945zm0-25.256c-2.33 0-4.61.691-6.54 1.986a11.764 11.764 0 0 0-4.34 5.29 11.764 11.764 0 0 0-.68 6.81 11.8 11.8 0 0 0 9.26 9.26c2.29.455 4.66.221 6.81-.671 2.16-.892 4-2.402 5.29-4.341a11.786 11.786 0 0 0-9.8-18.334z" fill="#191818"/><path d="M1161.41 775.048c9.76 0 17.67-7.915 17.67-17.679s-7.91-17.68-17.67-17.68c-9.77 0-17.68 7.916-17.68 17.68s7.91 17.679 17.68 17.679z" fill="#F8F59C"/><path d="M1161.4 775.89c-3.66 0-7.24-1.087-10.28-3.122a18.56 18.56 0 0 1-6.83-8.312 18.573 18.573 0 0 1-1.05-10.701 18.496 18.496 0 0 1 5.07-9.483 18.517 18.517 0 0 1 28.49 2.807 18.492 18.492 0 0 1 3.13 10.29c0 4.912-1.96 9.623-5.43 13.096a18.512 18.512 0 0 1-13.1 5.425zm0-35.359c-3.33 0-6.58.988-9.35 2.838a16.8 16.8 0 0 0-6.2 7.556 16.789 16.789 0 0 0-.96 9.728 16.798 16.798 0 0 0 4.61 8.621 16.835 16.835 0 0 0 18.35 3.65 16.851 16.851 0 0 0 10.39-15.555c0-4.466-1.77-8.748-4.93-11.906a16.842 16.842 0 0 0-11.91-4.932z" fill="#191818"/><path d="M1161.41 769.996c6.97 0 12.62-5.654 12.62-12.628s-5.65-12.628-12.62-12.628c-6.98 0-12.63 5.654-12.63 12.628s5.65 12.628 12.63 12.628z" fill="#000"/><path d="M1161.41 770.838c-2.67 0-5.27-.79-7.49-2.27a13.505 13.505 0 0 1-4.96-6.045 13.466 13.466 0 0 1-.77-7.783 13.504 13.504 0 0 1 3.69-6.896 13.438 13.438 0 0 1 6.9-3.687 13.486 13.486 0 0 1 13.83 5.728 13.458 13.458 0 0 1-1.68 17.008 13.47 13.47 0 0 1-9.52 3.945zm0-25.256a11.776 11.776 0 0 0-10.89 7.276 11.678 11.678 0 0 0-.67 6.81 11.728 11.728 0 0 0 3.22 6.034 11.791 11.791 0 0 0 18.14-1.786 11.82 11.82 0 0 0 1.98-6.548 11.786 11.786 0 0 0-11.78-11.786z" fill="#191818"/><path d="m1098.69 760.809 5.75.769 5.27-.752a1.203 1.203 0 0 1 1.18.537c.12.193.19.418.19.648 0 .231-.06.456-.19.65l-5.1 8.014a1.659 1.659 0 0 1-1.37.751 1.674 1.674 0 0 1-1.4-.706l-5.48-8.042a1.26 1.26 0 0 1-.21-.65 1.202 1.202 0 0 1 .69-1.112c.21-.1.44-.137.67-.107z" fill="#F3D2C9"/><path d="M1104.39 772.287a2.467 2.467 0 0 1-1.17-.302 2.475 2.475 0 0 1-.9-.821l-5.48-8.037a2.075 2.075 0 0 1-.36-1.104c0-.395.1-.784.31-1.12.21-.336.51-.605.86-.774.36-.169.76-.231 1.15-.178l5.61.752 5.16-.741c.39-.054.78.004 1.13.167.36.163.66.423.87.751.21.328.33.709.33 1.099 0 .391-.11.773-.32 1.103l-5.1 8.015c-.22.35-.52.64-.89.843a2.47 2.47 0 0 1-1.18.319l-.02.028zm-5.87-10.664c-.06 0-.12.016-.17.046a.352.352 0 0 0-.12.128.354.354 0 0 0-.07.197c0 .07.03.139.07.196l5.48 8.037a.852.852 0 0 0 .69.359.79.79 0 0 0 .39-.103.774.774 0 0 0 .29-.278l5.1-8.015a.332.332 0 0 0 .06-.194.332.332 0 0 0-.06-.193.355.355 0 0 0-.16-.136.339.339 0 0 0-.2-.027l-5.38.769-5.87-.78-.05-.006z" fill="#000"/><path d="M1096.05 781.031c-.56 0-1.17-.034-1.8-.095a.85.85 0 0 1-.76-.926.898.898 0 0 1 .31-.571c.17-.142.4-.209.62-.187 3.29.325 5.7-.292 7.16-1.841 2.14-2.245 1.61-5.809 1.6-5.848a.845.845 0 0 1 .16-.633.834.834 0 0 1 .55-.338c.23-.034.46.022.64.155.18.134.3.334.34.558 0 .174.66 4.405-2.04 7.262-1.56 1.645-3.83 2.464-6.78 2.464z" fill="#000"/><path d="M1112.46 781.592c-2.94 0-5.2-.819-6.73-2.453-2.7-2.856-2.07-7.088-2.04-7.262a.89.89 0 0 1 .34-.558.85.85 0 0 1 .63-.155c.23.034.43.156.56.338.13.182.19.41.16.633 0 .062-.52 3.62 1.6 5.859 1.47 1.544 3.87 2.156 7.16 1.83a.86.86 0 0 1 .62.187c.17.142.28.348.3.571a.818.818 0 0 1-.18.62.87.87 0 0 1-.57.306c-.67.05-1.27.084-1.85.084z" fill="#000"/><path d="m1221.74 763.262 39.57-12.067-39.57 12.067z" fill="#F8F3ED"/><path d="M1221.74 764.103a.878.878 0 0 1-.55-.206.852.852 0 0 1-.28-.511c-.03-.198.02-.4.12-.57.11-.17.27-.297.46-.358l39.57-12.066a.833.833 0 0 1 .99.572.82.82 0 0 1-.04.615.874.874 0 0 1-.46.418l-39.56 12.067a.835.835 0 0 1-.25.039z" fill="#000"/><path d="m1223.14 771.961 37.32 5.893-37.32-5.893z" fill="#F8F3ED"/><path d="M1260.46 778.696h-.12l-37.33-5.893a.834.834 0 0 1-.55-.338.845.845 0 0 1 .18-1.19c.18-.134.41-.19.63-.156l37.32 5.893c.23.017.43.122.58.292.15.17.22.391.2.615a.854.854 0 0 1-.29.576.848.848 0 0 1-.62.201z" fill="#000"/><path d="m985.736 771.961-33.955 7.577 33.955-7.577z" fill="#F8F3ED"/><path d="M951.781 780.379a.845.845 0 0 1-.753-1.371.843.843 0 0 1 .568-.312l33.955-7.577a.84.84 0 0 1 .858 1.257.84.84 0 0 1-.487.382l-33.955 7.576a.666.666 0 0 1-.186.045z" fill="#000"/><path d="m987.139 762.701-37.323-5.893 37.323 5.893z" fill="#F8F3ED"/><path d="M987.139 763.542h-.129l-37.323-5.893a.857.857 0 0 1-.698-.639.864.864 0 0 1 .099-.645.848.848 0 0 1 .858-.4l37.322 5.893a.844.844 0 1 1-.129 1.684z" fill="#000"/><path d="M566.93 427.919c25.015 11.432 53.487 37.104 87.391 69.864 52.078 50.321 84.636 131.572 94.85 162.199-3.238 1.504-16.966-23.954-20.204-22.45-10.816-29.6-32.143-77.929-78.013-125.157-37.491-38.602-70.156-67.164-96.534-79.697l12.51-4.759z" fill="#8BB174"/><path d="M748.852 660.907c-1.998 0-4.815-3.67-10.467-11.651-3.087-4.355-7.745-10.933-9.103-10.933l-.831.381-.264-.875c-17.623-48.267-43.081-89.081-77.827-124.86-41.532-42.784-72.154-68.051-96.287-79.523l-1.785-.841 14.682-5.613.326.146c23.959 10.956 51.292 34.921 87.621 70.026 22.641 21.889 43.929 51.719 63.286 88.705 17.78 34.028 28.141 62.983 31.766 73.843l.242.713-.685.314a1.548 1.548 0 0 1-.674.168zm-19.318-24.262c1.987.292 4.799 3.979 10.221 11.634 2.525 3.575 6.1 8.627 8.059 10.31-5.612-16.422-38.08-106.075-94.076-160.212-36.043-34.809-63.168-58.617-86.835-69.538l-10.361 3.928c24.044 11.927 54.312 37.11 95.019 79.018 34.769 35.813 60.289 76.649 77.973 124.86z" fill="#000"/><path d="M705.985 678.323c-41.914-35.358-100.609-78.287-120.185-85.808-50.388-19.363-95.119-27.81-124.085-28.096 3.113-3.195 6.232-6.387 9.356-9.575 27.501-.123 67.13 7.515 111.687 23.011 17.87 6.224 86.275 50.782 135.26 95.776l-12.033 4.692z" fill="#8BB174"/><path d="m705.826 679.288-.387-.32c-40.707-34.365-99.98-78.013-119.943-85.668-44.827-17.214-91.129-27.72-123.794-28.04h-1.97l10.978-11.225h.999c28.624 0 69.146 8.385 111.295 23.062 17.584 6.123 85.309 49.804 135.546 95.972l.993.915-13.717 5.304zM463.684 563.604c32.72.696 78.271 11.163 122.446 28.124 20.059 7.706 79.242 51.231 120.044 85.629l10.271-4.018c-49.159-44.9-117.053-88.8-133.969-94.688-41.969-14.592-82.278-22.966-110.739-22.966h-.286l-7.767 7.919z" fill="#000"/><path d="M749.755 661.003c-9.967-13.414-33.427-54.519-47.099-67.781a335.15 335.15 0 0 0-93.447-63.859l-12.521 4.737a356.52 356.52 0 0 1 102.578 73.708c9.934 10.265 30.554 48.138 38.4 58.37l12.089-5.175z" fill="#8BB174"/><path d="m737.397 667.222-.398-.517c-3.149-4.113-8.183-12.386-14.031-21.961-8.632-14.171-18.409-30.234-24.324-36.346a354.28 354.28 0 0 0-102.332-73.523l-1.762-.881 14.688-5.556.325.145a334.936 334.936 0 0 1 93.683 64.038c9.053 8.778 22.416 29.746 33.152 46.584 5.708 8.979 10.664 16.696 14.032 21.271l.639.853-13.672 5.893zM598.826 534.207a355.84 355.84 0 0 1 101.024 73.029c6.045 6.247 15.878 22.394 24.549 36.644 5.337 8.761 10.389 17.056 13.526 21.288l10.501-4.49c-3.396-4.692-8.088-12.061-13.47-20.514-10.692-16.781-23.993-37.665-32.906-46.308a333.276 333.276 0 0 0-92.874-63.578l-10.35 3.929z" fill="#000"/><path d="m1117.91 968.677 19.08 42.653c-9.52 1.08-19.15.89-28.62-.56 0 0-16.39-1.9-27.27-10.1-7.57-5.682-7.93-9.684-8.02-10.879-.44-5.467 3.16-9.334 4.56-10.664l.42-.382c5.05-4.411 14.03-5.011 14.59-5.051 5.75-.353 13.69-1.841 25.26-5.017z" fill="#333"/><path d="M1124.72 1012.86c-5.52.01-11.03-.42-16.48-1.26-.65-.07-16.7-2.01-27.65-10.23-5.25-3.929-8.06-7.802-8.35-11.483-.44-5.489 2.81-9.457 4.82-11.338l.44-.404c4.99-4.366 13.47-5.146 15.09-5.258 6.07-.41 14.28-2.055 25.09-5.052l.7-.19 19.85 44.335-1.12.13c-4.11.48-8.25.73-12.39.75zm-7.3-43.178c-10.58 2.873-18.68 4.49-24.73 4.888-.95.062-9.42.747-14.09 4.844-.17.151-.33.297-.38.348-1.79 1.683-4.71 5.203-4.32 9.99.25 3.177 2.84 6.634 7.68 10.268 10.58 7.94 26.7 9.9 26.87 9.91 9.03 1.39 18.2 1.62 27.28.69l-18.31-40.938z" fill="#191818"/><path d="m946.045 922.504 16.961-50.361a87.907 87.907 0 0 0-33.675 6.174 84.065 84.065 0 0 0-21.327 12.909c-.561.477-8.419 7.228-8.699 13.733v.707c.129 5.484 4.114 8.98 5.646 10.103l.46.336c4.698 3.323 10.428 2.953 18.875 3.16 4.765.118 7.144.18 10.102.561a63.552 63.552 0 0 1 11.657 2.678z" fill="#333"/><path d="M946.045 923.351a.908.908 0 0 1-.264-.045 62.055 62.055 0 0 0-11.505-2.621c-2.919-.382-5.293-.438-10.019-.562-1.06 0-2.082-.044-3.064-.061-6.943-.113-11.96-.197-16.276-3.25l-.483-.359c-2.172-1.684-5.842-5.265-5.977-10.77v-.769c.303-6.814 8.11-13.588 8.98-14.34a86.026 86.026 0 0 1 21.613-13.043 88.964 88.964 0 0 1 33.989-6.23.836.836 0 0 1 .682.359.837.837 0 0 1 .104.763l-16.961 50.361a.84.84 0 0 1-.819.567zm15.715-50.378a87.335 87.335 0 0 0-32.131 6.124 83.97 83.97 0 0 0-21.092 12.774c-.331.28-8.132 6.92-8.419 13.121v.64c.118 4.816 3.368 8.015 5.315 9.491l.432.32c3.895 2.75 8.694 2.806 15.334 2.941.987 0 2.009.033 3.081.061 4.782.118 7.184.18 10.186.562a64.326 64.326 0 0 1 11.023 2.435l16.327-48.474-.056.005z" fill="#191818"/><path d="m451.601 394.518-15.743-8.587a22.639 22.639 0 0 1-11.674-22.247l1.319-12.465a34.687 34.687 0 0 1 14.912-24.987 16.567 16.567 0 0 1 16.546-1.246 45.9 45.9 0 0 0 4.647 1.863 131.715 131.715 0 0 1 48.705 30.515l-24.398 44.243-34.314-7.089z" fill="#DA4E22"/><path d="m486.347 402.556-35.038-7.24-.112-.062-15.743-8.581a23.425 23.425 0 0 1-12.084-23.078l1.319-12.466a35.477 35.477 0 0 1 15.272-25.592 17.45 17.45 0 0 1 17.398-1.308 46.534 46.534 0 0 0 4.563 1.83 132.273 132.273 0 0 1 49.002 30.711l.455.443-25.032 45.343zm-34.454-8.84 33.584 6.943 23.792-43.143a130.639 130.639 0 0 0-47.942-29.869 46.945 46.945 0 0 1-4.731-1.875 15.74 15.74 0 0 0-15.715 1.185 33.784 33.784 0 0 0-14.553 24.38l-1.319 12.465a21.749 21.749 0 0 0 11.225 21.423l15.659 8.491z" fill="#000"/><path d="m466.435 379.652-.388.028a22.97 22.97 0 0 0-13.36 5.537 22.985 22.985 0 0 0-7.406 12.422l-1.504 6.803a30.07 30.07 0 0 0 18.662 34.589l46.297 17.623 7.127-50.624-31.99-21.714a27.449 27.449 0 0 0-17.438-4.664z" fill="#DA4E22"/><path d="m509.426 457.817-47.285-17.994a30.919 30.919 0 0 1-16.208-14.211 30.908 30.908 0 0 1-2.98-21.349l1.504-6.797a23.685 23.685 0 0 1 21.529-18.622l.387-.028a28.462 28.462 0 0 1 17.96 4.81l32.429 22.012-7.336 52.179zm-42.929-77.323-.388.028a22.014 22.014 0 0 0-20.008 17.309l-1.504 6.796a29.385 29.385 0 0 0 18.139 33.619l45.315 17.247 6.904-49.047-31.531-21.423a26.779 26.779 0 0 0-16.899-4.529h-.028z" fill="#000"/><path d="m548.528 348.682-18.033-23.903a30.11 30.11 0 0 0-30.234-11.354l-5.91 1.24a17.72 17.72 0 0 0-10.989 27.383l15.154 21.496 47.486 17.18 2.526-32.042z" fill="#DA4E22"/><path d="m546.754 381.897-48.772-17.646-15.31-21.714a18.558 18.558 0 0 1 11.511-28.657l5.915-1.235a31.057 31.057 0 0 1 31.031 11.629l18.224 24.133-.028.32-2.571 33.17zm-47.705-19.049 46.196 16.714 2.391-30.599-17.837-23.651a29.4 29.4 0 0 0-29.364-11.023l-5.916 1.241a16.88 16.88 0 0 0-12.201 10.223 16.882 16.882 0 0 0 1.729 15.824l15.002 21.271z" fill="#000"/><path d="M509.504 425.847c20.188 0 36.554-16.366 36.554-36.554 0-20.188-16.366-36.554-36.554-36.554-20.188 0-36.554 16.366-36.554 36.554 0 20.188 16.366 36.554 36.554 36.554z" fill="#F8F59C"/><path d="M509.487 426.673a37.393 37.393 0 0 1-37.137-33.162 37.383 37.383 0 0 1 12.701-32.517 37.386 37.386 0 0 1 49.781.788 37.384 37.384 0 0 1-25.345 64.891zm.028-73.074a35.697 35.697 0 0 0-35.068 29.107 35.695 35.695 0 1 0 59.246-19.684 35.588 35.588 0 0 0-24.178-9.423z" fill="#191818"/><path d="m517.855 348.671-1.785 13.711c-.712 5.45.59 10.619 3.649 14.492l24.503 31.025 14.368 37.486a105.673 105.673 0 0 0 7.594-15.867s5.421-15.254 4.799-32.333c-1.123-31.699-23.489-56.916-27.226-61.029a11.885 11.885 0 0 0-6.174-3.929c-4.67-1.123-8.548 1.352-10.563 2.632-6.723 4.271-8.665 11.595-9.165 13.812z" fill="#DA4E22"/><path d="m558.417 447.282-14.94-38.961-24.42-30.913c-3.21-4.064-4.563-9.435-3.822-15.154l1.802-13.784c.808-3.609 3.126-10.265 9.541-14.34 2.009-1.274 6.173-3.929 11.225-2.739a12.628 12.628 0 0 1 6.617 4.204c6.145 6.763 26.333 31.244 27.428 61.54.617 17.051-4.793 32.491-4.844 32.648a108.135 108.135 0 0 1-7.672 16.029l-.915 1.47zm-39.73-98.464-1.785 13.672c-.679 5.236.561 10.158 3.474 13.862l24.588 31.127.045.118 13.739 35.841a110.252 110.252 0 0 0 6.651-14.222c.051-.135 5.349-15.288 4.743-31.991-1.078-29.746-20.946-53.818-27.008-60.491a11.003 11.003 0 0 0-5.747-3.665c-4.321-1.032-7.964 1.28-9.917 2.52-5.882 3.71-8.026 9.867-8.783 13.229z" fill="#000"/><path d="m508.118 456.727-27.725-12.813a23.873 23.873 0 0 1-11.787-31.318l5.764-13.009a31.434 31.434 0 0 1 39.377-16.838l33.215 11.983a30.654 30.654 0 0 1 19.913 33.186 40.718 40.718 0 0 1-9.828 19.128c-12.762 13.666-30.93 12.908-34.163 12.751a47.107 47.107 0 0 1-14.766-3.07z" fill="#DA4E22"/><path d="M524.956 460.695c-.774 0-1.476 0-2.088-.039a47.877 47.877 0 0 1-15.047-3.143h-.056l-27.708-12.836a24.819 24.819 0 0 1-12.219-32.423l5.759-13.009a32.361 32.361 0 0 1 40.437-17.281l33.215 11.982a31.607 31.607 0 0 1 20.48 34.107v.062a41.513 41.513 0 0 1-10.041 19.526c-10.686 11.41-25.239 13.054-32.732 13.054zm-16.528-4.714A46.342 46.342 0 0 0 522.924 459c6.314.269 22.226-.404 33.507-12.482a39.81 39.81 0 0 0 9.614-18.706 29.903 29.903 0 0 0-19.386-32.249l-33.214-11.988a30.667 30.667 0 0 0-38.322 16.377l-5.764 13.015a23.127 23.127 0 0 0 11.388 30.206l27.681 12.808z" fill="#000"/><path d="m411.293 503.377-2.301-7.941a22.368 22.368 0 0 1 11.37-26.177 25.109 25.109 0 0 1 26.306 2.245c7.066 2.369 39.034 13.93 55.456 47.42a90.775 90.775 0 0 1 9.12 37.508 4.639 4.639 0 0 1-2.333 4.105 4.643 4.643 0 0 1-4.721-.07l-92.897-57.09z" fill="#DA4E22"/><path d="M506.609 562.012a5.497 5.497 0 0 1-2.874-.825l-93.166-57.247-2.391-8.256a23.242 23.242 0 0 1 11.786-27.164 25.816 25.816 0 0 1 27.08 2.217c11.786 3.962 40.466 16.489 55.816 47.806a90.932 90.932 0 0 1 9.21 37.856 5.376 5.376 0 0 1-2.728 4.872 5.489 5.489 0 0 1-2.733.741zm-94.598-59.178 92.605 56.916a3.792 3.792 0 0 0 3.88.07 3.787 3.787 0 0 0 1.912-3.376 89.437 89.437 0 0 0-9.024-37.171c-15.154-30.857-43.497-43.143-55.002-47.016l-.129-.044-.107-.079a24.136 24.136 0 0 0-25.402-2.121 21.543 21.543 0 0 0-10.944 25.188l2.211 7.633z" fill="#000"/><path d="m385.138 581.278 9.609 7.156a48.85 48.85 0 0 0 9.215 5.388 98.673 98.673 0 0 0 12.028 4.395c8.873 2.604 30.761 9.013 55.102.056 18.667-6.87 30.268-19.644 36.319-27.984a3.931 3.931 0 0 0-.834-5.531 3.924 3.924 0 0 0-1.917-.732l-105.682-11.983a18.454 18.454 0 0 0-10.822 2.087 18.45 18.45 0 0 0-7.699 7.887 15.383 15.383 0 0 0 4.681 19.261z" fill="#DA4E22"/><path d="M444.782 603.728c-12.908 0-23.308-3.053-29.016-4.726a97.888 97.888 0 0 1-12.129-4.433 49.436 49.436 0 0 1-9.378-5.484l-9.614-7.133a16.164 16.164 0 0 1-4.922-20.317 19.377 19.377 0 0 1 19.363-10.428l105.665 11.971a4.799 4.799 0 0 1 3.367 7.594c-6.667 9.193-18.448 21.557-36.71 28.281a76.722 76.722 0 0 1-26.626 4.675zm-59.144-23.151 9.626 7.133a47.204 47.204 0 0 0 9.053 5.293 96.8 96.8 0 0 0 11.92 4.411c9.126 2.677 30.498 8.935 54.581.073 17.859-6.572 29.393-18.684 35.92-27.686a3.106 3.106 0 0 0 .331-3.104 3.058 3.058 0 0 0-2.498-1.829l-105.687-11.989a17.677 17.677 0 0 0-17.668 9.542 14.482 14.482 0 0 0 4.422 18.156z" fill="#000"/><path d="M377.426 524.453a35.885 35.885 0 0 0 18.476 23.572l32.227 16.585c2.161.847 5.321 2.026 9.188 3.266a148.922 148.922 0 0 0 25.256 5.837c15.305 1.818 32.192-3.008 41.778-6.404a7.457 7.457 0 0 0 4.53-9.541c-5.736-15.878-14.189-25.02-18.953-29.443-8.801-8.166-19.481-13.616-28.018-17.96a176.395 176.395 0 0 0-16.607-7.425l-27.445-7.582a35.867 35.867 0 0 0-26.99 3.277l-2.756 1.538a22.02 22.02 0 0 0-10.686 24.28z" fill="#DA4E22"/><path d="M469.668 574.964a60.65 60.65 0 0 1-7.167-.404c-5.22-.623-15.019-2.531-25.442-5.87a160.717 160.717 0 0 1-9.238-3.284l-.078-.033-32.227-16.591a36.657 36.657 0 0 1-18.903-24.133 22.921 22.921 0 0 1 11.091-25.256l2.755-1.538a36.478 36.478 0 0 1 27.653-3.322l27.501 7.604a179.434 179.434 0 0 1 16.691 7.459c8.61 4.395 19.318 9.856 28.203 18.1 8.418 7.79 14.85 17.809 19.172 29.774a8.284 8.284 0 0 1 .476 3.213 8.283 8.283 0 0 1-2.735 5.753 8.285 8.285 0 0 1-2.793 1.659c-9.249 3.311-22.236 6.869-34.959 6.869zm-41.196-11.112a155.789 155.789 0 0 0 9.104 3.232c10.304 3.306 19.974 5.192 25.127 5.804 14.525 1.723 30.526-2.509 41.397-6.365a6.612 6.612 0 0 0 4.4-5.905 6.609 6.609 0 0 0-.382-2.558c-4.231-11.719-10.534-21.507-18.734-29.118-8.71-8.082-19.307-13.47-27.821-17.83a177.185 177.185 0 0 0-16.495-7.375l-27.405-7.571a34.848 34.848 0 0 0-26.379 3.171l-2.75 1.538a21.244 21.244 0 0 0-10.282 23.398 34.998 34.998 0 0 0 18.039 23.011l32.181 16.568z" fill="#000"/><path d="M582.645 480.608a5.679 5.679 0 0 0-5.702 6.629c2.245 13.29 7.959 42.609 15.906 50.018 10.366 9.664 27.024 65.312 73.354 53.576 31.812-8.06 22.035-41.263 12.774-61.299a65.674 65.674 0 0 0-23.51-27.361 128.11 128.11 0 0 0-32.855-15.322 145.958 145.958 0 0 0-39.967-6.241z" fill="#DA4E22"/><path d="M653.866 593.283c-28.18 0-43.625-26.435-53.318-43.047-3.204-5.489-5.971-10.232-8.261-12.348-7.908-7.369-13.52-34.797-16.164-50.512a6.515 6.515 0 0 1 6.55-7.61 146.356 146.356 0 0 1 40.213 6.286 128.932 128.932 0 0 1 33.051 15.417 66.38 66.38 0 0 1 23.814 27.709c6.55 14.166 12.959 33.983 6.308 47.93-3.44 7.218-10.046 12.112-19.643 14.536a50.814 50.814 0 0 1-12.55 1.639zm-71.328-111.839a4.84 4.84 0 0 0-3.692 1.721 4.841 4.841 0 0 0-1.073 3.931c2.099 12.465 7.824 42.25 15.648 49.541 2.469 2.301 5.163 6.914 8.575 12.751 10.816 18.521 28.921 49.513 63.982 40.629 9.075-2.302 15.311-6.887 18.521-13.633 6.37-13.358.079-32.659-6.314-46.499a64.683 64.683 0 0 0-23.213-27.007 127.396 127.396 0 0 0-32.619-15.221 144.959 144.959 0 0 0-39.753-6.213h-.062z" fill="#000"/><path d="M768.889 652.978c1.611-.842-15.226-164.164-62.371-227.023-47.144-62.859-58.369-72.962-58.369-72.962s-1.123 47.706 19.082 81.38c20.205 33.675 43.777 89.799 50.512 102.147 6.735 12.347 31.43 125.157 31.43 125.157l19.716-8.699z" fill="#8BB174"/><path d="m748.571 662.861-.219-1.005c-.252-1.122-24.751-112.81-31.351-124.933-2.178-3.99-6.095-12.515-11.056-23.308-10.254-22.298-25.745-55.99-39.439-78.81-20.098-33.495-19.2-81.352-19.2-81.835l.045-1.829 1.358 1.229c.46.409 11.825 10.871 58.482 73.079 24.43 32.552 40.258 91.483 49.226 135.181 9.968 48.542 13.936 89.799 13.352 92.432a.977.977 0 0 1-.482.679h-.057l-20.659 9.12zM648.99 355.03c.078 9.423 1.464 49.732 18.97 78.911 13.733 22.893 29.252 56.641 39.517 78.967 4.95 10.764 8.862 19.267 11.011 23.207 6.449 11.831 28.669 112.445 31.29 124.377l18.38-8.076c.27-4.557-3.968-45.562-13.402-91.483-8.941-43.496-24.695-102.146-48.912-134.44-37.851-50.501-52.623-67.018-56.854-71.463z" fill="#000"/></svg>