<?xml version="1.0" encoding="utf-8"?>
<!-- Generator: Adobe Illustrator 23.0.1, SVG Export Plug-In . SVG Version: 6.00 Build 0)  -->
<svg version="1.1" xmlns="http://www.w3.org/2000/svg" xmlns:xlink="http://www.w3.org/1999/xlink" x="0px" y="0px"
	 viewBox="0 0 1920 1080" style="enable-background:new 0 0 1920 1080;" xml:space="preserve">
<style type="text/css">
	.st0{fill:#EC8C92;}
	.st1{fill:#FFFFFF;}
	.st2{fill:#274D76;}
	.st3{fill:#FFF3A1;}
	.st4{fill:#F2BDBA;}
	.st5{fill:#93B4F6;}
	.st6{fill:#74BAAB;}
</style>
<g id="BG">
	<g>
		<g>
			<circle class="st0" cx="958.91" cy="513.36" r="377.5"/>
		</g>
	</g>
	<path class="st1" d="M630.55,433.08l-1.97-0.34c0.1-0.58,10.48-58.45,50.61-102.83l1.48,1.34
		C640.93,375.2,630.65,432.51,630.55,433.08z"/>
	<path class="st1" d="M685.25,293.23l-1.65-1.12c0.32-0.47,32.44-47.06,83.97-69.79l0.81,1.83
		C717.39,246.64,685.57,292.77,685.25,293.23z"/>
	<path class="st1" d="M1314.37,506.51h-2c0-71.77-32.57-136.82-32.9-137.47l1.78-0.9C1281.58,368.79,1314.37,434.25,1314.37,506.51z
		"/>
	<path class="st1" d="M1275.43,469.09c-1.54-28.59-10.85-52.65-10.94-52.89l1.86-0.73c0.09,0.24,9.51,24.59,11.08,53.51
		L1275.43,469.09z"/>
	<g>
		<path d="M567.81,419.48l-1.96-0.42c0.12-0.58,12.75-58.15,57.01-116.33l1.59,1.21C580.46,361.77,567.93,418.91,567.81,419.48z"/>
		<path d="M630.33,258.59l-1.53-1.28c0.12-0.14,11.85-14.12,26.81-28.24l1.37,1.45C642.1,244.56,630.44,258.45,630.33,258.59z"/>
		<path d="M679.79,230.45l-1.52-1.3c0.17-0.2,17.31-20,50.02-42.32c30.17-20.59,80.15-47.61,146.96-59.46l0.35,1.97
			c-66.46,11.79-116.18,38.67-146.18,59.14C696.92,210.65,679.95,230.25,679.79,230.45z"/>
		<path d="M1335.45,384.7c-16.83-68.6-70.23-127.82-70.77-128.41l1.48-1.35c0.54,0.59,54.28,60.2,71.23,129.28L1335.45,384.7z"/>
		<path d="M1350.28,484.57c-1.99-24.95-6.75-46.79-10.39-60.72l1.94-0.51c3.66,14.01,8.45,35.97,10.45,61.07L1350.28,484.57z"/>
		<path d="M1361.13,578.87l-1.95-0.45c1.72-7.44,3.22-15.51,4.46-23.98l1.98,0.29C1364.37,563.25,1362.85,571.37,1361.13,578.87z"/>
		<path d="M1369.32,517.3l-2-0.11c1.57-28.8,0.18-56.57-3.47-69.1l1.92-0.56C1369.48,460.26,1370.9,488.3,1369.32,517.3z"/>
		<path d="M1337.85,608.41l-1.9-0.61c3.51-10.92,6.49-26.12,8.86-45.15l1.98,0.25C1344.41,582.05,1341.4,597.36,1337.85,608.41z"/>
		<path d="M1348.59,546.19l-1.99-0.18c0.73-7.92,1.05-13.18,1.05-13.24l2,0.12C1349.64,532.94,1349.32,538.25,1348.59,546.19z"/>
		<path d="M1146.09,169.33c-52.41-33.36-140.19-44.82-141.07-44.93l0.25-1.98c0.22,0.03,22.45,2.89,50.9,9.86
			c26.28,6.44,63.39,17.8,91,35.37L1146.09,169.33z"/>
		<path d="M1102.37,133.42c-14.06-6.2-46.73-13.57-47.06-13.64l0.44-1.95c0.33,0.07,33.19,7.48,47.43,13.77L1102.37,133.42z"/>
		<path d="M676.91,801.94c-4.24-3.35-8.43-6.86-12.45-10.42l1.33-1.5c4,3.54,8.16,7.03,12.37,10.35L676.91,801.94z"/>
		<path d="M643.12,770.54c-57.31-62.5-68.29-130.7-68.4-131.38l1.98-0.3c0.1,0.68,11.01,68.3,67.89,130.33L643.12,770.54z"/>
		<path d="M658.83,765.37c-20.52-16.92-39.7-55.53-39.89-55.92l1.79-0.88c0.19,0.38,19.19,38.61,39.37,55.26L658.83,765.37z"/>
		<path d="M857.59,893.77c-29.17-5.58-57.99-15.5-85.66-29.49l0.9-1.79c27.51,13.9,56.15,23.76,85.14,29.31L857.59,893.77z"/>
		<path d="M736.59,843.67c-14.34-9.6-22.37-16.72-22.45-16.79l1.33-1.49c0.08,0.07,8.02,7.11,22.23,16.62L736.59,843.67z"/>
		<path d="M977.02,914.78l-0.1-2c7.4-0.36,14.64-0.92,21.51-1.66l0.22,1.99C991.74,913.86,984.46,914.42,977.02,914.78z"/>
		<path d="M950.73,915.24c-45.78-0.5-84.14-7.36-84.53-7.43l0.36-1.97c0.38,0.07,38.59,6.91,84.19,7.4L950.73,915.24z"/>
	</g>
	<path class="st1" d="M731.93,784.04c-63.08-44.23-86.32-114.39-86.55-115.09l1.9-0.62c0.23,0.7,23.28,70.24,85.8,114.07
		L731.93,784.04z"/>
	<path class="st1" d="M869.85,860.57c-49.51-8.7-99.08-41.84-99.57-42.18l1.12-1.66c0.49,0.33,49.72,33.24,98.8,41.86L869.85,860.57
		z"/>
	<path class="st1" d="M788.4,800.46c-13.18-4.13-29.09-18.88-29.76-19.5l1.36-1.46c0.16,0.15,16.25,15.06,28.99,19.06L788.4,800.46z
		"/>
</g>
<g id="Astro">
	<g>
		<path class="st1" d="M1025.28,189.98c-10.05,6.12-53.76,31.7-85.31,55.76c-5.02,3.83-8.76,9.08-10.73,15.08
			c-4.09,12.49-7.76,26.36-8.8,30.38c-0.24,0.93-0.12,1.92,0.36,2.75c2.95,5.2,19.12,23.1,107.22,54.26l20.68-44.73
			c0,0-13.06-83.23-17.07-111.03C1031.22,189.66,1028.01,188.32,1025.28,189.98z"/>
	</g>
	<g>
		<path class="st2" d="M1224.26,690.22l-108.45,12.74c-17.59,2.07-32.97,12.84-40.92,28.67l-48.54,97.53
			c-2.07,4.12-6.67,6.31-11.17,5.32l-17.25-3.8c-12.1-2.67-24.19,4.51-27.64,16.41l-2.7,9.33c-1.5,5.17,0.86,10.67,5.64,13.15
			l79.63,41.27c5.28,2.73,11.77,0.9,14.84-4.19l80.03-130.33l110.61-6.97L1224.26,690.22z"/>
	</g>
	<g>
		<polygon class="st2" points="1162.88,606.94 1170.79,587.1 1236.22,590.61 1212.45,680.44 		"/>
	</g>
	<g>
		<path class="st2" d="M1154.62,558.99c0,0,7.19-18.61,7.08-28.72c-0.14-13.45,1.32-40.82-7.25-39.53
			c-5.22,0.78-6.78,13.44-7.42,18.88c-0.25,2.15-1.08,4.21-2.52,5.83c-2.05,2.31-4.96,3.2-6.49-7.27
			c-2.49-17.06-1.95-49.89-11.86-43.88c-5.02,3.05-2.33,32.86-5.17,31.54c-2.84-1.32-2.49-46.34-14.57-41.43
			c-3.99,1.62-3.09,23.13-2.27,35.16c0.05,0.67-0.93,0.81-1.08,0.15c-1.63-7.27-4.13-17.86-6.13-24.07
			c-2.15-6.69-7.15-3.19-7.15,1.69c0,10.5,1.78,32.61,1.78,32.61L1154.62,558.99z"/>
	</g>
	<g>
		<path class="st3" d="M1322.57,618.72l18,31l-42,135c-3.94,13.69-19.6,22.23-33.66,19.89l-54.06-6c-6.94-1.16-9.43,2.4-7,9
			l23.33,107.05c3.96,10.77-2.18,22.61-13.27,25.58l-80.44,21.5c-7.79,2.08-15.57-3.36-16.28-11.39l-4.63-27.63
			c-0.19-2.11-0.79-10.58,4-14c7-5,18-12,18-12c3.71-1.99,4.09-7.94,3-12L1107,765.88c-4.99-18.59,6.58-33,25.57-36.16
			c24-4,64-13,64-13l17.13-111.75c2.25-8.87,10.44-14.94,19.59-14.5l26.28,1.25L1322.57,618.72z"/>
	</g>
	<g>
		<g>
			
				<ellipse transform="matrix(0.2298 -0.9732 0.9732 0.2298 414.5956 1682.587)" class="st3" cx="1270.32" cy="579.36" rx="43.05" ry="43.05"/>
		</g>
	</g>
	<g>
		<path class="st1" d="M879.4,578.86l143.06-129.42c7.39-6.69,18.2-6.16,26.95-1.39c17.69,9.65,48.03,26.9,75.09,56.22
			c22.72,24.62,60.47,63.71,64.93,96.8c0.51,3.79-0.81,7.59-3.46,10.34c-43.62,45.19-132.35,128.42-142.27,136.88
			c-23.48,20.03-84.37-25.19-119.06-65.51C910.15,665.95,861.27,595.96,879.4,578.86z"/>
	</g>
	<g>
		<g>
			<path class="st3" d="M1345.47,626.64c-13.28-13.07-35.98-12.29-49.98-0.29l-49.63,45.2c-2.72,2.26-6.75,1.91-9.04-0.78
				l-35.16-41.1c-5.66-6.63-9.08-14.87-9.78-23.55l-1.27-15.67c-0.09-1.06-0.34-2.1-0.76-3.08l-6.41-16.5
				c-0.88-2.27-3.94-2.55-5.27-0.51c-1.8,2.77-2.78,6.94-2.78,11.08c0,8,1.88,16.64-1.12,16.64c-4,0-8.75-7.86-10.78-15.24
				c-2.33-8.49-3.49-15.26-7.6-19.02c-1.86-1.7-5.17-0.58-5.68,2.25c-1.19,6.52,0.18,18.8,0.29,25.77c0.03,2-1.76,1.96-2.31-0.47
				c-1.69-7.53-6.3-30.54-6.3-30.54c-0.73-3.03-4.91-3.38-6.12-0.5c-3.46,8.27-2.17,26.26-1.54,32.95c0.06,0.59-0.74,0.83-1.01,0.31
				c-1.67-3.12-4.62-9.26-6.73-17.08c-0.47-1.74-2.85-2.12-3.73-0.55c-2.65,4.77-1.3,16.16-0.59,20.84
				c0.07,0.44-0.53,0.64-0.75,0.26c-1.15-2.02-2.03-3.93-2.92-6.21c-1.15-2.95-3.62-1.26-3.83,0.61c-0.7,6.31-1.06,15.33,1.62,26.89
				c0.97,4.17,4.48,16.68,20.21,35.49l84,93c15,19,34.22,13.99,45,6c27-20,76.84-69.27,76.84-69.27
				C1361.3,667.57,1357.33,638.31,1345.47,626.64z"/>
		</g>
	</g>
	<g>
		<path class="st4" d="M969.83,656.03c-50.2-53.66-76.37-69.13-89.15-70.56c-2.83-0.32-5.28,1.89-5.26,4.74
			c0.15,26.14,36.97,78.35,49.21,92.59c27.94,32.49,72.91,68.16,101.61,70.31c2.2,0.16,3.98-1.75,3.73-3.93
			C1028.23,733.84,1016.11,705.5,969.83,656.03z"/>
	</g>
	<g>
		<path class="st4" d="M921.23,294.68c3.97,9.56,49.59,38.97,106.77,53.54l1.7-3.67c-22.19-19.45-60.55-38.97-89.03-46.32
			C930.23,295.54,924.54,294.29,921.23,294.68z"/>
	</g>
	<path d="M1030.73,209.25c-5.24-4.37-11.47-7.27-18.5-8.62l0.38-1.96c7.37,1.42,13.89,4.46,19.4,9.04L1030.73,209.25z"/>
	<g>
		<g>
			<g>
				<path class="st5" d="M1107.19,540.95l-21.17-17.73c-3.32-2.78-7.63-4.07-11.93-3.55c-17.15,2.06-61.99,8.09-77.02,16.35
					c-5.57,3.06-17.63,16.42-17.63,16.42c-4.37,4.53-4.39,11.7-0.04,16.26l27.52,30.41c1.91,2.11,5.13,2.35,7.33,0.55l22-18.02
					c2.38-1.95,2.62-5.51,0.52-7.77l-4.43-4.74c-1.77-1.66-0.95-4.63,1.43-5.14l71.54-15.36
					C1108.87,547.84,1110,543.3,1107.19,540.95z M1074.22,571.96c-3.44-2.44-7.72-2.65-10.96,0.03l-66.46,54.89
					c-4,3.3-4.25,11.33-0.86,15.26c2.63,3.05,7.93,9.13,10.5,12.25c4.75,5.77,12.55,5.95,16.38,2.46l17.94-16.35
					c1.63-1.48,4.15-1.38,5.65,0.23l3.8,4.08c2.69,2.82,7.13,2.96,9.99,0.32l19.81-18.3c3.75-3.47,3.78-9.39,0.05-12.89l-1.83-1.72
					c-1.71-1.6-1.69-4.33,0.04-5.9l9.12-8.31c3.4-3.1,4.61-10.05,0.32-14.1C1087.72,583.91,1078.67,575.13,1074.22,571.96z"/>
			</g>
		</g>
	</g>
	<g>
		<path d="M929.34,300.03c12.61,9.93,45.57,27.99,86.28,41.2l1.34-2.81c-16.82-14.29-55.13-32.04-86.8-40.06
			C929.17,298.11,928.53,299.4,929.34,300.03z"/>
	</g>
	<g>
		<path d="M883.98,595.86c5.72-7.24,56.26,39.91,73.39,57.38c29.32,29.89,71.9,87.74,61.64,90.44
			c-6.39,1.68-45.92-20.46-87.65-67.63C899.61,640.15,880.45,600.33,883.98,595.86z"/>
	</g>
	<g>
		<path class="st2" d="M1221.65,178.66l-1.48-8.98c-1.23-7.47-8.62-11.13-15.76-8.59c-9.36,3.32-21.5,7.26-28.08,12.38
			c-2.61,2.03-4.03,5.23-3.76,8.52c2.41,29.23,5.17,52.01,6.48,62.07c0.46,3.57-0.72,7.16-3.22,9.75l-29.2,30.37l29.61,15.14
			l55.43-51.65L1221.65,178.66z"/>
	</g>
	<g>
		<path class="st3" d="M1028.01,348.22l21.18-45.81c3.67-7.93,11.41-13.18,20.13-13.67l43.89-2.43c10.8-0.6,21.31-3.72,30.69-9.11h0
			c7.68-4.41,17.13-4.37,24.77,0.12l0,0c5.02,2.95,11.36,2.4,15.8-1.37l15.85-13.46c1.82-1.55,2.8-3.86,2.65-6.24
			c-0.84-12.74-3.51-54.46-3.85-74.8c-0.05-2.83,1.54-5.44,4.08-6.68c10.55-5.15,27.07-7.66,39.73-5.5c3.13,0.53,5.58,3.1,5.78,6.27
			c0.85,13.88-8.63,28.75-8.63,28.75l8.35,62.77c1.84,13.84-4.07,27.57-15.38,35.75l-52.73,38.12c-4,2.89-8.16,5.57-12.46,8v0
			c-10.21,5.79-21.13,10.23-32.48,13.2l-40.41,10.57L1028.01,348.22z"/>
	</g>
	<g>
		<polygon class="st2" points="1046.18,307.06 1070.73,303.34 1089.81,323.61 1052.83,358.8 1033.27,336.7 		"/>
	</g>
	<g>
		<g>
			
				<ellipse transform="matrix(0.2529 -0.9675 0.9675 0.2529 524.0682 1252.3867)" class="st3" cx="1072.92" cy="286.87" rx="34.4" ry="34.4"/>
		</g>
	</g>
	<g>
		<g>
			<g>
				<path class="st5" d="M984.88,274.27l6.51-10.05c1.1-1.7,0.43-3.98-1.42-4.81l-2.72-1.22c-1.64-0.74-1.85-2.98-0.37-4.01
					l29.07-20.15c1.47-1.02,1.14-3.28-0.56-3.85l-13.31-4.39c-1.58-0.52-3.3-0.29-4.69,0.63l-28.62,18.95
					c-1.76,1.16-3.18,2.76-4.14,4.63l-4.02,7.84c-2.03,3.96-0.29,8.81,3.79,10.57l16.39,7.09
					C982.28,276.15,984.01,275.62,984.88,274.27z M1019.25,269.83l-1.48-0.92c-1.32-0.82-1.82-2.49-1.18-3.9l1.96-4.3
					c1.15-2.52,0.17-5.5-2.25-6.85l-6.57-3.66c-2.58-1.43-5.83-0.5-7.24,2.09l-19.85,36.18c-1.32,2.41-0.59,5.43,1.69,6.97
					l7.03,4.73c2.59,1.74,6.12,0.88,7.63-1.85l5.69-10.37c0.85-1.54,2.81-2.06,4.31-1.15l0.78,0.48c1.71,1.05,3.95,0.41,4.85-1.38
					l5.87-11.6C1021.31,272.71,1020.76,270.77,1019.25,269.83z"/>
			</g>
		</g>
	</g>
	<g>
		<g>
			<path class="st3" d="M1131.76,304.13L1131.76,304.13c-9.62-8.59-24.29-8.08-33.3,1.14l-26.78,27.42
				c-2.09,2.14-5.17,2.99-8.06,2.23l-39.81-10.45c-2.75-0.72-5.24-2.2-7.19-4.27l-11.43-12.12c-0.95-1.01-2.66-0.83-3.27,0.41
				c-0.63,1.27-1.02,3.35-0.37,6.72c1.44,7.5-2.91,7.48-7.33,3.94c-2.28-1.82-5.81-4.66-8.69-6.99c-2.19-1.77-5.42-0.19-5.43,2.62
				c-0.02,3.42,0.47,7.34,2.44,9.53c-4.02,12.06,2.73,26.38,13.42,32.16c12.34,6.67,78.85,27.22,78.85,27.22
				c6.46,1.91,13.45,0.12,18.2-4.65l39.77-39.94C1142.54,329.32,1142.07,313.34,1131.76,304.13z"/>
		</g>
	</g>
	<g>
		<g>
			<path d="M1052.16,264.09c-4.26,3.09-7.58,7.54-9.55,12.84c-4.44,11.95-0.25,24.79,9.11,32.46c5.04,4.13,12.73,5.11,20.37,0.39
				c4.97-3.07,8.73-8.01,10.91-13.87c3.82-10.27,1.24-20.92-5.58-28.55C1071.82,261.11,1059.26,258.93,1052.16,264.09z"/>
		</g>
	</g>
	<g>
		<path class="st1" d="M803.13,651.44c-3.82-14.56-8.07-33.32-10.31-39.69c-0.09-0.25-0.4-0.94-0.63-1.09
			c-2.01-1.34-13.81-6.99-27.47-4.71c-4.23,0.71-18.75-0.64-24.56,3.77c-1.8,1.36-2.48,3.66-2.64,5.91
			c-0.82,12.13-2.84,49.61-2.5,62.26c0.06,2.27,1.62,4.31,3.85,4.76c24.61,5.01,53.23,2.7,65.98-6.93c1.41-1.07,2.2-2.76,2.04-4.53
			C806.57,667.8,805.69,661.19,803.13,651.44z"/>
	</g>
	<g>
		<path class="st2" d="M662.51,554.31l-40.66-12.71c-2.11-0.66-3.43-2.76-3.12-4.95l6.28-43.93c0.44-3.1-1.71-5.97-4.81-6.42
			l-25.4-3.88c-1.19-0.17-3.75,0.72-3.75,4.14c0,1.67,0.46,2.6,1.31,3.62l4.59,5.53c0.86,1.03,1.23,2.39,1.01,3.71l-5.43,33.6
			l18.59,39.59l45.17,4.83L662.51,554.31z"/>
	</g>
	<g>
		<path class="st3" d="M582.18,497.63l35.34,55.59c0.95,1.5,2.47,2.56,4.2,2.95l7.92,1.76c2.63,0.58,5.38,0.12,7.67-1.28l3.06-1.87
			c6.07-3.72,13.46-4.59,20.23-2.38l48.48,15.81l-14.17,44.19l-47.8-11.66c-4.15-1.01-8.23-2.25-12.24-3.72
			c-5.96-2.18-14.68-5.51-19.99-8.12c-13.69-6.73-18.18-11.97-20.41-16.15c-7.09-13.29-24.61-43.41-26.82-46.97
			c-2.87-4.62-9.18-5.02-12.53-5.89c-2.07-0.54-3.59-1.45-4.43-3.42l-0.43-1c-0.51-1.19-0.11-2.57,0.95-3.31l23.22-16.22
			C577.01,494.14,580.58,494.91,582.18,497.63z"/>
	</g>
	<g>
		<path class="st2" d="M730.7,598.46l42.78-0.03c3.49-0.02,7.09,1.02,8.93,3.13c1.1,1.26,3.06,3.98,4.1,5.29
			c0.72,0.92,0.46,2.11-0.58,1.86l-5.19-1.86l0.92,3.18c0.63,1.72-0.94,2.5-2.27,1.83l-5.17-2.44l0,0c0.13,1.44-1.39,2.46-2.68,1.79
			c-2.38-1.24-3.29-2.04-6.58-4.28c-0.82-0.55-1.79-0.83-2.78-0.78c-8.82,0.44-15.04,1.54-20.42,3.74
			c-3.99,1.63-4.09,5.78-4.16,7.08c-0.12,2.19-3.08,8.75-3.08,8.75l-27.85-5.73l-4.93-18.54L730.7,598.46z"/>
	</g>
	<g>
		<g>
			<ellipse class="st3" cx="714.44" cy="580.52" rx="21.96" ry="22.88"/>
		</g>
	</g>
	<g>
		<path class="st1" d="M723.99,634.54c0,0-13.51,23.86-15.54,37.96c-0.65,4.54,2.66,8.71,7.22,9.25c4.04,0.47,10.29,0.7,19.7-0.05
			c-1.36-4.25,1.74-42.03,3.07-57.3c0.18-2.05-2.35-3.15-3.74-1.63L723.99,634.54z"/>
	</g>
	<g>
		<path class="st1" d="M770.11,623.17c2.89,6.02,13.8,28.99,16.13,38.21c0.29,1.14-0.61,2.22-1.78,2.15
			c-10.67-0.71-20.97,0.85-25.36,1.65c-1.12,0.2-2.12-0.71-2.03-1.84l2.98-36.79c0.05-0.65,0.47-1.22,1.07-1.46l6.77-2.76
			C768.74,621.98,769.71,622.35,770.11,623.17z"/>
	</g>
	<path class="st5" d="M783.73,653.95c-4.94-12.92-14.33-32.24-14.33-32.24l-2.21,0.9l10.48,40.74c2.91-0.03,5.95,0.15,8.99,0.44
		C786.52,661.85,785.37,658.26,783.73,653.95"/>
	<g>
		<path class="st2" d="M786.67,663.79c-0.01-0.17-8.07-6.71-8.07-6.71c-1.38-1.05-3.24-1.19-4.75-0.36l-15.75,8.63
			C761.9,664.62,774.28,662.59,786.67,663.79z"/>
	</g>
	<g>
		<path d="M706.99,587.24c-0.37,3.99,0.52,7.74,2.29,10.89c1.19,2.11,3.43,3.47,5.86,3.47c0.01,0,0.03,0,0.04,0
			c10.94,0,19.81-9.24,19.81-20.64c0-0.02,0-0.05,0-0.07c-0.02-4.81-3.46-8.9-8.01-9.66c-1.39-0.23-2.84-0.29-4.33-0.16
			C714.43,571.82,707.78,578.69,706.99,587.24z"/>
	</g>
	<g>
		<path class="st3" d="M777.84,626.09l-4.72,0.55c-0.38,0.04-0.57-0.44-0.27-0.67l3.96-2.99c1.55-1.17,0.62-3.63-1.31-3.48
			c-4.29,0.33-9.82,0.79-13.77,1.21c-0.65,0.07-0.94-0.81-0.37-1.14c1.77-1.01,2.7-1.5,4.54-2.53c2.63-1.48,0.04-3.56-2.97-3.45
			c-5.63,0.22-11.24,3.61-15.51,3.61c-7.72,0-29.09-1.04-29.09-1.04c-1.69-0.06-3.26-0.92-4.21-2.32l-17.36-25.69
			c-4.86-6.42-14.03-7.61-20.36-2.64c-6.01,4.71-7.3,13.3-2.93,19.57l25.42,32.57c2.35,3.01,5.92,4.83,9.74,4.96l55.35-0.84
			c6.6,0.01,11.24-5.97,11.83-9.08c1.7-1.15,2.91-2.41,3.78-3.55C780.6,627.8,779.52,625.89,777.84,626.09z"/>
	</g>
	<g>
		<path class="st1" d="M709.73,389.45c0,0,4.7,17.66,16.55,41.6c16.8,33.93,25,47.52,33.64,62.09
			c10.52,17.74,42.64,35.73,104.61-2.66c64.21-39.77,54.42-65.97,50.16-75.09c-2.52-5.4-22.97-43.62-39.94-72.63
			c-6.62-11.32-12.87-20.99-17.03-27.23c-3.46-5.19-9.02-8.56-15.22-9.26c-16.9-1.91-52.7-1.72-89.51,24.95
			C702.24,368,709.73,389.45,709.73,389.45z"/>
	</g>
	<g>
		<path class="st4" d="M917.27,434.81c1.69-8.53-1.99-17.25-9.16-22.19c-18.18-12.54-53.79-13.08-98.94,15.44
			c-49.61,31.34-50.76,57.86-43.38,72.55c14.46,14.27,45.64,22.76,98.73-10.13C902.57,466.92,914.63,448.12,917.27,434.81z"/>
	</g>
	<g>
		<path d="M775.08,499.64c-6.17-8.83-6.29-36.49,40.02-66.28c46.68-30.03,87.63-21.49,93.65-5.3c6.02,16.19-27.52,45.84-64.88,64.82
			C810.07,510.06,781.92,509.43,775.08,499.64z"/>
	</g>
	<g>
		<path d="M734.98,675.28c-4.07-0.01-8.36,0.21-12.65,0.55c-9.66,0.77-10.96,3.81-10.05,4.74c0.85,0.87,2.14,1.34,3.39,1.48
			c4.04,0.47,12.38,0.74,21.26-0.3C734.98,679.6,734.99,678.56,734.98,675.28z"/>
	</g>
	<g>
		<path class="st1" d="M802.91,615.74c-2.89-3.57-4.54-3.13-9.82-3.21c2.24,7.74,6.14,24.05,10.04,38.92
			c3.9,14.86,3.92,22.42,3.92,22.42c4.9-0.65,8.85-1.38,18.44-2.99c7.83-1.32,8.53-7.8,4.48-13.8L802.91,615.74z"/>
	</g>
	<g>
		<path class="st4" d="M803.22,676.87c0.56-1.42-0.36-2.84-2.71-4c-4.67-2.32-13.81-4.14-31.62-3.14
			c-16.42,0.92-24.75,4.98-28.94,8.56c-2.24,1.92-2.09,3.4-0.11,4.6C764.52,688.88,790.05,685.54,803.22,676.87z"/>
	</g>
	<g>
		<path d="M826.51,671.06c1.98-0.51,2.29-2.63,1.26-3.37c-0.44-0.31-0.96-0.63-1.58-0.95c-4.87-2.5-12.65-2.47-20.09-1.58
			c0.94,5.78,1.11,7.17,0.05,9.13C812.21,673.87,825.92,671.21,826.51,671.06z"/>
	</g>
	<g>
		<g>
			<g>
				<path class="st5" d="M768.87,383.6c-2.91-7.32-3-15.48,0.43-20.83c0.8-1.25,2.27-3.29,1.53-4.57l-6.44-9.34
					c-1.36-2.36-4.91-0.88-6.54,1.31c-8.03,10.83-11.03,24.94-5.03,40c8.81,22.15,25.17,28.63,42.03,24.51
					c2.73-0.67,4.06-3.76,2.65-6.19l-4.92-8.15c-1.08-1.87-3.15-2.9-5.31-2.73C779.99,398.2,772.79,393.44,768.87,383.6z
					 M816.9,357.47c-12.75-20.19-33.01-23.27-46.28-18.23c-2.32,0.88-3.37,3.57-2.13,5.72l7.24,9.81c0.86,1.48,2.56,2.2,4.23,1.88
					c7.08-1.37,15.78,1.37,21.51,10.03c4.55,6.88,4.54,17.65-2.68,24.57c-1.58,1.52-1.42,4.13-0.32,6.03l4.62,7.97
					c1.83,3.15,5.92,3.45,8.71,1.12C824.88,395.45,825.84,371.63,816.9,357.47z"/>
			</g>
		</g>
	</g>
	<path d="M1102.53,356.06c-0.69,0-1.39-0.18-2.03-0.55c-4.9-2.85-13.74-8.42-17.89-13.59c-1.17-1.46-1.14-3.59,0.09-5.07v0
		l12.99-15.66c1.37-1.66,3.8-1.95,5.53-0.67c4.08,3.03,11.51,8.63,15.46,12.13c1.59,1.41,1.84,3.75,0.58,5.45
		c-4.54,6.14-9.07,12.78-11.36,16.18C1105.11,355.43,1103.83,356.06,1102.53,356.06z M1098.8,321.72c-0.59,0-1.18,0.25-1.58,0.74
		l-12.99,15.66c-0.62,0.75-0.65,1.81-0.06,2.54c4.1,5.11,13.49,10.88,17.34,13.12c0.93,0.54,2.12,0.27,2.72-0.62
		c2.31-3.42,6.85-10.08,11.41-16.26c0.63-0.86,0.51-2.05-0.3-2.76c-3.89-3.45-11.27-9.01-15.33-12.02
		C1099.65,321.85,1099.22,321.72,1098.8,321.72z"/>
	<path d="M1291.54,712.06c-0.25,0-0.5-0.01-0.76-0.04c-2.08-0.2-3.95-1.21-5.26-2.83l-21.55-26.75c-2.56-3.18-2.19-7.81,0.83-10.55
		l23.82-21.53c1.57-1.42,3.59-2.12,5.69-1.97c2.11,0.15,4.01,1.12,5.37,2.73l22.8,27.17c2.73,3.25,2.3,8.11-0.94,10.84l-25.06,21.1
		C1295.08,711.43,1293.35,712.06,1291.54,712.06z M1266.15,673.38c-2.24,2.03-2.51,5.45-0.62,7.81l21.55,26.75
		c0.97,1.2,2.35,1.95,3.89,2.1c1.54,0.15,3.04-0.32,4.22-1.31l25.06-21.1c2.4-2.02,2.71-5.62,0.7-8.03l-22.8-27.17
		c-1-1.2-2.42-1.92-3.98-2.02c-1.56-0.1-3.06,0.41-4.21,1.46L1266.15,673.38z"/>
	<path d="M1173.82,665.15l-1.56-1.25l11.23-14.09c0.66-0.83,0.43-1.7-0.01-2.24c-0.44-0.54-1.25-0.94-2.2-0.46l-12.69,6.53
		c-1.66,0.85-3.54,0.44-4.7-1.01c-1.16-1.45-1.12-3.38,0.08-4.8l11.29-13.33c0.7-0.83,0.47-1.72,0.03-2.27
		c-0.45-0.55-1.26-0.97-2.22-0.46l-32.71,16.65l-0.91-1.78l32.7-16.65c1.64-0.87,3.54-0.47,4.7,0.98c1.17,1.46,1.14,3.39-0.06,4.82
		l-11.29,13.33c-0.7,0.82-0.48,1.71-0.04,2.26c0.44,0.55,1.25,0.97,2.21,0.48l12.68-6.53c1.63-0.84,3.5-0.45,4.66,0.96
		c1.16,1.41,1.17,3.33,0.03,4.76L1173.82,665.15z"/>
	<rect x="1200.91" y="704.9" transform="matrix(0.3477 -0.9376 0.9376 0.3477 135.1948 1606.1246)" width="41.98" height="2"/>
	<rect x="1257.61" y="693.32" transform="matrix(0.9433 -0.332 0.332 0.9433 -167.2107 458.6169)" width="2" height="50.71"/>
	<rect x="1250.19" y="727.51" transform="matrix(0.9893 -0.1461 0.1461 0.9893 -94.6154 190.7698)" width="2" height="23.77"/>
	<rect x="1217.49" y="727.1" transform="matrix(0.1875 -0.9823 0.9823 0.1875 281.8567 1796.9342)" width="19.18" height="2"/>
	<rect x="1075.09" y="338.93" transform="matrix(0.8789 -0.477 0.477 0.8789 -40.4257 556.6789)" width="2" height="38.04"/>
	<rect x="1068.82" y="358.45" transform="matrix(0.9611 -0.2763 0.2763 0.9611 -60.1928 309.9211)" width="2" height="20.28"/>
	<rect x="1044.42" y="357.72" transform="matrix(0.0591 -0.9983 0.9983 0.0591 638.3967 1394.7559)" width="29.34" height="2"/>
	<path d="M1006.11,355.32l-1.93-0.52l5.14-19.22c0.32-1.21,1.41-1.96,2.66-1.83c1.24,0.13,2.15,1.1,2.22,2.34l0.57,11.51
		c0.02,0.32,0.24,0.42,0.38,0.45c0.14,0.03,0.38,0.04,0.53-0.25l7.42-14.64l1.78,0.9l-7.41,14.64c-0.52,1.02-1.61,1.54-2.73,1.3
		c-1.12-0.24-1.9-1.16-1.96-2.3l-0.57-11.51c-0.02-0.36-0.28-0.44-0.43-0.45c-0.15-0.02-0.42,0.01-0.51,0.35L1006.11,355.32z"/>
	<rect x="1225.16" y="243.13" transform="matrix(0.1574 -0.9875 0.9875 0.1574 778.4553 1428.2295)" width="2" height="29.64"/>
	<rect x="1226.05" y="255.19" transform="matrix(0.3638 -0.9315 0.9315 0.3638 529.2371 1314.7266)" width="2" height="29.5"/>
	<rect x="1222.03" y="268.44" transform="matrix(0.758 -0.6523 0.6523 0.758 111.1803 866.3168)" width="2" height="29.79"/>
	<path d="M1184.32,807.51l-0.11-0.01l-57.18-6.54l0.23-1.99l57.12,6.53c1.38-0.02,2.13-0.97,2.38-1.85
		c0.25-0.89,0.08-2.11-1.14-2.83l-65.8-31.06c-2.05-1.22-2.82-3.51-1.96-5.63s3.02-3.23,5.24-2.69l52.19,11.61
		c1.5,0.36,2.49-0.52,2.89-1.39c0.39-0.85,0.43-2.14-0.73-3.04l-43.72-21.61l0.89-1.79l43.95,21.74c2.06,1.51,2.2,3.87,1.43,5.54
		c-0.77,1.67-2.66,3.09-5.15,2.5l-52.19-11.61c-1.57-0.38-2.56,0.57-2.94,1.5c-0.38,0.92-0.33,2.29,1.04,3.11l65.8,31.06
		c1.88,1.12,2.68,3.11,2.13,5.13C1188.12,806.21,1186.41,807.51,1184.32,807.51z"/>
	<path d="M691.86,618.82c-0.21,0-0.42-0.01-0.63-0.04c-1.25-0.18-2.36-0.89-3.05-1.95l-5.24-8.03c-1.31-2-0.76-4.72,1.23-6.05
		l6.99-4.69c2-1.34,4.72-0.81,6.07,1.17l4.85,7.1c1.27,1.86,0.93,4.36-0.78,5.82l-6.59,5.62
		C693.91,618.46,692.9,618.82,691.86,618.82z M693.61,599.33c-0.46,0-0.92,0.13-1.33,0.4l-6.99,4.69c-1.08,0.73-1.38,2.2-0.67,3.3
		l5.24,8.03c0.38,0.58,0.98,0.96,1.66,1.06c0.69,0.1,1.37-0.1,1.89-0.55l6.59-5.62c0.93-0.8,1.12-2.16,0.42-3.17l-4.85-7.1
		C695.13,599.69,694.37,599.33,693.61,599.33z"/>
	<rect x="698.15" y="625.01" transform="matrix(0.6903 -0.7235 0.7235 0.6903 -234.2585 704.7218)" width="15.86" height="2"/>
	<rect x="703.62" y="632.54" transform="matrix(0.4435 -0.8963 0.8963 0.4435 -174.4377 986.1185)" width="6.58" height="2"/>
	<rect x="704.49" y="628.27" transform="matrix(0.2051 -0.9787 0.9787 0.2051 -47.9777 1199.4679)" width="19.9" height="2"/>
	<path d="M738.25,635.09c-0.05,0-0.09,0-0.14,0c-1.33-0.06-2.46-0.91-2.88-2.17l-1.78-5.38l1.9-0.63l1.78,5.38
		c0.24,0.71,0.87,0.8,1.06,0.8c0.19,0,0.83-0.02,1.13-0.71l1.73-4.05c0.42-0.98,1.29-1.68,2.34-1.87c1.05-0.19,2.11,0.14,2.85,0.9
		l5.23,5.36c0.46,0.47,1.02,0.42,1.4,0.21c0.38-0.21,0.73-0.66,0.58-1.3l-2.43-10.4l1.95-0.45l2.43,10.4c0.33,1.4-0.3,2.81-1.56,3.5
		c-1.27,0.69-2.79,0.46-3.8-0.57l-5.23-5.36c-0.28-0.29-0.67-0.41-1.05-0.33c-0.39,0.07-0.71,0.33-0.86,0.69l-1.73,4.05
		C740.66,634.35,739.53,635.09,738.25,635.09z"/>
	<rect x="594.9" y="557.3" transform="matrix(0.9459 -0.3246 0.3246 0.9459 -148.5979 225.785)" width="15.14" height="2"/>
	<rect x="597.14" y="564.25" transform="matrix(0.7684 -0.64 0.64 0.7684 -222.2849 516.304)" width="10.02" height="2"/>
	<rect x="600.73" y="568.74" transform="matrix(0.3623 -0.9321 0.9321 0.3623 -142.6684 930.9628)" width="16.52" height="2"/>
	<path d="M557.44,516.81c-0.22,0-0.45-0.02-0.67-0.07l-1.73-0.38l0.43-1.95l1.73,0.38c0.32,0.07,0.65,0,0.91-0.18
		c0.27-0.19,0.44-0.47,0.48-0.8l0.18-1.4c0.12-0.89,0.61-1.69,1.35-2.2c0.74-0.51,1.67-0.67,2.54-0.46l3.44,0.85
		c0.37,0.09,0.75,0,1.03-0.25c0.29-0.25,0.43-0.61,0.4-0.99l-0.17-1.92c-0.09-1.02,0.3-2,1.07-2.67c0.77-0.67,1.79-0.93,2.79-0.69
		l2.25,0.53c0.37,0.09,0.74-0.01,1.03-0.26c0.28-0.25,0.43-0.61,0.39-0.99c-0.11-1.1,0.35-2.15,1.23-2.82
		c0.88-0.67,2.02-0.83,3.05-0.43l2.58,0.99l-0.72,1.87l-2.58-0.99c-0.38-0.15-0.79-0.09-1.12,0.16c-0.33,0.25-0.49,0.63-0.45,1.04
		c0.1,1.03-0.29,2-1.06,2.68c-0.77,0.68-1.8,0.94-2.8,0.7l-2.25-0.53c-0.37-0.08-0.74,0.01-1.03,0.25c-0.28,0.25-0.43,0.6-0.39,0.98
		l0.17,1.92c0.09,1.02-0.31,2.02-1.09,2.68s-1.83,0.92-2.82,0.67l-3.44-0.85c-0.32-0.08-0.65-0.02-0.93,0.17
		c-0.28,0.19-0.45,0.47-0.5,0.81l-0.18,1.4c-0.12,0.87-0.59,1.66-1.32,2.17C558.72,516.61,558.09,516.81,557.44,516.81z"/>
	<path d="M1210.27,190.71c-0.03,0-0.05,0-0.08,0c-1.02-0.03-1.9-0.63-2.3-1.56l-1.62-3.76c-0.14-0.32-0.42-0.36-0.54-0.36
		c0,0,0,0-0.01,0c-0.12,0-0.41,0.04-0.54,0.37l-1.81,4.52l-1.86-0.74l1.81-4.52c0.39-0.98,1.32-1.61,2.37-1.63c0.01,0,0.02,0,0.03,0
		c1.04,0,1.97,0.61,2.38,1.56l1.62,3.76c0.13,0.31,0.41,0.35,0.53,0.36c0.11,0,0.39-0.02,0.54-0.33l1.17-2.34
		c0.39-0.78,1.14-1.31,2-1.41c0.87-0.11,1.72,0.22,2.28,0.89l1.93,2.25c0.21,0.24,0.47,0.21,0.57,0.19c0.1-0.02,0.35-0.1,0.44-0.41
		l1.17-3.91c0.26-0.86,0.93-1.52,1.81-1.76c0.87-0.24,1.79-0.01,2.44,0.61l3.78,3.54c0.22,0.21,0.48,0.17,0.58,0.13
		c0.1-0.03,0.33-0.13,0.4-0.43l0.74-3.2c0.21-0.89,0.84-1.59,1.71-1.88c0.87-0.29,1.8-0.1,2.49,0.49l2.71,2.31
		c0.24,0.2,0.49,0.14,0.59,0.1c0.1-0.04,0.33-0.15,0.38-0.46l0.51-3.17c0.15-0.94,0.81-1.72,1.71-2.03c0.91-0.31,1.9-0.1,2.6,0.55
		c0.26,0.24,0.53,0.15,0.64,0.11c0.11-0.05,0.35-0.19,0.35-0.54v-2.28h2v2.28c0,1.05-0.59,1.95-1.55,2.37
		c-0.96,0.42-2.03,0.24-2.8-0.47c-0.23-0.22-0.49-0.16-0.59-0.12c-0.1,0.03-0.34,0.15-0.39,0.46l-0.51,3.17
		c-0.15,0.93-0.77,1.69-1.66,2.02c-0.89,0.33-1.85,0.16-2.57-0.46l-2.71-2.31c-0.23-0.19-0.47-0.14-0.57-0.11
		c-0.09,0.03-0.32,0.14-0.39,0.43l-0.74,3.2c-0.21,0.91-0.87,1.62-1.77,1.9c-0.9,0.27-1.84,0.05-2.53-0.59l-3.78-3.54
		c-0.22-0.2-0.46-0.16-0.56-0.14c-0.1,0.03-0.33,0.12-0.41,0.4l-1.17,3.91c-0.27,0.91-1.02,1.59-1.94,1.79
		c-0.93,0.2-1.89-0.13-2.5-0.85l-1.93-2.25c-0.19-0.22-0.42-0.21-0.52-0.2c-0.09,0.01-0.33,0.07-0.46,0.32l-1.17,2.34
		C1212.14,190.16,1211.26,190.71,1210.27,190.71z"/>
	<rect x="1210.61" y="173.6" transform="matrix(0.5038 -0.8638 0.8638 0.5038 446.4734 1135.5005)" width="2" height="11.05"/>
	<rect x="1221.08" y="169.1" transform="matrix(0.4856 -0.8742 0.8742 0.4856 474.5748 1158.9305)" width="2" height="14.19"/>
	<rect x="1231.33" y="168.27" transform="matrix(0.4286 -0.9035 0.9035 0.4286 547.0336 1212.7932)" width="2" height="11.3"/>
	<path d="M1124.44,950.37l-1.84-0.78l3.06-7.2c0.74-1.74,2.2-3.03,4.02-3.55c1.82-0.52,3.74-0.19,5.29,0.9l3.18,2.24
		c1.11,0.78,2.48,0.99,3.77,0.55c1.29-0.43,2.26-1.42,2.68-2.71l0.55-1.71c0.62-1.95,2.17-3.46,4.12-4.05
		c1.95-0.59,4.08-0.18,5.67,1.09l3.23,2.57c1.11,0.88,2.52,1.15,3.87,0.73c1.35-0.41,2.37-1.43,2.79-2.78l0.83-2.67
		c0.61-1.96,2.08-3.45,4.04-4.07c1.96-0.63,4.02-0.27,5.66,0.97l3.71,2.81c1.12,0.85,2.53,1.09,3.87,0.65
		c1.34-0.44,2.33-1.47,2.73-2.82l1.39-4.73c0.61-2.07,2.21-3.65,4.29-4.24c2.07-0.58,4.27-0.06,5.87,1.39l2.98,2.71
		c1.11,1.01,2.64,1.36,4.08,0.91c1.44-0.44,2.51-1.58,2.87-3.04c0.53-2.18,2.13-3.87,4.29-4.5c2.15-0.63,4.41-0.09,6.04,1.46
		l4.64,4.41l-1.38,1.45l-4.64-4.41c-1.11-1.05-2.64-1.42-4.1-0.99c-1.46,0.43-2.55,1.57-2.91,3.06c-0.52,2.16-2.1,3.83-4.22,4.48
		c-2.12,0.65-4.37,0.15-6.01-1.35l-2.98-2.71c-1.08-0.99-2.57-1.34-3.98-0.94c-1.41,0.4-2.5,1.47-2.91,2.87l-1.39,4.73
		c-0.58,1.96-2.08,3.51-4.02,4.15c-1.95,0.64-4.08,0.28-5.71-0.95l-3.71-2.81c-1.11-0.84-2.51-1.08-3.84-0.66
		c-1.33,0.42-2.33,1.43-2.74,2.76l-0.83,2.67c-0.61,1.96-2.15,3.49-4.11,4.1c-1.96,0.6-4.09,0.2-5.7-1.08l-3.23-2.57
		c-1.1-0.88-2.5-1.15-3.85-0.74c-1.35,0.41-2.37,1.41-2.8,2.75l-0.55,1.71c-0.61,1.91-2.05,3.36-3.95,4
		c-1.9,0.64-3.92,0.34-5.56-0.82l-3.18-2.24c-1.05-0.74-2.35-0.96-3.59-0.61c-1.23,0.35-2.23,1.23-2.73,2.41L1124.44,950.37z"/>
	<path d="M1059.09,900.82h-2v-9.59c0-1.32-0.68-2.5-1.81-3.17c-1.13-0.67-2.5-0.69-3.65-0.06l-4.23,2.33
		c-1.78,0.98-3.89,0.95-5.63-0.09c-1.75-1.03-2.79-2.86-2.79-4.89v-3.3c0-1.25-0.6-2.37-1.64-3.07c-1.04-0.7-2.31-0.82-3.46-0.33
		l-5.43,2.27c-1.76,0.74-3.76,0.55-5.34-0.51c-1.59-1.06-2.54-2.83-2.54-4.73v-1.09c0-1.25-0.59-2.36-1.63-3.06
		c-1.04-0.7-2.3-0.83-3.45-0.35l-5.2,2.13c-1.76,0.72-3.75,0.52-5.32-0.54c-1.58-1.06-2.52-2.82-2.52-4.72
		c0-1.26-0.6-2.38-1.65-3.07c-1.05-0.7-2.32-0.81-3.47-0.32l-4.04,1.71c-1.56,0.66-3.31,0.59-4.81-0.18
		c-1.5-0.77-2.58-2.15-2.95-3.8l-0.52-2.28c-0.25-1.08-0.95-1.98-1.93-2.47c-0.99-0.5-2.13-0.53-3.14-0.08l-7.18,3.15l-0.8-1.83
		l7.18-3.15c1.56-0.68,3.33-0.64,4.85,0.13c1.52,0.77,2.61,2.16,2.99,3.82l0.52,2.28c0.24,1.07,0.94,1.96,1.91,2.46
		c0.97,0.5,2.11,0.54,3.12,0.12l4.04-1.71c1.76-0.75,3.76-0.56,5.36,0.5c1.59,1.06,2.54,2.83,2.54,4.74c0,1.25,0.59,2.36,1.63,3.06
		c1.04,0.7,2.29,0.82,3.45,0.35l5.2-2.13c1.76-0.72,3.75-0.52,5.32,0.54c1.58,1.06,2.52,2.82,2.52,4.72v1.09
		c0,1.25,0.6,2.37,1.64,3.07s2.31,0.82,3.46,0.33l5.43-2.27c1.76-0.73,3.76-0.54,5.34,0.51c1.59,1.06,2.53,2.83,2.53,4.73v3.3
		c0,1.32,0.68,2.5,1.81,3.17c1.13,0.67,2.5,0.69,3.65,0.06l4.23-2.33c1.78-0.98,3.89-0.95,5.63,0.09c1.75,1.03,2.79,2.86,2.79,4.89
		V900.82z"/>
	<g>
		<g>
			<path d="M1283.96,594.24c-9.24,15-33.84,22.86-45.82,6.74c-13.31-17.92-3.82-56.03,23.88-57.63c6.32-0.37,12.62,1.7,17.6,5.82
				C1292.26,559.64,1294.32,577.42,1283.96,594.24z"/>
		</g>
	</g>
	<g>
		<g>
			<path class="st6" d="M1252.37,574.38c-3.4,10.51-7.3,22.13-12.19,16.17c-3.04-3.71-4.89-12.63-2.72-21.11
				c1.71-6.68,6.49-13.09,11.24-16.45c2.46-1.74,4.95-2.14,6.94-1.08C1260.72,554.6,1256.18,562.59,1252.37,574.38z"/>
		</g>
	</g>
	<g>
		<g>
			<path class="st6" d="M1060.33,282.47c-5.13,5.49-10.9,11.5-13.27,5.24c-1.47-3.89-0.78-10.74,2.92-15.43
				c2.91-3.7,8.13-5.8,12.6-5.87c2.32-0.03,4.33,0.85,5.63,2.48C1071.49,273.04,1066.08,276.31,1060.33,282.47z"/>
		</g>
	</g>
	<g>
		<g>
			<path class="st6" d="M725.16,583.94c0.07-3.59,0.21-7.57,2.96-6.11c1.71,0.91,5,8.12,1.23,12.53c-0.71,0.83-1.76,1.09-2.71,0.92
				C724.23,590.86,725.08,587.96,725.16,583.94z"/>
		</g>
	</g>
	<g>
		<g>
			<path d="M797.11,677.23c0.43-0.93-0.34-1.84-2.26-2.55c-3.83-1.41-11.28-2.42-25.73-1.42c-13.32,0.92-20.01,3.73-23.36,6.14
				c-1.79,1.29-1.65,2.26-0.01,2.99C765.89,685.81,786.56,683.13,797.11,677.23z"/>
		</g>
	</g>
	<path d="M1147.17,591.59c-1.67-7.45-6.26-30.34-6.31-30.57l1.96-0.39c0.05,0.23,4.63,23.09,6.3,30.52L1147.17,591.59z"/>
	<path d="M1167.44,594.02c-2.06-2.99-3.86-6.97-4.94-10.91c-0.38-1.38-0.73-2.72-1.06-4.01c-1.69-6.47-3.02-11.59-6.25-14.54
		l1.35-1.48c3.67,3.35,5.07,8.72,6.84,15.51c0.33,1.28,0.68,2.61,1.06,3.98c1.03,3.74,2.72,7.5,4.66,10.31L1167.44,594.02z"/>
	<path d="M1176.93,594.48l-2-0.06c0.05-1.57-0.1-3.62-0.25-5.79c-0.15-2.23-0.33-4.75-0.33-7.19c0-4.45,1.1-8.79,2.94-11.63
		l1.68,1.09c-1.64,2.53-2.62,6.46-2.62,10.54c0,2.36,0.16,4.75,0.32,7.05C1176.83,590.71,1176.98,592.81,1176.93,594.48z"/>
	<path d="M1241.72,674.02c-2.12,0-4.21-0.89-5.68-2.6l-16.65-19.46l1.52-1.3l16.65,19.46c1.93,2.26,5.36,2.56,7.65,0.66l49.6-45.17
		c2.72-2.33,5.78-4.28,9.11-5.8l0.83,1.82c-3.16,1.44-6.06,3.29-8.62,5.48l-49.61,45.18
		C1245.12,673.45,1243.41,674.02,1241.72,674.02z"/>
	<path d="M1245.02,761.01c-8.55,0-17.56-3.69-25.34-13.55l-19.16-21.21l1.48-1.34l19.21,21.26c14.06,17.81,32.31,14.28,43.66,5.87
		c9.08-6.73,21.72-17.49,37.57-31.99l1.35,1.48c-15.9,14.54-28.6,25.35-37.73,32.12C1260.28,757.92,1252.84,761.01,1245.02,761.01z"
		/>
	<path d="M1120.51,597.55c-1.11-1.95-2.03-3.9-2.98-6.34l1.87-0.72c0.92,2.37,1.77,4.19,2.85,6.07L1120.51,597.55z"/>
	<path d="M1132.29,594.05c-1.62-3.03-4.66-9.31-6.82-17.29l1.93-0.52c2.1,7.79,5.07,13.91,6.65,16.86L1132.29,594.05z"/>
	<path d="M1270.32,623.41c-16.17,0-31.01-8.83-38.73-23.05l1.76-0.96c7.37,13.57,21.54,22.01,36.97,22.01V623.41z"/>
	<path d="M999.22,322.47c-1.59,0-3.54-0.86-5.61-2.52c-2.28-1.82-5.81-4.67-8.7-6.99l1.26-1.56c2.89,2.33,6.41,5.17,8.69,6.99
		c2.13,1.71,4.2,2.47,5.15,1.89c0.86-0.52,1.06-2.29,0.57-4.87c-0.59-3.08-0.44-5.55,0.46-7.36l1.79,0.89
		c-0.48,0.97-0.92,2.81-0.29,6.09c0.69,3.6,0.19,5.94-1.5,6.96C1000.51,322.31,999.89,322.47,999.22,322.47z"/>
	<path d="M1072.4,333.39l-1.43-1.4l26.78-27.42c9.4-9.63,24.64-10.15,34.68-1.19l-1.33,1.49c-9.24-8.25-23.26-7.77-31.91,1.09
		L1072.4,333.39z"/>
	<rect x="1099.94" y="351.76" transform="matrix(0.7054 -0.7088 0.7088 0.7054 79.6708 897.2149)" width="38.52" height="2"/>
	<path d="M702.04,597.75l-6.1-9.03c-2.15-2.84-5.34-4.69-8.93-5.16c-3.59-0.46-7.14,0.51-9.99,2.74l-1.23-1.57
		c3.28-2.57,7.35-3.69,11.48-3.15c4.13,0.54,7.78,2.66,10.3,5.98l6.13,9.07L702.04,597.75z"/>
	<rect x="724.15" y="656.81" transform="matrix(0.0508 -0.9987 0.9987 0.0508 41.5014 1359.2747)" width="23.32" height="2"/>
	<rect x="798.51" y="617.22" transform="matrix(0.9697 -0.2444 0.2444 0.9697 -131.4858 214.7143)" width="2" height="40"/>
</g>
</svg>
