<svg xmlns="http://www.w3.org/2000/svg" viewBox="0 0 1920 1080" style="enable-background:new 0 0 1920 1080" xml:space="preserve"><style>.st1{fill:#fff}.st2{fill:#274d76}.st3{fill:#fff3a1}.st4{fill:#f2bdba}.st5{fill:#93b4f6}</style><g id="BG"><circle cx="958.91" cy="513.36" r="377.5" style="fill:#ec8c92"/><path class="st1" d="m630.55 433.08-1.97-.34c.1-.58 10.48-58.45 50.61-102.83l1.48 1.34c-39.74 43.95-50.02 101.26-50.12 101.83zm54.7-139.85-1.65-1.12c.32-.47 32.44-47.06 83.97-69.79l.81 1.83c-50.99 22.49-82.81 68.62-83.13 69.08zm629.12 213.28h-2c0-71.77-32.57-136.82-32.9-137.47l1.78-.9c.33.65 33.12 66.11 33.12 138.37zm-38.94-37.42c-1.54-28.59-10.85-52.65-10.94-52.89l1.86-.73c.09.24 9.51 24.59 11.08 53.51l-2 .11z"/><path d="m567.81 419.48-1.96-.42c.12-.58 12.75-58.15 57.01-116.33l1.59 1.21c-43.99 57.83-56.52 114.97-56.64 115.54zm62.52-160.89-1.53-1.28c.12-.14 11.85-14.12 26.81-28.24l1.37 1.45c-14.88 14.04-26.54 27.93-26.65 28.07zm49.46-28.14-1.52-1.3c.17-.2 17.31-20 50.02-42.32 30.17-20.59 80.15-47.61 146.96-59.46l.35 1.97c-66.46 11.79-116.18 38.67-146.18 59.14-32.5 22.17-49.47 41.77-49.63 41.97zm655.66 154.25c-16.83-68.6-70.23-127.82-70.77-128.41l1.48-1.35c.54.59 54.28 60.2 71.23 129.28l-1.94.48zm14.83 99.87c-1.99-24.95-6.75-46.79-10.39-60.72l1.94-.51c3.66 14.01 8.45 35.97 10.45 61.07l-2 .16zm10.85 94.3-1.95-.45c1.72-7.44 3.22-15.51 4.46-23.98l1.98.29c-1.25 8.52-2.77 16.64-4.49 24.14zm8.19-61.57-2-.11c1.57-28.8.18-56.57-3.47-69.1l1.92-.56c3.71 12.73 5.13 40.77 3.55 69.77zm-31.47 91.11-1.9-.61c3.51-10.92 6.49-26.12 8.86-45.15l1.98.25c-2.38 19.15-5.39 34.46-8.94 45.51zm10.74-62.22-1.99-.18c.73-7.92 1.05-13.18 1.05-13.24l2 .12c-.01.05-.33 5.36-1.06 13.3zm-202.5-376.86c-52.41-33.36-140.19-44.82-141.07-44.93l.25-1.98c.22.03 22.45 2.89 50.9 9.86 26.28 6.44 63.39 17.8 91 35.37l-1.08 1.68zm-43.72-35.91c-14.06-6.2-46.73-13.57-47.06-13.64l.44-1.95c.33.07 33.19 7.48 47.43 13.77l-.81 1.82zM676.91 801.94a290.75 290.75 0 0 1-12.45-10.42l1.33-1.5c4 3.54 8.16 7.03 12.37 10.35l-1.25 1.57zm-33.79-31.4c-57.31-62.5-68.29-130.7-68.4-131.38l1.98-.3c.1.68 11.01 68.3 67.89 130.33l-1.47 1.35zm15.71-5.17c-20.52-16.92-39.7-55.53-39.89-55.92l1.79-.88c.19.38 19.19 38.61 39.37 55.26l-1.27 1.54zm198.76 128.4c-29.17-5.58-57.99-15.5-85.66-29.49l.9-1.79c27.51 13.9 56.15 23.76 85.14 29.31l-.38 1.97zm-121-50.1c-14.34-9.6-22.37-16.72-22.45-16.79l1.33-1.49c.08.07 8.02 7.11 22.23 16.62l-1.11 1.66zm240.43 71.11-.1-2c7.4-.36 14.64-.92 21.51-1.66l.22 1.99c-6.91.75-14.19 1.31-21.63 1.67zm-26.29.46c-45.78-.5-84.14-7.36-84.53-7.43l.36-1.97c.38.07 38.59 6.91 84.19 7.4l-.02 2z"/><path class="st1" d="M731.93 784.04c-63.08-44.23-86.32-114.39-86.55-115.09l1.9-.62c.23.7 23.28 70.24 85.8 114.07l-1.15 1.64zm137.92 76.53c-49.51-8.7-99.08-41.84-99.57-42.18l1.12-1.66c.49.33 49.72 33.24 98.8 41.86l-.35 1.98zm-81.45-60.11c-13.18-4.13-29.09-18.88-29.76-19.5l1.36-1.46c.16.15 16.25 15.06 28.99 19.06l-.59 1.9z"/></g><g id="Astro"><path class="st1" d="M1025.28 189.98c-10.05 6.12-53.76 31.7-85.31 55.76a31.205 31.205 0 0 0-10.73 15.08c-4.09 12.49-7.76 26.36-8.8 30.38-.24.93-.12 1.92.36 2.75 2.95 5.2 19.12 23.1 107.22 54.26l20.68-44.73s-13.06-83.23-17.07-111.03c-.41-2.79-3.62-4.13-6.35-2.47z"/><path class="st2" d="m1224.26 690.22-108.45 12.74a52.68 52.68 0 0 0-40.92 28.67l-48.54 97.53a10.078 10.078 0 0 1-11.17 5.32l-17.25-3.8c-12.1-2.67-24.19 4.51-27.64 16.41l-2.7 9.33a11.27 11.27 0 0 0 5.64 13.15l79.63 41.27c5.28 2.73 11.77.9 14.84-4.19l80.03-130.33 110.61-6.97-34.08-79.13zm-61.38-83.28 7.91-19.84 65.43 3.51-23.77 89.83zm-8.26-47.95s7.19-18.61 7.08-28.72c-.14-13.45 1.32-40.82-7.25-39.53-5.22.78-6.78 13.44-7.42 18.88-.25 2.15-1.08 4.21-2.52 5.83-2.05 2.31-4.96 3.2-6.49-7.27-2.49-17.06-1.95-49.89-11.86-43.88-5.02 3.05-2.33 32.86-5.17 31.54-2.84-1.32-2.49-46.34-14.57-41.43-3.99 1.62-3.09 23.13-2.27 35.16.05.67-.93.81-1.08.15-1.63-7.27-4.13-17.86-6.13-24.07-2.15-6.69-7.15-3.19-7.15 1.69 0 10.5 1.78 32.61 1.78 32.61l63.05 59.04z"/><path class="st3" d="m1322.57 618.72 18 31-42 135c-3.94 13.69-19.6 22.23-33.66 19.89l-54.06-6c-6.94-1.16-9.43 2.4-7 9l23.33 107.05c3.96 10.77-2.18 22.61-13.27 25.58l-80.44 21.5c-7.79 2.08-15.57-3.36-16.28-11.39l-4.63-27.63c-.19-2.11-.79-10.58 4-14 7-5 18-12 18-12 3.71-1.99 4.09-7.94 3-12L1107 765.88c-4.99-18.59 6.58-33 25.57-36.16 24-4 64-13 64-13l17.13-111.75c2.25-8.87 10.44-14.94 19.59-14.5l26.28 1.25 63 27z"/><circle transform="rotate(-76.714 1270.427 579.367)" class="st3" cx="1270.32" cy="579.36" r="43.05"/><path class="st1" d="m879.4 578.86 143.06-129.42c7.39-6.69 18.2-6.16 26.95-1.39 17.69 9.65 48.03 26.9 75.09 56.22 22.72 24.62 60.47 63.71 64.93 96.8.51 3.79-.81 7.59-3.46 10.34-43.62 45.19-132.35 128.42-142.27 136.88-23.48 20.03-84.37-25.19-119.06-65.51-14.49-16.83-63.37-86.82-45.24-103.92z"/><path class="st3" d="M1345.47 626.64c-13.28-13.07-35.98-12.29-49.98-.29l-49.63 45.2a6.455 6.455 0 0 1-9.04-.78l-35.16-41.1a41.393 41.393 0 0 1-9.78-23.55l-1.27-15.67c-.09-1.06-.34-2.1-.76-3.08l-6.41-16.5c-.88-2.27-3.94-2.55-5.27-.51-1.8 2.77-2.78 6.94-2.78 11.08 0 8 1.88 16.64-1.12 16.64-4 0-8.75-7.86-10.78-15.24-2.33-8.49-3.49-15.26-7.6-19.02-1.86-1.7-5.17-.58-5.68 2.25-1.19 6.52.18 18.8.29 25.77.03 2-1.76 1.96-2.31-.47-1.69-7.53-6.3-30.54-6.3-30.54-.73-3.03-4.91-3.38-6.12-.5-3.46 8.27-2.17 26.26-1.54 32.95.06.59-.74.83-1.01.31-1.67-3.12-4.62-9.26-6.73-17.08-.47-1.74-2.85-2.12-3.73-.55-2.65 4.77-1.3 16.16-.59 20.84.07.44-.53.64-.75.26-1.15-2.02-2.03-3.93-2.92-6.21-1.15-2.95-3.62-1.26-3.83.61-.7 6.31-1.06 15.33 1.62 26.89.97 4.17 4.48 16.68 20.21 35.49l84 93c15 19 34.22 13.99 45 6 27-20 76.84-69.27 76.84-69.27 18.96-16 14.99-45.26 3.13-56.93z"/><path class="st4" d="M969.83 656.03c-50.2-53.66-76.37-69.13-89.15-70.56a4.72 4.72 0 0 0-5.26 4.74c.15 26.14 36.97 78.35 49.21 92.59 27.94 32.49 72.91 68.16 101.61 70.31 2.2.16 3.98-1.75 3.73-3.93-1.74-15.34-13.86-43.68-60.14-93.15zm-48.6-361.35c3.97 9.56 49.59 38.97 106.77 53.54l1.7-3.67c-22.19-19.45-60.55-38.97-89.03-46.32-10.44-2.69-16.13-3.94-19.44-3.55z"/><path d="M1030.73 209.25c-5.24-4.37-11.47-7.27-18.5-8.62l.38-1.96c7.37 1.42 13.89 4.46 19.4 9.04l-1.28 1.54z"/><path class="st5" d="m1107.19 540.95-21.17-17.73a15.647 15.647 0 0 0-11.93-3.55c-17.15 2.06-61.99 8.09-77.02 16.35-5.57 3.06-17.63 16.42-17.63 16.42-4.37 4.53-4.39 11.7-.04 16.26l27.52 30.41a5.329 5.329 0 0 0 7.33.55l22-18.02c2.38-1.95 2.62-5.51.52-7.77l-4.43-4.74c-1.77-1.66-.95-4.63 1.43-5.14l71.54-15.36c3.56-.79 4.69-5.33 1.88-7.68zm-32.97 31.01c-3.44-2.44-7.72-2.65-10.96.03l-66.46 54.89c-4 3.3-4.25 11.33-.86 15.26 2.63 3.05 7.93 9.13 10.5 12.25 4.75 5.77 12.55 5.95 16.38 2.46l17.94-16.35a4.026 4.026 0 0 1 5.65.23l3.8 4.08a7.12 7.12 0 0 0 9.99.32l19.81-18.3c3.75-3.47 3.78-9.39.05-12.89l-1.83-1.72c-1.71-1.6-1.69-4.33.04-5.9l9.12-8.31c3.4-3.1 4.61-10.05.32-14.1.01 0-9.04-8.78-13.49-11.95z"/><path d="M929.34 300.03c12.61 9.93 45.57 27.99 86.28 41.2l1.34-2.81c-16.82-14.29-55.13-32.04-86.8-40.06-.99-.25-1.63 1.04-.82 1.67zm-45.36 295.83c5.72-7.24 56.26 39.91 73.39 57.38 29.32 29.89 71.9 87.74 61.64 90.44-6.39 1.68-45.92-20.46-87.65-67.63-31.75-35.9-50.91-75.72-47.38-80.19z"/><path class="st2" d="m1221.65 178.66-1.48-8.98c-1.23-7.47-8.62-11.13-15.76-8.59-9.36 3.32-21.5 7.26-28.08 12.38a9.786 9.786 0 0 0-3.76 8.52c2.41 29.23 5.17 52.01 6.48 62.07.46 3.57-.72 7.16-3.22 9.75l-29.2 30.37 29.61 15.14 55.43-51.65-10.02-69.01z"/><path class="st3" d="m1028.01 348.22 21.18-45.81a23.635 23.635 0 0 1 20.13-13.67l43.89-2.43c10.8-.6 21.31-3.72 30.69-9.11a24.649 24.649 0 0 1 24.77.12c5.02 2.95 11.36 2.4 15.8-1.37l15.85-13.46a7.567 7.567 0 0 0 2.65-6.24c-.84-12.74-3.51-54.46-3.85-74.8a7.29 7.29 0 0 1 4.08-6.68c10.55-5.15 27.07-7.66 39.73-5.5 3.13.53 5.58 3.1 5.78 6.27.85 13.88-8.63 28.75-8.63 28.75l8.35 62.77a37.95 37.95 0 0 1-15.38 35.75l-52.73 38.12c-4 2.89-8.16 5.57-12.46 8a135.274 135.274 0 0 1-32.48 13.2l-40.41 10.57-66.96-24.48z"/><path class="st2" d="m1046.18 307.06 24.55-3.72 19.08 20.27-36.98 35.19-19.56-22.1z"/><circle transform="rotate(-75.351 1072.949 286.854)" class="st3" cx="1072.92" cy="286.87" r="34.4"/><path class="st5" d="m984.88 274.27 6.51-10.05c1.1-1.7.43-3.98-1.42-4.81l-2.72-1.22c-1.64-.74-1.85-2.98-.37-4.01l29.07-20.15c1.47-1.02 1.14-3.28-.56-3.85l-13.31-4.39c-1.58-.52-3.3-.29-4.69.63l-28.62 18.95a12.222 12.222 0 0 0-4.14 4.63l-4.02 7.84c-2.03 3.96-.29 8.81 3.79 10.57l16.39 7.09c1.49.65 3.22.12 4.09-1.23zm34.37-4.44-1.48-.92a3.087 3.087 0 0 1-1.18-3.9l1.96-4.3c1.15-2.52.17-5.5-2.25-6.85l-6.57-3.66c-2.58-1.43-5.83-.5-7.24 2.09l-19.85 36.18a5.324 5.324 0 0 0 1.69 6.97l7.03 4.73c2.59 1.74 6.12.88 7.63-1.85l5.69-10.37a3.092 3.092 0 0 1 4.31-1.15l.78.48c1.71 1.05 3.95.41 4.85-1.38l5.87-11.6c.82-1.59.27-3.53-1.24-4.47z"/><path class="st3" d="M1131.76 304.13c-9.62-8.59-24.29-8.08-33.3 1.14l-26.78 27.42a8.313 8.313 0 0 1-8.06 2.23l-39.81-10.45c-2.75-.72-5.24-2.2-7.19-4.27l-11.43-12.12c-.95-1.01-2.66-.83-3.27.41-.63 1.27-1.02 3.35-.37 6.72 1.44 7.5-2.91 7.48-7.33 3.94-2.28-1.82-5.81-4.66-8.69-6.99-2.19-1.77-5.42-.19-5.43 2.62-.02 3.42.47 7.34 2.44 9.53-4.02 12.06 2.73 26.38 13.42 32.16 12.34 6.67 78.85 27.22 78.85 27.22a18.35 18.35 0 0 0 18.2-4.65l39.77-39.94c9.76-9.78 9.29-25.76-1.02-34.97z"/><path d="M1052.16 264.09c-4.26 3.09-7.58 7.54-9.55 12.84-4.44 11.95-.25 24.79 9.11 32.46 5.04 4.13 12.73 5.11 20.37.39 4.97-3.07 8.73-8.01 10.91-13.87 3.82-10.27 1.24-20.92-5.58-28.55-5.6-6.25-18.16-8.43-25.26-3.27z"/><path class="st1" d="M803.13 651.44c-3.82-14.56-8.07-33.32-10.31-39.69-.09-.25-.4-.94-.63-1.09-2.01-1.34-13.81-6.99-27.47-4.71-4.23.71-18.75-.64-24.56 3.77-1.8 1.36-2.48 3.66-2.64 5.91-.82 12.13-2.84 49.61-2.5 62.26.06 2.27 1.62 4.31 3.85 4.76 24.61 5.01 53.23 2.7 65.98-6.93 1.41-1.07 2.2-2.76 2.04-4.53-.32-3.39-1.2-10-3.76-19.75z"/><path class="st2" d="m662.51 554.31-40.66-12.71a4.523 4.523 0 0 1-3.12-4.95l6.28-43.93a5.68 5.68 0 0 0-4.81-6.42l-25.4-3.88c-1.19-.17-3.75.72-3.75 4.14 0 1.67.46 2.6 1.31 3.62l4.59 5.53a4.617 4.617 0 0 1 1.01 3.71l-5.43 33.6 18.59 39.59 45.17 4.83 6.22-23.13z"/><path class="st3" d="m582.18 497.63 35.34 55.59c.95 1.5 2.47 2.56 4.2 2.95l7.92 1.76c2.63.58 5.38.12 7.67-1.28l3.06-1.87a24.282 24.282 0 0 1 20.23-2.38l48.48 15.81-14.17 44.19-47.8-11.66c-4.15-1.01-8.23-2.25-12.24-3.72-5.96-2.18-14.68-5.51-19.99-8.12-13.69-6.73-18.18-11.97-20.41-16.15-7.09-13.29-24.61-43.41-26.82-46.97-2.87-4.62-9.18-5.02-12.53-5.89-2.07-.54-3.59-1.45-4.43-3.42l-.43-1c-.51-1.19-.11-2.57.95-3.31l23.22-16.22a5.402 5.402 0 0 1 7.75 1.69z"/><path class="st2" d="m730.7 598.46 42.78-.03c3.49-.02 7.09 1.02 8.93 3.13 1.1 1.26 3.06 3.98 4.1 5.29.72.92.46 2.11-.58 1.86l-5.19-1.86.92 3.18c.63 1.72-.94 2.5-2.27 1.83l-5.17-2.44c.13 1.44-1.39 2.46-2.68 1.79-2.38-1.24-3.29-2.04-6.58-4.28-.82-.55-1.79-.83-2.78-.78-8.82.44-15.04 1.54-20.42 3.74-3.99 1.63-4.09 5.78-4.16 7.08-.12 2.19-3.08 8.75-3.08 8.75l-27.85-5.73-4.93-18.54 28.96-2.99z"/><ellipse class="st3" cx="714.44" cy="580.52" rx="21.96" ry="22.88"/><path class="st1" d="M723.99 634.54s-13.51 23.86-15.54 37.96c-.65 4.54 2.66 8.71 7.22 9.25 4.04.47 10.29.7 19.7-.05-1.36-4.25 1.74-42.03 3.07-57.3.18-2.05-2.35-3.15-3.74-1.63l-10.71 11.77zm46.12-11.37c2.89 6.02 13.8 28.99 16.13 38.21.29 1.14-.61 2.22-1.78 2.15-10.67-.71-20.97.85-25.36 1.65-1.12.2-2.12-.71-2.03-1.84l2.98-36.79c.05-.65.47-1.22 1.07-1.46l6.77-2.76c.85-.35 1.82.02 2.22.84z"/><path class="st5" d="M783.73 653.95c-4.94-12.92-14.33-32.24-14.33-32.24l-2.21.9 10.48 40.74c2.91-.03 5.95.15 8.99.44-.14-1.94-1.29-5.53-2.93-9.84"/><path class="st2" d="M786.67 663.79c-.01-.17-8.07-6.71-8.07-6.71a4.367 4.367 0 0 0-4.75-.36l-15.75 8.63c3.8-.73 16.18-2.76 28.57-1.56z"/><path d="M706.99 587.24c-.37 3.99.52 7.74 2.29 10.89 1.19 2.11 3.43 3.47 5.86 3.47h.04c10.94 0 19.81-9.24 19.81-20.64v-.07c-.02-4.81-3.46-8.9-8.01-9.66-1.39-.23-2.84-.29-4.33-.16-8.22.75-14.87 7.62-15.66 16.17z"/><path class="st3" d="m777.84 626.09-4.72.55c-.38.04-.57-.44-.27-.67l3.96-2.99c1.55-1.17.62-3.63-1.31-3.48-4.29.33-9.82.79-13.77 1.21-.65.07-.94-.81-.37-1.14 1.77-1.01 2.7-1.5 4.54-2.53 2.63-1.48.04-3.56-2.97-3.45-5.63.22-11.24 3.61-15.51 3.61-7.72 0-29.09-1.04-29.09-1.04a5.319 5.319 0 0 1-4.21-2.32l-17.36-25.69c-4.86-6.42-14.03-7.61-20.36-2.64-6.01 4.71-7.3 13.3-2.93 19.57l25.42 32.57c2.35 3.01 5.92 4.83 9.74 4.96l55.35-.84c6.6.01 11.24-5.97 11.83-9.08 1.7-1.15 2.91-2.41 3.78-3.55 1.01-1.34-.07-3.25-1.75-3.05z"/><path class="st1" d="M709.73 389.45s4.7 17.66 16.55 41.6c16.8 33.93 25 47.52 33.64 62.09 10.52 17.74 42.64 35.73 104.61-2.66 64.21-39.77 54.42-65.97 50.16-75.09-2.52-5.4-22.97-43.62-39.94-72.63a555.932 555.932 0 0 0-17.03-27.23 21.1 21.1 0 0 0-15.22-9.26c-16.9-1.91-52.7-1.72-89.51 24.95-50.75 36.78-43.26 58.23-43.26 58.23z"/><path class="st4" d="M917.27 434.81c1.69-8.53-1.99-17.25-9.16-22.19-18.18-12.54-53.79-13.08-98.94 15.44-49.61 31.34-50.76 57.86-43.38 72.55 14.46 14.27 45.64 22.76 98.73-10.13 38.05-23.56 50.11-42.36 52.75-55.67z"/><path d="M775.08 499.64c-6.17-8.83-6.29-36.49 40.02-66.28 46.68-30.03 87.63-21.49 93.65-5.3 6.02 16.19-27.52 45.84-64.88 64.82-33.8 17.18-61.95 16.55-68.79 6.76zm-40.1 175.64c-4.07-.01-8.36.21-12.65.55-9.66.77-10.96 3.81-10.05 4.74.85.87 2.14 1.34 3.39 1.48 4.04.47 12.38.74 21.26-.3-1.95-2.15-1.94-3.19-1.95-6.47z"/><path class="st1" d="M802.91 615.74c-2.89-3.57-4.54-3.13-9.82-3.21 2.24 7.74 6.14 24.05 10.04 38.92 3.9 14.86 3.92 22.42 3.92 22.42 4.9-.65 8.85-1.38 18.44-2.99 7.83-1.32 8.53-7.8 4.48-13.8l-27.06-41.34z"/><path class="st4" d="M803.22 676.87c.56-1.42-.36-2.84-2.71-4-4.67-2.32-13.81-4.14-31.62-3.14-16.42.92-24.75 4.98-28.94 8.56-2.24 1.92-2.09 3.4-.11 4.6 24.68 5.99 50.21 2.65 63.38-6.02z"/><path d="M826.51 671.06c1.98-.51 2.29-2.63 1.26-3.37-.44-.31-.96-.63-1.58-.95-4.87-2.5-12.65-2.47-20.09-1.58.94 5.78 1.11 7.17.05 9.13 6.06-.42 19.77-3.08 20.36-3.23z"/><path class="st5" d="M768.87 383.6c-2.91-7.32-3-15.48.43-20.83.8-1.25 2.27-3.29 1.53-4.57l-6.44-9.34c-1.36-2.36-4.91-.88-6.54 1.31-8.03 10.83-11.03 24.94-5.03 40 8.81 22.15 25.17 28.63 42.03 24.51 2.73-.67 4.06-3.76 2.65-6.19l-4.92-8.15c-1.08-1.87-3.15-2.9-5.31-2.73-7.28.59-14.48-4.17-18.4-14.01zm48.03-26.13c-12.75-20.19-33.01-23.27-46.28-18.23-2.32.88-3.37 3.57-2.13 5.72l7.24 9.81c.86 1.48 2.56 2.2 4.23 1.88 7.08-1.37 15.78 1.37 21.51 10.03 4.55 6.88 4.54 17.65-2.68 24.57-1.58 1.52-1.42 4.13-.32 6.03l4.62 7.97c1.83 3.15 5.92 3.45 8.71 1.12 13.08-10.92 14.04-34.74 5.1-48.9z"/><path d="M1102.53 356.06c-.69 0-1.39-.18-2.03-.55-4.9-2.85-13.74-8.42-17.89-13.59-1.17-1.46-1.14-3.59.09-5.07l12.99-15.66a4.047 4.047 0 0 1 5.53-.67c4.08 3.03 11.51 8.63 15.46 12.13a4.032 4.032 0 0 1 .58 5.45c-4.54 6.14-9.07 12.78-11.36 16.18a4.092 4.092 0 0 1-3.37 1.78zm-3.73-34.34c-.59 0-1.18.25-1.58.74l-12.99 15.66c-.62.75-.65 1.81-.06 2.54 4.1 5.11 13.49 10.88 17.34 13.12.93.54 2.12.27 2.72-.62 2.31-3.42 6.85-10.08 11.41-16.26.63-.86.51-2.05-.3-2.76-3.89-3.45-11.27-9.01-15.33-12.02-.36-.27-.79-.4-1.21-.4zm192.74 390.34c-.25 0-.5-.01-.76-.04a7.665 7.665 0 0 1-5.26-2.83l-21.55-26.75c-2.56-3.18-2.19-7.81.83-10.55l23.82-21.53a7.604 7.604 0 0 1 5.69-1.97c2.11.15 4.01 1.12 5.37 2.73l22.8 27.17c2.73 3.25 2.3 8.11-.94 10.84l-25.06 21.1a7.535 7.535 0 0 1-4.94 1.83zm-25.39-38.68a5.715 5.715 0 0 0-.62 7.81l21.55 26.75c.97 1.2 2.35 1.95 3.89 2.1 1.54.15 3.04-.32 4.22-1.31l25.06-21.1c2.4-2.02 2.71-5.62.7-8.03l-22.8-27.17c-1-1.2-2.42-1.92-3.98-2.02-1.56-.1-3.06.41-4.21 1.46l-23.81 21.51zm-92.33-8.23-1.56-1.25 11.23-14.09c.66-.83.43-1.7-.01-2.24-.44-.54-1.25-.94-2.2-.46l-12.69 6.53c-1.66.85-3.54.44-4.7-1.01-1.16-1.45-1.12-3.38.08-4.8l11.29-13.33c.7-.83.47-1.72.03-2.27-.45-.55-1.26-.97-2.22-.46l-32.71 16.65-.91-1.78 32.7-16.65c1.64-.87 3.54-.47 4.7.98 1.17 1.46 1.14 3.39-.06 4.82l-11.29 13.33c-.7.82-.48 1.71-.04 2.26.44.55 1.25.97 2.21.48l12.68-6.53c1.63-.84 3.5-.45 4.66.96 1.16 1.41 1.17 3.33.03 4.76l-11.22 14.1z"/><path transform="rotate(-69.653 1221.91 705.905)" d="M1200.91 704.9h41.98v2h-41.98z"/><path transform="rotate(-19.387 1258.65 718.603)" d="M1257.61 693.32h2v50.71h-2z"/><path transform="rotate(-8.401 1251.437 739.515)" d="M1250.19 727.51h2v23.77h-2z"/><path transform="rotate(-79.193 1227.072 728.069)" d="M1217.49 727.1h19.18v2h-19.18z"/><path transform="rotate(-28.49 1076.162 357.964)" d="M1075.09 338.93h2v38.04h-2z"/><path transform="rotate(-16.039 1069.756 368.57)" d="M1068.82 358.45h2v20.28h-2z"/><path transform="rotate(-86.612 1059.032 358.707)" d="M1044.42 357.72h29.34v2h-29.34z"/><path d="m1006.11 355.32-1.93-.52 5.14-19.22c.32-1.21 1.41-1.96 2.66-1.83 1.24.13 2.15 1.1 2.22 2.34l.57 11.51c.02.32.24.42.38.45.14.03.38.04.53-.25l7.42-14.64 1.78.9-7.41 14.64a2.445 2.445 0 0 1-2.73 1.3 2.45 2.45 0 0 1-1.96-2.3l-.57-11.51c-.02-.36-.28-.44-.43-.45-.15-.02-.42.01-.51.35l-5.16 19.23z"/><path transform="rotate(-80.944 1226.224 257.943)" d="M1225.16 243.13h2v29.64h-2z"/><path transform="rotate(-68.666 1227.064 269.91)" d="M1226.05 255.19h2v29.5h-2z"/><path transform="rotate(-40.714 1222.97 283.328)" d="M1222.03 268.44h2v29.79h-2z"/><path d="m1184.32 807.51-.11-.01-57.18-6.54.23-1.99 57.12 6.53c1.38-.02 2.13-.97 2.38-1.85.25-.89.08-2.11-1.14-2.83l-65.8-31.06c-2.05-1.22-2.82-3.51-1.96-5.63s3.02-3.23 5.24-2.69l52.19 11.61c1.5.36 2.49-.52 2.89-1.39.39-.85.43-2.14-.73-3.04l-43.72-21.61.89-1.79 43.95 21.74c2.06 1.51 2.2 3.87 1.43 5.54-.77 1.67-2.66 3.09-5.15 2.5l-52.19-11.61c-1.57-.38-2.56.57-2.94 1.5-.38.92-.33 2.29 1.04 3.11l65.8 31.06c1.88 1.12 2.68 3.11 2.13 5.13-.57 2.02-2.28 3.32-4.37 3.32zM691.86 618.82c-.21 0-.42-.01-.63-.04a4.384 4.384 0 0 1-3.05-1.95l-5.24-8.03c-1.31-2-.76-4.72 1.23-6.05l6.99-4.69a4.4 4.4 0 0 1 6.07 1.17l4.85 7.1c1.27 1.86.93 4.36-.78 5.82l-6.59 5.62c-.8.69-1.81 1.05-2.85 1.05zm1.75-19.49c-.46 0-.92.13-1.33.4l-6.99 4.69a2.41 2.41 0 0 0-.67 3.3l5.24 8.03c.38.58.98.96 1.66 1.06.69.1 1.37-.1 1.89-.55l6.59-5.62c.93-.8 1.12-2.16.42-3.17l-4.85-7.1c-.44-.68-1.2-1.04-1.96-1.04z"/><path transform="rotate(-46.346 706.07 626.024)" d="M698.15 625.01h15.86v2h-15.86z"/><path transform="rotate(-63.673 706.874 633.508)" d="M703.62 632.54h6.58v2h-6.58z"/><path transform="rotate(-78.164 714.484 629.296)" d="M704.49 628.27h19.9v2h-19.9z"/><path d="M738.25 635.09h-.14a3.16 3.16 0 0 1-2.88-2.17l-1.78-5.38 1.9-.63 1.78 5.38c.24.71.87.8 1.06.8.19 0 .83-.02 1.13-.71l1.73-4.05a3.15 3.15 0 0 1 2.34-1.87c1.05-.19 2.11.14 2.85.9l5.23 5.36c.46.47 1.02.42 1.4.21.38-.21.73-.66.58-1.3l-2.43-10.4 1.95-.45 2.43 10.4c.33 1.4-.3 2.81-1.56 3.5-1.27.69-2.79.46-3.8-.57l-5.23-5.36c-.28-.29-.67-.41-1.05-.33-.39.07-.71.33-.86.69l-1.73 4.05a3.147 3.147 0 0 1-2.92 1.93z"/><path transform="rotate(-18.94 602.453 558.282)" d="M594.9 557.3h15.14v2H594.9z"/><path transform="rotate(-39.79 602.18 565.234)" d="M597.14 564.25h10.02v2h-10.02z"/><path transform="rotate(-68.759 608.98 569.721)" d="M600.73 568.74h16.52v2h-16.52z"/><path d="M557.44 516.81c-.22 0-.45-.02-.67-.07l-1.73-.38.43-1.95 1.73.38c.32.07.65 0 .91-.18.27-.19.44-.47.48-.8l.18-1.4c.12-.89.61-1.69 1.35-2.2.74-.51 1.67-.67 2.54-.46l3.44.85c.37.09.75 0 1.03-.25.29-.25.43-.61.4-.99l-.17-1.92c-.09-1.02.3-2 1.07-2.67a3.11 3.11 0 0 1 2.79-.69l2.25.53c.37.09.74-.01 1.03-.26.28-.25.43-.61.39-.99-.11-1.1.35-2.15 1.23-2.82a3.13 3.13 0 0 1 3.05-.43l2.58.99-.72 1.87-2.58-.99c-.38-.15-.79-.09-1.12.16-.33.25-.49.63-.45 1.04.1 1.03-.29 2-1.06 2.68-.77.68-1.8.94-2.8.7l-2.25-.53c-.37-.08-.74.01-1.03.25-.28.25-.43.6-.39.98l.17 1.92c.09 1.02-.31 2.02-1.09 2.68s-1.83.92-2.82.67l-3.44-.85c-.32-.08-.65-.02-.93.17s-.45.47-.5.81l-.18 1.4a3.17 3.17 0 0 1-1.32 2.17c-.52.38-1.15.58-1.8.58zm652.83-326.1h-.08a2.56 2.56 0 0 1-2.3-1.56l-1.62-3.76a.575.575 0 0 0-.54-.36h-.01c-.12 0-.41.04-.54.37l-1.81 4.52-1.86-.74 1.81-4.52c.39-.98 1.32-1.61 2.37-1.63h.03c1.04 0 1.97.61 2.38 1.56l1.62 3.76c.13.31.41.35.53.36.11 0 .39-.02.54-.33l1.17-2.34a2.57 2.57 0 0 1 2-1.41c.87-.11 1.72.22 2.28.89l1.93 2.25c.21.24.47.21.57.19.1-.02.35-.1.44-.41l1.17-3.91c.26-.86.93-1.52 1.81-1.76.87-.24 1.79-.01 2.44.61l3.78 3.54c.22.21.48.17.58.13.1-.03.33-.13.4-.43l.74-3.2c.21-.89.84-1.59 1.71-1.88.87-.29 1.8-.1 2.49.49l2.71 2.31c.24.2.49.14.59.1.1-.04.33-.15.38-.46l.51-3.17c.15-.94.81-1.72 1.71-2.03.91-.31 1.9-.1 2.6.55.26.24.53.15.64.11.11-.05.35-.19.35-.54v-2.28h2v2.28c0 1.05-.59 1.95-1.55 2.37-.96.42-2.03.24-2.8-.47a.549.549 0 0 0-.59-.12.57.57 0 0 0-.39.46l-.51 3.17a2.57 2.57 0 0 1-1.66 2.02c-.89.33-1.85.16-2.57-.46l-2.71-2.31a.598.598 0 0 0-.57-.11.6.6 0 0 0-.39.43l-.74 3.2a2.58 2.58 0 0 1-1.77 1.9c-.9.27-1.84.05-2.53-.59l-3.78-3.54a.611.611 0 0 0-.56-.14c-.1.03-.33.12-.41.4l-1.17 3.91c-.27.91-1.02 1.59-1.94 1.79-.93.2-1.89-.13-2.5-.85l-1.93-2.25a.576.576 0 0 0-.52-.2c-.09.01-.33.07-.46.32l-1.17 2.34a2.54 2.54 0 0 1-2.3 1.43z"/><path transform="rotate(-59.748 1211.636 179.14)" d="M1210.61 173.6h2v11.05h-2z"/><path transform="rotate(-60.948 1222.024 176.2)" d="M1221.08 169.1h2v14.19h-2z"/><path transform="rotate(-64.621 1232.343 173.91)" d="M1231.33 168.27h2v11.3h-2z"/><path d="m1124.44 950.37-1.84-.78 3.06-7.2a6.19 6.19 0 0 1 4.02-3.55c1.82-.52 3.74-.19 5.29.9l3.18 2.24c1.11.78 2.48.99 3.77.55a4.188 4.188 0 0 0 2.68-2.71l.55-1.71a6.205 6.205 0 0 1 4.12-4.05 6.22 6.22 0 0 1 5.67 1.09l3.23 2.57c1.11.88 2.52 1.15 3.87.73a4.158 4.158 0 0 0 2.79-2.78l.83-2.67c.61-1.96 2.08-3.45 4.04-4.07 1.96-.63 4.02-.27 5.66.97l3.71 2.81c1.12.85 2.53 1.09 3.87.65a4.17 4.17 0 0 0 2.73-2.82l1.39-4.73a6.205 6.205 0 0 1 4.29-4.24c2.07-.58 4.27-.06 5.87 1.39l2.98 2.71a4.172 4.172 0 0 0 4.08.91 4.2 4.2 0 0 0 2.87-3.04c.53-2.18 2.13-3.87 4.29-4.5 2.15-.63 4.41-.09 6.04 1.46l4.64 4.41-1.38 1.45-4.64-4.41a4.184 4.184 0 0 0-4.1-.99 4.177 4.177 0 0 0-2.91 3.06 6.152 6.152 0 0 1-4.22 4.48c-2.12.65-4.37.15-6.01-1.35l-2.98-2.71a4.17 4.17 0 0 0-3.98-.94c-1.41.4-2.5 1.47-2.91 2.87l-1.39 4.73a6.227 6.227 0 0 1-4.02 4.15c-1.95.64-4.08.28-5.71-.95l-3.71-2.81a4.196 4.196 0 0 0-3.84-.66 4.139 4.139 0 0 0-2.74 2.76l-.83 2.67a6.242 6.242 0 0 1-4.11 4.1c-1.96.6-4.09.2-5.7-1.08l-3.23-2.57c-1.1-.88-2.5-1.15-3.85-.74a4.17 4.17 0 0 0-2.8 2.75l-.55 1.71a6.159 6.159 0 0 1-3.95 4c-1.9.64-3.92.34-5.56-.82l-3.18-2.24a4.202 4.202 0 0 0-3.59-.61 4.206 4.206 0 0 0-2.73 2.41l-3.06 7.2zm-65.35-49.55h-2v-9.59c0-1.32-.68-2.5-1.81-3.17a3.66 3.66 0 0 0-3.65-.06l-4.23 2.33a5.61 5.61 0 0 1-5.63-.09 5.62 5.62 0 0 1-2.79-4.89v-3.3c0-1.25-.6-2.37-1.64-3.07-1.04-.7-2.31-.82-3.46-.33l-5.43 2.27c-1.76.74-3.76.55-5.34-.51a5.68 5.68 0 0 1-2.54-4.73v-1.09c0-1.25-.59-2.36-1.63-3.06-1.04-.7-2.3-.83-3.45-.35l-5.2 2.13a5.66 5.66 0 0 1-5.32-.54 5.669 5.669 0 0 1-2.52-4.72c0-1.26-.6-2.38-1.65-3.07-1.05-.7-2.32-.81-3.47-.32l-4.04 1.71c-1.56.66-3.31.59-4.81-.18a5.655 5.655 0 0 1-2.95-3.8l-.52-2.28a3.666 3.666 0 0 0-1.93-2.47 3.64 3.64 0 0 0-3.14-.08l-7.18 3.15-.8-1.83 7.18-3.15a5.695 5.695 0 0 1 7.84 3.95l.52 2.28c.24 1.07.94 1.96 1.91 2.46s2.11.54 3.12.12l4.04-1.71c1.76-.75 3.76-.56 5.36.5a5.685 5.685 0 0 1 2.54 4.74c0 1.25.59 2.36 1.63 3.06 1.04.7 2.29.82 3.45.35l5.2-2.13a5.66 5.66 0 0 1 5.32.54 5.669 5.669 0 0 1 2.52 4.72v1.09c0 1.25.6 2.37 1.64 3.07s2.31.82 3.46.33l5.43-2.27c1.76-.73 3.76-.54 5.34.51a5.67 5.67 0 0 1 2.53 4.73v3.3c0 1.32.68 2.5 1.81 3.17 1.13.67 2.5.69 3.65.06l4.23-2.33a5.61 5.61 0 0 1 5.63.09 5.62 5.62 0 0 1 2.79 4.89v9.57zm224.87-306.58c-9.24 15-33.84 22.86-45.82 6.74-13.31-17.92-3.82-56.03 23.88-57.63 6.32-.37 12.62 1.7 17.6 5.82 12.64 10.47 14.7 28.25 4.34 45.07z"/><path d="M1252.37 574.38c-3.4 10.51-7.3 22.13-12.19 16.17-3.04-3.71-4.89-12.63-2.72-21.11 1.71-6.68 6.49-13.09 11.24-16.45 2.46-1.74 4.95-2.14 6.94-1.08 5.08 2.69.54 10.68-3.27 22.47zm-192.04-291.91c-5.13 5.49-10.9 11.5-13.27 5.24-1.47-3.89-.78-10.74 2.92-15.43 2.91-3.7 8.13-5.8 12.6-5.87 2.32-.03 4.33.85 5.63 2.48 3.28 4.15-2.13 7.42-7.88 13.58zM725.16 583.94c.07-3.59.21-7.57 2.96-6.11 1.71.91 5 8.12 1.23 12.53-.71.83-1.76 1.09-2.71.92-2.41-.42-1.56-3.32-1.48-7.34z" style="fill:#74baab"/><path d="M797.11 677.23c.43-.93-.34-1.84-2.26-2.55-3.83-1.41-11.28-2.42-25.73-1.42-13.32.92-20.01 3.73-23.36 6.14-1.79 1.29-1.65 2.26-.01 2.99 20.14 3.42 40.81.74 51.36-5.16zm350.06-85.64c-1.67-7.45-6.26-30.34-6.31-30.57l1.96-.39c.05.23 4.63 23.09 6.3 30.52l-1.95.44zm20.27 2.43c-2.06-2.99-3.86-6.97-4.94-10.91-.38-1.38-.73-2.72-1.06-4.01-1.69-6.47-3.02-11.59-6.25-14.54l1.35-1.48c3.67 3.35 5.07 8.72 6.84 15.51.33 1.28.68 2.61 1.06 3.98 1.03 3.74 2.72 7.5 4.66 10.31l-1.66 1.14zm9.49.46-2-.06c.05-1.57-.1-3.62-.25-5.79-.15-2.23-.33-4.75-.33-7.19 0-4.45 1.1-8.79 2.94-11.63l1.68 1.09c-1.64 2.53-2.62 6.46-2.62 10.54 0 2.36.16 4.75.32 7.05.16 2.22.31 4.32.26 5.99zm64.79 79.54c-2.12 0-4.21-.89-5.68-2.6l-16.65-19.46 1.52-1.3 16.65 19.46c1.93 2.26 5.36 2.56 7.65.66l49.6-45.17c2.72-2.33 5.78-4.28 9.11-5.8l.83 1.82a36.6 36.6 0 0 0-8.62 5.48l-49.61 45.18a7.515 7.515 0 0 1-4.8 1.73zm3.3 86.99c-8.55 0-17.56-3.69-25.34-13.55l-19.16-21.21 1.48-1.34 19.21 21.26c14.06 17.81 32.31 14.28 43.66 5.87 9.08-6.73 21.72-17.49 37.57-31.99l1.35 1.48c-15.9 14.54-28.6 25.35-37.73 32.12-5.78 4.27-13.22 7.36-21.04 7.36zm-124.51-163.46c-1.11-1.95-2.03-3.9-2.98-6.34l1.87-.72c.92 2.37 1.77 4.19 2.85 6.07l-1.74.99zm11.78-3.5c-1.62-3.03-4.66-9.31-6.82-17.29l1.93-.52c2.1 7.79 5.07 13.91 6.65 16.86l-1.76.95zm138.03 29.36c-16.17 0-31.01-8.83-38.73-23.05l1.76-.96a42.056 42.056 0 0 0 36.97 22.01v2zm-271.1-300.94c-1.59 0-3.54-.86-5.61-2.52-2.28-1.82-5.81-4.67-8.7-6.99l1.26-1.56c2.89 2.33 6.41 5.17 8.69 6.99 2.13 1.71 4.2 2.47 5.15 1.89.86-.52 1.06-2.29.57-4.87-.59-3.08-.44-5.55.46-7.36l1.79.89c-.48.97-.92 2.81-.29 6.09.69 3.6.19 5.94-1.5 6.96-.53.32-1.15.48-1.82.48zm73.18 10.92-1.43-1.4 26.78-27.42c9.4-9.63 24.64-10.15 34.68-1.19l-1.33 1.49c-9.24-8.25-23.26-7.77-31.91 1.09l-26.79 27.43z"/><path transform="rotate(-45.138 1119.199 352.773)" d="M1099.94 351.76h38.52v2h-38.52z"/><path d="m702.04 597.75-6.1-9.03c-2.15-2.84-5.34-4.69-8.93-5.16-3.59-.46-7.14.51-9.99 2.74l-1.23-1.57c3.28-2.57 7.35-3.69 11.48-3.15 4.13.54 7.78 2.66 10.3 5.98l6.13 9.07-1.66 1.12z"/><path transform="rotate(-87.088 735.837 657.81)" d="M724.15 656.81h23.32v2h-23.32z"/><path transform="rotate(-14.14 799.548 637.12)" d="M798.51 617.22h2v40h-2z"/></g></svg>