<svg xmlns="http://www.w3.org/2000/svg" viewBox="0 0 739.45 769.77"><defs><style>.cls-1{fill:#274d76;}.cls-2{fill:#74baab;}.cls-3{fill:#93b4f6;}.cls-4{fill:#fff;}.cls-5{fill:#fff3a1;}.cls-6{fill:#ec8c92;}.cls-7{fill:#f2bdba;}.cls-8{fill:#131314;}</style></defs><title>doc_robot</title><g id="hair"><path class="cls-1" d="M1055.28,253.87h0A97.92,97.92,0,0,0,949,232.48a18.53,18.53,0,0,1-20.13-4L917.59,217.2A130.33,130.33,0,0,0,733.27,401.52L863.11,531.36s48.22,6.44,58.95-4.29l133.22-134.71A97.93,97.93,0,0,0,1055.28,253.87Z" transform="translate(-553.19 -179.03)"/></g><g id="uniform"><path class="cls-2" d="M1173.42,362.91C1116,339.2,1066.2,383,1023.43,415.3c-37,27.95-132.48,102.27-136.56,105.45-4.08-3.18-99.58-77.5-136.56-105.45-42.77-32.3-92.57-76.1-150-52.39-38.2,15.77-62.91,59.46-35.46,107.1,49.34,85.63,147.69,246.15,147.69,246.15A74.79,74.79,0,0,0,776.1,752.5c6.57.06,58.4,0,110.77,0s104.2.06,110.78,0a74.78,74.78,0,0,0,63.54-36.34S1159.54,555.64,1208.88,470C1236.33,422.37,1211.62,378.68,1173.42,362.91Z" transform="translate(-553.19 -179.03)"/></g><g id="robot"><path class="cls-3" d="M719.71,934.58H576.38a14.93,14.93,0,0,1-14.93-14.94V776.56a35.62,35.62,0,0,1,35.62-35.62H719.71Z" transform="translate(-553.19 -179.03)"/><path d="M691.17,805H604.81a18.64,18.64,0,0,1-18.63-18.64V768.45A45.41,45.41,0,0,1,631.59,723h32.79a45.41,45.41,0,0,1,45.42,45.41v17.92A18.64,18.64,0,0,1,691.17,805Z" transform="translate(-553.19 -179.03)"/><path class="cls-4" d="M600.32,789.07a1,1,0,0,1-.72-.31,1,1,0,0,1,0-1.41,46.2,46.2,0,0,1,32-12.76h32.79a46.4,46.4,0,0,1,30.38,11.32,1,1,0,0,1-1.31,1.51,44.42,44.42,0,0,0-29.07-10.83H631.59A44.23,44.23,0,0,0,601,788.79,1,1,0,0,1,600.32,789.07Z" transform="translate(-553.19 -179.03)"/><path class="cls-3" d="M1064.27,708.58H736.06a16.35,16.35,0,0,0-16.35,16.35V934.58h360.9V724.93A16.35,16.35,0,0,0,1064.27,708.58Z" transform="translate(-553.19 -179.03)"/><rect class="cls-1" x="197.11" y="534.96" width="288.4" height="99.58" rx="8.05"/><path class="cls-4" d="M806.5,808.14a5.13,5.13,0,0,1-6.76-.33c-9.08-8.74-20.68-12.53-31.93-16.2-10.87-3.55-21.14-6.9-27.21-14.66-4.87-6.21-6.36-17.4-4-29.92a69.12,69.12,0,0,1,32.19-46.46l5.22,8.35c-20.38,12.23-26.08,32-27.58,39.9-2.06,10.85-.43,19,2.09,22.17,4.21,5.38,12.66,8.13,22.44,11.33,11.87,3.87,25.16,8.21,35.9,18.62a4.81,4.81,0,0,1-.37,7.2Z" transform="translate(-553.19 -179.03)"/><path class="cls-1" d="M1274.43,688.59a17.41,17.41,0,0,0-14.7,7.5c-11.64,17.62-20.89,39.63-38.64,39.63H1080.61V886.81h176a35.4,35.4,0,0,0,4.14-.25,27.7,27.7,0,0,0,3.67.25h0a28.21,28.21,0,0,0,28.2-28.2V706.88A18.29,18.29,0,0,0,1274.43,688.59Z" transform="translate(-553.19 -179.03)"/><path class="cls-5" d="M769,773a2.5,2.5,0,0,0,.09,5h.1c7.79-.28,34.61,1,52.94,30a2.51,2.51,0,0,0,2.12,1.16,2.47,2.47,0,0,0,1.33-.38,2.5,2.5,0,0,0,.78-3.45C806.56,774.06,777.43,772.68,769,773Zm15.29-9.82a2.5,2.5,0,1,0-.68,5c.33,0,33.64,5,48.33,33.22a2.5,2.5,0,0,0,4.44-2.3C820.44,768.47,785.73,763.37,784.26,763.17Zm20.12-2a2.49,2.49,0,0,0,1.36,3.26c.21.08,20.24,8.39,26.17,19.7a2.51,2.51,0,0,0,2.22,1.34,2.55,2.55,0,0,0,1.16-.29,2.51,2.51,0,0,0,1.05-3.38c-6.78-12.93-27.81-21.64-28.7-22A2.5,2.5,0,0,0,804.38,761.13Zm19.69-1.46a2.5,2.5,0,1,0-1.33,4.81c.1,0,10.49,3,15.64,12.19a2.5,2.5,0,0,0,2.18,1.28,2.42,2.42,0,0,0,1.22-.32,2.49,2.49,0,0,0,1-3.4C836.58,763.23,824.58,759.81,824.07,759.67ZM759,794.88a2.51,2.51,0,1,0-1.84,4.66c.1,0,9.84,3.92,15.6,9.68a2.46,2.46,0,0,0,1.76.74,2.51,2.51,0,0,0,1.77-4.27C769.79,799.2,759.42,795.06,759,794.88Zm-1.57-36.29c.43.33,10.9,7.83,32.15-6.85,9.92-6.85,21.74-9.19,32.44-6.41a30.22,30.22,0,0,1,19.89,15.95,2.52,2.52,0,0,0,2.25,1.39,2.4,2.4,0,0,0,1.1-.26,2.5,2.5,0,0,0,1.14-3.35,35.18,35.18,0,0,0-23.13-18.57c-12.1-3.14-25.42-.54-36.53,7.14-17.82,12.3-26.12,7.09-26.34,6.94a2.5,2.5,0,0,0-3,4Zm70.83-25c.19.09,18.5,9.06,25.19,20.22a2.5,2.5,0,1,0,4.29-2.57c-7.45-12.42-26.49-21.76-27.29-22.15a2.5,2.5,0,0,0-2.19,4.5ZM845.18,729c.1.06,10.11,5.35,12.82,13.47a2.5,2.5,0,1,0,4.74-1.58c-3.34-10-14.76-16.07-15.25-16.32a2.5,2.5,0,0,0-2.31,4.43Zm117.55,42.13c-13.91-23.16-33.25-35.4-55.92-35.4h0c-23.53,0-41.9,12.31-53.12,35.61a109,109,0,0,0-9.83,35.08,2.5,2.5,0,1,0,5,.39,106.49,106.49,0,0,1,9.41-33.43c10.48-21.67,26.82-32.65,48.57-32.65,21.08,0,38.43,11.06,51.57,32.87A122.79,122.79,0,0,1,972,807.15a2.5,2.5,0,0,0,2.45,2,2.35,2.35,0,0,0,.52,0,2.51,2.51,0,0,0,1.93-3A126.23,126.23,0,0,0,962.73,771.15Zm-57.24-19.26c-.65,0-1.3,0-2,.07-13.81,1-26.08,9.52-35.5,24.77-7.82,12.66-11,25.48-11.38,29.71a2.5,2.5,0,1,0,5,.39c.3-3.68,3.39-15.71,10.66-27.48,6-9.63,16.26-21.34,31.59-22.41,28.77-2,55.71,50.3,56,50.83a2.49,2.49,0,0,0,2.23,1.36,2.41,2.41,0,0,0,1.13-.27,2.5,2.5,0,0,0,1.1-3.36C963.18,803.27,936.68,751.89,905.49,751.89Zm.41,14.37h-.06c-10.22,0-19.68,7-27.35,20.22a93.59,93.59,0,0,0-8.4,19.48,2.48,2.48,0,0,0,1.72,3.08,2.73,2.73,0,0,0,.68.1,2.51,2.51,0,0,0,2.41-1.83c.1-.36,10.37-36,31-36h0c12.8,0,25.14,26.15,28.82,36.23a2.5,2.5,0,0,0,4.7-1.71C938.83,804.16,924.81,766.26,905.9,766.26Zm-.09,22.3c-12.89,1.46-18.43,18-18.66,18.73a2.5,2.5,0,0,0,1.6,3.15,2.36,2.36,0,0,0,.78.13,2.5,2.5,0,0,0,2.37-1.73c.05-.14,4.74-14.21,14.47-15.31,9.07-1.06,13,15,13,15.11a2.5,2.5,0,1,0,4.87-1.15C924.09,806.65,919.28,787,905.81,788.56Zm63.07-20.68a2.5,2.5,0,0,0,2.5,2.41h.09a2.5,2.5,0,0,0,2.41-2.58c-.56-15.66-4.59-31.13-6.3-37.06a2.5,2.5,0,0,0-4.81,1.39C964.43,737.79,968.34,752.78,968.88,767.88Zm14.9-29.64a2.52,2.52,0,0,0-2.12,2.83c1.65,11.5,7,49.89,6.9,61a2.52,2.52,0,0,0,2.48,2.53h0a2.5,2.5,0,0,0,2.5-2.48c.12-11.16-4.82-46.91-6.95-61.77A2.49,2.49,0,0,0,983.78,738.24Zm15.75,1a2.5,2.5,0,0,0-2,2.91c.06.35,6.44,35.5,6.18,45.48a2.52,2.52,0,0,0,2.44,2.57h.06a2.5,2.5,0,0,0,2.5-2.44c.28-10.49-6-45-6.26-46.51A2.51,2.51,0,0,0,999.53,739.24Zm20.78,2.28a2.5,2.5,0,0,0-4.93.84c0,.23,3.93,23.24,4.21,33.16a2.5,2.5,0,0,0,2.5,2.43h.07a2.51,2.51,0,0,0,2.43-2.57C1024.29,765.11,1020.48,742.48,1020.31,741.52Z" transform="translate(-553.19 -179.03)"/><path class="cls-4" d="M1006.62,808.93h0a4.85,4.85,0,0,1-3-6.84c6-11.45,17.45-16,27.67-20.08,11.43-4.56,21.3-8.5,24.26-20.73,3.48-14.35-5.73-28.33-14.07-37.52a113.88,113.88,0,0,0-20-17.26l5.5-8.17c1.91,1.22,46.67,30.52,38.27,65.21-4.14,17.13-18,22.66-30.22,27.54-9.65,3.85-18.15,7.24-22.52,15.45A5,5,0,0,1,1006.62,808.93Z" transform="translate(-553.19 -179.03)"/><path class="cls-3" d="M1274.43,736.36a17.41,17.41,0,0,0-14.7,7.5c-11.64,17.62-20.89,39.63-38.64,39.63H1077.61V934.58h179a35.4,35.4,0,0,0,4.14-.25,27.7,27.7,0,0,0,3.67.25h0a28.21,28.21,0,0,0,28.2-28.2V754.65A18.29,18.29,0,0,0,1274.43,736.36Z" transform="translate(-553.19 -179.03)"/><path class="cls-4" d="M1274.35,741.36a13.32,13.32,0,0,0-13.18,11.57l-19.74,150.43a23.2,23.2,0,1,0,46.21,3V754.65A13.31,13.31,0,0,0,1274.35,741.36Z" transform="translate(-553.19 -179.03)"/><path class="cls-4" d="M1240.11,926.89a28.37,28.37,0,0,1-6.81-22.4l18.32-139.65,2,.26-18.32,139.65a26.33,26.33,0,0,0,6.32,20.82Z" transform="translate(-553.19 -179.03)"/><circle class="cls-3" cx="1265.14" cy="905.87" r="18.47" transform="translate(-384.88 1830.55) rotate(-80.78)"/><circle class="cls-3" cx="1267.69" cy="861.08" r="16.22" transform="translate(-790.77 969.57) rotate(-45)"/><circle class="cls-3" cx="716.9" cy="640.18" r="13.82"/><circle class="cls-3" cx="1272.67" cy="784.36" r="11.24" transform="translate(-336.3 1663.75) rotate(-76.72)"/><circle class="cls-3" cx="1274.47" cy="755.53" r="9.44" transform="translate(-306.86 1643.3) rotate(-76.72)"/><rect class="cls-1" x="425.23" y="667.63" width="65.48" height="90.82"/><rect class="cls-4" x="190.48" y="656.44" width="253.4" height="111.32" rx="24.85"/><path class="cls-3" d="M972.23,833.47H768.53a26.88,26.88,0,0,0-26.85,26.85v61.62a26.87,26.87,0,0,0,26.85,26.85h203.7a26.88,26.88,0,0,0,26.85-26.85V860.32A26.89,26.89,0,0,0,972.23,833.47Zm24.85,88.47a24.85,24.85,0,0,1-24.85,24.85H768.53a24.84,24.84,0,0,1-24.85-24.85V860.32a24.85,24.85,0,0,1,24.85-24.85h203.7a24.86,24.86,0,0,1,24.85,24.85Z" transform="translate(-553.19 -179.03)"/><rect class="cls-1" x="527.38" y="576.1" width="2" height="179.54"/><path class="cls-4" d="M1123.78,877.11a13.88,13.88,0,0,0-13.88-13.88,13.88,13.88,0,0,0,0-27.76h-24.09a26.79,26.79,0,0,0-1.84-35.84h0a6.08,6.08,0,0,0-8.59,0s-24.33,20.83-38.42,32c-9.58,7.61-19.11,16.09-19.11,28.66v61.62a24.85,24.85,0,0,0,24.85,24.85h29.7a25.48,25.48,0,0,0,3.83-.29h33.67a13.88,13.88,0,0,0,0-27.76,13.88,13.88,0,0,0,0-27.76A13.88,13.88,0,0,0,1123.78,877.11Z" transform="translate(-553.19 -179.03)"/><path class="cls-3" d="M1125.78,877.11a15.89,15.89,0,0,0-8.17-13.88,15.88,15.88,0,0,0-7.71-29.76h-20.23a28.69,28.69,0,0,0-4.29-35.26,8.08,8.08,0,0,0-11.36-.05c-1.29,1.11-24.72,21.14-38.31,31.94-10,8-19.86,16.9-19.86,30.22v61.62a26.87,26.87,0,0,0,26.85,26.85h29.7a27.83,27.83,0,0,0,4-.29h33.52a15.88,15.88,0,0,0,7.71-29.76,15.88,15.88,0,0,0,0-27.76A15.87,15.87,0,0,0,1125.78,877.11ZM1109.9,891a13.88,13.88,0,0,1,0,27.76,13.88,13.88,0,0,1,0,27.76h-33.67a25.48,25.48,0,0,1-3.83.29h-29.7a24.85,24.85,0,0,1-24.85-24.85V860.32c0-12.57,9.53-21.05,19.11-28.66,14.09-11.2,38.42-32,38.42-32a6.07,6.07,0,0,1,8.59,0,26.79,26.79,0,0,1,1.84,35.84h24.09a13.88,13.88,0,0,1,0,27.76,13.88,13.88,0,1,1,0,27.75Z" transform="translate(-553.19 -179.03)"/><circle class="cls-1" cx="325.58" cy="712.1" r="49.73"/><circle class="cls-4" cx="878.77" cy="891.13" r="21.39" transform="translate(-925.93 703.36) rotate(-45)"/><path class="cls-3" d="M878.77,867.74a23.39,23.39,0,1,0,23.39,23.39A23.41,23.41,0,0,0,878.77,867.74Zm0,44.78a21.39,21.39,0,1,1,21.39-21.39A21.39,21.39,0,0,1,878.77,912.52Z" transform="translate(-553.19 -179.03)"/><path class="cls-4" d="M561.45,863.14v56.5a14.93,14.93,0,0,0,14.93,14.94H719.71V827.52H597.07A35.62,35.62,0,0,0,561.45,863.14Z" transform="translate(-553.19 -179.03)"/><path class="cls-3" d="M597.07,827.52a35.62,35.62,0,0,0-35.62,35.62v56.5a14.93,14.93,0,0,0,14.93,14.94H719.71V827.52ZM717.71,932.58H576.38a13,13,0,0,1-12.93-12.94v-56.5a33.66,33.66,0,0,1,33.62-33.62H717.71Z" transform="translate(-553.19 -179.03)"/><rect class="cls-3" x="511.69" y="655.44" width="20.92" height="2"/><rect class="cls-3" x="541.18" y="683.03" width="21.73" height="1.64"/><rect class="cls-3" x="541.18" y="711.28" width="21.73" height="1.64"/><rect class="cls-3" x="541.18" y="739.54" width="21.73" height="1.64"/><rect class="cls-1" x="164.62" y="576.01" width="2" height="179.54"/><rect class="cls-4" x="312.21" y="528.56" width="49.84" height="2"/><rect class="cls-4" x="182.31" y="644.55" width="289.08" height="2"/></g><g id="girl"><path class="cls-6" d="M920.85,466.35V422.69H858.2v43.66c0,11.38-9.22,29.61-20.6,29.61l51.63,56,52.22-56C930.08,496,920.85,477.73,920.85,466.35Z" transform="translate(-553.19 -179.03)"/><path class="cls-7" d="M948.58,338.56h0a7.81,7.81,0,0,1-7.78-7.32c-1-16.34-7.36-55.16-43.35-65.84a109.92,109.92,0,0,1-89,89.19,25.45,25.45,0,0,0-1.85,9.54h0a25.58,25.58,0,0,0,25.58,25.58H840v16.55a39.77,39.77,0,0,0,18,33.28l10.67,7a39.79,39.79,0,0,0,43.54,0l10.77-7A39.8,39.8,0,0,0,941,406.21v-16.5h7.6a25.58,25.58,0,0,0,25.58-25.58h0A25.57,25.57,0,0,0,948.58,338.56Z" transform="translate(-553.19 -179.03)"/><path class="cls-8" d="M847.41,386.24a39.92,39.92,0,1,1,39.92-39.92A40,40,0,0,1,847.41,386.24Zm0-77.84a37.92,37.92,0,1,0,37.92,37.92A38,38,0,0,0,847.41,308.4Z" transform="translate(-553.19 -179.03)"/><path class="cls-4" d="M789.25,357.27a111.37,111.37,0,0,1-22.06-2.2,1,1,0,1,1,.4-2A109,109,0,0,0,896.52,227.87a1,1,0,0,1,.82-1.16,1,1,0,0,1,1.15.82A111,111,0,0,1,789.25,357.27Z" transform="translate(-553.19 -179.03)"/><path class="cls-8" d="M934.41,386.24a39.92,39.92,0,1,1,39.92-39.92A40,40,0,0,1,934.41,386.24Zm0-77.84a37.92,37.92,0,1,0,37.92,37.92A38,38,0,0,0,934.41,308.4Z" transform="translate(-553.19 -179.03)"/><path d="M929.71,354H923.5a4.39,4.39,0,0,1-4.39-4.39h0a7.49,7.49,0,0,1,7.49-7.5h0a7.5,7.5,0,0,1,7.5,7.5h0A4.39,4.39,0,0,1,929.71,354Z" transform="translate(-553.19 -179.03)"/><path d="M858.62,354h-6.21a4.39,4.39,0,0,1-4.39-4.39h0a7.49,7.49,0,0,1,7.49-7.5h0a7.5,7.5,0,0,1,7.5,7.5h0A4.4,4.4,0,0,1,858.62,354Z" transform="translate(-553.19 -179.03)"/><path class="cls-8" d="M890.12,411.46a18.75,18.75,0,0,1-17.71-12.6l1.89-.65a16.74,16.74,0,0,0,31.62,0l1.89.66A18.75,18.75,0,0,1,890.12,411.46Z" transform="translate(-553.19 -179.03)"/><path class="cls-6" d="M981.29,687l-29-12.35a21.69,21.69,0,0,0-27.23,9l-.4.69a20.22,20.22,0,0,0,8.26,28.2L941.5,717a13.39,13.39,0,0,0,16.13-3.08Z" transform="translate(-553.19 -179.03)"/><path class="cls-7" d="M1056.65,673.65c-14.71-36.41-36.1-51.38-52.58-57.46A28.93,28.93,0,0,0,969.73,628c-11.42,18-29.05,46.49-33.94,58.22-3.7,8.89,1.68,23.22,15.87,22.89-3.83,10.8,11.81,18.17,24.26,13.94-1.58,8.45,13.51,12.51,21.16,8.31,5.3,8.47,25.78,9.32,53.71-22.62A34,34,0,0,0,1056.65,673.65Z" transform="translate(-553.19 -179.03)"/><rect class="cls-8" x="943" y="523.66" width="181.93" height="2" transform="translate(-508.94 949.64) rotate(-58.3)"/><path class="cls-2" d="M942,685c-15.33,0-19.12-4.87-19.12-4.87-8.74-31.42,10.71-84.18,10.71-84.18,14.71-2.87,35.21,11.36,35.21,32.11l.25,24.81C969.13,665,960.3,685,942,685Z" transform="translate(-553.19 -179.03)"/><path class="cls-5" d="M932.54,679.46h0c-11.88,3-21.58-4.48-21.66-16.67l-.25-39.08c-.08-12.18,9.49-24.46,21.37-27.44h0c11.89-3,21.58,4.49,21.66,16.67l.25,39.08C954,664.2,944.42,676.49,932.54,679.46Z" transform="translate(-553.19 -179.03)"/><path class="cls-2" d="M942.5,623.17,921.23,628a1.75,1.75,0,0,1-2.16-1.87h0a3,3,0,0,1,2.16-2.86l21.27-4.8a1.76,1.76,0,0,1,2.16,1.88h0A3,3,0,0,1,942.5,623.17Z" transform="translate(-553.19 -179.03)"/><path class="cls-2" d="M942.5,648.11l-21.27,4.8a1.75,1.75,0,0,1-2.16-1.88h0a3,3,0,0,1,2.16-2.85l21.27-4.8a1.75,1.75,0,0,1,2.16,1.88h0A3,3,0,0,1,942.5,648.11Z" transform="translate(-553.19 -179.03)"/><path class="cls-1" d="M937.56,621.53c0,3.72-2.53,7.31-5.73,8s-5.8-1.74-5.83-5.46,2.54-7.31,5.73-8S937.53,617.8,937.56,621.53Z" transform="translate(-553.19 -179.03)"/><path class="cls-1" d="M937.56,647.07c0,3.72-2.53,7.31-5.73,8s-5.8-1.74-5.83-5.46,2.54-7.31,5.73-8S937.53,643.34,937.56,647.07Z" transform="translate(-553.19 -179.03)"/><path class="cls-6" d="M799.71,687l29-12.35a21.69,21.69,0,0,1,27.23,9l.41.69a20.23,20.23,0,0,1-8.26,28.2L839.49,717a13.37,13.37,0,0,1-16.12-3.08Z" transform="translate(-553.19 -179.03)"/><path class="cls-8" d="M958.79,707.81,958,706a48.6,48.6,0,0,0,19-14.16l1.55,1.27A50.52,50.52,0,0,1,958.79,707.81Z" transform="translate(-553.19 -179.03)"/><path class="cls-8" d="M982.84,720.85l-1-1.75a56,56,0,0,0,16.86-14.69l1.58,1.22A58.28,58.28,0,0,1,982.84,720.85Z" transform="translate(-553.19 -179.03)"/><path class="cls-8" d="M1002.15,729.7l-1.06-1.7a68.34,68.34,0,0,0,15.23-13.5l1.52,1.3A70.53,70.53,0,0,1,1002.15,729.7Z" transform="translate(-553.19 -179.03)"/><path class="cls-7" d="M723.91,674.74c14.72-37.2,36.37-52.41,53-58.55A29,29,0,0,1,811.27,628c11.41,18,29.05,46.49,33.93,58.22,3.7,8.89-1.67,23.22-15.87,22.89,3.83,10.8-11.8,18.17-24.26,13.94,1.59,8.45-13.51,12.51-21.15,8.31-5.35,8.54-26.16,9.34-54.48-23.5A32.43,32.43,0,0,1,723.91,674.74Z" transform="translate(-553.19 -179.03)"/><rect class="cls-8" x="744.93" y="434" width="2" height="177.76" transform="translate(-716.69 291.27) rotate(-31.72)"/><path class="cls-2" d="M839,685c15.34,0,19.13-4.87,19.13-4.87,8.73-31.42-10.71-84.18-10.71-84.18-14.71-2.87-35.21,11.36-35.21,32.11L812,652.86C811.87,665,820.7,685,839,685Z" transform="translate(-553.19 -179.03)"/><path class="cls-5" d="M848.46,679.46h0c11.88,3,21.58-4.48,21.65-16.67l.26-39.08c.07-12.18-9.5-24.46-21.38-27.44h0c-11.88-3-21.58,4.49-21.65,16.67L827.08,652C827,664.2,836.57,676.49,848.46,679.46Z" transform="translate(-553.19 -179.03)"/><path class="cls-8" d="M820.35,707a50.88,50.88,0,0,1-18.72-14.94l1.58-1.23a48.74,48.74,0,0,0,18,14.36Z" transform="translate(-553.19 -179.03)"/><path class="cls-8" d="M796,719.54a60.23,60.23,0,0,1-17-16.19l1.63-1.15A58.36,58.36,0,0,0,797,717.84Z" transform="translate(-553.19 -179.03)"/><path class="cls-8" d="M776.43,728.1a74,74,0,0,1-13.38-12.42l1.53-1.3a71.08,71.08,0,0,0,13,12.08Z" transform="translate(-553.19 -179.03)"/><path class="cls-4" d="M853.61,681.12a21.8,21.8,0,0,1-5.4-.69h0C835.93,677.36,826,664.61,826.08,652l.26-39.08c0-6.19,2.43-11.43,6.74-14.77s10.08-4.39,16.16-2.87c12.28,3.08,22.21,15.82,22.13,28.42l-.26,39.08c0,6.18-2.43,11.43-6.74,14.77A17.31,17.31,0,0,1,853.61,681.12Zm-4.91-2.62c5.47,1.36,10.59.47,14.44-2.51s5.94-7.65,6-13.2l.26-39.08c.07-11.73-9.18-23.6-20.62-26.47-5.46-1.37-10.59-.48-14.44,2.51s-5.94,7.64-6,13.2L828.08,652c-.07,11.73,9.18,23.6,20.62,26.47Z" transform="translate(-553.19 -179.03)"/><path class="cls-1" d="M875.26,614.68a6.23,6.23,0,0,0-7.92-3.83l-20.46,6.94a4.85,4.85,0,0,0-2.83,4.74c0,3.32,2.26,6.53,5.11,7.16a4.35,4.35,0,0,0,1.83,0c.43-.1,20.44-7.1,20.44-7.1A6.22,6.22,0,0,0,875.26,614.68Z" transform="translate(-553.19 -179.03)"/><path class="cls-1" d="M875.26,639.44a6.23,6.23,0,0,0-7.92-3.83s-20.17,6.84-20.46,6.95a4.83,4.83,0,0,0-2.83,4.73c0,3.33,2.26,6.54,5.11,7.17a4.34,4.34,0,0,0,1.83,0c.43-.1,20.44-7.1,20.44-7.1A6.22,6.22,0,0,0,875.26,639.44Z" transform="translate(-553.19 -179.03)"/><path class="cls-4" d="M965.92,617.62a33,33,0,0,0-11.21-14.79l1.2-1.59a34.84,34.84,0,0,1,11.88,15.68Z" transform="translate(-553.19 -179.03)"/><path class="cls-4" d="M814.56,619.14l-1.91-.6A34.45,34.45,0,0,1,823,602.94l1.32,1.5A32.35,32.35,0,0,0,814.56,619.14Z" transform="translate(-553.19 -179.03)"/><path class="cls-4" d="M927.38,681.12a17.28,17.28,0,0,1-10.75-3.55c-4.31-3.34-6.71-8.59-6.75-14.77l-.25-39.08c-.08-12.6,9.85-25.34,22.13-28.42,6.07-1.52,11.81-.5,16.15,2.87s6.71,8.58,6.75,14.77l.25,39.08c.08,12.59-9.85,25.34-22.13,28.41h0A21.8,21.8,0,0,1,927.38,681.12Zm9.77-84.5a20.07,20.07,0,0,0-4.9.62c-11.45,2.87-20.7,14.74-20.62,26.47l.25,39.08c0,5.55,2.16,10.24,6,13.2s9,3.87,14.45,2.51h0c11.44-2.87,20.69-14.74,20.61-26.47L952.66,613c0-5.56-2.16-10.24-6-13.2A15.35,15.35,0,0,0,937.15,596.62Z" transform="translate(-553.19 -179.03)"/><path class="cls-4" d="M809.28,355.16a1,1,0,0,1-1-.8,39.92,39.92,0,0,1,65.6-37.9,1,1,0,1,1-1.32,1.49,37.94,37.94,0,0,0-62.32,36,1,1,0,0,1-.78,1.18A.71.71,0,0,1,809.28,355.16Z" transform="translate(-553.19 -179.03)"/><path class="cls-4" d="M972.54,355.16a.71.71,0,0,1-.2,0,1,1,0,0,1-.78-1.18,38,38,0,0,0-35.06-45.51,1,1,0,0,1,.11-2,40,40,0,0,1,36.91,47.9A1,1,0,0,1,972.54,355.16Z" transform="translate(-553.19 -179.03)"/><rect class="cls-8" x="859.41" y="460.4" width="2" height="120.04" transform="translate(-679.1 537.15) rotate(-42.39)"/><polygon class="cls-8" points="281 339.76 246.26 338.38 242.09 278.89 244.09 278.75 248.13 336.46 281.08 337.76 281 339.76"/><polygon class="cls-8" points="361.56 402.22 270.17 370.78 275.33 353.96 277.24 354.55 272.64 369.52 362.21 400.33 361.56 402.22"/><polygon class="cls-8" points="383.36 339.76 383.29 337.76 416.24 336.46 420.28 278.75 422.28 278.89 418.11 338.38 383.36 339.76"/><polygon class="cls-8" points="354.07 384.58 353.42 382.69 391.72 369.52 386.73 353.27 388.65 352.69 394.2 370.78 354.07 384.58"/><rect class="cls-8" x="873.44" y="514.46" width="100.07" height="2" transform="translate(-637.63 656.78) rotate(-46.8)"/></g></svg>