<svg xmlns="http://www.w3.org/2000/svg" viewBox="0 0 739.45 769.77"><defs><style>.cls-1{fill:#274d76}.cls-2{fill:#74baab}.cls-3{fill:#93b4f6}.cls-4{fill:#fff}.cls-5{fill:#fff3a1}.cls-6{fill:#ec8c92}.cls-7{fill:#f2bdba}.cls-8{fill:#131314}</style></defs><path class="cls-1" d="M1055.28 253.87A97.92 97.92 0 0 0 949 232.48a18.53 18.53 0 0 1-20.13-4l-11.28-11.28a130.33 130.33 0 0 0-184.32 184.32l129.84 129.84s48.22 6.44 58.95-4.29l133.22-134.71a97.93 97.93 0 0 0 0-138.49z" transform="translate(-553.19 -179.03)" id="hair"/><path class="cls-2" d="M1173.42 362.91C1116 339.2 1066.2 383 1023.43 415.3c-37 27.95-132.48 102.27-136.56 105.45-4.08-3.18-99.58-77.5-136.56-105.45-42.77-32.3-92.57-76.1-150-52.39-38.2 15.77-62.91 59.46-35.46 107.1 49.34 85.63 147.69 246.15 147.69 246.15a74.79 74.79 0 0 0 63.56 36.34c6.57.06 58.4 0 110.77 0s104.2.06 110.78 0a74.78 74.78 0 0 0 63.54-36.34s98.35-160.52 147.69-246.16c27.45-47.63 2.74-91.32-35.46-107.09z" transform="translate(-553.19 -179.03)" id="uniform"/><g id="robot"><path class="cls-3" d="M719.71 934.58H576.38a14.93 14.93 0 0 1-14.93-14.94V776.56a35.62 35.62 0 0 1 35.62-35.62h122.64z" transform="translate(-553.19 -179.03)"/><path d="M691.17 805h-86.36a18.64 18.64 0 0 1-18.63-18.64v-17.91A45.41 45.41 0 0 1 631.59 723h32.79a45.41 45.41 0 0 1 45.42 45.41v17.92A18.64 18.64 0 0 1 691.17 805z" transform="translate(-553.19 -179.03)"/><path class="cls-4" d="M600.32 789.07a1 1 0 0 1-.72-.31 1 1 0 0 1 0-1.41 46.2 46.2 0 0 1 32-12.76h32.79a46.4 46.4 0 0 1 30.38 11.32 1 1 0 0 1-1.31 1.51 44.42 44.42 0 0 0-29.07-10.83h-32.8a44.23 44.23 0 0 0-30.59 12.2 1 1 0 0 1-.68.28z" transform="translate(-553.19 -179.03)"/><path class="cls-3" d="M1064.27 708.58H736.06a16.35 16.35 0 0 0-16.35 16.35v209.65h360.9V724.93a16.35 16.35 0 0 0-16.34-16.35z" transform="translate(-553.19 -179.03)"/><rect class="cls-1" x="197.11" y="534.96" width="288.4" height="99.58" rx="8.05"/><path class="cls-4" d="M806.5 808.14a5.13 5.13 0 0 1-6.76-.33c-9.08-8.74-20.68-12.53-31.93-16.2-10.87-3.55-21.14-6.9-27.21-14.66-4.87-6.21-6.36-17.4-4-29.92a69.12 69.12 0 0 1 32.19-46.46l5.22 8.35c-20.38 12.23-26.08 32-27.58 39.9-2.06 10.85-.43 19 2.09 22.17 4.21 5.38 12.66 8.13 22.44 11.33 11.87 3.87 25.16 8.21 35.9 18.62a4.81 4.81 0 0 1-.37 7.2z" transform="translate(-553.19 -179.03)"/><path class="cls-1" d="M1274.43 688.59a17.41 17.41 0 0 0-14.7 7.5c-11.64 17.62-20.89 39.63-38.64 39.63h-140.48v151.09h176a35.4 35.4 0 0 0 4.14-.25 27.7 27.7 0 0 0 3.67.25 28.21 28.21 0 0 0 28.2-28.2V706.88a18.29 18.29 0 0 0-18.19-18.29z" transform="translate(-553.19 -179.03)"/><path class="cls-5" d="M769 773a2.5 2.5 0 0 0 .09 5h.1c7.79-.28 34.61 1 52.94 30a2.51 2.51 0 0 0 2.12 1.16 2.47 2.47 0 0 0 1.33-.38 2.5 2.5 0 0 0 .78-3.45c-19.8-31.27-48.93-32.65-57.36-32.33zm15.29-9.82a2.5 2.5 0 1 0-.68 5c.33 0 33.64 5 48.33 33.22a2.5 2.5 0 0 0 4.44-2.3c-15.94-30.63-50.65-35.73-52.12-35.93zm20.12-2a2.49 2.49 0 0 0 1.36 3.26c.21.08 20.24 8.39 26.17 19.7a2.51 2.51 0 0 0 2.22 1.34 2.55 2.55 0 0 0 1.16-.29 2.51 2.51 0 0 0 1.05-3.38c-6.78-12.93-27.81-21.64-28.7-22a2.5 2.5 0 0 0-3.29 1.32zm19.69-1.46a2.5 2.5 0 1 0-1.33 4.81c.1 0 10.49 3 15.64 12.19a2.5 2.5 0 0 0 2.18 1.28 2.42 2.42 0 0 0 1.22-.32 2.49 2.49 0 0 0 1-3.4c-6.23-11.05-18.23-14.47-18.74-14.61zM759 794.88a2.51 2.51 0 1 0-1.84 4.66c.1 0 9.84 3.92 15.6 9.68a2.46 2.46 0 0 0 1.76.74 2.51 2.51 0 0 0 1.77-4.27c-6.5-6.49-16.87-10.63-17.29-10.81zm-1.57-36.29c.43.33 10.9 7.83 32.15-6.85 9.92-6.85 21.74-9.19 32.44-6.41a30.22 30.22 0 0 1 19.89 15.95 2.52 2.52 0 0 0 2.25 1.39 2.4 2.4 0 0 0 1.1-.26 2.5 2.5 0 0 0 1.14-3.35 35.18 35.18 0 0 0-23.13-18.57c-12.1-3.14-25.42-.54-36.53 7.14-17.82 12.3-26.12 7.09-26.34 6.94a2.5 2.5 0 0 0-3 4zm70.83-25c.19.09 18.5 9.06 25.19 20.22a2.5 2.5 0 1 0 4.29-2.57c-7.45-12.42-26.49-21.76-27.29-22.15a2.5 2.5 0 0 0-2.19 4.5zm16.92-4.59c.1.06 10.11 5.35 12.82 13.47a2.5 2.5 0 1 0 4.74-1.58c-3.34-10-14.76-16.07-15.25-16.32a2.5 2.5 0 0 0-2.31 4.43zm117.55 42.13c-13.91-23.16-33.25-35.4-55.92-35.4-23.53 0-41.9 12.31-53.12 35.61a109 109 0 0 0-9.83 35.08 2.5 2.5 0 1 0 5 .39 106.49 106.49 0 0 1 9.41-33.43c10.48-21.67 26.82-32.65 48.57-32.65 21.08 0 38.43 11.06 51.57 32.87A122.79 122.79 0 0 1 972 807.15a2.5 2.5 0 0 0 2.45 2 2.35 2.35 0 0 0 .52 0 2.51 2.51 0 0 0 1.93-3 126.23 126.23 0 0 0-14.17-35zm-57.24-19.26c-.65 0-1.3 0-2 .07-13.81 1-26.08 9.52-35.5 24.77-7.82 12.66-11 25.48-11.38 29.71a2.5 2.5 0 1 0 5 .39c.3-3.68 3.39-15.71 10.66-27.48 6-9.63 16.26-21.34 31.59-22.41 28.77-2 55.71 50.3 56 50.83a2.49 2.49 0 0 0 2.23 1.36 2.41 2.41 0 0 0 1.13-.27 2.5 2.5 0 0 0 1.1-3.36c-1.14-2.21-27.64-53.59-58.83-53.59zm.41 14.37h-.06c-10.22 0-19.68 7-27.35 20.22a93.59 93.59 0 0 0-8.4 19.48 2.48 2.48 0 0 0 1.72 3.08 2.73 2.73 0 0 0 .68.1 2.51 2.51 0 0 0 2.41-1.83c.1-.36 10.37-36 31-36 12.8 0 25.14 26.15 28.82 36.23a2.5 2.5 0 0 0 4.7-1.71c-.59-1.65-14.61-39.55-33.52-39.55zm-.09 22.3c-12.89 1.46-18.43 18-18.66 18.73a2.5 2.5 0 0 0 1.6 3.15 2.36 2.36 0 0 0 .78.13 2.5 2.5 0 0 0 2.37-1.73c.05-.14 4.74-14.21 14.47-15.31 9.07-1.06 13 15 13 15.11a2.5 2.5 0 1 0 4.87-1.15c-.15-.82-4.96-20.47-18.43-18.91zm63.07-20.68a2.5 2.5 0 0 0 2.5 2.41h.09a2.5 2.5 0 0 0 2.41-2.58c-.56-15.66-4.59-31.13-6.3-37.06a2.5 2.5 0 0 0-4.81 1.39c1.66 5.77 5.57 20.76 6.11 35.86zm14.9-29.64a2.52 2.52 0 0 0-2.12 2.83c1.65 11.5 7 49.89 6.9 61a2.52 2.52 0 0 0 2.48 2.53 2.5 2.5 0 0 0 2.5-2.48c.12-11.16-4.82-46.91-6.95-61.77a2.49 2.49 0 0 0-2.81-2.09zm15.75 1a2.5 2.5 0 0 0-2 2.91c.06.35 6.44 35.5 6.18 45.48a2.52 2.52 0 0 0 2.44 2.57h.06a2.5 2.5 0 0 0 2.5-2.44c.28-10.49-6-45-6.26-46.51a2.51 2.51 0 0 0-2.92-1.99zm20.78 2.28a2.5 2.5 0 0 0-4.93.84c0 .23 3.93 23.24 4.21 33.16a2.5 2.5 0 0 0 2.5 2.43h.07a2.51 2.51 0 0 0 2.43-2.57c-.3-10.25-4.11-32.88-4.28-33.84z" transform="translate(-553.19 -179.03)"/><path class="cls-4" d="M1006.62 808.93a4.85 4.85 0 0 1-3-6.84c6-11.45 17.45-16 27.67-20.08 11.43-4.56 21.3-8.5 24.26-20.73 3.48-14.35-5.73-28.33-14.07-37.52a113.88 113.88 0 0 0-20-17.26l5.5-8.17c1.91 1.22 46.67 30.52 38.27 65.21-4.14 17.13-18 22.66-30.22 27.54-9.65 3.85-18.15 7.24-22.52 15.45a5 5 0 0 1-5.89 2.4z" transform="translate(-553.19 -179.03)"/><path class="cls-3" d="M1274.43 736.36a17.41 17.41 0 0 0-14.7 7.5c-11.64 17.62-20.89 39.63-38.64 39.63h-143.48v151.09h179a35.4 35.4 0 0 0 4.14-.25 27.7 27.7 0 0 0 3.67.25 28.21 28.21 0 0 0 28.2-28.2V754.65a18.29 18.29 0 0 0-18.19-18.29z" transform="translate(-553.19 -179.03)"/><path class="cls-4" d="M1274.35 741.36a13.32 13.32 0 0 0-13.18 11.57l-19.74 150.43a23.2 23.2 0 1 0 46.21 3V754.65a13.31 13.31 0 0 0-13.29-13.29z" transform="translate(-553.19 -179.03)"/><path class="cls-4" d="M1240.11 926.89a28.37 28.37 0 0 1-6.81-22.4l18.32-139.65 2 .26-18.32 139.65a26.33 26.33 0 0 0 6.32 20.82z" transform="translate(-553.19 -179.03)"/><circle class="cls-3" cx="1265.14" cy="905.87" r="18.47" transform="rotate(-80.78 883.385 1141.471)"/><circle class="cls-3" cx="1267.69" cy="861.08" r="16.22" transform="rotate(-45 774.99 1439.329)"/><circle class="cls-3" cx="716.9" cy="640.18" r="13.82"/><circle class="cls-3" cx="1272.67" cy="784.36" r="11.24" transform="rotate(-76.72 882.922 1044.332)"/><circle class="cls-3" cx="1274.47" cy="755.53" r="9.44" transform="rotate(-76.72 884.722 1015.508)"/><path class="cls-1" d="M425.23 667.63h65.48v90.82h-65.48z"/><rect class="cls-4" x="190.48" y="656.44" width="253.4" height="111.32" rx="24.85"/><path class="cls-3" d="M972.23 833.47h-203.7a26.88 26.88 0 0 0-26.85 26.85v61.62a26.87 26.87 0 0 0 26.85 26.85h203.7a26.88 26.88 0 0 0 26.85-26.85v-61.62a26.89 26.89 0 0 0-26.85-26.85zm24.85 88.47a24.85 24.85 0 0 1-24.85 24.85h-203.7a24.84 24.84 0 0 1-24.85-24.85v-61.62a24.85 24.85 0 0 1 24.85-24.85h203.7a24.86 24.86 0 0 1 24.85 24.85z" transform="translate(-553.19 -179.03)"/><path class="cls-1" d="M527.38 576.1h2v179.54h-2z"/><path class="cls-4" d="M1123.78 877.11a13.88 13.88 0 0 0-13.88-13.88 13.88 13.88 0 0 0 0-27.76h-24.09a26.79 26.79 0 0 0-1.84-35.84 6.08 6.08 0 0 0-8.59 0s-24.33 20.83-38.42 32c-9.58 7.61-19.11 16.09-19.11 28.66v61.62a24.85 24.85 0 0 0 24.85 24.85h29.7a25.48 25.48 0 0 0 3.83-.29h33.67a13.88 13.88 0 0 0 0-27.76 13.88 13.88 0 0 0 0-27.76 13.88 13.88 0 0 0 13.88-13.84z" transform="translate(-553.19 -179.03)"/><path class="cls-3" d="M1125.78 877.11a15.89 15.89 0 0 0-8.17-13.88 15.88 15.88 0 0 0-7.71-29.76h-20.23a28.69 28.69 0 0 0-4.29-35.26 8.08 8.08 0 0 0-11.36-.05c-1.29 1.11-24.72 21.14-38.31 31.94-10 8-19.86 16.9-19.86 30.22v61.62a26.87 26.87 0 0 0 26.85 26.85h29.7a27.83 27.83 0 0 0 4-.29h33.52a15.88 15.88 0 0 0 7.71-29.76 15.88 15.88 0 0 0 0-27.76 15.87 15.87 0 0 0 8.15-13.87zM1109.9 891a13.88 13.88 0 0 1 0 27.76 13.88 13.88 0 0 1 0 27.76h-33.67a25.48 25.48 0 0 1-3.83.29h-29.7a24.85 24.85 0 0 1-24.85-24.85v-61.64c0-12.57 9.53-21.05 19.11-28.66 14.09-11.2 38.42-32 38.42-32a6.07 6.07 0 0 1 8.59 0 26.79 26.79 0 0 1 1.84 35.84h24.09a13.88 13.88 0 0 1 0 27.76 13.88 13.88 0 1 1 0 27.75z" transform="translate(-553.19 -179.03)"/><circle class="cls-1" cx="325.58" cy="712.1" r="49.73"/><circle class="cls-4" cx="878.77" cy="891.13" r="21.39" transform="rotate(-45 386.066 1469.376)"/><path class="cls-3" d="M878.77 867.74a23.39 23.39 0 1 0 23.39 23.39 23.41 23.41 0 0 0-23.39-23.39zm0 44.78a21.39 21.39 0 1 1 21.39-21.39 21.39 21.39 0 0 1-21.39 21.39z" transform="translate(-553.19 -179.03)"/><path class="cls-4" d="M561.45 863.14v56.5a14.93 14.93 0 0 0 14.93 14.94h143.33V827.52H597.07a35.62 35.62 0 0 0-35.62 35.62z" transform="translate(-553.19 -179.03)"/><path class="cls-3" d="M597.07 827.52a35.62 35.62 0 0 0-35.62 35.62v56.5a14.93 14.93 0 0 0 14.93 14.94h143.33V827.52zm120.64 105.06H576.38a13 13 0 0 1-12.93-12.94v-56.5a33.66 33.66 0 0 1 33.62-33.62h120.64z" transform="translate(-553.19 -179.03)"/><path class="cls-3" d="M511.69 655.44h20.92v2h-20.92zm29.49 27.59h21.73v1.64h-21.73zm0 28.25h21.73v1.64h-21.73zm0 28.26h21.73v1.64h-21.73z"/><path class="cls-1" d="M164.62 576.01h2v179.54h-2z"/><path class="cls-4" d="M312.21 528.56h49.84v2h-49.84zm-129.9 115.99h289.08v2H182.31z"/></g><g id="girl"><path class="cls-6" d="M920.85 466.35v-43.66H858.2v43.66c0 11.38-9.22 29.61-20.6 29.61l51.63 56 52.22-56c-11.37.04-20.6-18.23-20.6-29.61z" transform="translate(-553.19 -179.03)"/><path class="cls-7" d="M948.58 338.56a7.81 7.81 0 0 1-7.78-7.32c-1-16.34-7.36-55.16-43.35-65.84a109.92 109.92 0 0 1-89 89.19 25.45 25.45 0 0 0-1.85 9.54 25.58 25.58 0 0 0 25.58 25.58H840v16.55a39.77 39.77 0 0 0 18 33.28l10.67 7a39.79 39.79 0 0 0 43.54 0l10.77-7A39.8 39.8 0 0 0 941 406.21v-16.5h7.6a25.58 25.58 0 0 0 25.58-25.58 25.57 25.57 0 0 0-25.6-25.57z" transform="translate(-553.19 -179.03)"/><path class="cls-8" d="M847.41 386.24a39.92 39.92 0 1 1 39.92-39.92 40 40 0 0 1-39.92 39.92zm0-77.84a37.92 37.92 0 1 0 37.92 37.92 38 38 0 0 0-37.92-37.92z" transform="translate(-553.19 -179.03)"/><path class="cls-4" d="M789.25 357.27a111.37 111.37 0 0 1-22.06-2.2 1 1 0 1 1 .4-2 109 109 0 0 0 128.93-125.2 1 1 0 0 1 .82-1.16 1 1 0 0 1 1.15.82 111 111 0 0 1-109.24 129.74z" transform="translate(-553.19 -179.03)"/><path class="cls-8" d="M934.41 386.24a39.92 39.92 0 1 1 39.92-39.92 40 40 0 0 1-39.92 39.92zm0-77.84a37.92 37.92 0 1 0 37.92 37.92 38 38 0 0 0-37.92-37.92z" transform="translate(-553.19 -179.03)"/><path d="M929.71 354h-6.21a4.39 4.39 0 0 1-4.39-4.39 7.49 7.49 0 0 1 7.49-7.5 7.5 7.5 0 0 1 7.5 7.5 4.39 4.39 0 0 1-4.39 4.39zm-71.09 0h-6.21a4.39 4.39 0 0 1-4.39-4.39 7.49 7.49 0 0 1 7.49-7.5 7.5 7.5 0 0 1 7.5 7.5 4.4 4.4 0 0 1-4.39 4.39z" transform="translate(-553.19 -179.03)"/><path class="cls-8" d="M890.12 411.46a18.75 18.75 0 0 1-17.71-12.6l1.89-.65a16.74 16.74 0 0 0 31.62 0l1.89.66a18.75 18.75 0 0 1-17.69 12.59z" transform="translate(-553.19 -179.03)"/><path class="cls-6" d="m981.29 687-29-12.35a21.69 21.69 0 0 0-27.23 9l-.4.69a20.22 20.22 0 0 0 8.26 28.2l8.58 4.46a13.39 13.39 0 0 0 16.13-3.08z" transform="translate(-553.19 -179.03)"/><path class="cls-7" d="M1056.65 673.65c-14.71-36.41-36.1-51.38-52.58-57.46A28.93 28.93 0 0 0 969.73 628c-11.42 18-29.05 46.49-33.94 58.22-3.7 8.89 1.68 23.22 15.87 22.89-3.83 10.8 11.81 18.17 24.26 13.94-1.58 8.45 13.51 12.51 21.16 8.31 5.3 8.47 25.78 9.32 53.71-22.62a34 34 0 0 0 5.86-35.09z" transform="translate(-553.19 -179.03)"/><path class="cls-8" transform="rotate(-58.3 596.864 931.075)" d="M943 523.66h181.93v2H943z"/><path class="cls-2" d="M942 685c-15.33 0-19.12-4.87-19.12-4.87-8.74-31.42 10.71-84.18 10.71-84.18 14.71-2.87 35.21 11.36 35.21 32.11l.25 24.81C969.13 665 960.3 685 942 685z" transform="translate(-553.19 -179.03)"/><path class="cls-5" d="M932.54 679.46c-11.88 3-21.58-4.48-21.66-16.67l-.25-39.08c-.08-12.18 9.49-24.46 21.37-27.44 11.89-3 21.58 4.49 21.66 16.67l.25 39.08c.09 12.18-9.49 24.47-21.37 27.44z" transform="translate(-553.19 -179.03)"/><path class="cls-2" d="M942.5 623.17 921.23 628a1.75 1.75 0 0 1-2.16-1.87 3 3 0 0 1 2.16-2.86l21.27-4.8a1.76 1.76 0 0 1 2.16 1.88 3 3 0 0 1-2.16 2.82zm0 24.94-21.27 4.8a1.75 1.75 0 0 1-2.16-1.88 3 3 0 0 1 2.16-2.85l21.27-4.8a1.75 1.75 0 0 1 2.16 1.88 3 3 0 0 1-2.16 2.85z" transform="translate(-553.19 -179.03)"/><path class="cls-1" d="M937.56 621.53c0 3.72-2.53 7.31-5.73 8s-5.8-1.74-5.83-5.46 2.54-7.31 5.73-8 5.8 1.73 5.83 5.46zm0 25.54c0 3.72-2.53 7.31-5.73 8s-5.8-1.74-5.83-5.46 2.54-7.31 5.73-8 5.8 1.73 5.83 5.46z" transform="translate(-553.19 -179.03)"/><path class="cls-6" d="m799.71 687 29-12.35a21.69 21.69 0 0 1 27.23 9l.41.69a20.23 20.23 0 0 1-8.26 28.2l-8.6 4.46a13.37 13.37 0 0 1-16.12-3.08z" transform="translate(-553.19 -179.03)"/><path class="cls-8" d="M958.79 707.81 958 706a48.6 48.6 0 0 0 19-14.16l1.55 1.27a50.52 50.52 0 0 1-19.76 14.7zm24.05 13.04-1-1.75a56 56 0 0 0 16.86-14.69l1.58 1.22a58.28 58.28 0 0 1-17.44 15.22zm19.31 8.85-1.06-1.7a68.34 68.34 0 0 0 15.23-13.5l1.52 1.3a70.53 70.53 0 0 1-15.69 13.9z" transform="translate(-553.19 -179.03)"/><path class="cls-7" d="M723.91 674.74c14.72-37.2 36.37-52.41 53-58.55A29 29 0 0 1 811.27 628c11.41 18 29.05 46.49 33.93 58.22 3.7 8.89-1.67 23.22-15.87 22.89 3.83 10.8-11.8 18.17-24.26 13.94 1.59 8.45-13.51 12.51-21.15 8.31-5.35 8.54-26.16 9.34-54.48-23.5a32.43 32.43 0 0 1-5.53-33.12z" transform="translate(-553.19 -179.03)"/><path class="cls-8" transform="rotate(-31.72 154.269 1406.956)" d="M744.93 434h2v177.76h-2z"/><path class="cls-2" d="M839 685c15.34 0 19.13-4.87 19.13-4.87 8.73-31.42-10.71-84.18-10.71-84.18-14.71-2.87-35.21 11.36-35.21 32.11l-.21 24.8C811.87 665 820.7 685 839 685z" transform="translate(-553.19 -179.03)"/><path class="cls-5" d="M848.46 679.46c11.88 3 21.58-4.48 21.65-16.67l.26-39.08c.07-12.18-9.5-24.46-21.38-27.44-11.88-3-21.58 4.49-21.65 16.67l-.26 39.06c-.08 12.2 9.49 24.49 21.38 27.46z" transform="translate(-553.19 -179.03)"/><path class="cls-8" d="M820.35 707a50.88 50.88 0 0 1-18.72-14.94l1.58-1.23a48.74 48.74 0 0 0 18 14.36zM796 719.54a60.23 60.23 0 0 1-17-16.19l1.63-1.15A58.36 58.36 0 0 0 797 717.84zm-19.57 8.56a74 74 0 0 1-13.38-12.42l1.53-1.3a71.08 71.08 0 0 0 13 12.08z" transform="translate(-553.19 -179.03)"/><path class="cls-4" d="M853.61 681.12a21.8 21.8 0 0 1-5.4-.69c-12.28-3.07-22.21-15.82-22.13-28.43l.26-39.08c0-6.19 2.43-11.43 6.74-14.77s10.08-4.39 16.16-2.87c12.28 3.08 22.21 15.82 22.13 28.42l-.26 39.08c0 6.18-2.43 11.43-6.74 14.77a17.31 17.31 0 0 1-10.76 3.57zm-4.91-2.62c5.47 1.36 10.59.47 14.44-2.51s5.94-7.65 6-13.2l.26-39.08c.07-11.73-9.18-23.6-20.62-26.47-5.46-1.37-10.59-.48-14.44 2.51s-5.94 7.64-6 13.2l-.26 39.05c-.07 11.73 9.18 23.6 20.62 26.47z" transform="translate(-553.19 -179.03)"/><path class="cls-1" d="M875.26 614.68a6.23 6.23 0 0 0-7.92-3.83l-20.46 6.94a4.85 4.85 0 0 0-2.83 4.74c0 3.32 2.26 6.53 5.11 7.16a4.35 4.35 0 0 0 1.83 0c.43-.1 20.44-7.1 20.44-7.1a6.22 6.22 0 0 0 3.83-7.91zm0 24.76a6.23 6.23 0 0 0-7.92-3.83s-20.17 6.84-20.46 6.95a4.83 4.83 0 0 0-2.83 4.73c0 3.33 2.26 6.54 5.11 7.17a4.34 4.34 0 0 0 1.83 0c.43-.1 20.44-7.1 20.44-7.1a6.22 6.22 0 0 0 3.83-7.92z" transform="translate(-553.19 -179.03)"/><path class="cls-4" d="M965.92 617.62a33 33 0 0 0-11.21-14.79l1.2-1.59a34.84 34.84 0 0 1 11.88 15.68zm-151.36 1.52-1.91-.6a34.45 34.45 0 0 1 10.35-15.6l1.32 1.5a32.35 32.35 0 0 0-9.76 14.7zm112.82 61.98a17.28 17.28 0 0 1-10.75-3.55c-4.31-3.34-6.71-8.59-6.75-14.77l-.25-39.08c-.08-12.6 9.85-25.34 22.13-28.42 6.07-1.52 11.81-.5 16.15 2.87s6.71 8.58 6.75 14.77l.25 39.08c.08 12.59-9.85 25.34-22.13 28.41a21.8 21.8 0 0 1-5.4.69zm9.77-84.5a20.07 20.07 0 0 0-4.9.62c-11.45 2.87-20.7 14.74-20.62 26.47l.25 39.08c0 5.55 2.16 10.24 6 13.2s9 3.87 14.45 2.51c11.44-2.87 20.69-14.74 20.61-26.47l-.28-39.03c0-5.56-2.16-10.24-6-13.2a15.35 15.35 0 0 0-9.51-3.18zM809.28 355.16a1 1 0 0 1-1-.8 39.92 39.92 0 0 1 65.6-37.9 1 1 0 1 1-1.32 1.49 37.94 37.94 0 0 0-62.32 36 1 1 0 0 1-.78 1.18.71.71 0 0 1-.18.03zm163.26 0a.71.71 0 0 1-.2 0 1 1 0 0 1-.78-1.18 38 38 0 0 0-35.06-45.51 1 1 0 0 1 .11-2 40 40 0 0 1 36.91 47.9 1 1 0 0 1-.98.79z" transform="translate(-553.19 -179.03)"/><path class="cls-8" transform="rotate(-42.39 353.057 1144.214)" d="M859.41 460.4h2v120.04h-2z"/><path class="cls-8" d="m281 339.76-34.74-1.38-4.17-59.49 2-.14 4.04 57.71 32.95 1.3-.08 2zm80.56 62.46-91.39-31.44 5.16-16.82 1.91.59-4.6 14.97 89.57 30.81-.65 1.89zm21.8-62.46-.07-2 32.95-1.3 4.04-57.71 2 .14-4.17 59.49-34.75 1.38zm-29.29 44.82-.65-1.89 38.3-13.17-4.99-16.25 1.92-.58 5.55 18.09-40.13 13.8z"/><path class="cls-8" transform="rotate(-46.8 440.05 1065.128)" d="M873.44 514.46h100.07v2H873.44z"/></g></svg>