<?xml version="1.0" encoding="utf-8"?>
<!-- Generator: Adobe Illustrator 23.0.1, SVG Export Plug-In . SVG Version: 6.00 Build 0)  -->
<svg version="1.1" xmlns="http://www.w3.org/2000/svg" xmlns:xlink="http://www.w3.org/1999/xlink" x="0px" y="0px"
	 viewBox="0 0 1920 1080" style="enable-background:new 0 0 1920 1080;" xml:space="preserve">
<style type="text/css">
	.st0{fill:#274D76;}
	.st1{fill:#93B4F6;}
	.st2{fill:#FFFFFF;}
	.st3{fill:#FFF3A1;}
	.st4{fill:#74BAAB;}
	.st5{fill:#F2BDBA;}
	.st6{fill:#EC8C92;}
</style>
<g id="BG">
	<g>
		<path class="st0" d="M1487.69,519.31c0,326.98-213.97,411.3-518.6,411.3c-300.18,0-515.4-104.27-515.4-411.3
			c0-262.93,231.47-439.28,517-439.28S1487.69,256.38,1487.69,519.31z"/>
	</g>
	<g>
		<path class="st1" d="M1307.49,779.27L997.23,121.17c-11.97-23.06-41.36-23.06-53.33,0L648.1,779.27
			c-38.95,75.07,194.79,129.98,322.1,129.98C1091.49,909.25,1348.14,857.63,1307.49,779.27z"/>
	</g>
	<g>
		<g>
			<path class="st0" d="M768.35,779.37c1.51-6.56,18.71,0.41,36.6-3.18c13.74-2.75,11.45-16.84,61.98-14.68
				c49.04,2.09,46.54-14.36,80.09-14.49c22.99-0.09,24.45,6.09,48.71,3.11c16.59-2.03,23.86-10.97,39.23-10.97
				c21.78,0,32.11,10.51,45.59,11.05c15.32,0.61,19.61-8.05,34.64-7.29c18.03,0.91,20.84,12.16,50.81,9.45
				c6.95-0.63,9.04,6.55,5.92,12.93c-1.52,3.09-9.96,17.91-37.67,18.95c-17.96,0.67-22.05-1.39-41.86,4.94
				c-19.82,6.34-25.6,19.22-52.5,19.46c-46.9,0.43-50.31-8.01-75.16-2.35c-17.04,3.89-32.68,15.54-53.35,15.07
				c-20.67-0.47-44.1-12.55-64.27-12.04C797.13,810.62,764.63,795.52,768.35,779.37z"/>
		</g>
	</g>
	<path class="st2" d="M725.49,721.83c-4.01,0-8.03-0.78-11.83-2.37l-11.79-4.93l0.77-1.85l11.79,4.93
		c8.61,3.6,18.46,2.78,26.35-2.19l4-2.52c9.63-6.06,21.74-6.31,31.61-0.65l11.53,6.61l-0.99,1.73l-11.53-6.61
		c-9.23-5.29-20.55-5.06-29.55,0.61l-4,2.52C736.89,720.24,731.2,721.83,725.49,721.83z"/>
	<path class="st2" d="M1164.19,728.38c-4.47,0-8.96-0.99-13.03-2.98l-15.09-7.38c-7.54-3.69-16.9-3.67-24.42,0.06l-0.89-1.79
		c8.19-4.06,17.97-4.08,26.19-0.07l15.09,7.38c8.11,3.97,17.98,3.67,25.76-0.78l9.74-5.56c8.06-4.6,18.36-5.06,26.9-1.18l15.19,6.9
		l-0.83,1.82l-15.19-6.9c-7.96-3.61-17.57-3.19-25.08,1.1l-9.74,5.56C1174.35,727.1,1169.27,728.38,1164.19,728.38z"/>
	<path class="st2" d="M1070.37,726.78l-23.23-10.06c-6.92-2.99-14.87-3.03-21.83-0.11l-22.75,9.58l-0.78-1.84l22.75-9.58
		c7.45-3.14,15.98-3.1,23.4,0.11l23.23,10.06L1070.37,726.78z"/>
	<path class="st2" d="M912.1,737.3c-4.67,0-9.34-1.09-13.59-3.26l-6.69-3.41c-7.2-3.67-15.63-4.05-23.12-1.02l-15.89,6.41
		l-0.75-1.86l15.89-6.41c8.03-3.24,17.06-2.84,24.78,1.1l6.69,3.41c7.94,4.05,17.42,4.05,25.37,0l7.47-3.81l0.91,1.78l-7.47,3.81
		C921.44,736.22,916.77,737.3,912.1,737.3z"/>
	<path class="st2" d="M960.6,817.5c-4.67,0-9.34-1.09-13.59-3.26l-6.69-3.41c-7.2-3.67-15.63-4.05-23.12-1.02l-15.89,6.41
		l-0.75-1.86l15.89-6.41c8.03-3.24,17.06-2.84,24.78,1.1l6.69,3.41c7.94,4.05,17.43,4.05,25.37,0l7.47-3.81l0.91,1.78l-7.47,3.81
		C969.94,816.42,965.27,817.5,960.6,817.5z"/>
	<path class="st2" d="M741.57,755.66c-4.83,0-9.65-0.93-14.19-2.8l-11.18-4.61l0.76-1.85l11.18,4.61c8.98,3.71,19.2,3.52,28.04-0.51
		l8.43-3.84c9.13-4.17,19.73-4.45,29.06-0.77l18.81,7.41l-0.73,1.86l-18.81-7.41c-8.84-3.48-18.86-3.21-27.5,0.73l-8.43,3.84
		C752.13,754.54,746.85,755.66,741.57,755.66z"/>
	<path class="st2" d="M1003.16,787.72l-1.08-1.69l20.41-13.02c8.38-5.35,18.66-5.92,27.49-1.54l16.15,8.02
		c8,3.97,17.02,3.62,24.75-0.96l12.75-7.55c7.02-4.16,15.09-5.09,22.73-2.63l19.72,6.36l-0.61,1.9l-19.72-6.36
		c-7.09-2.29-14.58-1.42-21.1,2.45l-12.75,7.55c-8.2,4.86-18.17,5.24-26.66,1.03l-16.15-8.02c-8.19-4.07-17.74-3.53-25.52,1.44
		L1003.16,787.72z"/>
	<path class="st2" d="M924.9,774.07l-1-1.73l18.23-10.54c5.71-3.3,12.63-3.47,18.5-0.46l7.44,3.83c4.07,2.09,8.71,2.49,13.07,1.13
		l11.82-3.68l0.6,1.91l-11.82,3.68c-4.87,1.52-10.04,1.07-14.58-1.26l-7.45-3.83c-5.26-2.71-11.46-2.55-16.58,0.41L924.9,774.07z"/>
	<path class="st2" d="M814.66,794.35l-0.9-1.79l16.22-8.17c4.37-2.2,9.47-2.41,14.01-0.57l13.7,5.55c4.56,1.85,9.75,1.34,13.86-1.37
		l9.62-6.34c4.36-2.88,9.92-3.58,14.85-1.88l19.35,6.65l-0.65,1.89l-19.35-6.65c-4.36-1.5-9.25-0.88-13.1,1.66l-9.62,6.34
		c-4.66,3.07-10.54,3.65-15.71,1.56l-13.7-5.55c-4-1.62-8.5-1.44-12.36,0.5L814.66,794.35z"/>
	<path class="st2" d="M696.83,807.81c-4.66,0-9.31-1.09-13.62-3.27l-20.15-10.18l0.9-1.79l20.15,10.18
		c7.79,3.94,16.79,4.07,24.7,0.37l11.27-5.28c7.41-3.47,16.03-3.78,23.67-0.84l18.36,7.06l-0.72,1.87l-18.36-7.06
		c-7.13-2.74-15.18-2.46-22.1,0.79l-11.27,5.28C705.56,806.85,701.19,807.81,696.83,807.81z"/>
	<path class="st2" d="M1203.91,760.84c-4.83,0-9.65-0.93-14.18-2.8l-11.18-4.61l0.76-1.85l11.18,4.61
		c8.98,3.71,19.2,3.52,28.04-0.51l8.43-3.84c9.13-4.17,19.73-4.45,29.06-0.77l18.81,7.41l-0.73,1.86l-18.81-7.41
		c-8.84-3.48-18.86-3.22-27.5,0.73l-8.43,3.84C1214.48,759.73,1209.2,760.84,1203.91,760.84z"/>
	<path class="st2" d="M1223.24,807.81c-4.66,0-9.31-1.09-13.62-3.27l-20.15-10.18l0.9-1.79l20.15,10.18
		c7.79,3.94,16.79,4.07,24.7,0.37l11.27-5.28c7.41-3.47,16.04-3.78,23.67-0.84l18.36,7.06l-0.72,1.87l-18.36-7.06
		c-7.13-2.74-15.18-2.46-22.1,0.79l-11.27,5.28C1231.97,806.85,1227.6,807.81,1223.24,807.81z"/>
	<path class="st2" d="M845.75,840.89c-5.07,0-10.15-1.06-14.89-3.19l-13.5-6.09c-8.85-3.99-19.01-4.03-27.89-0.12l-12.64,5.57
		l-0.81-1.83l12.64-5.57c9.4-4.14,20.16-4.1,29.52,0.12l13.5,6.09c9.99,4.51,21.64,3.94,31.14-1.53l1,1.73
		C858.26,839.27,852.02,840.89,845.75,840.89z"/>
	<path class="st2" d="M1154.46,840.05c-4.33,0-8.67-0.94-12.75-2.83l-13.52-6.28c-8.92-4.14-19.52-3.3-27.67,2.19l-2.27,1.53
		c-8.73,5.88-20.09,6.78-29.64,2.34l-15.16-7.04c-7.88-3.66-16.85-3.52-24.61,0.39l-16,8.06l-0.9-1.79l16-8.06
		c8.31-4.18,17.91-4.33,26.35-0.41l15.16,7.04c8.92,4.14,19.52,3.31,27.68-2.18l2.27-1.53c8.73-5.88,20.08-6.78,29.63-2.35
		l13.52,6.28c8.78,4.08,18.9,3.41,27.07-1.8l3.76-2.39l1.07,1.69l-3.76,2.39C1165.74,838.45,1160.11,840.05,1154.46,840.05z"/>
	<path class="st2" d="M952.38,874.16c-4.66,0-9.33-0.82-13.77-2.48l-29.16-10.89c-8.58-3.21-18.02-3.15-26.56,0.15l-18.19,7.03
		l-0.72-1.87l18.19-7.03c9-3.48,18.94-3.53,27.98-0.16l29.16,10.89c9.77,3.65,20.71,3.04,30.01-1.68l12.64-6.42
		c10.1-5.12,21.92-5.65,32.43-1.46l19.37,7.73l-0.74,1.86l-19.37-7.73c-9.98-3.98-21.2-3.48-30.78,1.38l-12.64,6.42
		C964.65,872.73,958.52,874.16,952.38,874.16z"/>
</g>
<g id="fisherman">
	<path class="st2" d="M614.38,506.83h-2V211.58c0-1.29,0.74-2.41,1.93-2.92c1.19-0.51,2.51-0.26,3.44,0.63l182.23,210.98l-1.51,1.31
		L616.3,210.67c-0.46-0.43-1.04-0.24-1.21-0.17c-0.17,0.07-0.71,0.36-0.71,1.08V506.83z"/>
	<g>
		<g>
			<polygon class="st1" points="1206.66,411.04 1220.39,380.87 1068.69,453.67 1004.86,533.93 1036.69,571.52 1103.05,542.46 			"/>
		</g>
	</g>
	<g>
		<g>
			<path class="st2" d="M967.08,306.75L836.9,490.42l49.97,72.36l138.42-41.91l110.66-14.74L980.14,306.5
				C976.81,302.17,970.24,302.29,967.08,306.75z"/>
		</g>
	</g>
	<g>
		<g>
			<path class="st1" d="M971.83,310.45l-16.05,113.45l47.14-9.09l-26.13-104.51C976.13,307.64,972.33,307.76,971.83,310.45z"/>
		</g>
	</g>
	<g>
		<g>
			<path class="st1" d="M744.66,400.11l-32.37-41.5c-8.07-3.46-16.63,4.65-11.42,15.89c6.99,15.08,25.92,61.23,25.92,61.23
				l77.02,184.45l19.88-43.64L744.66,400.11z"/>
		</g>
	</g>
	<g>
		<g>
			<path class="st1" d="M624.69,201.58c21.44,23.43,180.05,195.43,224.86,244.74c-1.16,6.47-10.4,7.28-10.4,7.28L622.81,203.81
				C621.78,202.62,623.3,200.06,624.69,201.58z"/>
		</g>
	</g>
	<g>
		<g>
			<path class="st2" d="M1062.31,547.42c-5,3.86-11.04,6.06-31.16-4.76c-86.01-46.23-274.07-155.37-318.87-184.06
				c-2.63-1.68-5.89,0.9-4.86,3.85l102,272.75c6.12,13.43,20.2,20.27,34.89,18.78l139.62-12.94c1.94-0.2,3.88-0.45,5.81-0.77
				l119.66-19.48c4.17-0.68,7.73-3.36,9.52-7.18c16.51-35.11,98.82-210.25,103.08-220.9c3.87-9.69-0.13-14.78-4.64-10.03
				C1211.78,388.58,1121.3,489.92,1062.31,547.42z"/>
		</g>
	</g>
	<g>
		<g>
			<path class="st1" d="M1112.66,615.66c1.75-0.75,2.31-2.95,1.1-4.42c-12.22-14.72-34.4-41.2-53.43-54.56
				c-3.22-2.26-7.24-3.13-11.14-2.38c-38.94,7.49-162.16,66.59-206.15,88.02c-2.8,1.36-1.66,7.45,1.45,7.16
				c0.04,0,0.08-1.81,0.12-1.81l139.56-12.05c1.94-0.18,3.88-0.42,5.81-0.72l119.59-18.36
				C1110.64,616.37,1111.68,616.07,1112.66,615.66z"/>
		</g>
	</g>
	
		<rect x="741.33" y="340.51" transform="matrix(0.7273 -0.6863 0.6863 0.7273 -30.6104 605.9868)" class="st2" width="11.94" height="2"/>
	<path class="st2" d="M736.14,354.91c-1.08,0-1.96-0.36-2.56-1.06c-1.52-1.78-0.45-5.1,2.42-7.56c2.88-2.46,6.32-2.99,7.84-1.22
		c0.8,0.93,0.92,2.28,0.35,3.8c-0.5,1.32-1.48,2.65-2.78,3.76c-1.29,1.11-2.77,1.87-4.14,2.16
		C736.88,354.87,736.5,354.91,736.14,354.91z M741.28,346.01c-1.03,0-2.55,0.59-3.97,1.8c-2.07,1.77-2.87,3.96-2.2,4.74
		c0.3,0.35,0.94,0.45,1.77,0.28c1.04-0.21,2.22-0.84,3.25-1.72c1.03-0.88,1.83-1.95,2.2-2.94c0.3-0.79,0.3-1.45,0-1.8l0,0
		C742.12,346.13,741.75,346.01,741.28,346.01z"/>
	
		<rect x="676.08" y="265.61" transform="matrix(0.7423 -0.6701 0.6701 0.7423 -3.1207 525.0994)" class="st2" width="10.12" height="2"/>
	<path class="st2" d="M670.51,279.08c-1.1,0-2.05-0.36-2.66-1.11c-1.48-1.81-0.34-5.11,2.59-7.5c1.32-1.08,2.81-1.81,4.19-2.06
		c1.6-0.29,2.9,0.07,3.68,1.02l0,0c0.78,0.95,0.87,2.3,0.27,3.81c-0.52,1.3-1.54,2.62-2.86,3.69
		C674,278.34,672.09,279.08,670.51,279.08z M675.67,270.31c-0.2,0-0.43,0.02-0.67,0.07c-1.04,0.19-2.24,0.79-3.29,1.64
		c-2.11,1.72-2.96,3.89-2.31,4.69c0.65,0.79,2.95,0.39,5.05-1.33c1.05-0.85,1.87-1.91,2.27-2.89c0.32-0.79,0.33-1.44,0.04-1.79l0,0
		C676.56,270.44,676.17,270.31,675.67,270.31z"/>
	
		<rect x="620.66" y="202.81" transform="matrix(0.6963 -0.7178 0.7178 0.6963 43.443 510.2955)" class="st2" width="8.06" height="2"/>
	<path class="st2" d="M615.48,216.21c-0.97,0-1.81-0.3-2.4-0.94c-1.6-1.71-0.68-5.07,2.09-7.66c2.77-2.58,6.18-3.27,7.78-1.56h0
		c1.59,1.71,0.68,5.07-2.09,7.66C619.12,215.34,617.12,216.21,615.48,216.21z M620.53,207.1c-1.03,0-2.59,0.66-4,1.98
		c-1.99,1.86-2.69,4.08-1.99,4.83c0.7,0.75,2.97,0.2,4.95-1.66c1.99-1.86,2.69-4.08,1.99-4.83
		C621.28,207.21,620.95,207.1,620.53,207.1z"/>
	<g>
		<g>
			<g>
				<path class="st3" d="M619.67,542.76c2.49-0.47,4.64-0.98,6.42-1.48c-3.72-18.69-9.38-33.05-12.85-32.39
					c-3.47,0.66-3.48,16.1-0.09,34.85C614.99,543.54,617.17,543.23,619.67,542.76z"/>
			</g>
		</g>
	</g>
	<g>
		<g>
			<path class="st4" d="M620.23,545.71c-2.12,0.4-4.37,0.77-6.52,1.01c3.72,18.92,9.45,33.53,12.95,32.87
				c3.5-0.66,3.48-16.36,0-35.33C624.58,544.82,622.35,545.3,620.23,545.71z"/>
		</g>
	</g>
	<rect x="624.89" y="651.48" class="st2" width="2" height="43.91"/>
	<rect x="624.89" y="582.51" class="st2" width="2" height="49.56"/>
	<g>
		<path class="st4" d="M625.89,647.77L625.89,647.77c-3.66,0-4.7-6.55-4.95-8.08c-0.45-2.7,2.22-4.95,4.95-4.95h0
			c2.74,0,5.41,2.26,4.95,4.95C630.59,641.21,629.65,647.77,625.89,647.77z"/>
	</g>
	<path class="st2" d="M625.91,731.21c-6.74,0-12.23-5.49-12.23-12.23c0-5.18,2.65-8.01,5.2-10.74c2.96-3.17,6.03-6.44,6.03-13.83h2
		c0,8.18-3.49,11.91-6.56,15.2c-2.5,2.68-4.66,4.99-4.66,9.38c0,5.64,4.59,10.23,10.23,10.23c5.64,0,10.23-4.59,10.23-10.23
		c0-2.05-0.6-4.02-1.74-5.71l1.66-1.12c1.36,2.02,2.08,4.38,2.08,6.83C638.14,725.72,632.65,731.21,625.91,731.21z"/>
	<path class="st2" d="M629.33,719.03l-0.53-1.93c5.03-1.37,5.12-5.27,5.12-5.3l2,0.02C635.91,713.69,634.51,717.62,629.33,719.03z"
		/>
	
		<rect x="608.85" y="472.89" transform="matrix(0.981 -0.194 0.194 0.981 -83.462 127.5918)" class="st2" width="2" height="34.25"/>
	<g>
		<g>
			<path class="st3" d="M1044.21,506.56c5.5-11.32,17.18-20.12,32.98-19.5c3.3-9.06,18.49-36.25,15.6-56.43
				c-2.64-18.45-17.47-24.96-30.08-29.11c-1.55-0.51-3.02-0.99-4.45-1.45c15.89,15.4,6.73,46.41,0.65,65.62
				C1054.39,479.98,1047.59,497.86,1044.21,506.56z"/>
		</g>
	</g>
	<g>
		<g>
			<path class="st5" d="M1098.63,497.69c8.41-6.39,17.81-5.47,24.98-3.46c-14.67-6.58-38.28-6.45-46.42-7.17
				c-18.18-0.72-30.9,11.04-35.04,24.75c-5.74,19.01-7.56,23.6-7.56,23.6c15-0.6,25.27-1.42,45.54-6.79
				C1091.6,517.99,1085.19,507.9,1098.63,497.69z"/>
		</g>
	</g>
	<g>
		<g>
			<path class="st3" d="M1058.91,465.7c6.07-19.21,15.23-50.22-0.65-65.62c-15.62-5.01-25.23-7.2-42.46-8.24
				c0,0-39.87,0.27-49.79,6.52c-22.47,14.18-41.38,46.34-61.31,72.91c0,0,96.85,56.87,127.35,72c1.09-2.24,0.86-4.53,2.53-7.85
				c0,0,1.83-4.59,7.56-23.6c0.54-1.79,1.23-3.55,2.06-5.25C1047.59,497.86,1054.39,479.98,1058.91,465.7z"/>
		</g>
	</g>
	<g>
		<g>
			<path class="st5" d="M1136.7,522.65c0.52-8.04-4.12-20.57-15.1-30.22c-1.94-1.71-4.34-3.14-7.03-4.35
				c-7.17-2.01-16.56-2.93-24.98,3.46c-13.44,10.21-9.06,18.47-18.51,30.94c-1.75,2.31-3.68,5.46-3.66,7.13
				c0.07,5,6.43,5.61,8.36,4.32c4.84-3.23,9.27-13.34,16.04-13.04c14.74,0.65,10.79,22.22,11.06,24.73
				c0.32,3.07,6.56,5.21,10.07,1.26c1.81,3.39,9.89,0.87,10.92-8.37c3.85,0.45,6.63-2.4,6.97-9.62
				C1132.61,529.89,1136.3,528.79,1136.7,522.65z"/>
		</g>
	</g>
	<g>
		<g>
			<path class="st3" d="M904.71,471.27c0,0,21.45,12.58,47.29,27.44c12.52-16.37,28.54-37.1,35.01-44.65
				c12.6-14.71,14.14-34.13,5.1-46.42c-4.42-6-10.03-11.1-20.89-11.42c-2.13,0.62-3.92,1.33-5.2,2.14
				C943.54,412.54,924.63,444.69,904.71,471.27z"/>
		</g>
	</g>
	<g>
		<path class="st5" d="M993.13,502.45c-1.19-1.54-2.36-3.1-3.5-4.68c-8.5-11.87-18.33-20.59-34.55-25.42
			c-25.82-7.68-50.37-1.08-50.37-1.08c13.24,7.64,50.96,30.88,48.99,47.63c-2.18,18.52-1.22,21.13,5.2,22.46
			c-1.52,10.01,4.02,12.7,8.51,11.85c-1.63,9.35,8.69,10.57,12.04,4.27c4.48,2.02,8.67,0.73,10.46-1.33
			c5.26-6.06,9.89-20.23,10.32-29.95c-1.43-13.16-7.08-23.71-7.08-23.71L993.13,502.45z"/>
	</g>
	<g>
		<path class="st6" d="M1009.07,519.32c-5.95-4.99-11.19-10.73-15.94-16.87l0.02,0.04c0,0,5.66,10.56,7.08,23.71
			c5.59,3.05,10.85,5.94,16.76,9.09C1018.18,529.31,1014.21,523.63,1009.07,519.32z"/>
	</g>
	<path d="M999.28,525.13c-0.11-3.76-1.2-8.25-1.22-8.3l1.94-0.48c0.05,0.19,1.15,4.75,1.27,8.72L999.28,525.13z"/>
	<g>
		<path class="st5" d="M1077.92,358.74c-9.82-14.6-27.22-10.13-39.76,5.47c-4.88-3.16-13.24,4.71-9.56,12.1
			c0.51,1.02,0.33,2.26-0.45,3.1h0h0c0,0-4.18,13.52,2.24,24.13c6.42,10.6,19.71,5.82,19.71,5.82l0,0
			c6.73-2.88,12.55-6.93,12.55-6.93C1077.62,391.25,1086.96,372.17,1077.92,358.74z"/>
	</g>
	<path d="M983.65,554.3l-1.85-0.75c4.44-10.95,4.1-21.85,4.09-21.96l2-0.07C987.91,531.98,988.26,542.96,983.65,554.3z"/>
	<path d="M968.97,550.34l-1.87-0.72c2.99-7.79,4.3-13.88,4.54-21.02l2,0.07C973.39,536.04,972.04,542.32,968.97,550.34z"/>
	<path d="M959.49,539.13l-1.84-0.79c2.58-6.01,2.9-12.23,2.86-15.41l2-0.03C962.55,526.24,962.22,532.78,959.49,539.13z"/>
	<path d="M1114.7,543.02l-1.98-0.29c0.32-2.16,0.5-4.54,0.51-7.08c0.04-6.23-1.71-11.62-3.19-15.04l1.84-0.79
		c1.55,3.6,3.4,9.27,3.35,15.85C1115.22,538.29,1115.04,540.76,1114.7,543.02z"/>
	<path d="M1123.32,534.36c-0.2-10.29-3.45-18.3-3.48-18.38l1.85-0.76c0.14,0.34,3.42,8.44,3.63,19.1L1123.32,534.36z"/>
	<path d="M1130.13,525.87c-0.42-7.6-3-13.72-3.03-13.78l1.84-0.79c0.11,0.26,2.75,6.51,3.19,14.46L1130.13,525.87z"/>
	<g>
		<g>
			<path d="M1077.92,358.74c-9.82-14.6-27.22-10.13-39.76,5.47l2.88,6.9c0.53,1.27,2.19,1.58,3.15,0.59l7.52-7.85
				c1.55-1.62,4.29-0.86,4.75,1.33c0.9,4.26,3.12,10.05,8.59,14.14c5.91,4.42,12.09,2.68,15.72-2.69
				C1082.2,370.33,1081.52,364.09,1077.92,358.74z"/>
		</g>
	</g>
	<g>
		<g>
			<path d="M1061.29,393.08L1061.29,393.08c-0.82-0.81-0.82-2.14-0.01-2.96l1.54-1.55c0.81-0.82,2.14-0.82,2.96-0.01l0,0
				c0.82,0.81,0.82,2.14,0.01,2.96l-1.54,1.55C1063.44,393.89,1062.11,393.9,1061.29,393.08z"/>
		</g>
	</g>
	<g>
		<g>
			<path d="M1048.73,387.53L1048.73,387.53c-0.82-0.81-0.82-2.14-0.01-2.96l1.54-1.55c0.81-0.82,2.14-0.82,2.96-0.01l0,0
				c0.82,0.81,0.82,2.14,0.01,2.96l-1.54,1.55C1050.88,388.34,1049.55,388.34,1048.73,387.53z"/>
		</g>
	</g>
	<path d="M1066.42,529.61c-0.01-1.07,0.55-2.58,1.68-4.5c0.78-1.32,1.62-2.49,2.19-3.25c3.87-5.1,5.34-9.44,6.78-13.64
		c1.28-3.76,2.49-7.31,5.27-10.99l1.6,1.21c-2.59,3.43-3.75,6.83-4.97,10.43c-1.41,4.15-3.01,8.84-7.08,14.21
		c-0.54,0.71-1.33,1.82-2.06,3.05c-1.28,2.17-1.4,3.14-1.4,3.46L1066.42,529.61z"/>
	<path d="M1101.85,533.1c-0.65-4.69-2.31-7.95-4.92-9.68c-1.41-0.93-3.14-1.45-5.15-1.54c-3.23-0.14-6.01,2.58-8.54,5.53l-1.52-1.3
		c2.86-3.34,6.08-6.42,10.14-6.23c2.38,0.11,4.45,0.73,6.17,1.87c3.11,2.06,5.06,5.79,5.8,11.07L1101.85,533.1z"/>
	<path d="M973.42,472.58l-1.58-1.23c6.75-8.64,11.6-14.68,14.4-17.95c11.94-13.93,14.06-32.93,5.06-45.17l1.61-1.19
		c9.55,12.99,7.39,33.03-5.15,47.66C984.98,457.95,980.16,463.97,973.42,472.58z"/>
	<path d="M1050.31,493.35l-1.88-0.7c3.99-10.7,7.19-19.87,9.52-27.25c1.32-4.17,2.71-8.69,3.99-13.47l1.93,0.52
		c-1.28,4.82-2.69,9.36-4.01,13.55C1057.52,473.41,1054.3,482.61,1050.31,493.35z"/>
	<path d="M1048.7,403.31c-2.01-1.79-5.93-3.4-5.97-3.41l0.75-1.85c0.17,0.07,4.27,1.75,6.55,3.77L1048.7,403.31z"/>
	<g>
		<path class="st6" d="M1030.39,403.53c-6.42-10.61-2.24-24.13-2.24-24.13c-5.44,5.88-12.35,12.43-12.35,12.43
			c-8.92,15.93-0.88,44.41,21.39,45.83c19.63,1.25,17.99-20.01,12.91-28.32C1050.1,409.35,1036.81,414.13,1030.39,403.53z"/>
	</g>
	<path d="M1035.52,409.93c-8.74-4.74-9.42-15.65-9.45-16.11l2-0.11c0.01,0.1,0.66,10.26,8.41,14.46L1035.52,409.93z"/>
</g>
</svg>
