<svg xmlns="http://www.w3.org/2000/svg" viewBox="0 0 1920 1080" style="enable-background:new 0 0 1920 1080" xml:space="preserve"><style>.st0{fill:#274d76}.st1{fill:#93b4f6}.st2{fill:#fff}.st3{fill:#fff3a1}.st4{fill:#74baab}.st5{fill:#f2bdba}.st6{fill:#ec8c92}</style><g id="BG"><path class="st0" d="M1487.69 519.31c0 326.98-213.97 411.3-518.6 411.3-300.18 0-515.4-104.27-515.4-411.3 0-262.93 231.47-439.28 517-439.28s517 176.35 517 439.28z"/><path class="st1" d="m1307.49 779.27-310.26-658.1c-11.97-23.06-41.36-23.06-53.33 0l-295.8 658.1c-38.95 75.07 194.79 129.98 322.1 129.98 121.29 0 377.94-51.62 337.29-129.98z"/><path class="st0" d="M768.35 779.37c1.51-6.56 18.71.41 36.6-3.18 13.74-2.75 11.45-16.84 61.98-14.68 49.04 2.09 46.54-14.36 80.09-14.49 22.99-.09 24.45 6.09 48.71 3.11 16.59-2.03 23.86-10.97 39.23-10.97 21.78 0 32.11 10.51 45.59 11.05 15.32.61 19.61-8.05 34.64-7.29 18.03.91 20.84 12.16 50.81 9.45 6.95-.63 9.04 6.55 5.92 12.93-1.52 3.09-9.96 17.91-37.67 18.95-17.96.67-22.05-1.39-41.86 4.94-19.82 6.34-25.6 19.22-52.5 19.46-46.9.43-50.31-8.01-75.16-2.35-17.04 3.89-32.68 15.54-53.35 15.07-20.67-.47-44.1-12.55-64.27-12.04-49.98 1.29-82.48-13.81-78.76-29.96z"/><path class="st2" d="M725.49 721.83c-4.01 0-8.03-.78-11.83-2.37l-11.79-4.93.77-1.85 11.79 4.93a28.71 28.71 0 0 0 26.35-2.19l4-2.52a30.622 30.622 0 0 1 31.61-.65l11.53 6.61-.99 1.73-11.53-6.61a28.618 28.618 0 0 0-29.55.61l-4 2.52a30.66 30.66 0 0 1-16.36 4.72zm438.7 6.55c-4.47 0-8.96-.99-13.03-2.98l-15.09-7.38c-7.54-3.69-16.9-3.67-24.42.06l-.89-1.79c8.19-4.06 17.97-4.08 26.19-.07l15.09 7.38c8.11 3.97 17.98 3.67 25.76-.78l9.74-5.56c8.06-4.6 18.36-5.06 26.9-1.18l15.19 6.9-.83 1.82-15.19-6.9c-7.96-3.61-17.57-3.19-25.08 1.1l-9.74 5.56c-4.44 2.54-9.52 3.82-14.6 3.82zm-93.82-1.6-23.23-10.06c-6.92-2.99-14.87-3.03-21.83-.11l-22.75 9.58-.78-1.84 22.75-9.58c7.45-3.14 15.98-3.1 23.4.11l23.23 10.06-.79 1.84zM912.1 737.3c-4.67 0-9.34-1.09-13.59-3.26l-6.69-3.41a27.878 27.878 0 0 0-23.12-1.02l-15.89 6.41-.75-1.86 15.89-6.41a29.884 29.884 0 0 1 24.78 1.1l6.69 3.41c7.94 4.05 17.42 4.05 25.37 0l7.47-3.81.91 1.78-7.47 3.81a29.841 29.841 0 0 1-13.6 3.26zm48.5 80.2c-4.67 0-9.34-1.09-13.59-3.26l-6.69-3.41a27.878 27.878 0 0 0-23.12-1.02l-15.89 6.41-.75-1.86 15.89-6.41a29.884 29.884 0 0 1 24.78 1.1l6.69 3.41a28.006 28.006 0 0 0 25.37 0l7.47-3.81.91 1.78-7.47 3.81a29.841 29.841 0 0 1-13.6 3.26zm-219.03-61.84c-4.83 0-9.65-.93-14.19-2.8l-11.18-4.61.76-1.85 11.18 4.61c8.98 3.71 19.2 3.52 28.04-.51l8.43-3.84c9.13-4.17 19.73-4.45 29.06-.77l18.81 7.41-.73 1.86-18.81-7.41c-8.84-3.48-18.86-3.21-27.5.73l-8.43 3.84a37.32 37.32 0 0 1-15.44 3.34zm261.59 32.06-1.08-1.69 20.41-13.02c8.38-5.35 18.66-5.92 27.49-1.54l16.15 8.02c8 3.97 17.02 3.62 24.75-.96l12.75-7.55c7.02-4.16 15.09-5.09 22.73-2.63l19.72 6.36-.61 1.9-19.72-6.36c-7.09-2.29-14.58-1.42-21.1 2.45l-12.75 7.55c-8.2 4.86-18.17 5.24-26.66 1.03l-16.15-8.02c-8.19-4.07-17.74-3.53-25.52 1.44l-20.41 13.02zm-78.26-13.65-1-1.73 18.23-10.54c5.71-3.3 12.63-3.47 18.5-.46l7.44 3.83c4.07 2.09 8.71 2.49 13.07 1.13l11.82-3.68.6 1.91-11.82 3.68a19.2 19.2 0 0 1-14.58-1.26l-7.45-3.83a17.23 17.23 0 0 0-16.58.41l-18.23 10.54zm-110.24 20.28-.9-1.79 16.22-8.17c4.37-2.2 9.47-2.41 14.01-.57l13.7 5.55a14.97 14.97 0 0 0 13.86-1.37l9.62-6.34c4.36-2.88 9.92-3.58 14.85-1.88l19.35 6.65-.65 1.89-19.35-6.65c-4.36-1.5-9.25-.88-13.1 1.66l-9.62 6.34a16.995 16.995 0 0 1-15.71 1.56l-13.7-5.55c-4-1.62-8.5-1.44-12.36.5l-16.22 8.17zm-117.83 13.46c-4.66 0-9.31-1.09-13.62-3.27l-20.15-10.18.9-1.79 20.15 10.18c7.79 3.94 16.79 4.07 24.7.37l11.27-5.28c7.41-3.47 16.03-3.78 23.67-.84l18.36 7.06-.72 1.87-18.36-7.06c-7.13-2.74-15.18-2.46-22.1.79l-11.27 5.28c-4.1 1.91-8.47 2.87-12.83 2.87zm507.08-46.97c-4.83 0-9.65-.93-14.18-2.8l-11.18-4.61.76-1.85 11.18 4.61c8.98 3.71 19.2 3.52 28.04-.51l8.43-3.84c9.13-4.17 19.73-4.45 29.06-.77l18.81 7.41-.73 1.86-18.81-7.41c-8.84-3.48-18.86-3.22-27.5.73l-8.43 3.84a37.175 37.175 0 0 1-15.45 3.34zm19.33 46.97c-4.66 0-9.31-1.09-13.62-3.27l-20.15-10.18.9-1.79 20.15 10.18c7.79 3.94 16.79 4.07 24.7.37l11.27-5.28c7.41-3.47 16.04-3.78 23.67-.84l18.36 7.06-.72 1.87-18.36-7.06c-7.13-2.74-15.18-2.46-22.1.79l-11.27 5.28c-4.1 1.91-8.47 2.87-12.83 2.87zm-377.49 33.08c-5.07 0-10.15-1.06-14.89-3.19l-13.5-6.09a34.302 34.302 0 0 0-27.89-.12l-12.64 5.57-.81-1.83 12.64-5.57c9.4-4.14 20.16-4.1 29.52.12l13.5 6.09c9.99 4.51 21.64 3.94 31.14-1.53l1 1.73c-5.56 3.2-11.8 4.82-18.07 4.82zm308.71-.84c-4.33 0-8.67-.94-12.75-2.83l-13.52-6.28c-8.92-4.14-19.52-3.3-27.67 2.19l-2.27 1.53c-8.73 5.88-20.09 6.78-29.64 2.34l-15.16-7.04c-7.88-3.66-16.85-3.52-24.61.39l-16 8.06-.9-1.79 16-8.06c8.31-4.18 17.91-4.33 26.35-.41l15.16 7.04c8.92 4.14 19.52 3.31 27.68-2.18l2.27-1.53c8.73-5.88 20.08-6.78 29.63-2.35l13.52 6.28c8.78 4.08 18.9 3.41 27.07-1.8l3.76-2.39 1.07 1.69-3.76 2.39a30.207 30.207 0 0 1-16.23 4.75zm-202.08 34.11c-4.66 0-9.33-.82-13.77-2.48l-29.16-10.89a37.342 37.342 0 0 0-26.56.15l-18.19 7.03-.72-1.87 18.19-7.03c9-3.48 18.94-3.53 27.98-.16l29.16 10.89a37.494 37.494 0 0 0 30.01-1.68l12.64-6.42a39.442 39.442 0 0 1 32.43-1.46l19.37 7.73-.74 1.86-19.37-7.73a37.419 37.419 0 0 0-30.78 1.38l-12.64 6.42a39.481 39.481 0 0 1-17.85 4.26z"/></g><g id="fisherman"><path class="st2" d="M614.38 506.83h-2V211.58c0-1.29.74-2.41 1.93-2.92a3.13 3.13 0 0 1 3.44.63l182.23 210.98-1.51 1.31L616.3 210.67c-.46-.43-1.04-.24-1.21-.17-.17.07-.71.36-.71 1.08v295.25z"/><path class="st1" d="m1206.66 411.04 13.73-30.17-151.7 72.8-63.83 80.26 31.83 37.59 66.36-29.06z"/><path class="st2" d="M967.08 306.75 836.9 490.42l49.97 72.36 138.42-41.91 110.66-14.74L980.14 306.5c-3.33-4.33-9.9-4.21-13.06.25z"/><path class="st1" d="M971.83 310.45 955.78 423.9l47.14-9.09-26.13-104.51c-.66-2.66-4.46-2.54-4.96.15zm-227.17 89.66-32.37-41.5c-8.07-3.46-16.63 4.65-11.42 15.89 6.99 15.08 25.92 61.23 25.92 61.23l77.02 184.45 19.88-43.64-79.03-176.43zM624.69 201.58c21.44 23.43 180.05 195.43 224.86 244.74-1.16 6.47-10.4 7.28-10.4 7.28L622.81 203.81c-1.03-1.19.49-3.75 1.88-2.23z"/><path class="st2" d="M1062.31 547.42c-5 3.86-11.04 6.06-31.16-4.76-86.01-46.23-274.07-155.37-318.87-184.06-2.63-1.68-5.89.9-4.86 3.85l102 272.75c6.12 13.43 20.2 20.27 34.89 18.78l139.62-12.94c1.94-.2 3.88-.45 5.81-.77l119.66-19.48c4.17-.68 7.73-3.36 9.52-7.18 16.51-35.11 98.82-210.25 103.08-220.9 3.87-9.69-.13-14.78-4.64-10.03-5.58 5.9-96.06 107.24-155.05 164.74z"/><path class="st1" d="M1112.66 615.66c1.75-.75 2.31-2.95 1.1-4.42-12.22-14.72-34.4-41.2-53.43-54.56a14.597 14.597 0 0 0-11.14-2.38c-38.94 7.49-162.16 66.59-206.15 88.02-2.8 1.36-1.66 7.45 1.45 7.16.04 0 .08-1.81.12-1.81l139.56-12.05c1.94-.18 3.88-.42 5.81-.72l119.59-18.36c1.07-.17 2.11-.47 3.09-.88z"/><path transform="rotate(-43.339 747.27 341.529)" class="st2" d="M741.33 340.51h11.94v2h-11.94z"/><path class="st2" d="M736.14 354.91c-1.08 0-1.96-.36-2.56-1.06-1.52-1.78-.45-5.1 2.42-7.56 2.88-2.46 6.32-2.99 7.84-1.22.8.93.92 2.28.35 3.8-.5 1.32-1.48 2.65-2.78 3.76-1.29 1.11-2.77 1.87-4.14 2.16-.39.08-.77.12-1.13.12zm5.14-8.9c-1.03 0-2.55.59-3.97 1.8-2.07 1.77-2.87 3.96-2.2 4.74.3.35.94.45 1.77.28 1.04-.21 2.22-.84 3.25-1.72 1.03-.88 1.83-1.95 2.2-2.94.3-.79.3-1.45 0-1.8-.21-.24-.58-.36-1.05-.36z"/><path transform="rotate(-42.072 681.093 266.585)" class="st2" d="M676.08 265.61h10.12v2h-10.12z"/><path class="st2" d="M670.51 279.08c-1.1 0-2.05-.36-2.66-1.11-1.48-1.81-.34-5.11 2.59-7.5 1.32-1.08 2.81-1.81 4.19-2.06 1.6-.29 2.9.07 3.68 1.02.78.95.87 2.3.27 3.81-.52 1.3-1.54 2.62-2.86 3.69-1.72 1.41-3.63 2.15-5.21 2.15zm5.16-8.77c-.2 0-.43.02-.67.07-1.04.19-2.24.79-3.29 1.64-2.11 1.72-2.96 3.89-2.31 4.69.65.79 2.95.39 5.05-1.33 1.05-.85 1.87-1.91 2.27-2.89.32-.79.33-1.44.04-1.79-.2-.26-.59-.39-1.09-.39z"/><path transform="rotate(-45.871 624.675 203.807)" class="st2" d="M620.66 202.81h8.06v2h-8.06z"/><path class="st2" d="M615.48 216.21c-.97 0-1.81-.3-2.4-.94-1.6-1.71-.68-5.07 2.09-7.66 2.77-2.58 6.18-3.27 7.78-1.56 1.59 1.71.68 5.07-2.09 7.66-1.74 1.63-3.74 2.5-5.38 2.5zm5.05-9.11c-1.03 0-2.59.66-4 1.98-1.99 1.86-2.69 4.08-1.99 4.83s2.97.2 4.95-1.66c1.99-1.86 2.69-4.08 1.99-4.83-.2-.21-.53-.32-.95-.32z"/><path class="st3" d="M619.67 542.76c2.49-.47 4.64-.98 6.42-1.48-3.72-18.69-9.38-33.05-12.85-32.39-3.47.66-3.48 16.1-.09 34.85 1.84-.2 4.02-.51 6.52-.98z"/><path class="st4" d="M620.23 545.71c-2.12.4-4.37.77-6.52 1.01 3.72 18.92 9.45 33.53 12.95 32.87 3.5-.66 3.48-16.36 0-35.33-2.08.56-4.31 1.04-6.43 1.45z"/><path class="st2" d="M624.89 651.48h2v43.91h-2zm0-68.97h2v49.56h-2z"/><path class="st4" d="M625.89 647.77c-3.66 0-4.7-6.55-4.95-8.08-.45-2.7 2.22-4.95 4.95-4.95 2.74 0 5.41 2.26 4.95 4.95-.25 1.52-1.19 8.08-4.95 8.08z"/><path class="st2" d="M625.91 731.21c-6.74 0-12.23-5.49-12.23-12.23 0-5.18 2.65-8.01 5.2-10.74 2.96-3.17 6.03-6.44 6.03-13.83h2c0 8.18-3.49 11.91-6.56 15.2-2.5 2.68-4.66 4.99-4.66 9.38 0 5.64 4.59 10.23 10.23 10.23 5.64 0 10.23-4.59 10.23-10.23 0-2.05-.6-4.02-1.74-5.71l1.66-1.12a12.18 12.18 0 0 1 2.08 6.83c-.01 6.73-5.5 12.22-12.24 12.22z"/><path class="st2" d="m629.33 719.03-.53-1.93c5.03-1.37 5.12-5.27 5.12-5.3l2 .02c-.01 1.87-1.41 5.8-6.59 7.21z"/><path transform="rotate(-11.19 609.707 489.93)" class="st2" d="M608.85 472.89h2v34.25h-2z"/><path class="st3" d="M1044.21 506.56c5.5-11.32 17.18-20.12 32.98-19.5 3.3-9.06 18.49-36.25 15.6-56.43-2.64-18.45-17.47-24.96-30.08-29.11-1.55-.51-3.02-.99-4.45-1.45 15.89 15.4 6.73 46.41.65 65.62-4.52 14.29-11.32 32.17-14.7 40.87z"/><path class="st5" d="M1098.63 497.69c8.41-6.39 17.81-5.47 24.98-3.46-14.67-6.58-38.28-6.45-46.42-7.17-18.18-.72-30.9 11.04-35.04 24.75-5.74 19.01-7.56 23.6-7.56 23.6 15-.6 25.27-1.42 45.54-6.79 11.47-10.63 5.06-20.72 18.5-30.93z"/><path class="st3" d="M1058.91 465.7c6.07-19.21 15.23-50.22-.65-65.62-15.62-5.01-25.23-7.2-42.46-8.24 0 0-39.87.27-49.79 6.52-22.47 14.18-41.38 46.34-61.31 72.91 0 0 96.85 56.87 127.35 72 1.09-2.24.86-4.53 2.53-7.85 0 0 1.83-4.59 7.56-23.6.54-1.79 1.23-3.55 2.06-5.25 3.39-8.71 10.19-26.59 14.71-40.87z"/><path class="st5" d="M1136.7 522.65c.52-8.04-4.12-20.57-15.1-30.22-1.94-1.71-4.34-3.14-7.03-4.35-7.17-2.01-16.56-2.93-24.98 3.46-13.44 10.21-9.06 18.47-18.51 30.94-1.75 2.31-3.68 5.46-3.66 7.13.07 5 6.43 5.61 8.36 4.32 4.84-3.23 9.27-13.34 16.04-13.04 14.74.65 10.79 22.22 11.06 24.73.32 3.07 6.56 5.21 10.07 1.26 1.81 3.39 9.89.87 10.92-8.37 3.85.45 6.63-2.4 6.97-9.62 1.77 1 5.46-.1 5.86-6.24z"/><path class="st3" d="M904.71 471.27s21.45 12.58 47.29 27.44c12.52-16.37 28.54-37.1 35.01-44.65 12.6-14.71 14.14-34.13 5.1-46.42-4.42-6-10.03-11.1-20.89-11.42-2.13.62-3.92 1.33-5.2 2.14-22.48 14.18-41.39 46.33-61.31 72.91z"/><path class="st5" d="M993.13 502.45c-1.19-1.54-2.36-3.1-3.5-4.68-8.5-11.87-18.33-20.59-34.55-25.42-25.82-7.68-50.37-1.08-50.37-1.08 13.24 7.64 50.96 30.88 48.99 47.63-2.18 18.52-1.22 21.13 5.2 22.46-1.52 10.01 4.02 12.7 8.51 11.85-1.63 9.35 8.69 10.57 12.04 4.27 4.48 2.02 8.67.73 10.46-1.33 5.26-6.06 9.89-20.23 10.32-29.95-1.43-13.16-7.08-23.71-7.08-23.71l-.02-.04z"/><path class="st6" d="M1009.07 519.32c-5.95-4.99-11.19-10.73-15.94-16.87l.02.04s5.66 10.56 7.08 23.71c5.59 3.05 10.85 5.94 16.76 9.09 1.19-5.98-2.78-11.66-7.92-15.97z"/><path d="M999.28 525.13c-.11-3.76-1.2-8.25-1.22-8.3l1.94-.48c.05.19 1.15 4.75 1.27 8.72l-1.99.06z"/><path class="st5" d="M1077.92 358.74c-9.82-14.6-27.22-10.13-39.76 5.47-4.88-3.16-13.24 4.71-9.56 12.1.51 1.02.33 2.26-.45 3.1 0 0-4.18 13.52 2.24 24.13 6.42 10.6 19.71 5.82 19.71 5.82 6.73-2.88 12.55-6.93 12.55-6.93 14.97-11.18 24.31-30.26 15.27-43.69z"/><path d="m983.65 554.3-1.85-.75c4.44-10.95 4.1-21.85 4.09-21.96l2-.07c.02.46.37 11.44-4.24 22.78zm-14.68-3.96-1.87-.72c2.99-7.79 4.3-13.88 4.54-21.02l2 .07c-.25 7.37-1.6 13.65-4.67 21.67zm-9.48-11.21-1.84-.79c2.58-6.01 2.9-12.23 2.86-15.41l2-.03c.04 3.34-.29 9.88-3.02 16.23zm155.21 3.89-1.98-.29c.32-2.16.5-4.54.51-7.08.04-6.23-1.71-11.62-3.19-15.04l1.84-.79c1.55 3.6 3.4 9.27 3.35 15.85-.01 2.62-.19 5.09-.53 7.35zm8.62-8.66c-.2-10.29-3.45-18.3-3.48-18.38l1.85-.76c.14.34 3.42 8.44 3.63 19.1l-2 .04zm6.81-8.49c-.42-7.6-3-13.72-3.03-13.78l1.84-.79c.11.26 2.75 6.51 3.19 14.46l-2 .11zm-52.21-167.13c-9.82-14.6-27.22-10.13-39.76 5.47l2.88 6.9c.53 1.27 2.19 1.58 3.15.59l7.52-7.85c1.55-1.62 4.29-.86 4.75 1.33.9 4.26 3.12 10.05 8.59 14.14 5.91 4.42 12.09 2.68 15.72-2.69 1.43-6.3.75-12.54-2.85-17.89zm-16.63 34.34c-.82-.81-.82-2.14-.01-2.96l1.54-1.55c.81-.82 2.14-.82 2.96-.01.82.81.82 2.14.01 2.96l-1.54 1.55c-.81.82-2.14.83-2.96.01zm-12.56-5.55c-.82-.81-.82-2.14-.01-2.96l1.54-1.55c.81-.82 2.14-.82 2.96-.01.82.81.82 2.14.01 2.96l-1.54 1.55c-.81.82-2.14.82-2.96.01zm17.69 142.08c-.01-1.07.55-2.58 1.68-4.5.78-1.32 1.62-2.49 2.19-3.25 3.87-5.1 5.34-9.44 6.78-13.64 1.28-3.76 2.49-7.31 5.27-10.99l1.6 1.21c-2.59 3.43-3.75 6.83-4.97 10.43-1.41 4.15-3.01 8.84-7.08 14.21-.54.71-1.33 1.82-2.06 3.05-1.28 2.17-1.4 3.14-1.4 3.46l-2.01.02zm35.43 3.49c-.65-4.69-2.31-7.95-4.92-9.68-1.41-.93-3.14-1.45-5.15-1.54-3.23-.14-6.01 2.58-8.54 5.53l-1.52-1.3c2.86-3.34 6.08-6.42 10.14-6.23 2.38.11 4.45.73 6.17 1.87 3.11 2.06 5.06 5.79 5.8 11.07l-1.98.28zm-128.43-60.52-1.58-1.23c6.75-8.64 11.6-14.68 14.4-17.95 11.94-13.93 14.06-32.93 5.06-45.17l1.61-1.19c9.55 12.99 7.39 33.03-5.15 47.66-2.78 3.25-7.6 9.27-14.34 17.88zm76.89 20.77-1.88-.7c3.99-10.7 7.19-19.87 9.52-27.25 1.32-4.17 2.71-8.69 3.99-13.47l1.93.52c-1.28 4.82-2.69 9.36-4.01 13.55-2.34 7.41-5.56 16.61-9.55 27.35zm-1.61-90.04c-2.01-1.79-5.93-3.4-5.97-3.41l.75-1.85c.17.07 4.27 1.75 6.55 3.77l-1.33 1.49z"/><path class="st6" d="M1030.39 403.53c-6.42-10.61-2.24-24.13-2.24-24.13-5.44 5.88-12.35 12.43-12.35 12.43-8.92 15.93-.88 44.41 21.39 45.83 19.63 1.25 17.99-20.01 12.91-28.32 0 .01-13.29 4.79-19.71-5.81z"/><path d="M1035.52 409.93c-8.74-4.74-9.42-15.65-9.45-16.11l2-.11c.01.1.66 10.26 8.41 14.46l-.96 1.76z"/></g></svg>