<svg xmlns="http://www.w3.org/2000/svg" viewBox="0 0 671.29 895.84"><defs><style>.cls-1{fill:#74baab}.cls-2{fill:#ec8c92}.cls-3{fill:#274d76}.cls-4{fill:#93b4f6}.cls-6{fill:#f2bdba}.cls-7{fill:#fff}</style></defs><g id="Background"><path class="cls-1" d="M1184 924.54c4.3-13 34.58-40.85 37.85-39.49s-21.37 17.23-32.41 44.12c-.66 1.66-8.17 3.66-5.44-4.63z" transform="translate(-687.18 -88.37)"/><path class="cls-2" d="M1194.76 880.35c3.11-6.62 12.14-3.79 19.81-1.07-3.31-9.91 1.57-22 9.54-20.16s2.18 14-.35 20.63c5.15-.71 14.62-6.25 18.14 0s-7.86 6.83-13 6.15c1.78 4 12.42 14.65 2.47 15.79-7.19.83-11-3.06-13.15-12.1-13.79.18-28.22.9-23.46-9.24z" transform="translate(-687.18 -88.37)"/><path class="cls-1" d="M1202.79 902.64s22.39 3.38 24.2 10.85c-2.42 6.06-17.66.62-24.2-10.85z" transform="translate(-687.18 -88.37)"/><path class="cls-1" transform="rotate(-30.97 642.761 2153.726)" d="M1135.37 956.65h20.73v2h-20.73z"/><path class="cls-1" d="m1114.8 951.42-1.33-1.5c6-5.38 14.56-12.17 21-14l.55 1.93c-6.08 1.73-14.34 8.33-20.22 13.57zm-111.64 24-1.4-1.43c7.14-7 17.26-16.21 24.91-20.43l1 1.76c-7.48 4.1-17.46 13.2-24.51 20.1zm-8.67-52.72-1.61-1.19c4.14-5.6 10.21-12.69 15.61-14.62l.67 1.88c-3.84 1.38-9.05 6.32-14.67 13.93zm-28.64 2-1.69-1.06c.44-.71 10.85-17.28 19-21.6l1 1.76c-7.73 4.08-18.16 20.73-18.31 20.9zm-9.2 48.02-1.65-1.07c4.14-6.54 10.52-15.34 17.44-20.15l1.14 1.64c-6.69 4.62-12.89 13.2-16.93 19.58zM863.19 943l-1.92-.57c.18-.59 4.44-14.44 14.34-24.07l1.39 1.44c-9.53 9.31-13.77 23.11-13.81 23.2zm-27.36 9.63-1.9-.63c.2-.59 5-14.67 15.35-25.86l1.47 1.36c-10.08 10.86-14.88 24.99-14.92 25.13z" transform="translate(-687.18 -88.37)"/><path class="cls-1" d="M1283.09 984.21a149 149 0 0 0-14.16-17.73 4.08 4.08 0 0 1 .58-6 50.42 50.42 0 0 1 9-5.25c.52-.24.84-.59.81-.88s-.41-.62-1-.78a30.27 30.27 0 0 0-17.66.61c-2.06.66-4.5-.15-7.05-2.32l-1-.83a6.16 6.16 0 0 1-2.19-4.33 42.05 42.05 0 0 0-8.51-23.34 1 1 0 0 0-1.05-.33 1 1 0 0 0-.73.92c-.11 1.55-.32 3.38-.61 5.45a6.61 6.61 0 0 1-10.11 4.66l-.13-.08a5 5 0 0 1-2.11-5.58l2.51-8.8a.42.42 0 0 0-.16-.48.43.43 0 0 0-.51 0l-6.63 4.29a10.26 10.26 0 0 1-10.44.43 318.87 318.87 0 0 0-36.49-16.65 4 4 0 0 1-2-5.84l5.14-8.08a1.41 1.41 0 0 0-.1-1.7 1.43 1.43 0 0 0-1.66-.43l-18.39 7.28a11.8 11.8 0 0 1-7.76.29 411.086 411.086 0 0 0-34.58-8.87 2.58 2.58 0 0 1-1.93-1.78 2.56 2.56 0 0 1 .62-2.54c2.16-2.21 3.92-4.05 5.59-5.79 2.46-2.57 4.78-5 7.94-8.15a1 1 0 0 0 .14-1.21.92.92 0 0 0-1.1-.43c-10 3-23.44 9-31.33 14.06a8 8 0 0 1-5.64 1.14c-23.3-3.84-43.61-5.34-72.42-5.34-15 0-30.18.7-45.06 2.06a2.74 2.74 0 0 1-2.75-1.58l-1.08-2.31a1.43 1.43 0 0 0-2-.65l-5.91 3.27a4.82 4.82 0 0 1-6.68-2.12l-.28-.58a.65.65 0 0 0-.44-.35.65.65 0 0 0-.55.11l-4 3a2.7 2.7 0 0 1-4.33-2.16v-5.67a1.42 1.42 0 0 0-.1-.84 1.11 1.11 0 0 0-.25.25l-9.22 12.26a10.12 10.12 0 0 1-5.82 3.37c-35 6.53-63.48 15.45-89.77 28.06a5.23 5.23 0 0 1-5.46-.53 82.94 82.94 0 0 0-35.06-15.48.55.55 0 0 0-.64.35.57.57 0 0 0 .2.73c6 4.37 11.27 8.37 15.53 11.89a3.48 3.48 0 0 1-2.2 6.16h-7.49a.44.44 0 0 0-.46.36.44.44 0 0 0 .23.52c1.62.84 3.15 1.72 4.55 2.59a5.87 5.87 0 0 1 0 10c-4.14 2.58-8.17 5.26-12 8a5 5 0 0 1-6.79-1l-7.6-9.5a1.75 1.75 0 0 0-.25-.27 1.73 1.73 0 0 0 0 .95l3.81 15.07a3.72 3.72 0 0 1-1.22 3.89l-.58.48a3.3 3.3 0 0 1-3.25.56c-3.5-1.28-13.19-3.85-27.57 0 7.47 1.64 13.34 3.75 17.43 6.29a3 3 0 0 1 1.67 2.43 2 2 0 0 1-.58 1.46 4.45 4.45 0 0 1-3 1.13 46.34 46.34 0 0 0-18.14 4.54.75.75 0 0 0 .37 1.41 51.11 51.11 0 0 1 8.55.39 2.75 2.75 0 0 1 2.2 1.75 2.81 2.81 0 0 1-.47 2.82c-3.05 3.67-5.92 7.48-8.52 11.33l-1.65-1.12A142.47 142.47 0 0 1 760 971.6a.84.84 0 0 0 .14-.82.77.77 0 0 0-.62-.49 48.1 48.1 0 0 0-8.21-.37 2.75 2.75 0 0 1-2.73-2 2.71 2.71 0 0 1 1.37-3.13 47.93 47.93 0 0 1 19-4.77c1.39-.05 1.83-.45 1.88-.59s-.26-.46-.74-.75c-3.89-2.42-9.54-4.45-16.79-6a2 2 0 0 1-.09-3.9c14.93-4 25.09-1.25 28.77.1a1.3 1.3 0 0 0 1.28-.23l.58-.48a1.73 1.73 0 0 0 .57-1.83l-3.8-15.07a2.75 2.75 0 0 1 1-3.36 2.13 2.13 0 0 1 2.7.94l7.58 9.47a3 3 0 0 0 4.07.59c3.83-2.73 7.89-5.43 12.07-8a3.87 3.87 0 0 0 0-6.6c-1.36-.84-2.85-1.69-4.42-2.51a2.47 2.47 0 0 1 1.13-4.65h7.51a1.44 1.44 0 0 0 1.38-1 1.47 1.47 0 0 0-.46-1.65c-4.22-3.49-9.41-7.46-15.42-11.81a2.6 2.6 0 0 1 2-4.67 85.23 85.23 0 0 1 35.92 15.86 3.2 3.2 0 0 0 3.37.32c26.46-12.69 55.14-21.66 90.28-28.22a8.05 8.05 0 0 0 4.62-2.66L943 871a2.21 2.21 0 0 1 2.57-1 2.64 2.64 0 0 1 1.43 2.9v5.57a.66.66 0 0 0 .39.62.68.68 0 0 0 .73-.06l4-3a2.68 2.68 0 0 1 2.22-.47 2.63 2.63 0 0 1 1.77 1.43l.28.58A2.75 2.75 0 0 0 958 879a2.78 2.78 0 0 0 2.22-.22l5.91-3.27a3.43 3.43 0 0 1 4.77 1.55l1.08 2.32a.73.73 0 0 0 .75.43c15-1.37 30.17-2.07 45.25-2.07 28.93 0 49.33 1.51 72.74 5.37a6.08 6.08 0 0 0 4.24-.85c8-5.13 21.71-11.28 31.84-14.3a2.93 2.93 0 0 1 3.39 1.32 3 3 0 0 1-.45 3.65c-3.14 3.14-5.45 5.56-7.9 8.12-1.68 1.75-3.44 3.59-5.61 5.81a.55.55 0 0 0-.13.56.56.56 0 0 0 .43.4c11.89 2.52 23.58 5.52 34.75 8.92a9.81 9.81 0 0 0 6.44-.24l18.38-7.28a3.46 3.46 0 0 1 4.19 5.07l-5.14 8.07a2 2 0 0 0-.15 1.64 2 2 0 0 0 1.18 1.24 318 318 0 0 1 36.71 16.76 8.26 8.26 0 0 0 8.41-.35l6.63-4.29a2.45 2.45 0 0 1 3.68 2.73l-2.52 8.8a3 3 0 0 0 1.27 3.35l.12.08a4.62 4.62 0 0 0 7.06-3.26c.29-2 .49-3.81.6-5.32a3 3 0 0 1 2.13-2.68 3 3 0 0 1 3.21 1 43.52 43.52 0 0 1 8.94 24.48 4.18 4.18 0 0 0 1.48 2.91l1 .83c1.4 1.19 3.42 2.49 5.16 2a32.13 32.13 0 0 1 18.79-.64 3 3 0 0 1 2.45 2.55 3 3 0 0 1-2 2.86 48 48 0 0 0-8.6 5 2.07 2.07 0 0 0-.83 1.48 2 2 0 0 0 .53 1.58 150.42 150.42 0 0 1 14.35 18z" transform="translate(-687.18 -88.37)"/><path d="M1346.38 845.5a13.13 13.13 0 0 1-4.88-1l-167.24-67.1a11.31 11.31 0 0 1-6.85-6.91 12.84 12.84 0 0 1 .43-8.82c2.38-5.94 8.88-10.66 16.24-7.71l12 4.8a2.52 2.52 0 0 0 2.23.11c2.43-1.23 4-7.6 5.83-15 .55-2.23 1.11-4.5 1.75-6.88l.12-.44c2.51-9.4 7.69-29 29.82-28.05 8.24.33 12.21.79 19.4 1.61h.18c1.82.21 3.86.45 6.23.71 6.65.73 11.07 2.47 14.37 5.64 4 3.85 6.09 9.79 6.38 18.16.4 11.62 3 14.23 7.65 15 40.13 6.49 40 23.82 39.92 40.58v3c0 10 1 19.67 8.08 22.5l12.61 5a12 12 0 0 1 7.18 7.28 13.45 13.45 0 0 1-.34 9.38 13.12 13.12 0 0 1-5.88 6.76 10.85 10.85 0 0 1-5.23 1.38zm-4.13-2.85a9.66 9.66 0 0 0 8.37-.21 11.29 11.29 0 0 0 5-5.75 11.58 11.58 0 0 0 .31-8 10.07 10.07 0 0 0-6-6.07l-12.6-5.06c-8.15-3.27-9.31-13.63-9.34-24.34v-3c.1-15.92.2-32.38-38.24-38.6-7.32-1.18-9-7.33-9.33-16.88-.27-7.82-2.16-13.32-5.77-16.79-3-2.84-7-4.41-13.2-5.1l-6.24-.7h-.16c-7.16-.82-11.1-1.27-19.27-1.6-20.48-.81-25.43 17.67-27.81 26.57l-.12.44c-.63 2.36-1.19 4.62-1.73 6.79-2.11 8.55-3.63 14.7-6.88 16.33a4.58 4.58 0 0 1-3.87 0l-12-4.8c-6.14-2.47-11.61 1.56-13.63 6.6a10.81 10.81 0 0 0-.4 7.44 9.34 9.34 0 0 0 5.7 5.68zm2.88-201.54a10.38 10.38 0 0 1-1.88-.18l-122.11-22.63a8.09 8.09 0 0 1-5.78-3.88 9.2 9.2 0 0 1-.94-6.23 10.24 10.24 0 0 1 3.33-5.86 8.14 8.14 0 0 1 7-1.8l8.73 1.61c.77.15 1.09 0 1.27-.17 1.36-1.06 1.57-5.73 1.78-10.67.07-1.57.14-3.19.25-4.9v-.31c.43-6.77 1.31-20.86 16.6-23.29 5.63-.89 8.37-1.13 13.35-1.55h.27l4.16-.36c4.66-.41 7.95.18 10.66 1.91 3.31 2.1 5.57 5.9 6.92 11.6 1.8 7.58 3.81 9 6.89 8.84 28.26-1.08 30.67 11.31 32.8 22.24v.2c.12.61.23 1.22.36 1.83 1.36 6.65 3.31 12.94 8.27 13.86l9.2 1.7a8.55 8.55 0 0 1 6 4.09 9.59 9.59 0 0 1 1.09 6.6c-.63 3.73-3.48 7.35-8.22 7.35zm-1.52-2.15c4.55.85 7.21-2.2 7.84-5.59a7.69 7.69 0 0 0-.84-5.22 6.65 6.65 0 0 0-4.69-3.13l-9.2-1.71c-6.13-1.13-8.37-8.08-9.87-15.42-.13-.61-.25-1.23-.37-1.85v-.19c-2.17-11.13-4.22-21.64-30.77-20.63-5.33.19-7.35-3.82-8.9-10.38-1.23-5.17-3.21-8.56-6-10.37-2.32-1.48-5.22-2-9.41-1.6l-4.17.35h-.26c-4.94.41-7.66.64-13.22 1.53-13.7 2.18-14.49 14.71-14.91 21.44v.31c-.11 1.69-.18 3.3-.25 4.85-.27 6.12-.46 10.53-2.55 12.17a3.41 3.41 0 0 1-2.87.56l-8.73-1.62a6.21 6.21 0 0 0-5.3 1.37 8.19 8.19 0 0 0-2.65 4.69 7.12 7.12 0 0 0 .71 4.87 6.12 6.12 0 0 0 4.4 2.92L1343.61 639zM696.34 841.4a8.23 8.23 0 0 1-3.76-.9 10 10 0 0 1-4.53-5.09 11.05 11.05 0 0 1-.45-7.29 8.81 8.81 0 0 1 5.24-5.74l8.95-3.73c.82-.34 1-.72 1.11-1 .62-1.83-2-6.25-4.75-10.92-.89-1.5-1.78-3-2.69-4.62l-.17-.3c-3.64-6.42-11.22-19.8 1.26-31.1 4.62-4.17 7-6 11.29-9.38l.13-.1 3.69-2.89c4-3.15 7.35-4.57 10.84-4.6h.14c4.21 0 8.48 2.12 13.05 6.46 6.22 5.91 8.91 6 11.7 4 25.14-17.81 34.72-8 43.16.75l1.58 1.62c5.24 5.3 10.8 9.9 15.94 7.76l9.44-3.93c5.88-2.45 10.88.89 12.78 5.46 1.79 4.3 1 10-5 12.53L700.11 840.6a9.79 9.79 0 0 1-3.77.8zm26.3-85.64h-.12c-3 0-6 1.31-9.62 4.17l-3.7 2.9-.12.09c-4.28 3.33-6.63 5.17-11.18 9.29-11.3 10.23-4.25 22.66-.87 28.64l.17.3c.9 1.6 1.79 3.1 2.65 4.55 3.41 5.77 5.86 9.91 4.94 12.61a3.63 3.63 0 0 1-2.23 2.17l-8.95 3.73a6.86 6.86 0 0 0-4.09 4.48 9 9 0 0 0 .38 5.94 7.88 7.88 0 0 0 3.59 4.08 6.83 6.83 0 0 0 5.85 0l125.22-52.2c4.72-2 5.35-6.4 3.89-9.92s-5.51-6.33-10.17-4.39l-9.44 3.94c-6.23 2.6-12.4-2.41-18.13-8.2l-1.59-1.63c-8.65-8.92-16.83-17.34-40.58-.52-4.69 3.32-8.92.87-14.23-4.17-4.18-3.92-8-5.86-11.67-5.86z" transform="translate(-687.18 -88.37)"/></g><g id="man"><path class="cls-3" d="m808.24 655.18 93 156.09a15.43 15.43 0 0 1-4.33 21.06l-18.81 12.79a5.81 5.81 0 0 0 3.27 10.61h67.22a62 62 0 0 0 20.16-3.36l42.47-14.54c18.14-6.21 23.28-27.53 13.49-44l-46.59-83 2.22-.79a68.32 68.32 0 0 0 34.19-102l-4.67-7.08H831.23c-27.56-.04-37.62 30.86-22.99 54.22z" transform="translate(-687.18 -88.37)"/><path class="cls-1" d="m926.08 655.18 93 156.09a15.44 15.44 0 0 1-4.34 21.06l-18.78 12.79a5.81 5.81 0 0 0 3.27 10.61h67.23a62 62 0 0 0 20.15-3.36l42.47-14.54c18.14-6.21 23.29-27.53 13.5-44l-46.6-83 2.22-.79a68.32 68.32 0 0 0 34.19-102l-4.67-7.08H949.08c-27.57-.04-37.62 30.86-23 54.22z" transform="translate(-687.18 -88.37)"/><path class="cls-4" d="M836 90.53c80.75 35.71 320.13 220.31 437.34 301.59 13.43 9.3 15.45 31.14-13.91 30.88l-526.73-4.58c-9.83-.08-11.06-9.26-8.83-18.83 0 0 58.92-265.9 79.32-302.65 3.81-7.25 21.69-11.33 32.81-6.41z" transform="translate(-687.18 -88.37)"/><path d="M790 446.61c6.83-24 27.27-38.26 68.4-43.73 20-2.66 44.28-2.49 72.57-2.49 134.51 0 255.78 101.76 255.78 186.09 0 52-63.4 70.6-183.87 14.76-50.08-.69-86.39-.46-131.23-.32-44.28-60.11-92.3-116.99-81.65-154.31z" transform="translate(-687.18 -88.37)" style="fill:#fff3a1"/><path class="cls-2" d="M904.44 479h-13.2a10.62 10.62 0 0 1-10.62-10.62v-81.96h30l20.42 22.25a27 27 0 0 1 7.11 18.27v18.29A33.74 33.74 0 0 1 904.44 479z" transform="translate(-687.18 -88.37)"/><path class="cls-6" d="M921.55 389.92h-1a2.12 2.12 0 0 1-2.12-2.12v-25.41c6.72-3.86 4.89-14.51 3-18.75-2-4.54-5.15-4.93-6-2-1.77 6.15-7.31 7.15-10 7.09-9.61-.22-10.24-8.55-26.42-8.24a17.67 17.67 0 0 0-17.2 17.75v80.49A10.22 10.22 0 0 0 872 448.92h20.7a25.7 25.7 0 0 0 25.7-25.7v-1.39a4.72 4.72 0 0 1 3-4.44 9.79 9.79 0 0 0 6.33-9.15v-12.19a6.13 6.13 0 0 0-6.18-6.13z" transform="translate(-687.18 -88.37)"/><path d="M907.73 385.61h-52.47a3.51 3.51 0 0 0-3.53 3.44c-.05 2.2-.05 3.66-.05 5.69v.51c0 10.81 6.73 19.62 15 19.62 6.29 0 12-5.19 14.09-12.9a.74.74 0 0 1 .7-.57.75.75 0 0 1 .7.57c2.14 7.71 7.8 12.9 14.09 12.9 8.27 0 15-8.81 15-19.62v-6.11a3.54 3.54 0 0 0-3.53-3.53zm1.53 9.64c0 9.73-5.82 17.62-13 17.62-5.57 0-10.32-4.76-12.16-11.43a2.72 2.72 0 0 0-5.26 0c-1.85 6.67-6.59 11.43-12.16 11.43-7.18 0-13-7.89-13-17.62 0-2.3 0-3.8.05-6.15a1.53 1.53 0 0 1 1.53-1.49h52.47a1.53 1.53 0 0 1 1.53 1.53z" transform="translate(-687.18 -88.37)"/><path d="M870.92 398.66h-.15a4.76 4.76 0 0 1-4.77-4.76 1.41 1.41 0 0 1 1.41-1.41h6.86a1.41 1.41 0 0 1 1.41 1.41 4.76 4.76 0 0 1-4.76 4.76zm21.65 0h-.15a4.77 4.77 0 0 1-4.77-4.76 1.41 1.41 0 0 1 1.41-1.41h6.87a1.41 1.41 0 0 1 1.4 1.41 4.76 4.76 0 0 1-4.76 4.76zm1.55 25.48h-11.83v-2h11.83a3.83 3.83 0 0 0 3.23-1.76l1.68 1.08a5.82 5.82 0 0 1-4.91 2.68z" transform="translate(-687.18 -88.37)"/><path class="cls-2" d="m953.92 567.3-10.16 14a12.65 12.65 0 0 0 4.31 18.6l11.8 6.27a17.83 17.83 0 0 0 22.89-5.41l4-5.64zm-57.09 0 10.16 14a12.65 12.65 0 0 1-4.31 18.6l-11.8 6.27a17.83 17.83 0 0 1-22.88-5.38l-4-5.64z" transform="translate(-687.18 -88.37)"/><path d="M989.73 513.57a98.39 98.39 0 0 1-8.39-75.49l1.92.56a96.39 96.39 0 0 0 8.22 74zM834.81 516c-12.37-26.27-14.49-49.69-6.87-76l1.93.56c-7.48 25.75-5.4 48.74 6.75 74.53z" transform="translate(-687.18 -88.37)"/><path class="cls-7" d="M1136.62 491.8 922.05 275l-1.67-1.7-.41-.41-.36-.34-.71-.68a34.06 34.06 0 0 0-3-2.44 24.39 24.39 0 0 0-6.43-3.38 17.62 17.62 0 0 0-13.21.64 28.43 28.43 0 0 0-11.2 9.8l-10.57 15.85-42.27 63.4-84.53 126.81-21.14 31.69-2.64 4-.66 1-.51.83c-.33.56-.72 1.09-1 1.67a32.39 32.39 0 0 0-2.93 7 27.39 27.39 0 0 0-.43 14.24 24.1 24.1 0 0 0 6.94 11.87 26.55 26.55 0 0 0 12.54 6.43 34.87 34.87 0 0 0 7.49.8h9.49l19.07-.08 152.5-.64c50.84-.4 101.67 0 152.5.16l37.81.1a37 37 0 0 0 14.67-3.34 31.92 31.92 0 0 0 11.4-9.11c6.19-7.79 8.89-18.64 7.66-29.09a46 46 0 0 0-4.47-15.16 49.41 49.41 0 0 0-9.36-13.12zm12.84-12.89a67.65 67.65 0 0 1 12.93 17.72 64.3 64.3 0 0 1 6.41 21.18 61.44 61.44 0 0 1-1.35 22.29 55.48 55.48 0 0 1-9.88 20.51 50.9 50.9 0 0 1-18 14.6 55.7 55.7 0 0 1-22.18 5.32h-19.38l-19.07.07c-50.83.14-101.66.56-152.5.15l-152.5-.63-19.07-.08h-9.56a51.74 51.74 0 0 1-11.42-1.33 44.44 44.44 0 0 1-20.82-11 42 42 0 0 1-11.87-20.68 45 45 0 0 1 .82-23.41 49.61 49.61 0 0 1 4.54-10.53c.44-.84 1-1.61 1.46-2.42l.75-1.18.67-1 2.68-4 21.4-31.49 85.73-126.28 42.85-63.13 10.72-15.78a47.12 47.12 0 0 1 7.52-8.37 40.44 40.44 0 0 1 4.62-3.52 35.2 35.2 0 0 1 5.24-2.85 33.09 33.09 0 0 1 24-1.18 39.55 39.55 0 0 1 10.43 5.36 49.58 49.58 0 0 1 4.41 3.55l1 1 1 .91 1.69 1.68z" transform="translate(-687.18 -88.37)"/><path class="cls-4" d="M1170.79 517.57a65.86 65.86 0 0 0-6.62-21.84 69.35 69.35 0 0 0-13.3-18.24L934.07 263l-1.7-1.68-1-.93-1-1a49.71 49.71 0 0 0-4.59-3.69 40.88 40.88 0 0 0-10.97-5.7 35.18 35.18 0 0 0-11.08-1.82c-.59 0-1.18 0-1.76.05a34.94 34.94 0 0 0-12.59 3 36.86 36.86 0 0 0-5.52 3A43.38 43.38 0 0 0 879 258a49.28 49.28 0 0 0-7.84 8.73l-10.73 15.81-42.86 63.13-85.7 126.23-21.43 31.57-2.68 3.94-.67 1-.75 1.18-.48.77c-.35.55-.71 1.13-1.05 1.76a52.55 52.55 0 0 0-4.7 10.92 46.77 46.77 0 0 0-.84 24.45 44.1 44.1 0 0 0 12.43 21.66 46.06 46.06 0 0 0 21.76 11.53 54.36 54.36 0 0 0 11.84 1.38h9.58l19.06.08 152.5.63c14.46.12 29.88.18 47.13.18 22 0 44.27-.1 65.85-.18q19.77-.09 39.54-.15l19.07-.07h19.39a58.1 58.1 0 0 0 23-5.52 52.77 52.77 0 0 0 18.74-15.17 57.78 57.78 0 0 0 10.24-21.26 63 63 0 0 0 1.39-23.03zm-3.34 22.53a55.48 55.48 0 0 1-9.88 20.51 50.9 50.9 0 0 1-18 14.6 55.7 55.7 0 0 1-22.18 5.32h-19.38l-19.07.07c-35.12.09-70.25.33-105.38.33q-23.56 0-47.12-.18l-152.5-.63-19.07-.08h-9.56a51.74 51.74 0 0 1-11.42-1.33 44.44 44.44 0 0 1-20.82-11 42 42 0 0 1-11.87-20.68 45 45 0 0 1 .82-23.41 49.61 49.61 0 0 1 4.54-10.53c.44-.84 1-1.61 1.46-2.42l.75-1.18.67-1 2.68-4 21.4-31.49 85.73-126.28 42.85-63.13 10.72-15.78a47.12 47.12 0 0 1 7.52-8.37 40.44 40.44 0 0 1 4.62-3.52 35.2 35.2 0 0 1 5.24-2.85 32.86 32.86 0 0 1 11.88-2.84c.55 0 1.1-.05 1.65-.05a33.54 33.54 0 0 1 10.44 1.71 39.55 39.55 0 0 1 10.43 5.36 49.58 49.58 0 0 1 4.41 3.55l1 1 1 .91 1.69 1.68 216.8 214.54a67.65 67.65 0 0 1 12.93 17.72 64.3 64.3 0 0 1 6.41 21.18 61.44 61.44 0 0 1-1.39 22.27z" transform="translate(-687.18 -88.37)"/><path class="cls-4" d="M1146 504.81a49.41 49.41 0 0 0-9.36-13L922.05 275l-1.67-1.7-.41-.41-.36-.34-.71-.68a34.06 34.06 0 0 0-3-2.44 24.39 24.39 0 0 0-6.43-3.38 18 18 0 0 0-5.84-1 17.8 17.8 0 0 0-7.37 1.62 28.43 28.43 0 0 0-11.2 9.8l-10.57 15.85-42.27 63.4-84.53 126.83-21.14 31.69-2.64 4-.66 1-.51.83c-.33.56-.72 1.09-1 1.67a32.39 32.39 0 0 0-2.93 7 27.39 27.39 0 0 0-.43 14.24 24.1 24.1 0 0 0 6.94 11.87 26.55 26.55 0 0 0 12.54 6.43 34.68 34.68 0 0 0 7.47.8v-2a32.93 32.93 0 0 1-7-.75 24.5 24.5 0 0 1-11.6-5.94 22 22 0 0 1-6.36-10.89 25.17 25.17 0 0 1 .4-13.2 30 30 0 0 1 2.75-6.53v-.12a7.73 7.73 0 0 1 .51-.87c.13-.21.27-.43.4-.66l.47-.76.65-1 2.64-4 21.13-31.69 84.53-126.79 42.28-63.4 10.56-15.85a26.28 26.28 0 0 1 10.36-9.08 15.63 15.63 0 0 1 6.55-1.45 15.9 15.9 0 0 1 5.19.88 22.13 22.13 0 0 1 5.9 3.1 30.26 30.26 0 0 1 2.82 2.29l.68.66.35.32.39.39 1.67 1.69 214.6 216.78a47.21 47.21 0 0 1 9 12.48 43.51 43.51 0 0 1 4.29 14.5c1.18 10.11-1.52 20.43-7.24 27.63a29.88 29.88 0 0 1-10.7 8.54 34.54 34.54 0 0 1-13.84 3.15l-37.77-.1q-19.77-.06-39.53-.15c-21.58-.09-43.9-.18-65.86-.18-17.25 0-32.67.06-47.13.17l-152.5.64-19.06.08h-9.5v2h9.49l19.07-.08 152.5-.64q23.57-.18 47.12-.17c35.13 0 70.26.23 105.38.33l37.81.1a37 37 0 0 0 14.67-3.34 31.92 31.92 0 0 0 11.4-9.11c6.19-7.79 8.89-18.64 7.66-29.09a46 46 0 0 0-4.46-15.16z" transform="translate(-687.18 -88.37)"/><path class="cls-6" d="M827.88 601c2.67 5 12.38 6 19.18.94 4 5.61 15.67 5.61 21.51-.94 8.65 8.26 29-.83 34.49-19.93-12.62 0-11.76-19.64.89-20.1-3.92-18-20.16-34.09-47.23-30.57-15.63 2-34.52 5.69-42.59 18.27-7.77 12.12-6.92 23.7-6.87 32.4.1 19 10.74 26.45 20.62 19.93z" transform="translate(-687.18 -88.37)"/><path class="cls-3" d="M906.16 258.79c0-3.3 1.86-5.73 4.08-7.44 1.42-1.1.59-2.49-1.2-2.49h-7.65c-7 0-10.3 3.51-10.3 10.26s3.26 10.25 10.3 10.25h5.44c2.16 0 4.12-1.79 3.9-2.82-2.54-1.26-4.53-3.66-4.57-7.76z" transform="translate(-687.18 -88.37)"/><path class="cls-6" d="M1022.87 601c-2.67 5-12.68 6-19.48.94-2.88 5.61-15.37 5.61-21.21-.94-8.8 8.4-29-1.4-34.81-21-6.85-23 9.94-54.41 46.66-49.64 20 2.59 45 8 46.73 30.79-10.36.07-13.48 19.88 2.73 19.88 2.12 18.97-10.7 26.49-20.62 19.97z" transform="translate(-687.18 -88.37)"/><path transform="rotate(-44.11 562.396 1396.551)" d="M1013.94 585.88h2v13.53h-2z"/><path transform="rotate(-44.11 542.463 1397.24)" d="M994.03 587.01h2v12.67h-2z"/><path transform="rotate(-44.12 521.451 1396.425)" d="M973.19 585.84h2v13.87h-2z"/><path transform="rotate(-29.46 311.474 1855.458)" d="M822.26 587.05h2v11.5h-2z"/><path transform="rotate(-29.45 330.191 1855.568)" d="M840.83 587.12h2v10.46h-2z"/><path transform="rotate(-29.45 352.231 1855.828)" d="M862.87 587.08h2v11.11h-2z"/><path class="cls-7" transform="rotate(-28.11 429.003 1677.4)" d="M948.18 287.12h2v124.07h-2z"/><path class="cls-7" transform="rotate(-28.11 352.915 1534.976)" d="M872.1 172.54h2v68.33h-2z"/><path class="cls-7" transform="rotate(-28.11 308.99 1452.71)" d="M828.15 101.39h2v46.07h-2z"/><path d="M919.59 364.57c6.63-7.22 3.7-16.69 1.78-20.93-2-4.54-5.15-4.93-6-2-1.77 6.15-7.31 7.15-10 7.09-9.61-.22-10.24-8.55-26.42-8.24a17.82 17.82 0 0 0-17.2 17.75c0 15.18 14.49-2.3 26.66 6.18 16.96 11.77 26.64 5.1 31.18.15z" transform="translate(-687.18 -88.37)"/><path class="cls-7" d="M232.2 731.82h68.05v2H232.2z"/><path d="M346.9 731.82h80.05v2H346.9z"/><path transform="rotate(-29.3 566.389 1950.66)" d="M1077.94 658.67h2v43.58h-2z"/></g></svg>