<svg xmlns="http://www.w3.org/2000/svg" viewBox="0 0 602.82 834.01"><defs><style>.cls-1{fill:#93b4f6}.cls-2{fill:#274d76}.cls-3{fill:#fff}.cls-4{fill:#74baab}.cls-5{fill:#ec8c92}.cls-6{fill:#f2bdba}.cls-7{fill:#fff3a1}</style></defs><g id="cloud"><path class="cls-1" d="M1150.79 253.52h-11.45a70 70 0 0 0-104.74-60.81 96.14 96.14 0 0 0-182.2 32.91h-7.56a72 72 0 0 0-71.75 71.75 72 72 0 0 0 71.75 71.76h305.95a58 58 0 0 0 57.8-57.81 58 58 0 0 0-57.8-57.8z" transform="translate(-605.77 -138.54)"/><path class="cls-2" d="M1114.81 322.29H1111a14.92 14.92 0 0 0-22.22-9.45 23.88 23.88 0 0 0-47.6-.61h-7.69a15.21 15.21 0 0 0 0 30.42h81.32a10.18 10.18 0 0 0 10.19-10.18 10.18 10.18 0 0 0-10.19-10.18zm-89.25-83.5h-7.34A21 21 0 0 0 985 223.07a32.83 32.83 0 0 0-64.36-4h-3.76a26 26 0 0 0-26 25.95 26 26 0 0 0 26 25.95h108.73a16.09 16.09 0 1 0 0-32.17zm-186.18 52.09h-4.58a18.74 18.74 0 0 0-25.67-14.79 27.06 27.06 0 0 0-54 2.71v1h-3.62a20.19 20.19 0 0 0-20.16 20.2 20.2 20.2 0 0 0 20.19 20.2h87.84a14.67 14.67 0 0 0 14.67-14.68 14.67 14.67 0 0 0-14.67-14.64z" transform="translate(-605.77 -138.54)"/><path class="cls-3" transform="rotate(-64.36 470.367 759.389)" d="M871.72 346.32h23.16v2h-23.16z"/><path class="cls-3" transform="rotate(-64.36 486.463 725.736)" d="M888.04 312.66h22.83v2h-22.83z"/><path class="cls-3" transform="rotate(-64.36 500.1 697.401)" d="M904.44 284.33h17.23v2h-17.23z"/><path class="cls-3" transform="rotate(-64.36 495.552 768.847)" d="M901.25 355.78h14.51v2h-14.51z"/><path class="cls-3" transform="rotate(-64.36 507.356 744.218)" d="M912.12 331.14h16.41v2h-16.41z"/><path class="cls-3" transform="rotate(-64.36 527.507 751.574)" d="M934.65 338.5h11.66v2h-11.66z"/><path class="cls-3" transform="rotate(-64.36 539.68 726.289)" d="M944.14 313.22h16.94v2h-16.94z"/><path class="cls-3" transform="rotate(-64.36 550.587 703.437)" d="M956.9 290.35h13.37v2H956.9z"/><path class="cls-3" transform="rotate(-64.36 560.286 740.465)" d="M962.79 327.4h20.9v2h-20.9z"/><path class="cls-3" transform="rotate(-64.36 574.691 710.451)" d="M978.27 297.38H997v2h-18.73z"/><path class="cls-3" transform="rotate(-64.36 577.949 756.66)" d="M983.38 343.59h15.02v2h-15.02z"/><path class="cls-3" transform="rotate(-64.36 592.256 726.872)" d="M994.16 313.81h22.05v2h-22.05z"/><path class="cls-3" transform="rotate(-64.36 523.641 710.351)" d="M922.93 297.29h27.29v2h-27.29z"/></g><g id="man"><path class="cls-4" d="m377.81 550.62 120.3 21.15 51.15-237.99H377.81v216.84z"/><path class="cls-2" d="m1066.48 483.84-4.85-11.3-38.26-18.09a128.76 128.76 0 0 0-125.08 8.35l-13 8.41L873.92 540l109.67 45 50.39 3.61z" transform="translate(-605.77 -138.54)"/><path class="cls-5" d="M1006.7 452.08a5 5 0 0 1-1.1 5.88L963 497.57c-7.2 7.08-16.52 4.68-16.52-5.71v-100h30.9z" transform="translate(-605.77 -138.54)"/><path class="cls-6" d="M992.49 393.45H990v-22.71a16.21 16.21 0 0 0-16.21-16.21h-29.85a16.2 16.2 0 0 0-16.2 16.21v73.74a18.94 18.94 0 0 0 18.93 18.94h7.51A35.83 35.83 0 0 0 990 427.59V423a5.24 5.24 0 0 1 2.79-4.6 17.55 17.55 0 0 0 9.17-15.42 9.49 9.49 0 0 0-9.47-9.53z" transform="translate(-605.77 -138.54)"/><path d="M931.65 416.2a15.89 15.89 0 0 1-15.87-15.87v-9.63a3.9 3.9 0 0 1 3.89-3.89h24a3.9 3.9 0 0 1 3.89 3.89v9.63a15.89 15.89 0 0 1-15.91 15.87zm-12-27.39a1.89 1.89 0 0 0-1.89 1.89v9.63a13.87 13.87 0 0 0 27.74 0v-9.63a1.89 1.89 0 0 0-1.89-1.89zm49.07 27.39a15.88 15.88 0 0 1-15.87-15.87v-9.63a3.89 3.89 0 0 1 3.89-3.89h24a3.9 3.9 0 0 1 3.9 3.89v9.63a15.89 15.89 0 0 1-15.92 15.87zm-12-27.39a1.89 1.89 0 0 0-1.89 1.89v9.63a13.87 13.87 0 1 0 27.74 0v-9.63a1.9 1.9 0 0 0-1.9-1.89zm-.16 43.87h-6.76a4.28 4.28 0 0 1-4.28-4.28v-17.88h2v17.88a2.28 2.28 0 0 0 2.28 2.28h6.76zm6.68 12.88a16.93 16.93 0 0 0-11.7-4.4 18.38 18.38 0 0 0-6 1l-.65-1.89a20.39 20.39 0 0 1 6.63-1.09 18.92 18.92 0 0 1 13.09 5z" transform="translate(-605.77 -138.54)"/><path d="M941.13 397.67a3.18 3.18 0 1 1-3.13-3.17 3.18 3.18 0 0 1 3.13 3.17zm23.72 0a3.18 3.18 0 1 1-3.17-3.17 3.17 3.17 0 0 1 3.17 3.17z" transform="translate(-605.77 -138.54)"/><path class="cls-4" d="M212.07 601.66h149.45v91.39H212.07z"/><path class="cls-6" d="M791.39 488.27 778.24 436s-14.69 1.89-20.12-18.26c-1-3.56-1.9-7.4-2.79-11.26a41.47 41.47 0 0 1 20.47-45.71l15.59-8.53s4-18.92 24.81-14.75c10.71 2.14 20 8.31 30 14.66 10.31 6.53 17.41 16.45 21.18 28.05l34.32 103.9z" transform="translate(-605.77 -138.54)"/><path class="cls-7" d="M925.91 371.48v5.59a5.75 5.75 0 0 0 5 5.8 5.58 5.58 0 0 0 6.13-5.56v-9.65a3.52 3.52 0 0 1 3.52-3.51 3.52 3.52 0 0 1 3.52 3.51v9.41a5.75 5.75 0 0 0 5 5.8 5.58 5.58 0 0 0 6.13-5.56v-9.65a3.52 3.52 0 0 1 3.52-3.51 3.51 3.51 0 0 1 3.52 3.51v9.41a5.75 5.75 0 0 0 5 5.8 5.58 5.58 0 0 0 6.13-5.56v-9.65a3.51 3.51 0 0 1 3.52-3.51 3.51 3.51 0 0 1 3.51 3.51v9.42a5.74 5.74 0 0 0 5 5.79 5.58 5.58 0 0 0 6.13-5.56v-5.83A23.5 23.5 0 0 0 968.18 348h-18.76a23.51 23.51 0 0 0-23.51 23.48z" transform="translate(-605.77 -138.54)"/><path class="cls-3" d="m800.46 443.39 79.7 2.74a17.59 17.59 0 0 1 17 17.88l-2.84 166.79-118.51-23.65 1.13-141.22a22.73 22.73 0 0 1 23.52-22.54z" transform="translate(-605.77 -138.54)"/><path d="m895.3 632-120.5-24 1.14-142a23.74 23.74 0 0 1 24.55-23.54l79.7 2.74a18.69 18.69 0 0 1 17.95 18.8zm-118.49-25.67 116.53 23.25 2.8-165.58a16.68 16.68 0 0 0-16-16.87l-79.7-2.74a21.73 21.73 0 0 0-22.48 21.55z" transform="translate(-605.77 -138.54)"/><path d="M605.77 962a10.61 10.61 0 0 0 10.61 10.6H683a174 174 0 0 0 58.46-10.11l29.58-10.55a25 25 0 0 0 16.57-24.55L780 740.2h85.81L909 611.71 732.25 580c-37-7.16-71.78 17.74-73.61 55.4l-13.35 275.3a43.69 43.69 0 0 1-23.89 36.85l-9.81 5a10.62 10.62 0 0 0-5.82 9.45z" transform="translate(-605.77 -138.54)"/><path class="cls-2" d="M716.83 962a10.6 10.6 0 0 0 10.6 10.6h66.67a174 174 0 0 0 58.45-10.11l29.59-10.55a25 25 0 0 0 16.56-24.55l-7.36-180.91a6 6 0 0 1 6-6.23h79.56l43.1-128.54L843.3 580c-37-7.16-71.78 17.74-73.61 55.4l-13.35 275.3a43.69 43.69 0 0 1-23.89 36.85l-9.81 5a10.61 10.61 0 0 0-5.81 9.45z" transform="translate(-605.77 -138.54)"/><path class="cls-5" d="m846.37 385.68 13.56-13a12.9 12.9 0 0 1 19.2 1.52 17.15 17.15 0 0 1-7 26.17l-9.4 4a14.64 14.64 0 0 1-17.73-5.2 10.45 10.45 0 0 1 1.37-13.49z" transform="translate(-605.77 -138.54)"/><path class="cls-3" d="M785.14 430.23c-.55 0-1.11 0-1.68-.07-5-.42-9.64-4.35-13.06-11.09-3.82-7.54-6.1-18.5-6.6-31.72l2-.07c1.1 29.17 10.29 40.26 17.82 40.89 3.89.32 6.88-.57 8.89-2.67l1.44 1.39a11.7 11.7 0 0 1-8.81 3.34zm15.86-7.31c-9.17 0-14.14-10.31-15.53-13.72-4-9.92-4.68-28.93-4.7-29.73l2-.06c0 .19.65 19.45 4.55 29 1.37 3.37 6.57 14.19 15.95 12.24a7.94 7.94 0 0 0 6.24-5.7l1.9.62a10 10 0 0 1-7.73 7 13.35 13.35 0 0 1-2.68.35z" transform="translate(-605.77 -138.54)"/><path class="cls-3" d="M805.54 403c-7 0-14.07-4.55-14.28-14.76-.06-2.77-.13-6.87-.21-11.31-.12-6.82-.26-14.56-.38-19.23h2c.12 4.68.25 12.42.38 19.24.08 4.44.15 8.54.21 11.3.13 6.4 4 12.81 12.26 12.81h.17c7.48-.08 15-5.76 15-16.46v-14h2v14.05c0 7-2.94 11.3-5.41 13.68a17.19 17.19 0 0 1-11.57 4.68zm35.55 31.49c-17.77-24.27-2.49-52.05-2.34-52.33l1.75 1c-.15.27-14.79 27 2.2 50.16z" transform="translate(-605.77 -138.54)"/><path class="cls-6" d="M845.31 473.1c11.57 5.25 39.46 19.79 39.46 19.79 5.63 3.36 12.77.57 12.88-6l.38-22a.75.75 0 0 1 1-.71c2.53.73 9.68 4.05 15.27 18.79 8.07 21.3 10.1 27.74 19.43 35.08 22 17.27 62.88 47.88 62.88 47.88l27.23-72.63c6.67-17.81 28.53-28 44.35-17.81 19.28 12.37 25.37 40.74 22.49 76.79-2.35 29.33-11.16 64.81-26.15 101s-44.47 47.24-77.19 22.8L844.5 576.32a84 84 0 0 0-8.29-5.13c-9.24-5-31.74-17.82-35.37-26.18-4.34-10 1.08-15.13 4.19-15.64-7.5-7-4.23-21 3.17-21.59-6.23-4.17-7.94-12.23-5.46-17.18 3.72-7.45 10.6-7.32 20.89-3.45-2.63-3.8 1.07-23.41 21.68-14.05z" transform="translate(-605.77 -138.54)"/><path transform="rotate(-62.73 419.024 920.917)" d="M834.55 479.88h2v26.84h-2z"/><path transform="rotate(-65.78 411.841 913.035)" d="M820.88 498.93h2v30h-2z"/><path transform="rotate(-60.32 392.297 986.642)" d="M813.33 523.96h2v21.4h-2z"/><path class="cls-2" d="M1072 877.92h-7.29a25.13 25.13 0 0 1-24.39-31.15l87.82-355.35a25.12 25.12 0 0 1 24.39-19.1c20 0 35.72 7.8 28.93 37.55-19.13 83.81-78.47 349-78.47 349-2.75 11.13-19.41 19.05-30.99 19.05z" transform="translate(-605.77 -138.54)"/><path class="cls-2" d="M1158.38 881.78H959.72a19.14 19.14 0 0 1-19.14-19.14V699.48a47.71 47.71 0 0 1 47.72-47.72h122.35a47.72 47.72 0 0 1 47.73 47.72z" transform="translate(-605.77 -138.54)"/><path class="cls-4" d="M983.86 651.76A43.27 43.27 0 0 0 940.58 695v177.42a9.36 9.36 0 0 0 9.35 9.36h77.2V695a43.27 43.27 0 0 0-43.27-43.24z" transform="translate(-605.77 -138.54)"/><path class="cls-2" d="M955.29 864.14h-2V695a30.57 30.57 0 1 1 61.13 0v13.82h-2V695a28.57 28.57 0 1 0-57.13 0z" transform="translate(-605.77 -138.54)"/><path class="cls-3" d="M48.26 782.66h51.86v2H48.26zm119.26 0h80.96v2h-80.96z"/><path d="M333.8 608.31h2v75.87h-2z"/><path class="cls-4" d="M1136.78 660.74a46.5 46.5 0 0 0-26.13-8h-16.26v-2h16.26a48.45 48.45 0 0 1 27.25 8.32z" transform="translate(-605.77 -138.54)"/><path class="cls-2" d="M1068.15 475.52c-15.82-10.15-37.68 0-44.35 17.81L1006.29 540l78.94 47.82a272.81 272.81 0 0 0 5.41-35.55c2.88-36.01-3.21-64.38-22.49-76.75z" transform="translate(-605.77 -138.54)"/><path class="cls-3" d="m1009.91 533.22-1.87-.7 14.82-39.52a35.06 35.06 0 0 1 26.66-22.1l.33 2a33 33 0 0 0-25.12 20.83z" transform="translate(-605.77 -138.54)"/></g><g id="cat"><path class="cls-2" d="M482.53 724.78h61.72v45.48h-61.72z"/><path class="cls-1" d="M1118.47 894.57h-8.61a10.68 10.68 0 0 0 10.54-12.39l-1.62-9.88v-55.51s-32.06-26.32-75.38-26.32c-39.61 0-69.87 35.37-69.87 74v21.22a28.41 28.41 0 0 0 28.41 28.41h114.71a10 10 0 0 0 10.13-9.41 9.81 9.81 0 0 0-8.31-10.12z" transform="translate(-605.77 -138.54)"/><path class="cls-3" d="M466.54 568.43h2v140.86h-2z"/><path class="cls-2" d="M1079.37 795.26v55.86h33.18v-48.86L1087.76 790a5.82 5.82 0 0 0-8.39 5.26zM1150 790l-24.8 12.22v48.86h33.19v-55.82A5.82 5.82 0 0 0 1150 790z" transform="translate(-605.77 -138.54)"/><path class="cls-1" d="m1106.39 805.06-34.69 42.77 20.86 16.42 69.69-8.89 6.53-8.38-39.49-42.6a13.49 13.49 0 0 0-9.89-4.31h-2.54a13.47 13.47 0 0 0-10.47 4.99z" transform="translate(-605.77 -138.54)"/><path d="M1098.4 895.57h-91a16.89 16.89 0 0 1-16.87-16.87h2a14.89 14.89 0 0 0 14.87 14.87h91z" transform="translate(-605.77 -138.54)"/><path class="cls-3" d="M1137.55 883.75h-17c-.29-14.85-22.51-10.21-22.51-10.21-18.08 0-27.06-4.45-27.06-22.54v-.78a4.2 4.2 0 0 1 4.21-4.21h90.92a4.21 4.21 0 0 1 4.21 4.21v.78a32.75 32.75 0 0 1-32.77 32.75z" transform="translate(-605.77 -138.54)"/><path d="m1064.83 860.47-1.87-.72a41.59 41.59 0 0 0-31.84-55.9l.33-2a43.61 43.61 0 0 1 33.38 58.6zm11.28 23.28h-2a9.83 9.83 0 0 0-9.82-9.82h-23.87v-2h23.87a11.83 11.83 0 0 1 11.82 11.82zm41.31-6.2a9.8 9.8 0 0 0-7.62-3.62h-20.12a18.2 18.2 0 0 1-11.72-4.27l1.28-1.53a16.27 16.27 0 0 0 10.44 3.8h20.12a11.81 11.81 0 0 1 9.17 4.35z" transform="translate(-605.77 -138.54)"/><path class="cls-1" d="m1081 791.19 31.53 31.53v-20.46L1087.76 790a5.81 5.81 0 0 0-6.76 1.19zm44.31 32.41 31.88-31.87A5.8 5.8 0 0 0 1150 790l-24.8 12.22v21.45a1.31 1.31 0 0 0 .11-.07z" transform="translate(-605.77 -138.54)"/><path class="cls-3" d="M1129.29 804.38a13.49 13.49 0 0 0-9.89-4.31h-2.54a13.47 13.47 0 0 0-10.47 5l-5.15 6.35 12.19 12.19a8.4 8.4 0 0 0 11.88 0l11.31-11.31z" transform="translate(-605.77 -138.54)"/><path d="M1104.08 840.27H1092a2.08 2.08 0 0 1-2.08-2.08 2.08 2.08 0 0 1 2.08-2.08h12.11a2.08 2.08 0 0 1 2.08 2.08 2.08 2.08 0 0 1-2.11 2.08zm43.16 0h-12.1a2.08 2.08 0 0 1-2.08-2.08 2.08 2.08 0 0 1 2.08-2.08h12.1a2.09 2.09 0 0 1 2.09 2.08 2.09 2.09 0 0 1-2.09 2.08zm-24.52 2.73h-7.88c-2.06 0-3.36 1.84-2.08 3.1a1.59 1.59 0 0 0 .24.2l3.64 2.82a3.7 3.7 0 0 0 4.28 0l3.65-2.82a1.59 1.59 0 0 0 .24-.2c1.28-1.25-.02-3.1-2.09-3.1z" transform="translate(-605.77 -138.54)"/><path d="M1112.06 857.4H1108a7.77 7.77 0 0 1-6.69-3.85l1.73-1a5.76 5.76 0 0 0 5 2.86h4.1a5.72 5.72 0 0 0 5.72-5.72h2a7.72 7.72 0 0 1-7.8 7.71z" transform="translate(-605.77 -138.54)"/><path d="M1129.75 857.4h-4.1a7.72 7.72 0 0 1-7.72-7.72h2a5.73 5.73 0 0 0 5.72 5.72h4.1a5.73 5.73 0 0 0 5-2.86l1.73 1a7.77 7.77 0 0 1-6.73 3.86z" transform="translate(-605.77 -138.54)"/><path class="cls-1" d="M1146.39 909.7c-6.38 1.25-14.79 1.63-17.34-8.39-1.14-4.49-2.26-15.77 12.74-19.53 16.11-4 28.89-13.16 28.43-32.37 13.45 8.3 14.37 19.12 14.37 24 0 20.78-24.52 33.59-38.2 36.29z" transform="translate(-605.77 -138.54)"/><path d="m1141.3 882.87-.22-2a31.6 31.6 0 0 0 27.59-25.16l2 .4a33.61 33.61 0 0 1-29.37 26.76z" transform="translate(-605.77 -138.54)"/><path class="cls-7" d="M1178 776.55a5.87 5.87 0 0 0 5.14-8.66c-15.68-29.52-58.94-50.73-109.86-50.73s-94.17 21.21-109.85 50.73a5.86 5.86 0 0 0 5.14 8.66z" transform="translate(-605.77 -138.54)"/></g></svg>