<svg xmlns="http://www.w3.org/2000/svg" viewBox="0 0 1920 1080" style="enable-background:new 0 0 1920 1080" xml:space="preserve"><style>.st0{fill:#93b4f6}.st1{fill:#ec8c92}.st2{fill:#274d76}.st3{fill:#fff3a1}.st4{fill:#fff}</style><g id="BG"><path class="st0" d="M1219.9 772.49h-130.6V403.48l.57.08 130.03 18.02v350.91zm-129.6-1h128.6V422.45l-128.6-17.82v366.86z"/><path class="st0" d="M1207.25 455.68h-106.21v-15.83h106.21v15.83zm-105.21-1h104.21v-13.83h-104.21v13.83zm105.21 34.61h-106.21v-15.83h106.21v15.83zm-105.21-1h104.21v-13.83h-104.21v13.83zm105.21 34.62h-106.21v-15.83h106.21v15.83zm-105.21-1h104.21v-13.83h-104.21v13.83zm105.21 34.62h-106.21V540.7h106.21v15.83zm-105.21-1h104.21V541.7h-104.21v13.83zm105.21 34.62h-106.21v-15.83h106.21v15.83zm-105.21-1h104.21v-13.83h-104.21v13.83zm105.21 34.62h-106.21v-15.83h106.21v15.83zm-105.21-1h104.21v-13.83h-104.21v13.83zm105.21 34.61h-106.21v-15.83h106.21v15.83zm-105.21-1h104.21v-13.83h-104.21v13.83zM1207.25 691h-106.21v-15.83h106.21V691zm-105.21-1h104.21v-13.83h-104.21V690zm105.21 34.62h-106.21v-15.83h106.21v15.83zm-105.21-1h104.21v-13.83h-104.21v13.83zm-11.74 48.87h-38.73V473.47h38.73v299.02zm-37.73-1h36.73V474.47h-36.73v297.02z"/><path class="st0" d="M1052.27 772.49h-38.73V473.47h38.73v299.02zm-37.73-1h36.73V474.47h-36.73v297.02z"/><path class="st0" d="M1014.46 772.49h-38.73V473.47h38.73v299.02zm-37.73-1h36.73V474.47h-36.73v297.02z"/><path class="st0" d="M976.65 772.49h-38.73V473.47h38.73v299.02zm-37.73-1h36.73V474.47h-36.73v297.02z"/><path class="st0" d="M1069.82 474.43h-109.7v-19.9h109.69v19.9zm-108.7-1h107.69v-17.9H961.12v17.9z"/><path class="st0" d="M1025.71 455.52h-23.05V322.2h23.05v133.32zm-22.05-1h21.05V323.2h-21.05v131.32zm-64.59 317.64H799.44v-537.3h139.62v537.3zm-138.63-1h137.62v-535.3H800.44v535.3z"/><path class="st0" d="M939.07 354.7h-35.66v-24.63h35.66v24.63zm-34.66-1h33.66v-22.63h-33.66v22.63z"/><path class="st0" d="M904.41 354.7h-35.66v-24.63h35.66v24.63zm-34.65-1h33.66v-22.63h-33.66v22.63z"/><path class="st0" d="M869.76 354.7H834.1v-24.63h35.66v24.63zm-34.66-1h33.66v-22.63H835.1v22.63z"/><path class="st0" d="M835.1 354.7h-35.66v-24.63h35.66v24.63zm-34.66-1h33.66v-22.63h-33.66v22.63zm138.63 48.69h-35.66v-24.63h35.66v24.63zm-34.66-1h33.66v-22.63h-33.66v22.63z"/><path class="st0" d="M904.41 402.39h-35.66v-24.63h35.66v24.63zm-34.65-1h33.66v-22.63h-33.66v22.63z"/><path class="st0" d="M869.76 402.39H834.1v-24.63h35.66v24.63zm-34.66-1h33.66v-22.63H835.1v22.63z"/><path class="st0" d="M835.1 402.39h-35.66v-24.63h35.66v24.63zm-34.66-1h33.66v-22.63h-33.66v22.63zm138.63 48.69h-35.66v-24.63h35.66v24.63zm-34.66-1h33.66v-22.63h-33.66v22.63z"/><path class="st0" d="M904.41 450.08h-35.66v-24.63h35.66v24.63zm-34.65-1h33.66v-22.63h-33.66v22.63z"/><path class="st0" d="M869.76 450.08H834.1v-24.63h35.66v24.63zm-34.66-1h33.66v-22.63H835.1v22.63z"/><path class="st0" d="M835.1 450.08h-35.66v-24.63h35.66v24.63zm-34.66-1h33.66v-22.63h-33.66v22.63zm138.63 48.69h-35.66v-24.63h35.66v24.63zm-34.66-1h33.66v-22.63h-33.66v22.63z"/><path class="st0" d="M904.41 497.77h-35.66v-24.63h35.66v24.63zm-34.65-1h33.66v-22.63h-33.66v22.63z"/><path class="st0" d="M869.76 497.77H834.1v-24.63h35.66v24.63zm-34.66-1h33.66v-22.63H835.1v22.63z"/><path class="st0" d="M835.1 497.77h-35.66v-24.63h35.66v24.63zm-34.66-1h33.66v-22.63h-33.66v22.63zm138.63 96.38h-35.66v-24.63h35.66v24.63zm-34.66-1h33.66v-22.63h-33.66v22.63z"/><path class="st0" d="M904.41 593.15h-35.66v-24.63h35.66v24.63zm-34.65-1h33.66v-22.63h-33.66v22.63z"/><path class="st0" d="M869.76 593.15H834.1v-24.63h35.66v24.63zm-34.66-1h33.66v-22.63H835.1v22.63z"/><path class="st0" d="M835.1 593.15h-35.66v-24.63h35.66v24.63zm-34.66-1h33.66v-22.63h-33.66v22.63zm138.63 48.69h-35.66v-24.63h35.66v24.63zm-34.66-1h33.66v-22.63h-33.66v22.63z"/><path class="st0" d="M904.41 640.84h-35.66v-24.63h35.66v24.63zm-34.65-1h33.66v-22.63h-33.66v22.63z"/><path class="st0" d="M869.76 640.84H834.1v-24.63h35.66v24.63zm-34.66-1h33.66v-22.63H835.1v22.63z"/><path class="st0" d="M835.1 640.84h-35.66v-24.63h35.66v24.63zm-34.66-1h33.66v-22.63h-33.66v22.63zm122.74-346.46h-13.56v-58.52h13.56v58.52zm-12.56-1h11.56v-56.52h-11.56v56.52zm-19.28 1h-13.57v-58.52h13.57v58.52zm-12.57-1h11.57v-56.52h-11.57v56.52zm-19.27 1h-13.56v-58.52h13.56v58.52zm-12.57-1h11.56v-56.52h-11.56v56.52zm-19.28 1h-13.56v-58.52h13.56v58.52zm-12.56-1h11.56v-56.52h-11.56v56.52zm667.11 480.11h-263.28V653.7l.3-.13 131.35-58.83.2.09 131.44 58.87v118.79zm-262.28-1h261.28V654.34l-130.64-58.52-130.64 58.52v117.15z"/><path class="st0" d="m1466.78 665.46-116.22-52.06-112.99 50.61-.41-.91 113.4-50.79.2.09 116.43 52.15zm-54.43 95.8h-123.59v-12.23h123.59v12.23zm-122.59-1h121.59v-10.23h-121.59v10.23z"/><path class="st0" d="M1430.08 772.49h-159.04v-12.23h159.04v12.23zm-158.04-1h157.04v-10.23h-157.04v10.23zm190.26-33.61h-24.48V713.4h24.48v24.48zm-23.49-1h22.48V714.4h-22.48v22.48zm-15.6 1h-24.48V713.4h24.48v24.48zm-23.48-1h22.48V714.4h-22.48v22.48zm-93.79 1h-24.48V713.4h24.48v24.48zm-23.48-1h22.48V714.4h-22.48v22.48zm-15.61 1h-24.48V713.4h24.48v24.48zm-23.48-1h22.48V714.4h-22.48v22.48zm218.93-38.31h-24.48v-24.48h24.48v24.48zm-23.49-1h22.48v-22.48h-22.48v22.48zm-15.6 1h-24.48v-24.48h24.48v24.48zm-23.48-1h22.48v-22.48h-22.48v22.48zm-15.61 1h-24.48v-24.48h24.48v24.48zm-23.48-1h22.48v-22.48h-22.48v22.48zm-15.61 1h-24.48v-24.48h24.48v24.48zm-23.48-1h22.48v-22.48h-22.48v22.48zm-15.61 1h-24.48v-24.48h24.48v24.48zm-23.48-1h22.48v-22.48h-22.48v22.48zm-15.61 1h-24.48v-24.48h24.48v24.48zm-23.48-1h22.48v-22.48h-22.48v22.48zm144.17 52.45h-68.97V713.4h68.97v36.62zm-67.97-1h66.97V714.4h-66.97v34.62z"/><path class="st0" d="M1352.55 713.9h1v35.62h-1zm-552.11 58.59H657.61V555.53h142.83v216.96zm-141.83-1h140.83V556.53H658.61v214.96z"/><path class="st0" d="M669.28 580.33H787.5v1H669.28zm0 23.79H787.5v1H669.28zm0 23.79H787.5v1H669.28zm0 23.79H787.5v1H669.28zm0 23.79H787.5v1H669.28zm0 23.79H787.5v1H669.28zm0 23.78H787.5v1H669.28z"/><path class="st0" d="M658.61 772.49H530.38V534.74h64.57v-68.79H700.9v90.59h-42.29v215.95zm-127.23-1h126.23V555.53h42.29v-88.59H595.95v68.79h-64.57v235.76z"/><path class="st0" d="M644.3 519.81h-22.43V487.2h22.43v32.61zm-21.43-1h20.43V488.2h-20.43v30.61zm62.38 1h-22.43V487.2h22.43v32.61zm-21.43-1h20.43V488.2h-20.43v30.61zm-19.52 78.33h-22.43v-32.62h22.43v32.62zm-21.43-1h20.43v-30.62h-20.43v30.62zm21.43 78.33h-22.43v-32.62h22.43v32.62zm-21.43-1h20.43v-30.62h-20.43v30.62zm-17.16-76.33h-22.43v-32.62h22.43v32.62zm-21.43-1h20.43v-30.62h-20.43v30.62zm21.43 78.33h-22.43v-32.62h22.43v32.62zm-21.43-1h20.43v-30.62h-20.43v30.62zm-17.94-76.33h-22.43v-32.62h22.43v32.62zm-21.43-1h20.43v-30.62h-20.43v30.62zm21.43 78.33h-22.43v-32.62h22.43v32.62zm-21.43-1h20.43v-30.62h-20.43v30.62zm-13.53 99.02H399.17V616.21h132.21v156.28zm-131.21-1h130.21V617.21H400.17v154.28z"/><path class="st0" d="M493.09 657.72h-93.92v-16.81h93.92v16.81zm-92.92-1h91.92v-14.81h-91.92v14.81zm92.92 42.61h-93.92v-16.81h93.92v16.81zm-92.92-1h91.92v-14.81h-91.92v14.81zm92.92 42.61h-93.92v-16.81h93.92v16.81zm-92.92-1h91.92v-14.81h-91.92v14.81zm818.75-85.15V447.26h165.2v163.6l-33.56-15.03-131.64 58.96zm1-206.53v204.99l130.64-58.52.2.09 32.36 14.49V448.26h-163.2z"/><path class="st0" d="M1311.76 475.99h71.86v1h-71.86zm0 23.24h71.86v1h-71.86zm0 23.24h71.86v1h-71.86zm0 23.24h71.86v1h-71.86zm0 23.24h71.86v1h-71.86zm-93.08-92.96h47.67v1h-47.67zm0 23.24h47.67v1h-47.67zm0 23.24h47.67v1h-47.67zm0 23.24h47.67v1h-47.67zm0 23.24h47.67v1h-47.67zM553.84 840.12h772.27v1H553.84zm-12.36 25.75h772.27v1H541.48z"/></g><g id="mechanic"><path class="st1" d="M943.38 354.49c-10.44-8.15-18.04-17.92-22.55-24.64-2.66-3.97-4.8-8.26-6.48-12.73-4.68-12.52-16.49-45-46.67-32.53-31.66 13.08-14.26 49.24-6.36 69.65 4.38 11.33 13.51 13.52 25.98 8.9 4.13-1.53 8.7.81 9.73 5.09 3.27 13.66 1.22 27.58.73 43.97 20.2-7.32 40.25-25.29 45.62-57.71z"/><path d="M908.23 820.32h-4.88c-1.25 0-1.85-1.53-.93-2.38 8.04-7.39 12.94-18.13 12.51-30-.74-20.11-17.1-36.51-37.21-37.29-22.12-.86-40.32 16.82-40.32 38.75 0 11.29 4.83 21.45 12.53 28.54.92.85.33 2.38-.92 2.38h-4.88c-2.05 0-3.89 1.49-4.09 3.53-.24 2.34 1.61 4.33 3.91 4.33h64.47c2.29 0 4.14-1.99 3.91-4.33-.21-2.04-2.05-3.53-4.1-3.53z"/><circle class="st2" cx="876.57" cy="789.4" r="19.99"/><path d="M1191.23 820.32h-4.88c-1.25 0-1.85-1.53-.93-2.38 8.04-7.39 12.94-18.13 12.51-30-.74-20.11-17.1-36.51-37.21-37.29-22.12-.86-40.32 16.82-40.32 38.75 0 11.29 4.83 21.45 12.53 28.54.92.85.33 2.38-.92 2.38h-4.88c-2.05 0-3.89 1.49-4.09 3.53-.24 2.34 1.61 4.33 3.91 4.33h64.47c2.29 0 4.14-1.99 3.91-4.33-.21-2.04-2.05-3.53-4.1-3.53z"/><path class="st3" d="M1010.21 397.12c-14.22-19.56-34.71-25.42-52.09-33.5-5.41-2.52-10.33-5.68-14.74-9.13-5.37 32.42-25.43 50.39-45.62 57.7-.52 17.6.76 38.04 12.36 64.03l4.55 10.98 50.35 50.04 71.09-7.6c0 .01-9.71-110.25-25.9-132.52z"/><circle class="st2" cx="1159.58" cy="789.4" r="19.99"/><path class="st2" d="m834.51 586.78-173.92 139.4c-15.4 11.95-32.78 9.67-49.99-4.48-2.87-2.36-11.17-9.78-11.17-9.78a5.837 5.837 0 0 0-8.24-.14l-1.62 1.57a3.021 3.021 0 0 0-.07 4.28l66.72 69.14a3.715 3.715 0 0 0 5.26.09c1.53-1.48 3.98-1.68 5.6-.3a4.08 4.08 0 0 1 .2 6.04l-.14.13c-1.47 1.43-1.52 3.78-.09 5.25l20.18 20.94c7.29 7.55 19.12 8.33 27.33 1.8l269.35-217.38-16.02-16.57H834.51z"/><path class="st3" d="M1225.69 763.94h-8.15v-26.67c0-5.41-4.43-9.85-9.85-9.85h-3.21c-10.98-13.43-26.42-22.04-45.02-22.04h-32.1c-2.57 0-5.05-.98-6.92-2.74l-55.18-54.14a61.823 61.823 0 0 0-42.31-16.76h-84.38c-25.13 0-44.3 7.2-60.33 26.55l-60.91 69.62v81.46h6.89c2.71 0 5.14-1.64 6.19-4.15 6.28-15.02 20.51-33.32 45.78-32.47 25.68.86 36.87 14.23 41.69 24.57 3.1 6.65 4.04 15.35 4.85 16.71 1.59 2.66 4.5 4.45 7.82 4.45h175.04c4.78 0 8.66-3.88 8.66-8.66v-6.28c0-10.98 3.67-21.73 10.77-30.1 6.72-7.92 17.37-14.96 34.01-14.96 33.6 0 42.94 30.68 44.82 36.79 2.98 9.64 6.79 14.3 12.21 14.3h5.34c5.42 0 9.84-4.38 9.85-9.79.02-26.58-5.56-35.84-5.56-35.84z"/><path d="M1069.3 796.93h-98.52c-9.76 0-17.69-7.94-17.69-17.69V663.27c0-13.89 11.3-25.2 25.19-25.2h47.02c9.63 0 18.51 4.83 23.75 12.91l28.78 44.45c2.98 4.6 4.55 9.92 4.55 15.4h-2c0-5.09-1.46-10.04-4.23-14.31l-28.78-44.45c-4.87-7.52-13.11-12-22.07-12h-47.02c-12.79 0-23.19 10.41-23.19 23.2v115.97c0 8.65 7.04 15.69 15.69 15.69h98.52c6.11 0 11.07-4.97 11.07-11.07h2c.01 7.21-5.86 13.07-13.07 13.07z"/><path class="st0" d="M1049.71 705.49H983.3c-10 0-18.1-8-18.1-17.87v-22.81c0-8.64 7.1-15.65 15.85-15.65h40.83c7.02 0 13.55 3.57 17.28 9.44l19.56 30.8c4.45 7-.65 16.09-9.01 16.09zm-164.1 0h40.29c10.06 0 18.21-8.05 18.21-17.98v-23.36c0-8.28-6.8-14.99-15.18-14.99h-7.63c-8.14 0-19.06 6.64-24.26 12.81-4.67 5.54-17.85 22.83-17.85 22.83-7.24 8-4.44 20.69 6.42 20.69z"/><path class="st4" d="M1211.8 776.72h-6.59c-1.42 0-2.57-1.16-2.57-2.57 0-1.42 1.16-2.57 2.57-2.57h6.59c1.42 0 2.57 1.16 2.57 2.57.01 1.42-1.15 2.57-2.57 2.57z"/><path d="M1211.8 777.72h-6.59c-1.97 0-3.57-1.6-3.57-3.57s1.6-3.57 3.57-3.57h6.59c1.97 0 3.57 1.6 3.57 3.57s-1.6 3.57-3.57 3.57zm-6.59-5.14c-.87 0-1.57.71-1.57 1.57 0 .87.71 1.57 1.57 1.57h6.59c.87 0 1.57-.71 1.57-1.57 0-.87-.71-1.57-1.57-1.57h-6.59z"/><path class="st4" d="M1220.28 767.19c-5.03 0-9.15-4.12-9.15-9.15v-22.21c0-2.06 1.68-3.74 3.74-3.74 8.01 0 14.56 6.55 14.56 14.56v11.38c0 5.04-4.11 9.16-9.15 9.16z"/><path d="M1220.28 768.19c-5.6 0-10.15-4.55-10.15-10.15v-22.21c0-2.61 2.12-4.74 4.74-4.74 8.58 0 15.56 6.98 15.56 15.56v11.38c0 5.6-4.55 10.16-10.15 10.16zm-5.41-35.1c-1.51 0-2.74 1.23-2.74 2.74v22.21c0 4.5 3.66 8.15 8.15 8.15s8.15-3.66 8.15-8.15v-11.38c0-7.48-6.08-13.57-13.56-13.57zm-354.2-18.51h289.77v2H860.67zm-9.3 12.47h338.46v2H851.37zm90.06 47.45h-2c0-18.19-14.8-32.98-32.98-32.98h-65.73v-2h65.73c19.29 0 34.98 15.69 34.98 34.98z"/><path class="st0" d="M1088.42 662.16c-6.42-6.15-14.46-13.76-27.2-13-1.33 0-2.09 1.53-1.27 2.59l33.7 43.74a17.46 17.46 0 0 0 13.85 6.81h12.2c2.89 0-21.48-30.75-31.28-40.14zm242.43-137.68c33.75-28.6 14.01-112.1-55.9-119.02 1.94-17.63-21.69-47.23-56.65-56.41-49.16-12.91-145.54 7.85-145.52 93.5.01 46.21 50 80.08 106.49 63.78 8.43 40.25 32.1 57.17 66.21 56.38-11.24 10.62-10.11 34.72-.95 44.94.84.94.3 2.43-.95 2.58-30.88 3.78-37.35 35.52-37.28 52.64 0 .97-1.21 1.37-1.82.61-4.27-5.24-12.42-5.94-20.07.1-11.01 8.67-12.77 23.71-6.61 29.95 11.1 11.24 36.15 2.99 38.72-11.64.12-.68.74-1.1 1.26-.63 10.78 9.87 48.51 29.36 82.49 5.53 20.73-14.54 21.84-43.48 16.29-58.72-.6-1.65.5-3.33 2.22-3.65 68.55-12.78 49.51-103.48 12.07-99.94zm-112.68 68.68c-1.62-6.01-13.26-5.27-12.2 3.62 1.05 8.88 13.71 1.95 12.2-3.62zm-26.61-6.29c8.51-4.45 12.13-11.73 10.09-16.92-1.54-3.91-8.65-4.71-17.8-2.46-5.69 1.4-8.68 7.66-8.84 11.9-.14 3.71 1.72 7.31 5.05 8.96 3.86 1.92 7.7.5 11.5-1.48zm-75.5-58.61c-14.31 1.16-22.33 6.72-25.39 12.96-9.8 20.02 14.33 50.33 52.47 44.19 38.53-6.2 27.59-61.59-27.08-57.15zm209.9-143.73c11.37-5.14 21.72-28.72-1.07-37.42-12.01-4.59-21.17-2.29-28.26.56-8.38 3.37-13.66 8.27-14.57 14.34-3.44 23.04 32.81 27.53 43.9 22.52zm-51.56-47.23c5.59-3.18 6.63-8.06 5.47-12.31-1.16-4.25-4.5-7.87-13.59-8.53-11.24-.82-19.44 6.1-19.74 11.84-.56 11.18 16.68 15.36 27.86 9z"/><path transform="rotate(-10.872 1184.118 675.6)" d="M1182.86 636.43h2v78.09h-2z"/><path d="M779.88 564.95c-23.64 0-40.1 22.63-41.92 46.21l-18.74 171.91c-2.11 19.38-15.83 30.29-37.97 32.83-3.69.42-14.8 1.23-14.8 1.23a5.82 5.82 0 0 0-5.82 5.82v2.26c0 1.67 1.35 3.03 3.02 3.03l96.09.09a3.72 3.72 0 0 0 3.72-3.72c0-2.13 1.56-4.03 3.68-4.24a4.086 4.086 0 0 1 4.48 4.06v.19c0 2.05 1.66 3.71 3.71 3.72l29.08.05c10.49.01 19.28-7.96 20.29-18.4l14.76-151.81c1.47-15.18 14.22-26.76 29.47-26.76h141.04c22.93 0 41.53-19.49 41.53-42.43v-24.05H779.88z" style="fill:#74baab"/><path class="st2" d="m790.47 564.95-45.59-90.05a16.347 16.347 0 0 0-14.57-8.96h-20.29c-3.6 0-5.9 3.83-4.22 7l48.72 92s4.53 14.93 12.77 14.93h106.9c4.57 0 8.28-3.71 8.28-8.28v-6.65h-92z"/><path class="st0" d="M783.39 579.88h-20.38a25.27 25.27 0 0 1-22.34-13.45l-49.51-93.48c-1.68-3.18.62-7 4.22-7h20.29c6.16 0 11.79 3.46 14.57 8.96l53.15 104.97z"/><path d="M1083.23 809.09c4.42 0 8.13 3.11 9.05 7.26H944.51c.92-4.15 4.62-7.26 9.05-7.26h129.67m0-2H953.56c-6.22 0-11.26 5.04-11.26 11.26h152.2c-.01-6.22-5.05-11.26-11.27-11.26z"/><path class="st1" d="m781.7 476.61 5.4-.02c7.72-.03 15.13-3.09 20.63-8.5l9.1-8.95c.36-.35.96-.05.89.45l-5.37 38.87s-32.13 8.32-35.06-16.81c-.3-2.67 1.73-5.02 4.41-5.04z"/><path class="st1" d="m1053.82 512.24-33.36-112.01c-6.98-22.01-30.48-34.2-52.5-27.22-27.27 8.65-40.15 37.76-31.5 65.03l17.98 55.58-98.73-40.96c-17.22-7.36-39.33-2.76-42.79 15.65-2.45 13.04-23.75 96.47-9.86 96.54h14.59c9.67-1.66 10.35-9.07 12.61-22.76 3.96.66 12.42 2.4 19.35-.81 2.6 3 12.94 3.82 20.17.81 5.51 1.77 12.69 1.32 16.63-.93 35.21 19.51 70.04 37.84 89.8 47.24 16.82 8.01 32.67 7.76 48.82 3.9 35.35-10.58 37.81-51.62 28.79-80.06z"/><path class="st3" d="m1042.52 474.32-22.06-74.09c-6.98-22.01-30.48-34.2-52.5-27.22-27.27 8.65-40.15 37.76-31.5 65.03l17.43 53.86c7.16-2.32 57.76-18.32 88.63-17.58z"/><path class="st0" d="M1234.82 799.77h-18.3c-.77 0-1.45-.48-1.72-1.19l-4.74-12.65c-.45-1.2.44-2.48 1.72-2.48h23.04c3.71 0 6.71 3 6.71 6.71v2.9c0 3.71-3 6.71-6.71 6.71z"/><path d="M998.47 512.76c-.24-.09-24.59-9.57-44.43-18.22l.8-1.83c19.8 8.64 44.11 18.1 44.35 18.19l-.72 1.86z"/><path transform="rotate(-82.085 834.28 521.77)" d="M818.07 520.79h32.41v2h-32.41z"/><path d="m852.83 539.63-1.78-.91c1.24-2.43 2-5.04 2.27-7.75l2-19.83 1.99.2-2 19.83c-.3 2.96-1.14 5.81-2.48 8.46zm20.36.81-1.8-.87c1.12-2.32 1.82-4.8 2.08-7.37l1.82-18.12 1.99.2-1.82 18.12c-.28 2.8-1.05 5.5-2.27 8.04zm16.42-.31-1.75-.97c1.45-2.62 2.34-5.46 2.64-8.44l1.38-13.73 1.99.2-1.38 13.73c-.32 3.25-1.29 6.35-2.88 9.21z"/><path transform="rotate(-43.046 691.603 753.516)" class="st4" d="M690.64 721.14h2v64.81h-2z"/><path d="M734.54 779.47h93.43v2h-93.43zm132.01-436.44c-.67 0-1.35-.15-1.97-.44a4.6 4.6 0 0 1-2.46-2.92c-.59-2-5.57-19.7 1.27-22.15l.67 1.88c-3.83 1.37-2.04 12.82-.02 19.71.21.74.71 1.34 1.4 1.66.68.32 1.47.33 2.16.03l4.47-1.9.78 1.84-4.46 1.89c-.59.27-1.21.4-1.84.4zm3.39-22.27-.78-1.84c3.96-1.67 6.85-2.69 10.85-1.79l-.44 1.95c-3.31-.75-5.58-.02-9.63 1.68z"/><path d="m854.53 328.72-1.47-1.36c1.76-1.91 5.53-3.89 8.02-4.63l.57 1.92c-2.24.67-5.64 2.47-7.12 4.07zm50.04-4.14-.92-1.78a6.21 6.21 0 0 0 3.36-5.52c0-3.43-2.79-6.22-6.22-6.22-2.55 0-4.81 1.53-5.77 3.89l-1.85-.75a8.193 8.193 0 0 1 7.62-5.14c4.53 0 8.22 3.69 8.22 8.22a8.234 8.234 0 0 1-4.44 7.3z"/><path class="st3" d="M907.36 301.2c-.48-.94-1.13-1.91-1.14-1.97-7.19-11.98-19.02-22.71-38.54-14.65-10.93 4.51-16.01 11.78-17.65 20.19-.59 3.02 3.43 4.66 5.18 2.13l.04-.06c3.12-4.5 23.27-10.53 31.96-9.73 8.05.75 17.14 3.37 20.15 4.09z"/><path class="st2" d="M850.68 323.07c-1.09-14.46 25.48-25.3 54.3-22.47-11.68-2.93-34.41-10.28-45.5-13.89a18.497 18.497 0 0 0-12.64.43c-15.84 6.35-15.43 28.93.64 34.7.59.21 2.74 1.06 3.2 1.23z"/><path d="M863.48 353.34c-2.93 0-5.95-1.46-7.04-5l1.91-.59c.97 3.17 3.96 3.87 6.23 3.5 2.5-.41 5.16-2.24 5.09-5.29-.01-.5.27-.95.73-1.15.44-.2.95-.1 1.29.23 2.54 2.47 7.18 1.79 10.21-.28 1.08-.74 4.47-3.47 2.77-7.46l1.84-.79c1.53 3.58.19 7.37-3.48 9.89-3.22 2.21-8.06 3.15-11.49 1.04-.66 3.32-3.73 5.3-6.63 5.78-.47.08-.94.12-1.43.12z"/><path class="st4" d="M857.63 818.34h38.17v2h-38.17zm282.43 0h38.17v2h-38.17z"/><path class="st3" d="M1190.12 619.24c-5 1.17-12.64 7.84-17.79 14.44-13.22 16.94-51.9 68.5-51.9 68.5-.71.93-.66 2.23.11 3.11l1.2 1.56c.58.76 1.48 1.2 2.44 1.2h7.59l58.15-83.41 1.96-2.79c.88-1.27-.26-2.95-1.76-2.61z"/><path d="m947.93 481.75-14.23-44.3c-7.57-23.87 2.19-50.08 23.21-62.31l1.01 1.73c-20.22 11.77-29.6 36.99-22.31 59.98l14.23 44.3-1.91.6zm-137.97 80.61h-8.78v-2h8.78c4.46 0 8.08-3.62 8.08-8.08s-3.62-8.08-8.08-8.08h-9.22v-2h9.22c5.56 0 10.08 4.52 10.08 10.08 0 5.55-4.53 10.08-10.08 10.08z"/><path transform="rotate(-79.251 808.73 484.666)" d="M793.57 483.64h30.29v2h-30.29z"/></g></svg>