<?xml version="1.0" encoding="utf-8"?>
<!-- Generator: Adobe Illustrator 23.0.1, SVG Export Plug-In . SVG Version: 6.00 Build 0)  -->
<svg version="1.1" xmlns="http://www.w3.org/2000/svg" xmlns:xlink="http://www.w3.org/1999/xlink" x="0px" y="0px"
	 viewBox="0 0 1920 1080" style="enable-background:new 0 0 1920 1080;" xml:space="preserve">
<style type="text/css">
	.st0{fill:#93B4F6;}
	.st1{fill:#EC8C92;}
	.st2{fill:#274D76;}
	.st3{fill:#FFF3A1;}
	.st4{fill:#FFFFFF;}
	.st5{fill:#74BAAB;}
</style>
<g id="BG">
	<g>
		<path class="st0" d="M1219.9,772.49h-130.6V403.48l0.57,0.08l130.03,18.02V772.49z M1090.3,771.49h128.6V422.45l-128.6-17.82
			V771.49z"/>
		<path class="st0" d="M1207.25,455.68h-106.21v-15.83h106.21V455.68z M1102.04,454.68h104.21v-13.83h-104.21V454.68z"/>
		<path class="st0" d="M1207.25,489.29h-106.21v-15.83h106.21V489.29z M1102.04,488.29h104.21v-13.83h-104.21V488.29z"/>
		<path class="st0" d="M1207.25,522.91h-106.21v-15.83h106.21V522.91z M1102.04,521.91h104.21v-13.83h-104.21V521.91z"/>
		<path class="st0" d="M1207.25,556.53h-106.21V540.7h106.21V556.53z M1102.04,555.53h104.21V541.7h-104.21V555.53z"/>
		<path class="st0" d="M1207.25,590.15h-106.21v-15.83h106.21V590.15z M1102.04,589.15h104.21v-13.83h-104.21V589.15z"/>
		<path class="st0" d="M1207.25,623.77h-106.21v-15.83h106.21V623.77z M1102.04,622.77h104.21v-13.83h-104.21V622.77z"/>
		<path class="st0" d="M1207.25,657.38h-106.21v-15.83h106.21V657.38z M1102.04,656.38h104.21v-13.83h-104.21V656.38z"/>
		<path class="st0" d="M1207.25,691h-106.21v-15.83h106.21V691z M1102.04,690h104.21v-13.83h-104.21V690z"/>
		<path class="st0" d="M1207.25,724.62h-106.21v-15.83h106.21V724.62z M1102.04,723.62h104.21v-13.83h-104.21V723.62z"/>
		<path class="st0" d="M1090.3,772.49h-38.73V473.47h38.73V772.49z M1052.57,771.49h36.73V474.47h-36.73V771.49z"/>
		<path class="st0" d="M1052.27,772.49h-38.73V473.47h38.73V772.49z M1014.54,771.49h36.73V474.47h-36.73V771.49z"/>
		<path class="st0" d="M1014.46,772.49h-38.73V473.47h38.73V772.49z M976.73,771.49h36.73V474.47h-36.73V771.49z"/>
		<path class="st0" d="M976.65,772.49h-38.73V473.47h38.73V772.49z M938.92,771.49h36.73V474.47h-36.73V771.49z"/>
		<path class="st0" d="M1069.82,474.43H960.12v-19.9h109.69V474.43z M961.12,473.43h107.69v-17.9H961.12V473.43z"/>
		<path class="st0" d="M1025.71,455.52h-23.05V322.2h23.05V455.52z M1003.66,454.52h21.05V323.2h-21.05V454.52z"/>
		<path class="st0" d="M939.07,772.16H799.44v-537.3h139.62V772.16z M800.44,771.16h137.62v-535.3H800.44V771.16z"/>
		<path class="st0" d="M939.07,354.7h-35.66v-24.63h35.66V354.7z M904.41,353.7h33.66v-22.63h-33.66V353.7z"/>
		<path class="st0" d="M904.41,354.7h-35.66v-24.63h35.66V354.7z M869.76,353.7h33.66v-22.63h-33.66V353.7z"/>
		<path class="st0" d="M869.76,354.7H834.1v-24.63h35.66V354.7z M835.1,353.7h33.66v-22.63H835.1V353.7z"/>
		<path class="st0" d="M835.1,354.7h-35.66v-24.63h35.66V354.7z M800.44,353.7h33.66v-22.63h-33.66V353.7z"/>
		<path class="st0" d="M939.07,402.39h-35.66v-24.63h35.66V402.39z M904.41,401.39h33.66v-22.63h-33.66V401.39z"/>
		<path class="st0" d="M904.41,402.39h-35.66v-24.63h35.66V402.39z M869.76,401.39h33.66v-22.63h-33.66V401.39z"/>
		<path class="st0" d="M869.76,402.39H834.1v-24.63h35.66V402.39z M835.1,401.39h33.66v-22.63H835.1V401.39z"/>
		<path class="st0" d="M835.1,402.39h-35.66v-24.63h35.66V402.39z M800.44,401.39h33.66v-22.63h-33.66V401.39z"/>
		<path class="st0" d="M939.07,450.08h-35.66v-24.63h35.66V450.08z M904.41,449.08h33.66v-22.63h-33.66V449.08z"/>
		<path class="st0" d="M904.41,450.08h-35.66v-24.63h35.66V450.08z M869.76,449.08h33.66v-22.63h-33.66V449.08z"/>
		<path class="st0" d="M869.76,450.08H834.1v-24.63h35.66V450.08z M835.1,449.08h33.66v-22.63H835.1V449.08z"/>
		<path class="st0" d="M835.1,450.08h-35.66v-24.63h35.66V450.08z M800.44,449.08h33.66v-22.63h-33.66V449.08z"/>
		<path class="st0" d="M939.07,497.77h-35.66v-24.63h35.66V497.77z M904.41,496.77h33.66v-22.63h-33.66V496.77z"/>
		<path class="st0" d="M904.41,497.77h-35.66v-24.63h35.66V497.77z M869.76,496.77h33.66v-22.63h-33.66V496.77z"/>
		<path class="st0" d="M869.76,497.77H834.1v-24.63h35.66V497.77z M835.1,496.77h33.66v-22.63H835.1V496.77z"/>
		<path class="st0" d="M835.1,497.77h-35.66v-24.63h35.66V497.77z M800.44,496.77h33.66v-22.63h-33.66V496.77z"/>
		<path class="st0" d="M939.07,593.15h-35.66v-24.63h35.66V593.15z M904.41,592.15h33.66v-22.63h-33.66V592.15z"/>
		<path class="st0" d="M904.41,593.15h-35.66v-24.63h35.66V593.15z M869.76,592.15h33.66v-22.63h-33.66V592.15z"/>
		<path class="st0" d="M869.76,593.15H834.1v-24.63h35.66V593.15z M835.1,592.15h33.66v-22.63H835.1V592.15z"/>
		<path class="st0" d="M835.1,593.15h-35.66v-24.63h35.66V593.15z M800.44,592.15h33.66v-22.63h-33.66V592.15z"/>
		<path class="st0" d="M939.07,640.84h-35.66v-24.63h35.66V640.84z M904.41,639.84h33.66v-22.63h-33.66V639.84z"/>
		<path class="st0" d="M904.41,640.84h-35.66v-24.63h35.66V640.84z M869.76,639.84h33.66v-22.63h-33.66V639.84z"/>
		<path class="st0" d="M869.76,640.84H834.1v-24.63h35.66V640.84z M835.1,639.84h33.66v-22.63H835.1V639.84z"/>
		<path class="st0" d="M835.1,640.84h-35.66v-24.63h35.66V640.84z M800.44,639.84h33.66v-22.63h-33.66V639.84z"/>
		<path class="st0" d="M923.18,293.38h-13.56v-58.52h13.56V293.38z M910.62,292.38h11.56v-56.52h-11.56V292.38z"/>
		<path class="st0" d="M891.34,293.38h-13.57v-58.52h13.57V293.38z M878.77,292.38h11.57v-56.52h-11.57V292.38z"/>
		<path class="st0" d="M859.5,293.38h-13.56v-58.52h13.56V293.38z M846.93,292.38h11.56v-56.52h-11.56V292.38z"/>
		<path class="st0" d="M827.65,293.38h-13.56v-58.52h13.56V293.38z M815.09,292.38h11.56v-56.52h-11.56V292.38z"/>
		<path class="st0" d="M1482.2,772.49h-263.28V653.7l0.3-0.13l131.35-58.83l0.2,0.09l131.44,58.87V772.49z M1219.92,771.49h261.28
			V654.34l-130.64-58.52l-130.64,58.52V771.49z"/>
		<polygon class="st0" points="1466.78,665.46 1350.56,613.4 1237.57,664.01 1237.16,663.1 1350.56,612.31 1350.76,612.4 
			1467.19,664.55 		"/>
		<path class="st0" d="M1412.35,761.26h-123.59v-12.23h123.59V761.26z M1289.76,760.26h121.59v-10.23h-121.59V760.26z"/>
		<path class="st0" d="M1430.08,772.49h-159.04v-12.23h159.04V772.49z M1272.04,771.49h157.04v-10.23h-157.04V771.49z"/>
		<path class="st0" d="M1462.3,737.88h-24.48V713.4h24.48V737.88z M1438.81,736.88h22.48V714.4h-22.48V736.88z"/>
		<path class="st0" d="M1423.21,737.88h-24.48V713.4h24.48V737.88z M1399.73,736.88h22.48V714.4h-22.48V736.88z"/>
		<path class="st0" d="M1305.94,737.88h-24.48V713.4h24.48V737.88z M1282.46,736.88h22.48V714.4h-22.48V736.88z"/>
		<path class="st0" d="M1266.85,737.88h-24.48V713.4h24.48V737.88z M1243.37,736.88h22.48V714.4h-22.48V736.88z"/>
		<path class="st0" d="M1462.3,698.57h-24.48v-24.48h24.48V698.57z M1438.81,697.57h22.48v-22.48h-22.48V697.57z"/>
		<path class="st0" d="M1423.21,698.57h-24.48v-24.48h24.48V698.57z M1399.73,697.57h22.48v-22.48h-22.48V697.57z"/>
		<path class="st0" d="M1384.12,698.57h-24.48v-24.48h24.48V698.57z M1360.64,697.57h22.48v-22.48h-22.48V697.57z"/>
		<path class="st0" d="M1345.03,698.57h-24.48v-24.48h24.48V698.57z M1321.55,697.57h22.48v-22.48h-22.48V697.57z"/>
		<path class="st0" d="M1305.94,698.57h-24.48v-24.48h24.48V698.57z M1282.46,697.57h22.48v-22.48h-22.48V697.57z"/>
		<path class="st0" d="M1266.85,698.57h-24.48v-24.48h24.48V698.57z M1243.37,697.57h22.48v-22.48h-22.48V697.57z"/>
		<path class="st0" d="M1387.54,750.02h-68.97V713.4h68.97V750.02z M1319.57,749.02h66.97V714.4h-66.97V749.02z"/>
		<rect x="1352.55" y="713.9" class="st0" width="1" height="35.62"/>
		<path class="st0" d="M800.44,772.49H657.61V555.53h142.83V772.49z M658.61,771.49h140.83V556.53H658.61V771.49z"/>
		<rect x="669.28" y="580.33" class="st0" width="118.22" height="1"/>
		<rect x="669.28" y="604.12" class="st0" width="118.22" height="1"/>
		<rect x="669.28" y="627.91" class="st0" width="118.22" height="1"/>
		<rect x="669.28" y="651.7" class="st0" width="118.22" height="1"/>
		<rect x="669.28" y="675.49" class="st0" width="118.22" height="1"/>
		<rect x="669.28" y="699.28" class="st0" width="118.22" height="1"/>
		<rect x="669.28" y="723.06" class="st0" width="118.22" height="1"/>
		<path class="st0" d="M658.61,772.49H530.38V534.74h64.57v-68.79H700.9v90.59h-42.29V772.49z M531.38,771.49h126.23V555.53h42.29
			v-88.59H595.95v68.79h-64.57V771.49z"/>
		<path class="st0" d="M644.3,519.81h-22.43V487.2h22.43V519.81z M622.87,518.81h20.43V488.2h-20.43V518.81z"/>
		<path class="st0" d="M685.25,519.81h-22.43V487.2h22.43V519.81z M663.82,518.81h20.43V488.2h-20.43V518.81z"/>
		<path class="st0" d="M644.3,597.14h-22.43v-32.62h22.43V597.14z M622.87,596.14h20.43v-30.62h-20.43V596.14z"/>
		<path class="st0" d="M644.3,674.47h-22.43v-32.62h22.43V674.47z M622.87,673.47h20.43v-30.62h-20.43V673.47z"/>
		<path class="st0" d="M605.71,597.14h-22.43v-32.62h22.43V597.14z M584.28,596.14h20.43v-30.62h-20.43V596.14z"/>
		<path class="st0" d="M605.71,674.47h-22.43v-32.62h22.43V674.47z M584.28,673.47h20.43v-30.62h-20.43V673.47z"/>
		<path class="st0" d="M566.34,597.14h-22.43v-32.62h22.43V597.14z M544.91,596.14h20.43v-30.62h-20.43V596.14z"/>
		<path class="st0" d="M566.34,674.47h-22.43v-32.62h22.43V674.47z M544.91,673.47h20.43v-30.62h-20.43V673.47z"/>
		<path class="st0" d="M531.38,772.49H399.17V616.21h132.21V772.49z M400.17,771.49h130.21V617.21H400.17V771.49z"/>
		<path class="st0" d="M493.09,657.72h-93.92v-16.81h93.92V657.72z M400.17,656.72h91.92v-14.81h-91.92V656.72z"/>
		<path class="st0" d="M493.09,699.33h-93.92v-16.81h93.92V699.33z M400.17,698.33h91.92v-14.81h-91.92V698.33z"/>
		<path class="st0" d="M493.09,740.94h-93.92v-16.81h93.92V740.94z M400.17,739.94h91.92v-14.81h-91.92V739.94z"/>
		<path class="st0" d="M1218.92,654.79V447.26h165.2v163.6l-33.56-15.03L1218.92,654.79z M1219.92,448.26v204.99l130.64-58.52
			l0.2,0.09l32.36,14.49V448.26H1219.92z"/>
		<rect x="1311.76" y="475.99" class="st0" width="71.86" height="1"/>
		<rect x="1311.76" y="499.23" class="st0" width="71.86" height="1"/>
		<rect x="1311.76" y="522.47" class="st0" width="71.86" height="1"/>
		<rect x="1311.76" y="545.71" class="st0" width="71.86" height="1"/>
		<rect x="1311.76" y="568.95" class="st0" width="71.86" height="1"/>
		<rect x="1218.68" y="475.99" class="st0" width="47.67" height="1"/>
		<rect x="1218.68" y="499.23" class="st0" width="47.67" height="1"/>
		<rect x="1218.68" y="522.47" class="st0" width="47.67" height="1"/>
		<rect x="1218.68" y="545.71" class="st0" width="47.67" height="1"/>
		<rect x="1218.68" y="568.95" class="st0" width="47.67" height="1"/>
	</g>
	<rect x="553.84" y="840.12" class="st0" width="772.27" height="1"/>
	<rect x="541.48" y="865.87" class="st0" width="772.27" height="1"/>
</g>
<g id="mechanic">
	<g>
		<path class="st1" d="M943.38,354.49c-10.44-8.15-18.04-17.92-22.55-24.64c-2.66-3.97-4.8-8.26-6.48-12.73
			c-4.68-12.52-16.49-45-46.67-32.53c-31.66,13.08-14.26,49.24-6.36,69.65c4.38,11.33,13.51,13.52,25.98,8.9
			c4.13-1.53,8.7,0.81,9.73,5.09c3.27,13.66,1.22,27.58,0.73,43.97C917.96,404.88,938.01,386.91,943.38,354.49z"/>
	</g>
	<g>
		<path d="M908.23,820.32h-4.88c-1.25,0-1.85-1.53-0.93-2.38c8.04-7.39,12.94-18.13,12.51-30c-0.74-20.11-17.1-36.51-37.21-37.29
			c-22.12-0.86-40.32,16.82-40.32,38.75c0,11.29,4.83,21.45,12.53,28.54c0.92,0.85,0.33,2.38-0.92,2.38h-4.88
			c-2.05,0-3.89,1.49-4.09,3.53c-0.24,2.34,1.61,4.33,3.91,4.33h64.47c2.29,0,4.14-1.99,3.91-4.33
			C912.12,821.81,910.28,820.32,908.23,820.32z"/>
	</g>
	<g>
		<g>
			<circle class="st2" cx="876.57" cy="789.4" r="19.99"/>
		</g>
	</g>
	<g>
		<path d="M1191.23,820.32h-4.88c-1.25,0-1.85-1.53-0.93-2.38c8.04-7.39,12.94-18.13,12.51-30c-0.74-20.11-17.1-36.51-37.21-37.29
			c-22.12-0.86-40.32,16.82-40.32,38.75c0,11.29,4.83,21.45,12.53,28.54c0.92,0.85,0.33,2.38-0.92,2.38h-4.88
			c-2.05,0-3.89,1.49-4.09,3.53c-0.24,2.34,1.61,4.33,3.91,4.33h64.47c2.29,0,4.14-1.99,3.91-4.33
			C1195.12,821.81,1193.28,820.32,1191.23,820.32z"/>
	</g>
	<g>
		<path class="st3" d="M1010.21,397.12c-14.22-19.56-34.71-25.42-52.09-33.5c-5.41-2.52-10.33-5.68-14.74-9.13
			c-5.37,32.42-25.43,50.39-45.62,57.7c-0.52,17.6,0.76,38.04,12.36,64.03l4.55,10.98l50.35,50.04l71.09-7.6
			C1036.11,529.65,1026.4,419.39,1010.21,397.12z"/>
	</g>
	<g>
		<g>
			<circle class="st2" cx="1159.58" cy="789.4" r="19.99"/>
		</g>
	</g>
	<g>
		<path class="st2" d="M834.51,586.78l-173.92,139.4c-15.4,11.95-32.78,9.67-49.99-4.48c-2.87-2.36-11.17-9.78-11.17-9.78
			c-2.24-2.31-5.92-2.37-8.24-0.14l-1.62,1.57c-1.2,1.16-1.24,3.08-0.07,4.28l66.72,69.14c1.43,1.48,3.78,1.52,5.26,0.09
			c1.53-1.48,3.98-1.68,5.6-0.3c1.86,1.59,1.91,4.39,0.2,6.04l-0.14,0.13c-1.47,1.43-1.52,3.78-0.09,5.25l20.18,20.94
			c7.29,7.55,19.12,8.33,27.33,1.8l269.35-217.38l-16.02-16.57H834.51z"/>
	</g>
	<g>
		<path class="st3" d="M1225.69,763.94h-8.15v-26.67c0-5.41-4.43-9.85-9.85-9.85h-3.21c-10.98-13.43-26.42-22.04-45.02-22.04h-32.1
			c-2.57,0-5.05-0.98-6.92-2.74l-55.18-54.14c-11.46-10.76-26.59-16.76-42.31-16.76h-84.38c-25.13,0-44.3,7.2-60.33,26.55
			l-60.91,69.62v81.46c0,0,2.55,0,6.89,0c2.71,0,5.14-1.64,6.19-4.15c6.28-15.02,20.51-33.32,45.78-32.47
			c25.68,0.86,36.87,14.23,41.69,24.57c3.1,6.65,4.04,15.35,4.85,16.71c1.59,2.66,4.5,4.45,7.82,4.45h175.04
			c4.78,0,8.66-3.88,8.66-8.66v-6.28c0-10.98,3.67-21.73,10.77-30.1c6.72-7.92,17.37-14.96,34.01-14.96
			c33.6,0,42.94,30.68,44.82,36.79c2.98,9.64,6.79,14.3,12.21,14.3l5.34,0c5.42,0,9.84-4.38,9.85-9.79
			C1231.27,773.2,1225.69,763.94,1225.69,763.94z"/>
	</g>
	<path d="M1069.3,796.93h-98.52c-9.76,0-17.69-7.94-17.69-17.69V663.27c0-13.89,11.3-25.2,25.19-25.2h47.02
		c9.63,0,18.51,4.83,23.75,12.91l28.78,44.45c2.98,4.6,4.55,9.92,4.55,15.4h-2c0-5.09-1.46-10.04-4.23-14.31l-28.78-44.45
		c-4.87-7.52-13.11-12-22.07-12h-47.02c-12.79,0-23.19,10.41-23.19,23.2v115.97c0,8.65,7.04,15.69,15.69,15.69h98.52
		c6.11,0,11.07-4.97,11.07-11.07h2C1082.38,791.07,1076.51,796.93,1069.3,796.93z"/>
	<g>
		<path class="st0" d="M1049.71,705.49H983.3c-10,0-18.1-8-18.1-17.87v-22.81c0-8.64,7.1-15.65,15.85-15.65h40.83
			c7.02,0,13.55,3.57,17.28,9.44l19.56,30.8C1063.17,696.4,1058.07,705.49,1049.71,705.49z"/>
	</g>
	<g>
		<path class="st0" d="M885.61,705.49h40.29c10.06,0,18.21-8.05,18.21-17.98v-23.36c0-8.28-6.8-14.99-15.18-14.99h-7.63
			c-8.14,0-19.06,6.64-24.26,12.81c-4.67,5.54-17.85,22.83-17.85,22.83C871.95,692.8,874.75,705.49,885.61,705.49z"/>
	</g>
	<g>
		<path class="st4" d="M1211.8,776.72h-6.59c-1.42,0-2.57-1.16-2.57-2.57l0,0c0-1.42,1.16-2.57,2.57-2.57h6.59
			c1.42,0,2.57,1.16,2.57,2.57l0,0C1214.38,775.57,1213.22,776.72,1211.8,776.72z"/>
		<path d="M1211.8,777.72h-6.59c-1.97,0-3.57-1.6-3.57-3.57s1.6-3.57,3.57-3.57h6.59c1.97,0,3.57,1.6,3.57,3.57
			S1213.77,777.72,1211.8,777.72z M1205.21,772.58c-0.87,0-1.57,0.71-1.57,1.57c0,0.87,0.71,1.57,1.57,1.57h6.59
			c0.87,0,1.57-0.71,1.57-1.57c0-0.87-0.71-1.57-1.57-1.57H1205.21z"/>
	</g>
	<g>
		<path class="st4" d="M1220.28,767.19L1220.28,767.19c-5.03,0-9.15-4.12-9.15-9.15v-22.21c0-2.06,1.68-3.74,3.74-3.74l0,0
			c8.01,0,14.56,6.55,14.56,14.56v11.38C1229.43,763.07,1225.32,767.19,1220.28,767.19z"/>
		<path d="M1220.28,768.19c-5.6,0-10.15-4.55-10.15-10.15v-22.21c0-2.61,2.12-4.74,4.74-4.74c8.58,0,15.56,6.98,15.56,15.56v11.38
			C1230.43,763.63,1225.88,768.19,1220.28,768.19z M1214.87,733.09c-1.51,0-2.74,1.23-2.74,2.74v22.21c0,4.5,3.66,8.15,8.15,8.15
			c4.49,0,8.15-3.66,8.15-8.15v-11.38C1228.43,739.18,1222.35,733.09,1214.87,733.09z"/>
	</g>
	<rect x="860.67" y="714.58" width="289.77" height="2"/>
	<rect x="851.37" y="727.05" width="338.46" height="2"/>
	<path d="M941.43,774.5h-2c0-18.19-14.8-32.98-32.98-32.98h-65.73v-2h65.73C925.74,739.52,941.43,755.21,941.43,774.5z"/>
	<g>
		<path class="st0" d="M1088.42,662.16c-6.42-6.15-14.46-13.76-27.2-13h0c-1.33,0-2.09,1.53-1.27,2.59l33.7,43.74
			c3.31,4.3,8.42,6.81,13.85,6.81h12.2C1122.59,702.3,1098.22,671.55,1088.42,662.16z"/>
	</g>
	<g>
		<g>
			<g>
				<path class="st0" d="M1330.85,524.48c33.75-28.6,14.01-112.1-55.9-119.02c1.94-17.63-21.69-47.23-56.65-56.41
					c-49.16-12.91-145.54,7.85-145.52,93.5c0.01,46.21,50,80.08,106.49,63.78c8.43,40.25,32.1,57.17,66.21,56.38
					c-11.24,10.62-10.11,34.72-0.95,44.94c0.84,0.94,0.3,2.43-0.95,2.58c-30.88,3.78-37.35,35.52-37.28,52.64
					c0,0.97-1.21,1.37-1.82,0.61c-4.27-5.24-12.42-5.94-20.07,0.1c-11.01,8.67-12.77,23.71-6.61,29.95
					c11.1,11.24,36.15,2.99,38.72-11.64c0.12-0.68,0.74-1.1,1.26-0.63c10.78,9.87,48.51,29.36,82.49,5.53
					c20.73-14.54,21.84-43.48,16.29-58.72c-0.6-1.65,0.5-3.33,2.22-3.65C1387.33,611.64,1368.29,520.94,1330.85,524.48z
					 M1218.17,593.16c-1.62-6.01-13.26-5.27-12.2,3.62C1207.02,605.66,1219.68,598.73,1218.17,593.16z M1191.56,586.87
					c8.51-4.45,12.13-11.73,10.09-16.92c-1.54-3.91-8.65-4.71-17.8-2.46c-5.69,1.4-8.68,7.66-8.84,11.9
					c-0.14,3.71,1.72,7.31,5.05,8.96C1183.92,590.27,1187.76,588.85,1191.56,586.87z M1116.06,528.26
					c-14.31,1.16-22.33,6.72-25.39,12.96c-9.8,20.02,14.33,50.33,52.47,44.19C1181.67,579.21,1170.73,523.82,1116.06,528.26z
					 M1325.96,384.53c11.37-5.14,21.72-28.72-1.07-37.42c-12.01-4.59-21.17-2.29-28.26,0.56c-8.38,3.37-13.66,8.27-14.57,14.34
					C1278.62,385.05,1314.87,389.54,1325.96,384.53z M1274.4,337.3c5.59-3.18,6.63-8.06,5.47-12.31c-1.16-4.25-4.5-7.87-13.59-8.53
					c-11.24-0.82-19.44,6.1-19.74,11.84C1245.98,339.48,1263.22,343.66,1274.4,337.3z"/>
			</g>
		</g>
	</g>
	<rect x="1182.86" y="636.43" transform="matrix(0.982 -0.1886 0.1886 0.982 -106.1667 235.4496)" width="2" height="78.09"/>
	<g>
		<path class="st5" d="M779.88,564.95c-23.64,0-40.1,22.63-41.92,46.21l-18.74,171.91c-2.11,19.38-15.83,30.29-37.97,32.83
			c-3.69,0.42-14.8,1.23-14.8,1.23c-3.22,0-5.82,2.61-5.82,5.82v2.26c0,1.67,1.35,3.03,3.02,3.03l96.09,0.09
			c2.05,0,3.72-1.66,3.72-3.72l0,0c0-2.13,1.56-4.03,3.68-4.24c2.43-0.23,4.48,1.68,4.48,4.06v0.19c0,2.05,1.66,3.71,3.71,3.72
			l29.08,0.05c10.49,0.01,19.28-7.96,20.29-18.4l14.76-151.81c1.47-15.18,14.22-26.76,29.47-26.76h141.04
			c22.93,0,41.53-19.49,41.53-42.43v-24.05H779.88z"/>
	</g>
	<g>
		<path class="st2" d="M790.47,564.95l-45.59-90.05c-2.78-5.49-8.42-8.96-14.57-8.96h-20.29c-3.6,0-5.9,3.83-4.22,7l48.72,92
			c0,0,4.53,14.93,12.77,14.93h10.35h20.38h76.17c4.57,0,8.28-3.71,8.28-8.28v-6.65H790.47z"/>
	</g>
	<g>
		<path class="st0" d="M783.39,579.88h-20.38c-9.36,0-17.96-5.17-22.34-13.45l-49.51-93.48c-1.68-3.18,0.62-7,4.22-7h20.29
			c6.16,0,11.79,3.46,14.57,8.96L783.39,579.88z"/>
	</g>
	<path d="M1083.23,809.09c4.42,0,8.13,3.11,9.05,7.26H944.51c0.92-4.15,4.62-7.26,9.05-7.26H1083.23 M1083.23,807.09H953.56
		c-6.22,0-11.26,5.04-11.26,11.26h152.2C1094.49,812.13,1089.45,807.09,1083.23,807.09L1083.23,807.09z"/>
	<g>
		<path class="st1" d="M781.7,476.61l5.4-0.02c7.72-0.03,15.13-3.09,20.63-8.5l9.1-8.95c0.36-0.35,0.96-0.05,0.89,0.45l-5.37,38.87
			c0,0-32.13,8.32-35.06-16.81C776.99,478.98,779.02,476.63,781.7,476.61z"/>
	</g>
	<g>
		<path class="st1" d="M1053.82,512.24l-33.36-112.01c-6.98-22.01-30.48-34.2-52.5-27.22l0,0c-27.27,8.65-40.15,37.76-31.5,65.03
			l17.98,55.58l-98.73-40.96c-17.22-7.36-39.33-2.76-42.79,15.65c-2.45,13.04-23.75,96.47-9.86,96.54h14.59
			c9.67-1.66,10.35-9.07,12.61-22.76c3.96,0.66,12.42,2.4,19.35-0.81c2.6,3,12.94,3.82,20.17,0.81c5.51,1.77,12.69,1.32,16.63-0.93
			c35.21,19.51,70.04,37.84,89.8,47.24c16.82,8.01,32.67,7.76,48.82,3.9C1060.38,581.72,1062.84,540.68,1053.82,512.24z"/>
	</g>
	<g>
		<path class="st3" d="M1042.52,474.32l-22.06-74.09c-6.98-22.01-30.48-34.2-52.5-27.22c-27.27,8.65-40.15,37.76-31.5,65.03
			l17.43,53.86C961.05,489.58,1011.65,473.58,1042.52,474.32z"/>
	</g>
	<g>
		<path class="st0" d="M1234.82,799.77h-18.3c-0.77,0-1.45-0.48-1.72-1.19l-4.74-12.65c-0.45-1.2,0.44-2.48,1.72-2.48h23.04
			c3.71,0,6.71,3,6.71,6.71v2.9C1241.53,796.77,1238.53,799.77,1234.82,799.77z"/>
	</g>
	<path d="M998.47,512.76c-0.24-0.09-24.59-9.57-44.43-18.22l0.8-1.83c19.8,8.64,44.11,18.1,44.35,18.19L998.47,512.76z"/>
	<rect x="818.07" y="520.79" transform="matrix(0.1377 -0.9905 0.9905 0.1377 202.609 1276.2897)" width="32.41" height="2"/>
	<path d="M852.83,539.63l-1.78-0.91c1.24-2.43,2-5.04,2.27-7.75l2-19.83l1.99,0.2l-2,19.83
		C855.01,534.13,854.17,536.98,852.83,539.63z"/>
	<path d="M873.19,540.44l-1.8-0.87c1.12-2.32,1.82-4.8,2.08-7.37l1.82-18.12l1.99,0.2l-1.82,18.12
		C875.18,535.2,874.41,537.9,873.19,540.44z"/>
	<path d="M889.61,540.13l-1.75-0.97c1.45-2.62,2.34-5.46,2.64-8.44l1.38-13.73l1.99,0.2l-1.38,13.73
		C892.17,534.17,891.2,537.27,889.61,540.13z"/>
	
		<rect x="690.64" y="721.14" transform="matrix(0.7308 -0.6826 0.6826 0.7308 -328.1703 674.9349)" class="st4" width="2" height="64.81"/>
	<rect x="734.54" y="779.47" width="93.43" height="2"/>
	<path d="M866.55,343.03c-0.67,0-1.35-0.15-1.97-0.44c-1.2-0.57-2.1-1.63-2.46-2.92c-0.59-2-5.57-19.7,1.27-22.15l0.67,1.88
		c-3.83,1.37-2.04,12.82-0.02,19.71c0.21,0.74,0.71,1.34,1.4,1.66c0.68,0.32,1.47,0.33,2.16,0.03l4.47-1.9l0.78,1.84l-4.46,1.89
		C867.8,342.9,867.18,343.03,866.55,343.03z"/>
	<path d="M869.94,320.76l-0.78-1.84c3.96-1.67,6.85-2.69,10.85-1.79l-0.44,1.95C876.26,318.33,873.99,319.06,869.94,320.76z"/>
	<path d="M854.53,328.72l-1.47-1.36c1.76-1.91,5.53-3.89,8.02-4.63l0.57,1.92C859.41,325.32,856.01,327.12,854.53,328.72z"/>
	<path d="M904.57,324.58l-0.92-1.78c2.07-1.08,3.36-3.19,3.36-5.52c0-3.43-2.79-6.22-6.22-6.22c-2.55,0-4.81,1.53-5.77,3.89
		l-1.85-0.75c1.26-3.12,4.26-5.14,7.62-5.14c4.53,0,8.22,3.69,8.22,8.22C909,320.36,907.3,323.16,904.57,324.58z"/>
	<g>
		<path class="st3" d="M907.36,301.2c-0.48-0.94-1.13-1.91-1.14-1.97c-7.19-11.98-19.02-22.71-38.54-14.65
			c-10.93,4.51-16.01,11.78-17.65,20.19c-0.59,3.02,3.43,4.66,5.18,2.13l0.04-0.06c3.12-4.5,23.27-10.53,31.96-9.73
			C895.26,297.86,904.35,300.48,907.36,301.2z"/>
	</g>
	<g>
		<path class="st2" d="M850.68,323.07c-1.09-14.46,25.48-25.3,54.3-22.47c-11.68-2.93-34.41-10.28-45.5-13.89
			c-4.14-1.35-8.61-1.19-12.64,0.43h0c-15.84,6.35-15.43,28.93,0.64,34.7C848.07,322.05,850.22,322.9,850.68,323.07z"/>
	</g>
	<path d="M863.48,353.34c-2.93,0-5.95-1.46-7.04-5l1.91-0.59c0.97,3.17,3.96,3.87,6.23,3.5c2.5-0.41,5.16-2.24,5.09-5.29
		c-0.01-0.5,0.27-0.95,0.73-1.15c0.44-0.2,0.95-0.1,1.29,0.23c2.54,2.47,7.18,1.79,10.21-0.28c1.08-0.74,4.47-3.47,2.77-7.46
		l1.84-0.79c1.53,3.58,0.19,7.37-3.48,9.89c-3.22,2.21-8.06,3.15-11.49,1.04c-0.66,3.32-3.73,5.3-6.63,5.78
		C864.44,353.3,863.97,353.34,863.48,353.34z"/>
	<rect x="857.63" y="818.34" class="st4" width="38.17" height="2"/>
	<rect x="1140.06" y="818.34" class="st4" width="38.17" height="2"/>
	<g>
		<path class="st3" d="M1190.12,619.24L1190.12,619.24c-5,1.17-12.64,7.84-17.79,14.44c-13.22,16.94-51.9,68.5-51.9,68.5
			c-0.71,0.93-0.66,2.23,0.11,3.11l1.2,1.56c0.58,0.76,1.48,1.2,2.44,1.2h7.59l58.15-83.41l1.96-2.79
			C1192.76,620.58,1191.62,618.9,1190.12,619.24z"/>
	</g>
	<path d="M947.93,481.75l-14.23-44.3c-7.57-23.87,2.19-50.08,23.21-62.31l1.01,1.73c-20.22,11.77-29.6,36.99-22.31,59.98l14.23,44.3
		L947.93,481.75z"/>
	<path d="M809.96,562.36h-8.78v-2h8.78c4.46,0,8.08-3.62,8.08-8.08s-3.62-8.08-8.08-8.08h-9.22v-2h9.22
		c5.56,0,10.08,4.52,10.08,10.08C820.04,557.83,815.51,562.36,809.96,562.36z"/>
	<rect x="793.57" y="483.64" transform="matrix(0.1865 -0.9824 0.9824 0.1865 181.7228 1188.7458)" width="30.29" height="2"/>
</g>
</svg>
