<svg width="1840" height="1380" viewBox="0 0 1840 1380" fill="none" xmlns="http://www.w3.org/2000/svg"><path fill-rule="evenodd" clip-rule="evenodd" d="M894.508 711.889c-24.09 2.779-42.576 2.446-55.457-.999-12.882-3.445-23.04-10.773-30.477-21.984-8.106-17.145-12.602-26.971-13.489-29.477-4.347-12.282-4.829-24.353-3.997-32.475 1.086-10.608 6.915-24.431 17.486-41.469 1.506-11.845 4.004-22.337 7.495-31.475 3.49-9.139 10.485-22.295 20.983-39.47l1.499-56.457c4.43-12.923 8.593-22.083 12.491-27.479 3.897-5.396 8.394-8.228 13.489-8.494 4.3-.408 8.297.591 11.991 2.998 3.694 2.407 10.689 8.569 20.984 18.486 8.502-14.837 18.161-26.162 28.978-33.974 10.816-7.812 25.138-13.807 42.966-17.986l2.499-4.996.301-29.388-8.295-71.535h-10.992l16.987-24.981c1.516-5.505 3.015-9.501 4.497-11.991 1.481-2.489 4.249-5.321 8.303-8.493.074-.92 3.407-1.42 10-1.5 6.593-.08 16.98.253 31.16 1 6.05 1.39 10.22 3.222 12.49 5.496 2.27 2.273 4.27 7.103 5.99 14.489l24.36 26.015-15.36.964-1.5 47.464c-2.14 8.14-4.14 13.635-6 16.487-1.86 2.852-4.85 5.017-8.99 6.495l-24.48 1.499-3 28.978 2 3.997c12.5 3.574 21 6.405 25.48 8.493 10.77 5.015 20.51 12.277 27.98 24.981 5.23 8.894 10.64 21.18 17.98 33.974 6.47 11.265 18.29 31.083 35.48 59.455l16.98 14.988 8.5 16.987L1162.3 566l9.49-30.976c-19.31-29.311-28.97-47.963-28.97-55.957 0-3.341 2.02-6.491 3.99-8.494 2.76-2.789 6.54-4.503 12.99-3.997 4.3.338 8.47 3.002 12.49 7.994l57.46 154.382c-5.72 18.741-10.71 32.73-14.99 41.968-4.27 9.238-10.6 18.397-18.98 27.479-12.08 6.776-22.24 10.773-30.48 11.991-8.24 1.218-21.73.053-40.47-3.497-6.56-3.004-10.89-5.836-12.99-8.494-7.77-9.856-11.03-22.357-14.99-28.978-5.56-9.299-8.89-17.959-9.99-25.98l-25.98-84.435-112.413-3.498-10.492 85.435c-5.735 23.22-11.897 40.207-18.486 50.961-6.589 10.755-14.916 17.416-24.981 19.985z" fill="#fff"/><path fill-rule="evenodd" clip-rule="evenodd" d="M902.25 730.294c-2.035-.367-3.535-.549-4.5-.544-3.705.015-6.729-.176-8.5-3-2.463-3.929-1.797-8.596 2-14l10.5-3.5h5l36.5 1.5 11.5-1.5 40.5-1.5c4.333 2 5.83 5.833 4.5 11.5-1.333 5.666-5 9.166-11 10.5l-12 .544-81 371.406h-52c8.902-58.34 16.068-102.226 21.5-131.641 5.432-29.416 17.765-109.337 37-239.765zm127 0c-.08-1.18-3.25-1.362-9.5-.544-5.33-2.667-7.5-6.834-6.5-12.5 1-5.667 3.5-8.667 7.5-9l7.5 1h23l23 1.5 25.5-2.5c8 .666 12 4.333 12 11 0 3.789-1.28 5.756-3 7.5-.87.882-2.54 1.882-5 3l-8 .544 20.5 371.906h-54c-7.27-66.88-11.94-113.761-14-140.651-2.45-32.026-16.32-191.213-19-231.255z" fill="#fff"/><path clip-rule="evenodd" d="M902.25 729.793h74.5l-81 371.407h-52c8.902-58.34 16.068-102.226 21.5-131.642 5.432-29.415 17.765-109.337 37-239.765zm127 0h66.5l20.5 371.907h-54c-7.27-66.88-11.94-113.761-14-140.651-2.45-32.026-16.32-191.213-19-231.256z" stroke="#263E4B" stroke-width="1.5"/><path fill-rule="evenodd" clip-rule="evenodd" d="m948.75 398.427-56.373.265c-28.125.132-51.249 22.21-52.682 50.298l-.945 18.514c.881-9.52 2.047-16.194 3.5-20.023 2.306-6.076 4.969-9.572 8-13.514 4.582-5.962 9.772-10.992 14-12.014 9.667-2.336 20.5 5.173 32.5 22.525 2.01-3.887 3.677-6.89 5-9.01 2.642-4.231 5.455-8.8 10.5-13.515 10-9.343 22.167-17.185 36.5-23.526zm-46 309.843c5.143 1.876 14.81 2.71 29 2.502 7.727-.113 21.636-2.419 33.5-3.003 6.616-.325 16.616-.325 30 0l11.5-30.534h11l3.5 30.534c11.7.732 20.03 1.232 25 1.502 10.68.579 19.56 1.001 26.5 1.001 11.78 0 20.44-.835 26-2.503l-25.5-142.658-118.5 4.505c-1.549 21.724-7.215 45.583-17 71.579-2.085 5.541-2.419 12.544-4.5 19.522-3.172 10.633-6.665 20.918-10.5 28.031-3.638 6.748-10.305 13.255-20 19.522z" fill="#BAD9EA"/><path d="m1097.96 708.102-11.45-66.78a.756.756 0 0 1 .61-.867c.41-.07.8.205.87.613l11.39 66.451h1.62c6.35 0 11.5 5.154 11.5 11.512 0 6.359-5.15 11.513-11.5 11.513h-78.9c-5.63 0-10.19-4.569-10.19-10.206 0-.472.03-.943.1-1.41l.6-4.299a8.852 8.852 0 0 1 7.32-7.517l-2.86-29.126h-9.8l-10.992 29.183a6.483 6.483 0 0 1 4.872 7.642l-.92 4.374a14.266 14.266 0 0 1-13.963 11.359h-91.469c-4.215 0-7.632-3.421-7.632-7.64 0-.799.125-1.592.371-2.352.667-2.064 1.499-4.73 2.496-7.997a.75.75 0 1 1 1.434.439 527.624 527.624 0 0 1-2.503 8.02 6.135 6.135 0 0 0 5.834 8.028h91.469a12.773 12.773 0 0 0 12.499-10.165l.915-4.373a4.978 4.978 0 0 0-4.468-5.985c-6.204-.122-10.594-.184-13.165-.187-6.961-.008-26.591 1.132-30.698 1.683-9.323 1.249-14.26 1.429-22.324 1.157l-.525-.018c-2.881-.098-4.259-.132-6.097-.132-6.67 0-11.652-.167-14.959-.504-3.88-.395-5.637-.948-5.438-2.354l1.486.211a.377.377 0 0 0-.035-.227c.105.081.321.181.639.281.736.232 1.909.433 3.5.595 3.245.331 8.184.497 14.807.497 1.86 0 3.251.034 6.148.132l.524.018c7.986.269 12.842.092 22.075-1.145 4.178-.56 23.874-1.703 30.899-1.695 2.512.002 6.74.062 12.685.177l11.315-30.038a.75.75 0 0 1 .7-.486h17.5c.41 0 .75.336.75.751s-.34.751-.75.751h-5.67l2.87 29.209c3.31.546 9.93.824 19.8.824 3.71 0 21.85 1.014 27.07 1.505 5.95.559 15.84.087 29.64-1.422zm.82.918.05.496c-14.27 1.581-24.48 2.084-30.65 1.503-5.17-.487-23.27-1.498-26.93-1.498-10.56 0-17.42-.314-20.65-.953l.01-.033a7.36 7.36 0 0 0-6.52 6.302l-.6 4.298c-.05.399-.08.801-.08 1.203 0 4.807 3.89 8.704 8.69 8.704h78.9c5.52 0 10-4.482 10-10.011 0-5.529-4.48-10.011-10-10.011h-2.22z" fill="#263E4B"/><path d="m1011.46 358.633-2.91 30.764c23.7 8.065 38.86 15.068 45.52 21.07 8.65 7.784 30.81 52.771 42.16 82.295 3.43 8.916 8.75 14.564 21.65 25.017l1.08.879c12.96 10.498 18.25 16.166 21.5 25.175 5 13.909 15.02 17.251 30.47 10.085a.752.752 0 0 1 1 .366c.17.376.01.823-.37.997-16.21 7.517-27.19 3.851-32.52-10.939-3.11-8.664-8.27-14.188-21.02-24.517l-1.09-.879c-13.1-10.614-18.54-16.401-22.1-25.645-11.25-29.265-33.37-74.161-41.76-81.717-6.52-5.869-21.73-12.875-45.56-20.955a.757.757 0 0 1-.51-.782l2.96-31.214h-8.71a.753.753 0 0 1-.75-.751c0-.414.34-.751.75-.751h26.19c10.32 0 16.31-4.2 19.44-12.69 2.51-6.822 3.12-14.707 3.12-31.563v-12.06c.01-5.581-.25-8.797-1.45-13.7-.02-.029-.06-.065-.1-.107-.12-.117-.28-.27-.49-.458h-71.503a.75.75 0 0 1 0-1.501h71.793c.18 0 .36.067.5.188.88.785 1.15 1.049 1.23 1.384 1.26 5.121 1.53 8.453 1.52 14.196v12.058c0 17.046-.62 25.03-3.22 32.083-3.34 9.078-9.89 13.672-20.84 13.672h-15.98zm219.07 269.336 1.44.424c-12.56 42.714-25.91 67.614-40.19 74.741-22.49 11.221-49.98 12.084-72.36 1.095-2.96-1.452-5.28-3.481-7.64-6.598-1.68-2.222-3.33-4.896-5.98-9.538-.69-1.214-3.33-5.89-3.72-6.575a655.773 655.773 0 0 0-4.61-8.006c-2.09-3.552-5.06-11.394-8.93-23.58l1.42-.455c3.84 12.077 6.79 19.852 8.8 23.273 1.53 2.601 2.97 5.097 4.63 8.027.39.688 3.02 5.361 3.71 6.572 2.62 4.588 4.25 7.22 5.88 9.376 2.22 2.94 4.37 4.814 7.1 6.156 21.95 10.775 48.95 9.928 71.03-1.091 13.78-6.875 26.97-31.496 39.42-73.821z" fill="#263E4B"/><path fill-rule="evenodd" clip-rule="evenodd" d="m1024.75 396.425 9 3.504c6.33 19.355 11.17 35.873 14.5 49.555 3.33 13.681 5.5 34.037 6.5 61.067l-12.5-3.504c1-21.69-.83-40.878-5.5-57.563-2.03-7.268-6.03-24.954-12-53.059zm-76.5 2.002 8.5-3.504c2 14.794 3 26.474 3 35.039v26.029l-13 18.52c2-6.006 3-19.521 3-40.545 0-21.023-.5-32.869-1.5-35.539z" fill="#BAD9EA"/><path d="m1024.52 396.581-.29-1.359 10.62 4.136.11.337c6.34 19.372 11.18 35.908 14.52 49.611 3.35 13.741 5.52 34.141 6.52 61.218l.04 1.028-14.07-3.943.03-.596c1-21.615-.83-40.724-5.47-57.327-2.04-7.288-6.04-24.982-12.01-53.105zm13.45 52.7c4.65 16.614 6.5 35.682 5.56 57.204l10.93 3.066c-1.01-26.472-3.16-46.44-6.44-59.889-3.31-13.582-8.1-29.97-14.37-49.162l-7.38-2.871c5.81 27.299 9.71 44.524 11.7 51.652zm-89.922-50.59-.255-.681 10.07-4.151.13.964c2.005 14.824 3.007 26.535 3.007 35.139v26.266l-16.081 22.911 1.62-4.865c1.965-5.902 2.961-19.368 2.961-40.307 0-20.858-.501-32.738-1.452-35.276zM951 433.967c0 17.357-.678 29.613-2.051 36.819l10.551-15.032v-25.792c0-8.339-.954-19.666-2.864-33.973l-6.976 2.875c.907 3.759 1.34 15.362 1.34 35.103z" fill="#263E4B"/><path d="m1010.53 398.64 1.44-.426 68.02 229.826c3.88 20.313 17.89 30.424 42.26 30.424 24.38 0 44.42-16.29 60.15-49.014l1.35.651c-15.95 33.196-36.46 49.865-61.5 49.865-25.05 0-39.71-10.578-43.72-31.572l-68-229.754zm36.98 185.878 1.48.229c-7.72 50.055-22.22 75.219-43.74 75.219-17.407 0-28.989-54.215-33.749-157.89-.898-19.548-1.398-52.927-1.501-100.143l1.5-.004c.103 47.196.603 80.557 1.499 100.078 4.699 102.325 16.263 156.457 32.251 156.457 20.48 0 34.64-24.557 42.26-73.946z" fill="#263E4B"/><path fill-rule="evenodd" clip-rule="evenodd" d="m1122.23 559.896 52.39-5.506 3.1 29.483-52.39 5.507-3.1-29.484zm-48.59-52.854-4.93-46.846c1.98-5.065 7.18-8.041 15.62-8.928 8.43-.886 14.14.943 17.13 5.487l4.92 46.845-32.74 3.442zm137.52-14.455-32.74 3.442-4.93-46.846c1.98-5.065 7.18-8.041 15.62-8.927 8.43-.887 14.14.942 17.13 5.486l4.92 46.845z" fill="#263E4B"/><path fill-rule="evenodd" clip-rule="evenodd" d="m1069.52 559.059-7.61-72.398c3.19-7.843 11.53-12.473 25.03-13.891 13.49-1.419 22.61 1.376 27.36 8.385l7.61 72.397-52.39 5.507zm157.17-16.52-52.39 5.507-7.61-72.398c3.19-7.842 11.53-12.473 25.03-13.891 13.49-1.419 22.61 1.376 27.36 8.385l7.61 72.397z" fill="#fff"/><path fill-rule="evenodd" clip-rule="evenodd" d="m1069.19 559.261-7.61-72.398c3.19-7.842 11.53-12.473 25.03-13.891 13.49-1.418 22.61 1.376 27.36 8.385l7.61 72.398-52.39 5.506zm157.17-16.519-52.39 5.506-7.61-72.398c3.19-7.842 11.53-12.473 25.03-13.891 13.49-1.418 22.61 1.377 27.36 8.385l7.61 72.398z" fill="#fff" stroke="#263E4B" stroke-width="1.5" stroke-linecap="round" stroke-linejoin="round"/><path fill-rule="evenodd" clip-rule="evenodd" d="m1067.91 639.3-8.81-83.754c4.56-9.164 16.11-14.721 34.67-16.671 18.55-1.95 31.01 1.083 37.37 9.099l8.8 83.755-72.03 7.571zm176.81-18.584-72.03 7.571-8.81-83.754c4.56-9.164 16.11-14.721 34.67-16.671 18.55-1.95 31.01 1.083 37.37 9.1l8.8 83.754z" fill="#fff"/><path d="M1067.75 640.072a.746.746 0 0 1-.82-.669l-8.8-83.754a.735.735 0 0 1 .07-.413c4.69-9.443 16.47-15.109 35.26-17.083 18.78-1.974 31.48 1.118 38.04 9.379.09.112.14.247.16.389l8.8 83.754a.756.756 0 0 1-.67.825l-72.04 7.572zm71.14-8.987-8.7-82.788c-6.21-7.646-18.38-10.563-36.58-8.651-18.19 1.913-29.49 7.296-33.97 16.066l8.7 82.788 70.55-7.415zm106.35-10.423a.756.756 0 0 1-.67.825l-72.04 7.572a.746.746 0 0 1-.82-.669l-8.8-83.754a.735.735 0 0 1 .07-.413c4.7-9.443 16.48-15.109 35.26-17.083 18.78-1.974 31.48 1.118 38.04 9.379.09.112.14.247.16.389l8.8 83.754zm-1.57-.59-8.7-82.788c-6.21-7.646-18.38-10.563-36.57-8.651-18.2 1.913-29.49 7.296-33.98 16.066l8.7 82.788 70.55-7.415z" fill="#263E4B"/><path fill-rule="evenodd" clip-rule="evenodd" d="M1104.98 647.824c-19.89 2.09-36.59-1.715-37.31-8.499-.71-6.785 14.84-13.98 34.73-16.071 19.89-2.09 36.6 1.715 37.31 8.499.72 6.785-14.83 13.98-34.73 16.071zm104.79-11.013c-19.9 2.091-36.6-1.715-37.31-8.499-.72-6.785 14.83-13.98 34.72-16.071 19.9-2.09 36.6 1.715 37.31 8.499.72 6.785-14.83 13.98-34.72 16.071z" fill="#263E4B"/><path d="M1049.97 573.215c6.29-.662 10.85-6.298 10.19-12.591-.66-6.292-6.3-10.857-12.59-10.196-6.29.661-10.85 6.297-10.19 12.59.66 6.292 6.3 10.858 12.59 10.197zm-.16-1.494c-5.47.575-10.36-3.392-10.94-8.86-.57-5.467 3.39-10.366 8.86-10.94 5.46-.574 10.36 3.392 10.94 8.86.57 5.467-3.39 10.366-8.86 10.94zm-239.921 13.883 10.105-3.679a.751.751 0 0 1 .512 1.412l-8.984 3.27 9.109 5.389a.751.751 0 0 1-.763 1.292l-10.171-6.017-.191.07a.737.737 0 0 1-.268.045c-18.363 24.481-22.611 48.633-12.794 72.545 9.569 23.312 13.87 31.632 21.12 38.813 8.358 8.279 19.868 12.581 39.768 14.786 37.529 4.158 59.448-8.293 69.21-36.043 6.1-17.339 9.589-29.481 10.464-36.386a.75.75 0 1 1 1.488.189c-.893 7.042-4.404 19.261-10.537 36.695-10.003 28.437-32.593 41.269-70.79 37.038-20.206-2.239-32.02-6.656-40.658-15.212-7.449-7.378-11.801-15.798-21.453-39.309-10.083-24.563-5.636-49.402 13.289-74.424 2.037-25.407 11.249-49.186 27.628-71.326 16.329-22.071 33.156-38.665 50.488-49.775 11.715-31.072 28.724-51.881 51.035-62.381 11.116-5.231 19.459-8.709 25.043-10.436 3.74-1.156 6.402-1.582 7.891-1.112l2.571-47.222a.754.754 0 0 1 .79-.711c.413.025.73.379.708.793l-2.675 49.124c-.053.972-1.499.933-1.499-.041 0-.919-2.314-.951-7.343.604-5.503 1.702-13.79 5.156-24.848 10.36-21.98 10.344-38.768 30.923-50.357 61.784a.748.748 0 0 1-.298.369c-17.239 11.004-34.008 27.515-50.301 49.538-16.087 21.745-25.18 45.06-27.289 69.958z" fill="#263E4B"/><path fill-rule="evenodd" clip-rule="evenodd" d="m971.25 386.915-7.025 17.788a2 2 0 0 0 2.395 2.662l30.003-8.324 19.857 7.072a1.994 1.994 0 0 0 2.55-1.213c.23-.622.13-1.314-.26-1.848l-11.02-15.136c-2.04 1.779-6.42 2.669-13.133 2.669-6.712 0-14.501-1.223-23.367-3.67z" fill="#fff"/><path d="m996.156 399.588-28.835 7.999a2.746 2.746 0 0 1-1.745-.092 2.755 2.755 0 0 1-1.547-3.573l7.024-17.784a.748.748 0 0 1 .896-.448c8.806 2.431 16.53 3.644 23.168 3.644 6.543 0 10.773-.861 12.643-2.485a.751.751 0 0 1 1.1.124l11.01 15.131c.53.735.67 1.688.37 2.544a2.753 2.753 0 0 1-3.52 1.671l-19.061-6.791.117 1.003c.188 1.629.469 4.153.845 7.575.75 6.842 1.879 17.271 3.379 31.287a.758.758 0 0 1-.67.826.759.759 0 0 1-.83-.666 11856.881 11856.881 0 0 0-3.371-31.283c-.374-3.419-.656-5.942-.843-7.567l-.13-1.115zm-.019-8.759c.165.643.322 1.36.472 2.143.246 1.275.438 2.502.664 4.121l.096.686.008.055 19.853 7.07c.65.232 1.36-.108 1.59-.759.14-.389.08-.822-.16-1.156l-10.57-14.514c-2.26 1.51-6.23 2.274-11.953 2.354zm-.237 7.271-.016-.111-.096-.687a76.846 76.846 0 0 0-.652-4.047 33.033 33.033 0 0 0-.549-2.422c-6.497-.061-13.958-1.234-22.387-3.517l-6.776 17.158a1.252 1.252 0 0 0 1.497 1.666l28.979-8.04z" fill="#263E4B"/><path fill-rule="evenodd" clip-rule="evenodd" d="M893.75 558.753c41.492-66.209 65.325-102.75 71.5-109.622 4.819-5.363 13.073-5.804 18.437-.985a13.057 13.057 0 0 1 3.476 14.354l-14.913 39.19" fill="#fff"/><path d="M894.211 559.504c41.445-66.133 65.293-102.697 71.422-109.518 4.545-5.058 12.324-5.47 17.376-.92a12.326 12.326 0 0 1 3.27 13.543l-14.904 39.166 1.402.534 14.903-39.166a13.828 13.828 0 0 0-3.667-15.193c-5.668-5.105-14.396-4.643-19.495 1.032-6.22 6.922-30.038 43.439-71.578 109.724l1.271.798z" fill="#263E4B"/><path fill-rule="evenodd" clip-rule="evenodd" d="M986.432 315.364a13.005 13.005 0 0 0-3.682-.529c-7.18 0-13 5.827-13 13.014 0 6.107 4.202 11.232 9.869 12.635l-.588 12.109a6 6 0 0 1-6.077 5.709l-15.43-.217a10.996 10.996 0 0 1-2.923-.438c-5.832-1.699-9.183-7.805-7.484-13.638l16.958-58.206h2.008l.008-.011 2.352.011h8.807l.002.042 20.917.101c-2.415 11.108-4.584 18.531-6.507 22.268a28.105 28.105 0 0 1-5.23 7.15zm71.068-29.561c1.96 8.342-1.08 12.514-9.14 12.514-8.07 0-20.16-4.172-36.28-12.514h45.42z" fill="#263E4B"/><path fill-rule="evenodd" clip-rule="evenodd" d="m872.437 576.226 67.892-60.494a52.993 52.993 0 0 1 35.941-13.425l77.31.995c10.56.136 19.19 8.464 19.7 19.012.49 9.984-7.21 18.471-17.2 18.956-.22.011-.45.018-.68.021l-65.449.716a7.25 7.25 0 0 0-7.171 7.329v.008a7.55 7.55 0 0 0 7.343 7.457l67.557 1.851c9.21.253 16.55 7.762 16.6 16.971.05 9.075-7.27 16.47-16.34 16.518h-64.489a7.172 7.172 0 0 0-7.171 7.172v.086a10.335 10.335 0 0 0 6.944 9.639l41.236 14.315c7.14 2.477 10.91 10.27 8.43 17.406-.11.317-.23.629-.36.937-3.3 7.644-11.9 11.491-19.8 8.855l-67.037-22.37-36.267 24.205c-18.6 12.414-43.741 7.399-56.154-11.201a40.368 40.368 0 0 1-3.079-5.496c-3.159-6.837-4.144-16.632-2.956-29.386a46 46 0 0 1 15.2-30.077z" fill="#fff"/><path d="m869.736 647.32 12.646-8.139c-4.339-4.148-7.843-9.244-10.803-15.169-4.289-8.588-2.879-25.011 4.15-49.373l-2.395 2.134a45.317 45.317 0 0 0-14.972 29.648c-1.17 12.61-.196 22.265 2.895 28.953a39.729 39.729 0 0 0 3.003 5.368 39.906 39.906 0 0 0 5.476 6.578zm1.135 1.055c13.179 11.781 33.114 13.669 48.499 3.401l3.499-2.335c-13.903 2.513-25.212.461-34.274-5.361a40.98 40.98 0 0 1-5.072-3.848l-12.652 8.143zm5.657-76.458.004-.013a.75.75 0 0 1 .601-.527l63.085-56.211a53.718 53.718 0 0 1 36.427-13.61l77.345.995c10.94.141 19.89 8.782 20.42 19.727.51 10.397-7.5 19.236-17.89 19.742-.23.012-.47.019-.71.021l-65.476.717a6.496 6.496 0 0 0-6.421 6.57v.007a6.796 6.796 0 0 0 6.606 6.715l67.581 1.852c9.6.263 17.26 8.103 17.31 17.717.05 9.49-7.59 17.223-17.07 17.273h-64.514a6.417 6.417 0 0 0-6.413 6.421v.077a9.578 9.578 0 0 0 6.433 8.936l41.254 14.322c7.52 2.609 11.5 10.824 8.89 18.348-.12.337-.25.67-.39.998-3.46 8.003-12.45 12.031-20.71 9.273l-66.703-22.257-35.985 24.016c-18.951 12.648-44.556 7.521-57.19-11.451a41.33 41.33 0 0 1-3.117-5.57c-3.219-6.969-4.219-16.873-3.026-29.723a46.818 46.818 0 0 1 15.468-30.631l4.191-3.734zm1.316.838c-7.507 25.285-9.119 42.185-4.923 50.586 4.146 8.301 9.368 14.903 16.484 19.475 9.264 5.952 20.992 7.822 35.687 4.653a.745.745 0 0 1 .571.108l30.302-20.224 67.395 22.49c7.52 2.511 15.72-1.157 18.86-8.445.13-.294.25-.592.35-.894 2.34-6.741-1.23-14.1-7.96-16.438l-41.255-14.321a11.081 11.081 0 0 1-7.442-10.337v-.095c0-4.375 3.543-7.922 7.913-7.922h64.424l.08-.001c8.65-.045 15.63-7.103 15.58-15.763-.04-8.803-7.06-15.983-15.85-16.224l-67.582-1.852c-4.451-.122-8.011-3.741-8.065-8.198v-.009c-.048-4.418 3.491-8.04 7.905-8.088l65.482-.716c.21-.003.43-.009.65-.02 9.56-.466 16.93-8.6 16.46-18.169-.49-10.152-8.79-18.168-18.94-18.298l-77.344-.996a52.216 52.216 0 0 0-35.41 13.231l-63.372 56.467z" fill="#263E4B"/><path fill-rule="evenodd" clip-rule="evenodd" d="m1210.83 520.779.01 2.035c.05 10.381 8.47 18.771 18.86 18.771h14.22c-11.75.904-19.42 4.742-23 11.513-5.63 10.664-1.55 23.875 9.12 29.508a21.808 21.808 0 0 0 10.19 2.527h6.19l-1.69.83c-11.89 5.839-16.81 20.216-10.97 32.113.35.718.74 1.417 1.16 2.096 5.69 7.918 16.72 9.728 24.63 4.043.53-.379 1.04-.788 1.52-1.224l11.04-9.945a23.986 23.986 0 0 0 7.6-21.808c-.09-.589-.19-1.122-.29-1.6-.57-2.918-2.57-7.256-6-13.014 2.34-4.672 3-10.345 2-17.019-1-6.674-3.83-12.514-8.5-17.519 2.28-5.827 2.61-12.334 1-19.522-.63-2.846-1.51-5.272-2.64-7.277a12.983 12.983 0 0 0-9.98-6.565l-27.91-2.931c-8.24-.865-15.62 5.113-16.48 13.352-.06.543-.08 1.09-.08 1.636z" fill="#fff"/><path d="m1246.63 583.882 26.59-8.378c2.14-4.47 2.75-9.894 1.79-16.288-.98-6.505-3.73-12.192-8.27-17.078v.198l-23.05-.452c-11.17.97-18.4 4.672-21.78 11.064-5.43 10.293-1.51 23.048 8.78 28.489a21.015 21.015 0 0 0 9.84 2.445h6.1zm.4 1.45-1.66.812c-11.5 5.647-16.26 19.563-10.62 31.083.35.701.72 1.385 1.11 2.006 5.45 7.59 16.01 9.32 23.59 3.865.5-.361.98-.749 1.44-1.163l11.03-9.935a23.263 23.263 0 0 0 7.37-21.174c-.09-.568-.19-1.082-.28-1.543-.53-2.728-2.4-6.829-5.6-12.265l-26.38 8.314zm-2.78-44.939 22.48.441c2.05-5.559 2.32-11.756.79-18.606-.62-2.776-1.48-5.131-2.56-7.067a12.255 12.255 0 0 0-9.41-6.193l-27.91-2.931c-7.83-.822-14.84 4.864-15.66 12.7-.05.517-.08 1.035-.08 1.555l.01 2.018c.05 9.968 8.13 18.024 18.09 18.024h14.25v.059zm-23.66 11.853c2.67-5.054 7.5-8.519 14.46-10.41H1230c-10.78 0-19.54-8.724-19.59-19.519l-.01-2.018c0-.574.03-1.148.09-1.718.91-8.661 8.66-14.945 17.31-14.037l27.91 2.931a13.76 13.76 0 0 1 10.56 6.951c1.16 2.072 2.06 4.563 2.71 7.474 1.6 7.148 1.31 13.66-.86 19.518 4.58 5.04 7.37 10.903 8.37 17.575 1 6.644.37 12.348-1.89 17.096 3.34 5.653 5.3 9.941 5.89 12.903.09.475.19 1.003.28 1.584a24.786 24.786 0 0 1-7.85 22.54l-11.02 9.935c-.5.451-1.03.874-1.57 1.267-8.26 5.939-19.76 4.055-25.72-4.25-.44-.706-.84-1.433-1.2-2.18-5.82-11.882-1.25-26.158 10.18-32.504h-3.06c-3.68 0-7.3-.899-10.55-2.619-11.01-5.83-15.22-19.493-9.39-30.519zm9.39-42.211c.41-.006.75.325.76.74 0 .415-.33.755-.74.761-5.53.079-7.98 3.386-7.51 10.312.48 6.958 2.94 10.08 7.45 9.765.42-.029.77.283.8.696a.748.748 0 0 1-.69.802c-5.49.383-8.53-3.469-9.05-11.16-.53-7.723 2.51-11.825 8.98-11.916zm7.17 42.816c.41-.035.77.272.81.685a.753.753 0 0 1-.69.811c-5.51.464-7.72 3.934-6.77 10.811.96 6.907 3.64 9.85 8.12 9.221.41-.058.79.228.84.639a.75.75 0 0 1-.64.848c-5.44.765-8.74-2.866-9.8-10.502-1.07-7.666 1.68-11.97 8.13-12.513zm10.51 43.785c.41-.085.8.176.89.582a.758.758 0 0 1-.58.888c-5.41 1.132-7.19 4.846-5.4 11.555 1.79 6.738 4.8 9.334 9.17 8.163.4-.107.81.131.92.532.11.4-.13.812-.53.919-5.31 1.423-9.03-1.779-11.01-9.228-2-7.479.21-12.087 6.54-13.411z" fill="#263E4B"/><path fill-rule="evenodd" clip-rule="evenodd" d="m597.971 730.988 24.279 253.559h12.5l-11.905-256.001c-.312-6.717-6.011-11.91-12.729-11.598-.206.01-.411.025-.616.045-7.045.687-12.204 6.949-11.529 13.995z" fill="#fff"/><path d="m597.224 730.588 24.344 254.236h13.968l-11.942-256.785c-.331-7.131-6.381-12.644-13.513-12.312-.218.01-.436.026-.654.047-7.457.727-12.917 7.355-12.203 14.814zm25.708 252.736-24.214-252.879c-.636-6.635 4.221-12.531 10.855-13.178.192-.019.385-.033.578-.042 6.304-.293 11.652 4.58 11.945 10.884l11.868 255.215h-11.032z" fill="#263E4B"/><path d="M616.123 991.866a.75.75 0 1 1-1.388-.567c9.895-24.194 15.655-41.1 17.276-50.675a.75.75 0 1 1 1.479.251c-1.645 9.716-7.432 26.699-17.367 50.991zm15.338-84.652a.75.75 0 1 1-1.422.476c-4.404-13.132-13.301-24.336-26.716-33.621a.752.752 0 0 1-.19-1.044.752.752 0 0 1 1.044-.19c13.67 9.462 22.773 20.925 27.284 34.379zm-10.76 53.18a.749.749 0 1 1-1.366-.619c1.338-2.952 2.234-5.357 2.687-7.204 6.225-25.382 2.366-43.93-8.655-57.113a.75.75 0 1 1 1.151-.962c11.335 13.559 15.296 32.599 8.96 58.432-.478 1.951-1.404 4.437-2.777 7.466zm-17.679-241.802a.75.75 0 0 1 1.488-.189c6.499 50.947 30.889 77.891 73.275 81.054a.75.75 0 0 1-.112 1.496c-43.148-3.22-68.067-30.748-74.651-82.361zm10.981-.772a.75.75 0 0 1 1.494-.141c4.26 44.862 24.54 68.25 60.976 70.931a.75.75 0 0 1-.11 1.496c-37.222-2.739-58.035-26.741-62.36-72.286z" fill="#263E4B"/><path fill-rule="evenodd" clip-rule="evenodd" d="M1013.25 319.84c-1.93 0-3.5-1.793-3.5-4.004 0-2.212 1.57-4.005 3.5-4.005s3.5 1.793 3.5 4.005c0 2.211-1.57 4.004-3.5 4.004zm31 0c-1.93 0-3.5-1.793-3.5-4.004 0-2.212 1.57-4.005 3.5-4.005s3.5 1.793 3.5 4.005c0 2.211-1.57 4.004-3.5 4.004zm-37.93-7.523a.742.742 0 0 1-1.05.087.746.746 0 0 1-.09-1.058c.12-.141.33-.376.63-.673.5-.492 1.05-.984 1.66-1.444 1.78-1.34 3.64-2.153 5.52-2.153 2.72 0 4.2.65 5.7 2.299.24.26.48.544.8.934.09.114.66.828.84 1.048.26.322.21.795-.11 1.057a.744.744 0 0 1-1.05-.108c-.18-.226-.76-.941-.85-1.051-.3-.369-.52-.634-.73-.869-1.22-1.335-2.3-1.808-4.6-1.808-1.49 0-3.07.689-4.61 1.851-.56.416-1.06.863-1.51 1.31a8.57 8.57 0 0 0-.55.578zm32.02-.021a.747.747 0 0 1-1.05.126.745.745 0 0 1-.13-1.055 15.235 15.235 0 0 1 2.14-2.121c1.66-1.35 3.4-2.17 5.17-2.17 2.55 0 3.96.66 5.36 2.319.22.261.44.545.73.935.09.114.62.828.79 1.048a.753.753 0 0 1-1.2.906c-.17-.225-.7-.941-.78-1.051-.28-.368-.49-.633-.69-.868-1.12-1.324-2.1-1.787-4.21-1.787-1.36 0-2.81.681-4.23 1.834-.51.415-.98.861-1.39 1.307-.25.265-.42.467-.51.577zm-5.26 13.801h5.9l-6.6-16.997a.753.753 0 0 1 .42-.972c.39-.15.82.041.97.428l7 18.02a.746.746 0 0 1-.69 1.023h-7a.747.747 0 0 1-.75-.751c0-.415.33-.751.75-.751zm-3.65 10.423a.755.755 0 0 1-1.02-.307.762.762 0 0 1 .31-1.017c2.72-1.457 5.33-1.457 7.75.022a.76.76 0 0 1 .25 1.032.758.758 0 0 1-1.04.248c-1.94-1.191-3.99-1.191-6.25.022z" fill="#263E4B"/><path fill-rule="evenodd" clip-rule="evenodd" d="m477.75 776.302 40 123.637 197.5-26.53V728.75l-195.109 39.065-2.391 16.996-12.796-13.956-27.204 5.447z" fill="#fff"/><path d="M505.507 769.891a.747.747 0 0 0-.7-.229l-27.204 5.447a.75.75 0 0 0-.567.966l40 123.637a.75.75 0 0 0 .814.512l197.5-26.529a.75.75 0 0 0 .65-.743v-144.66a.75.75 0 0 0-.897-.736l-195.109 39.065a.75.75 0 0 0-.596.631l-2.169 15.423-11.722-12.784zm-.82 1.325 12.51 13.645a.75.75 0 0 0 1.296-.403l2.316-16.47L714.5 729.207v143.089l-196.229 26.358-39.548-122.24 25.964-5.198z" fill="#263E4B"/><path fill-rule="evenodd" clip-rule="evenodd" d="M433.75 1120.46h66.5c26.194-68.24 50.243-110.85 72.148-127.827 1.294-1.003-6.422-12.119-23.148-33.348 10.842 8.583 18.342 14.089 22.5 16.519 1.958 1.144 2.125-15.207.5-49.054l17.904 54.257c6.817-3.427 12.015-5.829 15.596-7.205 50.333-19.355 91.667 29.528 124 146.658h676" fill="#fff"/><path d="M571.372 976.213c.713.416 1.357.03 1.708-.721.228-.488.403-1.227.546-2.245.271-1.941.426-4.962.468-9.08.074-7.285-.206-18.025-.841-32.224l16.189 49.06a.75.75 0 0 0 1.049.435c6.796-3.416 11.975-5.809 15.528-7.175 49.742-19.127 90.779 29.407 123.008 146.157.09.33.386.55.723.55h676a.749.749 0 1 0 0-1.5H730.321c-32.416-117.11-73.994-166.159-124.84-146.607-3.471 1.334-8.43 3.615-14.887 6.845l-17.632-53.432c-.273-.829-1.503-.601-1.461.271.812 16.91 1.176 29.447 1.093 37.605-.042 4.058-.194 7.025-.454 8.887-.107.764-.231 1.328-.359 1.673-4.185-2.506-11.549-7.928-22.066-16.253-.697-.552-1.605.353-1.054 1.052 8.354 10.603 14.457 18.679 18.304 24.222 1.913 2.756 3.265 4.881 4.051 6.364.378.713.618 1.266.721 1.644.02.073.033.135.041.185-21.952 17.124-45.938 59.624-72.043 127.544H433.75c-.414 0-.75.34-.75.75 0 .42.336.75.75.75h66.5c.311 0 .589-.19.7-.48 26.147-68.12 50.144-110.64 71.907-127.503 1.23-.953-.276-3.794-4.66-10.109-3.252-4.685-8.094-11.154-14.527-19.408 8.269 6.431 14.164 10.675 17.702 12.743zM1020.98 238h-28.409c-12.761 0-23.122 10.293-23.249 23.039l-16.863 24.336a.751.751 0 0 0 .616 1.179h114.005c.66 0 .99-.796.54-1.272l-24.4-25.313c-.16-12.161-10.06-21.969-22.24-21.969zm-50.292 23.704a.752.752 0 0 0 .133-.428c0-12.026 9.738-21.774 21.75-21.774h28.409c11.46 0 20.75 9.3 20.75 20.773 0 .194.07.381.21.521l23.37 24.256H954.509l16.179-23.348z" fill="#263E4B"/><path fill-rule="evenodd" clip-rule="evenodd" d="m1042.17 260.775-72.42 1.001-5 7.509h85.5l-8.08-8.51z" fill="#BAD9EA"/><path d="m1042.66 259.524-72.42 1.001a.754.754 0 0 0-.614.334l-5 7.509a.75.75 0 0 0 .624 1.167h85.5c.66 0 1-.79.54-1.268l-8.08-8.51a.735.735 0 0 0-.55-.233zm6.34 8.509h-82.348l4.003-6.012 71.695-.991 6.65 7.003z" fill="#263E4B"/><path fill-rule="evenodd" clip-rule="evenodd" d="m839.25 1100.7-8.5 41.05h161c-7.382-15.6-16.048-26.44-26-32.54-9.952-6.09-28.118-8.93-54.5-8.51l13.5-70.07-81 .5-1 52.55-3.5 17.02zm217.5-6v47.55l20-.5h128c-7.38-15.6-16.05-26.44-26-32.54-9.95-6.09-28.12-8.93-54.5-8.51l12.5-68.95-87.5-.62 6.5 52.55 1 11.02z" fill="#fff"/><path fill-rule="evenodd" clip-rule="evenodd" d="M842.75 1084.19c7.656 1.23 13.656 6.07 18 14.51 4.344 8.44 6.678 19.78 7 34.04l-35-.5m224-48.05c13.66 3.24 22.66 9.08 27 17.51 4.34 8.44 6.34 18.79 6 31.04l-33-.5v-48.05z" fill="#BAD9EA"/><path d="m867.622 1030.73 5.568-38.398h-11.94v-1.5h12.157l2.976-20.524H865.75v-1.5h58v1.5h-11.626l-3.803 20.524h10.929v1.5h-11.207l-7.076 38.188 24.692-.15-11.06 57.41 3.82-10.47a7.76 7.76 0 0 1 11.214-4.03c.622.36 1.183.82 1.661 1.36a6.85 6.85 0 0 1-.587 9.67l-17.776 15.75c3.346-.84 11.561-2.95 23.63-6.09.401-.1.81.14.915.54.104.4-.136.81-.537.91a4866.06 4866.06 0 0 1-19.317 5c23.086.1 39.247 2.97 48.52 8.65 10.091 6.19 18.847 17.14 26.286 32.86l.507 1.07H829.829l8.686-41.95 3.486-16.95 1.013-53.22 24.608-.15zm1.517-.01 14.505-.09 5.861-38.298h-14.8l-5.566 38.388zm16.024-.1 14.277-.09 7.077-38.198h-15.494l-5.86 38.288zm26.722 71.32c-.064.02-.13.02-.197.02l-16.916.49a.741.741 0 0 1-.772-.72.759.759 0 0 1 .728-.78l15.107-.44-18.289-16.2a6.85 6.85 0 0 1-.587-9.67c.478-.54 1.039-1 1.661-1.36a7.76 7.76 0 0 1 11.214 4.03l7.293 20 .234-.65 12.479-64.78-79.354.49-.975 51.25c15.569 4.63 24.495 20.65 24.978 47.87h116.632c-5.905-9.64-12.495-16.69-19.763-21.14-9.721-5.95-27.56-8.77-53.473-8.41zm.926-4.88-.254 1.32 17.156-15.19a5.348 5.348 0 0 0 .458-7.55 5.525 5.525 0 0 0-1.297-1.07 6.257 6.257 0 0 0-9.046 3.25l-7.017 19.24zm73.211 35.93H833.434l-1.763 8.51h158.888a118.578 118.578 0 0 0-4.537-8.51zm-152.278-1.5h33.245c-.475-26.47-9.006-41.86-23.668-46.36l-3.337 16.23-6.24 30.13zm68.681-53.67a6.257 6.257 0 0 0-9.046-3.25c-.486.29-.923.65-1.297 1.07a5.348 5.348 0 0 0 .458 7.55l17.491 15.49-7.606-20.86zm8.173-107.512h-16.204l-3.142 20.524h15.543l3.803-20.524zm-17.722 0h-14.977l-2.976 20.524h14.812l3.141-20.524z" fill="#263E4B"/><path fill-rule="evenodd" clip-rule="evenodd" d="M836.25 496.535h-16.5l18-28.531" fill="#BAD9EA"/><path d="m1066.83 1030.48-5.54-38.148h-9.54v-1.5h9.33l-2.98-20.524h-9.35v-1.5h60.5v1.5h-12.92l2.07 20.524h11.35v1.5h-11.2l3.86 38.348 35.23.2-11.41 66.13 7.19-19.7c.16-.44.36-.87.6-1.27 2.16-3.69 6.92-4.93 10.61-2.76.63.36 1.19.82 1.66 1.36a6.85 6.85 0 0 1-.58 9.67l-16.98 15.04c4.23-1.07 11.34-2.91 20.83-5.38.4-.1.81.14.92.54.1.4-.14.81-.54.91-8.79 2.29-15.13 3.93-19.31 4.99 23.35.07 39.67 2.94 49.01 8.66 10.09 6.19 18.85 17.14 26.29 32.86l.5 1.07h-150.42l-.01-.74-.49-57.98-7.12-53.91 18.44.11zm1.51.01 15.06.08-3.38-38.238h-17.21l5.53 38.158zm16.57.09 15.99.09-3.86-38.338h-15.52l3.39 38.248zm-28.01 52.87c21.73 4.38 32.94 20.47 33.59 48.04h108.13c-5.9-9.64-12.49-16.69-19.76-21.14-9.69-5.93-27.43-8.75-53.19-8.41-.1.02-.2.02-.3 0-.18.01-.36.01-.54.01-.04.01-.09.01-.14.01l-16.92.49a.74.74 0 0 1-.77-.72c-.01-.42.31-.76.73-.78l15.11-.44-18.29-16.2a6.842 6.842 0 0 1-.59-9.67c.48-.54 1.04-1 1.66-1.36 3.7-2.17 8.45-.93 10.62 2.76.23.4.43.83.59 1.27l7.66 20.99 11.37-65.93-85.75-.49 6.79 51.57zm.11 1.55.4 46.49h31.57c-.63-26.73-11.27-42.15-31.97-46.49zm142.51 47.99h-142.1l.07 8.51h146.57a118.18 118.18 0 0 0-4.54-8.51zm-84.09-55.17c-.13-.35-.3-.69-.49-1.02a6.253 6.253 0 0 0-8.56-2.23c-.49.29-.92.65-1.3 1.07a5.349 5.349 0 0 0 .46 7.55l17.49 15.49-7.6-20.86zm19.4 0-7.61 20.86 17.49-15.49a5.34 5.34 0 0 0 .46-7.55c-.37-.42-.81-.78-1.3-1.07a6.253 6.253 0 0 0-9.04 3.25zm-40.01-107.512h-15.25l1.82 20.524h15.5l-2.07-20.524zm-16.76 0h-18.44l2.97 20.524h17.29l-1.82-20.524z" fill="#263E4B"/><path d="m578.908 829.845 1.476 9.318-8.574 1.358 1.107 6.989-11.022 1.745-1.107-6.988-30.251 4.791-1.476-9.318 26.037-31.398 11.023-1.745 4.214 26.606 8.573-1.358zm-37.967 6.013 18.371-2.91-2.466-15.571-15.905 18.481zm68.632 6.474c-17.024 2.697-26.35-3.87-28.612-18.154-2.253-14.223 4.597-23.289 21.621-25.985 16.962-2.686 26.35 3.871 28.593 18.032 2.252 14.223-4.64 23.421-21.602 26.107zm-1.466-9.257c9.675-1.532 13.317-7.073 12.045-15.104-1.262-7.97-6.429-12.053-16.104-10.521-9.675 1.533-13.337 6.951-12.065 14.982 1.282 8.092 6.448 12.176 16.124 10.643zm77.353-20.106 1.475 9.318-8.573 1.358 1.107 6.988-11.022 1.746-1.107-6.988-30.251 4.791-1.476-9.318 26.037-31.398 11.022-1.746 4.214 26.606 8.574-1.357zm-37.967 6.013 18.371-2.91-2.466-15.571-15.905 18.481z" fill="#BAD9EA"/><path d="m580.01 828.495 1.711 10.8-8.573 1.358 1.107 6.988-12.504 1.981-1.107-6.989-30.251 4.791-1.647-10.394 26.434-31.876 12.043-1.907 4.214 26.606 8.573-1.358zm-9.82 3.074-4.214-26.606-10.002 1.584-25.64 30.919 1.306 8.242 30.251-4.791 1.106 6.989 9.541-1.512-1.106-6.988 8.573-1.358-1.241-7.837-8.574 1.358zm-30.672 4.858 18.294-21.258 2.837 17.911-21.131 3.347zm19.415-4.594-2.096-13.231-13.515 15.704 15.611-2.473zm51.236 10.748c-17.114 2.711-27.097-3.794-29.47-18.777-2.362-14.916 5.123-24.132 22.245-26.843 17.057-2.702 27.098 3.798 29.451 18.655 2.363 14.925-5.175 24.265-22.226 26.965zm-.234-1.481c16.264-2.576 23.207-11.178 20.978-25.25-2.217-14-11.462-19.985-27.735-17.408-16.336 2.588-23.224 11.068-20.997 25.127 2.238 14.13 11.425 20.117 27.754 17.531zm-1.232-7.776c-9.777 1.549-15.588-2.471-16.981-11.266-1.383-8.727 2.906-14.291 12.688-15.84 9.758-1.546 15.586 2.455 16.962 11.144 1.387 8.756-2.914 14.417-12.669 15.962zm-.235-1.481c8.951-1.418 12.677-6.323 11.422-14.247-1.243-7.852-6.288-11.316-15.246-9.897-8.981 1.423-12.69 6.235-11.441 14.124 1.261 7.962 6.292 11.441 15.265 10.02zm78.094-20.224 1.711 10.8-8.573 1.357 1.106 6.989-12.504 1.981-1.107-6.989-30.25 4.791-1.647-10.394 26.434-31.876 12.043-1.907 4.214 26.606 8.573-1.358zm-9.82 3.074-4.214-26.606-10.002 1.584-25.64 30.918 1.305 8.243 30.251-4.791 1.107 6.988 9.541-1.511-1.107-6.988 8.574-1.358-1.242-7.837-8.573 1.358zm-30.672 4.858 18.294-21.258 2.837 17.911-21.131 3.347zm19.415-4.594-2.096-13.232-13.515 15.705 15.611-2.473zm172.07-347.758c.091-.341.168-.659.232-.952l.82-17.31c1.359-28.695 24.994-51.261 53.69-51.261h56.453v1.502h-56.453c-27.895 0-50.87 21.936-52.192 49.83l-.238 5.033c2.651-10.179 7.764-19.285 15.345-27.105 11.428-11.787 25.58-5.912 42.147 17.103a.751.751 0 0 1-1.217.878c-16.101-22.368-29.282-27.839-39.854-16.935-9.949 10.263-15.535 22.778-16.791 37.084a11.74 11.74 0 0 1-.217 1.377l-2.281 48.148-1.498-.071.84-17.734H820.25a.751.751 0 0 1-.634-1.152l17.939-28.435zm-1.143 28.085 1.201-25.365-16.002 25.365h14.801zm222.498 39.12a.75.75 0 0 1-.72-.779.745.745 0 0 1 .78-.722c5.52.211 8.15-2.963 8.03-9.905-.11-6.973-2.4-10.22-6.92-10.141a.754.754 0 0 1-.77-.737.76.76 0 0 1 .74-.764c5.5-.096 8.33 3.91 8.45 11.618.13 7.74-3.13 11.677-9.59 11.43zm-1.6 52.815a.75.75 0 1 1 .14-1.495c5.5.5 8.29-2.533 8.54-9.471.25-6.969-1.87-10.332-6.39-10.49a.746.746 0 0 1-.72-.776.744.744 0 0 1 .77-.724c5.5.192 8.12 4.34 7.84 12.044-.28 7.736-3.74 11.497-10.18 10.912zm-32.78 58.443a.75.75 0 1 1 .6-1.376c5.09 2.234 8.49.769 10.55-4.564 2.07-5.369.98-8.682-3.27-10.315a.747.747 0 0 1-.43-.97.75.75 0 0 1 .97-.432c5.1 1.957 6.48 6.168 4.13 12.257-2.36 6.124-6.67 7.98-12.55 5.4zm-54.005-199.876 1.45.387c-2.736 10.272-8.445 16.334-17.078 18.062l-.294-1.472c8.034-1.609 13.325-7.227 15.922-16.977zm-83.999 19.909 2 7.508a.75.75 0 1 0 1.449-.387l-2-7.508a.75.75 0 1 0-1.449.387z" fill="#263E4B"/><path d="m887.082 466.233 6.5 1.502a.75.75 0 0 0 .337-1.463l-6.5-1.502a.751.751 0 0 0-.337 1.463zm282.238 4.753c-5.05-6.105-13.84-6.75-21.09-1.977-2.83 1.859-4.88 4.508-5.85 7.534-2.44 7.627 7.14 27.116 28.75 58.957.23.343.7.432 1.04.199.34-.233.43-.7.2-1.043-21.26-31.323-30.78-50.705-28.56-57.655.86-2.693 2.7-5.064 5.24-6.738 6.65-4.376 14.58-3.794 19.12 1.682.26.319.74.363 1.05.098a.745.745 0 0 0 .1-1.057z" fill="#263E4B"/></svg>