<svg width="1840" height="1380" viewBox="0 0 1840 1380" fill="none" xmlns="http://www.w3.org/2000/svg">
<path fill-rule="evenodd" clip-rule="evenodd" d="M894.508 711.889C870.418 714.668 851.932 714.335 839.051 710.89C826.169 707.445 816.011 700.117 808.574 688.906C800.468 671.761 795.972 661.935 795.085 659.429C790.738 647.147 790.256 635.076 791.088 626.954C792.174 616.346 798.003 602.523 808.574 585.485C810.08 573.64 812.578 563.148 816.069 554.01C819.559 544.871 826.554 531.715 837.052 514.54L838.551 458.083C842.981 445.16 847.144 436 851.042 430.604C854.939 425.208 859.436 422.376 864.531 422.11C868.831 421.702 872.828 422.701 876.522 425.108C880.216 427.515 887.211 433.677 897.506 443.594C906.008 428.757 915.667 417.432 926.484 409.62C937.3 401.808 951.622 395.813 969.45 391.634L971.949 386.638L972.25 357.25L963.955 285.715H952.963L969.95 260.734C971.466 255.229 972.965 251.233 974.447 248.743C975.928 246.254 978.696 243.422 982.75 240.25C982.824 239.33 986.157 238.83 992.75 238.75C999.343 238.67 1009.73 239.003 1023.91 239.75C1029.96 241.14 1034.13 242.972 1036.4 245.246C1038.67 247.519 1040.67 252.349 1042.39 259.735L1066.75 285.75L1051.39 286.714L1049.89 334.178C1047.75 342.318 1045.75 347.813 1043.89 350.665C1042.03 353.517 1039.04 355.682 1034.9 357.16L1010.42 358.659L1007.42 387.637L1009.42 391.634C1021.92 395.208 1030.42 398.039 1034.9 400.127C1045.67 405.142 1055.41 412.404 1062.88 425.108C1068.11 434.002 1073.52 446.288 1080.86 459.082C1087.33 470.347 1099.15 490.165 1116.34 518.537L1133.32 533.525L1141.82 550.512L1162.3 566L1171.79 535.024C1152.48 505.713 1142.82 487.061 1142.82 479.067C1142.82 475.726 1144.84 472.576 1146.81 470.573C1149.57 467.784 1153.35 466.07 1159.8 466.576C1164.1 466.914 1168.27 469.578 1172.29 474.57L1229.75 628.952C1224.03 647.693 1219.04 661.682 1214.76 670.92C1210.49 680.158 1204.16 689.317 1195.78 698.399C1183.7 705.175 1173.54 709.172 1165.3 710.39C1157.06 711.608 1143.57 710.443 1124.83 706.893C1118.27 703.889 1113.94 701.057 1111.84 698.399C1104.07 688.543 1100.81 676.042 1096.85 669.421C1091.29 660.122 1087.96 651.462 1086.86 643.441L1060.88 559.006L948.467 555.508L937.975 640.943C932.24 664.163 926.078 681.15 919.489 691.904C912.9 702.659 904.573 709.32 894.508 711.889Z" fill="white"/>
<path fill-rule="evenodd" clip-rule="evenodd" d="M902.25 730.294C900.215 729.927 898.715 729.745 897.75 729.75C894.045 729.765 891.021 729.574 889.25 726.75C886.787 722.821 887.453 718.154 891.25 712.75L901.75 709.25H906.75L943.25 710.75L954.75 709.25L995.25 707.75C999.583 709.75 1001.08 713.583 999.75 719.25C998.417 724.916 994.75 728.416 988.75 729.75L976.75 730.294L895.75 1101.7H843.75C852.652 1043.36 859.818 999.474 865.25 970.059C870.682 940.643 883.015 860.722 902.25 730.294ZM1029.25 730.294C1029.17 729.114 1026 728.932 1019.75 729.75C1014.42 727.083 1012.25 722.916 1013.25 717.25C1014.25 711.583 1016.75 708.583 1020.75 708.25L1028.25 709.25H1051.25L1074.25 710.75L1099.75 708.25C1107.75 708.916 1111.75 712.583 1111.75 719.25C1111.75 723.039 1110.47 725.006 1108.75 726.75C1107.88 727.632 1106.21 728.632 1103.75 729.75L1095.75 730.294L1116.25 1102.2H1062.25C1054.98 1035.32 1050.31 988.439 1048.25 961.549C1045.8 929.523 1031.93 770.336 1029.25 730.294Z" fill="white"/>
<path fill-rule="evenodd" clip-rule="evenodd" d="M902.25 729.793H976.75L895.75 1101.2H843.75C852.652 1042.86 859.818 998.974 865.25 969.558C870.682 940.143 883.015 860.221 902.25 729.793ZM1029.25 729.793H1095.75L1116.25 1101.7H1062.25C1054.98 1034.82 1050.31 987.939 1048.25 961.049C1045.8 929.023 1031.93 769.836 1029.25 729.793Z" stroke="#263E4B" stroke-width="1.5"/>
<path fill-rule="evenodd" clip-rule="evenodd" d="M948.75 398.427L892.377 398.692C864.252 398.824 841.128 420.902 839.695 448.99L838.75 467.504C839.631 457.984 840.797 451.31 842.25 447.481C844.556 441.405 847.219 437.909 850.25 433.967C854.832 428.005 860.022 422.975 864.25 421.953C873.917 419.617 884.75 427.126 896.75 444.478C898.76 440.591 900.427 437.588 901.75 435.468C904.392 431.237 907.205 426.668 912.25 421.953C922.25 412.61 934.417 404.768 948.75 398.427Z" fill="#BAD9EA"/>
<path fill-rule="evenodd" clip-rule="evenodd" d="M902.75 708.27C907.893 710.146 917.56 710.98 931.75 710.772C939.477 710.659 953.386 708.353 965.25 707.769C971.866 707.444 981.866 707.444 995.25 707.769L1006.75 677.235H1017.75L1021.25 707.769C1032.95 708.501 1041.28 709.001 1046.25 709.271C1056.93 709.85 1065.81 710.272 1072.75 710.272C1084.53 710.272 1093.19 709.437 1098.75 707.769L1073.25 565.111L954.75 569.616C953.201 591.34 947.535 615.199 937.75 641.195C935.665 646.736 935.331 653.739 933.25 660.717C930.078 671.35 926.585 681.635 922.75 688.748C919.112 695.496 912.445 702.003 902.75 708.27Z" fill="#BAD9EA"/>
<path d="M1097.96 708.102L1086.51 641.322C1086.44 640.914 1086.72 640.525 1087.12 640.455C1087.53 640.385 1087.92 640.66 1087.99 641.068L1099.38 707.519H1101C1107.35 707.519 1112.5 712.673 1112.5 719.031C1112.5 725.39 1107.35 730.544 1101 730.544H1022.1C1016.47 730.544 1011.91 725.975 1011.91 720.338C1011.91 719.866 1011.94 719.395 1012.01 718.928L1012.61 714.629C1013.15 710.761 1016.14 707.735 1019.93 707.112L1017.07 677.986H1007.27L996.278 707.169C999.344 707.878 1001.52 710.743 1001.27 713.98C1001.25 714.26 1001.21 714.537 1001.15 714.811L1000.23 719.185C998.851 725.803 993.021 730.544 986.267 730.544H894.798C890.583 730.544 887.166 727.123 887.166 722.904C887.166 722.105 887.291 721.312 887.537 720.552C888.204 718.488 889.036 715.822 890.033 712.555C890.154 712.158 890.573 711.935 890.969 712.056C891.365 712.177 891.588 712.597 891.467 712.994C890.468 716.268 889.634 718.942 888.964 721.014C888.766 721.625 888.666 722.262 888.666 722.904C888.666 726.294 891.411 729.042 894.798 729.042H986.267C992.311 729.042 997.528 724.8 998.766 718.877L999.681 714.504C999.725 714.293 999.755 714.08 999.771 713.865C999.982 711.13 997.942 708.74 995.213 708.519C989.009 708.397 984.619 708.335 982.048 708.332C975.087 708.324 955.457 709.464 951.35 710.015C942.027 711.264 937.09 711.444 929.026 711.172C928.764 711.163 928.764 711.163 928.501 711.154C925.62 711.056 924.242 711.022 922.404 711.022C915.734 711.022 910.752 710.855 907.445 710.518C903.565 710.123 901.808 709.57 902.007 708.164L903.493 708.375C903.508 708.266 903.478 708.185 903.458 708.148C903.563 708.229 903.779 708.329 904.097 708.429C904.833 708.661 906.006 708.862 907.597 709.024C910.842 709.355 915.781 709.521 922.404 709.521C924.264 709.521 925.655 709.555 928.552 709.653C928.814 709.662 928.814 709.662 929.076 709.671C937.062 709.94 941.918 709.763 951.151 708.526C955.329 707.966 975.025 706.823 982.05 706.831C984.562 706.833 988.79 706.893 994.735 707.008L1006.05 676.97C1006.16 676.678 1006.44 676.484 1006.75 676.484H1017.75H1024.25C1024.66 676.484 1025 676.82 1025 677.235C1025 677.65 1024.66 677.986 1024.25 677.986H1018.58L1021.45 707.195C1024.76 707.741 1031.38 708.019 1041.25 708.019C1044.96 708.019 1063.1 709.033 1068.32 709.524C1074.27 710.083 1084.16 709.611 1097.96 708.102ZM1098.78 709.02L1098.83 709.516C1084.56 711.097 1074.35 711.6 1068.18 711.019C1063.01 710.532 1044.91 709.521 1041.25 709.521C1030.69 709.521 1023.83 709.207 1020.6 708.568L1020.61 708.535C1017.26 708.883 1014.56 711.478 1014.09 714.837L1013.49 719.135C1013.44 719.534 1013.41 719.936 1013.41 720.338C1013.41 725.145 1017.3 729.042 1022.1 729.042H1101C1106.52 729.042 1111 724.56 1111 719.031C1111 713.502 1106.52 709.02 1101 709.02H1098.78Z" fill="#263E4B"/>
<path d="M1011.46 358.633L1008.55 389.397C1032.25 397.462 1047.41 404.465 1054.07 410.467C1062.72 418.251 1084.88 463.238 1096.23 492.762C1099.66 501.678 1104.98 507.326 1117.88 517.779L1118.96 518.658C1131.92 529.156 1137.21 534.824 1140.46 543.833C1145.46 557.742 1155.48 561.084 1170.93 553.918C1171.31 553.744 1171.76 553.908 1171.93 554.284C1172.1 554.66 1171.94 555.107 1171.56 555.281C1155.35 562.798 1144.37 559.132 1139.04 544.342C1135.93 535.678 1130.77 530.154 1118.02 519.825L1116.93 518.946C1103.83 508.332 1098.39 502.545 1094.83 493.301C1083.58 464.036 1061.46 419.14 1053.07 411.584C1046.55 405.715 1031.34 398.709 1007.51 390.629C1007.18 390.517 1006.97 390.193 1007 389.847L1009.96 358.633H1001.25C1000.84 358.633 1000.5 358.297 1000.5 357.882C1000.5 357.468 1000.84 357.131 1001.25 357.131H1010.77C1010.78 357.131 1010.78 357.131 1010.79 357.131H1027.44C1037.76 357.131 1043.75 352.931 1046.88 344.441C1049.39 337.619 1050 329.734 1050 312.878V301.398C1050 301.239 1050 301.11 1050 300.818C1050.01 295.237 1049.75 292.021 1048.55 287.118C1048.53 287.089 1048.49 287.053 1048.45 287.011C1048.33 286.894 1048.17 286.741 1047.96 286.553H976.457C976.043 286.553 975.707 286.217 975.707 285.803C975.707 285.388 976.043 285.052 976.457 285.052H1048.25C1048.43 285.052 1048.61 285.119 1048.75 285.24C1049.63 286.025 1049.9 286.289 1049.98 286.624C1051.24 291.745 1051.51 295.077 1051.5 300.82C1051.5 301.112 1051.5 301.24 1051.5 301.398V312.878C1051.5 329.924 1050.88 337.908 1048.28 344.961C1044.94 354.039 1038.39 358.633 1027.44 358.633H1011.46ZM1230.53 627.969L1231.97 628.393C1219.41 671.107 1206.06 696.007 1191.78 703.134C1169.29 714.355 1141.8 715.218 1119.42 704.229C1116.46 702.777 1114.14 700.748 1111.78 697.631C1110.1 695.409 1108.45 692.735 1105.8 688.093C1105.11 686.879 1102.47 682.203 1102.08 681.518C1100.42 678.594 1098.99 676.106 1097.47 673.512C1095.38 669.96 1092.41 662.118 1088.54 649.932L1089.96 649.477C1093.8 661.554 1096.75 669.329 1098.76 672.75C1100.29 675.351 1101.73 677.847 1103.39 680.777C1103.78 681.465 1106.41 686.138 1107.1 687.349C1109.72 691.937 1111.35 694.569 1112.98 696.725C1115.2 699.665 1117.35 701.539 1120.08 702.881C1142.03 713.656 1169.03 712.809 1191.11 701.79C1204.89 694.915 1218.08 670.294 1230.53 627.969Z" fill="#263E4B"/>
<path fill-rule="evenodd" clip-rule="evenodd" d="M1024.75 396.425L1033.75 399.929C1040.08 419.284 1044.92 435.802 1048.25 449.484C1051.58 463.165 1053.75 483.521 1054.75 510.551L1042.25 507.047C1043.25 485.357 1041.42 466.169 1036.75 449.484C1034.72 442.216 1030.72 424.53 1024.75 396.425ZM948.25 398.427L956.75 394.923C958.75 409.717 959.75 421.397 959.75 429.962C959.75 438.527 959.75 447.203 959.75 455.991L946.75 474.511C948.75 468.505 949.75 454.99 949.75 433.966C949.75 412.943 949.25 401.097 948.25 398.427Z" fill="#BAD9EA"/>
<path d="M1024.52 396.581L1024.23 395.222L1034.85 399.358L1034.96 399.695C1041.3 419.067 1046.14 435.603 1049.48 449.306C1052.83 463.047 1055 483.447 1056 510.524L1056.04 511.552L1041.97 507.609L1042 507.013C1043 485.398 1041.17 466.289 1036.53 449.686C1034.49 442.398 1030.49 424.704 1024.52 396.581ZM1037.97 449.281C1042.62 465.895 1044.47 484.963 1043.53 506.485L1054.46 509.551C1053.45 483.079 1051.3 463.111 1048.02 449.662C1044.71 436.08 1039.92 419.692 1033.65 400.5L1026.27 397.629C1032.08 424.928 1035.98 442.153 1037.97 449.281ZM948.048 398.691L947.793 398.01L957.863 393.859L957.993 394.823C959.998 409.647 961 421.358 961 429.962V456.228L944.919 479.139L946.539 474.274C948.504 468.372 949.5 454.906 949.5 433.967C949.5 413.109 948.999 401.229 948.048 398.691ZM951 433.967C951 451.324 950.322 463.58 948.949 470.786L959.5 455.754V429.962C959.5 421.623 958.546 410.296 956.636 395.989L949.66 398.864C950.567 402.623 951 414.226 951 433.967Z" fill="#263E4B"/>
<path d="M1010.53 398.64L1011.97 398.214L1079.99 628.04C1083.87 648.353 1097.88 658.464 1122.25 658.464C1146.63 658.464 1166.67 642.174 1182.4 609.45L1183.75 610.101C1167.8 643.297 1147.29 659.966 1122.25 659.966C1097.2 659.966 1082.54 649.388 1078.53 628.394L1010.53 398.64ZM1047.51 584.518L1048.99 584.747C1041.27 634.802 1026.77 659.966 1005.25 659.966C987.843 659.966 976.261 605.751 971.501 502.076C970.603 482.528 970.103 449.149 970 401.933L971.5 401.929C971.603 449.125 972.103 482.486 972.999 502.007C977.698 604.332 989.262 658.464 1005.25 658.464C1025.73 658.464 1039.89 633.907 1047.51 584.518Z" fill="#263E4B"/>
<path fill-rule="evenodd" clip-rule="evenodd" d="M1122.23 559.896L1174.62 554.39L1177.72 583.873L1125.33 589.38L1122.23 559.896ZM1073.64 507.042L1068.71 460.196C1070.69 455.131 1075.89 452.155 1084.33 451.268C1092.76 450.382 1098.47 452.211 1101.46 456.755L1106.38 503.6L1073.64 507.042ZM1211.16 492.587L1178.42 496.029L1173.49 449.183C1175.47 444.118 1180.67 441.142 1189.11 440.256C1197.54 439.369 1203.25 441.198 1206.24 445.742L1211.16 492.587Z" fill="#263E4B"/>
<path fill-rule="evenodd" clip-rule="evenodd" d="M1069.52 559.059L1061.91 486.661C1065.1 478.818 1073.44 474.188 1086.94 472.77C1100.43 471.351 1109.55 474.146 1114.3 481.155L1121.91 553.552L1069.52 559.059ZM1226.69 542.539L1174.3 548.046L1166.69 475.648C1169.88 467.806 1178.22 463.175 1191.72 461.757C1205.21 460.338 1214.33 463.133 1219.08 470.142L1226.69 542.539Z" fill="white"/>
<path fill-rule="evenodd" clip-rule="evenodd" d="M1069.19 559.261L1061.58 486.863C1064.77 479.021 1073.11 474.39 1086.61 472.972C1100.1 471.554 1109.22 474.348 1113.97 481.357L1121.58 553.755L1069.19 559.261ZM1226.36 542.742L1173.97 548.248L1166.36 475.85C1169.55 468.008 1177.89 463.377 1191.39 461.959C1204.88 460.541 1214 463.336 1218.75 470.344L1226.36 542.742Z" fill="white" stroke="#263E4B" stroke-width="1.5" stroke-linecap="round" stroke-linejoin="round"/>
<path fill-rule="evenodd" clip-rule="evenodd" d="M1067.91 639.3L1059.1 555.546C1063.66 546.382 1075.21 540.825 1093.77 538.875C1112.32 536.925 1124.78 539.958 1131.14 547.974L1139.94 631.729L1067.91 639.3ZM1244.72 620.716L1172.69 628.287L1163.88 544.533C1168.44 535.369 1179.99 529.812 1198.55 527.862C1217.1 525.912 1229.56 528.945 1235.92 536.962L1244.72 620.716Z" fill="white"/>
<path d="M1067.75 640.072C1067.34 640.115 1066.97 639.816 1066.93 639.403L1058.13 555.649C1058.11 555.507 1058.14 555.364 1058.2 555.236C1062.89 545.793 1074.67 540.127 1093.46 538.153C1112.24 536.179 1124.94 539.271 1131.5 547.532C1131.59 547.644 1131.64 547.779 1131.66 547.921L1140.46 631.675C1140.5 632.088 1140.2 632.457 1139.79 632.5L1067.75 640.072ZM1138.89 631.085L1130.19 548.297C1123.98 540.651 1111.81 537.734 1093.61 539.646C1075.42 541.559 1064.12 546.942 1059.64 555.712L1068.34 638.5L1138.89 631.085ZM1245.24 620.662C1245.28 621.075 1244.98 621.444 1244.57 621.487L1172.53 629.059C1172.12 629.102 1171.75 628.803 1171.71 628.39L1162.91 544.636C1162.89 544.494 1162.92 544.351 1162.98 544.223C1167.68 534.78 1179.46 529.114 1198.24 527.14C1217.02 525.166 1229.72 528.258 1236.28 536.519C1236.37 536.631 1236.42 536.766 1236.44 536.908L1245.24 620.662ZM1243.67 620.072L1234.97 537.284C1228.76 529.638 1216.59 526.721 1198.4 528.633C1180.2 530.546 1168.91 535.929 1164.42 544.699L1173.12 627.487L1243.67 620.072Z" fill="#263E4B"/>
<path fill-rule="evenodd" clip-rule="evenodd" d="M1104.98 647.824C1085.09 649.914 1068.39 646.109 1067.67 639.325C1066.96 632.54 1082.51 625.345 1102.4 623.254C1122.29 621.164 1139 624.969 1139.71 631.753C1140.43 638.538 1124.88 645.733 1104.98 647.824ZM1209.77 636.811C1189.87 638.902 1173.17 635.096 1172.46 628.312C1171.74 621.527 1187.29 614.332 1207.18 612.241C1227.08 610.151 1243.78 613.956 1244.49 620.74C1245.21 627.525 1229.66 634.72 1209.77 636.811Z" fill="#263E4B"/>
<path d="M1049.97 573.215C1056.26 572.553 1060.82 566.917 1060.16 560.624C1059.5 554.332 1053.86 549.767 1047.57 550.428C1041.28 551.089 1036.72 556.725 1037.38 563.018C1038.04 569.31 1043.68 573.876 1049.97 573.215ZM1049.81 571.721C1044.34 572.296 1039.45 568.329 1038.87 562.861C1038.3 557.394 1042.26 552.495 1047.73 551.921C1053.19 551.347 1058.09 555.313 1058.67 560.781C1059.24 566.248 1055.28 571.147 1049.81 571.721Z" fill="#263E4B"/>
<path d="M809.889 585.604L819.994 581.925C820.383 581.784 820.813 581.985 820.955 582.374C821.096 582.764 820.895 583.195 820.506 583.337L811.522 586.607L820.631 591.996C820.988 592.206 821.106 592.667 820.896 593.024C820.685 593.381 820.225 593.499 819.868 593.288L809.697 587.271L809.506 587.341C809.418 587.373 809.327 587.388 809.238 587.386C790.875 611.867 786.627 636.019 796.444 659.931C806.013 683.243 810.314 691.563 817.564 698.744C825.922 707.023 837.432 711.325 857.332 713.53C894.861 717.688 916.78 705.237 926.542 677.487C932.642 660.148 936.131 648.006 937.006 641.101C937.058 640.69 937.433 640.399 937.844 640.451C938.255 640.503 938.546 640.879 938.494 641.29C937.601 648.332 934.09 660.551 927.957 677.985C917.954 706.422 895.364 719.254 857.167 715.023C836.961 712.784 825.147 708.367 816.509 699.811C809.06 692.433 804.708 684.013 795.056 660.502C784.973 635.939 789.42 611.1 808.345 586.078C810.382 560.671 819.594 536.892 835.973 514.752C852.302 492.681 869.129 476.087 886.461 464.977C898.176 433.905 915.185 413.096 937.496 402.596C948.612 397.365 956.955 393.887 962.539 392.16C966.279 391.004 968.941 390.578 970.43 391.048L973.001 343.826C973.023 343.412 973.377 343.095 973.791 343.115C974.204 343.14 974.521 343.494 974.499 343.908L971.824 393.032C971.771 394.004 970.325 393.965 970.325 392.991C970.325 392.072 968.011 392.04 962.982 393.595C957.479 395.297 949.192 398.751 938.134 403.955C916.154 414.299 899.366 434.878 887.777 465.739C887.72 465.892 887.615 466.021 887.479 466.108C870.24 477.112 853.471 493.623 837.178 515.646C821.091 537.391 811.998 560.706 809.889 585.604Z" fill="#263E4B"/>
<path fill-rule="evenodd" clip-rule="evenodd" d="M971.25 386.915L964.225 404.703C963.82 405.73 964.323 406.892 965.351 407.298C965.755 407.457 966.201 407.481 966.62 407.365L996.623 399.041L1016.48 406.113C1017.52 406.484 1018.66 405.941 1019.03 404.9C1019.26 404.278 1019.16 403.586 1018.77 403.052L1007.75 387.916C1005.71 389.695 1001.33 390.585 994.617 390.585C987.905 390.585 980.116 389.362 971.25 386.915Z" fill="white"/>
<path d="M996.156 399.588L967.321 407.587C966.745 407.747 966.132 407.715 965.576 407.495C964.163 406.936 963.471 405.336 964.029 403.922L971.053 386.138C971.193 385.781 971.58 385.588 971.949 385.69C980.755 388.121 988.479 389.334 995.117 389.334C1001.66 389.334 1005.89 388.473 1007.76 386.849C1008.09 386.56 1008.6 386.617 1008.86 386.973L1019.87 402.104C1020.4 402.839 1020.54 403.792 1020.24 404.648C1019.73 406.081 1018.16 406.829 1016.72 406.319L997.659 399.528C997.693 399.813 997.732 400.147 997.776 400.531C997.964 402.16 998.245 404.684 998.621 408.106C999.371 414.948 1000.5 425.377 1002 439.393C1002.04 439.805 1001.74 440.175 1001.33 440.219C1000.92 440.263 1000.55 439.965 1000.5 439.553C999.004 425.538 997.879 415.11 997.129 408.27C996.755 404.851 996.473 402.328 996.286 400.703C996.236 400.266 996.192 399.894 996.156 399.588ZM996.137 390.829C996.302 391.472 996.459 392.189 996.609 392.972C996.855 394.247 997.047 395.474 997.273 397.093L997.369 397.779C997.372 397.798 997.374 397.816 997.377 397.834L1017.23 404.904C1017.88 405.136 1018.59 404.796 1018.82 404.145C1018.96 403.756 1018.9 403.323 1018.66 402.989L1008.09 388.475C1005.83 389.985 1001.86 390.749 996.137 390.829ZM995.9 398.1C995.895 398.065 995.89 398.028 995.884 397.989L995.788 397.302C995.565 395.706 995.376 394.5 995.136 393.255C994.961 392.345 994.778 391.533 994.587 390.833C988.09 390.772 980.629 389.599 972.2 387.316L965.424 404.474C965.17 405.117 965.485 405.844 966.127 406.098C966.38 406.198 966.659 406.213 966.921 406.14L995.9 398.1Z" fill="#263E4B"/>
<path fill-rule="evenodd" clip-rule="evenodd" d="M893.75 558.753C935.242 492.544 959.075 456.003 965.25 449.131C970.069 443.768 978.323 443.327 983.687 448.146C987.7 451.753 989.082 457.457 987.163 462.5L972.25 501.69" fill="white"/>
<path d="M894.211 559.504C935.656 493.371 959.504 456.807 965.633 449.986C970.178 444.928 977.957 444.516 983.009 449.066C986.79 452.47 988.089 457.852 986.279 462.609L971.375 501.775L972.777 502.309L987.68 463.143C989.711 457.806 988.254 451.769 984.013 447.95C978.345 442.845 969.617 443.307 964.518 448.982C958.298 455.904 934.48 492.421 892.94 558.706L894.211 559.504Z" fill="#263E4B"/>
<path fill-rule="evenodd" clip-rule="evenodd" d="M986.432 315.364C985.265 315.02 984.029 314.835 982.75 314.835C975.57 314.835 969.75 320.662 969.75 327.849C969.75 333.956 973.952 339.081 979.619 340.484L979.031 352.593C978.874 355.823 976.187 358.347 972.954 358.302L957.524 358.085C956.534 358.071 955.551 357.924 954.601 357.647C948.769 355.948 945.418 349.842 947.117 344.009L964.075 285.803H966.083L966.091 285.792L968.443 285.803H977.25L977.252 285.845L998.169 285.946C995.754 297.054 993.585 304.477 991.662 308.214C990.29 310.883 988.546 313.267 986.432 315.364ZM1057.5 285.803C1059.46 294.145 1056.42 298.317 1048.36 298.317C1040.29 298.317 1028.2 294.145 1012.08 285.803H1057.5Z" fill="#263E4B"/>
<path fill-rule="evenodd" clip-rule="evenodd" d="M872.437 576.226L940.329 515.732C950.212 506.925 963.033 502.136 976.27 502.307L1053.58 503.302C1064.14 503.438 1072.77 511.766 1073.28 522.314C1073.77 532.298 1066.07 540.785 1056.08 541.27C1055.86 541.281 1055.63 541.288 1055.4 541.291L989.951 542.007C985.947 542.05 982.736 545.332 982.78 549.336C982.78 549.339 982.78 549.341 982.78 549.344C982.829 553.398 986.07 556.69 990.123 556.801L1057.68 558.652C1066.89 558.905 1074.23 566.414 1074.28 575.623C1074.33 584.698 1067.01 592.093 1057.94 592.141C1057.91 592.141 1057.88 592.141 1057.85 592.141H993.451C989.491 592.141 986.28 595.352 986.28 599.313C986.28 599.342 986.28 599.371 986.28 599.399C986.332 603.755 989.11 607.609 993.224 609.038L1034.46 623.353C1041.6 625.83 1045.37 633.623 1042.89 640.759C1042.78 641.076 1042.66 641.388 1042.53 641.696C1039.23 649.34 1030.63 653.187 1022.73 650.551L955.693 628.181L919.426 652.386C900.826 664.8 875.685 659.785 863.272 641.185C862.104 639.436 861.075 637.599 860.193 635.689C857.034 628.852 856.049 619.057 857.237 606.303C858.317 594.715 863.748 583.968 872.437 576.226Z" fill="white"/>
<path d="M869.736 647.32L882.382 639.181C878.043 635.033 874.539 629.937 871.579 624.012C867.29 615.424 868.7 599.001 875.729 574.639L873.334 576.773C864.773 584.401 859.422 594.997 858.362 606.421C857.192 619.031 858.166 628.686 861.257 635.374C862.118 637.239 863.122 639.033 864.26 640.742C865.879 643.174 867.719 645.369 869.736 647.32ZM870.871 648.375C884.05 660.156 903.985 662.044 919.37 651.776L922.869 649.441C908.966 651.954 897.657 649.902 888.595 644.08C886.789 642.92 885.103 641.635 883.523 640.232L870.871 648.375ZM876.528 571.917C876.529 571.913 876.53 571.909 876.532 571.904C876.617 571.618 876.857 571.421 877.133 571.377L940.218 515.166C950.239 506.238 963.232 501.383 976.645 501.556L1053.99 502.551C1064.93 502.692 1073.88 511.333 1074.41 522.278C1074.92 532.675 1066.91 541.514 1056.52 542.02C1056.29 542.032 1056.05 542.039 1055.81 542.041L990.334 542.758C986.749 542.797 983.874 545.738 983.913 549.328L983.913 549.335C983.957 552.986 986.873 555.95 990.519 556.05L1058.1 557.902C1067.7 558.165 1075.36 566.005 1075.41 575.619C1075.46 585.109 1067.82 592.842 1058.34 592.892L1058.25 592.892H993.826C990.284 592.892 987.413 595.767 987.413 599.313C987.413 599.352 987.413 599.352 987.413 599.39C987.461 603.429 990.035 607.003 993.846 608.326L1035.1 622.648C1042.62 625.257 1046.6 633.472 1043.99 640.996C1043.87 641.333 1043.74 641.666 1043.6 641.994C1040.14 649.997 1031.15 654.025 1022.89 651.267L956.187 629.01L920.202 653.026C901.251 665.674 875.646 660.547 863.012 641.575C861.831 639.802 860.789 637.939 859.895 636.005C856.676 629.036 855.676 619.132 856.869 606.282C857.964 594.479 863.492 583.532 872.337 575.651L876.528 571.917ZM877.844 572.755C870.337 598.04 868.725 614.94 872.921 623.341C877.067 631.642 882.289 638.244 889.405 642.816C898.669 648.768 910.397 650.638 925.092 647.469C925.297 647.425 925.501 647.469 925.663 647.577L955.965 627.353L1023.36 649.843C1030.88 652.354 1039.08 648.686 1042.22 641.398C1042.35 641.104 1042.47 640.806 1042.57 640.504C1044.91 633.763 1041.34 626.404 1034.61 624.066L993.355 609.745C988.946 608.214 985.969 604.08 985.913 599.408C985.913 599.361 985.913 599.361 985.913 599.313C985.913 594.938 989.456 591.391 993.826 591.391H1058.25L1058.33 591.39C1066.98 591.345 1073.96 584.287 1073.91 575.627C1073.87 566.824 1066.85 559.644 1058.06 559.403L990.478 557.551C986.027 557.429 982.467 553.81 982.413 549.353L982.413 549.344C982.365 544.926 985.904 541.304 990.318 541.256L1055.8 540.54C1056.01 540.537 1056.23 540.531 1056.45 540.52C1066.01 540.054 1073.38 531.92 1072.91 522.351C1072.42 512.199 1064.12 504.183 1053.97 504.053L976.626 503.057C963.587 502.889 950.956 507.609 941.216 516.288L877.844 572.755Z" fill="#263E4B"/>
<path fill-rule="evenodd" clip-rule="evenodd" d="M1210.83 520.779L1210.84 522.814C1210.89 533.195 1219.31 541.585 1229.7 541.585H1243.92C1232.17 542.489 1224.5 546.327 1220.92 553.098C1215.29 563.762 1219.37 576.973 1230.04 582.606C1233.18 584.266 1236.68 585.133 1240.23 585.133H1246.42L1244.73 585.963C1232.84 591.802 1227.92 606.179 1233.76 618.076C1234.11 618.794 1234.5 619.493 1234.92 620.172C1240.61 628.09 1251.64 629.9 1259.55 624.215C1260.08 623.836 1260.59 623.427 1261.07 622.991L1272.11 613.046C1278.21 607.554 1281.07 599.329 1279.71 591.238C1279.62 590.649 1279.52 590.116 1279.42 589.638C1278.85 586.72 1276.85 582.382 1273.42 576.624C1275.76 571.952 1276.42 566.279 1275.42 559.605C1274.42 552.931 1271.59 547.091 1266.92 542.086C1269.2 536.259 1269.53 529.752 1267.92 522.564C1267.29 519.718 1266.41 517.292 1265.28 515.287C1263.22 511.609 1259.5 509.162 1255.3 508.722L1227.39 505.791C1219.15 504.926 1211.77 510.904 1210.91 519.143C1210.85 519.686 1210.83 520.233 1210.83 520.779Z" fill="white"/>
<path d="M1246.63 583.882L1273.22 575.504C1275.36 571.034 1275.97 565.61 1275.01 559.216C1274.03 552.711 1271.28 547.024 1266.74 542.138L1266.74 542.336L1243.69 541.884C1232.52 542.854 1225.29 546.556 1221.91 552.948C1216.48 563.241 1220.4 575.996 1230.69 581.437C1233.72 583.043 1237.1 583.882 1240.53 583.882H1246.63ZM1247.03 585.332L1245.37 586.144C1233.87 591.791 1229.11 605.707 1234.75 617.227C1235.1 617.928 1235.47 618.612 1235.86 619.233C1241.31 626.823 1251.87 628.553 1259.45 623.098C1259.95 622.737 1260.43 622.349 1260.89 621.935L1271.92 612C1277.84 606.67 1280.62 598.682 1279.29 590.826C1279.2 590.258 1279.1 589.744 1279.01 589.283C1278.48 586.555 1276.61 582.454 1273.41 577.018L1247.03 585.332ZM1244.25 540.393L1266.73 540.834C1268.78 535.275 1269.05 529.078 1267.52 522.228C1266.9 519.452 1266.04 517.097 1264.96 515.161C1263.01 511.692 1259.51 509.383 1255.55 508.968L1227.64 506.037C1219.81 505.215 1212.8 510.901 1211.98 518.737C1211.93 519.254 1211.9 519.772 1211.9 520.292L1211.91 522.31C1211.96 532.278 1220.04 540.334 1230 540.334H1244.25L1244.25 540.393ZM1220.59 552.246C1223.26 547.192 1228.09 543.727 1235.05 541.836H1230C1219.22 541.836 1210.46 533.112 1210.41 522.317L1210.4 520.299C1210.4 519.725 1210.43 519.151 1210.49 518.581C1211.4 509.92 1219.15 503.636 1227.8 504.544L1255.71 507.475C1260.15 507.94 1264.08 510.532 1266.27 514.426C1267.43 516.498 1268.33 518.989 1268.98 521.9C1270.58 529.048 1270.29 535.56 1268.12 541.418C1272.7 546.458 1275.49 552.321 1276.49 558.993C1277.49 565.637 1276.86 571.341 1274.6 576.089C1277.94 581.742 1279.9 586.03 1280.49 588.992C1280.58 589.467 1280.68 589.995 1280.77 590.576C1282.18 598.939 1279.22 607.442 1272.92 613.116L1261.9 623.051C1261.4 623.502 1260.87 623.925 1260.33 624.318C1252.07 630.257 1240.57 628.373 1234.61 620.068C1234.17 619.362 1233.77 618.635 1233.41 617.888C1227.59 606.006 1232.16 591.73 1243.59 585.384H1240.53C1236.85 585.384 1233.23 584.485 1229.98 582.765C1218.97 576.935 1214.76 563.272 1220.59 552.246ZM1229.98 510.035C1230.39 510.029 1230.73 510.36 1230.74 510.775C1230.74 511.19 1230.41 511.53 1230 511.536C1224.47 511.615 1222.02 514.922 1222.49 521.848C1222.97 528.806 1225.43 531.928 1229.94 531.613C1230.36 531.584 1230.71 531.896 1230.74 532.309C1230.77 532.723 1230.46 533.082 1230.05 533.111C1224.56 533.494 1221.52 529.642 1221 521.951C1220.47 514.228 1223.51 510.126 1229.98 510.035ZM1237.15 552.851C1237.56 552.816 1237.92 553.123 1237.96 553.536C1237.99 553.949 1237.69 554.313 1237.27 554.347C1231.76 554.811 1229.55 558.281 1230.5 565.158C1231.46 572.065 1234.14 575.008 1238.62 574.379C1239.03 574.321 1239.41 574.607 1239.46 575.018C1239.52 575.429 1239.23 575.808 1238.82 575.866C1233.38 576.631 1230.08 573 1229.02 565.364C1227.95 557.698 1230.7 553.394 1237.15 552.851ZM1247.66 596.636C1248.07 596.551 1248.46 596.812 1248.55 597.218C1248.63 597.624 1248.37 598.021 1247.97 598.106C1242.56 599.238 1240.78 602.952 1242.57 609.661C1244.36 616.399 1247.37 618.995 1251.74 617.824C1252.14 617.717 1252.55 617.955 1252.66 618.356C1252.77 618.756 1252.53 619.168 1252.13 619.275C1246.82 620.698 1243.1 617.496 1241.12 610.047C1239.12 602.568 1241.33 597.96 1247.66 596.636Z" fill="#263E4B"/>
<path fill-rule="evenodd" clip-rule="evenodd" d="M597.971 730.988L622.25 984.547H634.75L622.845 728.546C622.533 721.829 616.834 716.636 610.116 716.948C609.91 716.958 609.705 716.973 609.5 716.993C602.455 717.68 597.296 723.942 597.971 730.988Z" fill="white"/>
<path d="M597.224 730.588L621.568 984.824H635.536L623.594 728.039C623.263 720.908 617.213 715.395 610.081 715.727C609.863 715.737 609.645 715.753 609.427 715.774C601.97 716.501 596.51 723.129 597.224 730.588ZM622.932 983.324L598.718 730.445C598.082 723.81 602.939 717.914 609.573 717.267C609.765 717.248 609.958 717.234 610.151 717.225C616.455 716.932 621.803 721.805 622.096 728.109L633.964 983.324H622.932Z" fill="#263E4B"/>
<path d="M616.123 991.866C615.966 992.25 615.528 992.434 615.145 992.277C614.761 992.12 614.578 991.682 614.735 991.299C624.63 967.105 630.39 950.199 632.011 940.624C632.08 940.216 632.467 939.941 632.875 940.01C633.284 940.079 633.559 940.466 633.49 940.875C631.845 950.591 626.058 967.574 616.123 991.866ZM631.461 907.214C631.593 907.606 631.381 908.031 630.989 908.163C630.596 908.295 630.171 908.083 630.039 907.69C625.635 894.558 616.738 883.354 603.323 874.069C602.983 873.833 602.898 873.366 603.133 873.025C603.369 872.685 603.836 872.6 604.177 872.835C617.847 882.297 626.95 893.76 631.461 907.214ZM620.701 960.394C620.53 960.772 620.086 960.939 619.709 960.768C619.331 960.597 619.164 960.152 619.335 959.775C620.673 956.823 621.569 954.418 622.022 952.571C628.247 927.189 624.388 908.641 613.367 895.458C613.101 895.14 613.143 894.667 613.461 894.401C613.779 894.136 614.252 894.178 614.518 894.496C625.853 908.055 629.814 927.095 623.478 952.928C623 954.879 622.074 957.365 620.701 960.394ZM603.022 718.592C602.97 718.182 603.26 717.806 603.671 717.754C604.082 717.701 604.458 717.992 604.51 718.403C611.009 769.35 635.399 796.294 677.785 799.457C678.198 799.488 678.508 799.848 678.477 800.261C678.446 800.674 678.086 800.984 677.673 800.953C634.525 797.733 609.606 770.205 603.022 718.592ZM614.003 717.82C613.964 717.408 614.267 717.042 614.679 717.003C615.092 716.964 615.458 717.266 615.497 717.679C619.757 762.541 640.037 785.929 676.473 788.61C676.886 788.641 677.196 789 677.166 789.413C677.136 789.827 676.776 790.137 676.363 790.106C639.141 787.367 618.328 763.365 614.003 717.82Z" fill="#263E4B"/>
<path fill-rule="evenodd" clip-rule="evenodd" d="M1013.25 319.84C1011.32 319.84 1009.75 318.047 1009.75 315.836C1009.75 313.624 1011.32 311.831 1013.25 311.831C1015.18 311.831 1016.75 313.624 1016.75 315.836C1016.75 318.047 1015.18 319.84 1013.25 319.84ZM1044.25 319.84C1042.32 319.84 1040.75 318.047 1040.75 315.836C1040.75 313.624 1042.32 311.831 1044.25 311.831C1046.18 311.831 1047.75 313.624 1047.75 315.836C1047.75 318.047 1046.18 319.84 1044.25 319.84ZM1006.32 312.317C1006.05 312.633 1005.58 312.672 1005.27 312.404C1004.95 312.136 1004.91 311.663 1005.18 311.346C1005.3 311.205 1005.51 310.97 1005.81 310.673C1006.31 310.181 1006.86 309.689 1007.47 309.229C1009.25 307.889 1011.11 307.076 1012.99 307.076C1015.71 307.076 1017.19 307.726 1018.69 309.375C1018.93 309.635 1019.17 309.919 1019.49 310.309C1019.58 310.423 1020.15 311.137 1020.33 311.357C1020.59 311.679 1020.54 312.152 1020.22 312.414C1019.9 312.675 1019.43 312.627 1019.17 312.306C1018.99 312.08 1018.41 311.365 1018.32 311.255C1018.02 310.886 1017.8 310.621 1017.59 310.386C1016.37 309.051 1015.29 308.578 1012.99 308.578C1011.5 308.578 1009.92 309.267 1008.38 310.429C1007.82 310.845 1007.32 311.292 1006.87 311.739C1006.6 312.004 1006.41 312.207 1006.32 312.317ZM1038.34 312.296C1038.08 312.622 1037.61 312.678 1037.29 312.422C1036.96 312.165 1036.9 311.693 1037.16 311.367C1037.27 311.226 1037.47 310.991 1037.75 310.693C1038.21 310.2 1038.73 309.707 1039.3 309.246C1040.96 307.896 1042.7 307.076 1044.47 307.076C1047.02 307.076 1048.43 307.736 1049.83 309.395C1050.05 309.656 1050.27 309.94 1050.56 310.33C1050.65 310.444 1051.18 311.158 1051.35 311.378C1051.6 311.709 1051.53 312.18 1051.2 312.43C1050.87 312.68 1050.4 312.615 1050.15 312.284C1049.98 312.059 1049.45 311.343 1049.37 311.233C1049.09 310.865 1048.88 310.6 1048.68 310.365C1047.56 309.041 1046.58 308.578 1044.47 308.578C1043.11 308.578 1041.66 309.259 1040.24 310.412C1039.73 310.827 1039.26 311.273 1038.85 311.719C1038.6 311.984 1038.43 312.186 1038.34 312.296ZM1033.08 326.097H1038.98L1032.38 309.1C1032.23 308.714 1032.42 308.279 1032.8 308.128C1033.19 307.978 1033.62 308.169 1033.77 308.556L1040.77 326.576C1040.97 327.068 1040.6 327.599 1040.08 327.599H1033.08C1032.66 327.599 1032.33 327.263 1032.33 326.848C1032.33 326.433 1032.66 326.097 1033.08 326.097ZM1029.43 336.52C1029.06 336.716 1028.61 336.578 1028.41 336.213C1028.22 335.847 1028.36 335.392 1028.72 335.196C1031.44 333.739 1034.05 333.739 1036.47 335.218C1036.82 335.434 1036.93 335.896 1036.72 336.25C1036.5 336.604 1036.04 336.715 1035.68 336.498C1033.74 335.307 1031.69 335.307 1029.43 336.52Z" fill="#263E4B"/>
<path fill-rule="evenodd" clip-rule="evenodd" d="M477.75 776.302L517.75 899.939L715.25 873.409V728.75L520.141 767.815L517.75 784.811L504.954 770.855L477.75 776.302Z" fill="white"/>
<path d="M505.507 769.891C505.33 769.697 505.064 769.61 504.807 769.662L477.603 775.109C477.163 775.197 476.898 775.649 477.036 776.075L517.036 899.712C517.148 900.057 517.491 900.273 517.85 900.224L715.35 873.695C715.722 873.645 716 873.327 716 872.952V728.292C716 727.818 715.567 727.463 715.103 727.556L519.994 766.621C519.681 766.684 519.442 766.937 519.398 767.252L517.229 782.675L505.507 769.891ZM504.687 771.216L517.197 784.861C517.626 785.328 518.404 785.086 518.493 784.458L520.809 767.988L714.5 729.207V872.296L518.271 898.654L478.723 776.414L504.687 771.216Z" fill="#263E4B"/>
<path fill-rule="evenodd" clip-rule="evenodd" d="M433.75 1120.46H500.25C526.444 1052.22 550.493 1009.61 572.398 992.633C573.692 991.63 565.976 980.514 549.25 959.285C560.092 967.868 567.592 973.374 571.75 975.804C573.708 976.948 573.875 960.597 572.25 926.75L590.154 981.007C596.971 977.58 602.169 975.178 605.75 973.802C656.083 954.447 697.417 1003.33 729.75 1120.46H1405.75" fill="white"/>
<path d="M571.372 976.213C572.085 976.629 572.729 976.243 573.08 975.492C573.308 975.004 573.483 974.265 573.626 973.247C573.897 971.306 574.052 968.285 574.094 964.167C574.168 956.882 573.888 946.142 573.253 931.943L589.442 981.003C589.586 981.438 590.082 981.644 590.491 981.438C597.287 978.022 602.466 975.629 606.019 974.263C655.761 955.136 696.798 1003.67 729.027 1120.42C729.117 1120.75 729.413 1120.97 729.75 1120.97H1405.75C1406.16 1120.97 1406.5 1120.64 1406.5 1120.22C1406.5 1119.81 1406.16 1119.47 1405.75 1119.47H730.321C697.905 1002.36 656.327 953.311 605.481 972.863C602.01 974.197 597.051 976.478 590.594 979.708L572.962 926.276C572.689 925.447 571.459 925.675 571.501 926.547C572.313 943.457 572.677 955.994 572.594 964.152C572.552 968.21 572.4 971.177 572.14 973.039C572.033 973.803 571.909 974.367 571.781 974.712C567.596 972.206 560.232 966.784 549.715 958.459C549.018 957.907 548.11 958.812 548.661 959.511C557.015 970.114 563.118 978.19 566.965 983.733C568.878 986.489 570.23 988.614 571.016 990.097C571.394 990.81 571.634 991.363 571.737 991.741C571.757 991.814 571.77 991.876 571.778 991.926C549.826 1009.05 525.84 1051.55 499.735 1119.47H433.75C433.336 1119.47 433 1119.81 433 1120.22C433 1120.64 433.336 1120.97 433.75 1120.97H500.25C500.561 1120.97 500.839 1120.78 500.95 1120.49C527.097 1052.37 551.094 1009.85 572.857 992.987C574.087 992.034 572.581 989.193 568.197 982.878C564.945 978.193 560.103 971.724 553.67 963.47C561.939 969.901 567.834 974.145 571.372 976.213Z" fill="#263E4B"/>
<path d="M1020.98 238H992.571C979.81 238 969.449 248.293 969.322 261.039L952.459 285.375C952.114 285.873 952.47 286.554 953.075 286.554H1067.08C1067.74 286.554 1068.07 285.758 1067.62 285.282L1043.22 259.969C1043.06 247.808 1033.16 238 1020.98 238ZM970.688 261.704C970.775 261.578 970.821 261.429 970.821 261.276C970.821 249.25 980.559 239.502 992.571 239.502H1020.98C1032.44 239.502 1041.73 248.802 1041.73 260.275C1041.73 260.469 1041.8 260.656 1041.94 260.796L1065.31 285.052H954.509L970.688 261.704Z" fill="#263E4B"/>
<path fill-rule="evenodd" clip-rule="evenodd" d="M1042.17 260.775L969.75 261.776L964.75 269.285H1050.25L1042.17 260.775Z" fill="#BAD9EA"/>
<path d="M1042.66 259.524L970.24 260.525C969.993 260.529 969.763 260.654 969.626 260.859L964.626 268.368C964.294 268.867 964.651 269.535 965.25 269.535H1050.75C1051.41 269.535 1051.75 268.745 1051.29 268.267L1043.21 259.757C1043.07 259.606 1042.87 259.521 1042.66 259.524ZM1049 268.033H966.652L970.655 262.021L1042.35 261.03L1049 268.033Z" fill="#263E4B"/>
<path fill-rule="evenodd" clip-rule="evenodd" d="M839.25 1100.7L830.75 1141.75H863.75H991.75C984.368 1126.15 975.702 1115.31 965.75 1109.21C955.798 1103.12 937.632 1100.28 911.25 1100.7L924.75 1030.63L843.75 1031.13L842.75 1083.68L839.25 1100.7Z" fill="white"/>
<path fill-rule="evenodd" clip-rule="evenodd" d="M1056.75 1094.7V1142.25L1076.75 1141.75H1204.75C1197.37 1126.15 1188.7 1115.31 1178.75 1109.21C1168.8 1103.12 1150.63 1100.28 1124.25 1100.7L1136.75 1031.75L1049.25 1031.13L1055.75 1083.68L1056.75 1094.7Z" fill="white"/>
<path fill-rule="evenodd" clip-rule="evenodd" d="M842.75 1084.19C850.406 1085.42 856.406 1090.26 860.75 1098.7C865.094 1107.14 867.428 1118.48 867.75 1132.74L832.75 1132.24" fill="#BAD9EA"/>
<path fill-rule="evenodd" clip-rule="evenodd" d="M1056.75 1084.19C1070.41 1087.43 1079.41 1093.27 1083.75 1101.7C1088.09 1110.14 1090.09 1120.49 1089.75 1132.74L1056.75 1132.24V1084.19Z" fill="#BAD9EA"/>
<path d="M867.622 1030.73L873.19 992.332H861.25V990.832H873.407L876.383 970.308H865.75V968.808H923.75V970.308H912.124L908.321 990.832H919.25V992.332H908.043L900.967 1030.52L925.659 1030.37L914.599 1087.78L918.419 1077.31C918.579 1076.87 918.779 1076.44 919.016 1076.04C921.185 1072.35 925.938 1071.11 929.633 1073.28C930.255 1073.64 930.816 1074.1 931.294 1074.64C933.802 1077.48 933.54 1081.8 930.707 1084.31L912.931 1100.06C916.277 1099.22 924.492 1097.11 936.561 1093.97C936.962 1093.87 937.371 1094.11 937.476 1094.51C937.58 1094.91 937.34 1095.32 936.939 1095.42C928.147 1097.71 921.806 1099.35 917.622 1100.42C940.708 1100.52 956.869 1103.39 966.142 1109.07C976.233 1115.26 984.989 1126.21 992.428 1141.93L992.935 1143H829.829L838.515 1101.05L842.001 1084.1L843.014 1030.88L867.622 1030.73ZM869.139 1030.72L883.644 1030.63L889.505 992.332H874.705L869.139 1030.72ZM885.163 1030.62L899.44 1030.53L906.517 992.332H891.023L885.163 1030.62ZM911.885 1101.94C911.821 1101.96 911.755 1101.96 911.688 1101.96L894.772 1102.45C894.358 1102.47 894.012 1102.14 894 1101.73C893.988 1101.31 894.314 1100.97 894.728 1100.95L909.835 1100.51L891.546 1084.31C888.714 1081.8 888.451 1077.48 890.959 1074.64C891.437 1074.1 891.998 1073.64 892.62 1073.28C896.315 1071.11 901.069 1072.35 903.237 1076.04C903.474 1076.44 903.674 1076.87 903.834 1077.31L911.127 1097.31L911.361 1096.66L923.84 1031.88L844.486 1032.37L843.511 1083.62C859.08 1088.25 868.006 1104.27 868.489 1131.49H985.121C979.216 1121.85 972.626 1114.8 965.358 1110.35C955.637 1104.4 937.798 1101.58 911.885 1101.94ZM912.811 1097.06L912.557 1098.38L929.713 1083.19C931.925 1081.23 932.13 1077.85 930.171 1075.64C929.797 1075.22 929.36 1074.86 928.874 1074.57C925.893 1072.82 922.059 1073.82 920.31 1076.8C920.119 1077.13 919.957 1077.47 919.828 1077.82L912.811 1097.06ZM986.022 1132.99H833.434L831.671 1141.5H990.559C989.096 1138.48 987.584 1135.64 986.022 1132.99ZM833.744 1131.49H866.989C866.514 1105.02 857.983 1089.63 843.321 1085.13L839.984 1101.36L833.744 1131.49ZM902.425 1077.82C902.296 1077.47 902.135 1077.13 901.943 1076.8C900.194 1073.82 896.36 1072.82 893.379 1074.57C892.893 1074.86 892.456 1075.22 892.082 1075.64C890.123 1077.85 890.328 1081.23 892.54 1083.19L910.031 1098.68L902.425 1077.82ZM910.598 970.308H894.394L891.252 990.832H906.795L910.598 970.308ZM892.876 970.308H877.899L874.923 990.832H889.735L892.876 970.308Z" fill="#263E4B"/>
<path fill-rule="evenodd" clip-rule="evenodd" d="M836.25 496.535H819.75L837.75 468.004" fill="#BAD9EA"/>
<path d="M1066.83 1030.48L1061.29 992.332H1051.75V990.832H1061.08L1058.1 970.308H1048.75V968.808H1109.25V970.308H1096.33L1098.4 990.832H1109.75V992.332H1098.55L1102.41 1030.68L1137.64 1030.88L1126.23 1097.01L1133.42 1077.31C1133.58 1076.87 1133.78 1076.44 1134.02 1076.04C1136.18 1072.35 1140.94 1071.11 1144.63 1073.28C1145.26 1073.64 1145.82 1074.1 1146.29 1074.64C1148.8 1077.48 1148.54 1081.8 1145.71 1084.31L1128.73 1099.35C1132.96 1098.28 1140.07 1096.44 1149.56 1093.97C1149.96 1093.87 1150.37 1094.11 1150.48 1094.51C1150.58 1094.91 1150.34 1095.32 1149.94 1095.42C1141.15 1097.71 1134.81 1099.35 1130.63 1100.41C1153.98 1100.48 1170.3 1103.35 1179.64 1109.07C1189.73 1115.26 1198.49 1126.21 1205.93 1141.93L1206.43 1143H1056.01L1056 1142.26L1055.51 1084.28L1048.39 1030.37L1066.83 1030.48ZM1068.34 1030.49L1083.4 1030.57L1080.02 992.332H1062.81L1068.34 1030.49ZM1084.91 1030.58L1100.9 1030.67L1097.04 992.332H1081.52L1084.91 1030.58ZM1056.9 1083.45C1078.63 1087.83 1089.84 1103.92 1090.49 1131.49H1198.62C1192.72 1121.85 1186.13 1114.8 1178.86 1110.35C1169.17 1104.42 1151.43 1101.6 1125.67 1101.94C1125.57 1101.96 1125.47 1101.96 1125.37 1101.94C1125.19 1101.95 1125.01 1101.95 1124.83 1101.95C1124.79 1101.96 1124.74 1101.96 1124.69 1101.96L1107.77 1102.45C1107.36 1102.47 1107.01 1102.14 1107 1101.73C1106.99 1101.31 1107.31 1100.97 1107.73 1100.95L1122.84 1100.51L1104.55 1084.31C1101.71 1081.8 1101.45 1077.48 1103.96 1074.64C1104.44 1074.1 1105 1073.64 1105.62 1073.28C1109.32 1071.11 1114.07 1072.35 1116.24 1076.04C1116.47 1076.44 1116.67 1076.87 1116.83 1077.31L1124.49 1098.3L1135.86 1032.37L1050.11 1031.88L1056.9 1083.45ZM1057.01 1085L1057.41 1131.49H1088.98C1088.35 1104.76 1077.71 1089.34 1057.01 1085ZM1199.52 1132.99H1057.42L1057.49 1141.5H1204.06C1202.6 1138.48 1201.08 1135.64 1199.52 1132.99ZM1115.43 1077.82C1115.3 1077.47 1115.13 1077.13 1114.94 1076.8C1113.19 1073.82 1109.36 1072.82 1106.38 1074.57C1105.89 1074.86 1105.46 1075.22 1105.08 1075.64C1103.12 1077.85 1103.33 1081.23 1105.54 1083.19L1123.03 1098.68L1115.43 1077.82ZM1134.83 1077.82L1127.22 1098.68L1144.71 1083.19C1146.93 1081.23 1147.13 1077.85 1145.17 1075.64C1144.8 1075.22 1144.36 1074.86 1143.87 1074.57C1140.89 1072.82 1137.06 1073.82 1135.31 1076.8C1135.12 1077.13 1134.96 1077.47 1134.83 1077.82ZM1094.82 970.308H1079.57L1081.39 990.832H1096.89L1094.82 970.308ZM1078.06 970.308H1059.62L1062.59 990.832H1079.88L1078.06 970.308Z" fill="#263E4B"/>
<path d="M578.908 829.845L580.384 839.163L571.81 840.521L572.917 847.51L561.895 849.255L560.788 842.267L530.537 847.058L529.061 837.74L555.098 806.342L566.121 804.597L570.335 831.203L578.908 829.845ZM540.941 835.858L559.312 832.948L556.846 817.377L540.941 835.858ZM609.573 842.332C592.549 845.029 583.223 838.462 580.961 824.178C578.708 809.955 585.558 800.889 602.582 798.193C619.544 795.507 628.932 802.064 631.175 816.225C633.427 830.448 626.535 839.646 609.573 842.332ZM608.107 833.075C617.782 831.543 621.424 826.002 620.152 817.971C618.89 810.001 613.723 805.918 604.048 807.45C594.373 808.983 590.711 814.401 591.983 822.432C593.265 830.524 598.431 834.608 608.107 833.075ZM685.46 812.969L686.935 822.287L678.362 823.645L679.469 830.633L668.447 832.379L667.34 825.391L637.089 830.182L635.613 820.864L661.65 789.466L672.672 787.72L676.886 814.326L685.46 812.969ZM647.493 818.982L665.864 816.072L663.398 800.501L647.493 818.982Z" fill="#BAD9EA"/>
<path d="M580.01 828.495L581.721 839.295L573.148 840.653L574.255 847.641L561.751 849.622L560.644 842.633L530.393 847.424L528.746 837.03L555.18 805.154L567.223 803.247L571.437 829.853L580.01 828.495ZM570.19 831.569L565.976 804.963L555.974 806.547L530.334 837.466L531.64 845.708L561.891 840.917L562.997 847.906L572.538 846.394L571.432 839.406L580.005 838.048L578.764 830.211L570.19 831.569ZM539.518 836.427L557.812 815.169L560.649 833.08L539.518 836.427ZM558.933 831.833L556.837 818.602L543.322 834.306L558.933 831.833ZM610.169 842.581C593.055 845.292 583.072 838.787 580.699 823.804C578.337 808.888 585.822 799.672 602.944 796.961C620.001 794.259 630.042 800.759 632.395 815.616C634.758 830.541 627.22 839.881 610.169 842.581ZM609.935 841.1C626.199 838.524 633.142 829.922 630.913 815.85C628.696 801.85 619.451 795.865 603.178 798.442C586.842 801.03 579.954 809.51 582.181 823.569C584.419 837.699 593.606 843.686 609.935 841.1ZM608.703 833.324C598.926 834.873 593.115 830.853 591.722 822.058C590.339 813.331 594.628 807.767 604.41 806.218C614.168 804.672 619.996 808.673 621.372 817.362C622.759 826.118 618.458 831.779 608.703 833.324ZM608.468 831.843C617.419 830.425 621.145 825.52 619.89 817.596C618.647 809.744 613.602 806.28 604.644 807.699C595.663 809.122 591.954 813.934 593.203 821.823C594.464 829.785 599.495 833.264 608.468 831.843ZM686.562 811.619L688.273 822.419L679.7 823.776L680.806 830.765L668.302 832.746L667.195 825.757L636.945 830.548L635.298 820.154L661.732 788.278L673.775 786.371L677.989 812.977L686.562 811.619ZM676.742 814.693L672.528 788.087L662.526 789.671L636.886 820.589L638.191 828.832L668.442 824.041L669.549 831.029L679.09 829.518L677.983 822.53L686.557 821.172L685.315 813.335L676.742 814.693ZM646.07 819.551L664.364 798.293L667.201 816.204L646.07 819.551ZM665.485 814.957L663.389 801.725L649.874 817.43L665.485 814.957Z" fill="#263E4B"/>
<path d="M837.555 467.199C837.646 466.858 837.723 466.54 837.787 466.247L838.607 448.937C839.966 420.242 863.601 397.676 892.297 397.676H948.75V399.178H892.297C864.402 399.178 841.427 421.114 840.105 449.008L839.867 454.041C842.518 443.862 847.631 434.756 855.212 426.936C866.64 415.149 880.792 421.024 897.359 444.039C897.601 444.375 897.525 444.845 897.189 445.087C896.853 445.33 896.384 445.253 896.142 444.917C880.041 422.549 866.86 417.078 856.288 427.982C846.339 438.245 840.753 450.76 839.497 465.066C839.462 465.464 839.39 465.922 839.28 466.443L836.999 514.591L835.501 514.52L836.341 496.786H820.25C819.66 496.786 819.301 496.134 819.616 495.634L837.555 467.199ZM836.412 495.284L837.613 469.919L821.611 495.284H836.412Z" fill="#263E4B"/>
<path d="M1058.91 534.404C1058.5 534.388 1058.17 534.039 1058.19 533.625C1058.2 533.21 1058.55 532.887 1058.97 532.903C1064.49 533.114 1067.12 529.94 1067 522.998C1066.89 516.025 1064.6 512.778 1060.08 512.857C1059.66 512.865 1059.32 512.534 1059.31 512.12C1059.31 511.705 1059.64 511.363 1060.05 511.356C1065.55 511.26 1068.38 515.266 1068.5 522.974C1068.63 530.714 1065.37 534.651 1058.91 534.404ZM1057.31 587.219C1056.9 587.182 1056.59 586.817 1056.63 586.404C1056.67 585.991 1057.03 585.686 1057.45 585.724C1062.95 586.224 1065.74 583.191 1065.99 576.253C1066.24 569.284 1064.12 565.921 1059.6 565.763C1059.19 565.749 1058.86 565.401 1058.88 564.987C1058.89 564.572 1059.24 564.248 1059.65 564.263C1065.15 564.455 1067.77 568.603 1067.49 576.307C1067.21 584.043 1063.75 587.804 1057.31 587.219ZM1024.53 645.662C1024.15 645.495 1023.97 645.053 1024.14 644.673C1024.31 644.293 1024.75 644.12 1025.13 644.286C1030.22 646.52 1033.62 645.055 1035.68 639.722C1037.75 634.353 1036.66 631.04 1032.41 629.407C1032.02 629.258 1031.83 628.824 1031.98 628.437C1032.13 628.05 1032.56 627.856 1032.95 628.005C1038.05 629.962 1039.43 634.173 1037.08 640.262C1034.72 646.386 1030.41 648.242 1024.53 645.662ZM970.525 445.786L971.975 446.173C969.239 456.445 963.53 462.507 954.897 464.235L954.603 462.763C962.637 461.154 967.928 455.536 970.525 445.786Z" fill="#263E4B"/>
<path d="M886.526 465.695L888.526 473.203C888.632 473.604 889.043 473.842 889.443 473.735C889.844 473.628 890.082 473.217 889.975 472.816L887.975 465.308C887.868 464.907 887.457 464.669 887.057 464.776C886.657 464.883 886.419 465.294 886.526 465.695Z" fill="#263E4B"/>
<path d="M887.082 466.233L893.582 467.735C893.985 467.828 894.388 467.576 894.481 467.172C894.574 466.768 894.322 466.365 893.919 466.272L887.419 464.77C887.015 464.677 886.613 464.929 886.519 465.333C886.426 465.737 886.678 466.14 887.082 466.233Z" fill="#263E4B"/>
<path d="M1169.32 470.986C1164.27 464.881 1155.48 464.236 1148.23 469.009C1145.4 470.868 1143.35 473.517 1142.38 476.543C1139.94 484.17 1149.52 503.659 1171.13 535.5C1171.36 535.843 1171.83 535.932 1172.17 535.699C1172.51 535.466 1172.6 534.999 1172.37 534.656C1151.11 503.333 1141.59 483.951 1143.81 477.001C1144.67 474.308 1146.51 471.937 1149.05 470.263C1155.7 465.887 1163.63 466.469 1168.17 471.945C1168.43 472.264 1168.91 472.308 1169.22 472.043C1169.54 471.779 1169.59 471.305 1169.32 470.986Z" fill="#263E4B"/>
</svg>
