<svg xmlns="http://www.w3.org/2000/svg" viewBox="0 0 1920 1080" style="enable-background:new 0 0 1920 1080" xml:space="preserve"><style>.st1{fill:#74baab}.st2{fill:#93b4f6}.st3{fill:#274d76}.st4{fill:#fdffff}.st5{fill:#fff3a1}.st7{fill:#f2bdba}.st8{fill:#fff}</style><g id="BG"><path class="st1" d="M1163.38 526.52c-3.73-12.53-13.4-22.1-31.27-19.67l-85.4 11.41c-10.26 1.05-14.16-9.1-4.55-11.83l71.02-21.12c27.42-7.42 37.23-24.37 37.65-43.98.28-13.33-10.08-24.62-23.08-25.17-15.68-.66-36.9 8.6-84.2 15.32-7.58 1.08-9.33-1.51-7.64-6.45 4.54-13.35 42.2-19.94 59.91-21.53 21.29-1.91 22.56-15.98 24.88-22.58 7.02-19.93.15-95.01-4.04-118-.94-5.16-5.87-7.9-13.15-7.03-24.96 3-102.29 48.63-131.65 65.8-7.75 4.53-12.82 15.61-4.26 39.49 5.84 16.28 3.42 34.75-2.94 42.94-4.61 5.93-10.53 4.62-12.4-1.8-5.97-20.44-12.91-40.27-12.91-40.27-3.6-13.19-20.34-17.04-33.94-11.05-11.58 5.1-16.38 6.52-28.91 13.18-21.27 11.32-29.73 31-20.82 48.69l32.41 64.32c3.45 6.84-10.36 11.12-15.2 4.71l-44.72-59.21c-6.99-10.09-26.65-11.36-36.2-2.37-5.31 5-14.77 18.28-19.12 24.09-10.71 14.3-7.04 25.84 2.11 41.19l35.39 58.48c6.21 11.05-2.36 15.22-5.94 11.05-12.95-15.11-37.34-48.31-37.34-48.31-6.69-9.33-21.11-7.29-24.94 3.53-4.35 12.28-10.92 31.65-12.26 35.44l52.31 286.63 374.95-2.65 10.04-289.4c-1.17-4.66-2.43-9.27-3.79-13.85z"/><path class="st2" d="M818.1 699.3c-4.02.17-5.77-2.92-2.48-5.23 2.12-1.48 3.84-2.75 4.45-3.34 6.19-6.05 6.34-11.61 4.83-17.76-4.19-17.05-14.28-33.06-21.08-39.78-4.25-4.2-11.41-3.66-15.46.73l-1.12 1.21c-2.49 2.7-6.72-.58-4.73-3.66l9.69-15.04c2.51-3.9 3.02-8.78 1.35-13.11-17.09-44.07-36.26-59.17-53.49-70-7.27-4.57-16.88-.8-19.01 7.52l-13.57 52.89c-1.58 6.16-10.74 4.5-10.06-1.82l6.04-56.19c.57-6.13-.67-13.32-5.86-16.63-12.21-7.79-35.09-12.36-53.49-13.27-4.63-.23-8.5 3.47-8.42 8.11l.79 44.67c-.21 7.39-9.71 5.75-10.95-1.54l-8.46-43.85c-1.59-5.92-5.92-10.23-11.95-11.36-26.9-5.08-53.28-6.35-70.2-4.11-12.75 1.68-15.48 14.65-13.47 24.04l9.14 44.03c2.02 6.63 4.57 9.77 11.38 11.02l46.69 8.12c7.49.63 7.74 7.48.31 8.59-21.41 3.2-41.95 5.87-55.1 8.31-4.08.76-7.16 4.16-7.47 8.3-.67 8.9-2.32 18.81 5.07 27.28 7.82 8.95 46.08 13.21 81.85 20.39 5.27 1.06 5.94 5.41.75 6.81 0 0-46.14 6.72-61.79 15.26-10.61 5.78-11.36 11.17-10.8 22.23.34 6.61 1.78 17.31 3.16 26.47 1.52 10.11 9.83 17.83 20.03 18.58 0 0 40.7 2.63 53.9 6.46 8.78 2.55 1.84 8.29-2.57 10.44-11.73 5.71-33.98 16.96-33.98 16.96-10.58 4.97-15.02 16.15-15.07 27.84-.03 7.92 1.22 23.72 1.22 23.72h265.47s9.9-62.36-1.71-127.04c-.7-3.88-4.17-6.63-8.1-6.46l-5.73.21z"/><path class="st3" d="M631.34 813.31c-6.47-23.96 84.65-50.46 99.72 18.36-16.35.03-7.11 0-27.59 0-31.49-19.57-67.42-.9-72.13-18.36z"/><path class="st4" d="M623.51 726.65c-1.05-6.9 4.87-13.01 11.65-14.63 45.46-10.83 51.27 22.45 56.7 28.89 3.84 4.55 14.4 1.8 20.04 8.47 3.66 4.33-.71 17.5 3.56 23.46 4.69 6.54 11.77 1.2 17.33 9.41 4.87 7.19-5.09 14.89-1.86 22.66 4.24 10.21 18.96 5.98 10.63 25.26-7.13-.03-8.58-.05-8.58-.05s-20.62-2.5-18.13-17.95c1.05-6.49-15.78-1.83-19.8-7.82-3.21-4.78 1.8-9.26-4.12-11.66-3.67-1.49-17.16.46-20.83-7.32-2.8-5.92 4.64-13.13-4.23-15.4-19.89-5.1-37.5-11.3-42.36-43.32z"/><path class="st4" d="M724.59 787.96c5.49-16.39 7.03-33.13 17.44-36.9 7.53-2.73 9.5 3.98 14.87 2.48 7.49-2.09 6.74-37.84 54.59-34.2 14.63 1.11 23.66 25.15-2.41 32.59-13.92 3.98 1.92 6.04-2.35 13.62-6.02 10.68-29.64 5.73-37.19 15.68-4.46 5.88 3.44 16.57-4.41 32.04-1.84 3.63-3.96 7.1-6.13 10.28-6.04 8.87-19.47 7.6-23.72-2.25-5.59-12.96-12.3-28.53-10.69-33.34z"/><path class="st4" d="M729.47 817.22c-5.7-20.07-8.47-40.59-7.9-59.03.81-25.9 8.13-46.17 21.16-58.61l4.14 4.34c-24.14 23.03-23 72.09-11.3 112.79 1.29 4.44-4.72 5.38-6.1.51z"/><path class="st3" d="m716.37 699.87 34.99-1.32-2.86 8.74 9.83 13.89c.83 1.42-1.19 3.31-3.72 2.53-2.44-.74-4.94-3.32-6.51-5.97-.8-1.35-1.86-.49-1.8.5.15 2.5.32 6.76.32 6.76.17 2.59-1.89 3.27-4.38.44-3.42-3.89-3.79-8.38-4.25-11.73-.16-1.15-1.33-1.62-2.4-1.19 0 0-7.75 2.11-10.28 2.99-3.06 1.07-4.95-1.18-2.5-3.29.95-.82 3.68-3.45 3.68-3.45.75-.6.51-1.79-.42-2.05l-10.04-3.16c-2.77-.77-2.54-3.66.34-3.69z"/><path class="st5" d="m717.53 660.23 2.48.44c1.05.19 1.97-.71 1.82-1.76l-.65-4.47c-.47-3.24 2.96-5.63 5.83-4.05l2 1.1c.97.53 2.17-.09 2.3-1.19l.44-3.76c.32-2.72 3.68-3.82 5.54-1.81l1.45 1.57c.69.75 1.9.64 2.45-.21l3.16-4.88c1.78-2.75 5.88-2.5 7.32.44l1.71 3.51c.46.93 1.68 1.17 2.45.47l2.68-2.43c2.24-2.03 5.84-.71 6.24 2.28l.29 2.13c.14 1 1.18 1.61 2.12 1.24l4.42-1.74c1.8-.71 3.63.97 3.08 2.83l-.4 1.34c-.35 1.17.72 2.27 1.9 1.95l4.52-1.23c3.49-.95 6.22 3.04 4.07 5.95l-1.18 1.6c-.73.98-.09 2.38 1.13 2.48l6.54.53c3.47.28 4.88 4.61 2.24 6.88l-2.03 1.74c-.99.85-.56 2.47.72 2.71l3.32.65c1.85.36 2.3 2.79.71 3.8l-1.41.89c-1.18.75-.86 2.55.51 2.84l2.17.46c2.35.5 2.56 3.77.29 4.57l-2.67.94c-1.24.44-1.42 2.11-.3 2.8l2.52 1.55c2.49 1.54 1.62 5.36-1.29 5.66l-2.26.23c-1.19.12-1.8 1.48-1.11 2.45l1.48 2.1c1.38 1.95-.55 4.52-2.81 3.75l-2.48-.85c-1.06-.36-2.15.48-2.06 1.6l.24 2.99c.13 1.64-1.62 2.76-3.04 1.95l-1.6-.91c-.95-.54-2.15.05-2.31 1.13l-.13.91c-.32 2.15-2.98 3-4.48 1.42l-1.25-1.31c-.85-.89-2.34-.5-2.64.7l-.57 2.28c-.72 2.89-4.56 3.53-6.17 1.02l-1.16-1.81c-.63-.98-2.07-.95-2.66.05l-.32.54c-.62 1.05-2.15 1.02-2.72-.06-.56-1.06-2.06-1.11-2.7-.1l-.48.77c-.71 1.12-2.4.91-2.81-.35l-.42-1.32c-.27-.85-1.2-1.3-2.04-.98l-2.4.91c-1.14.43-2.31-.55-2.09-1.74l.14-.74a1.56 1.56 0 0 0-1.85-1.81l-2.5.51c-1.04.21-1.99-.65-1.86-1.71l.1-.9c.13-1.09-.87-1.96-1.93-1.69l-3.14.8c-1.29.33-2.38-1.01-1.78-2.21l.19-.37c.53-1.07-.28-2.32-1.48-2.25l-2.94.16c-2.05.11-3.53-1.92-2.79-3.84l.49-1.29a1.57 1.57 0 0 0-1.2-2.1l-4.5-.74c-1.81-.3-2.25-2.7-.67-3.62 1.25-.73.92-2.61-.5-2.88l-2.19-.41c-2.43-.45-2.92-3.73-.72-4.86l.47-.25c1.26-.65 1.07-2.51-.3-2.89l-1.17-.32c-2.59-.71-2.45-4.43.18-4.95 1.47-.29 1.72-2.28.38-2.93l-2.8-1.35c-1.96-.95-1.28-3.9.9-3.89l2.84.02c1.38.01 2.09-1.65 1.13-2.64l-1.36-1.4c-1.09-1.1-.13-2.9 1.36-2.64z"/><path transform="matrix(1 -.00309 .00309 1 -2.16 2.355)" d="M760.26 693.68h2v13.59h-2z"/><path transform="translate(-2.044 2.356)" d="M760.14 655.58h2v13.91h-2z"/><path transform="rotate(-40.917 773.892 698.231)" d="M772.92 690.31h2v15.9h-2z"/><path transform="rotate(-29.464 746.29 662.12)" d="M745.34 654.61h2v15.1h-2z"/><path transform="rotate(-32.478 774.782 668.712)" d="M766.76 667.73h16v2h-16z"/><path transform="rotate(-70.056 731.992 669.907)" d="M730.96 660.39h2v19h-2z"/><path transform="rotate(-81.761 780.083 685.29)" d="M779.11 675.42h2v19.77h-2z"/><path transform="rotate(-39.529 746.21 696.6)" d="M738.1 695.61h16.13v2H738.1z"/><path transform="rotate(-7.862 734.188 683.875)" d="M720.07 682.89h28.25v2h-28.25z"/><path d="m743.59 795.46-1.76-.96c16.43-30.1 52.08-57.8 52.44-58.08l1.22 1.58c-.34.29-35.67 27.73-51.9 57.46zm-34.95-7.85c-21.92-31.19-39.66-42.63-51.4-50.2-1.38-.89-2.69-1.73-3.91-2.55l1.11-1.66c1.21.81 2.51 1.65 3.89 2.53 11.87 7.65 29.81 19.22 51.95 50.73l-1.64 1.15zM529.7 802.54l-1.95-.43c2.15-9.77 1.97-13.99 1.45-15.8-.62-2.14-1.62-3.39-2.98-3.7-1.81-.42-4.34.85-6.59 3.31-2.09 2.29-4.7 3.14-6.99 2.26-2.3-.88-3.75-3.28-3.78-6.27-.15-15.58-3.18-27.75-9.27-37.22-1.73-2.69-4.28-4.3-6.34-4-1.3.19-2.24 1.14-2.71 2.76-.44 1.49-2.34 6.27-8.6 5.06-6.46-1.25-12.19-11.77-15.27-17.42-.46-.84-.83-1.53-1.12-2.02-2.05-3.47-4.74-4.91-7.78-4.18-5.59 1.34-10.93 9.31-11.42 17.05-.21 3.34-.13 7.64.22 11.5l-1.99.18c-.36-3.96-.44-8.37-.22-11.81.55-8.68 6.48-17.32 12.95-18.87 3.92-.94 7.46.87 9.97 5.11.3.51.69 1.22 1.16 2.09 2.71 4.98 8.36 15.35 13.9 16.42 4.3.83 5.79-1.94 6.3-3.66.7-2.39 2.25-3.88 4.35-4.18 2.86-.42 6.12 1.51 8.3 4.9 6.3 9.79 9.43 22.31 9.59 38.28.02 2.15.98 3.84 2.49 4.42 1.51.58 3.26-.05 4.8-1.74 2.78-3.05 5.97-4.51 8.52-3.91 1.45.34 3.41 1.5 4.45 5.09.83 2.95.35 8.6-1.44 16.78z"/><path d="M499.24 824.2c-1-37.34-14.96-65.02-15.1-65.3l1.78-.91c.14.28 14.31 28.34 15.32 66.16l-2 .05z"/><path d="M529.98 832.81c-.39 0-.77 0-1.17-.01l.03-2c11.72.19 20.42-2.42 24.41-7.35 2.23-2.75 2.91-6.14 2.01-10.07-1.08-4.73-4.2-8.17-9.02-9.94-8.78-3.23-22.06-.42-31.57 6.68-11.4 8.51-17.94 22.12-18 22.26l-1.81-.86c.27-.58 6.82-14.2 18.61-23 10.18-7.6 23.94-10.46 33.46-6.95 5.49 2.02 9.04 5.95 10.28 11.38 1.03 4.5.19 8.57-2.41 11.78-4.23 5.22-13.03 8.08-24.82 8.08z"/><path d="M494.77 832.05c-1.99-18.45-6.83-30.04-10.55-36.52-4.01-7-7.6-9.69-7.64-9.72-1.02-.73-1.85-1.05-2.34-.9-.66.21-1.1 1.46-1.49 2.55-.48 1.37-.94 2.66-2.08 3.11-.62.24-1.3.17-2.02-.22-1.63-.87-2.21-2.68-3.07-5.43-1.54-4.87-4.11-13.02-15.05-25.05-3.01-3.31-13.55-13.94-22.59-11.62-2.39.61-4.1 2.16-4.57 4.13-.51 2.1-2.4 3.46-4.51 3.22-3-.34-10.47-.71-14.94 2.97-2.12 1.75-3.32 4.23-3.57 7.38-.84 10.56 12.75 15.25 23.68 19.02 5.44 1.87 10.13 3.49 12.09 5.59.96 1.02 1.01 2.03.88 2.69-.52 2.73-5.08 4.9-8.74 6.64-1.31.62-2.54 1.21-3.09 1.61-1.64 1.19-3.31 3.37-2.6 5.61.54 1.74 3.44 5.83 18.49 6.13 13.55.28 21.69 5.13 26.13 9.15 4.86 4.4 6.46 8.72 6.53 8.9l-1.88.68c-.06-.16-6.23-16.24-30.82-16.74-14.98-.31-19.34-4.27-20.36-7.54-.84-2.68.47-5.76 3.34-7.83.7-.5 1.89-1.07 3.41-1.79 2.73-1.3 7.31-3.48 7.63-5.21.04-.21.03-.51-.38-.95-1.62-1.74-6.31-3.35-11.28-5.07-10.97-3.78-25.99-8.96-25.02-21.07.3-3.71 1.74-6.65 4.29-8.76 4.88-4.03 12.39-3.87 16.43-3.42 1.09.13 2.08-.59 2.35-1.7.65-2.71 2.9-4.8 6.02-5.6 3.27-.84 12.24-1.33 24.56 12.21 11.24 12.36 13.9 20.77 15.48 25.8.74 2.35 1.19 3.78 2.11 4.26.23.12.34.13.36.12.29-.11.7-1.28.92-1.91.54-1.54 1.16-3.29 2.78-3.8 1.15-.36 2.49.03 4.11 1.19.62.45 15.09 11.37 19 47.64l-2 .25zm8.94.63-1.36-1.46c16.74-15.6 35.57-20.51 35.76-20.56l.49 1.94c-.18.04-18.54 4.84-34.89 20.08z"/><path d="M480.6 831.8c-.03-31.19-49.94-63.48-50.44-63.8l1.08-1.69c.13.08 12.95 8.33 25.59 20.41 17.09 16.32 25.76 31.49 25.77 45.08h-2zm913.87-426.48h-227.76c-4.29 0-7.86-1.55-10.32-4.48-2.15-2.56-3.34-6.05-3.34-9.84 0-7.56 4.96-15.59 14.16-15.59h16.28c1.63 0 2.81-.45 3.61-1.37 2.66-3.05 1.52-11.22.09-21.57-.4-2.86-.81-5.82-1.18-8.96l-.07-.57c-1.44-12.01-4.43-37 20.94-46.1 9.79-3.51 14.64-4.86 23.45-7.29 2.29-.63 4.85-1.34 7.85-2.19 7.85-2.21 13.61-2.27 18.69-.19 6.19 2.53 11.22 8.37 15.36 17.84 5.52 12.63 10.09 16.52 17.45 14.85 49.07-11.15 56.9 8.93 64.47 28.35.47 1.2.93 2.39 1.41 3.58 4.92 12.27 10.9 23.62 21.24 23.62h17.17c9.59 0 14.6 7.66 14.6 15.22 0 7.08-4.41 14.69-14.1 14.69zm-227.26-27.9c-7.98 0-12.16 6.84-12.16 13.59 0 3.31 1.02 6.35 2.87 8.55 2.07 2.46 5.11 3.77 8.79 3.77h227.76c8.32 0 12.1-6.58 12.1-12.69 0-6.37-3.94-13.22-12.6-13.22h-17.17c-11.54 0-17.92-11.96-23.1-24.88-.48-1.19-.95-2.39-1.42-3.59-3.63-9.31-7.39-18.95-16-24.68-9.73-6.49-24.84-7.29-46.17-2.44-9.64 2.19-14.7-4.5-19.73-16-8.22-18.8-18.61-20.2-31.67-16.52-3 .84-5.57 1.56-7.86 2.19-9.04 2.5-13.58 3.76-23.31 7.25-23.87 8.56-21.01 32.48-19.63 43.98l.07.57c.37 3.12.78 6.07 1.17 8.93 1.56 11.27 2.69 19.42-.56 23.15-1.19 1.36-2.91 2.05-5.12 2.05h-16.26zM731.84 427h-183.3c-3.48 0-6.38-1.07-8.4-3.08-1.8-1.8-2.79-4.26-2.79-6.93 0-5.27 4.06-10.87 11.59-10.87h13.1c1.41 0 2.39-.35 2.99-1.06 1.77-2.08.85-7.63-.21-14.06-.32-1.94-.65-3.94-.95-6.07l-.05-.39c-1.17-8.23-3.6-25.34 17.03-31.57 7.89-2.38 11.8-3.29 18.89-4.94 1.84-.43 3.9-.91 6.3-1.48 9.84-2.33 20-2.48 27.56 12.07 3.86 7.41 7.21 11.19 13.89 9.91 39.58-7.56 45.92 6.11 52.05 19.33.38.81.75 1.62 1.13 2.42 3.92 8.23 8.69 15.84 16.94 15.84h13.81c7.84 0 11.95 5.34 11.95 10.62.02 4.94-3.59 10.26-11.53 10.26zm-182.89-18.88c-6.29 0-9.59 4.46-9.59 8.87 0 2.13.78 4.09 2.2 5.51 1.63 1.63 4.05 2.5 6.98 2.5h183.3c6.56 0 9.55-4.28 9.55-8.26 0-4.15-3.11-8.62-9.95-8.62h-13.81c-9.36 0-14.54-8.16-18.75-16.98l-1.14-2.43c-6.08-13.1-11.81-25.48-49.87-18.21-7.83 1.5-11.94-3.08-16.04-10.96-6.55-12.59-14.87-13.52-25.33-11.05-2.41.57-4.47 1.05-6.31 1.48-7.28 1.7-10.94 2.55-18.77 4.91-18.99 5.73-16.8 21.11-15.63 29.37l.06.39c.3 2.11.63 4.1.94 6.03 1.23 7.48 2.12 12.89-.24 15.68-1 1.17-2.52 1.77-4.52 1.77h-13.08zm175.29 391.55c-1.56-8.12-3.12-20.16-3.13-20.28l1.98-.26c.01.12 1.56 12.1 3.11 20.16l-1.96.38z"/><path d="M408.94 830.8h1225.29v2H408.94z"/></g><g id="naturalist"><path d="M732.77 830.84H1064V694.86s-250.28 83.62-333.95 109.66c-17.57 5.47-17.88 26.32 2.72 26.32zm745.87-76.41 69.92 46.91c10.14 0 17.29-9.94 14.05-19.55l-53.6-159.41c-6.01-17.89-25.5-27.4-43.3-21.15l-137.51 48.31c-146.33 57.81-17.55 146.92 6.73 137.41l109.8-42.99c12.36-4.83 26.43-.49 33.91 10.47z" style="fill:#ec8c92"/><path class="st5" d="M1509.02 622.37c-6.01-17.89-25.5-27.4-43.3-21.15l-114.01 40.06c15.02 22.72 33.1 79.11 40.75 123.15l52.28-20.47c12.36-4.84 26.42-.5 33.91 10.46l36.81 31.38c2.92 3.77 33.11 15.53 33.11 15.53 10.14 0 17.29-9.94 14.05-19.55l-53.6-159.41z"/><path class="st3" d="m992.33 677.37 156.05 123.23-12.67 30.24h143.84c34.48 0 62.43-27.95 62.43-62.43V604.55c0-66.44-50.99-76.18-99.05-95.05l-250.6 140.38v27.49z"/><path d="M845.34 822.12h-2c0-5.31 1.92-10.44 5.4-14.45l10.72-12.33 1.51 1.31-10.72 12.33a20.058 20.058 0 0 0-4.91 13.14zm-32.44 0h-2c0-4.59.96-10.85 5.53-14.57 7.67-6.25 26.74-21.15 26.93-21.3l1.23 1.58c-.19.15-19.25 15.04-26.9 21.28-3.96 3.22-4.79 8.85-4.79 13.01zm-42.36 0h-2c0-5.25 0-11.77 11.05-17.28 10.57-5.26 38.4-18.58 38.68-18.71l.86 1.8c-.28.13-28.09 13.44-38.65 18.7-9.94 4.95-9.94 10.55-9.94 15.49z"/><path class="st3" d="m1562.62 781.78-11-32.71-3.56-10.59-6.14-18.26-4.34-12.9-28.57-84.96c-5.38-16.01-21.56-25.3-37.66-22.59l37.89 101.33c-13.63-2.19-29.22-3.51-45.28-2.54-7.03-35.11-19.26-66.23-28.58-86.69l-17.15 6.03c12.32 26.94 30.81 74.95 33.11 124.36 6.33-.85 12.72.47 18.15 3.65-.27-9.95-1.14-19.82-2.49-29.48 13.04-.62 25.83.43 37.29 2.17 7.55 1.15 13.87 6.34 16.54 13.5l1.87 4.99c-21.02 6.22-34.1 14.39-41.61 20.49l11 14.2c2.51-2.08 6.08-4.67 10.96-7.39 5.37-2.99 12.9-6.42 22.98-9.52a3.31 3.31 0 0 1 4.07 2l1.9 5.08c4.32 11.55-4.22 23.85-16.55 23.85l33.11 15.53c10.14 0 17.29-9.94 14.06-19.55z"/><path class="st3" d="m1504.23 783.94 31.72 40.93a15.44 15.44 0 0 0 12.2 5.98h26c10.14 0 17.29-9.95 14.05-19.55l-53.6-159.41c-6.01-17.89-25.5-27.4-43.3-21.15l-137.51 48.31c-5.77 2.03-11.82-2.26-11.82-8.37V569.79c0-36.96-29.4-67.77-66.36-68.25-37.55-.49-68.15 29.81-68.15 67.25v214.72c0 26.14 21.19 47.34 47.34 47.34h29.54c26.07 0 51.91-4.88 76.18-14.38l109.8-42.99c12.36-4.84 26.43-.51 33.91 10.46z"/><path class="st7" d="m924.46 752.65-32.01-5.06c-8.68-1.37-17.11 3.65-20.03 11.94l-8.9 25.24c-.1.29-.19.58-.28.87-2.37 8.43 4.36 16.7 13.11 16.66l35.55-.17 12.56-49.48zm610.15-100.77c-6.01-17.89-25.5-27.4-43.3-21.15l-137.51 48.31c-4.66 1.64-9.5-.85-11.19-5.09l-14.93 26.36-91.61 126.66a47.175 47.175 0 0 0 18.73 3.86h29.54c26.07 0 51.91-4.88 76.18-14.38l109.8-42.99c12.36-4.84 26.42-.5 33.91 10.46l31.72 40.93a15.44 15.44 0 0 0 12.2 5.98h26c10.14 0 17.29-9.95 14.05-19.55l-53.59-159.4z"/><path class="st7" d="m1138.2 575.81-.79-.15c-30.54-5.82-60.02 14.23-65.84 44.77l-18.55 101.59a22.684 22.684 0 0 1-18.02 18.04s-122.88 20.54-142.74 22.65c-14.53 1.54-17.34 14.66-9.18 26.17-5.94 4.76-4.51 20.93 5.49 25.37-4.97 9.67 1.72 20.96 10.62 24.67-7.57 11.22 8.29 26.12 26.87 23.81 45.15-5.61 144.95-17.85 194.95-25.61 16.21-2.52 28.04-17.38 31.17-33.84l30.79-161.63c5.82-30.54-14.22-60.02-44.77-65.84z"/><path class="st8" d="M1277.15 679.32c-2.27 0-4.53-.54-6.6-1.62l-24.52-12.83a24.39 24.39 0 0 1-13.12-21.67v-59.99c0-6.52 5.31-11.83 11.83-11.83h64.82c6.52 0 11.83 5.31 11.83 11.83v59.99c0 9.13-5.03 17.44-13.12 21.67l-24.53 12.83a14.205 14.205 0 0 1-6.59 1.62zm-32.41-105.95c-5.42 0-9.83 4.41-9.83 9.83v59.99c0 8.39 4.62 16.01 12.05 19.9l24.52 12.83a12.22 12.22 0 0 0 11.34 0l24.53-12.83a22.397 22.397 0 0 0 12.05-19.9V583.2c0-5.42-4.41-9.83-9.83-9.83h-64.83z"/><path class="st8" d="M1277.45 624.83a7.8 7.8 0 0 1-6.44-3.39 32.827 32.827 0 0 0-27.09-14.29h-11.01v-23.94c0-6.52 5.31-11.83 11.83-11.83h64.82c6.52 0 11.83 5.31 11.83 11.83v23.94h-10.41c-10.83 0-20.96 5.34-27.09 14.29a7.827 7.827 0 0 1-6.44 3.39zm-42.55-19.69h9.01c11.49 0 22.23 5.67 28.74 15.16a5.73 5.73 0 0 0 4.79 2.52c1.95 0 3.69-.92 4.79-2.52a34.834 34.834 0 0 1 28.74-15.16h8.41V583.2c0-5.42-4.41-9.83-9.83-9.83h-64.82c-5.42 0-9.83 4.41-9.83 9.83v21.94z"/><path d="M1277.19 614.19c-4.11 0-7.44-3.33-7.44-7.44s3.33-7.44 7.44-7.44 7.44 3.33 7.44 7.44c0 4.1-3.33 7.44-7.44 7.44z" style="fill:#fdfdff"/><path class="st8" d="m1292.12 673.5-1.96-.38c2.2-11.25 3.51-27.1 3.51-42.4 0-6.42-.23-12.76-.67-18.85l1.99-.15c.45 6.14.68 12.53.68 19-.01 15.41-1.34 31.4-3.55 42.78zm-27.82 1.11c-2.36-11.58-3.77-27.99-3.77-43.9 0-6.08.2-12.1.6-17.9l2 .14c-.4 5.75-.6 11.73-.6 17.77 0 15.79 1.39 32.05 3.73 43.5l-1.96.39z"/><path class="st5" d="M1534.61 651.88c-6.01-17.89-25.5-27.4-43.3-21.15l-132.57 46.58c19.77 26.87 40.87 85.58 45.79 121.92l65.8-25.76c12.36-4.84 26.42-.5 33.91 10.46l31.72 40.93a15.44 15.44 0 0 0 12.2 5.98h26c10.14 0 17.29-9.95 14.05-19.55l-53.6-159.41z"/><path class="st3" d="m1588.21 811.29-11-32.71-3.56-10.59-6.14-18.26-4.34-12.9-28.57-84.96c-5.38-16.01-21.56-25.3-37.66-22.59l37.89 101.33c-13.63-2.19-29.22-3.51-45.28-2.54-7.03-35.11-19.26-66.23-28.58-86.69l-17.15 6.03c12.32 26.94 30.81 74.95 33.11 124.36 6.33-.85 12.72.47 18.15 3.65-.27-9.95-1.14-19.82-2.49-29.48 13.04-.62 25.83.43 37.29 2.17 7.55 1.15 13.87 6.34 16.54 13.5l1.87 4.99c-21.02 6.22-34.1 14.39-41.61 20.49l11 14.2c2.51-2.08 6.08-4.67 10.96-7.38 5.37-2.99 12.9-6.42 22.98-9.52a3.31 3.31 0 0 1 4.07 2l1.9 5.08c4.32 11.55-4.22 23.85-16.55 23.85h-12.49l7.4 9.55a15.44 15.44 0 0 0 12.2 5.98h26c10.14-.01 17.29-9.95 14.06-19.56z"/><path transform="rotate(-75.736 895.887 792.286)" d="M894.92 781.67h2v21.29h-2z"/><path transform="rotate(-75.718 902.611 819.191)" d="M901.64 809.42h2v19.57h-2z"/><path transform="rotate(-74.597 910.206 843.063)" d="M909.19 835.25h2v15.66h-2z"/><path transform="rotate(-19.335 1416.577 657.072)" d="M1351.72 656.05h129.38v2h-129.38z"/><path class="st2" d="M1349.52 679.45c-3.73-.57-6.86-3.53-7.43-7.47l-134.62 65.06v46.47c0 25.64 20.39 46.51 45.84 47.3l96.21-151.36z"/><path d="M916.08 766.3c-4.79.14-9.82-1.04-10.58-5.51-1.23-7.14-2.95-28.71-2.95-28.71l14.94-4.16 8.96 28.71c1.14 6.53-3.57 9.48-10.37 9.67z"/><path d="M934.2 673.46c-7.29-28.78-24.15-49.34-37.68-45.91l-23.07 5.84c13.52-3.42 30.39 17.13 37.68 45.91 7.29 28.78 2.23 54.89-11.3 58.31l23.07-5.84c13.53-3.42 18.59-29.53 11.3-58.31z"/><ellipse transform="rotate(-14.211 886.566 685.566)" class="st3" cx="886.64" cy="685.5" rx="25.26" ry="53.75"/><path class="st1" d="M889.9 639.28c-6.45 8.9-7.96 27.31-2.94 47.15 4.85 19.17 14.43 34.26 24.01 39.56 4.42-10.98 4.82-28.28.16-46.69-4.47-17.65-12.54-32.19-21.23-40.02z"/><path d="M895.34 731.29c-11.68-5.12-21.21-19.24-26.14-38.74-6.48-25.62-2.98-47.88 8.51-54.15l.96 1.76c-10.53 5.74-13.69 27.57-7.53 51.91 4.78 18.89 13.9 32.52 25 37.39l-.8 1.83z" style="fill:#fafcfc"/><path class="st7" d="M1036.1 695.36c-2.86-10.42-7.08-27.39-10.76-42.49 5.61-1.42 9.78-6.49 9.78-12.54 0-7.15-5.8-12.95-12.95-12.95h-2.97l-1.52-6.4h-70.31v85.61c0 16.13 13.07 29.2 29.2 29.2h26.82c18.67 0 38.55-19.11 32.71-40.43z"/><path class="st3" d="M964.04 553.94s-6.55-27.33-5.81-40.11c.68-11.87 13.02-19.12 22.64-16.7 11.49 2.9 8.25 18.33 15.09 22.44 9.03 5.42 18.96-4.21 31.92 2.11 16.24 7.92 9.87 35.51-35.72 44.22a33.39 33.39 0 0 1-20.48-2.61c-4.15-1.65-7.02-5.17-7.64-9.35z"/><path class="st5" d="M932.8 624.6c17.34 6.74 57.91 17.87 111.93 2.78 4.17-1.16 4.83-6.8 1.04-8.89-23.41-12.91-48.59-26.36-56.13-30.38a4.83 4.83 0 0 0-4.51-.01l-52.81 27.74c-3.66 1.92-3.37 7.26.48 8.76z"/><path class="st2" d="M1023.17 605.27c.07-2.71-.07-6.89-.21-8.19-1.97-18.33-17.49-32.6-36.35-32.6-20.19 0-36.56 16.37-36.56 36.56v4.23c18.16 6.07 53.72 8.57 73.12 0z"/><path class="st5" d="M986.61 564.48c-15.39 0-28.55 9.51-33.94 22.97 17.95 5.22 49.08 7.19 67.96.2-5.34-13.56-18.56-23.17-34.02-23.17z"/><path class="st3" d="M953.92 550.2c-9.46-7.61-13.44-16.44-15.11-22.5-1.81-6.59-1.38-11.34-1.36-11.54l1.99.19c-.02.18-1.52 18.42 15.74 32.29l-1.26 1.56z"/><path class="st3" d="M954.66 547.66c-8.7-17.91-6.03-32.97-5.91-33.6l1.97.37c-.03.15-2.65 15.07 5.75 32.36l-1.81.87z"/><path class="st3" d="M953.51 542.89c2.42-.66 4.91.8 5.53 3.23l.75 2.99c.3 1.17 1.06 2.18 2.1 2.79l11.1 6.42c4.66 2.69 17.07 12.85 12.77 16.09a5.313 5.313 0 0 1-5.05.84c-4.88-1.73-8-2.86-11.37-4.03-4.7-1.64-8.66-4.91-11.18-9.2l-7.27-12.41c-1.6-2.57-.28-5.93 2.62-6.72z"/><path class="st8" d="M967.24 551.91s2.42-27.25 6.98-38.82c4.24-10.75 17.61-13.65 25.57-8.45 9.51 6.21 1.86 19.46 6.8 25.36 6.51 7.79 18.44 1.94 28.23 11.77 12.26 12.3-1.89 35.8-45.72 29.85-6.7-.9-22.63-9.96-21.86-19.71z"/><path d="m987.34 674.19-1.45-1.37c.26-.28 6.52-6.75 17.75-3.66l-.53 1.93c-10.02-2.75-15.54 2.86-15.77 3.1zm19.38-17c-.82-.07-4.85-.46-8.74-.88-7.16-.76-8.22-.88-8.36-1.57-.13-.15-.24-.33-.32-.52a1.71 1.71 0 0 1 .45-1.92l8.99-8.13 1.34 1.48-8.7 7.86c2.46.41 13.68 1.53 15.51 1.68l-.17 2zm-15.84-3.88.05 1.98c.28-.09.62-.38.66-.85a.965.965 0 0 0-.33-.82l-.19.17c.06-.05.1-.15.08-.25a.445.445 0 0 0-.2-.09c.04.01.1.03.18.04-.03-.12-.15-.18-.25-.18.01 0 .01 0 0 0zM964.63 664c-3.38 0-6.12-2.75-6.12-6.12v-4.78c0-3.38 2.75-6.12 6.12-6.12 3.38 0 6.12 2.75 6.12 6.12v4.78a6.12 6.12 0 0 1-6.12 6.12zm0-15.03c-2.27 0-4.12 1.85-4.12 4.12v4.78c0 2.27 1.85 4.12 4.12 4.12s4.12-1.85 4.12-4.12v-4.78c0-2.27-1.85-4.12-4.12-4.12zm-8.15 38.86h2v27.04h-2zm15.35 5.72h2v30.66h-2z"/><path transform="rotate(-.81 989.498 708.8)" d="M988.93 691.21h2v39.11h-2z"/><path transform="rotate(-1.926 1008.123 707.07)" d="M1006.13 687.82h2v37.14h-2z"/><path transform="rotate(-7.054 1021.484 694.002)" d="M1020.64 675.99h2v36.2h-2z"/><path class="st2" d="m1138.2 575.81-.79-.15c-30.54-5.82-60.02 14.23-65.84 44.77l-18.55 97.39c-.29 1.5-1.05 3.73-1.99 5.9 14.27 11.27 85.37 65.84 101.42 78.19l30.53-160.27c5.81-30.53-14.23-60.01-44.78-65.83z"/><path transform="rotate(-31.501 1264.248 724.799)" d="M1213.32 723.79h101.86v2h-101.86z"/><path transform="rotate(-42.666 1256.138 756.584)" d="M1204.39 755.56h103.42v2h-103.42z"/><path transform="rotate(-54.495 1284.921 757.092)" d="M1240.93 756.12h88.1v2h-88.1z"/><path transform="rotate(-55.949 1104.041 740.037)" d="M1103.01 699.2h2v81.61h-2z"/><path transform="rotate(-57.981 1099.132 713.466)" d="M1098.15 680.64h2v65.71h-2z"/><path transform="rotate(-60.205 1131.42 717.546)" d="M1130.37 701.56h2v31.95h-2z"/><path d="M1206.47 600.8h2v174.98h-2zm-217.56 11.01c-12.72 0-25.56-1.67-35.18-4.21l.51-1.93c16.64 4.39 43.05 6.15 61.35 1l.54 1.93c-8.03 2.25-17.59 3.21-27.22 3.21zM879.59 804.88c-1.99-6.26-1.06-12.84 2.18-16.14-4.24-6.37-5.35-13.26-2.95-18.58 2.15-4.75 6.88-7.75 13.34-8.43l.21 1.99c-5.72.61-9.89 3.19-11.73 7.27-2.2 4.87-.98 11.35 3.26 17.33l.55.77-.74.59c-3.11 2.5-4.07 8.77-2.21 14.61l-1.91.59zm179.36-109.74-1.97-.36 13.61-74.53c5.91-31.04 35.97-51.48 67.01-45.57l.79.15c12.92 2.46 24.26 9.03 32.79 19l-1.52 1.3c-8.23-9.62-19.18-15.96-31.65-18.34l-.79-.15c-14.51-2.76-29.23.29-41.44 8.59-12.21 8.31-20.46 20.87-23.23 35.38l-13.6 74.53z"/></g></svg>