<?xml version="1.0" encoding="utf-8"?>
<!-- Generator: Adobe Illustrator 23.0.1, SVG Export Plug-In . SVG Version: 6.00 Build 0)  -->
<svg version="1.1" xmlns="http://www.w3.org/2000/svg" xmlns:xlink="http://www.w3.org/1999/xlink" x="0px" y="0px"
	 viewBox="0 0 1920 1080" style="enable-background:new 0 0 1920 1080;" xml:space="preserve">
<style type="text/css">
	.st0{fill:#93B4F6;}
	.st1{fill:#FFFFFF;}
	.st2{fill:#274D76;}
	.st3{fill:#EC8C92;}
	.st4{fill:#F2BDBA;}
	.st5{fill:#74BAAB;}
	.st6{fill:#FFF3A1;}
</style>
<g id="BG">
	<g>
		<path class="st0" d="M811.21,839.58c0,0,21.15,37.8,57,28.02c1.35-0.37,2.78-0.09,3.93,0.69c10.06,6.82,29.04,12.33,54.8,1.78
			c1.39-0.57,2.98-0.43,4.23,0.4c20.59,13.65,49.51,18.36,75.06-2.13c0.77-0.62,1.81-0.78,2.73-0.41
			c13.58,5.46,21.67,5.13,38.42-1.29c2.91-1.12,4.94-1.55,6.24-1.44c4.09,0.34,12.68,6.4,29.8,1.66
			c-5.92,17.46-51.26,31.1-51.26,31.1l-148.5,11.89l-78.58-31.36L811.21,839.58z"/>
	</g>
	<g>
		<path class="st0" d="M681.02,667.06c-46.02,1.33-50.76,31.21-50.77,38.54c-0.02,8.2,2.97,15.67,9.98,17.6
			c8.55,2.36,12.54-5.94,8.07-8.98c-6.77-4.59-5.55-8.71-2.19-10.68c4.75-2.77,28.7-0.82,19.28,38.3
			c-3.36,13.97-9.19,15.9-11.02,22.04c0.65,16.69,8.7,15.44,26.06,15.44c31,0,53.33-26.5,53.33-57.5
			C733.74,690.83,712.01,666.17,681.02,667.06z"/>
	</g>
	<g>
		<g>
			<path class="st0" d="M1268.07,848.3c17.67-36.35,4.2-77.66-26.58-103.85c-19.94-16.96-11.61-35.35-1.97-36.99
				c5.63-0.96,12.39,7.04,5.38,13.27c-1.93,1.71,0.51,6.3,7.71,2.92c5.21-2.45,12.76-17.44,0.18-29.2
				c-11.8-11.04-27.16-12.99-43.38-7.13c-28.46,10.29-37.27,37.67-32.4,71.54c3.59,25,10.04,127.02,10.04,127.02l52.79-0.9
				C1252.42,874.57,1261.52,861.78,1268.07,848.3z"/>
		</g>
	</g>
	<g>
		<g>
			<path class="st0" d="M1237.12,783.73c4.66,8.04,16.36,5.19,13.13-2.41c-5.16-12.18,5.82-15.36,9.77-12.68
				c11.21,7.59,16.22,34.77-15.02,47.19c-15.75,6.26-50.27,6.75-88.11-0.58c-15.83,20.04-2.49,114.47,90.86,112.96
				c98.23-1.58,110.76-108.44,87.28-152.95c-14.6-27.67-53.92-45.15-83.12-35.84C1236.5,744.32,1225.3,763.33,1237.12,783.73z"/>
		</g>
	</g>
	<g>
		<path class="st0" d="M1063.44,844.5c1.43-0.39,2.53-0.96,2.94-1.78c1.22-2.47-3.36-4.73-5.34-9.31
			c-2.32-5.34-0.26-10.93,3.61-12.9c5.22-2.66,13.73-0.76,18.48,5.31c5.05,6.44,20.29,35.99-29.14,61.51
			c39.31,12.52,68.23-33.24,68.8-45.14c1.88-39.05-25.81-55.69-49.11-54.81c-21.72,0.82-30.38,17.35-29.68,34.07
			C1044.56,834.94,1056.34,846.46,1063.44,844.5z"/>
	</g>
	<g>
		<path class="st0" d="M767.8,896.84c2.59,0,5.86-0.02,9.59-0.09l12.34,22.08c41.51,26.46,70.97,43.29,144.21,15.5
			c43.07-16.34,53.59-21.95,76.44-23.95c10.61,16.7,35.41,27.31,66.05,30.64l44.86-22.06c0,0,10.92-51.01,0.21-84.87
			c-20.79,45.17-54.49,46.79-71.68,33.28c-1.19-0.94-2.89-0.88-3.97,0.19c-27.97,27.62-48.84,18.21-58.58,12.44
			c-1.23-0.73-2.75-0.74-4.02-0.08c-40.45,21.2-72.68,4.31-82.48-2.05c-1.73-1.13-4-0.86-5.46,0.6
			c-3.63,3.61-11.59,9.54-25.14,10.24c-11.1,0.58-29.98-7.39-40.98-24.34c-25.3-38.99-42.84-98.19-28.98-132.19
			c5.04-12.36,15.08-16.87,23.15-16.71c10.38,0.21,14.95,8.17,6.85,9.98c-4.78,1.07-4.21,9.64,5.36,9.5
			c11.72-0.17,19.06-11.76,19.06-21.33c0-30.08-25.74-47.45-64.97-47.45c-45.76,0-83.75,42.35-83.75,88.8
			C705.9,801.41,722.05,896.84,767.8,896.84z"/>
	</g>
	<g>
		<path class="st0" d="M835.43,948.2c25.57,8.37,54.67,9.11,99.75-7.13c31.46-11.33,48.48-26.35,75.21-30.69
			c5.24,8.24,13.93,14.99,25.07,20.13l58.19-9.42c0,0,30.79-48.74,11.73-31.62c-17.21,15.45-40.29,6.14-51.14,2.53
			c-1.69-0.56-3.54-0.26-4.99,0.78c-19.88,14.26-38.86,17.61-57.09,9.75c-2.25-0.97-4.74-1.18-6.59,0.44
			c-22.79,19.92-46.38,11.48-63.1,0.96c-2.03-1.28-4.64-0.97-6.42,0.63c-33.23,29.96-72.38,7.82-82.54-3.37
			c-1.24-1.36-3.1-1.95-4.91-1.61c-31.32,5.75-45.43-17.05-45.43-17.05C772.03,907.71,810.73,933.61,835.43,948.2z"/>
	</g>
	<g>
		<path class="st0" d="M1080.03,901.14c-17.04,11.68-47.96,20.25-60.35,20.19c28.34,29.05,104.91,32.33,145.68,21.73
			c57.04-14.84,74.06-49.08,74.03-86.48c-0.09-102.82-95.8-110-103.31-137.36c-3.46-12.62,2.12-17.87,7.18-20.38
			c5.81-2.88,12.8,0.37,12.91,3.14c0.14,3.78-6.69,3.79-3.61,10.04c1.57,3.2,5.95,3.67,10.62,1.7c7.61-3.21,11.77-11.45,10.46-19.6
			c-3.75-23.4-22.68-39.24-48.88-39.24c-29.78,0-56.59,20.35-63.38,49.38c-8.97,38.34,31.07,66.32,47.53,103.82
			C1128.35,854.61,1099.22,887.98,1080.03,901.14z"/>
	</g>
	<g>
		<path class="st0" d="M725.4,893.96c72.84,35.29,92.69,74.44,167.43,58.37c-86.58-6.05-109.1-79.62-97.34-111.19
			c4.3-11.56,14.71-20.13,26.23-22.21c4.83-0.87,12.41-0.79,16.16,4.41c1.68,2.34,0.65,5.13-2.34,6.6c-2.54,1.25-5.09,2.69-4.9,6.75
			c0.28,6.05,10.78,8.81,18.17,0.77c6.89-7.49,2.91-27.23-8.19-36.55c-14.22-11.93-35.9-14.91-56.21-12.57
			c-50.34,5.79-87.6,42.5-94.41,95.81C699.67,885.44,713.75,888.32,725.4,893.96z"/>
	</g>
	<g>
		<path class="st0" d="M649.04,864.14c8.35-5.29,7.55-13.91,6.9-16.19c-1.71-6.01-10.05-5.83-11.78,0.17
			c-0.5,1.74-1.7,3.18-4.07,3.79c-8.14,2.09-10.68-18.15,0.14-24.14c17.4-9.63,40.83,22.12,9.88,57.25
			c31.88-7.03,68.08,3.13,97.28,17.83c15.35-16.86,26.24-41.47,26.24-66.69c0-51.8-43.56-93.3-88.89-95.89
			c-47.05-2.69-95.44,28.33-94.76,74.9C590.68,863.07,632.85,874.4,649.04,864.14z"/>
	</g>
	<g>
		<polygon class="st1" points="986.41,502.83 892.65,502.83 894.51,510.17 987.73,510.17 		"/>
	</g>
	<path d="M890.29,266.22h-130c-1.66,0-3.23-0.71-4.42-2.01c-1.4-1.52-2.1-3.66-1.92-5.85c0.3-3.64,3.19-6.49,6.58-6.49h4.73
		c1.93,0,3.89-0.17,5.15-1.44c1.21-1.21,1.79-3.4,1.78-6.68c-0.04-9.92,2.69-17.71,8.11-23.14c7.47-7.5,18.22-8.62,23.96-8.62
		c6.55,0,9.61,4.39,12.56,8.64c3.3,4.75,6.72,9.65,15.29,9.65h13.42c8.72,0,14.19,4.13,18.87,14.24l0.13,0.29
		c2.74,5.93,4.28,8.77,9.2,8.77H890c2.01,0,3.7,0.69,4.89,1.98c1.04,1.14,1.62,2.67,1.62,4.32
		C896.5,263.03,894.37,266.22,890.29,266.22z M760.52,253.87c-2.35,0-4.37,2.04-4.58,4.65c-0.14,1.64,0.37,3.22,1.4,4.34
		c0.81,0.88,1.86,1.36,2.95,1.36h130c2.89,0,4.21-2.25,4.21-4.33c0-2.14-1.39-4.3-4.5-4.3h-16.29c-6.42,0-8.44-4.38-11.01-9.93
		l-0.13-0.29c-4.35-9.41-9.13-13.08-17.05-13.08H832.1c-9.61,0-13.5-5.58-16.93-10.51c-2.91-4.17-5.42-7.78-10.92-7.78
		c-5.43,0-15.58,1.04-22.54,8.03c-5.03,5.05-7.56,12.36-7.52,21.73c0.01,3.84-0.76,6.48-2.36,8.1c-1.78,1.79-4.32,2.03-6.57,2.03
		H760.52z"/>
	<path d="M1253.37,581.57h-183.35c-3.51,0-6.44-1.27-8.46-3.68c-1.76-2.09-2.73-4.95-2.73-8.04c0-6.18,4.06-12.75,11.59-12.75h13.11
		c1.25,0,2.15-0.34,2.76-1.03c2.08-2.39,1.17-8.93,0.03-17.21c-0.32-2.3-0.65-4.69-0.95-7.22l-0.05-0.46
		c-1.16-9.72-3.58-29.94,16.99-37.31c7.89-2.83,11.8-3.91,18.89-5.88c1.84-0.51,3.9-1.08,6.32-1.76c6.36-1.79,11.04-1.84,15.17-0.15
		c5.04,2.06,9.11,6.79,12.47,14.46c4.4,10.06,8.01,13.16,13.83,11.84c39.67-9.01,46,7.23,52.13,22.94c0.38,0.96,0.75,1.92,1.13,2.88
		c3.94,9.81,8.71,18.89,16.92,18.89h13.82c7.84,0,11.95,6.26,11.95,12.45C1264.92,575.34,1261.31,581.57,1253.37,581.57z
		 M1070.43,559.1c-6.3,0-9.59,5.41-9.59,10.75c0,2.62,0.8,5.02,2.26,6.76c1.63,1.94,4.03,2.96,6.93,2.96h183.35
		c6.56,0,9.55-5.19,9.55-10.02c0-5.03-3.11-10.45-9.95-10.45h-13.82c-9.4,0-14.58-9.68-18.78-20.15c-0.38-0.96-0.76-1.93-1.14-2.89
		c-6.09-15.61-11.84-30.35-49.82-21.72c-7.9,1.8-12.02-3.64-16.1-12.99c-6.56-15-14.84-16.12-25.27-13.19
		c-2.42,0.68-4.48,1.25-6.32,1.76c-7.28,2.02-10.93,3.03-18.75,5.83c-19.07,6.84-16.78,25.99-15.68,35.19l0.06,0.46
		c0.3,2.51,0.63,4.89,0.95,7.18c1.26,9.13,2.18,15.72-0.5,18.79c-0.99,1.14-2.43,1.72-4.27,1.72H1070.43z"/>
	<path d="M848.42,600.19H683.43c-2.28,0-4.49-0.96-6.05-2.62c-1.58-1.69-2.37-3.9-2.22-6.22c0.28-4.34,4.02-7.74,8.52-7.74h8.12
		c3.3,0,5.98-2.68,5.98-5.98V564.4c0-8.33,5.68-15.44,13.81-17.28l22.91-5.17c8.44-1.91,17.1,1.44,22.07,8.52
		c3.09,4.41,8.15,7.04,13.54,7.04h23.26c9.23,0,17.55,5.83,20.71,14.49c2.53,6.94,9.19,11.61,16.58,11.61h17.52
		c4.5,0,8.24,3.4,8.52,7.74c0.15,2.32-0.64,4.53-2.22,6.22C852.91,599.23,850.7,600.19,848.42,600.19z M683.68,585.61
		c-3.45,0-6.31,2.58-6.52,5.87c-0.11,1.76,0.48,3.44,1.68,4.72c1.2,1.28,2.83,1.99,4.59,1.99h164.99c1.76,0,3.39-0.71,4.59-1.99
		c1.2-1.28,1.8-2.96,1.68-4.72c-0.21-3.29-3.08-5.87-6.52-5.87h-17.52c-8.23,0-15.65-5.19-18.46-12.92
		c-2.87-7.88-10.44-13.18-18.83-13.18H770.1c-6.04,0-11.71-2.95-15.18-7.89c-4.5-6.42-12.35-9.45-19.99-7.72l-22.91,5.17
		c-7.21,1.63-12.25,7.93-12.25,15.33v13.23c0,4.4-3.58,7.98-7.98,7.98H683.68z"/>
	<path class="st1" d="M766.77,874.04l-1.85-0.77c5.04-12.03,7.7-24.86,7.7-37.11c0-24.2-9.65-47.53-27.16-65.7
		c-16.67-17.29-38.82-27.93-60.78-29.19l0.12-2c22.45,1.29,45.09,12.15,62.1,29.8c17.88,18.55,27.72,42.37,27.72,67.09
		C774.63,848.66,771.91,861.76,766.77,874.04z"/>
	<path class="st1" d="M795.26,882.8c-4.58-15.18-4.85-30.88-0.71-42c4.36-11.7,14.95-20.67,26.99-22.85l0.36,1.97
		c-11.36,2.05-21.35,10.52-25.47,21.58c-3.99,10.73-3.71,25.95,0.75,40.73L795.26,882.8z"/>
	<path class="st1" d="M831.26,795.93c-12.22-6.32-28.82-8.66-46.76-6.6c-3.6,0.41-7.19,1-10.67,1.73l-0.41-1.96
		c3.54-0.75,7.19-1.34,10.86-1.76c18.32-2.11,35.33,0.31,47.9,6.81L831.26,795.93z"/>
	<path class="st1" d="M896.51,917.55l-0.66-1.89c6.95-2.44,13.52-6.43,19.54-11.86c2.13-1.92,5.26-2.22,7.62-0.73
		c5.32,3.35,10.55,5.97,15.53,7.76l-0.68,1.88c-5.12-1.85-10.47-4.52-15.92-7.95c-1.61-1.01-3.75-0.79-5.21,0.53
		C910.51,910.9,903.71,915.03,896.51,917.55z"/>
	<path class="st1" d="M969.26,913.78l-0.64-1.89c5.66-1.92,11.14-5.17,16.3-9.68c1.93-1.68,4.64-1.9,7.64-0.6
		c4.28,1.84,8.66,3.08,13.03,3.66l-0.26,1.98c-4.55-0.61-9.12-1.89-13.56-3.8c-1.59-0.69-3.85-1.2-5.53,0.27
		C980.88,908.39,975.16,911.78,969.26,913.78z"/>
	<path class="st1" d="M1031.26,903.85l-0.72-1.87c5.91-2.27,12-5.64,18.12-10.03c1.71-1.23,3.92-1.57,5.88-0.91
		c0.68,0.23,1.4,0.47,2.17,0.74c4.33,1.48,10.26,3.51,16.67,4.57l-0.33,1.97c-6.57-1.09-12.6-3.15-16.99-4.65
		c-0.76-0.26-1.48-0.51-2.16-0.73c-1.36-0.46-2.89-0.22-4.09,0.64C1043.57,898.07,1037.33,901.53,1031.26,903.85z"/>
	<path class="st1" d="M853.19,915.27c-9.83-4.14-16.99-9.65-20.42-13.42c-0.99-1.09-2.48-1.58-3.99-1.3
		c-6.13,1.12-12.07,1.24-17.64,0.35l0.32-1.97c5.34,0.85,11.05,0.74,16.96-0.34c2.19-0.41,4.38,0.32,5.84,1.93
		c3.29,3.62,10.19,8.91,19.71,12.92L853.19,915.27z"/>
	<path class="st1" d="M864.03,948.37c-21.89-6.33-40.26-18.51-53.14-35.23l1.58-1.22c12.61,16.38,30.63,28.31,52.11,34.53
		L864.03,948.37z"/>
	<path class="st1" d="M1048.41,916.59l-0.6-1.91c12.76-4.02,24-9.12,31.66-14.37c5.78-3.96,20.12-15.15,28.59-33.6
		c8.43-18.37,8.41-37.97-0.07-58.25l1.85-0.77c8.7,20.82,8.71,40.96,0.04,59.86c-8.67,18.91-23.36,30.37-29.27,34.42
		C1072.78,907.32,1061.35,912.51,1048.41,916.59z"/>
	<path class="st1" d="M1224.57,908.88l-1.6-1.21c10.24-13.58,15.43-30.77,15.41-51.1c-0.05-54.62-27.6-80.99-48.32-96.07l1.18-1.62
		c14.93,10.87,26.03,22.73,33.93,36.28c10.07,17.25,15.19,37.92,15.21,61.41C1240.4,877.34,1235.08,894.94,1224.57,908.88z"/>
	<path class="st1" d="M1236.25,784.23c-6.9-11.9-6.8-24.51,0.27-34.59l1.64,1.15c-6.6,9.42-6.67,21.24-0.18,32.44L1236.25,784.23z"
		/>
	<path class="st1" d="M1245.38,816.75l-0.74-1.86c18.31-7.28,22.2-18.93,22.88-25.23c0.88-8.09-2.43-16.4-8.05-20.2
		c-1.01-0.68-2.65-0.89-4.27-0.55c-1.08,0.23-3.07,0.9-4.31,2.87l-1.69-1.06c1.21-1.92,3.19-3.25,5.59-3.76
		c2.18-0.46,4.35-0.14,5.81,0.85c6.21,4.2,9.88,13.28,8.92,22.08C1268.78,796.62,1264.67,809.08,1245.38,816.75z"/>
	<path class="st1" d="M709.45,734.27l-1.94-0.48c3.22-13.02,9.41-25.52,17.92-36.14l1.56,1.25
		C718.66,709.29,712.59,721.52,709.45,734.27z"/>
	<path class="st1" d="M869.03,889.73c-6.15,0-13.88-2.33-20.96-6.35l0.99-1.74c7.23,4.11,15.1,6.38,21.06,6.06
		c6.13-0.32,11.73-1.76,16.62-4.29l0.92,1.78c-5.15,2.66-11.01,4.18-17.43,4.51C869.83,889.72,869.43,889.73,869.03,889.73z"/>
	<path class="st1" d="M927.12,889.61c-6.97-1.45-13.73-3.81-20.08-7.01l0.9-1.79c6.2,3.12,12.79,5.42,19.58,6.84L927.12,889.61z"/>
	<path class="st1" d="M1008.37,887.3c-5.86,0-11.65-1.38-17.37-4.16l0.87-1.8c13.49,6.55,27.52,4.93,41.7-4.81l1.13,1.65
		C1025.86,884.26,1017.05,887.3,1008.37,887.3z"/>
	<path class="st1" d="M1071.88,875.8c-2.21,0-4.42-0.19-6.62-0.57l0.34-1.97c12.35,2.16,25.13-2.15,35.98-12.13l1.35,1.47
		C1093.54,871.24,1082.72,875.8,1071.88,875.8z"/>
</g>
<g id="sailor">
	<g>
		<path d="M1035.05,339.54L1035.05,339.54l-8.08-7.32l-36.11,10.49l-9.46-5.69l-43.32,12.93l-9.91-5.69l-20.46,9.45l8.64,0.11
			l10.72-3.05l7.89,8.95l43.12-12.93l0.05,0.05l8.31,8.9l35.58-10.44l5.67,8.04l40.19-11.27c0.9,0,1.32-1.12,0.64-1.71l-4.44-3.87
			c-0.43-0.38-0.45-1.05-0.02-1.44l4.61-4.31c0.65-0.6,0.22-1.68-0.66-1.68L1035.05,339.54z"/>
	</g>
	<g>
		<path d="M1025.23,359.72l-5.2-10.51l-35.37,11.66l-7.09-11.39l-45.03,13.67l-6.98-8.38l-18.25-0.03l-0.17,4.5l17.31,3.25
			l8.27,12.87l42.97-12.83l8.15,13.22l33.13-10.44l6.01,10.44l39.85-11.47c0.9,0,1.32-1.12,0.64-1.71l-4.57-4.75
			c-0.43-0.38-0.45-1.05-0.02-1.44l4.75-7.09c0.65-0.6,0.22-1.68-0.66-1.68L1025.23,359.72z"/>
	</g>
	<g>
		<path d="M925.4,595.97h42.47v162.41h-85.55c-8.86,0-16.04-7.18-16.04-16.04v-13.09c0-9.26,2.06-18.41,6.03-26.78L925.4,595.97z"/>
	</g>
	<g>
		<g>
			<path class="st2" d="M1058.24,751.93c0,0-14.86-9.82-21.19-13.98c-8.1-5.34-10.56-12.31-11.82-19.28L966.17,390.3H828.8l1.6-15.4
				h-77.95l-10.16,63.09c-2.32,14.39,8.79,27.43,23.37,27.43h95.12c13.16,0,24.64,8.93,27.88,21.68l68.48,271.6h99.32
				C1060.25,758.71,1060.86,753.36,1058.24,751.93z"/>
		</g>
	</g>
	<g>
		<polygon class="st3" points="921.94,396.01 887.56,396.01 887.56,346.86 897.89,346.86 		"/>
	</g>
	<g>
		<path class="st4" d="M880.68,343.75v29.92c0,2.38,1.93,4.32,4.32,4.32c11.8,0,20.86-9.54,20.97-24.55l0.27-0.18L880.68,343.75z"/>
	</g>
	<rect x="788.94" y="410.14" transform="matrix(0.1587 -0.9873 0.9873 0.1587 279.4869 1150.2745)" width="51.54" height="2"/>
	<g>
		<path class="st0" d="M912.58,341.78l-27.86-21.04c-1.66-1.24-4.03-0.06-4.03,2.02v21l25.56,9.5l6-3.92
			c1.58-1.03,2.5-2.9,2.12-4.75C914.14,343.51,913.54,342.5,912.58,341.78z"/>
	</g>
	<g>
		<polygon points="905.97,353.44 880.68,346.77 880.68,339.65 907.71,352.3 		"/>
	</g>
	<g>
		<polygon class="st0" points="935.69,390.3 828.8,390.3 830.39,374.9 817.7,374.9 815.35,390.3 929.87,462.07 		"/>
	</g>
	<g>
		<polygon class="st1" points="932.5,429.64 935.69,390.3 869.73,390.3 		"/>
	</g>
	<g>
		<g>
			<path class="st3" d="M837.89,389.85l-18.76,9.85c-7.94,4.17-17.75,0.88-21.57-7.24l-9.09-19.3l42.83-14.68
				c5.1-1.75,10.43,1.94,10.61,7.32l0.52,16.25C842.53,385.31,840.77,388.34,837.89,389.85z"/>
		</g>
	</g>
	<g>
		<g>
			<path class="st2" d="M827.04,340.86v25.8l59-10.65c1.06-0.23,1.81-1.17,1.81-2.26l0,0c0-1.08-0.75-2.02-1.81-2.26L827.04,340.86z
				"/>
		</g>
	</g>
	<g>
		<path class="st4" d="M817.8,389.9c-2.81,0.18-9.81,0.65-10.38-4.41c-4.25,5.67-18.27,6.71-19.67,0.07
			c-3.05,5.42-15.91,7.8-20.76-0.07c-6.24,4.69-12.2,4.68-16.45,4.41c-5.9-0.38-10.7-4.79-10.7-10.7v-31.07
			c0-19.75,16.01-27.5,35.76-27.5h30.69c15.56,0,28.18,4.36,28.18,19.92v32.68C834.46,382.44,826.99,389.32,817.8,389.9z"/>
	</g>
	<g>
		<path class="st2" d="M736.27,380.34c-6.55,0.99-20.3,2.66-20.3,2.66v-58.75c0,0,13.76,1.51,20.3,2.66
			c9.47,1.68,17.42,7.8,17.42,17.42v18.58C753.69,372.54,745.78,378.9,736.27,380.34z"/>
	</g>
	<g>
		<g>
			<path class="st0" d="M638.3,293.07l-0.49,119.96l59.47-13.29c15.25-3.39,26.11-16.91,26.11-32.54v-28.36
				c0-15.63-10.85-29.15-26.11-32.54L638.3,293.07z"/>
		</g>
	</g>
	<g>
		<g>
			<ellipse class="st2" cx="637.31" cy="353.03" rx="19.53" ry="60.03"/>
		</g>
	</g>
	<g>
		<g>
			<path class="st5" d="M1040.41,276.78h-91.8v-57.64h79.98c6.53,0,11.82,5.29,11.82,11.82V276.78z"/>
		</g>
	</g>
	<g>
		<path class="st5" d="M1040.32,239.51v-5.75c0-1.29-1.04-2.33-2.33-2.33l0,0c-1.29,0-2.33,1.04-2.33,2.33v51.56
			c0,10.27,8.32,18.59,18.59,18.59h95.52c5.21,0,7.45-6.6,3.33-9.78l-26.94-20.77c-1.83-1.41-2.01-4.12-0.37-5.75l15.67-15.66
			c2.26-2.26,0.66-6.11-2.53-6.11h-92.28C1043.16,245.84,1040.32,243.01,1040.32,239.51z"/>
	</g>
	<g>
		<g>
			<polygon class="st6" points="961.68,758.72 949.83,212.99 945.09,212.99 945.09,758.72 			"/>
		</g>
		<g>
			<path class="st6" d="M945.09,846.81v52.67c6.33,0.69,12.96-0.34,19.65-3.36l-1.08-49.3H945.09z"/>
		</g>
	</g>
	<g>
		<g>
			<path class="st6" d="M947.31,216.68L947.31,216.68c-3.14,0-5.68-2.54-5.68-5.68v0c0-3.14,2.54-5.68,5.68-5.68l0,0
				c3.14,0,5.68,2.54,5.68,5.68v0C952.99,214.13,950.45,216.68,947.31,216.68z"/>
		</g>
	</g>
	<g>
		<g>
			<path class="st3" d="M915.6,433.59l-3.89-1.11c-4.77-1.36-7.53-6.33-6.18-11.1l4.02-14.11c1.82-6.38,8.46-10.07,14.84-8.25
				l0.98,0.28c4.77,1.36,7.54,6.33,6.18,11.1l-4.85,17.01C925.34,432.18,920.37,434.95,915.6,433.59z"/>
		</g>
	</g>
	<g>
		<path class="st4" d="M932.3,464.12h116.18c8.44,0,15.29-6.85,15.29-15.29v-25.09c0-23.45-19.01-42.45-42.45-42.45h-72.57
			c-19.73,0-33.35,12.34-30.59,27.64c-4.43,4.1-4.15,13.98-0.07,18.83c-3.3,5.57-2.07,15.72,3.25,18.22
			C918.62,451.4,922.04,464.12,932.3,464.12z"/>
	</g>
	<g>
		<path class="st2" d="M1021.32,381.29h-50.95c11.2,0,20.29,9.08,20.29,20.29v49.28c0,7.33-5.94,13.27-13.27,13.27h71.1
			c8.45,0,15.29-6.85,15.29-15.29v-25.09C1063.77,400.29,1044.76,381.29,1021.32,381.29z"/>
	</g>
	<g>
		<g>
			<ellipse cx="636.99" cy="353.03" rx="14.69" ry="51.33"/>
		</g>
	</g>
	<path d="M898.22,357.96c-0.44-0.53-0.94-0.93-1.51-1.22c-1.37-0.71-3.03-0.72-4.77-0.73l-0.15,0l0.02-2l0.14,0
		c1.9,0.02,3.87,0.03,5.67,0.96c0.81,0.41,1.52,0.99,2.13,1.72L898.22,357.96z"/>
	<path d="M886.55,368.19c-0.3,0-0.6,0-0.89,0l-0.51,0l0.01-2l0.51,0c2.5,0.02,5.33,0.04,6.68-1.5l1.51,1.32
		C892.1,368.01,889.24,368.19,886.55,368.19z"/>
	<rect x="879.93" y="389.3" width="32.16" height="2"/>
	<rect x="893.97" y="397.81" width="15.23" height="2"/>
	<path d="M947.31,217.68c-3.68,0-6.68-3-6.68-6.68h2c0,2.58,2.1,4.68,4.68,4.68c2.58,0,4.68-2.1,4.68-4.68h2
		C953.99,214.68,951,217.68,947.31,217.68z"/>
	<rect x="944.09" y="857.05" width="2" height="33.19"/>
	<path class="st0" d="M1039.7,762.56c-0.25-0.02-0.49-0.03-0.74-0.03H871.09c-0.25,0-0.5,0.01-0.74,0.03
		c-5.75,0.42-9.26,5.99-7.18,10.87c3.89,9.12,16.86,39.38,25.16,56.89c1.06,2.24,5.45,10.52,6.79,12.15
		c5.77,7.05,12.74,7.99,16.85,7.99h35.93h14.27h35.93c4.11,0,11.08-0.94,16.85-7.99c1.33-1.63,5.72-9.91,6.79-12.15
		c8.3-17.51,21.27-47.77,25.16-56.89C1048.96,768.55,1045.45,762.99,1039.7,762.56z"/>
	<g>
		<rect x="911.96" y="849.47" width="86.13" height="2"/>
		<path d="M1015.54,835.02h-14.18v-2h14.18V835.02z M999.01,835.02h-18.32v-2h16.81l16.64-58.32l1.92,0.55L999.01,835.02z
			 M969.15,835.02h-17.22v-2h15.49l8.38-59.37l1.98,0.28L969.15,835.02z M941.48,835.02h-18.31v-2h15.96l-9.5-59.1l1.97-0.32
			L941.48,835.02z M911.63,835.02H894.5v-2h14.42l-17.05-55.76l1.91-0.59L911.63,835.02z"/>
	</g>
	<g>
		<path class="st5" d="M636.69,349.04c0,13.1,1.51,23.72-2.24,23.72c-3.75,0-6.79-10.62-6.79-23.72c0-13.1,3.04-23.72,6.79-23.72
			C638.2,325.31,636.69,335.94,636.69,349.04z"/>
	</g>
	<rect x="1034.66" y="236.01" width="2" height="51.98"/>
	<path d="M921.46,406.31l-1.1-1.67c6.78-4.48,14.03-8.83,14.1-8.88l1.03,1.71C935.41,397.53,928.21,401.86,921.46,406.31z"/>
	<path d="M922.46,425.01l-1.05-1.7c7-4.3,14.75-8.85,14.83-8.89l1.01,1.72C937.18,416.18,929.44,420.72,922.46,425.01z"/>
	<path d="M925.15,444.11l-0.98-1.74c5.42-3.07,12.05-6.64,12.11-6.67l0.95,1.76C937.16,437.5,930.55,441.06,925.15,444.11z"/>
	<path d="M808.78,383.69l-1.73-0.99c1.19-2.08,1.82-4.45,1.82-6.85v-15.57h2v15.57C810.86,378.59,810.14,381.31,808.78,383.69z"/>
	<path d="M789.45,382.65l-1.86-0.73c0.62-1.6,0.94-3.29,0.94-5.02v-16.74h2v16.74C790.53,378.89,790.16,380.82,789.45,382.65z"/>
	<path d="M768.36,382.97l-1.77-0.94c1.05-1.98,1.6-4.21,1.6-6.46v-14.79h2v14.79C770.2,378.15,769.57,380.71,768.36,382.97z"/>
	<rect x="943.9" y="245.43" width="2" height="126.3"/>
	<rect x="943.9" y="466.9" width="2" height="126.3"/>
</g>
</svg>
