<svg xmlns="http://www.w3.org/2000/svg" viewBox="0 0 869.57 649.58"><defs><style>.cls-1{fill:#274d76}.cls-2{fill:#ec8c92}.cls-3{fill:#93b4f6}.cls-4{fill:#fff}.cls-6{fill:#74baab}.cls-7{fill:#fff3a1}</style></defs><path class="cls-1" d="M1345.9 744.37c-65.49 104.81-203.54 136.68-308.35 71.19l-323.24-202c-104.81-65.46-136.69-203.51-71.2-308.32S846.66 168.55 951.47 234l323.23 202c104.81 65.51 136.69 203.56 71.2 308.37z" transform="translate(-510.36 -200.01)" id="Background"/><g id="fishcorals"><path class="cls-2" d="M1354.56 674.94c-6.77 7.39-25.63-12.7-40.62-7.09s-13.79-30.72 0-24.51 31.43-15.37 40.62-7.69-10.39 22.16 0 39.29zm-113.44-28.15s15.4-30.95 24.29-28.37c3.76 1.09.09 4.84 3.92 5.65 6 1.25 9.62-14.64 19.12-13.33 7.47 1 1.1 11.92 7.14 13.29 3.74.85 11.54-4.69 13.71-1.53 3.15 4.6-9.37 18.89-9.37 18.89z" transform="translate(-510.36 -200.01)"/><path class="cls-3" d="M1282.76 690.93c-23.42 0-59.51-22.36-59.38-29.71.07-4 4.49-8.53 10.22-12.79a75.81 75.81 0 0 1 45.34-14.79h18a24.36 24.36 0 0 1 24.38 24.36c0 21-17.61 32.93-38.56 32.93z" transform="translate(-510.36 -200.01)"/><path class="cls-2" d="M1267.82 683.08s36.21 11.4 31.91 15.95-37.73 1.02-31.91-15.95z" transform="translate(-510.36 -200.01)"/><path class="cls-4" d="M1254 665.89a8.1 8.1 0 1 1 8.09-8.1 8.1 8.1 0 0 1-8.09 8.1zm0-14.2a6.1 6.1 0 1 0 6.09 6.1 6.11 6.11 0 0 0-6.09-6.1z" transform="translate(-510.36 -200.01)"/><path d="M1271.3 681.59a1 1 0 0 1-.77-1.63 26.94 26.94 0 0 0 2.63-30.3 1 1 0 1 1 1.74-1 28.94 28.94 0 0 1-2.82 32.55 1 1 0 0 1-.78.38zm-10.22 1.3a1 1 0 0 1-.76-.36c-13.78-16.51-36.63-19.22-36.86-19.25a1 1 0 0 1 .22-2c1 .11 23.88 2.84 38.17 20a1 1 0 0 1-.13 1.4 1 1 0 0 1-.64.21z" transform="translate(-510.36 -200.01)"/><path class="cls-2" d="M921 786.6c-4.73 5.16-17.92-8.88-28.4-5s-9.64-21.48 0-17.14 22-10.74 28.4-5.37-7.24 15.53 0 27.51zm-79.28-19.68s10.76-21.64 17-19.84c2.62.77.06 3.38 2.73 3.95 4.17.87 6.73-10.24 13.37-9.32 5.22.73.77 8.33 5 9.29 2.61.6 8.06-3.28 9.58-1.07 2.2 3.22-6.55 13.21-6.55 13.21zm18.67 25.37s25.32 8 22.31 11.15-26.35.71-22.31-11.15z" transform="translate(-510.36 -200.01)"/><path d="M870.83 797.77c-16.37 0-41.6-15.62-41.51-20.76 0-2.78 3.14-6 7.14-9a53 53 0 0 1 31.7-10.34h12.6a17 17 0 0 1 17 17c.03 14.73-12.28 23.1-26.93 23.1z" transform="translate(-510.36 -200.01)" style="fill:#f2bdba"/><path class="cls-4" d="M850.72 779.7a6 6 0 1 1 6-6 6 6 0 0 1-6 6zm0-9.93a4 4 0 1 0 4 4 4 4 0 0 0-4-4z" transform="translate(-510.36 -200.01)"/><path d="M862.82 791.55a1 1 0 0 1-.63-.23 1 1 0 0 1-.14-1.41 18.56 18.56 0 0 0 1.81-20.84 1 1 0 1 1 1.74-1 20.56 20.56 0 0 1-2 23.09 1 1 0 0 1-.78.39zm-7.14.9a1 1 0 0 1-.77-.36c-9.56-11.45-25.41-13.33-25.57-13.35a1 1 0 0 1-.88-1.1 1 1 0 0 1 1.1-.89c.69.08 16.82 2 26.89 14.06a1 1 0 0 1-.13 1.41 1 1 0 0 1-.64.23z" transform="translate(-510.36 -200.01)"/><path class="cls-1" d="M511.9 560.84c4.1 5.8 15.52-10 24.6-5.57s8.35-24.13 0-19.25-19-12.07-24.6-6 6.29 17.36 0 30.82zm78.18-26.36s-11.34-29.56-17.9-27.1c-2.76 1-.06 4.62-2.88 5.39-4.39 1.2-7.09-14-14.09-12.72-5.49 1-.81 11.38-5.26 12.69-2.75.81-8.5-4.49-10.09-1.46-2.32 4.39 6.89 18 6.89 18z" transform="translate(-510.36 -200.01)"/><path class="cls-3" d="M559.41 576.64c17.25 0 43.83-21.35 43.74-28.37 0-3.79-3.31-8.15-7.53-12.23-9.63-9.3-21.4-14.12-33.4-14.12H549c-9.91 0-18 10.42-18 23.27 0 20.01 13 31.45 28.41 31.45z" transform="translate(-510.36 -200.01)"/><path class="cls-1" d="M570.41 569.15s-26.67 10.88-23.5 15.24 27.76.96 23.5-15.24z" transform="translate(-510.36 -200.01)"/><path class="cls-4" d="M580.6 551.83c-3.43 0-6.23-3.49-6.23-7.78s2.8-7.78 6.23-7.78 6.23 3.49 6.23 7.78-2.83 7.78-6.23 7.78zm0-13.56c-2.33 0-4.23 2.59-4.23 5.78s1.9 5.78 4.23 5.78 4.23-2.6 4.23-5.78-1.9-5.78-4.23-5.78z" transform="translate(-510.36 -200.01)"/><path d="M567.85 567.77a1 1 0 0 1-.85-.47 33 33 0 0 1-4.81-17.44 34 34 0 0 1 2.73-13.51 1 1 0 1 1 1.83.8 32 32 0 0 0-2.56 12.71 31 31 0 0 0 4.5 16.37 1 1 0 0 1-.31 1.38 1 1 0 0 1-.53.16zm7.52 1.23a1.09 1.09 0 0 1-.54-.16 1 1 0 0 1-.3-1.39 43.76 43.76 0 0 1 28.33-19.17 1 1 0 0 1 .29 2 42.52 42.52 0 0 0-26.94 18.28 1 1 0 0 1-.84.44z" transform="translate(-510.36 -200.01)"/><path class="cls-2" d="M780.09 720.87a9.47 9.47 0 0 0-13.09 2.87l-5.24 8.26a6.91 6.91 0 0 1-8.21 2.74l-1.78-.67h-.08a10.66 10.66 0 0 1-6.84-11.54l.76-5.22a5.81 5.81 0 0 0-3.94-6.43 5.68 5.68 0 0 0-7.28 4.62l-.79 5.4a36.88 36.88 0 0 1-9.73 19.78 26 26 0 0 0-2.1 2.56 4.84 4.84 0 0 1-8.77-3l.22-7.58a7.07 7.07 0 0 1 .8-3l9.36-17.71a25.78 25.78 0 0 0 3-12.07v-22.74a21.34 21.34 0 0 1 9.25-18.7l6.4-4.31a5.79 5.79 0 0 0 2.1-7.25 5.67 5.67 0 0 0-8.3-2.27L723.36 653a7 7 0 0 1-9.72-2s-9.43-9.81-12.21-13.39c-3.42-4.41-7.66-8.22-12.09-4.56-3.75 3.09-.79 9.78 1.72 13.94 4.06 6.71 15.26 27.4 15.26 27.4a6.92 6.92 0 0 1 1.13 3.77v21.67a6.92 6.92 0 0 1-.8 3.22l-9.37 17.72a2 2 0 0 1-3.77-.6l-3.2-19.7a25.72 25.72 0 0 0-1.84-6.24 10.47 10.47 0 0 1 3.12-12.52l1.21-.94a5.71 5.71 0 0 0 2.21-4.51v-13.58a5.83 5.83 0 0 0-5.32-5.89 5.69 5.69 0 0 0-6 5.67v11a3.2 3.2 0 0 1-4.89-1.23l-2.5-5.66a6.67 6.67 0 0 1-.57-2.23l-1.26-15.81a25.67 25.67 0 0 0-8.21-16.9s-10-9.47-13.52-12.48c-7.4-6.41-16.25 1-10.68 9.42 2.82 4.25 11.35 17 11.35 17a6.93 6.93 0 0 1 2.19 4.51l1.26 15.79a26 26 0 0 0 2.12 8.4 1.65 1.65 0 0 1-2.09 1.59l-5.54-1.55a5.67 5.67 0 0 0-7.08 4.28 5.83 5.83 0 0 0 4.23 6.72l7.67 2.14a21.74 21.74 0 0 1 14 12.14l1 2.24a7.06 7.06 0 0 1 .5 1.68l.13.82a2.66 2.66 0 0 1-4.44 2.38l-.05-.05-28.15-20.32a6.79 6.79 0 0 1-2.21-4.63l-.79-18.18c-.5-7.9-17.54-14.78-21.59-16.61-12.35-5.57-15 4.05-10.63 7L620.22 665a6.87 6.87 0 0 1 3 5.27l.79 12.63a26.67 26.67 0 0 0 .7 4.57h-.09L605 685a8.72 8.72 0 0 1-7.5-7c-.86-4.33-1.5-6.92-3.17-8.29-1.35-1.11-8-.64-8.78 9.7-.12 1.67-2.16 5.81-6.49 5.71-2 0-6.4 2.26-6.87 7a7.59 7.59 0 0 0 5.95 8.13s7.44 1.46 11.38 2a6.14 6.14 0 0 1 5.31 5c.69 3.9 1.78 9.25 3 11.42.77 1.44 2.62 1.78 4.13 1.78a5.65 5.65 0 0 0 3.9-1.55c1.19-1.13 2.8-4.78 4.08-8a5.65 5.65 0 0 1 7.83-3c6.46 3.32 12.37 7.39 15.52 14.12a6.85 6.85 0 0 1 .27 5.13l-2.8 8.19v.08a10.06 10.06 0 0 1-10.83 6.74l-8.32-1.09a5.68 5.68 0 0 0-6.4 5.26 5.82 5.82 0 0 0 5.14 6l7.81 1c6 .79 14.43 5 18.85 9.19a26.79 26.79 0 0 0 13.48 6.48 6.81 6.81 0 0 1 5.13 4.24l8.77 22.3 10.88-.27c8.57-1.63 8.1-16.64 9.4-20.19 2-5.36 9.74-11.49 12.47-13.11 11.24-6.68 33 2 33 2l7.09-9.89a6.86 6.86 0 0 1 8-2.43l1.79.67a25.93 25.93 0 0 0 30.76-10.25L783 734a9.47 9.47 0 0 0-2.91-13.13z" transform="translate(-510.36 -200.01)"/><path class="cls-3" d="M790.65 848.4 788 847a6.94 6.94 0 0 0-.07-6c-2.41-5.78-10.22-11.12-21.44-14.63l-.27-.09c-5-1.56-8.52-3-9.52-4.93l-6.59-12.69c-2.41-4.65-8-7.65-14.19-7.65a7.54 7.54 0 0 1-7.2-4.5 7.68 7.68 0 0 0-4.77-4.54 12.87 12.87 0 0 0-10.56 1.3 34.34 34.34 0 0 0-3.19 2.23c-3.27 2.45-7.35 5.51-13 5.51l-2.25.12c-6.26 0-10.3 2.57-13.18 8.33l-6.61 13.26c-3.54 7.08-1.92 15.09 4.2 20.9l-2.06 2.18c-7.12-6.76-9-16.12-4.83-24.42l6.62-13.26c3.35-6.72 8.51-10 15.78-10l2.24-.12c4.74 0 8.22-2.61 11.29-4.91a37.45 37.45 0 0 1 3.49-2.42 15.88 15.88 0 0 1 13.11-1.49 10.66 10.66 0 0 1 6.57 6.3 4.61 4.61 0 0 0 4.39 2.56c7.31 0 13.93 3.64 16.85 9.27l6.54 12.69c.23.46 1.56 1.51 7.76 3.45l.27.09c16.52 5.17 21.7 12.46 23.31 16.34a9.94 9.94 0 0 1-.04 8.52z" transform="translate(-510.36 -200.01)"/><path class="cls-4" d="M666.43 793.42c-1-2.93-.63-6.2 1.13-9.74a19.79 19.79 0 0 0 .29-7.3l-8.85-7.22a14.92 14.92 0 0 1-4.5-6.16l-4.55-11.66c-.1-.25-.19-.5-.27-.76a11.35 11.35 0 0 0-8.84-7.33l-4.31-.83a4.2 4.2 0 0 1-3.44-4.08 4.3 4.3 0 0 1 1.66-3.14 4.52 4.52 0 0 1 3.64-.9l8.94 1.72a3.67 3.67 0 0 0 4.24-2.63l.05-.15c0-.07 3.38-7.38 4.21-9.86.58-1.75 2.35-7.06 7-5.7 3.17.92 2.22 5 1.53 7.94-.1.43-.2.85-.28 1.23-.75 3.62-2.8 11-3.65 14a3.18 3.18 0 0 0 0 1.81 97.72 97.72 0 0 0 6.42 15.4v.1a3 3 0 0 0 .89 1.21l9.12 7.43a.46.46 0 0 0 .52 0 .39.39 0 0 0 .21-.4l-2.28-11.31a15.12 15.12 0 0 1-.26-4 5 5 0 0 0-3.82-5.15l-.89-.23a4.07 4.07 0 0 1-2.78-2.43l-2.78-7.28a4.23 4.23 0 0 1 1.72-5.12 3 3 0 0 1 2.6-.46c1.29.43 2 1.83 2.36 2.85l2.21 5.66a2.48 2.48 0 0 0 1.26-.22c.77-.31 1.11-.72 1.13-.84l.31-4.34a3.05 3.05 0 0 0-.11-1l-1.26-4.42a15.32 15.32 0 0 1 1.22-11.48 20.61 20.61 0 0 1 1.77-3.7c1.86-3.25 4.93-3.83 7-3 1.77.71 3.52 2.78 2.64 6.27-.11.43-.27.89-.43 1.39-.92 2.69-2.3 6.77 2.28 15.85 0 .1.07.12.11.13a.25.25 0 0 0 .22 0l2.87-2.08a4.51 4.51 0 0 1 3.74-.74 4 4 0 0 1 2.69 2.16 4.18 4.18 0 0 1-1.51 5.09l-4 2.88a12.35 12.35 0 0 0-5.2 9.08l-.1 1.42a2.68 2.68 0 0 0 0 .8l.09.47a2.72 2.72 0 0 0 1.81 1.92c2.69.89 7.6-1.11 13.48-5.5a4 4 0 0 1 6.32 2.65c.19 1.48.33 3.17.42 5l-1.63.08c-.09-1.79-.22-3.43-.41-4.87a2.3 2.3 0 0 0-1.39-1.84 2.33 2.33 0 0 0-2.33.29c-6.41 4.78-11.73 6.82-15 5.73a4.38 4.38 0 0 1-2.87-3.07l-.11-.53a4.71 4.71 0 0 1-.08-1.24l.1-1.43a14 14 0 0 1 5.88-10.28l4-2.88a2.57 2.57 0 0 0 1-3.13 2.41 2.41 0 0 0-1.63-1.3 2.89 2.89 0 0 0-2.39.48l-2.87 2.08a1.86 1.86 0 0 1-1.63.28 1.73 1.73 0 0 1-1.14-1c-4.85-9.62-3.34-14.08-2.34-17 .16-.45.3-.86.4-1.26.62-2.47-.45-3.87-1.67-4.36-1.43-.58-3.6-.1-5 2.3a19 19 0 0 0-1.64 3.43l-.06.16a13.65 13.65 0 0 0-1.13 10.33l1.22 4.36a4.58 4.58 0 0 1 .17 1.61l-.31 4.33c-.06.88-.85 1.71-2.11 2.23-.47.2-2.1.77-3.09-.1l-.15-.13-2.39-6.12c-.53-1.37-1-1.79-1.36-1.9a1.53 1.53 0 0 0-1.22.31 2.59 2.59 0 0 0-1.06 3.14l2.84 7.29a2.41 2.41 0 0 0 1.67 1.44l.89.23a6.57 6.57 0 0 1 5 6.84 13.56 13.56 0 0 0 .22 3.6l2.29 11.31a2 2 0 0 1-1 2.12 2.07 2.07 0 0 1-2.4-.16l-9.1-7.42a4.59 4.59 0 0 1-1.37-1.84 98 98 0 0 1-6.52-15.65 4.73 4.73 0 0 1 0-2.74c.84-3 2.89-10.32 3.63-13.89.08-.4.18-.82.28-1.27.71-3 1.16-5.55-.39-6-2.21-.64-3.71.75-5 4.65-.82 2.46-3.87 9.17-4.24 10a5.31 5.31 0 0 1-6.11 3.77l-8.94-1.72a2.94 2.94 0 0 0-2.33.58 2.39 2.39 0 0 0 1.09 4.34l4.3.83a13 13 0 0 1 10.09 8.43c.07.22.15.45.24.67l4.68 11.58a13.45 13.45 0 0 0 4 5.49l9.35 7.61v.31a21.1 21.1 0 0 1-.3 8.37l-.06.15c-1.58 3.15-1.95 6-1.08 8.55z" transform="translate(-510.36 -200.01)"/><path class="cls-1" d="M632.8 840.33c-.92-10.89 6.93-31.55 15.55-40.93 3.22-3.51 6.36-5.29 9.32-5.29H673a8.06 8.06 0 0 0 8-8 28.62 28.62 0 0 1 37.29-27.28l11.44 3.64a78 78 0 0 0 17.27 3.29c47.81 3.88 68 29.25 72.37 43.63l2.49 8.14-2.87.88-2.49-8.15c-4.16-13.65-23.54-37.76-69.75-41.51a81 81 0 0 1-17.91-3.47l-11.44-3.63a25.62 25.62 0 0 0-33.38 24.42 11.06 11.06 0 0 1-11 11h-15.35c-2.06 0-4.52 1.5-7.11 4.32-8 8.73-15.62 28.6-14.77 38.65z" transform="translate(-510.36 -200.01)"/></g><g id="submarine"><path class="cls-6" d="M1090.38 555.32v-2h-11.64a7.2 7.2 0 0 1-7.19-7.19V511h-29.87v2c0 .78-.21 78.24 0 99.1v4.94l3.4-3.58c10.87-11.44 24.28-11.59 37.24-11.73 2 0 4.1 0 6.11-.12l1.9-.06v-1.91c.26-17.17.05-44.05.05-44.32zm-2 44.32c-14.68.51-31.48-1.46-44.73 12.47-.21-21.09 0-99.07 0-99.07h25.88v33.11a9.19 9.19 0 0 0 9.19 9.19h9.66s.21 26.92 0 44.3z" transform="translate(-510.36 -200.01)"/><path class="cls-6" d="M1109.43 505.42c1.38-5.57 3.07-12.6 4.89-20.34a22.64 22.64 0 0 1 22-17.47h32.89a29.46 29.46 0 0 0 28-20.36c-.75 0-1.51.05-2.32.05-20.23 0-20.23-10.84-40.45-10.84s-20.17 10.84-40.44 10.84-20.22-10.84-40.45-10.84-20.22 10.84-40.45 10.84-20.23-10.84-40.45-10.84-20.23 10.84-40.45 10.84-20.2-10.84-40.41-10.84-20.23 10.84-40.45 10.84-20.23-10.84-40.45-10.84-20.22 10.84-40.45 10.84-20.22-10.84-40.44-10.84-20.22 10.84-40.45 10.84a36.18 36.18 0 0 1-14.69-2.69 50 50 0 0 0-1.64 12.74c0 105.61 101.88 188.52 207.5 188.52h75.34a90 90 0 0 0 90-90c0-14.48 13-23.3 26.21-27.57 14.17-4.57 13.92-9.88 17.16-22.88z" transform="translate(-510.36 -200.01)"/><path class="cls-7" d="M916 244.75a40.51 40.51 0 0 0-40.51 40.51v40.18h27.1v-40.18A13.42 13.42 0 0 1 916 271.85a11 11 0 0 0 11-11v-5.15a11 11 0 0 0-11-10.95z" transform="translate(-510.36 -200.01)"/><path class="cls-7" d="M709.54 447.3c20.23 0 20.23-10.84 40.45-10.84s20.23 10.84 40.45 10.84 20.23-10.84 40.45-10.84 20.22 10.84 40.45 10.84 20.22-10.84 40.45-10.84S932 447.3 952.24 447.3s20.22-10.84 40.45-10.84 20.22 10.84 40.45 10.84 20.23-10.84 40.45-10.84 20.23 10.84 40.45 10.84 20.23-10.84 40.46-10.84 20.22 10.84 40.45 10.84c.81 0 1.57 0 2.32-.05a29.42 29.42 0 0 0 1.44-9.09V368.1a13 13 0 0 0-12.85-13 54.29 54.29 0 0 0-48.66 29.81l-2.89 5.74a30.62 30.62 0 0 1-27.31 16.78H996.8a16.21 16.21 0 0 1-16.21-16.21v-5.72c0-24.41-8.43-43.22-36.3-55.55a147.42 147.42 0 0 0-37.77-10.51c-28.73-4.12-56.43-1.43-56.43 27.59v40.54a19.87 19.87 0 0 1-19.87 19.86h-87.1a49.93 49.93 0 0 0-48.27 37.18 36.18 36.18 0 0 0 14.69 2.69z" transform="translate(-510.36 -200.01)"/><path class="cls-1" d="M915.52 268.91a9.56 9.56 0 0 1-9.54-9.55v-2.27a9.55 9.55 0 0 1 19.09 0v2.27a9.56 9.56 0 0 1-9.55 9.55zm0-19.36a7.55 7.55 0 0 0-7.54 7.54v2.27a7.55 7.55 0 1 0 15.09 0v-2.27a7.55 7.55 0 0 0-7.55-7.54z" transform="translate(-510.36 -200.01)"/><path d="M1119.83 466.88a.91.91 0 0 1-.23 0c-15.73-4.1-25.11-15.6-25.11-30.76v-2.65a31.68 31.68 0 0 1 3.38-14.35 26.24 26.24 0 0 1 8.53-9.78.9.9 0 0 1 1 1.49 24.4 24.4 0 0 0-7.94 9.1 30 30 0 0 0-3.19 13.54v2.65c0 14.5 8.66 25.07 23.77 29a.91.91 0 0 1-.23 1.78zm71.59-68.19h-24.73a19.26 19.26 0 0 0-19.24 19.24v41.45a.9.9 0 1 0 1.8 0v-41.45a17.46 17.46 0 0 1 17.44-17.43h24.73a.91.91 0 1 0 0-1.81z" transform="translate(-510.36 -200.01)"/><path class="cls-1" d="M346.11 145.38h99.96v2h-99.96zm1.4 17.73h110.68v2H347.51zm-10.19 43.31h136.96v2H337.32z"/><path class="cls-4" d="M908.66 567.27a47.6 47.6 0 1 1 47.6-47.6 47.66 47.66 0 0 1-47.6 47.6zm0-93.2a45.6 45.6 0 1 0 45.6 45.6 45.65 45.65 0 0 0-45.6-45.6z" transform="translate(-510.36 -200.01)"/><circle class="cls-1" cx="398.3" cy="319.66" r="23.38"/><circle class="cls-4" cx="941.69" cy="519.6" r="5.2" transform="rotate(-80.88 569.189 719)"/><circle class="cls-4" cx="873.25" cy="519.6" r="5.2" transform="rotate(-80.88 500.748 719.007)"/><path class="cls-4" d="M803.49 556.34a36.67 36.67 0 1 1 36.67-36.67 36.71 36.71 0 0 1-36.67 36.67zm0-71.34a34.67 34.67 0 1 0 34.67 34.67A34.71 34.71 0 0 0 803.49 485z" transform="translate(-510.36 -200.01)"/><circle class="cls-1" cx="803.49" cy="519.67" r="17.9" transform="rotate(-45 306.873 1035.729)"/><path class="cls-4" d="M832.75 519.62a4 4 0 1 1-4-4 4 4 0 0 1 4 4zm-52.39 0a4 4 0 1 1-4-4 4 4 0 0 1 4 4zm231.28 36.72a36.67 36.67 0 1 1 36.67-36.67 36.71 36.71 0 0 1-36.67 36.67zm0-71.34a34.67 34.67 0 1 0 34.67 34.67 34.71 34.71 0 0 0-34.67-34.67z" transform="translate(-510.36 -200.01)"/><circle class="cls-1" cx="1011.64" cy="519.67" r="17.9" transform="rotate(-45 515.02 1035.722)"/><path class="cls-4" d="M1040.9 519.62a4 4 0 1 1-4-4 4 4 0 0 1 4 4zm-52.39 0a4 4 0 1 1-4-4 4 4 0 0 1 4 4z" transform="translate(-510.36 -200.01)"/><path class="cls-4" d="M242.78 221.66h2v141.55h-2z"/><path class="cls-3" d="M1070.33 730.48a5 5 0 0 1-1.31-.18L902 684a5 5 0 0 1 2.68-9.64l167 46.32a5 5 0 0 1-1.36 9.82z" transform="translate(-510.36 -200.01)"/><path class="cls-1" d="M902.68 635.84a23.72 23.72 0 1 0 23.72 23.72 23.72 23.72 0 0 0-23.72-23.72zm0 34.2a10.48 10.48 0 1 1 10.48-10.48A10.48 10.48 0 0 1 902.68 670z" transform="translate(-510.36 -200.01)"/><path class="cls-6" d="M902.68 633.84a25.72 25.72 0 1 0 25.72 25.72 25.75 25.75 0 0 0-25.72-25.72zm0 49.44a23.72 23.72 0 1 1 23.72-23.72 23.72 23.72 0 0 1-23.72 23.72z" transform="translate(-510.36 -200.01)"/><path class="cls-6" d="M902.68 649.08a10.48 10.48 0 1 0 10.48 10.48 10.48 10.48 0 0 0-10.48-10.48zm0 19a8.48 8.48 0 1 1 8.48-8.48 8.49 8.49 0 0 1-8.48 8.4z" transform="translate(-510.36 -200.01)"/><path class="cls-1" d="M1073.06 702.32a20.75 20.75 0 1 0 20.75 20.75 20.75 20.75 0 0 0-20.75-20.75zm0 29.91a9.17 9.17 0 1 1 9.17-9.16 9.17 9.17 0 0 1-9.17 9.16z" transform="translate(-510.36 -200.01)"/><path class="cls-3" d="M1073.06 700.32a22.75 22.75 0 1 0 22.75 22.75 22.77 22.77 0 0 0-22.75-22.75zm0 43.5a20.75 20.75 0 1 1 20.75-20.75 20.75 20.75 0 0 1-20.75 20.75z" transform="translate(-510.36 -200.01)"/><path class="cls-3" d="M1073.06 713.9a9.17 9.17 0 1 0 9.17 9.17 9.17 9.17 0 0 0-9.17-9.17zm0 16.33a7.17 7.17 0 1 1 7.17-7.16 7.17 7.17 0 0 1-7.17 7.16z" transform="translate(-510.36 -200.01)"/><path class="cls-1" d="M1096.81 740.18s-14.2 24.27-16.23 42.15l2.89 1.69c10.52-6.09 28.78-34.81 28.78-34.81z" transform="translate(-510.36 -200.01)"/><path class="cls-3" d="m1113.26 747.48-15.44-9-1.73-1-1 1.73c-.59 1-14.43 24.85-16.49 42.94l-.14 1.29 1.12.66 1.31.77 1.58.92 1 .59 1-.59c10.82-6.27 28.71-34.28 29.47-35.47l1.11-1.75zM1083.47 784l-2.89-1.69c2-17.88 16.23-42.15 16.23-42.15l15.44 9S1094 777.93 1083.47 784z" transform="translate(-510.36 -200.01)"/><path class="cls-1" d="M1083.36 780.9a6.27 6.27 0 1 0 2.24 8.58 6.28 6.28 0 0 0-2.24-8.58z" transform="translate(-510.36 -200.01)"/><path class="cls-3" d="M1088.19 784.22a8.28 8.28 0 0 0-8-6.17 8.26 8.26 0 0 0-8 10.36 8.27 8.27 0 1 0 16-4.19zm-2.59 5.26a6.25 6.25 0 1 1-2.24-8.58 6.25 6.25 0 0 1 2.24 8.58z" transform="translate(-510.36 -200.01)"/><path class="cls-1" d="M1115.22 744.14s16.07-30 16.22-42.16l-2.89-1.69c-14.58 10.54-28.78 34.82-28.78 34.82z" transform="translate(-510.36 -200.01)"/><path class="cls-3" d="m1132.45 700.26-1.68-1-1.21-.71-1.12-.66-1.06.76c-14.76 10.67-28.75 34.42-29.34 35.43l-1 1.72 1.72 1 15.45 9 1.79 1 1-1.83c.67-1.24 16.3-30.57 16.46-43.07v-1.16zm-17.23 43.88-15.45-9s14.2-24.28 28.78-34.82l2.89 1.69c-.15 12.13-16.22 42.13-16.22 42.13z" transform="translate(-510.36 -200.01)"/><path class="cls-1" d="M1128.67 703.41a6.27 6.27 0 1 0-2.25-8.58 6.28 6.28 0 0 0 2.25 8.58z" transform="translate(-510.36 -200.01)"/><path class="cls-3" d="M1136 690.86a8.27 8.27 0 1 0 3 11.31 8.29 8.29 0 0 0-3-11.31zm1.24 10.31a6.28 6.28 0 1 1-2.25-8.58 6.28 6.28 0 0 1 2.26 8.58z" transform="translate(-510.36 -200.01)"/><path d="M606.09 412.1zm0-70.23z" style="fill:none"/><path class="cls-6" d="M1105 577c0-19.4 5.12-35.12 11.43-35.12h-24.53c-6.31 0-11.43 15.72-11.43 35.12s5.12 35.11 11.43 35.11h24.53c-6.29 0-11.43-15.72-11.43-35.11z" transform="translate(-510.36 -200.01)"/><path class="cls-3" d="M1111.2 569.42c1 0 4.58 1.25 6.42 5.94 3.47-2.65 4-11.44 4-12.83-.12-7.63-2.58-13.31-5.06-13.19-2.93.13-5.79 7.82-5.41 18.56 0 .55.03 1.1.05 1.52zm.1 2.79c-1.76 5.32-.93 26.5 2.5 31.43 1 1.37 2.43 1.69 3.21.16 2-3.94 2.78-13.51 1.65-21.95-1.04-7.75-6.12-9.7-7.36-9.64zm9.39.89a8.62 8.62 0 0 1-1.77 3.59c3.52 11.15 1.19 17.48 1.19 17.48s4.36-.7 4.41-9.4c.04-6.3-1.34-10.37-3.83-11.67zm-40.31 120.97a4 4 0 0 0-4.71 3.36l-.47 3.29a.7.7 0 0 1-1.39 0l-.51-3.34a4 4 0 0 0-5.4-3.12 4.08 4.08 0 0 0-2.49 4.46l.39 2.51a2.5 2.5 0 0 1-4.5 1.85l-1.82-2.52a4.06 4.06 0 0 0-4.93-1.4 4 4 0 0 0-1.62 6l12.71 17.56a4 4 0 0 0 3.25 1.66c.81 0 7.9-3.82 8.08-3.82 2 0 3.49.09 3.77-1.91l2.82-19.88a4.16 4.16 0 0 0-3.18-4.7zM1067 725.45c-1.73 1.37-.53.89-1.81 2.33 0 .06 6 9.58-.16 17.66a22.39 22.39 0 0 1-6 5.24c-3.63 2.44-7.75 5.2-10.45 12.83-6.08 17.2 6.57 32 7.11 32.68a4 4 0 1 0 6-5.25c-.1-.11-10.15-11.9-5.61-24.76 1.82-5.13 4.15-6.69 7.37-8.85a29.87 29.87 0 0 0 7.93-7c7.89-10.38 4.24-20.36 1.22-24.18a4 4 0 0 0-5.6-.7zM905.46 654.6a5 5 0 0 0-3.18.65 6 6 0 0 0-1-.44A5 5 0 0 0 895 658l-7.88 23.72a5 5 0 0 0 3.17 6.32 4.84 4.84 0 0 0 1.58.26 5 5 0 0 0 4.28-2.44l-.35 2.5a5 5 0 0 0 4.28 5.63 5.27 5.27 0 0 0 .68 0 5 5 0 0 0 5-4.32l4-29.45a5 5 0 0 0-4.3-5.62z" transform="translate(-510.36 -200.01)"/><path class="cls-1" d="M1239.57 807.6c9.69-54.39-33.09-99.94-37.75-101.33l-4.55 4.68c4 5.28 18.69 34.43 15.18 63.83a3.77 3.77 0 0 1-4.77 3.18c-36.67-10.27-87.86-38.61-87.86-38.61l-1.82 2.85-35.7-20.2a5.87 5.87 0 1 0-5.78 10.23l35.77 20.24-1.41 2.1s55.32 30.64 76 51.62a4.79 4.79 0 0 1-1.11 7.55c-24.2 13.4-59.29 21.49-65.5 20.1L1118 840c3.36 3.45 67.15 13.36 112-16.88a17.39 17.39 0 0 1 9-3c1.12 0 2.34-2.09 1.85-3.13a15.6 15.6 0 0 1-1.28-9.39z" transform="translate(-510.36 -200.01)"/><path class="cls-3" d="M1241.54 808c5.21-29.23-4.58-55.21-13.71-71.85-9.83-17.93-22.06-30.74-25.44-31.75l-1.16-.34-.85.87-4.54 4.68-1.2 1.24 1 1.37c4.24 5.55 18.16 34.07 14.79 62.38a1.77 1.77 0 0 1-1.76 1.55 2.05 2.05 0 0 1-.49-.06c-36-10.09-86.93-38.16-87.44-38.44l-1.63-.9-1 1.56-.83 1.27-34.07-19.27a7.87 7.87 0 0 0-11.46 9 7.79 7.79 0 0 0 3.71 4.75l33.9 19.17-.21.31-1.21 1.81 1.9 1.06c.14.07 14 7.76 30.17 17.9 21.34 13.37 37 24.91 45.35 33.38a2.74 2.74 0 0 1 .77 2.34 2.81 2.81 0 0 1-1.42 2c-22.07 12.22-53.56 20-62.67 20a6.75 6.75 0 0 1-1.42-.11l-1.72-.38-.6 1.65-2.24 6.13-.43 1.18.88.9c2.56 2.63 18.77 4.94 34.68 4.94 17.88 0 52-2.8 79.82-21.57a15.34 15.34 0 0 1 7.93-2.68 4.06 4.06 0 0 0 3.14-2.13 4.14 4.14 0 0 0 .44-3.85 13.62 13.62 0 0 1-.98-8.11zm-.8 9c.49 1-.73 3.08-1.85 3.13a17.39 17.39 0 0 0-9 3c-24.92 16.82-55.7 21.22-78.7 21.22-18.36 0-31.76-2.81-33.25-4.34l2.24-6.13a8.43 8.43 0 0 0 1.86.16c9.53 0 41.25-7.86 63.64-20.26a4.79 4.79 0 0 0 1.11-7.55c-20.65-21-76-51.62-76-51.62l1.41-2.1-35.77-20.24a5.87 5.87 0 1 1 5.78-10.23l35.7 20.2 1.86-2.85s51.23 28.3 87.91 38.61a3.7 3.7 0 0 0 1 .14 3.76 3.76 0 0 0 3.74-3.32c3.51-29.4-11.14-58.55-15.18-63.83l4.55-4.68c4.66 1.39 47.44 46.94 37.75 101.33a15.6 15.6 0 0 0 1.2 9.29z" transform="translate(-510.36 -200.01)"/><rect class="cls-1" x="1093.96" y="730.17" width="24.06" height="24.06" rx="3.42" transform="rotate(-59.68 676.541 1087.051)"/><path class="cls-3" d="M1123 737.74a5.43 5.43 0 0 0-2.5-3.31l-14.87-8.69a5.39 5.39 0 0 0-2.74-.74 5.45 5.45 0 0 0-4.68 2.68l-8.69 14.87a5.42 5.42 0 0 0 1.94 7.42l14.87 8.69a5.42 5.42 0 0 0 7.41-1.94l8.7-14.87a5.37 5.37 0 0 0 .56-4.11zm-2.29 3.1-8.71 14.87a3.44 3.44 0 0 1-3 1.69 3.38 3.38 0 0 1-1.72-.47l-14.87-8.69a3.41 3.41 0 0 1-1.22-4.68l8.69-14.87a3.42 3.42 0 0 1 4.68-1.22l14.87 8.69a3.42 3.42 0 0 1 1.29 4.68z" transform="translate(-510.36 -200.01)"/><path class="cls-4" d="M1195 448.3c-10.37 0-15.62-2.81-20.7-5.53s-9.89-5.31-19.76-5.31-14.66 2.58-19.75 5.31-10.33 5.53-20.7 5.53-15.61-2.81-20.69-5.53-9.9-5.31-19.76-5.31-14.66 2.58-19.75 5.31-10.33 5.53-20.7 5.53-15.62-2.81-20.7-5.53-9.89-5.31-19.75-5.31-14.74 2.54-19.8 5.31-10.34 5.53-20.7 5.53-15.62-2.81-20.7-5.53-9.89-5.31-19.75-5.31-14.67 2.54-19.79 5.31-10.34 5.53-20.7 5.53-15.62-2.81-20.7-5.53-9.89-5.31-19.75-5.31-14.67 2.58-19.75 5.31-10.34 5.53-20.7 5.53-15.62-2.81-20.7-5.53-9.89-5.31-19.75-5.31-14.66 2.58-19.75 5.31-10.33 5.53-20.7 5.53-15.61-2.81-20.69-5.53-9.89-5.31-19.75-5.31-14.67 2.58-19.75 5.31-10.34 5.53-20.7 5.53v-2c9.86 0 14.67-2.57 19.75-5.3s10.33-5.54 20.7-5.54 15.61 2.82 20.69 5.54 9.89 5.3 19.75 5.3 14.67-2.57 19.76-5.3 10.33-5.54 20.69-5.54 15.62 2.82 20.7 5.54 9.89 5.3 19.75 5.3 14.67-2.57 19.75-5.3 10.34-5.54 20.7-5.54 15.62 2.82 20.7 5.54 9.89 5.3 19.75 5.3 14.66-2.57 19.75-5.3 10.33-5.54 20.7-5.54 15.61 2.82 20.7 5.54 9.89 5.3 19.75 5.3 14.7-2.57 19.8-5.3 10.33-5.54 20.7-5.54 15.62 2.82 20.7 5.54 9.89 5.3 19.75 5.3 14.67-2.57 19.75-5.3 10.34-5.54 20.7-5.54 15.62 2.82 20.7 5.54 9.89 5.3 19.75 5.3 14.67-2.57 19.76-5.3 10.33-5.54 20.69-5.54 15.62 2.82 20.7 5.54 9.89 5.3 19.76 5.3 14.66-2.57 19.75-5.3 10.33-5.54 20.7-5.54v2c-9.86 0-14.67 2.58-19.75 5.31s-10.35 5.53-20.66 5.53zm-78.55 93.58c-6.31 0-11.43 15.72-11.43 35.12s5.12 35.11 11.43 35.11 11.43-15.72 11.43-35.11-5.12-35.12-11.43-35.12zm0 68.23c-3.94 0-9.43-12.6-9.43-33.11s5.49-33.12 9.43-33.12 9.43 12.6 9.43 33.12-5.49 33.11-9.43 33.11z" transform="translate(-510.36 -200.01)"/><path d="M897.22 682.47a.5.5 0 0 1-.17 0 .9.9 0 0 1-.72-1.05l4.37-22.76a.9.9 0 1 1 1.77.34l-4.36 22.76a.92.92 0 0 1-.89.71zm177.18 33.07a.9.9 0 0 1-.9-.9v-10.15a.91.91 0 1 1 1.81 0v10.15a.9.9 0 0 1-.91.9zm-7.1-1.41a.9.9 0 0 1-.81-.5l-3.41-7a.9.9 0 1 1 1.62-.8l3.41 7a.9.9 0 0 1-.41 1.21 1 1 0 0 1-.4.09z" transform="translate(-510.36 -200.01)"/><path class="cls-1" d="M901.16 319.76a99.73 99.73 0 0 0-23.37-.28l-.25-2a102.18 102.18 0 0 1 23.85.28z" transform="translate(-510.36 -200.01)"/></g></svg>