<svg xmlns="http://www.w3.org/2000/svg" viewBox="0 0 1057.47 771.35"><defs><style>.cls-3{fill:#274d76}.cls-4{fill:#fff3a1}.cls-5{fill:#ec8c92}</style></defs><g id="Background"><path d="M474.4 261.25 610 216.47A22.38 22.38 0 0 0 621.76 183c-11.68-17.91 6-40.44 26.17-33.34l698.26 245.52c49.93 17.56 56.1 85.67 10.13 111.91a9.65 9.65 0 0 0 1.27 17.36l97.41 38.09c40.58 15.88 46.33 70.93 9.92 94.85l-39.66 26.05a11 11 0 0 0 2.49 19.68c45.75 15.63 54.23 76.67 14.47 104.18l-104.07 72a227.18 227.18 0 0 1-204.46 27.55L545.34 700.47c-36.56-12.82-37.35-64.24-1.2-78.18l32.5-12.54c18.81-7.25 19.18-33.73.58-41.52l-121.71-51c-32.81-13.74-31.51-60.66 2-72.55l85.76-30.44c19.08-6.77 20.08-33.38 1.57-41.56l-74.27-32.78c-35.32-15.62-32.84-66.54 3.83-78.65z" transform="translate(-431.63 -148.32)" style="fill:#93b4f6"/><path d="m663.41 509.88-119.55-45.47a63.28 63.28 0 0 0-22.25-3.71c-14.82 0-29.48 4.1-39.2 11-7.77 5.49-11.59 12.15-10.76 18.77.87 6.88 6.59 12.66 16.12 16.28l119.55 45.48a63.55 63.55 0 0 0 22.25 3.7c14.82 0 29.48-4.09 39.2-11 7.78-5.48 11.6-12.15 10.76-18.76-.87-6.88-6.59-12.67-16.12-16.29zm4.21 33.42c-9.7 6.85-24.2 10.59-38 10.59a61.43 61.43 0 0 1-21.62-3.57l-119.52-45.47c-17.81-6.78-20-20.9-4.92-31.55 9.71-6.85 24.2-10.6 38.05-10.6a61.66 61.66 0 0 1 21.54 3.57l119.55 45.48c17.81 6.77 20.01 20.9 4.92 31.55zm242.52-53.73c-.5-3.93-3.68-7.2-9-9.21l-61.92-23.55a33.7 33.7 0 0 0-11.86-2c-7.87 0-15.67 2.19-20.86 5.86-4.33 3.05-6.45 6.83-6 10.62s3.68 7.21 9 9.22l61.92 23.55a33.74 33.74 0 0 0 11.86 2c7.87 0 15.67-2.18 20.86-5.85 4.35-3.07 6.48-6.84 6-10.64zm-7.13 9c-5 3.54-12.53 5.48-19.71 5.48a31.63 31.63 0 0 1-11.15-1.85l-61.92-23.55c-9.22-3.51-10.36-10.82-2.55-16.34 5-3.55 12.54-5.49 19.71-5.49a31.86 31.86 0 0 1 11.15 1.85l61.92 23.56c9.23 3.5 10.37 10.82 2.54 16.34zm-82.26-178.93c12.93 0 25.72-3.58 34.21-9.57 6.83-4.82 10.19-10.7 9.45-16.55-.77-6.07-5.8-11.17-14.17-14.36l-103.84-39.5a55.56 55.56 0 0 0-19.4-3.23c-12.93 0-25.72 3.58-34.21 9.57-6.83 4.82-10.19 10.7-9.45 16.54.77 6.08 5.8 11.18 14.17 14.37l103.84 39.5a55.56 55.56 0 0 0 19.4 3.23zm-126.82-72c8.43-5.95 21-9.2 33.05-9.2a53.33 53.33 0 0 1 18.7 3.1L849.53 281c15.47 5.89 17.38 18.16 4.27 27.41-8.43 5.95-21 9.2-33 9.2a53.33 53.33 0 0 1-18.7-3.1L698.2 275c-15.47-5.85-17.38-18.12-4.27-27.37z" transform="translate(-431.63 -148.32)" style="fill:#fff"/></g><path class="cls-3" d="M677.23 316C628 255.25 564.86 206.6 530 192.58c-6.86-2.76-9.83-.17-6.93 6.64 0 0 29.86 52.09 52.22 94.12-26.14-1.42-44.2 2.5-46.8 11.83-4.59 16.43 40.56 43.41 100.85 60.26s112.89 17.17 117.49.73c3.74-13.44-25.76-33.92-69.6-50.16zm549.98 60.06c-47.08-61.46-111.15-111.59-145.68-125.47-6.43-2.58-9.21-.16-6.49 6.22 0 0 28.23 49.26 49.2 88.72-29.48-5.58-49.47-5.34-52.13 2-4.89 13.52 50.53 45.94 123.76 72.4s136.58 37 141.46 23.42c4.58-12.64-43.77-41.89-110.12-67.29zM1348 596.83c-38.24-47.72-87.82-86.08-115.08-97-5.3-2.13-7.59-.13-5.36 5.13 0 0 19.33 33.71 35.85 64.32-27-6-45.92-6.59-48.18-.33-3.67 10.16 38 34.52 93 54.4s102.63 27.77 106.3 17.6c3.01-8.49-25.29-26.77-66.53-44.12z" transform="translate(-431.63 -148.32)" id="sharks"/><g id="bubble"><path class="cls-3" d="m1294 692.23-418.77-153c-62.4-22.79-155.24-10.6-207.35 27.22-52.11 37.82-43.79 86.95 18.6 109.73l222.38 81.24c7.46 2.72 7.37 10.06-.2 12.47L855 788.63c-10.5 3.66-2.59 13.1 8.53 13.21l181.6 8a44.16 44.16 0 0 1 14.61 2.67l45.5 16.62c62.4 22.79 155.24 10.61 207.35-27.22 52.11-37.77 43.79-86.91-18.59-109.68z" transform="translate(-431.63 -148.32)"/><path class="cls-4" d="m1316.25 684.56-418.78-153C835.08 508.79 742.24 521 690.12 558.8c-52.11 37.82-43.78 87 18.6 109.73l222.38 81.24c7.46 2.73 7.37 10.06-.2 12.47L877.26 781c-10.5 3.66-2.6 13.1 8.52 13.21l181.6 8.06a43.85 43.85 0 0 1 14.61 2.66l45.51 16.62c62.39 22.79 155.23 10.61 207.35-27.22 52.15-37.86 43.78-86.98-18.6-109.77z" transform="translate(-431.63 -148.32)"/></g><g id="surfer"><path class="cls-3" d="M966.5 452.26s-39 46.74-77.08 95.54c-18.89 24.2-21.77 62 .61 77.1 21.39 14.48 49.8 26.07 78.89-7.66 32.88-38.12 92.42-124.53 92.42-124.53z" transform="translate(-431.63 -148.32)"/><path class="cls-5" d="m1059.23 433.18-24.2 5.38-62.18 44.87a66.37 66.37 0 0 0-22.41 79.4l44.45 106.45c1.73 4.08 2 8.35-1.55 11-9 6.81-11 8.54-17.6 13.66-5.31 4.11-5.07 16.26 9.73 15.77 1.74 5.34 9.1 5.62 13.59 4.08 1.15 2.41 6 6.21 12.54 2.83 1.3 2.62 7.4 6.06 14.09 2.21 1.89 4.87 13.64 6.7 26.3-.94 9-5.4 31.33-17.29 44.48-24.21 5.74-3 7.08-9.86 4.71-15.89L1056.08 557a1.63 1.63 0 0 1 .59-1.91l47.13-33.53z" transform="translate(-431.63 -148.32)"/><path d="m1103.8 521.54-44.57-88.36-24.2 5.38-62.18 44.87a66.37 66.37 0 0 0-22.41 79.4c8 19.09 46.89 32.12 73 15.41 20.66-13.24 80.36-56.7 80.36-56.7z" transform="translate(-431.63 -148.32)" style="fill:#74baab"/><path class="cls-5" d="M1189.54 578.53c3.33-.58 4.33-10.18-4.29-15.53-1.21-.75-17-10.74-24.83-15.06a9.4 9.4 0 0 1-4.68-6.22l-17.23-78.4a71.41 71.41 0 0 0-11.66-26.14c-13.45-18.8-41.44-55.25-75.71-85a63.73 63.73 0 0 0-7.31-5.46c-17.67-11.36-36.65-19.26-54.47-24.76 3.4-4.35 5.06-11.47 5.06-19.82V270.8a25.79 25.79 0 0 0-7.42-50.51h-1.37a16.54 16.54 0 0 0-7.42-2l-7-.18A34.43 34.43 0 0 0 936 252.6v18.9h-.94a9.85 9.85 0 0 0-9.85 9.85v3.94a14.73 14.73 0 0 0 8.11 13.16 4.73 4.73 0 0 1 2.68 4.2V313a119.53 119.53 0 0 0-54 14.87l-93.17 50.51a34.33 34.33 0 0 1-5.12 2.26c-16.29 5.63-102.65 35.54-115.9 40.62s-13 11.63-11.36 16.51c-7.48 3.94-6.31 15.49-1.47 16.73-3.57 18 15.27 15.49 15.27 15.49s1.79 7.2 10.76 8.12c14.58 1.49 21.1-4.84 41.36-13.24-4.42 6.95-2.58 17.55 3.44 19.69 9.37 3.32 21.29-13.24 31.57-17.93 5.76-2.63 57.28-21.06 61.92-23.11 9.29-4.1 40.29-21.94 73.46-37 11.91 15.26 22.79 29.62 34.1 33.09 6.44 7.75 20.26 36.19 20.26 36.19l26.21 8.26 58.57-42s22.06 21.38 38.1 43.37c6.92 13.23 23.16 77.12 28.08 98.68a7.16 7.16 0 0 1-.45 4.54c-3.74 8.24-8.75 22.16 1.59 24.65 10 2.41 19.33-4.77 23.54-10 2.26-2.83 4.72-3.62 7.94-2 3.51 1.82 8.34 4.36 13.92 7.42 17.06 9.35 27.12 4 28.73-.17 10.7 3.47 19.25-5.49 14.58-12.67 7.62-.88 7.75-12.05 1.61-17.35z" transform="translate(-431.63 -148.32)"/><path d="M1051.14 352.19a63.73 63.73 0 0 0-7.31-5.46c-17.67-11.36-36.65-19.26-54.47-24.76 3.4-4.35 5.06-11.47 5.06-19.82V270.8a25.79 25.79 0 0 0-7.42-50.51h-1.37a16.54 16.54 0 0 0-7.42-2l-7-.18A34.43 34.43 0 0 0 936 252.6v18.9h-.94a9.85 9.85 0 0 0-9.85 9.85v3.94a14.73 14.73 0 0 0 8.11 13.16 4.73 4.73 0 0 1 2.68 4.2V313h-.31a47.16 47.16 0 0 0-45 41.37 66.18 66.18 0 0 0-.39 14.16c7.53 72.26 100.37 85.91 105.38 49.65a7.19 7.19 0 0 1 9.19-6.05c46.58 14.41 108.83 13.77 100.28-3.28-14.33-17.65-32.98-38.42-54.01-56.66z" transform="translate(-431.63 -148.32)" style="fill:#f2bdba"/><path class="cls-4" d="M994.42 270.8a25.79 25.79 0 0 0-7.42-50.51h-1.37a16.54 16.54 0 0 0-7.42-2l-7-.18A34.43 34.43 0 0 0 936 252.6v18.9c3.62 1 4.92 4 5.38 9.18a2 2 0 0 0 4.07-.15c.34-10.33-1.28-27.25 8.85-30.95 9.45 28.42 40.12 21.22 40.12 21.22z" transform="translate(-431.63 -148.32)"/><path d="M980.72 256.17c-9.5 0-15.89-6.7-15.89-16.67 0-7.93 5.48-15.64 13.31-18.74l.74 1.86c-7.09 2.81-12 9.75-12 16.88 0 8.91 5.45 14.67 13.89 14.67a9.77 9.77 0 0 0 9.95-9.36 9.61 9.61 0 0 0-2.57-7.15 6.87 6.87 0 0 0-5.37-2.14c-3.7.13-5.83 2.69-5.75 5.08 0 1.56 1.16 3.21 4.08 3.11l.06 2c-4.13.14-6-2.44-6.14-5-.11-3.37 2.73-7 7.67-7.15a8.93 8.93 0 0 1 6.89 2.74 11.86 11.86 0 0 1-8.82 19.91zm-4.13 72.63h-10.4a18.65 18.65 0 0 1-18.63-16.88c-.06-.61-.09-1.23-.09-1.84h2a15.19 15.19 0 0 0 .08 1.65 16.65 16.65 0 0 0 16.64 15.07h9.51a16 16 0 0 0 12.89-5.43l1.53 1.29a17.7 17.7 0 0 1-13.53 6.14z" transform="translate(-431.63 -148.32)"/><path d="M503.38 164.7h2v22.65h-2zm40.12-6.48-.44-1.95 4.8-1.07-1.72-17.78 1.99-.19 1.88 19.53-6.51 1.46z"/><path d="M976.29 314.1c-3.3 0-9.51-.67-10.23-5.6l2-.29c.69 4.72 10 3.82 10.08 3.81l.2 2c-.13-.02-.92.08-2.05.08zm-16.24-26.91-1.27-1.54c4.06-3.37 10.37-3.35 14.06 0l-1.35 1.47c-2.93-2.65-8.17-2.64-11.44.07zm23.75-.01-1.29-1.52a7.42 7.42 0 0 1 9.82 0l-1.32 1.5c-3.46-3.04-7.01-.1-7.21.02zm-8.64 172.66c-.22-.13-22.41-13-43-18.06l.48-1.94c20.84 5.17 43.26 18.14 43.48 18.27z" transform="translate(-431.63 -148.32)"/><path transform="rotate(-3.46 -1716.864 7480.493)" d="M951.98 380.45h2v56.83h-2z"/><path transform="rotate(-6.48 -549.02 4108.872)" d="M956.83 369.86h40.94v2h-40.94z"/><path d="M944.66 371.62c-7.26-6.24-35.76-24-36-24.2l1.06-1.7c1.17.74 28.9 18 36.28 24.39z" transform="translate(-431.63 -148.32)"/><path transform="rotate(-47.54 633.983 845.242)" d="M1017.06 416.46h2v25.87h-2z"/><path transform="rotate(-59.44 829.654 874.03)" d="M1174.33 557.67h2v24.94h-2z"/><path d="M1184.68 593.32a22.63 22.63 0 0 0-2.93-2.19L1153 574.21l1-1.72 28.77 17a24 24 0 0 1 3.23 2.43zm-12.09 12.74a4.89 4.89 0 0 0-2.42-4.51l-27.37-16.8 1-1.7 27.42 16.82a6.92 6.92 0 0 1 3.33 6.18zm-501.05-138.3-2-.25.21-1.65a10.14 10.14 0 0 1 6-7.95l23.76-10.4.8 1.83-23.76 10.41a8.12 8.12 0 0 0-4.77 6.37zm-14.33-15.08-1.73-1 .18-.31a12.45 12.45 0 0 1 6.46-6.13c8-3.64 26.47-10.56 26.66-10.63l.7 1.87c-.19.07-18.64 7-26.53 10.58-3.37 1.54-4.29 3.13-5.56 5.32zm2.16-14.76-1.85-.76c1.83-4.47 21.08-10.88 24.93-12.11l.61 1.9c-8.55 2.76-22.55 8.17-23.69 10.97zm67.16 24.23-1.3-1.52a93.89 93.89 0 0 1 13.58-9.25l1 1.75a94.26 94.26 0 0 0-13.28 9.02zm300.26 254.7h-2v-1.55a9.69 9.69 0 0 1 3.54-7.51L1033 704l1.27 1.54-4.64 3.82a7.71 7.71 0 0 0-2.81 6zm-14.41-3.63h-2a12.16 12.16 0 0 1 4-9l5.36-4.81 1.33 1.49-5.36 4.81a10.11 10.11 0 0 0-3.33 7.51zm-12.87-2.17h-2a13.84 13.84 0 0 1 4.36-10.06l5.46-5.1 1.36 1.46-5.45 5.1a11.82 11.82 0 0 0-3.73 8.6zm-13.51-4.4h-2a12.58 12.58 0 0 1 4.33-9.5l6.44-5.58 1.31 1.51-6.43 5.58a10.56 10.56 0 0 0-3.65 7.99z" transform="translate(-431.63 -148.32)"/></g></svg>