<svg width="1840" height="1380" viewBox="0 0 1840 1380" fill="none" xmlns="http://www.w3.org/2000/svg">
<path fill-rule="evenodd" clip-rule="evenodd" d="M1214.52 1081.5L1383.52 666L1308.52 456L1331.02 478.5L1401.02 683L1236.02 1081.5H1214.52Z" fill="#B9C5D9"/>
<path fill-rule="evenodd" clip-rule="evenodd" d="M1283.02 452L1301.02 373L1351.52 381L1356.52 357.5L1358.52 365.5L1354.52 386.5L1305.02 379L1288.02 452H1283.02ZM1315.02 311.5C1315.02 311.5 1315.86 314.167 1317.52 319.5L1311.02 350L1306.52 349C1312.19 324 1315.02 311.5 1315.02 311.5ZM1223.52 360L1272.52 368.5L1271.02 373L1227.52 366L1223.52 360Z" fill="#B9C5D9"/>
<path fill-rule="evenodd" clip-rule="evenodd" d="M1229.02 443L1308.02 456L1383.01 667.5L1206.02 1098L1087.02 1081.5V598.5L1229.02 443Z" fill="white"/>
<path d="M1236.52 557C1239.01 557 1241.02 554.761 1241.02 552C1241.02 549.239 1239.01 547 1236.52 547C1234.04 547 1232.02 549.239 1232.02 552C1232.02 554.761 1234.04 557 1236.52 557Z" fill="white"/>
<path d="M1229.24 442.194L1309.08 455.332L1384.31 667.52L1207 1098.82L1086.77 1082.15V598.209L1229.24 442.194ZM1088.27 598.791V1080.85L1206.05 1097.18L1382.71 667.48L1307.96 456.668L1229.8 443.806L1088.27 598.791Z" fill="#525E72"/>
<path fill-rule="evenodd" clip-rule="evenodd" d="M910.523 673C914.058 697.026 916.895 714.859 919.034 726.5C921.173 738.141 925.171 757.497 931.026 784.568C934.417 817.485 937.587 841.962 940.534 858C943.481 874.038 948.725 895.34 956.266 921.906L931.523 928.5L983.023 1067.5L821.676 1107.11C819.537 1107.63 818.032 1109.55 818.028 1111.75C818.025 1113.82 819.699 1115.5 821.767 1115.5C821.769 1115.5 821.771 1115.5 821.773 1115.5H1015.52L1031.52 1089.5L1041.02 1115.5H1078.02L1056.52 1036L964.523 672.5L910.523 673Z" fill="white"/>
<path d="M930.521 927.988L982.015 1066.97L821.486 1106.38C819.011 1106.98 817.271 1109.2 817.267 1111.75C817.263 1114.23 819.272 1116.25 821.754 1116.25H1015.93L1031.34 1091.21L1040.49 1116.25H1078.99L1057.23 1035.8L971.252 672.827L971.115 672.25H909.642L909.769 673.109C913.305 697.143 916.143 714.984 918.285 726.636C920.426 738.286 924.424 757.648 930.281 784.726C933.662 817.58 936.833 842.074 939.785 858.136C942.71 874.052 947.89 895.131 955.325 921.377L930.521 927.988ZM969.929 673.75L1055.78 1036.17L1077.03 1114.75H1041.54L1031.68 1087.79L1015.09 1114.75H821.761C820.103 1114.75 818.767 1113.4 818.767 1111.75C818.769 1109.89 820.039 1108.28 821.843 1107.83L984.006 1068.03L932.5 929.012L957.184 922.434L956.975 921.701C949.441 895.156 944.202 873.875 941.26 857.864C938.317 841.85 935.15 817.39 931.761 784.491C925.894 757.345 921.898 737.995 919.76 726.364C917.648 714.873 914.854 697.334 911.379 673.75H969.929Z" fill="#525E72"/>
<path fill-rule="evenodd" clip-rule="evenodd" d="M1002.02 976L953.022 992.5L963.522 1021L1009.52 1005.5L1002.02 976Z" fill="#B9C5D9"/>
<path fill-rule="evenodd" clip-rule="evenodd" d="M1001.24 976L947.022 995.5L957.522 1023L1008.74 1005.5L1001.24 976Z" fill="#B9C5D9"/>
<path d="M1002.27 975.015L946.549 995.053L957.58 1023.94L1010.14 1005.99L1002.27 975.015ZM1008.34 1005.01L958.465 1022.06L948.496 995.947L1001.22 976.985L1008.34 1005.01Z" fill="#525E72"/>
<path fill-rule="evenodd" clip-rule="evenodd" d="M927.614 477.699C977.673 475.091 1022.32 510.164 1031.2 560.039C1086.76 872.052 1139.53 1038.76 1189.51 1060.16C1243.5 1083.27 1301.22 1098.62 1362.68 1106.22C1364.28 1106.41 1365.87 1106.66 1367.46 1106.94L1456.51 1123L1089.94 1116.77C1046.98 1116.04 1010.82 1084.38 1004.42 1041.89L919.749 479.986L919.511 480L896.05 437.413L807.425 276.535L796.511 258L885.559 317.179C889.837 320.023 892.858 324.404 893.994 329.414L927.614 477.699ZM885.522 483L751.53 385.295C748.69 383.225 747.011 379.922 747.011 376.407V282.5L885.522 483Z" fill="#525E72"/>
<path d="M440.701 567.342C440.326 564.676 442.306 562.194 445.123 561.798C447.94 561.402 450.528 563.242 450.903 565.908L453.681 585.676C455.759 600.461 470.108 610.667 485.73 608.472C494.491 607.24 502.217 602.237 506.652 594.922L513.764 583.191C521.046 571.179 537.128 566.893 549.683 573.618C558.775 578.488 563.851 588.073 562.588 597.986C562.246 600.667 559.682 602.61 556.861 602.327C554.04 602.044 552.029 599.641 552.371 596.961C553.139 590.929 550.051 585.098 544.52 582.135C536.881 578.044 527.097 580.651 522.667 587.959L515.554 599.691C509.521 609.643 499.007 616.451 487.087 618.127C465.83 621.114 446.306 607.228 443.479 587.11L440.701 567.342ZM721.861 527.828L724.639 547.596C727.466 567.713 712.526 586.443 691.27 589.431C679.349 591.106 667.366 587.459 658.824 579.555L648.753 570.239C642.48 564.435 632.356 564.626 626.141 570.664C621.641 575.037 620.279 581.493 622.681 587.079C623.748 589.562 622.478 592.425 619.844 593.475C617.21 594.525 614.209 593.364 613.142 590.881C609.195 581.7 611.433 571.088 618.83 563.9C629.046 553.975 645.686 553.662 655.996 563.201L666.067 572.518C672.345 578.327 681.152 581.007 689.913 579.776C705.535 577.58 716.515 563.815 714.437 549.029L711.659 529.262C711.284 526.595 713.264 524.113 716.081 523.717C718.899 523.321 721.486 525.162 721.861 527.828Z" fill="white"/>
<path d="M439.568 567.008C439.134 563.922 441.41 561.069 444.628 560.617C447.847 560.164 450.821 562.28 451.255 565.366L454.033 585.134C456.052 599.499 470.014 609.43 485.235 607.291C493.775 606.09 501.303 601.215 505.62 594.095L512.732 582.363C520.222 570.009 536.741 565.607 549.646 572.519C559.01 577.534 564.244 587.417 562.941 597.643C562.547 600.734 559.613 602.958 556.395 602.635C553.162 602.31 550.84 599.535 551.236 596.428C551.965 590.708 549.035 585.176 543.775 582.358C536.486 578.454 527.14 580.944 522.917 587.909L515.805 599.641C509.653 609.788 498.942 616.725 486.8 618.431C465.143 621.475 445.232 607.313 442.346 586.776L439.568 567.008ZM441.053 566.799L443.831 586.567C446.599 606.265 465.736 619.877 486.592 616.946C498.291 615.301 508.607 608.621 514.522 598.864L521.635 587.132C526.273 579.481 536.495 576.757 544.483 581.036C550.286 584.144 553.532 590.274 552.724 596.617C552.437 598.87 554.136 600.9 556.545 601.142C558.97 601.386 561.164 599.723 561.453 597.453C562.676 587.851 557.759 578.566 548.938 573.841C536.732 567.303 521.089 571.472 514.015 583.141L506.902 594.873C502.35 602.382 494.425 607.514 485.443 608.776C469.42 611.028 454.684 600.547 452.547 585.342L449.769 565.574C449.453 563.328 447.253 561.763 444.837 562.102C442.421 562.442 440.737 564.553 441.053 566.799ZM722.213 527.285L724.991 547.053C727.877 567.59 712.641 586.691 690.984 589.735C678.842 591.441 666.633 587.726 657.924 579.668L647.853 570.351C641.874 564.82 632.204 565.001 626.273 570.764C621.993 574.922 620.702 581.047 622.979 586.345C624.216 589.223 622.749 592.531 619.731 593.734C616.726 594.931 613.293 593.603 612.062 590.739C607.992 581.269 610.299 570.326 617.917 562.924C628.417 552.723 645.51 552.401 656.115 562.212L666.185 571.529C672.297 577.183 680.878 579.795 689.418 578.595C704.639 576.455 715.323 563.061 713.304 548.695L710.526 528.928C710.092 525.842 712.368 522.988 715.586 522.536C718.805 522.084 721.779 524.199 722.213 527.285ZM720.727 527.494C720.412 525.247 718.211 523.682 715.795 524.021C713.379 524.361 711.695 526.472 712.011 528.719L714.789 548.487C716.926 563.691 705.65 577.828 689.627 580.08C680.645 581.342 671.612 578.593 665.167 572.63L655.096 563.313C645.08 554.047 628.893 554.351 618.962 564C611.785 570.973 609.618 581.254 613.441 590.147C614.344 592.249 616.912 593.243 619.175 592.34C621.425 591.444 622.498 589.024 621.601 586.937C619.076 581.062 620.507 574.275 625.228 569.688C631.727 563.373 642.304 563.174 648.872 569.25L658.942 578.567C667.318 586.316 679.075 589.894 690.775 588.25C711.63 585.319 726.274 566.96 723.505 547.262L720.727 527.494Z" fill="#525E72"/>
<path fill-rule="evenodd" clip-rule="evenodd" d="M576.634 757.518C575.992 756.586 575.583 755.584 575.433 754.518C574.714 749.404 580.144 744.042 589 740.068C593.757 732.16 595.97 725.773 595.641 720.906L584.598 666.035L576.085 639.945L576.06 585.767C575.56 579.849 575.048 575.926 574.523 574C573.34 569.664 571.157 568.147 571.023 565.5C570.799 561.09 571.965 557.757 574.523 555.5C569.937 546.329 566.604 539.329 564.523 534.5C562.441 529.671 561.608 527.005 562.023 526.5L562.023 505L587.023 502.5L592.023 514C593.973 517.01 594.639 521.51 594.023 527.5C593.406 533.49 591.906 542.157 589.523 553.5C592.697 555.762 594.697 558.929 595.523 563C595.954 565.129 594.535 567.903 594.523 571.5C594.515 573.688 594.861 577.611 595.56 583.268L610.584 633.44L608.603 674.574L615.287 718.145C616.426 722.446 620.708 727.908 628.134 734.532C637.811 735.896 644.564 739.565 645.286 744.701C645.433 745.747 645.323 746.803 644.979 747.856C653.366 753.979 663.823 761.135 676.35 769.323C672.577 784.719 652.937 794.912 617.428 799.903C581.919 804.893 560.23 800.508 552.36 786.749C562.299 775.282 570.39 765.539 576.634 757.518Z" fill="white"/>
<path d="M575.876 573.966L593.576 571.243L593.58 571.125L593.65 570.981C596.013 566.104 595.144 560.278 591.461 556.302L588.739 553.363L592.605 531.967C593.86 525.02 593.115 517.859 590.457 511.319L582.579 491.933L564.322 494.499L562.077 515.449C561.325 522.468 562.582 529.557 565.704 535.889L575.318 555.389L573.511 558.965C571.079 563.779 571.83 569.586 575.401 573.621L575.876 573.966ZM575.644 575.52L575.581 575.606L575.494 575.543L574.92 575.631L574.833 575.062L574.453 574.786L574.336 574.68C570.308 570.183 569.449 563.677 572.172 558.289L573.641 555.381L564.359 536.552C561.111 529.965 559.803 522.591 560.585 515.289L562.878 493.9L563.42 493.958L563.303 493.127L583.528 490.285L591.847 510.755C594.612 517.558 595.387 525.007 594.081 532.234L590.348 552.893L592.562 555.282C596.627 559.672 597.614 566.087 595.069 571.49L595.036 572.536L575.644 575.52ZM576.354 585.946L576.254 585.232L596.539 582.381L610.055 627.88C611.322 632.144 611.845 636.595 611.602 641.037L609.101 686.635L612.904 693.079C616.859 699.778 618.032 707.761 616.172 715.315L615.6 717.64L614.143 717.281L614.716 714.957C616.482 707.783 615.368 700.203 611.613 693.841L607.578 687.006L610.104 640.955C610.338 636.685 609.835 632.407 608.618 628.307L595.469 584.046L577.292 586.601L576.854 632.771C576.813 637.048 577.509 641.299 578.911 645.339L594.032 688.91L592.038 696.592C590.182 703.743 591.2 711.336 594.875 717.745L596.066 719.822L594.765 720.568L593.574 718.491C589.704 711.742 588.631 703.746 590.586 696.215L592.466 688.973L577.494 645.83C576.035 641.628 575.311 637.205 575.354 632.757L575.799 585.941L576.354 585.946ZM592.541 689.187L592.523 688.753L592.466 688.973L592.541 689.187Z" fill="#525E72"/>
<path fill-rule="evenodd" clip-rule="evenodd" d="M575.709 505.797C558.831 508.169 544.6 506.189 543.923 501.375C543.246 496.56 556.38 490.734 573.259 488.362C590.137 485.99 604.368 487.97 605.045 492.784C605.721 497.599 592.587 503.425 575.709 505.797ZM445.528 565.717C428.99 569.841 414.63 569.359 413.454 564.642C412.278 559.925 424.731 552.758 441.269 548.634C457.807 544.511 472.167 544.993 473.343 549.71C474.519 554.427 462.066 561.594 445.528 565.717ZM717.662 530.29C700.827 532.956 686.564 531.225 685.803 526.423C685.043 521.621 698.073 515.567 714.908 512.901C731.742 510.234 746.005 511.966 746.766 516.767C747.526 521.569 734.496 527.624 717.662 530.29Z" fill="#B9C5D9"/>
<path d="M576.043 506.326C558.716 508.762 544.179 506.739 543.41 501.266C542.641 495.792 556.057 489.841 573.384 487.406C590.711 484.971 605.248 486.994 606.017 492.467C606.787 497.94 593.37 503.891 576.043 506.326ZM575.835 504.841C592.264 502.532 605.116 496.831 604.532 492.676C603.948 488.52 590.023 486.583 573.593 488.892C557.163 491.201 544.312 496.901 544.896 501.057C545.48 505.213 559.405 507.15 575.835 504.841ZM445.939 566.232C428.962 570.465 414.293 569.973 412.956 564.61C411.619 559.247 424.34 551.926 441.317 547.694C458.295 543.461 472.963 543.952 474.3 549.315C475.638 554.678 462.917 561.999 445.939 566.232ZM445.576 564.777C461.675 560.763 473.86 553.75 472.845 549.678C471.83 545.606 457.778 545.135 441.68 549.149C425.582 553.163 413.396 560.175 414.412 564.247C415.427 568.319 429.478 568.79 445.576 564.777ZM718.009 530.817C700.727 533.555 686.157 531.786 685.292 526.327C684.428 520.868 697.738 514.684 715.02 511.947C732.302 509.21 746.872 510.978 747.737 516.437C748.601 521.896 735.291 528.08 718.009 530.817ZM717.774 529.336C734.161 526.74 746.912 520.816 746.255 516.672C745.599 512.527 731.642 510.833 715.255 513.428C698.868 516.024 686.118 521.948 686.774 526.093C687.431 530.237 701.388 531.931 717.774 529.336Z" fill="#525E72"/>
<path fill-rule="evenodd" clip-rule="evenodd" d="M409.034 520.007L456.518 508.168L452.875 518.984C451.395 523.374 452.169 528.212 454.943 531.923L456.023 533.367C458.035 536.058 458.151 539.721 456.312 542.534L452.467 548.417C448.504 554.48 440.685 556.706 434.123 553.64L426.62 550.133C423.254 548.56 421.414 544.877 422.177 541.242L422.432 540.029C423.392 535.459 421.763 530.732 418.192 527.724L409.034 520.007ZM685.246 481.513L733.581 473.857L729.009 484.314C727.153 488.559 727.502 493.446 729.942 497.384L730.892 498.917C732.662 501.773 732.458 505.432 730.381 508.074L726.038 513.6C721.562 519.295 713.579 520.831 707.308 517.204L700.139 513.057C696.923 511.196 695.411 507.367 696.489 503.812L696.848 502.626C698.202 498.157 696.992 493.306 693.697 489.998L685.246 481.513ZM544.141 456.45L592.601 449.639L587.847 460.014C585.918 464.226 586.181 469.118 588.552 473.099L589.475 474.647C591.195 477.535 590.927 481.189 588.805 483.795L584.366 489.244C579.791 494.86 571.782 496.256 565.576 492.52L558.48 488.249C555.298 486.333 553.853 482.478 554.992 478.942L555.372 477.762C556.804 473.318 555.678 468.446 552.442 465.081L544.141 456.45Z" fill="white"/>
<path d="M408.114 520.908C407.645 520.514 407.821 519.755 408.415 519.607L455.899 507.768C456.474 507.625 456.98 508.174 456.791 508.735L453.148 519.551C451.747 523.708 452.48 528.288 455.106 531.801L456.186 533.245C458.387 536.189 458.514 540.195 456.503 543.272L452.658 549.155C448.49 555.531 440.268 557.871 433.368 554.646L425.865 551.14C422.183 549.42 420.171 545.392 421.006 541.415L421.261 540.202C422.163 535.903 420.631 531.455 417.271 528.625L408.114 520.908ZM410.203 520.707L418.238 527.478C422.02 530.664 423.745 535.671 422.729 540.51L422.474 541.723C421.782 545.018 423.45 548.356 426.5 549.781L434.003 553.288C440.227 556.196 447.643 554.085 451.402 548.334L455.247 542.451C456.913 539.902 456.808 536.582 454.985 534.143L453.905 532.699C450.983 528.791 450.168 523.696 451.726 519.072L454.932 509.555L410.203 520.707ZM684.277 482.37C683.845 481.936 684.087 481.195 684.691 481.1L733.026 473.444C733.611 473.351 734.068 473.942 733.831 474.485L729.259 484.942C727.501 488.961 727.831 493.588 730.142 497.316L731.092 498.849C733.028 501.974 732.805 505.975 730.533 508.865L726.19 514.391C721.483 520.379 713.088 521.994 706.495 518.18L699.326 514.033C695.809 511.999 694.155 507.81 695.333 503.922L695.693 502.736C696.967 498.531 695.828 493.967 692.728 490.855L684.277 482.37ZM693.791 489.796C697.28 493.3 698.562 498.438 697.128 503.171L696.769 504.357C695.793 507.579 697.163 511.049 700.077 512.735L707.246 516.882C713.193 520.322 720.765 518.865 725.011 513.464L729.354 507.938C731.236 505.544 731.421 502.228 729.817 499.639L728.867 498.106C726.297 493.958 725.929 488.812 727.884 484.341L731.907 475.14L686.376 482.351L693.791 489.796ZM543.162 457.297C542.738 456.856 542.992 456.12 543.599 456.035L592.059 449.224C592.646 449.141 593.092 449.74 592.845 450.279L588.092 460.654C586.264 464.642 586.514 469.274 588.759 473.042L589.682 474.591C591.563 477.749 591.27 481.746 588.949 484.596L584.51 490.045C579.699 495.95 571.277 497.419 564.752 493.49L557.656 489.219C554.175 487.123 552.594 482.907 553.84 479.039L554.221 477.859C555.568 473.678 554.509 469.095 551.463 465.929L543.162 457.297ZM545.261 457.316L552.545 464.889C555.972 468.453 557.165 473.612 555.648 478.319L555.268 479.499C554.236 482.704 555.545 486.197 558.43 487.934L565.525 492.205C571.411 495.749 579.007 494.424 583.347 489.097L587.786 483.649C589.709 481.287 589.952 477.975 588.393 475.359L587.47 473.81C584.973 469.618 584.695 464.466 586.728 460.029L590.911 450.9L545.261 457.316Z" fill="#525E72"/>
<path fill-rule="evenodd" clip-rule="evenodd" d="M433.281 518.32C420.051 521.619 408.944 522.763 408.474 520.876C408.003 518.989 418.347 514.785 431.577 511.487C444.808 508.188 455.914 507.044 456.385 508.93C456.855 510.817 446.511 515.021 433.281 518.32ZM709.614 481.96C696.146 484.093 684.982 484.265 684.678 482.344C684.374 480.423 695.045 477.137 708.512 475.004C721.98 472.871 733.144 472.699 733.448 474.619C733.752 476.54 723.081 479.827 709.614 481.96ZM568.51 457.324C555.007 459.222 543.842 459.199 543.571 457.273C543.3 455.347 554.027 452.248 567.53 450.35C581.032 448.453 592.198 448.475 592.468 450.401C592.739 452.327 582.012 455.426 568.51 457.324Z" fill="#B9C5D9"/>
<path d="M433.158 518.613C419.13 522.11 408.096 523.247 407.441 520.623C406.787 517.998 417.063 513.822 431.091 510.324C445.12 506.826 456.154 505.689 456.808 508.314C457.462 510.939 447.186 515.115 433.158 518.613ZM432.795 517.157C439.203 515.56 445.115 513.701 449.384 511.966C453.182 510.422 455.429 508.984 455.352 508.677C455.276 508.37 452.617 508.155 448.538 508.575C443.954 509.047 437.862 510.182 431.454 511.779C425.047 513.377 419.135 515.236 414.866 516.971C411.067 518.514 408.82 519.953 408.897 520.26C408.973 520.566 411.632 520.782 415.711 520.362C420.295 519.889 426.387 518.755 432.795 517.157ZM709.427 482.265C695.147 484.527 684.056 484.698 683.633 482.026C683.209 479.355 693.811 476.09 708.09 473.828C722.37 471.566 733.461 471.395 733.884 474.067C734.307 476.739 723.706 480.004 709.427 482.265ZM709.192 480.784C715.714 479.751 721.766 478.415 726.17 477.058C730.089 475.851 732.452 474.614 732.403 474.302C732.353 473.99 729.723 473.543 725.623 473.606C721.015 473.677 714.847 474.277 708.325 475.31C701.802 476.343 695.751 477.679 691.347 479.035C687.428 480.242 685.065 481.48 685.114 481.792C685.164 482.104 687.794 482.55 691.894 482.487C696.501 482.416 702.669 481.817 709.192 480.784ZM568.309 457.632C553.992 459.644 542.9 459.621 542.524 456.943C542.147 454.264 552.804 451.185 567.121 449.173C581.438 447.16 592.53 447.183 592.906 449.862C593.283 452.541 582.626 455.62 568.309 457.632ZM568.101 456.146C574.64 455.227 580.714 453.997 585.141 452.718C589.08 451.58 591.465 450.384 591.421 450.071C591.377 449.758 588.755 449.265 584.655 449.257C580.046 449.248 573.869 449.739 567.329 450.658C560.79 451.577 554.716 452.808 550.289 454.087C546.35 455.225 543.965 456.421 544.009 456.734C544.053 457.047 546.675 457.539 550.775 457.548C555.384 457.557 561.561 457.066 568.101 456.146Z" fill="#525E72"/>
<path d="M601.659 570.348L566.999 575.219C563.718 575.68 561.431 578.714 561.893 581.995C562.354 585.277 565.388 587.563 568.669 587.102L603.329 582.231C606.61 581.77 608.896 578.736 608.435 575.454C607.974 572.173 604.94 569.886 601.659 570.348Z" fill="#B9C5D9"/>
<path d="M566.153 575.408L602.846 570.251C606.216 569.778 609.332 572.126 609.806 575.496C610.279 578.866 607.931 581.982 604.561 582.455L567.868 587.612C564.498 588.086 561.382 585.738 560.908 582.368C560.435 578.998 562.783 575.882 566.153 575.408ZM566.362 576.893C563.812 577.252 562.035 579.609 562.394 582.159C562.752 584.709 565.11 586.485 567.659 586.127L604.352 580.97C606.902 580.612 608.679 578.254 608.32 575.704C607.962 573.155 605.605 571.378 603.055 571.737L566.362 576.893Z" fill="#525E72"/>
<path d="M574.398 753.302C574.037 748.103 579.288 742.765 588.245 738.709C592.85 731.037 594.98 724.871 594.668 720.245C594.633 719.729 595.118 719.334 595.616 719.472C599.095 720.437 602.455 720.69 605.702 720.234C608.941 719.779 611.919 718.639 614.644 716.811C615.072 716.524 615.655 716.743 615.787 717.241C616.868 721.316 621.014 726.609 628.231 733.05C638.35 734.511 645.033 738.401 645.79 743.784C645.927 744.758 645.863 745.746 645.607 746.737C653.906 752.759 664.206 759.776 676.506 767.787C676.774 767.961 676.902 768.285 676.825 768.595C672.949 784.336 653.054 794.635 617.269 799.664C581.485 804.693 559.522 800.277 551.457 786.214C551.298 785.937 551.332 785.59 551.541 785.349C561.304 774.124 569.282 764.558 575.474 756.653C575.198 756.193 574.973 755.718 574.8 755.231C574.534 754.618 574.357 753.979 574.275 753.317L574.398 753.302ZM644.061 747.354C643.98 747.184 643.965 746.986 644.026 746.799C644.339 745.844 644.433 744.907 644.305 743.993C643.664 739.438 637.452 735.856 627.797 734.504C627.65 734.483 627.513 734.42 627.403 734.321C620.414 728.108 616.158 722.886 614.638 718.596C611.955 720.237 609.044 721.279 605.911 721.719C602.764 722.162 599.525 721.979 596.197 721.173C596.19 726.055 593.919 732.215 589.409 739.684C589.33 739.815 589.213 739.919 589.073 739.981C580.235 743.937 575.299 749.068 575.937 753.601C575.989 753.975 576.078 754.342 576.204 754.702C579.054 761.098 594.244 764.718 611.931 762.547C628.27 760.541 641.317 754.057 643.751 747.243L644.061 747.354ZM645.007 748.154C641.994 755.487 628.653 762.005 612.114 764.036C596.06 766.007 581.893 763.361 576.519 757.752C570.404 765.549 562.574 774.94 553.028 785.925C560.913 798.924 582.233 803.073 617.061 798.179C651.89 793.284 671.239 783.418 675.236 768.749C663.253 760.938 653.177 754.073 645.007 748.154Z" fill="#525E72"/>
<path fill-rule="evenodd" clip-rule="evenodd" d="M558.286 450.208L544.983 346.856C548.341 345.419 551.264 344.643 553.753 344.528C556.241 344.413 560.036 344.812 565.137 345.725L578.49 447.495C578.768 449.613 577.332 451.576 575.229 451.953C572.399 452.459 570.185 452.821 568.586 453.038C567.063 453.244 565.073 453.459 562.614 453.681C560.472 453.875 558.561 452.341 558.286 450.208ZM699.444 477.376L683.992 373.792C683.85 372.844 684.401 371.929 685.304 371.611C688.182 370.596 690.678 370.021 692.792 369.886C695.035 369.743 698.348 370 702.731 370.656C703.601 370.787 704.283 371.47 704.413 372.34L719.604 474.289C719.761 475.342 719.066 476.333 718.022 476.544C714.286 477.298 711.451 477.824 709.517 478.12C707.618 478.412 704.987 478.728 701.624 479.07C700.562 479.178 699.602 478.432 699.444 477.376ZM421.402 510.7L398.596 414.493C398.415 413.731 398.696 412.934 399.314 412.453C401.931 410.418 404.332 409.235 406.517 408.903C408.739 408.565 412.062 408.532 416.485 408.804C417.363 408.857 418.103 409.478 418.307 410.334L441.212 505.922C442.09 509.585 439.911 513.287 436.281 514.297C434.821 514.703 433.598 515.026 432.612 515.267C431.777 515.471 430.796 515.693 429.67 515.932C425.95 516.724 422.279 514.401 421.402 510.7Z" fill="white"/>
<path d="M557.367 450.22L543.991 346.305L544.512 346.082C547.946 344.613 550.954 343.815 553.542 343.695C556.099 343.577 559.942 343.981 565.094 344.903L565.634 344.999L579.058 447.313C579.389 449.829 577.683 452.16 575.186 452.607C572.346 453.115 570.122 453.478 568.511 453.697C566.976 453.905 564.975 454.121 562.506 454.344C559.963 454.574 557.693 452.752 557.367 450.22ZM558.855 450.028C559.078 451.761 560.631 453.008 562.371 452.85C564.819 452.629 566.8 452.415 568.309 452.211C569.896 451.995 572.101 451.635 574.921 451.13C576.63 450.825 577.797 449.23 577.571 447.508L564.289 346.284C559.511 345.448 555.945 345.086 553.612 345.193C551.35 345.298 548.685 345.979 545.624 347.242L558.855 450.028ZM683.074 373.819C682.88 372.515 683.637 371.258 684.879 370.819C687.817 369.783 690.378 369.193 692.569 369.054C694.876 368.907 698.236 369.167 702.667 369.831C703.862 370.01 704.801 370.949 704.979 372.145L720.171 474.094C720.386 475.542 719.43 476.906 717.995 477.195C714.248 477.951 711.403 478.479 709.455 478.778C707.542 479.071 704.899 479.389 701.525 479.732C700.063 479.881 698.743 478.855 698.527 477.402L683.074 373.819ZM701.373 478.24C704.724 477.899 707.344 477.584 709.228 477.295C711.148 477 713.972 476.477 717.698 475.725C718.35 475.593 718.785 474.974 718.687 474.315L703.496 372.366C703.415 371.822 702.988 371.395 702.444 371.314C698.11 370.665 694.844 370.412 692.665 370.551C690.626 370.681 688.195 371.24 685.378 372.234C684.813 372.433 684.469 373.005 684.558 373.597L700.01 477.181C700.109 477.841 700.709 478.308 701.373 478.24ZM420.497 510.789L397.69 414.582C397.442 413.534 397.828 412.438 398.678 411.777C401.388 409.67 403.901 408.431 406.229 408.077C408.514 407.73 411.884 407.696 416.356 407.971C417.563 408.045 418.579 408.899 418.861 410.075L441.766 505.663C442.738 509.719 440.325 513.817 436.306 514.935C434.84 515.343 433.609 515.669 432.614 515.912C431.771 516.118 430.783 516.341 429.65 516.582C425.532 517.458 421.468 514.886 420.497 510.789ZM421.956 510.443C422.739 513.747 426.017 515.821 429.338 515.115C430.457 514.877 431.431 514.657 432.258 514.455C433.236 514.216 434.452 513.894 435.904 513.49C439.145 512.588 441.091 509.284 440.307 506.012L417.402 410.424C417.274 409.89 416.812 409.502 416.264 409.468C411.889 409.199 408.613 409.232 406.454 409.56C404.411 409.871 402.122 410.999 399.599 412.961C399.213 413.261 399.037 413.76 399.15 414.236L421.956 510.443Z" fill="#525E72"/>
<path d="M555.761 345.382C555.836 345.789 555.566 346.18 555.159 346.255C554.751 346.329 554.361 346.06 554.286 345.652L552.809 337.595C552.735 337.188 553.004 336.797 553.412 336.723C553.819 336.648 554.21 336.918 554.285 337.325L555.761 345.382ZM693.837 370.346C693.919 370.752 693.656 371.147 693.25 371.229C692.844 371.311 692.449 371.048 692.367 370.642L690.75 362.612C690.668 362.206 690.931 361.811 691.337 361.729C691.743 361.647 692.139 361.91 692.22 362.316L693.837 370.346ZM408.309 410.644C408.426 411.041 408.199 411.458 407.801 411.575C407.404 411.692 406.987 411.465 406.87 411.067L404.559 403.209C404.442 402.812 404.67 402.395 405.067 402.278C405.465 402.161 405.882 402.388 405.998 402.786L408.309 410.644Z" fill="#525E72"/>
<path fill-rule="evenodd" clip-rule="evenodd" d="M547.024 294.816C559.127 321.886 561.322 336.099 553.609 337.457C545.896 338.815 543.701 324.601 547.024 294.816ZM683.518 320.107C696.092 346.961 698.535 361.134 690.847 362.626C683.159 364.118 680.716 349.945 683.518 320.107ZM394.334 361.269C409.2 386.925 412.869 400.831 405.34 402.988C397.812 405.144 394.143 391.238 394.334 361.269Z" fill="#A9DE8A"/>
<path d="M564.726 345.088C560.623 345.973 557.463 346.468 555.258 346.572C553.048 346.677 549.585 346.495 544.882 346.025L544.733 347.518C549.503 347.994 553.029 348.179 555.328 348.07C557.632 347.961 560.866 347.455 565.043 346.554L564.726 345.088Z" fill="#525E72"/>
<path d="M684.44 373.119C691.326 374.098 697.569 373.519 703.158 371.376C703.545 371.228 703.738 370.794 703.59 370.407C703.442 370.02 703.008 369.827 702.621 369.975C697.28 372.023 691.294 372.579 684.651 371.634C684.241 371.576 683.861 371.861 683.803 372.271C683.745 372.681 684.03 373.061 684.44 373.119Z" fill="#525E72"/>
<path d="M416.89 408.131C416.761 408.247 416.261 408.999 416.081 409.228C415.615 409.819 415.04 410.367 414.281 410.882C411.258 412.934 406.285 413.842 398.69 412.967L398.518 414.457C406.445 415.371 411.773 414.397 415.124 412.123C416.621 411.107 418.56 408.646 417.894 409.245L416.89 408.131Z" fill="#525E72"/>
<path fill-rule="evenodd" clip-rule="evenodd" d="M567.983 697.103L567.825 696.843C565.763 693.433 564.356 689.668 563.677 685.742L559.068 659.11C559.047 658.99 559.029 658.869 559.015 658.748C558.569 654.986 561.257 651.575 565.019 651.129C568.92 650.666 572.782 652.036 575.512 654.777C576.986 653.916 578.732 653.489 580.561 653.654C580.859 653.68 581.156 653.723 581.45 653.781L584.998 665.842L584.908 666.456C611.147 676.436 625.661 679.878 628.45 676.781C629.887 675.184 623.632 672.377 609.684 668.36L610.45 657.281C632.643 661.354 644.809 664.354 646.95 666.281C652.584 671.354 673.45 681.781 673.45 681.781L662.45 721.781C659.728 719.967 658.653 719.798 659.223 721.275L674.45 727.781C659.21 729.774 646.377 730.274 635.95 729.281C619.295 727.695 580.792 719.09 580.45 718.781C579.889 718.277 576.591 715.16 570.554 709.432C568.255 707.251 567.126 704.11 567.511 700.965L567.983 697.103Z" fill="#B9C5D9"/>
<path d="M567.28 696.989L567.256 696.95C565.146 693.46 563.706 689.607 563.01 685.588L558.402 658.957C558.379 658.823 558.359 658.69 558.343 658.555C557.848 654.382 560.83 650.598 565.003 650.103C568.924 649.638 572.834 650.92 575.709 653.575C577.236 652.805 578.955 652.468 580.701 652.626C581.026 652.655 581.348 652.701 581.668 652.764L582.114 652.852L585.837 665.507L585.811 665.687C611.179 675.306 625.543 678.689 627.965 675.998C628.099 675.85 627.24 675.065 624.602 673.881C621.514 672.496 616.492 670.799 609.55 668.799L608.967 668.632L609.832 656.111L610.658 656.262C633.118 660.384 645.221 663.368 647.524 665.443C649.492 667.215 653.556 669.818 659.104 672.967C660.27 673.628 661.487 674.306 662.745 674.995C665.33 676.409 667.968 677.807 670.519 679.125C671.411 679.587 672.229 680.005 672.954 680.373C673.389 680.594 673.696 680.748 673.858 680.829L674.409 681.105L663.204 721.849L677.339 727.888L674.62 728.244C659.329 730.243 646.441 730.746 635.951 729.747C622.698 728.485 581.101 720.03 580.021 719.057C579.453 718.546 576.16 715.435 570.11 709.695C567.64 707.351 566.426 703.974 566.839 700.593L567.28 696.989ZM580.935 654.162C580.813 654.145 580.69 654.131 580.567 654.12C578.939 653.973 577.344 654.337 575.963 655.144L575.462 655.436L575.053 655.025C572.47 652.432 568.831 651.159 565.18 651.592C561.829 651.99 559.435 655.028 559.833 658.379C559.845 658.487 559.861 658.594 559.88 658.701L564.489 685.333C565.152 689.167 566.526 692.844 568.539 696.173L568.831 696.656L568.328 700.775C567.973 703.684 569.017 706.59 571.143 708.607C577.167 714.323 580.472 717.445 581.024 717.943C581.069 717.983 592.878 720.62 602.305 722.536C616.617 725.445 628.775 727.557 636.094 728.253C645.829 729.18 657.693 728.798 671.682 727.102L658.71 721.56L658.596 721.264C658.136 720.074 658.523 719.073 659.791 719.272C660.328 719.356 661.071 719.702 662.07 720.317L672.636 681.894C672.528 681.839 672.408 681.778 672.276 681.711C671.547 681.341 670.726 680.921 669.83 680.458C667.27 679.134 664.621 677.731 662.025 676.31C660.76 675.618 659.537 674.937 658.364 674.271C652.721 671.069 648.597 668.427 646.521 666.557C644.569 664.8 632.62 661.837 611.213 657.89L610.547 667.526C617.252 669.471 622.138 671.131 625.216 672.513C628.833 674.136 630.384 675.554 629.08 677.002C625.943 680.485 611.474 677.054 584.714 666.876L584.152 666.662L584.305 665.615L580.935 654.162Z" fill="#525E72"/>
<path fill-rule="evenodd" clip-rule="evenodd" d="M919.022 479.704L838.85 332.335C830.493 316.975 812.541 309.543 795.772 314.5C779.316 319.365 769.007 335.665 771.665 352.619L788.407 459.445C790.374 471.994 802.142 480.573 814.691 478.606C819.484 477.855 823.917 475.607 827.355 472.185L856.966 442.712L889.534 489C887.304 484 889.134 481.5 895.022 481.5C900.911 481.5 908.911 480.901 919.022 479.704Z" fill="#B9C5D9"/>
<path d="M889.409 489.432L890.707 488.695C888.708 484.212 890.144 482.25 895.511 482.25C901.434 482.25 909.461 481.65 919.599 480.449L920.699 480.319L839.997 331.977C831.471 316.306 813.156 308.723 796.048 313.781C779.231 318.753 768.697 335.41 771.412 352.735L788.155 459.561C790.186 472.519 802.337 481.378 815.296 479.347C820.245 478.571 824.822 476.25 828.373 472.716L857.353 443.871L889.409 489.432ZM895.511 480.75C890.86 480.75 888.413 482.349 888.36 485.334L857.556 441.553L827.314 471.653C823.988 474.964 819.7 477.138 815.063 477.865C802.923 479.768 791.539 471.469 789.637 459.328L772.894 352.503C770.295 335.921 780.378 319.978 796.473 315.219C812.903 310.362 830.492 317.645 838.679 332.694L918.322 479.088C908.756 480.197 901.151 480.75 895.511 480.75Z" fill="#525E72"/>
<path fill-rule="evenodd" clip-rule="evenodd" d="M689.023 674.5L667.796 664.761C663.78 662.919 659.031 664.68 657.189 668.696C656.156 670.946 656.224 673.547 657.371 675.74L663.523 687.5L651.254 692.408C647.152 694.048 645.157 698.704 646.797 702.807C647.461 704.464 648.659 705.852 650.202 706.75L663.523 714.5L657.823 721.409C655.011 724.817 655.494 729.859 658.903 732.671C660.336 733.854 662.136 734.5 663.994 734.5H689.023V674.5Z" fill="white"/>
<path d="M1228.82 1097.71L1230.2 1098.29L1401.91 682.793L1384.02 666.938L1383.03 668.061L1400.11 683.207L1228.82 1097.71Z" fill="#525E72"/>
<path d="M1400.3 683.243L1401.72 682.757L1331.66 478.093L1309.04 455.47L1307.98 456.53L1330.36 478.907L1400.3 683.243Z" fill="#525E72"/>
<path d="M1193.83 635.652L1192.03 644.903L1183.51 643.247L1182.16 650.185L1171.21 648.055L1172.55 641.117L1142.49 635.273L1144.29 626.022L1179.49 605.453L1190.44 607.582L1185.31 633.996L1193.83 635.652ZM1156.09 628.317L1174.35 631.866L1177.36 616.408L1156.09 628.317ZM1218.38 657.856C1201.46 654.567 1194.94 645.215 1197.69 631.035C1200.44 616.915 1209.97 610.747 1226.89 614.036C1243.75 617.313 1250.33 626.677 1247.6 640.736C1244.86 654.855 1235.23 661.133 1218.38 657.856ZM1220.16 648.666C1229.78 650.535 1235.1 646.579 1236.65 638.606C1238.18 630.694 1234.72 625.095 1225.11 623.226C1215.49 621.357 1210.2 625.191 1208.65 633.164C1207.09 641.198 1210.55 646.797 1220.16 648.666ZM1299.73 656.236L1297.93 665.487L1289.41 663.831L1288.06 670.769L1277.1 668.64L1278.45 661.702L1248.39 655.858L1250.19 646.607L1285.38 626.037L1296.34 628.167L1291.21 654.58L1299.73 656.236ZM1261.99 648.902L1280.25 652.451L1283.26 636.992L1261.99 648.902Z" fill="#A9DE8A"/>
<path d="M1194.9 635.362L1192.82 646.085L1184.3 644.429L1182.95 651.367L1170.52 648.952L1171.87 642.013L1141.81 636.169L1143.81 625.849L1179.55 604.966L1191.52 607.292L1186.38 633.706L1194.9 635.362ZM1184.62 634.892L1189.76 608.478L1179.82 606.546L1145.15 626.802L1143.56 634.983L1173.63 640.827L1172.28 647.765L1181.76 649.609L1183.11 642.67L1191.63 644.327L1193.14 636.548L1184.62 634.892ZM1154.14 628.966L1178.6 615.266L1175.14 633.049L1154.14 628.966ZM1173.96 631.29L1176.51 618.156L1158.44 628.275L1173.96 631.29ZM1218.43 658.895C1201.42 655.589 1194.26 646.071 1197.15 631.195C1200.03 616.387 1210.22 610.295 1227.23 613.603C1244.19 616.898 1251.4 626.432 1248.53 641.182C1245.65 655.999 1235.38 662.189 1218.43 658.895ZM1218.72 657.423C1234.88 660.565 1244.34 654.864 1247.06 640.896C1249.76 626.997 1243.12 618.219 1226.95 615.075C1210.71 611.919 1201.34 617.524 1198.63 631.481C1195.9 645.508 1202.49 654.268 1218.72 657.423ZM1220.22 649.705C1210.5 647.817 1206.41 642.057 1208.11 633.324C1209.79 624.66 1215.73 620.903 1225.45 622.793C1235.15 624.678 1239.25 630.426 1237.58 639.052C1235.89 647.747 1229.91 651.59 1220.22 649.705ZM1220.5 648.233C1229.4 649.962 1234.58 646.632 1236.1 638.766C1237.62 630.971 1234.06 625.996 1225.16 624.265C1216.23 622.53 1211.1 625.779 1209.58 633.61C1208.04 641.514 1211.58 646.499 1220.5 648.233ZM1300.8 655.946L1298.72 666.67L1290.2 665.014L1288.85 671.952L1276.42 669.536L1277.77 662.598L1247.7 656.754L1249.71 646.434L1285.45 625.55L1297.41 627.877L1292.28 654.29L1300.8 655.946ZM1290.52 655.477L1295.66 629.063L1285.71 627.13L1251.05 647.386L1249.46 655.568L1279.53 661.412L1278.18 668.35L1287.66 670.193L1289.01 663.255L1297.53 664.911L1299.04 657.133L1290.52 655.477ZM1260.04 649.551L1284.5 635.85L1281.04 653.633L1260.04 649.551ZM1279.85 651.875L1282.41 638.74L1264.34 648.859L1279.85 651.875Z" fill="#525E72"/>
<path d="M650.975 691.211C646.488 693.006 644.306 698.098 646.101 702.585C646.826 704.398 648.137 705.916 649.825 706.898L662.382 714.204L657.244 720.432C654.169 724.159 654.697 729.674 658.425 732.749C659.993 734.043 661.961 734.75 663.993 734.75H689.772V673.519L668.109 663.579C663.716 661.564 658.522 663.491 656.507 667.883C655.378 670.344 655.451 673.189 656.706 675.588L662.473 686.612L650.975 691.211ZM688.272 674.481V733.25H663.993C662.31 733.25 660.678 732.664 659.38 731.592C656.291 729.044 655.853 724.475 658.401 721.386L664.663 713.796L650.579 705.602C649.181 704.788 648.094 703.53 647.494 702.028C646.006 698.31 647.815 694.091 651.532 692.604L664.572 687.388L658.035 674.892C656.996 672.905 656.935 670.547 657.87 668.509C659.54 664.869 663.844 663.273 667.483 664.942L688.272 674.481Z" fill="#525E72"/>
<path fill-rule="evenodd" clip-rule="evenodd" d="M919.627 480.43C917.804 476.558 916.637 474.224 916.127 473.43C914.267 470.536 910.412 469.699 907.519 471.559C906.895 471.96 906.348 472.468 905.904 473.061L905.627 473.43L903.458 472.346C900.145 470.689 896.116 471.805 894.127 474.93L892.066 474.455C889.249 473.805 886.3 474.725 884.353 476.863C883.476 477.825 883.067 478.348 883.127 478.43C883.237 478.583 884.071 480.083 885.627 482.93L919.627 480.43Z" fill="white"/>
<path d="M903.746 471.566C900.25 469.819 896.032 470.867 893.75 473.976L892.187 473.615C889.106 472.904 885.881 473.911 883.751 476.249C882.043 478.124 882.027 478.145 882.472 478.761C882.552 478.872 883.428 480.449 884.921 483.182C885.062 483.44 885.341 483.591 885.635 483.57L919.635 481.07C920.159 481.031 920.482 480.478 920.258 480.002C918.418 476.093 917.246 473.75 916.71 472.916C914.626 469.674 910.308 468.735 907.066 470.82C906.413 471.239 905.836 471.763 905.357 472.372L903.746 471.566ZM886.006 482.038C884.957 480.121 884.289 478.912 883.946 478.313C884.137 478.07 884.443 477.717 884.86 477.259C886.624 475.322 889.297 474.488 891.85 475.077L893.911 475.553C894.221 475.624 894.542 475.493 894.712 475.224C896.495 472.424 900.106 471.423 903.075 472.908L905.244 473.993C905.568 474.155 905.962 474.062 906.18 473.772L906.456 473.403C906.847 472.881 907.328 472.434 907.877 472.081C910.422 470.445 913.812 471.182 915.449 473.727C915.89 474.414 916.894 476.405 918.435 479.654L886.006 482.038Z" fill="#525E72"/>
<path fill-rule="evenodd" clip-rule="evenodd" d="M1271.95 368.026L1223.02 360L1227.02 336L1277.31 344.382L1286.02 306L1314.52 310.5L1305.76 349.123L1356.02 357.5L1351.02 381L1300.41 372.697L1282.53 451.5L1254.02 447L1271.95 368.026Z" fill="white"/>
<path d="M1223.39 360.74C1222.98 360.673 1222.7 360.286 1222.77 359.877L1226.77 335.877C1226.84 335.468 1227.23 335.192 1227.63 335.26L1277.23 343.525L1285.78 305.834C1285.87 305.449 1286.24 305.198 1286.63 305.259L1315.13 309.759C1315.56 309.827 1315.84 310.243 1315.74 310.666L1307.16 348.514L1356.63 356.76C1357.06 356.831 1357.33 357.238 1357.24 357.656L1352.24 381.156C1352.16 381.548 1351.78 381.805 1351.39 381.74L1301.48 373.551L1283.75 451.666C1283.67 452.051 1283.3 452.302 1282.91 452.241L1254.39 447.741C1253.97 447.673 1253.68 447.257 1253.78 446.834L1271.53 368.638L1223.39 360.74ZM1272.56 367.286C1272.98 367.356 1273.26 367.771 1273.17 368.193L1255.42 446.384L1282.45 450.65L1300.17 372.531C1300.26 372.144 1300.63 371.893 1301.02 371.957L1350.93 380.144L1355.61 358.111L1306.13 349.863C1305.7 349.792 1305.42 349.378 1305.52 348.957L1314.1 311.116L1287.09 306.85L1278.53 344.548C1278.44 344.935 1278.07 345.187 1277.68 345.121L1228.13 336.863L1224.37 359.382L1272.56 367.286Z" fill="#525E72"/>
<path d="M1304.21 379.12L1300.86 373.378L1302.16 372.622L1305.48 378.312L1353.13 385.532L1350.85 381.359C1350.65 380.996 1350.79 380.54 1351.15 380.342C1351.52 380.143 1351.97 380.277 1352.17 380.641L1354.17 384.302L1357.74 365.522L1355.78 357.682L1357.24 357.318L1359.28 365.478L1355.26 386.595C1355.21 386.985 1354.84 387.309 1354.4 387.242L1305.58 379.845L1288.74 452.17C1288.65 452.574 1288.24 452.824 1287.84 452.73C1287.44 452.637 1287.19 452.233 1287.28 451.83L1304.21 379.12ZM1310.28 349.844L1316.74 319.524L1314.29 310.701L1315.73 310.299L1318.28 319.477L1311.74 350.156L1310.28 349.844ZM1224.13 359.584L1227.95 365.312L1271.14 372.26L1270.9 373.741L1227.07 366.689L1222.89 360.416L1224.13 359.584Z" fill="#525E72"/>
<path fill-rule="evenodd" clip-rule="evenodd" d="M876.695 493.003C880.241 485.092 888.102 480 896.772 480H919.022L948.534 673H910.022L906.225 665.393C904.121 661.177 902.915 656.57 902.686 651.864L899.522 587L856.197 730.34C851.145 747.054 835.097 757.961 817.698 756.506L716.647 748.061C692.412 746.036 673.603 726.063 673.034 701.75C673.028 701.477 673.024 701.203 673.023 700.93C672.934 677.771 691.636 658.925 714.795 658.836L802.534 658.5L876.695 493.003Z" fill="white"/>
<path d="M940.395 673.75C940.364 673.752 940.333 673.752 940.301 673.75H924.395C924.364 673.752 924.333 673.752 924.301 673.75H910.511C910.227 673.75 909.967 673.589 909.84 673.335L906.042 665.728C903.892 661.419 902.66 656.71 902.425 651.9L899.473 591.371L857.403 730.557C852.249 747.609 835.876 758.737 818.124 757.254L717.073 748.809C692.456 746.751 673.35 726.464 672.773 701.768C672.766 701.489 672.761 701.211 672.761 700.933C672.671 677.36 691.708 658.176 715.281 658.086L802.536 657.752L876.499 492.697C880.165 484.515 888.295 479.25 897.26 479.25H919.511C919.881 479.25 920.196 479.52 920.252 479.887L949.764 672.887C949.833 673.341 949.482 673.75 949.022 673.75H940.395ZM922.9 672.25C918.027 665.258 916.892 660.781 919.958 658.864C921.81 657.707 923.287 658.752 924.075 661.412C924.735 663.639 925.073 667.242 925.103 672.25H938.9C934.027 665.258 932.892 660.781 935.958 658.864C937.81 657.707 939.287 658.752 940.075 661.412C940.735 663.639 941.073 667.242 941.103 672.25H948.149L918.867 480.75H897.26C888.886 480.75 881.293 485.668 877.868 493.31L803.707 658.807C803.586 659.075 803.32 659.249 803.025 659.25L715.287 659.586C692.542 659.673 674.174 678.182 674.261 700.927C674.261 701.196 674.266 701.464 674.272 701.732C674.832 725.663 693.344 745.32 717.198 747.314L818.249 755.759C835.295 757.184 851.018 746.498 855.967 730.123L899.293 586.783C899.536 585.977 900.719 586.122 900.76 586.963L903.923 651.827C904.148 656.429 905.326 660.935 907.384 665.058L910.975 672.25H922.9ZM911.182 672.665L910.975 672.25H910.511L911.182 672.665ZM922.637 661.838C922.091 659.998 921.568 659.627 920.753 660.136C918.862 661.318 919.671 664.789 923.581 670.59C923.493 666.579 923.175 663.655 922.637 661.838ZM938.637 661.838C938.091 659.998 937.568 659.627 936.753 660.136C934.862 661.318 935.671 664.789 939.581 670.59C939.493 666.579 939.175 663.655 938.637 661.838Z" fill="#525E72"/>
<path fill-rule="evenodd" clip-rule="evenodd" d="M796.022 393C797.389 382.002 799.295 374.059 801.742 369.17C804.188 364.282 808.954 358.892 816.04 353C818.405 360.056 816.499 368.85 810.321 379.383C807.834 383.622 803.068 388.161 796.022 393Z" fill="white"/>
<path fill-rule="evenodd" clip-rule="evenodd" d="M780.922 370C779.369 387.578 777.817 405.156 776.265 422.734C776.118 424.394 776.991 425.977 778.472 426.739C779.908 427.478 781.663 427.133 782.712 425.906L789.903 417.493C795.789 417.315 799.463 416.615 800.926 415.391C802.388 414.168 802.388 411.646 800.926 407.826" fill="#B9C5D9"/>
<path d="M801.895 415.967C803.68 414.474 803.68 411.646 802.114 407.558C801.966 407.171 801.532 406.978 801.146 407.126C800.759 407.274 800.565 407.708 800.713 408.094C802.074 411.646 802.074 413.862 800.933 414.816C799.647 415.892 796.085 416.571 790.369 416.743C790.157 416.749 789.959 416.845 789.821 417.005L782.63 425.419C781.807 426.381 780.43 426.652 779.304 426.072C778.093 425.449 777.381 424.156 777.5 422.8L782.157 370.066C782.193 369.653 781.888 369.289 781.476 369.253C781.063 369.217 780.699 369.521 780.663 369.934L776.006 422.668C775.833 424.631 776.865 426.504 778.617 427.406C780.362 428.304 782.495 427.885 783.77 426.393L790.746 418.232C796.608 418.033 800.286 417.313 801.895 415.967Z" fill="#525E72"/>
<path fill-rule="evenodd" clip-rule="evenodd" d="M787.022 436L796.034 433.5L796.022 444C791.356 438.667 788.356 436 787.022 436ZM805.022 431L814.022 428V439C809.356 433.667 806.356 431 805.022 431Z" fill="white"/>
<path fill-rule="evenodd" clip-rule="evenodd" d="M787.511 436L796.522 433.5L796.511 444C791.844 438.667 788.844 436 787.511 436ZM805.511 431L814.511 428V439C809.844 433.667 806.844 431 805.511 431Z" fill="white" stroke="#525E72" stroke-width="1.5" stroke-linecap="round" stroke-linejoin="round"/>
<path d="M796.936 393.618C796.402 393.984 795.687 393.549 795.767 392.907C797.143 381.832 799.067 373.816 801.56 368.835C804.06 363.839 808.891 358.375 816.049 352.423C816.455 352.086 817.072 352.262 817.24 352.762C819.685 360.058 817.734 369.061 811.456 379.762C808.905 384.112 804.064 388.722 796.936 393.618ZM810.162 379.003C815.928 369.175 817.899 360.945 816.138 354.308C809.605 359.853 805.193 364.925 802.901 369.506C800.626 374.052 798.81 381.362 797.471 391.413C803.675 386.995 807.905 382.851 810.162 379.003ZM808.511 371C809.615 371 810.511 371.895 810.511 373C810.511 374.105 809.615 375 808.511 375C807.406 375 806.511 374.105 806.511 373C806.511 371.895 807.406 371 808.511 371ZM808.511 372.5C808.235 372.5 808.011 372.724 808.011 373C808.011 373.276 808.235 373.5 808.511 373.5C808.787 373.5 809.011 373.276 809.011 373C809.011 372.724 808.787 372.5 808.511 372.5ZM787.728 436.718C787.332 436.838 786.913 436.614 786.793 436.217C786.673 435.821 786.897 435.402 787.294 435.282L818.037 425.98C818.434 425.86 818.852 426.084 818.972 426.481C819.092 426.877 818.868 427.296 818.472 427.416L787.728 436.718ZM812.929 343.527C813.19 343.206 813.662 343.157 813.984 343.418C814.305 343.679 814.354 344.151 814.093 344.473L801.093 360.473C800.832 360.794 800.359 360.843 800.038 360.582C799.717 360.321 799.668 359.848 799.929 359.527L812.929 343.527ZM798.932 396.121C798.589 396.353 798.122 396.264 797.89 395.921C797.658 395.578 797.747 395.111 798.09 394.879C808.295 387.966 814.687 380.427 817.297 372.271C817.423 371.877 817.845 371.659 818.24 371.786C818.634 371.912 818.851 372.334 818.725 372.729C816.002 381.239 809.394 389.034 798.932 396.121ZM843.105 377.869C851.663 372.368 847.544 357.374 830.261 332.848V352C830.261 352.414 829.925 352.75 829.511 352.75C829.097 352.75 828.761 352.414 828.761 352V330.5C828.761 329.771 829.695 329.471 830.12 330.063C849.031 356.403 853.806 372.773 843.916 379.131C843.568 379.355 843.104 379.254 842.88 378.906C842.656 378.557 842.757 378.093 843.105 377.869Z" fill="#525E72"/>
<path fill-rule="evenodd" clip-rule="evenodd" d="M1241.78 522.123L1262.45 526.713C1270.36 528.47 1275.35 536.311 1273.59 544.225C1273.58 544.307 1273.56 544.388 1273.54 544.469L1271.3 553.797C1270.51 557.095 1268.33 559.891 1265.32 561.465C1267.31 564.123 1268 567.524 1267.23 570.747L1265.89 576.33C1264.47 582.252 1258.56 585.942 1252.62 584.621L1225.25 578.544C1219.15 577.19 1215.31 571.151 1216.66 565.055C1216.68 564.992 1216.69 564.93 1216.71 564.867L1218 559.495C1218.87 555.862 1221.49 552.899 1224.99 551.589C1222.46 548.715 1221.49 544.789 1222.39 541.068L1224.33 533.002C1226.21 525.228 1233.97 520.389 1241.78 522.123Z" fill="#B9C5D9"/>
<path fill-rule="evenodd" clip-rule="evenodd" d="M1235.52 557C1233.04 557 1231.02 554.761 1231.02 552C1231.02 549.239 1233.04 547 1235.52 547C1238.01 547 1240.52 548.739 1240.52 551.5C1240.52 554.261 1238.01 557 1235.52 557ZM1255.52 560C1253.04 560 1251.02 557.761 1251.02 555C1251.02 552.239 1253.04 550 1255.52 550C1258.01 550 1261.02 551.239 1261.02 554C1261.02 556.761 1258.01 560 1255.52 560Z" fill="white"/>
<path d="M1241.78 522.123L1262.45 526.713C1270.36 528.47 1275.35 536.311 1273.59 544.225C1273.58 544.307 1273.56 544.388 1273.54 544.469L1271.3 553.797C1270.51 557.095 1268.33 559.891 1265.32 561.465C1267.31 564.123 1268 567.524 1267.23 570.747L1265.89 576.33C1264.47 582.252 1258.56 585.942 1252.62 584.621L1225.25 578.544C1219.15 577.19 1215.31 571.151 1216.66 565.055C1216.68 564.992 1216.69 564.93 1216.71 564.867L1218 559.495C1218.87 555.862 1221.49 552.899 1224.99 551.589C1222.46 548.715 1221.49 544.789 1222.39 541.068L1224.33 533.002C1226.21 525.228 1233.97 520.389 1241.78 522.123ZM1241.45 523.587C1234.44 522.031 1227.48 526.375 1225.79 533.354L1223.85 541.42C1223.06 544.666 1223.91 548.091 1226.11 550.599L1227.55 552.232L1225.51 552.994C1222.48 554.129 1220.21 556.697 1219.45 559.845L1218.17 565.218C1218.15 565.272 1218.14 565.326 1218.13 565.38C1216.95 570.668 1220.29 575.906 1225.58 577.08L1252.94 583.157C1258.09 584.3 1263.2 581.106 1264.43 575.98L1265.77 570.397C1266.44 567.607 1265.84 564.663 1264.12 562.362L1263.07 560.953L1264.63 560.137C1267.25 558.763 1269.15 556.324 1269.84 553.447L1272.08 544.119C1272.1 544.046 1272.11 543.973 1272.13 543.9C1273.71 536.794 1269.23 529.755 1262.12 528.177L1241.45 523.587ZM1234.68 557.878C1231.44 557.183 1229.43 553.715 1230.18 550.133C1230.94 546.551 1232.81 545.507 1236.05 546.203C1239.29 546.898 1242.67 549.069 1241.92 552.651C1241.16 556.233 1237.92 558.573 1234.68 557.878ZM1240.45 552.342C1240.9 550.177 1238.95 548.36 1235.73 547.669C1233.21 547.128 1232.21 547.769 1231.65 550.442C1231.06 553.247 1232.6 555.897 1235 556.411C1237.39 556.925 1239.86 555.142 1240.45 552.342ZM1254.62 560.883C1251.42 560.218 1249.43 556.9 1250.18 553.471C1250.92 550.043 1255.31 549.596 1258.51 550.261C1261.71 550.927 1262.51 552.452 1261.76 555.881C1261.02 559.309 1257.82 561.549 1254.62 560.883ZM1254.93 559.415C1257.3 559.907 1259.72 558.208 1260.3 555.562C1260.88 552.87 1260.51 552.209 1258.2 551.73C1254.88 551.039 1252.07 551.849 1251.64 553.79C1251.07 556.426 1252.57 558.924 1254.93 559.415Z" fill="#525E72"/>
<path d="M1250.6 571.593L1251.29 568.818C1251.4 568.416 1251.8 568.172 1252.2 568.273C1252.61 568.373 1252.85 568.78 1252.75 569.182L1252.07 571.916L1258.2 573.268C1258.6 573.357 1258.86 573.757 1258.77 574.162C1258.68 574.566 1258.28 574.822 1257.87 574.733L1251.7 573.372L1250.75 577.182C1250.65 577.584 1250.24 577.828 1249.84 577.728C1249.44 577.627 1249.19 577.22 1249.29 576.818L1250.24 573.048L1242.46 571.333L1241.75 574.182C1241.65 574.584 1241.24 574.828 1240.84 574.728C1240.44 574.627 1240.19 574.22 1240.29 573.818L1241 571.01L1232.51 569.138L1231.75 572.182C1231.65 572.584 1231.24 572.828 1230.84 572.728C1230.44 572.627 1230.19 572.22 1230.29 571.818L1231.05 568.815L1223.87 567.233C1223.47 567.143 1223.21 566.743 1223.3 566.339C1223.39 565.934 1223.79 565.679 1224.2 565.768L1231.41 567.359L1232.29 563.818C1232.4 563.416 1232.8 563.172 1233.2 563.273C1233.61 563.373 1233.85 563.78 1233.75 564.182L1232.87 567.682L1241.36 569.554L1242.29 565.818C1242.4 565.416 1242.8 565.172 1243.2 565.273C1243.61 565.373 1243.85 565.78 1243.75 566.182L1242.83 569.877L1250.6 571.593Z" fill="#525E72"/>
<path d="M956.148 922.737L985.66 917.237L985.385 915.763L955.874 921.263L956.148 922.737Z" fill="#525E72"/>
<path d="M567.508 697.546C567.207 697.262 567.192 696.788 567.476 696.486C567.76 696.185 568.235 696.17 568.536 696.454L577.036 704.454C577.338 704.738 577.352 705.213 577.069 705.514C576.785 705.816 576.31 705.83 576.008 705.546L567.508 697.546ZM574.825 654.725C574.976 654.34 575.412 654.151 575.797 654.302C576.183 654.454 576.372 654.89 576.22 655.275L571.047 668.407C570.244 670.445 570.115 672.688 570.68 674.805L570.747 675.057C571.344 677.293 572.744 679.231 574.68 680.5L585.933 687.873C586.28 688.1 586.377 688.565 586.15 688.911C585.923 689.258 585.458 689.355 585.111 689.128L573.858 681.754C571.613 680.284 569.989 678.037 569.298 675.443L569.231 675.191C568.583 672.764 568.731 670.194 569.652 667.857L574.825 654.725Z" fill="#525E72"/>
<path fill-rule="evenodd" clip-rule="evenodd" d="M957.196 989.055C957.642 988.829 958.112 988.651 958.597 988.525C962.338 987.552 966.16 989.796 967.133 993.538L973.171 1016.76C974.103 1020.35 972.081 1024.04 968.558 1025.18L963.883 1026.7C960.55 1027.78 956.931 1026.23 955.413 1023.07L945.582 1002.62C943.931 999.187 945.329 995.064 948.728 993.343L957.196 989.055ZM956.184 998.916C952.76 1000.61 951.354 1004.76 953.039 1008.19L956.471 1015.17C957.708 1017.69 960.599 1018.93 963.273 1018.08C965.876 1017.26 967.37 1014.53 966.665 1011.89L964.161 1002.52C963.354 999.506 960.254 997.713 957.235 998.519C956.873 998.616 956.52 998.749 956.184 998.916Z" fill="white"/>
<path d="M958.408 987.799C962.55 986.722 966.781 989.207 967.859 993.35L973.897 1016.57C974.929 1020.54 972.69 1024.63 968.789 1025.89L964.115 1027.41C960.425 1028.61 956.417 1026.89 954.736 1023.4L944.905 1002.95C943.078 999.145 944.626 994.58 948.389 992.674L956.856 988.386C957.351 988.135 957.871 987.939 958.408 987.799ZM949.066 994.013C946.032 995.549 944.784 999.23 946.257 1002.3L956.088 1022.75C957.444 1025.57 960.676 1026.95 963.651 1025.98L968.326 1024.47C971.472 1023.45 973.277 1020.15 972.445 1016.95L966.407 993.727C965.538 990.386 962.126 988.382 958.785 989.251C958.352 989.363 957.933 989.522 957.534 989.724L949.066 994.013ZM955.851 998.244C956.232 998.055 956.631 997.905 957.041 997.795C960.46 996.881 963.972 998.912 964.885 1002.33L967.389 1011.7C968.198 1014.72 966.484 1017.85 963.499 1018.79C960.472 1019.75 957.198 1018.35 955.797 1015.5L952.366 1008.52C950.498 1004.72 952.057 1000.12 955.851 998.244ZM956.517 999.588C953.463 1001.1 952.209 1004.8 953.712 1007.86L957.144 1014.84C958.217 1017.03 960.726 1018.1 963.047 1017.36C965.267 1016.66 966.541 1014.34 965.94 1012.09L963.436 1002.72C962.737 1000.1 960.047 998.544 957.429 999.244C957.114 999.328 956.809 999.443 956.517 999.588Z" fill="#525E72"/>
</svg>
