<svg width="1840" height="1380" viewBox="0 0 1840 1380" fill="none" xmlns="http://www.w3.org/2000/svg"><path fill-rule="evenodd" clip-rule="evenodd" d="m1214.52 1081.5 169-415.5-75-210 22.5 22.5 70 204.5-165 398.5h-21.5zm68.5-629.5 18-79 50.5 8 5-23.5 2 8-4 21-49.5-7.5-17 73h-5zm32-140.5s.84 2.667 2.5 8l-6.5 30.5-4.5-1c5.67-25 8.5-37.5 8.5-37.5zm-91.5 48.5 49 8.5-1.5 4.5-43.5-7-4-6z" fill="#B9C5D9"/><path fill-rule="evenodd" clip-rule="evenodd" d="m1229.02 443 79 13 74.99 211.5-176.99 430.5-119-16.5v-483l142-155.5z" fill="#fff"/><path d="M1236.52 557c2.49 0 4.5-2.239 4.5-5s-2.01-5-4.5-5c-2.48 0-4.5 2.239-4.5 5s2.02 5 4.5 5z" fill="#fff"/><path d="m1229.24 442.194 79.84 13.138 75.23 212.188-177.31 431.3-120.23-16.67V598.209l142.47-156.015zm-140.97 156.597v482.059l117.78 16.33 176.66-429.7-74.75-210.812-78.16-12.862-141.53 154.985z" fill="#525E72"/><path fill-rule="evenodd" clip-rule="evenodd" d="M910.523 673c3.535 24.026 6.372 41.859 8.511 53.5 2.139 11.641 6.137 30.997 11.992 58.068 3.391 32.917 6.561 57.394 9.508 73.432 2.947 16.038 8.191 37.34 15.732 63.906l-24.743 6.594 51.5 139-161.347 39.61a4.784 4.784 0 0 0-3.648 4.64 3.741 3.741 0 0 0 3.739 3.75h193.753l16-26 9.5 26h37l-21.5-79.5-91.997-363.5-54 .5z" fill="#fff"/><path d="m930.521 927.988 51.494 138.982-160.529 39.41a5.529 5.529 0 0 0-4.219 5.37 4.492 4.492 0 0 0 4.487 4.5h194.176l15.41-25.04 9.15 25.04h38.5l-21.76-80.45-85.978-362.973-.137-.577h-61.473l.127.859c3.536 24.034 6.374 41.875 8.516 53.527 2.141 11.65 6.139 31.012 11.996 58.09 3.381 32.854 6.552 57.348 9.504 73.41 2.925 15.916 8.105 36.995 15.54 63.241l-24.804 6.611zm39.408-254.238 85.851 362.42 21.25 78.58h-35.49l-9.86-26.96-16.59 26.96H821.761a2.999 2.999 0 0 1-2.994-3 4.046 4.046 0 0 1 3.076-3.92l162.163-39.8L932.5 929.012l24.684-6.578-.209-.733c-7.534-26.545-12.773-47.826-15.715-63.837-2.943-16.014-6.11-40.474-9.499-73.373-5.867-27.146-9.863-46.496-12.001-58.127-2.112-11.491-4.906-29.03-8.381-52.614h58.55z" fill="#525E72"/><path fill-rule="evenodd" clip-rule="evenodd" d="m1002.02 976-48.998 16.5 10.5 28.5 45.998-15.5-7.5-29.5z" fill="#B9C5D9"/><path fill-rule="evenodd" clip-rule="evenodd" d="m1001.24 976-54.218 19.5 10.5 27.5 51.218-17.5-7.5-29.5z" fill="#B9C5D9"/><path d="m1002.27 975.015-55.721 20.038 11.031 28.887 52.56-17.95-7.87-30.975zm6.07 29.995-49.875 17.05-9.969-26.113 52.724-18.962 7.12 28.025z" fill="#525E72"/><path fill-rule="evenodd" clip-rule="evenodd" d="M927.614 477.699c50.059-2.608 94.706 32.465 103.586 82.34 55.56 312.013 108.33 478.721 158.31 500.121 53.99 23.11 111.71 38.46 173.17 46.06 1.6.19 3.19.44 4.78.72l89.05 16.06-366.57-6.23c-42.96-.73-79.12-32.39-85.52-74.88l-84.671-561.904-.238.014-23.461-42.587-88.625-160.878L796.511 258l89.048 59.179a20.005 20.005 0 0 1 8.435 12.235l33.62 148.285zM885.522 483 751.53 385.295a10.997 10.997 0 0 1-4.519-8.888V282.5L885.522 483z" fill="#525E72"/><path d="M440.701 567.342c-.375-2.666 1.605-5.148 4.422-5.544 2.817-.396 5.405 1.444 5.78 4.11l2.778 19.768c2.078 14.785 16.427 24.991 32.049 22.796 8.761-1.232 16.487-6.235 20.922-13.55l7.112-11.731c7.282-12.012 23.364-16.298 35.919-9.573 9.092 4.87 14.168 14.455 12.905 24.368-.342 2.681-2.906 4.624-5.727 4.341-2.821-.283-4.832-2.686-4.49-5.366.768-6.032-2.32-11.863-7.851-14.826-7.639-4.091-17.423-1.484-21.853 5.824l-7.113 11.732c-6.033 9.952-16.547 16.76-28.467 18.436-21.257 2.987-40.781-10.899-43.608-31.017l-2.778-19.768zm281.16-39.514 2.778 19.768c2.827 20.117-12.113 38.847-33.369 41.835-11.921 1.675-23.904-1.972-32.446-9.876l-10.071-9.316c-6.273-5.804-16.397-5.613-22.612.425-4.5 4.373-5.862 10.829-3.46 16.415 1.067 2.483-.203 5.346-2.837 6.396-2.634 1.05-5.635-.111-6.702-2.594-3.947-9.181-1.709-19.793 5.688-26.981 10.216-9.925 26.856-10.238 37.166-.699l10.071 9.317c6.278 5.809 15.085 8.489 23.846 7.258 15.622-2.196 26.602-15.961 24.524-30.747l-2.778-19.767c-.375-2.667 1.605-5.149 4.422-5.545 2.818-.396 5.405 1.445 5.78 4.111z" fill="#fff"/><path d="M439.568 567.008c-.434-3.086 1.842-5.939 5.06-6.391 3.219-.453 6.193 1.663 6.627 4.749l2.778 19.768c2.019 14.365 15.981 24.296 31.202 22.157 8.54-1.201 16.068-6.076 20.385-13.196l7.112-11.732c7.49-12.354 24.009-16.756 36.914-9.844 9.364 5.015 14.598 14.898 13.295 25.124-.394 3.091-3.328 5.315-6.546 4.992-3.233-.325-5.555-3.1-5.159-6.207.729-5.72-2.201-11.252-7.461-14.07-7.289-3.904-16.635-1.414-20.858 5.551l-7.112 11.732c-6.152 10.147-16.863 17.084-29.005 18.79-21.657 3.044-41.568-11.118-44.454-31.655l-2.778-19.768zm1.485-.209 2.778 19.768c2.768 19.698 21.905 33.31 42.761 30.379 11.699-1.645 22.015-8.325 27.93-18.082l7.113-11.732c4.638-7.651 14.86-10.375 22.848-6.096 5.803 3.108 9.049 9.238 8.241 15.581-.287 2.253 1.412 4.283 3.821 4.525 2.425.244 4.619-1.419 4.908-3.689 1.223-9.602-3.694-18.887-12.515-23.612-12.206-6.538-27.849-2.369-34.923 9.3l-7.113 11.732c-4.552 7.509-12.477 12.641-21.459 13.903-16.023 2.252-30.759-8.229-32.896-23.434l-2.778-19.768c-.316-2.246-2.516-3.811-4.932-3.472-2.416.34-4.1 2.451-3.784 4.697zm281.16-39.514 2.778 19.768c2.886 20.537-12.35 39.638-34.007 42.682-12.142 1.706-24.351-2.009-33.06-10.067l-10.071-9.317c-5.979-5.531-15.649-5.35-21.58.413-4.28 4.158-5.571 10.283-3.294 15.581 1.237 2.878-.23 6.186-3.248 7.389-3.005 1.197-6.438-.131-7.669-2.995-4.07-9.47-1.763-20.413 5.855-27.815 10.5-10.201 27.593-10.523 38.198-.712l10.07 9.317c6.112 5.654 14.693 8.266 23.233 7.066 15.221-2.14 25.905-15.534 23.886-29.9l-2.778-19.767c-.434-3.086 1.842-5.94 5.06-6.392 3.219-.452 6.193 1.663 6.627 4.749zm-1.486.209c-.315-2.247-2.516-3.812-4.932-3.473-2.416.34-4.1 2.451-3.784 4.698l2.778 19.768c2.137 15.204-9.139 29.341-25.162 31.593-8.982 1.262-18.015-1.487-24.46-7.45l-10.071-9.317c-10.016-9.266-26.203-8.962-36.134.687-7.177 6.973-9.344 17.254-5.521 26.147.903 2.102 3.471 3.096 5.734 2.193 2.25-.896 3.323-3.316 2.426-5.403-2.525-5.875-1.094-12.662 3.627-17.249 6.499-6.315 17.076-6.514 23.644-.438l10.07 9.317c8.376 7.749 20.133 11.327 31.833 9.683 20.855-2.931 35.499-21.29 32.73-40.988l-2.778-19.768z" fill="#525E72"/><path fill-rule="evenodd" clip-rule="evenodd" d="M576.634 757.518c-.642-.932-1.051-1.934-1.201-3-.719-5.114 4.711-10.476 13.567-14.45 4.757-7.908 6.97-14.295 6.641-19.162l-11.043-54.871-8.513-26.09-.025-54.178c-.5-5.918-1.012-9.841-1.537-11.767-1.183-4.336-3.366-5.853-3.5-8.5-.224-4.41.942-7.743 3.5-10-4.586-9.171-7.919-16.171-10-21-2.082-4.829-2.915-7.495-2.5-8V505l25-2.5 5 11.5c1.95 3.01 2.616 7.51 2 13.5-.617 5.99-2.117 14.657-4.5 26 3.174 2.262 5.174 5.429 6 9.5.431 2.129-.988 4.903-1 8.5-.008 2.188.338 6.111 1.037 11.768l15.024 50.172-1.981 41.134 6.684 43.571c1.139 4.301 5.421 9.763 12.847 16.387 9.677 1.364 16.43 5.033 17.152 10.169.147 1.046.037 2.102-.307 3.155 8.387 6.123 18.844 13.279 31.371 21.467-3.773 15.396-23.413 25.589-58.922 30.58-35.509 4.99-57.198.605-65.068-13.154 9.939-11.467 18.03-21.21 24.274-29.231z" fill="#fff"/><path d="m575.876 573.966 17.7-2.723.004-.118.07-.144a13.157 13.157 0 0 0-2.189-14.679l-2.722-2.939 3.866-21.396a37.252 37.252 0 0 0-2.148-20.648l-7.878-19.386-18.257 2.566-2.245 20.95a37.248 37.248 0 0 0 3.627 20.44l9.614 19.5-1.807 3.576a13.16 13.16 0 0 0 1.89 14.656l.475.345zm-.232 1.554-.063.086-.087-.063-.574.088-.087-.569-.38-.276-.117-.106a14.657 14.657 0 0 1-2.164-16.391l1.469-2.908-9.282-18.829a38.748 38.748 0 0 1-3.774-21.263l2.293-21.389.542.058-.117-.831 20.225-2.842 8.319 20.47a38.746 38.746 0 0 1 2.234 21.479l-3.733 20.659 2.214 2.389a14.662 14.662 0 0 1 2.507 16.208l-.033 1.046-19.392 2.984zm.71 10.426-.1-.714 20.285-2.851 13.516 45.499a38.76 38.76 0 0 1 1.547 13.157l-2.501 45.598 3.803 6.444a29.749 29.749 0 0 1 3.268 22.236l-.572 2.325-1.457-.359.573-2.324a28.256 28.256 0 0 0-3.103-21.116l-4.035-6.835 2.526-46.051a37.278 37.278 0 0 0-1.486-12.648l-13.149-44.261-18.177 2.555-.438 46.17a37.244 37.244 0 0 0 2.057 12.568l15.121 43.571-1.994 7.682a28.254 28.254 0 0 0 2.837 21.153l1.191 2.077-1.301.746-1.191-2.077a29.752 29.752 0 0 1-2.988-22.276l1.88-7.242-14.972-43.143a38.718 38.718 0 0 1-2.14-13.073l.445-46.816.555.005zm16.187 103.241-.018-.434-.057.22.075.214z" fill="#525E72"/><path fill-rule="evenodd" clip-rule="evenodd" d="M575.709 505.797c-16.878 2.372-31.109.392-31.786-4.422-.677-4.815 12.457-10.641 29.336-13.013 16.878-2.372 31.109-.392 31.786 4.422.676 4.815-12.458 10.641-29.336 13.013zm-130.181 59.92c-16.538 4.124-30.898 3.642-32.074-1.075-1.176-4.717 11.277-11.884 27.815-16.008 16.538-4.123 30.898-3.641 32.074 1.076 1.176 4.717-11.277 11.884-27.815 16.007zm272.134-35.427c-16.835 2.666-31.098.935-31.859-3.867-.76-4.802 12.27-10.856 29.105-13.522 16.834-2.667 31.097-.935 31.858 3.866.76 4.802-12.27 10.857-29.104 13.523z" fill="#B9C5D9"/><path d="M576.043 506.326c-17.327 2.436-31.864.413-32.633-5.06-.769-5.474 12.647-11.425 29.974-13.86 17.327-2.435 31.864-.412 32.633 5.061.77 5.473-12.647 11.424-29.974 13.859zm-.208-1.485c16.429-2.309 29.281-8.01 28.697-12.165-.584-4.156-14.509-6.093-30.939-3.784s-29.281 8.009-28.697 12.165c.584 4.156 14.509 6.093 30.939 3.784zm-129.896 61.391c-16.977 4.233-31.646 3.741-32.983-1.622-1.337-5.363 11.384-12.684 28.361-16.916 16.978-4.233 31.646-3.742 32.983 1.621 1.338 5.363-11.383 12.684-28.361 16.917zm-.363-1.455c16.099-4.014 28.284-11.027 27.269-15.099-1.015-4.072-15.067-4.543-31.165-.529s-28.284 11.026-27.268 15.098c1.015 4.072 15.066 4.543 31.164.53zm272.433-33.96c-17.282 2.738-31.852.969-32.717-4.49-.864-5.459 12.446-11.643 29.728-14.38 17.282-2.737 31.852-.969 32.717 4.49.864 5.459-12.446 11.643-29.728 14.38zm-.235-1.481c16.387-2.596 29.138-8.52 28.481-12.664-.656-4.145-14.613-5.839-31-3.244-16.387 2.596-29.137 8.52-28.481 12.665.657 4.144 14.614 5.838 31 3.243z" fill="#525E72"/><path fill-rule="evenodd" clip-rule="evenodd" d="m409.034 520.007 47.484-11.839-3.643 10.816a14.093 14.093 0 0 0 2.068 12.939l1.08 1.444a8 8 0 0 1 .289 9.167l-3.845 5.883a14.555 14.555 0 0 1-18.344 5.223l-7.503-3.507a8 8 0 0 1-4.443-8.891l.255-1.213a12.68 12.68 0 0 0-4.24-12.305l-9.158-7.717zm276.212-38.494 48.335-7.656-4.572 10.457a14.096 14.096 0 0 0 .933 13.07l.95 1.533a8 8 0 0 1-.511 9.157l-4.343 5.526a14.554 14.554 0 0 1-18.73 3.604l-7.169-4.147a8 8 0 0 1-3.65-9.245l.359-1.186a12.682 12.682 0 0 0-3.151-12.628l-8.451-8.485zM544.141 456.45l48.46-6.811-4.754 10.375a14.1 14.1 0 0 0 .705 13.085l.923 1.548a8.002 8.002 0 0 1-.67 9.148l-4.439 5.449a14.554 14.554 0 0 1-18.79 3.276l-7.096-4.271a8 8 0 0 1-3.488-9.307l.38-1.18a12.684 12.684 0 0 0-2.93-12.681l-8.301-8.631z" fill="#fff"/><path d="M408.114 520.908a.75.75 0 0 1 .301-1.301l47.484-11.839a.75.75 0 0 1 .892.967l-3.643 10.816a13.344 13.344 0 0 0 1.958 12.25l1.08 1.444a8.75 8.75 0 0 1 .317 10.027l-3.845 5.883a15.304 15.304 0 0 1-19.29 5.491l-7.503-3.506a8.749 8.749 0 0 1-4.859-9.725l.255-1.213a11.933 11.933 0 0 0-3.99-11.577l-9.157-7.717zm2.089-.201 8.035 6.771a13.432 13.432 0 0 1 4.491 13.032l-.255 1.213a7.25 7.25 0 0 0 4.026 8.058l7.503 3.507a13.805 13.805 0 0 0 17.399-4.954l3.845-5.883a7.252 7.252 0 0 0-.262-8.308l-1.08-1.444a14.843 14.843 0 0 1-2.179-13.627l3.206-9.517-44.729 11.152zm274.074-38.337a.75.75 0 0 1 .414-1.27l48.335-7.656a.75.75 0 0 1 .805 1.041l-4.572 10.457a13.34 13.34 0 0 0 .883 12.374l.95 1.533a8.75 8.75 0 0 1-.559 10.016l-4.343 5.526a15.304 15.304 0 0 1-19.695 3.789l-7.169-4.147a8.75 8.75 0 0 1-3.993-10.111l.36-1.186a11.932 11.932 0 0 0-2.965-11.881l-8.451-8.485zm9.514 7.426a13.435 13.435 0 0 1 3.337 13.375l-.359 1.186a7.25 7.25 0 0 0 3.308 8.378l7.169 4.147a13.805 13.805 0 0 0 17.765-3.418l4.343-5.526a7.25 7.25 0 0 0 .463-8.299l-.95-1.533a14.844 14.844 0 0 1-.983-13.765l4.023-9.201-45.531 7.211 7.415 7.445zm-150.629-32.499a.75.75 0 0 1 .437-1.262l48.46-6.811a.75.75 0 0 1 .786 1.055l-4.753 10.375a13.342 13.342 0 0 0 .667 12.388l.923 1.549a8.752 8.752 0 0 1-.733 10.005l-4.439 5.449a15.304 15.304 0 0 1-19.758 3.445l-7.096-4.271a8.75 8.75 0 0 1-3.816-10.18l.381-1.18a11.93 11.93 0 0 0-2.758-11.93l-8.301-8.632zm2.099.019 7.284 7.573a13.432 13.432 0 0 1 3.103 13.43l-.38 1.18a7.25 7.25 0 0 0 3.162 8.435l7.095 4.271a13.804 13.804 0 0 0 17.822-3.108l4.439-5.448a7.251 7.251 0 0 0 .607-8.29l-.923-1.549a14.845 14.845 0 0 1-.742-13.781l4.183-9.129-45.65 6.416z" fill="#525E72"/><path fill-rule="evenodd" clip-rule="evenodd" d="M433.281 518.32c-13.23 3.299-24.337 4.443-24.807 2.556-.471-1.887 9.873-6.091 23.103-9.389 13.231-3.299 24.337-4.443 24.808-2.557.47 1.887-9.874 6.091-23.104 9.39zm276.333-36.36c-13.468 2.133-24.632 2.305-24.936.384-.304-1.921 10.367-5.207 23.834-7.34 13.468-2.133 24.632-2.305 24.936-.385.304 1.921-10.367 5.208-23.834 7.341zM568.51 457.324c-13.503 1.898-24.668 1.875-24.939-.051-.271-1.926 10.456-5.025 23.959-6.923 13.502-1.897 24.668-1.875 24.938.051.271 1.926-10.456 5.025-23.958 6.923z" fill="#B9C5D9"/><path d="M433.158 518.613c-14.028 3.497-25.062 4.634-25.717 2.01-.654-2.625 9.622-6.801 23.65-10.299 14.029-3.498 25.063-4.635 25.717-2.01.654 2.625-9.622 6.801-23.65 10.299zm-.363-1.456c6.408-1.597 12.32-3.456 16.589-5.191 3.798-1.544 6.045-2.982 5.968-3.289-.076-.307-2.735-.522-6.814-.102-4.584.472-10.676 1.607-17.084 3.204-6.407 1.598-12.319 3.457-16.588 5.192-3.799 1.543-6.046 2.982-5.969 3.289.076.306 2.735.522 6.814.102 4.584-.473 10.676-1.607 17.084-3.205zm276.632-34.892c-14.28 2.262-25.371 2.433-25.794-.239-.424-2.671 10.178-5.936 24.457-8.198 14.28-2.262 25.371-2.433 25.794.239.423 2.672-10.178 5.937-24.457 8.198zm-.235-1.481c6.522-1.033 12.574-2.369 16.978-3.726 3.919-1.207 6.282-2.444 6.233-2.756-.05-.312-2.68-.759-6.78-.696-4.608.071-10.776.671-17.298 1.704-6.523 1.033-12.574 2.369-16.978 3.725-3.919 1.207-6.282 2.445-6.233 2.757.05.312 2.68.758 6.78.695 4.607-.071 10.775-.67 17.298-1.703zm-140.883-23.152c-14.317 2.012-25.409 1.989-25.785-.689-.377-2.679 10.28-5.758 24.597-7.77 14.317-2.013 25.409-1.99 25.785.689.377 2.679-10.28 5.758-24.597 7.77zm-.208-1.486c6.539-.919 12.613-2.149 17.04-3.428 3.939-1.138 6.324-2.334 6.28-2.647-.044-.313-2.666-.806-6.766-.814-4.609-.009-10.786.482-17.326 1.401-6.539.919-12.613 2.15-17.04 3.429-3.939 1.138-6.324 2.334-6.28 2.647.044.313 2.666.805 6.766.814 4.609.009 10.786-.482 17.326-1.402z" fill="#525E72"/><path d="m601.659 570.348-34.66 4.871a6 6 0 0 0 1.67 11.883l34.66-4.871a6 6 0 0 0-1.67-11.883z" fill="#B9C5D9"/><path d="m566.153 575.408 36.693-5.157a6.162 6.162 0 1 1 1.715 12.204l-36.693 5.157a6.162 6.162 0 1 1-1.715-12.204zm.209 1.485a4.662 4.662 0 0 0 1.297 9.234l36.693-5.157a4.662 4.662 0 1 0-1.297-9.233l-36.693 5.156zm8.036 176.409c-.361-5.199 4.89-10.537 13.847-14.593 4.605-7.672 6.735-13.838 6.423-18.464a.75.75 0 0 1 .948-.773c3.479.965 6.839 1.218 10.086.762a21.12 21.12 0 0 0 8.942-3.423.75.75 0 0 1 1.143.43c1.081 4.075 5.227 9.368 12.444 15.809 10.119 1.461 16.802 5.351 17.559 10.734a7.531 7.531 0 0 1-.183 2.953c8.299 6.022 18.599 13.039 30.899 21.05a.748.748 0 0 1 .319.808c-3.876 15.741-23.771 26.04-59.556 31.069-35.784 5.029-57.747.613-65.812-13.45a.75.75 0 0 1 .084-.865c9.763-11.225 17.741-20.791 23.933-28.696a7.908 7.908 0 0 1-.674-1.422 6.931 6.931 0 0 1-.525-1.914l.123-.015zm69.663-5.948a.749.749 0 0 1-.035-.555c.313-.955.407-1.892.279-2.806-.641-4.555-6.853-8.137-16.508-9.489a.745.745 0 0 1-.394-.183c-6.989-6.213-11.245-11.435-12.765-15.725a22.572 22.572 0 0 1-8.727 3.123c-3.147.443-6.386.26-9.714-.546-.007 4.882-2.278 11.042-6.788 18.511a.745.745 0 0 1-.336.297c-8.838 3.956-13.774 9.087-13.136 13.62.052.374.141.741.267 1.101 2.85 6.396 18.04 10.016 35.727 7.845 16.339-2.006 29.386-8.49 31.82-15.304l.31.111zm.946.8c-3.013 7.333-16.354 13.851-32.893 15.882-16.054 1.971-30.221-.675-35.595-6.284-6.115 7.797-13.945 17.188-23.491 28.173 7.885 12.999 29.205 17.148 64.033 12.254 34.829-4.895 54.178-14.761 58.175-29.43-11.983-7.811-22.059-14.676-30.229-20.595z" fill="#525E72"/><path fill-rule="evenodd" clip-rule="evenodd" d="m558.286 450.208-13.303-103.352c3.358-1.437 6.281-2.213 8.77-2.328 2.488-.115 6.283.284 11.384 1.197l13.353 101.77a4 4 0 0 1-3.261 4.458c-2.83.506-5.044.868-6.643 1.085-1.523.206-3.513.421-5.972.643a4 4 0 0 1-4.328-3.473zm141.158 27.168-15.452-103.584a1.998 1.998 0 0 1 1.312-2.181c2.878-1.015 5.374-1.59 7.488-1.725 2.243-.143 5.556.114 9.939.77.87.131 1.552.814 1.682 1.684l15.191 101.949a2 2 0 0 1-1.582 2.255c-3.736.754-6.571 1.28-8.505 1.576-1.899.292-4.53.608-7.893.95a2 2 0 0 1-2.18-1.694zM421.402 510.7l-22.806-96.207a2 2 0 0 1 .718-2.04c2.617-2.035 5.018-3.218 7.203-3.55 2.222-.338 5.545-.371 9.968-.099a1.996 1.996 0 0 1 1.822 1.53l22.905 95.588a7 7 0 0 1-4.931 8.375c-1.46.406-2.683.729-3.669.97-.835.204-1.816.426-2.942.665a6.999 6.999 0 0 1-8.268-5.232z" fill="#fff"/><path d="m557.367 450.22-13.376-103.915.521-.223c3.434-1.469 6.442-2.267 9.03-2.387 2.557-.118 6.4.286 11.552 1.208l.54.096 13.424 102.314a4.75 4.75 0 0 1-3.872 5.294c-2.84.508-5.064.871-6.675 1.09-1.535.208-3.536.424-6.005.647a4.75 4.75 0 0 1-5.139-4.124zm1.488-.192a3.25 3.25 0 0 0 3.516 2.822c2.448-.221 4.429-.435 5.938-.639 1.587-.216 3.792-.576 6.612-1.081a3.249 3.249 0 0 0 2.65-3.622l-13.282-101.224c-4.778-.836-8.344-1.198-10.677-1.091-2.262.105-4.927.786-7.988 2.049l13.231 102.786zm124.219-76.209a2.752 2.752 0 0 1 1.805-3c2.938-1.036 5.499-1.626 7.69-1.765 2.307-.147 5.667.113 10.098.777a2.75 2.75 0 0 1 2.312 2.314l15.192 101.949a2.75 2.75 0 0 1-2.176 3.101c-3.747.756-6.592 1.284-8.54 1.583-1.913.293-4.556.611-7.93.954a2.748 2.748 0 0 1-2.998-2.33l-15.453-103.583zm18.299 104.421c3.351-.341 5.971-.656 7.855-.945 1.92-.295 4.744-.818 8.47-1.57a1.25 1.25 0 0 0 .989-1.41l-15.191-101.949a1.25 1.25 0 0 0-1.052-1.052c-4.334-.649-7.6-.902-9.779-.763-2.039.13-4.47.689-7.287 1.683a1.248 1.248 0 0 0-.82 1.363l15.452 103.584a1.25 1.25 0 0 0 1.363 1.059zm-280.876 32.549-22.807-96.207a2.75 2.75 0 0 1 .988-2.805c2.71-2.107 5.223-3.346 7.551-3.7 2.285-.347 5.655-.381 10.127-.106a2.75 2.75 0 0 1 2.505 2.104l22.905 95.588a7.75 7.75 0 0 1-5.46 9.272c-1.466.408-2.697.734-3.692.977-.843.206-1.831.429-2.964.67a7.75 7.75 0 0 1-9.153-5.793zm1.459-.346a6.25 6.25 0 0 0 7.382 4.672c1.119-.238 2.093-.458 2.92-.66a122.81 122.81 0 0 0 3.646-.965 6.25 6.25 0 0 0 4.403-7.478l-22.905-95.588a1.25 1.25 0 0 0-1.138-.956c-4.375-.269-7.651-.236-9.81.092-2.043.311-4.332 1.439-6.855 3.401a1.25 1.25 0 0 0-.449 1.275l22.806 96.207z" fill="#525E72"/><path d="M555.761 345.382a.75.75 0 1 1-1.475.27l-1.477-8.057a.75.75 0 0 1 1.476-.27l1.476 8.057zm138.076 24.964a.75.75 0 1 1-1.47.296l-1.617-8.03a.75.75 0 1 1 1.47-.296l1.617 8.03zm-285.528 40.298a.75.75 0 1 1-1.439.423l-2.311-7.858a.75.75 0 0 1 1.439-.423l2.311 7.858z" fill="#525E72"/><path fill-rule="evenodd" clip-rule="evenodd" d="M547.024 294.816c12.103 27.07 14.298 41.283 6.585 42.641-7.713 1.358-9.908-12.856-6.585-42.641zm136.494 25.291c12.574 26.854 15.017 41.027 7.329 42.519-7.688 1.492-10.131-12.681-7.329-42.519zm-289.184 41.162c14.866 25.656 18.535 39.562 11.006 41.719-7.528 2.156-11.197-11.75-11.006-41.719z" fill="#A9DE8A"/><path d="M564.726 345.088c-4.103.885-7.263 1.38-9.468 1.484-2.21.105-5.673-.077-10.376-.547l-.149 1.493c4.77.476 8.296.661 10.595.552 2.304-.109 5.538-.615 9.715-1.516l-.317-1.466zm119.714 28.031c6.886.979 13.129.4 18.718-1.743a.75.75 0 1 0-.537-1.401c-5.341 2.048-11.327 2.604-17.97 1.659a.75.75 0 0 0-.211 1.485zm-267.55 35.012c-.129.116-.629.868-.809 1.097a7.864 7.864 0 0 1-1.8 1.654c-3.023 2.052-7.996 2.96-15.591 2.085l-.172 1.49c7.927.914 13.255-.06 16.606-2.334 1.497-1.016 3.436-3.477 2.77-2.878l-1.004-1.114z" fill="#525E72"/><path fill-rule="evenodd" clip-rule="evenodd" d="m567.983 697.103-.158-.26a31.99 31.99 0 0 1-4.148-11.101l-4.609-26.632a6.859 6.859 0 0 1 5.951-7.981 12.7 12.7 0 0 1 10.493 3.648 8.468 8.468 0 0 1 5.938-.996l3.548 12.061-.09.614c26.239 9.98 40.753 13.422 43.542 10.325 1.437-1.597-4.818-4.404-18.766-8.421l.766-11.079c22.193 4.073 34.359 7.073 36.5 9 5.634 5.073 26.5 15.5 26.5 15.5l-11 40c-2.722-1.814-3.797-1.983-3.227-.506l15.227 6.506c-15.24 1.993-28.073 2.493-38.5 1.5-16.655-1.586-55.158-10.191-55.5-10.5-.561-.504-3.859-3.621-9.896-9.349a9.996 9.996 0 0 1-3.043-8.467l.472-3.862z" fill="#B9C5D9"/><path d="m567.28 696.989-.024-.039a32.767 32.767 0 0 1-4.246-11.362l-4.608-26.631a7.609 7.609 0 0 1 6.601-8.854 13.45 13.45 0 0 1 10.706 3.472 9.214 9.214 0 0 1 4.992-.949c.325.029.647.075.967.138l.446.088 3.723 12.655-.026.18c25.368 9.619 39.732 13.002 42.154 10.311.134-.148-.725-.933-3.363-2.117-3.088-1.385-8.11-3.082-15.052-5.082l-.583-.167.865-12.521.826.151c22.46 4.122 34.563 7.106 36.866 9.181 1.968 1.772 6.032 4.375 11.58 7.524 1.166.661 2.383 1.339 3.641 2.028a375.294 375.294 0 0 0 11.113 5.834l.551.276-11.205 40.744 14.135 6.039-2.719.356c-15.291 1.999-28.179 2.502-38.669 1.503-13.253-1.262-54.85-9.717-55.93-10.69-.568-.511-3.861-3.622-9.911-9.362a10.752 10.752 0 0 1-3.271-9.102l.441-3.604zm13.655-42.827a7.713 7.713 0 0 0-4.972.982l-.501.292-.409-.411a11.951 11.951 0 0 0-9.873-3.433 6.11 6.11 0 0 0-5.3 7.109l4.609 26.632a31.238 31.238 0 0 0 4.05 10.84l.292.483-.503 4.119a9.252 9.252 0 0 0 2.815 7.832c6.024 5.716 9.329 8.838 9.881 9.336.045.04 11.854 2.677 21.281 4.593 14.312 2.909 26.47 5.021 33.789 5.717 9.735.927 21.599.545 35.588-1.151l-12.972-5.542-.114-.296c-.46-1.19-.073-2.191 1.195-1.992.537.084 1.28.43 2.279 1.045l10.566-38.423-.36-.183a378.578 378.578 0 0 1-10.251-5.401 265.391 265.391 0 0 1-3.661-2.039c-5.643-3.202-9.767-5.844-11.843-7.714-1.952-1.757-13.901-4.72-35.308-8.667l-.666 9.636c6.705 1.945 11.591 3.605 14.669 4.987 3.617 1.623 5.168 3.041 3.864 4.489-3.137 3.483-17.606.052-44.366-10.126l-.562-.214.153-1.047-3.37-11.453z" fill="#525E72"/><path fill-rule="evenodd" clip-rule="evenodd" d="M919.022 479.704 838.85 332.335c-8.357-15.36-26.309-22.792-43.078-17.835-16.456 4.865-26.765 21.165-24.107 38.119l16.742 106.826c1.967 12.549 13.735 21.128 26.284 19.161a23 23 0 0 0 12.664-6.421l29.611-29.473L889.534 489c-2.23-5-.4-7.5 5.488-7.5 5.889 0 13.889-.599 24-1.796z" fill="#B9C5D9"/><path d="m889.409 489.432 1.298-.737c-1.999-4.483-.563-6.445 4.804-6.445 5.923 0 13.95-.6 24.088-1.801l1.1-.13-80.702-148.342c-8.526-15.671-26.841-23.254-43.949-18.196-16.817 4.972-27.351 21.629-24.636 38.954l16.743 106.826c2.031 12.958 14.182 21.817 27.141 19.786a23.755 23.755 0 0 0 13.077-6.631l28.98-28.845 32.056 45.561zm6.102-8.682c-4.651 0-7.098 1.599-7.151 4.584l-30.804-43.781-30.242 30.1a22.249 22.249 0 0 1-12.251 6.212c-12.14 1.903-23.524-6.396-25.426-18.537l-16.743-106.825c-2.599-16.582 7.484-32.525 23.579-37.284 16.43-4.857 34.019 2.426 42.206 17.475l79.643 146.394c-9.566 1.109-17.171 1.662-22.811 1.662z" fill="#525E72"/><path fill-rule="evenodd" clip-rule="evenodd" d="m689.023 674.5-21.227-9.739a8 8 0 0 0-10.425 10.979l6.152 11.76-12.269 4.908a8 8 0 0 0-1.052 14.342l13.321 7.75-5.7 6.909a7.999 7.999 0 0 0 6.171 13.091h25.029v-60z" fill="#fff"/><path d="m1228.82 1097.71 1.38.58 171.71-415.497-17.89-15.855-.99 1.123 17.08 15.146-171.29 414.503z" fill="#525E72"/><path d="m1400.3 683.243 1.42-.486-70.06-204.664-22.62-22.623-1.06 1.06 22.38 22.377 69.94 204.336z" fill="#525E72"/><path d="m1193.83 635.652-1.8 9.251-8.52-1.656-1.35 6.938-10.95-2.13 1.34-6.938-30.06-5.844 1.8-9.251 35.2-20.569 10.95 2.129-5.13 26.414 8.52 1.656zm-37.74-7.335 18.26 3.549 3.01-15.458-21.27 11.909zm62.29 29.539c-16.92-3.289-23.44-12.641-20.69-26.821 2.75-14.12 12.28-20.288 29.2-16.999 16.86 3.277 23.44 12.641 20.71 26.7-2.74 14.119-12.37 20.397-29.22 17.12zm1.78-9.19c9.62 1.869 14.94-2.087 16.49-10.06 1.53-7.912-1.93-13.511-11.54-15.38-9.62-1.869-14.91 1.965-16.46 9.938-1.56 8.034 1.9 13.633 11.51 15.502zm79.57 7.57-1.8 9.251-8.52-1.656-1.35 6.938-10.96-2.129 1.35-6.938-30.06-5.844 1.8-9.251 35.19-20.57 10.96 2.13-5.13 26.413 8.52 1.656zm-37.74-7.334 18.26 3.549 3.01-15.459-21.27 11.91z" fill="#A9DE8A"/><path d="m1194.9 635.362-2.08 10.723-8.52-1.656-1.35 6.938-12.43-2.415 1.35-6.939-30.06-5.844 2-10.32 35.74-20.883 11.97 2.326-5.14 26.414 8.52 1.656zm-10.28-.47 5.14-26.414-9.94-1.932-34.67 20.256-1.59 8.181 30.07 5.844-1.35 6.938 9.48 1.844 1.35-6.939 8.52 1.657 1.51-7.779-8.52-1.656zm-30.48-5.926 24.46-13.7-3.46 17.783-21-4.083zm19.82 2.324 2.55-13.134-18.07 10.119 15.52 3.015zm44.47 27.605c-17.01-3.306-24.17-12.824-21.28-27.7 2.88-14.808 13.07-20.9 30.08-17.592 16.96 3.295 24.17 12.829 21.3 27.579-2.88 14.817-13.15 21.007-30.1 17.713zm.29-1.472c16.16 3.142 25.62-2.559 28.34-16.527 2.7-13.899-3.94-22.677-20.11-25.821-16.24-3.156-25.61 2.449-28.32 16.406-2.73 14.027 3.86 22.787 20.09 25.942zm1.5-7.718c-9.72-1.888-13.81-7.648-12.11-16.381 1.68-8.664 7.62-12.421 17.34-10.531 9.7 1.885 13.8 7.633 12.13 16.259-1.69 8.695-7.67 12.538-17.36 10.653zm.28-1.472c8.9 1.729 14.08-1.601 15.6-9.467 1.52-7.795-2.04-12.77-10.94-14.501-8.93-1.735-14.06 1.514-15.58 9.345-1.54 7.904 2 12.889 10.92 14.623zm80.3 7.713-2.08 10.724-8.52-1.656-1.35 6.938-12.43-2.416 1.35-6.938-30.07-5.844 2.01-10.32 35.74-20.884 11.96 2.327-5.13 26.413 8.52 1.656zm-10.28-.469 5.14-26.414-9.95-1.933-34.66 20.256-1.59 8.182 30.07 5.844-1.35 6.938 9.48 1.843 1.35-6.938 8.52 1.656 1.51-7.778-8.52-1.656zm-30.48-5.926 24.46-13.701-3.46 17.783-21-4.082zm19.81 2.324 2.56-13.135-18.07 10.119 15.51 3.016zm-628.875 39.336a8.75 8.75 0 0 0-1.15 15.687l12.557 7.306-5.138 6.228a8.749 8.749 0 0 0 6.749 14.318h25.779v-61.231l-21.663-9.94a8.75 8.75 0 0 0-11.403 12.009l5.767 11.024-11.498 4.599zm37.297-16.73v58.769h-24.279a7.25 7.25 0 0 1-5.592-11.864l6.262-7.59-14.084-8.194a7.25 7.25 0 0 1 .953-12.998l13.04-5.216-6.537-12.496a7.25 7.25 0 0 1 9.448-9.95l20.789 9.539z" fill="#525E72"/><path fill-rule="evenodd" clip-rule="evenodd" d="M919.627 480.43c-1.823-3.872-2.99-6.206-3.5-7a6.229 6.229 0 0 0-10.223-.369l-.277.369-2.169-1.084a7.228 7.228 0 0 0-9.331 2.584l-2.061-.475a8 8 0 0 0-7.713 2.408c-.877.962-1.286 1.485-1.226 1.567.11.153.944 1.653 2.5 4.5l34-2.5z" fill="#fff"/><path d="M903.746 471.566a7.98 7.98 0 0 0-9.996 2.41l-1.563-.361a8.75 8.75 0 0 0-8.436 2.634c-1.708 1.875-1.724 1.896-1.279 2.512.08.111.956 1.688 2.449 4.421.141.258.42.409.714.388l34-2.5a.75.75 0 0 0 .623-1.068c-1.84-3.909-3.012-6.252-3.548-7.086a6.978 6.978 0 0 0-11.353-.544l-1.611-.806zm-17.74 10.472a280.718 280.718 0 0 0-2.06-3.725c.191-.243.497-.596.914-1.054a7.25 7.25 0 0 1 6.99-2.182l2.061.476c.31.071.631-.06.801-.329a6.48 6.48 0 0 1 8.363-2.316l2.169 1.085a.751.751 0 0 0 .936-.221l.276-.369a5.48 5.48 0 0 1 8.993.324c.441.687 1.445 2.678 2.986 5.927l-32.429 2.384z" fill="#525E72"/><path fill-rule="evenodd" clip-rule="evenodd" d="M1271.95 368.026 1223.02 360l4-24 50.29 8.382 8.71-38.382 28.5 4.5-8.76 38.623 50.26 8.377-5 23.5-50.61-8.303-17.88 78.803-28.51-4.5 17.93-78.974z" fill="#fff"/><path d="M1223.39 360.74a.75.75 0 0 1-.62-.863l4-24a.753.753 0 0 1 .86-.617l49.6 8.265 8.55-37.691a.754.754 0 0 1 .85-.575l28.5 4.5c.43.068.71.484.61.907l-8.58 37.848 49.47 8.246c.43.071.7.478.61.896l-5 23.5a.746.746 0 0 1-.85.584l-49.91-8.189-17.73 78.115a.738.738 0 0 1-.84.575l-28.52-4.5a.75.75 0 0 1-.61-.907l17.75-78.196-48.14-7.898zm49.17 6.546c.42.07.7.485.61.907l-17.75 78.191 27.03 4.266 17.72-78.119a.749.749 0 0 1 .85-.574l49.91 8.187 4.68-22.033-49.48-8.248a.745.745 0 0 1-.61-.906l8.58-37.841-27.01-4.266-8.56 37.698a.747.747 0 0 1-.85.573l-49.55-8.258-3.76 22.519 48.19 7.904z" fill="#525E72"/><path d="m1304.21 379.12-3.35-5.742 1.3-.756 3.32 5.69 47.65 7.22-2.28-4.173a.751.751 0 0 1 1.32-.718l2 3.661 3.57-18.78-1.96-7.84 1.46-.364 2.04 8.16-4.02 21.117a.756.756 0 0 1-.86.647l-48.82-7.397-16.84 72.325a.748.748 0 1 1-1.46-.34l16.93-72.71zm6.07-29.276 6.46-30.32-2.45-8.823 1.44-.402 2.55 9.178-6.54 30.679-1.46-.312zm-86.15 9.74 3.82 5.728 43.19 6.948-.24 1.481-43.83-7.052-4.18-6.273 1.24-.832z" fill="#525E72"/><path fill-rule="evenodd" clip-rule="evenodd" d="M876.695 493.003A22.002 22.002 0 0 1 896.772 480h22.25l29.512 193h-38.512l-3.797-7.607a34 34 0 0 1-3.539-13.529L899.522 587l-43.325 143.34c-5.052 16.714-21.1 27.621-38.499 26.166l-101.051-8.445c-24.235-2.025-43.044-21.998-43.613-46.311a44.84 44.84 0 0 1-.011-.82c-.089-23.159 18.613-42.005 41.772-42.094l87.739-.336 74.161-165.497z" fill="#fff"/><path d="M940.395 673.75a.737.737 0 0 1-.094 0h-15.906a.737.737 0 0 1-.094 0h-13.79a.75.75 0 0 1-.671-.415l-3.798-7.607a34.774 34.774 0 0 1-3.617-13.828l-2.952-60.529-42.07 139.186c-5.154 17.052-21.527 28.18-39.279 26.697l-101.051-8.445c-24.617-2.058-43.723-22.345-44.3-47.041a33.281 33.281 0 0 1-.012-.835c-.09-23.573 18.947-42.757 42.52-42.847l87.255-.334 73.963-165.055a22.75 22.75 0 0 1 20.761-13.447h22.251c.37 0 .685.27.741.637l29.512 193a.75.75 0 0 1-.742.863h-8.627zm-17.495-1.5c-4.873-6.992-6.008-11.469-2.942-13.386 1.852-1.157 3.329-.112 4.117 2.548.66 2.227.998 5.83 1.028 10.838H938.9c-4.873-6.992-6.008-11.469-2.942-13.386 1.852-1.157 3.329-.112 4.117 2.548.66 2.227.998 5.83 1.028 10.838h7.046l-29.282-191.5H897.26a21.25 21.25 0 0 0-19.392 12.56l-74.161 165.497a.752.752 0 0 1-.682.443l-87.738.336c-22.745.087-41.113 18.596-41.026 41.341 0 .269.005.537.011.805.56 23.931 19.072 43.588 42.926 45.582l101.051 8.445c17.046 1.425 32.769-9.261 37.718-25.636l43.326-143.34c.243-.806 1.426-.661 1.467.18l3.163 64.864a33.263 33.263 0 0 0 3.461 13.231l3.591 7.192H922.9zm-11.718.415-.207-.415h-.464l.671.415zm11.455-10.827c-.546-1.84-1.069-2.211-1.884-1.702-1.891 1.182-1.082 4.653 2.828 10.454-.088-4.011-.406-6.935-.944-8.752zm16 0c-.546-1.84-1.069-2.211-1.884-1.702-1.891 1.182-1.082 4.653 2.828 10.454-.088-4.011-.406-6.935-.944-8.752z" fill="#525E72"/><path fill-rule="evenodd" clip-rule="evenodd" d="M796.022 393c1.367-10.998 3.273-18.941 5.72-23.83 2.446-4.888 7.212-10.278 14.298-16.17 2.365 7.056.459 15.85-5.719 26.383-2.487 4.239-7.253 8.778-14.299 13.617z" fill="#fff"/><path fill-rule="evenodd" clip-rule="evenodd" d="m780.922 370-4.657 52.734a4.098 4.098 0 0 0 2.207 4.005 3.482 3.482 0 0 0 4.24-.833l7.191-8.413c5.886-.178 9.56-.878 11.023-2.102 1.462-1.223 1.462-3.745 0-7.565" fill="#B9C5D9"/><path d="M801.895 415.967c1.785-1.493 1.785-4.321.219-8.409a.75.75 0 0 0-1.401.536c1.361 3.552 1.361 5.768.22 6.722-1.286 1.076-4.848 1.755-10.564 1.927a.752.752 0 0 0-.548.262l-7.191 8.414a2.732 2.732 0 0 1-3.326.653 3.349 3.349 0 0 1-1.804-3.272l4.657-52.734a.75.75 0 0 0-1.494-.132l-4.657 52.734a4.85 4.85 0 0 0 2.611 4.738 4.23 4.23 0 0 0 5.153-1.013l6.976-8.161c5.862-.199 9.54-.919 11.149-2.265z" fill="#525E72"/><path fill-rule="evenodd" clip-rule="evenodd" d="m787.022 436 9.012-2.5-.012 10.5c-4.666-5.333-7.666-8-9-8zm18-5 9-3v11c-4.666-5.333-7.666-8-9-8z" fill="#fff"/><path fill-rule="evenodd" clip-rule="evenodd" d="m787.511 436 9.011-2.5-.011 10.5c-4.667-5.333-7.667-8-9-8zm18-5 9-3v11c-4.667-5.333-7.667-8-9-8z" fill="#fff" stroke="#525E72" stroke-width="1.5" stroke-linecap="round" stroke-linejoin="round"/><path d="M796.936 393.618a.75.75 0 0 1-1.169-.711c1.376-11.075 3.3-19.091 5.793-24.072 2.5-4.996 7.331-10.46 14.489-16.412a.75.75 0 0 1 1.191.339c2.445 7.296.494 16.299-5.784 27-2.551 4.35-7.392 8.96-14.52 13.856zm13.226-14.615c5.766-9.828 7.737-18.058 5.976-24.695-6.533 5.545-10.945 10.617-13.237 15.198-2.275 4.546-4.091 11.856-5.43 21.907 6.204-4.418 10.434-8.562 12.691-12.41zM808.511 371a2 2 0 1 1 0 4 2 2 0 0 1 0-4zm0 1.5a.5.5 0 1 0 0 1 .5.5 0 0 0 0-1zm-20.783 64.218a.75.75 0 1 1-.434-1.436l30.743-9.302a.75.75 0 1 1 .435 1.436l-30.744 9.302zm25.201-93.191a.75.75 0 0 1 1.164.946l-13 16a.75.75 0 0 1-1.164-.946l13-16zm-13.997 52.594a.75.75 0 0 1-.842-1.242c10.205-6.913 16.597-14.452 19.207-22.608a.75.75 0 1 1 1.428.458c-2.723 8.51-9.331 16.305-19.793 23.392zm44.173-18.252c8.558-5.501 4.439-20.495-12.844-45.021V352a.75.75 0 0 1-1.5 0v-21.5c0-.729.934-1.029 1.359-.437 18.911 26.34 23.686 42.71 13.796 49.068a.75.75 0 1 1-.811-1.262z" fill="#525E72"/><path fill-rule="evenodd" clip-rule="evenodd" d="m1241.78 522.123 20.67 4.59c7.91 1.757 12.9 9.598 11.14 17.512a2.07 2.07 0 0 1-.05.244l-2.24 9.328a11.74 11.74 0 0 1-5.98 7.668 11.154 11.154 0 0 1 1.91 9.282l-1.34 5.583c-1.42 5.922-7.33 9.612-13.27 8.291l-27.37-6.077c-6.1-1.354-9.94-7.393-8.59-13.489.02-.063.03-.125.05-.188l1.29-5.372a11.237 11.237 0 0 1 6.99-7.906c-2.53-2.874-3.5-6.8-2.6-10.521l1.94-8.066c1.88-7.774 9.64-12.613 17.45-10.879z" fill="#B9C5D9"/><path fill-rule="evenodd" clip-rule="evenodd" d="M1235.52 557c-2.48 0-4.5-2.239-4.5-5s2.02-5 4.5-5c2.49 0 5 1.739 5 4.5s-2.51 5.5-5 5.5zm20 3c-2.48 0-4.5-2.239-4.5-5s2.02-5 4.5-5c2.49 0 5.5 1.239 5.5 4s-3.01 6-5.5 6z" fill="#fff"/><path d="m1241.78 522.123 20.67 4.59c7.91 1.757 12.9 9.598 11.14 17.512a2.07 2.07 0 0 1-.05.244l-2.24 9.328a11.74 11.74 0 0 1-5.98 7.668 11.154 11.154 0 0 1 1.91 9.282l-1.34 5.583c-1.42 5.922-7.33 9.612-13.27 8.291l-27.37-6.077c-6.1-1.354-9.94-7.393-8.59-13.489.02-.063.03-.125.05-.188l1.29-5.372a11.237 11.237 0 0 1 6.99-7.906c-2.53-2.874-3.5-6.8-2.6-10.521l1.94-8.066c1.88-7.774 9.64-12.613 17.45-10.879zm-.33 1.464c-7.01-1.556-13.97 2.788-15.66 9.767l-1.94 8.066a10.25 10.25 0 0 0 2.26 9.179l1.44 1.633-2.04.762a9.76 9.76 0 0 0-6.06 6.851l-1.28 5.373a.958.958 0 0 0-.04.162c-1.18 5.288 2.16 10.526 7.45 11.7l27.36 6.077a9.66 9.66 0 0 0 11.49-7.177l1.34-5.583c.67-2.79.07-5.734-1.65-8.035l-1.05-1.409 1.56-.816a10.256 10.256 0 0 0 5.21-6.69l2.24-9.328c.02-.073.03-.146.05-.219 1.58-7.106-2.9-14.145-10.01-15.723l-20.67-4.59zm-6.77 34.291c-3.24-.695-5.25-4.163-4.5-7.745.76-3.582 2.63-4.626 5.87-3.93 3.24.695 6.62 2.866 5.87 6.448-.76 3.582-4 5.922-7.24 5.227zm5.77-5.536c.45-2.165-1.5-3.982-4.72-4.673-2.52-.541-3.52.1-4.08 2.773-.59 2.805.95 5.455 3.35 5.969 2.39.514 4.86-1.269 5.45-4.069zm14.17 8.541c-3.2-.665-5.19-3.983-4.44-7.412.74-3.428 5.13-3.875 8.33-3.21 3.2.666 4 2.191 3.25 5.62-.74 3.428-3.94 5.668-7.14 5.002zm.31-1.468c2.37.492 4.79-1.207 5.37-3.853.58-2.692.21-3.353-2.1-3.832-3.32-.691-6.13.119-6.56 2.06-.57 2.636.93 5.134 3.29 5.625z" fill="#525E72"/><path d="m1250.6 571.593.69-2.775a.755.755 0 0 1 .91-.545c.41.1.65.507.55.909l-.68 2.734 6.13 1.352c.4.089.66.489.57.894a.755.755 0 0 1-.9.571l-6.17-1.361-.95 3.81a.752.752 0 0 1-1.46-.364l.95-3.77-7.78-1.715-.71 2.849a.752.752 0 0 1-1.46-.364l.71-2.808-8.49-1.872-.76 3.044a.752.752 0 0 1-1.46-.364l.76-3.003-7.18-1.582a.753.753 0 0 1-.57-.894c.09-.405.49-.66.9-.571l7.21 1.591.88-3.541a.755.755 0 0 1 .91-.545c.41.1.65.507.55.909l-.88 3.5 8.49 1.872.93-3.736a.755.755 0 0 1 .91-.545c.41.1.65.507.55.909l-.92 3.695 7.77 1.716zM956.148 922.737l29.512-5.5-.275-1.474-29.511 5.5.274 1.474zm-388.64-225.191a.75.75 0 0 1 1.028-1.092l8.5 8a.75.75 0 1 1-1.028 1.092l-8.5-8zm7.317-42.821a.75.75 0 0 1 1.395.55l-5.173 13.132a10.247 10.247 0 0 0-.367 6.398l.067.252a9.41 9.41 0 0 0 3.933 5.443l11.253 7.373a.75.75 0 1 1-.822 1.255l-11.253-7.374a10.896 10.896 0 0 1-4.56-6.311l-.067-.252a11.74 11.74 0 0 1 .421-7.334l5.173-13.132z" fill="#525E72"/><path fill-rule="evenodd" clip-rule="evenodd" d="M957.196 989.055a7 7 0 0 1 9.937 4.483l6.038 23.222a6.997 6.997 0 0 1-4.613 8.42l-4.675 1.52a7.002 7.002 0 0 1-8.47-3.63l-9.831-20.45a6.998 6.998 0 0 1 3.146-9.277l8.468-4.288zm-1.012 9.861a6.936 6.936 0 0 0-3.145 9.274l3.432 6.98a5.667 5.667 0 0 0 6.802 2.91 5.106 5.106 0 0 0 3.392-6.19l-2.504-9.37a5.659 5.659 0 0 0-7.977-3.604z" fill="#fff"/><path d="M958.408 987.799a7.75 7.75 0 0 1 9.451 5.551l6.038 23.22c1.032 3.97-1.207 8.06-5.108 9.32l-4.674 1.52a7.754 7.754 0 0 1-9.379-4.01l-9.831-20.45a7.754 7.754 0 0 1 3.484-10.276l8.467-4.288a7.755 7.755 0 0 1 1.552-.587zm-9.342 6.214a6.253 6.253 0 0 0-2.809 8.287l9.831 20.45a6.243 6.243 0 0 0 7.563 3.23l4.675-1.51a6.253 6.253 0 0 0 4.119-7.52l-6.038-23.223a6.25 6.25 0 0 0-8.873-4.003l-8.468 4.289zm6.785 4.231a6.406 6.406 0 0 1 9.034 4.086l2.504 9.37a5.85 5.85 0 0 1-3.89 7.09 6.421 6.421 0 0 1-7.702-3.29l-3.431-6.98c-1.868-3.8-.309-8.4 3.485-10.276zm.666 1.344a6.187 6.187 0 0 0-2.805 8.272l3.432 6.98a4.909 4.909 0 0 0 5.903 2.52 4.346 4.346 0 0 0 2.893-5.27l-2.504-9.37a4.906 4.906 0 0 0-6.919-3.132z" fill="#525E72"/></svg>