<svg width="1840" height="1380" viewBox="0 0 1840 1380" fill="none" xmlns="http://www.w3.org/2000/svg"><path fill-rule="evenodd" clip-rule="evenodd" d="M885.643 570.512c.246-3.514 1.304-36.303 3.175-98.366.468-15.534-10.292-29.158-25.512-32.302l-1.531-.316c-18.369-1.285-34.719 11.571-37.804 29.725l-15.751 92.675" fill="#fff"/><path d="m861.953 440.241 1.481.306c14.863 3.07 25.371 16.375 24.914 31.545-1.87 62.021-2.929 94.838-3.174 98.336a.75.75 0 0 0 1.497.104c.247-3.53 1.304-36.289 3.176-98.395.479-15.898-10.533-29.842-26.11-33.059l-1.531-.316-.099-.014c-18.754-1.312-35.447 11.813-38.596 30.348l-15.751 92.675a.75.75 0 0 0 1.479.252l15.75-92.676c3.018-17.758 18.999-30.337 36.964-29.106z" fill="#F56843"/><path fill-rule="evenodd" clip-rule="evenodd" d="m897.858 562.355 8.047-62.561c.775-6.023-3.48-11.533-9.503-12.308-.465-.06-.933-.09-1.402-.09a17.234 17.234 0 0 0-16.382 11.883L858 562.396l39.858-.041z" fill="#fff"/><path d="M898.505 562.647a.75.75 0 0 0 .743-.654l8.047-62.561c.827-6.434-3.717-12.32-10.151-13.148a11.91 11.91 0 0 0-1.498-.096 17.984 17.984 0 0 0-17.095 12.4l-20.618 63.118a.749.749 0 0 0 .713.982l39.859-.041zm-.661-1.499-38.164.039 20.297-62.134a16.484 16.484 0 0 1 15.669-11.365c.437 0 .873.028 1.307.084 5.612.722 9.576 5.857 8.854 11.469l-7.963 61.907z" fill="#F56843"/><path fill-rule="evenodd" clip-rule="evenodd" d="m699.5 715.896 76.372-24.894a24.003 24.003 0 0 0 16.304-19.305L808.5 561.396H897l-15.659 140.148a86.001 86.001 0 0 1-36.47 61.127L758 822.896l-58.5-107z" fill="#FFD1D1"/><path fill-rule="evenodd" clip-rule="evenodd" d="M883 688.896c-17.667 9.667-30.5 20.667-38.5 33-8 12.334-14.833 30.834-20.5 55.5 4.893-3.568 9.06-6.568 12.5-9 14.086-9.954 24.913-19.009 31.5-29.5 9-14.333 14-31 15-50z" fill="#FFAFAF"/><path d="M786.871 682.489a23.24 23.24 0 0 0 4.72-10.963L807.9 561.329a.75.75 0 0 1 .742-.641h88.5a.75.75 0 0 1 .745.834l-6.801 60.866a.748.748 0 0 1-.117 1.053l-8.731 78.142a86.75 86.75 0 0 1-36.907 61.742l-86.405 59.689a.75.75 0 0 1-.906-.041c-11.891-9.918-21.787-22.497-29.686-37.731-7.879-15.196-16.726-38.733-26.551-70.624a.75.75 0 0 1 .489-.936l73.385-23.41a23.233 23.233 0 0 0 11.214-7.783zm-59.954 24.906-23.481 7.491c9.712 31.452 18.459 54.678 26.23 69.666 7.713 14.874 17.338 27.173 28.878 36.903l22.02-15.211-53.647-98.849zm1.455-.464 53.433 98.455 62.673-43.295a85.247 85.247 0 0 0 36.269-60.675l8.704-77.902-88.018-7.912a.393.393 0 0 1-.048-.006l-8.31 56.149a24.738 24.738 0 0 1-4.51 10.992l52.372 37.55a.75.75 0 0 1-.874 1.219l-52.421-37.585a24.726 24.726 0 0 1-11.529 7.78l-47.741 15.23zm73.232-92.819 88.014 7.911 6.685-59.835h-87.014l-7.685 51.924z" fill="#F56843"/><path fill-rule="evenodd" clip-rule="evenodd" d="m562 731.396-70 36.5 19.858 36.459 60.142-40.5-10-32.459z" fill="#FFAFAF"/><path fill-rule="evenodd" clip-rule="evenodd" d="m1026 896.897-14.5-118 7.5-3.5 31-46 5.5-1.5c1.99-.476 3.49-.476 4.5 0 1.01.475 2.34 1.808 4 4v140c-1.1 2.647-2.1 4.48-3 5.5-.9 1.019-2.4 2.019-4.5 3l-30.5 16.5zM892.5 1000.9l95-35.003 4.5 13 62 16 2.5 4.5c-.56 3.303-1.23 5.643-2 7.003-.77 1.36-2.27 2.86-4.5 4.5l-129.5 30.5c-2.679.27-4.846-.07-6.5-1-1.654-.94-3.321-2.77-5-5.5l-16.5-34z" fill="#fff"/><path d="m561.295 730.774-70 36.5a.75.75 0 0 0-.312 1.024l19.858 36.458a.75.75 0 0 0 1.078.263l60.141-40.5a.748.748 0 0 0 .298-.843l-10-32.458a.75.75 0 0 0-1.063-.444zm9.466 32.812-58.997 39.729-19.099-35.064 68.525-35.731 9.571 31.066z" fill="#F56843"/><path fill-rule="evenodd" clip-rule="evenodd" d="M776.5 855.396v1.542L708 724.396l-97 41c1.808 59.195 10.094 98.529 24.858 118 14.765 19.472 40.979 25.639 78.642 18.5H769l7.5-46.5z" fill="#FFD1D1"/><path d="M777.391 855.397v1.541a.725.725 0 0 1-.34.631l-7.169 44.447a.751.751 0 0 1-.741.631h-54.429c-37.878 7.165-64.354.927-79.31-18.797-14.885-19.632-23.198-59.09-25.011-118.43a.75.75 0 0 1 .459-.714l97-41a.75.75 0 0 1 .958.346l67.524 130.654c.444-.186 1.059.066 1.059.691zm-.193 1.254.034-.204-.114-.22a.752.752 0 0 1 .08.424zm-69.404-131.293-95.887 40.529c1.836 58.763 10.09 97.801 24.691 117.056 14.563 19.208 40.492 25.308 77.904 18.217l.139-.013h53.862l7.169-44.451-67.878-131.338z" fill="#F56843"/><path fill-rule="evenodd" clip-rule="evenodd" d="m758.5 822.896 5 9.5c-15.364 12.12-27.531 20.62-36.5 25.5-8.969 4.881-18.802 9.381-29.5 13.5l-6-10.5c9.751-4.21 19.085-8.876 28-14 8.915-5.123 21.915-13.123 39-24zM788 1026.4l237-128.504-13-118.5-235 115.5" fill="#FFAFAF"/><path d="M758.081 821.775c-17.579 11.849-31.231 20.506-40.948 25.968-9.699 5.451-18.823 9.598-27.37 12.442a.749.749 0 1 0 .474 1.423c8.642-2.875 17.852-7.062 27.631-12.558 9.759-5.485 23.441-14.161 41.051-26.032a.749.749 0 1 0-.838-1.243zm5.324 10.024c-16.32 12.376-30.576 21.856-42.761 28.438-12.133 6.553-20.405 10.027-24.711 10.413a.75.75 0 1 0 .134 1.494c4.581-.41 12.975-3.936 25.289-10.588 12.261-6.622 26.578-16.143 42.956-28.562a.75.75 0 0 0-.907-1.195zm261.045 65.42a.472.472 0 0 1-.05-.203l-13-116.961L776.973 895.57a.75.75 0 0 1-.663-1.345l241.32-118.913 30.87-45.512a5.763 5.763 0 0 1 6.79-2.153c.04-.069.11-.152.21-.25.33-.333.72-.544 1.17-.633.45-.09.91-.135 1.37-.136 3.88-.006 7.03 3.137 7.04 7.019l.21 134.305c.01 5.774-2.87 11.458-8.4 12.854v.102c0 .271-.15.519-.39.649L787.999 1027.06a.755.755 0 0 1-1.017-.31.744.744 0 0 1 .302-1.01l237.166-128.521zm1.39-.756 29.56-16.016 2.11-147.358a4.25 4.25 0 0 0-7.77-2.447l-30.98 45.676a.703.703 0 0 1-.29.252l-5.78 2.85a.74.74 0 0 1 .2.431l12.95 116.612zm31-167.939a5.75 5.75 0 0 1 2.17 4.587l-2.09 146.133c4.6-1.395 6.88-6.343 6.87-11.29l-.21-134.304a5.537 5.537 0 0 0-6.62-5.415c-.04.11-.08.207-.12.289z" fill="#F56843"/><path fill-rule="evenodd" clip-rule="evenodd" d="m599 879.433 7.642 41.5 56.994 100.597c14.996 26.47 46.961 38.18 75.506 27.65l19.976-7.36a99.993 99.993 0 0 0 47.494-36.72l51.628-74.204 34.26 70.004 95-35.004-66.786-157.947a46.765 46.765 0 0 0-43.072-28.553 75.06 75.06 0 0 0-52.966 21.875l-89.534 89.162" fill="#FFD1D1"/><path fill-rule="evenodd" clip-rule="evenodd" d="M821 804.897c16 12.334 32.667 21.167 50 26.5 17.333 5.334 36.5 4.167 57.5-3.5-4.687-15.529-9.854-26.362-15.5-32.5-6.726-7.311-19.268-13.821-26.5-15.5-9.489-2.203-27.015.346-41 7-6.728 3.201-14.895 9.201-24.5 18z" fill="#FFAFAF"/><path d="m1056.26 997.785.27-.066.01.046c1.56 6.455-2.41 12.955-8.87 14.515l-124.91 30.11a12.804 12.804 0 0 1-14.236-6.29.765.765 0 0 1-.558-.41l-49.844-103.346-50.894 73.156a100.754 100.754 0 0 1-47.851 36.99l-19.976 7.36c-28.889 10.65-61.24-1.2-76.418-27.98l-56.994-100.603a.756.756 0 0 1-.085-.234l-7.641-41.5a.75.75 0 1 1 1.475-.271l7.618 41.376 56.932 100.492c14.815 26.15 46.395 37.71 74.594 27.31l19.976-7.36a99.222 99.222 0 0 0 47.139-36.44l51.627-74.207a.75.75 0 0 1 1.292.102l33.556 69.575 93.928-34.607-56.368-133.538c-33.355 16.259-70.639 8.461-111.759-23.295l-82.602 82.259a.751.751 0 0 1-1.059-1.063l89.534-89.162a75.815 75.815 0 0 1 53.496-22.093 47.484 47.484 0 0 1 43.746 29.019l66.549 157.658a.746.746 0 0 1 .305.721l4.945 11.717 58.743 14.83a5.752 5.752 0 0 1 4.33 5.229zm-.9 3.455a5.78 5.78 0 0 1-3.57 2.5l-141.706 32.06a11.29 11.29 0 0 0 12.325 5.13l124.901-30.11c4.61-1.11 7.77-5.09 8.05-9.58zm-162.234.23 15.932 33.03 142.402-32.22a4.262 4.262 0 0 0 3.21-5.087 4.267 4.267 0 0 0-3.11-3.182l-59.102-14.923a.746.746 0 0 1-.507-.435l-4.967-11.766-93.858 34.583zm36.322-170.889-9.442-22.368a45.984 45.984 0 0 0-42.364-28.102 74.313 74.313 0 0 0-52.437 21.656l-5.86 5.836c40.674 31.358 77.344 38.984 110.103 22.978z" fill="#F56843"/><path fill-rule="evenodd" clip-rule="evenodd" d="M648 714.396 460.983 833.83c-42.54 27.167-58.165 81.776-36.435 127.332l13.411 28.117c23.778 49.851 83.463 70.981 133.311 47.201a99.933 99.933 0 0 0 7.806-4.15l85.555-50.539a100.006 100.006 0 0 0 37.58-39.425l1.039-1.97a59.839 59.839 0 0 0 .753-54.384L683 843.396c-31.176 23.244-48.009 39.244-50.5 48-2.221 7.808-27.641 23.894-76.26 48.258-10.545 5.284-23.38 1.581-29.49-8.508-4.908-8.103-2.317-18.651 5.786-23.558a17.137 17.137 0 0 1 2.919-1.41l91.045-33.782" fill="#FFD1D1"/><path fill-rule="evenodd" clip-rule="evenodd" d="M422 956.397c2.5 7 13.355 28.915 17.5 36 4.36 7.455 9 14.503 15 21.503 5.942 6.93 13.936 13.78 26 20a672.24 672.24 0 0 0 13 6.5c-3.114-26.28-6.614-44.615-10.5-55.003-3.15-8.421-6.354-16.863-11-23.5-11.667-16.666-30.524-33.513-56.57-50.54-2.287 11.36-.097 26.374 6.57 45.04z" fill="#FFAFAF"/><path fill-rule="evenodd" clip-rule="evenodd" d="m636 881.897 1 13c12.032 22.774 19.429 36.523 22.192 41.247 2.907 4.97 8.676 17.221 17.308 36.753 9.673-8.379 17.34-17.045 23-26 5.66-8.955 9.16-17.955 10.5-27 1.333-12-2-25.5-10-40.5-3.99-7.482-9.824-19.982-17.5-37.5-21.758 11.521-36.925 21.021-45.5 28.5-8.575 7.478-8.908 11.311-1 11.5z" fill="#fff"/><path d="M702.972 885.885a59.089 59.089 0 0 1-.744 53.703l-1.039 1.969a99.252 99.252 0 0 1-37.298 39.13L578.03 1031.4a96.461 96.461 0 0 1-7.457 3.99c-49.397 23.76-108.702 2.98-132.462-46.421l-12.914-26.851c-21.593-44.891-6.563-98.833 35.131-126.092L645.41 715.024a.75.75 0 1 0-.82-1.255L459.507 834.77c-42.324 27.671-57.581 82.429-35.662 127.999l12.915 26.85c24.118 50.141 84.32 71.241 134.464 47.121 2.579-1.24 5.105-2.59 7.569-4.04l85.861-50.722a100.754 100.754 0 0 0 37.862-39.72l1.039-1.97a60.59 60.59 0 0 0 .763-55.066l-21.004-42.615a.75.75 0 0 0-.979-.353c-24.868 11.15-40.126 19.494-45.86 25.107-2.621 2.566-4.075 5.81-4.67 9.743-.371 2.452-.397 4.57-.246 8.359.133 3.329.123 4.35-.139 5.27-2.129 7.486-27.58 23.591-75.874 47.792-10.196 5.109-22.605 1.529-28.513-8.225-4.62-7.63-2.181-17.56 5.448-22.181a16.174 16.174 0 0 1 2.97-1.408l94.8-33.608a.75.75 0 1 0-.502-1.413l-94.799 33.607a17.627 17.627 0 0 0-3.246 1.539c-8.338 5.05-11.004 15.903-5.954 24.241 6.313 10.423 19.573 14.248 30.468 8.789 48.943-24.527 74.332-40.593 76.645-48.723.326-1.147.337-2.189.195-5.739-.148-3.699-.122-5.745.23-8.076.55-3.633 1.87-6.579 4.237-8.896 5.509-5.393 20.457-13.589 44.764-24.513l20.683 41.966z" fill="#F56843"/><path fill-rule="evenodd" clip-rule="evenodd" d="M708.142 724.296c-17.472-38.815-27.972-64.601-31.5-77.358-11.438-41.352-19.42-77.422-62.143-77.422s-77.357 34.634-77.357 77.358c0 12.17 10.5 51.191 31.5 117.064 30.971-.124 56.028-1.667 75.171-4.627 19.143-2.96 40.586-14.632 64.329-35.015z" fill="#FFD1D1" stroke="#F56843" stroke-width="1.5" stroke-linecap="round" stroke-linejoin="round"/><path fill-rule="evenodd" clip-rule="evenodd" d="M708 724.177c-17.471-38.815-27.971-64.601-31.5-77.358-11.438-41.352-19.42-77.423-62.143-77.423S537 604.031 537 646.755c0 12.17 10.5 51.191 31.5 117.064 30.972-.124 56.029-1.667 75.171-4.627 19.143-2.96 40.586-14.632 64.329-35.015z" fill="#FFD1D1"/><path clip-rule="evenodd" d="M708 724.177c-17.471-38.815-27.971-64.601-31.5-77.358-11.438-41.352-19.42-77.423-62.143-77.423S537 604.031 537 646.755c0 12.17 10.5 51.191 31.5 117.064 30.972-.124 56.029-1.667 75.171-4.627 19.143-2.96 40.586-14.632 64.329-35.015z" stroke="#F56843" stroke-width="1.5" stroke-linecap="round" stroke-linejoin="round"/><path d="M708.684 723.869c-17.455-38.779-27.946-64.543-31.461-77.25-.46-1.664-2.499-9.09-3.048-11.071-6.73-24.286-11.387-36.687-18.884-47.106-9.468-13.158-22.419-19.796-40.934-19.796-43.137 0-78.107 34.971-78.107 78.109 0 12.286 10.501 51.31 31.535 117.292.1.312.39.522.718.522 31.006-.125 56.098-1.669 75.283-4.636 19.302-2.985 40.863-14.721 64.703-35.187a.752.752 0 0 0 .195-.877zm-65.127 34.582c-18.988 2.936-43.826 4.475-74.51 4.615-20.854-65.447-31.297-104.29-31.297-116.311 0-42.31 34.298-76.609 76.607-76.609 18.033 0 30.531 6.406 39.716 19.172 7.359 10.228 11.973 22.514 18.657 46.631.548 1.978 2.586 9.404 3.047 11.07 3.527 12.751 13.959 38.388 31.309 76.954-23.477 20.074-44.659 31.56-63.529 34.478z" fill="#F56843"/><path d="M578.174 682.355s41.769 16.401 105.235-5.903c1.091-.383 2.287-1.068 3.591-2.056-3.282-6.565-5.282-11.065-6-13.5-2.925-9.913-3.196-16.208-6.5-22.5-2.136-4.066-2.883-11.004-5-17.5-1.142-3.504-3.309-9.004-6.5-16.5-3.171-6.294-5.338-10.461-6.5-12.5-1.78-3.122-1.781-6.17-4.101-5.832-12.544 1.826-26.07 9.961-40.58 24.407-33.718 33.57-33.645 71.884-33.645 71.884z" fill="#F56843"/><path fill-rule="evenodd" clip-rule="evenodd" d="M605 617.896c3.5-4 5.437-6.504 8.5-9.5 3.063-2.995 7-6.5 14-11.5 3.667 9.667 7.333 20.167 12 34.5 7 21.5-4.084 24.891-17.5 10.5-8.944-9.593-14.278-17.26-17-24zm39.66-1.242c2.494.174 3.852 10.995 4.614 12.853a2.026 2.026 0 0 1-3.64 1.764c-2.922-5.187-4.372-8.3-4.351-9.34.055-2.628.883-5.452 3.377-5.277z" fill="#fff"/><path d="M630.642 870.396c33.689 0 61-27.31 61-61 0-33.689-27.311-61-61-61-33.69 0-61 27.311-61 61 0 33.69 27.31 61 61 61zm-51.769-193.164c-5.273-23.4 2.472-45.647 23.303-66.809 20.836-21.166 35.556-31.42 43.908-30.778.413.032-.116.165-.084-.248.032-.413-.087-.468-.5-.5-.239-.018.217-.776-.03-.779-9.052-.097-23.761 10.325-44.363 31.253-21.169 21.505-29.09 44.258-23.697 68.191a.75.75 0 1 0 1.463-.33z" fill="#F56843"/><path fill-rule="evenodd" clip-rule="evenodd" d="m591.142 856.897 22.5-57.536 56.431-16.357a4 4 0 0 1 4.184 6.404l-32.115 38.489-2.642 42.5-48.358-13.5z" fill="#fff"/><path fill-rule="evenodd" clip-rule="evenodd" d="M613.516 799.396c-7.676 8.385-12.556 13.897-14.641 16.537-10.947 13.856-10.544 19.093-5.359 22.463 10 6.5 20.359 19.537 27.359 7.537 4.666-8 2.213-23.512-7.359-46.537z" fill="#FFD1D1"/><path d="M613.088 798.854a.75.75 0 0 1 1.246.219c9.658 23.231 12.14 38.927 7.314 47.202-2.753 4.719-6.258 6.138-10.554 4.771-3.103-.988-5.452-2.593-11.692-7.499a152.981 152.981 0 0 0-3.308-2.55 56.332 56.332 0 0 0-2.861-2.008c-6.286-4.085-5.139-10.498 5.179-23.557 2.1-2.659 6.987-8.179 14.676-16.578zm7.264 46.665c4.435-7.603 2.159-22.565-6.953-44.782-7.206 7.883-11.813 13.097-13.81 15.625-9.845 12.46-10.824 17.934-5.539 21.37a56.834 56.834 0 0 1 2.939 2.061c.953.71 1.836 1.393 3.34 2.575 6.07 4.772 8.364 6.339 11.22 7.248 3.616 1.151 6.399.024 8.803-4.097zm23.532-19.55a.75.75 0 0 1 1.232.855c-2.905 4.184-5.579 6.323-8.116 6.323a.75.75 0 0 1 0-1.5c1.907 0 4.234-1.862 6.884-5.678z" fill="#F56843"/><path d="M575.5 691.396a7.5 7.5 0 1 0 0-15 7.5 7.5 0 0 0 0 15z" fill="#fff"/><path d="M575.142 692.146a8.25 8.25 0 1 0 0-16.5 8.25 8.25 0 0 0-8.25 8.25 8.25 8.25 0 0 0 8.25 8.25zm0-1.5a6.75 6.75 0 1 1 0-13.5 6.75 6.75 0 0 1 0 13.5z" fill="#F56843"/><path d="M575.142 688.146c2.602 0 4.75-1.878 4.75-4.25 0-2.371-2.148-4.25-4.75-4.25-2.603 0-4.75 1.879-4.75 4.25 0 2.372 2.147 4.25 4.75 4.25zm0-1.5c-1.816 0-3.25-1.255-3.25-2.75 0-1.494 1.434-2.75 3.25-2.75 1.815 0 3.25 1.256 3.25 2.75 0 1.495-1.435 2.75-3.25 2.75z" fill="#F56843"/><path fill-rule="evenodd" clip-rule="evenodd" d="m639.5 866.896-2.858 28-42.5 25-33.642 17.5-16.5-22c13.796-.799 21.629-2.966 23.5-6.5 5.537-10.459 13.37-27.626 23.5-51.5l48.5 9.5z" fill="#fff"/><path d="M639.644 865.661a.748.748 0 0 1 .602.812l-2.858 28a.75.75 0 0 1-.366.57l-42.534 25.019-33.642 17.5a.751.751 0 0 1-.946-.215l-16.5-22a.75.75 0 0 1 .557-1.199c13.517-.783 21.188-2.905 22.88-6.102 5.525-10.437 13.351-27.587 23.473-51.442a.747.747 0 0 1 .834-.443l48.5 9.5zm-48.191-7.912c-10.023 23.601-17.784 40.597-23.29 50.998-1.981 3.742-9.517 5.933-22.729 6.812l15.284 20.379 33.043-17.188 42.173-24.807 2.751-26.942-47.232-9.252zm44.808 36.001-.365.57.038-.377.327-.193z" fill="#F56843"/><path fill-rule="evenodd" clip-rule="evenodd" d="M457 662.396a9 9 0 1 1 0-18 9 9 0 0 1 0 18zm88 22.5 2.358 9c-.565.192-1.125.4-1.679.624-15.811 6.4-23.44 24.405-17.041 40.215l4.72 11.661-9 5-5.324-17.333c-5.743-18.697 3.251-38.756 21.032-46.905l4.934-2.262z" fill="#fff"/><path d="M477.742 695.507a.753.753 0 0 0-.073-.45l-17-33.5a.75.75 0 0 0-1.338.679l16.892 33.287-1.965 13.264a.751.751 0 0 0 .452.802l13.713 5.739 22.416 41.656a.75.75 0 0 0 1.321-.711l-22.542-41.89a.747.747 0 0 0-.371-.337l-13.42-5.616 1.915-12.923z" fill="#F56843"/><path d="M456.642 663.146a9.75 9.75 0 0 1-9.75-9.75c0-5.384 4.365-9.75 9.75-9.75 5.384 0 9.75 4.366 9.75 9.75 0 5.385-4.366 9.75-9.75 9.75zm0-1.5a8.25 8.25 0 1 0 0-16.5 8.25 8.25 0 0 0-8.25 8.25 8.25 8.25 0 0 0 8.25 8.25zm87.687 22.569a.75.75 0 0 1 1.038.491l2.359 9a.751.751 0 0 1-.485.901c-.552.187-1.099.39-1.639.608-15.427 6.245-22.871 23.812-16.627 39.239l4.72 11.661a.75.75 0 0 1-.331.937l-9 5a.75.75 0 0 1-1.081-.435l-5.324-17.334c-5.854-19.056 3.313-39.501 21.436-47.807l4.934-2.261zm-4.309 3.625c-17.439 7.993-26.26 27.666-20.627 46.003l5.052 16.448 7.611-4.228-4.471-11.046c-6.555-16.195 1.259-34.637 17.454-41.192.351-.142.704-.278 1.06-.407l-1.957-7.468-4.122 1.89zm-64.339 268.888c13.098 17.855 21.441 46.382 25.066 85.602l-1.494.14c-3.655-39.54-12.118-68.087-25.352-85.622-10.817-14.333-22.432-26.138-34.392-35.656-8.777-6.986-16.99-12.164-24.185-15.774l.673-1.34c7.284 3.655 15.585 8.888 24.447 15.94 11.936 9.5 23.526 21.254 34.329 35.496l50.37-27.277a.75.75 0 0 1 .714 1.319l-50.176 27.172zm71.552-14.18a.751.751 0 0 1 1.317-.719l44.608 81.711a.74.74 0 0 1-.298 1.01c-.364.2-.82.07-1.018-.29l-44.609-81.712zm-16.367-34.482a.75.75 0 1 1-1.346.661l-44.193-90a.75.75 0 1 1 1.346-.661l44.193 90z" fill="#F56843"/><path d="m569 764.396 22.142 45m45.75 85.25 39.608 77.903" stroke="#F56843" stroke-width="1.5" stroke-linecap="round" stroke-linejoin="round"/><path d="M1262.3 538.175c.4-.113.81.119.92.518a.751.751 0 0 1-.52.925l-63.64 17.928c-15.55 4.38-24.6 20.536-20.22 36.085a29.194 29.194 0 0 0 5.04 9.993l9.33 12.035c9.05 11.668 6.92 28.461-4.75 37.509a26.73 26.73 0 0 1-18.41 5.529l-32.09-2.444a51.24 51.24 0 0 0-42.82 17.774l-15.57 18.183a.752.752 0 0 1-1.06.082.753.753 0 0 1-.08-1.057l15.57-18.183a52.736 52.736 0 0 1 44.07-18.294l32.1 2.444a25.202 25.202 0 0 0 17.37-5.22c11.02-8.54 13.02-24.39 4.48-35.404l-9.33-12.035a30.975 30.975 0 0 1-5.3-10.505c-4.6-16.347 4.92-33.331 21.26-37.936l63.65-17.927zM1152 755.396v-13c0-.552.45-1 1-1s1 .448 1 1v13h13a1.001 1.001 0 0 1 0 2h-13v13a1.001 1.001 0 0 1-2 0v-13h-13a1.001 1.001 0 0 1 0-2h13zm-468-320v-13a1 1 0 0 1 2 0v13h13a1 1 0 0 1 0 2h-13v13a1 1 0 1 1-2 0v-13h-13a1 1 0 1 1 0-2h13zm424 58v-13c0-.552.45-1 1-1s1 .448 1 1v13h13a1.001 1.001 0 0 1 0 2h-13v13a1.001 1.001 0 0 1-2 0v-13h-13a1.001 1.001 0 0 1 0-2h13zm-729 262v-10a1 1 0 0 1 2 0v10h10a1 1 0 0 1 0 2h-10v10a1 1 0 1 1-2 0v-10h-10a1 1 0 1 1 0-2h10zm613.5-145v-9.5a1 1 0 0 1 2 0v9.5h9.5a1.001 1.001 0 0 1 0 2h-9.5v9.5a1 1 0 1 1-2 0v-9.5H983a1 1 0 1 1 0-2h9.5zm-254-29.5v-9.5a1 1 0 0 1 2 0v9.5h9.5a1 1 0 0 1 0 2h-9.5v9.5a1 1 0 1 1-2 0v-9.5H729a1 1 0 1 1 0-2h9.5z" fill="#F56843"/><path fill-rule="evenodd" clip-rule="evenodd" d="M640.168 798.878c-4.858-3.482-8.832-4.352-11.923-2.611-4.636 2.611-10.598 7.834-7.286 14.363 3.312 6.528 5.961 11.751 9.273 11.751 3.312 0 9.273.653 12.585-6.529 2.208-4.787 1.325-10.445-2.649-16.974z" fill="#FFD1D1"/><path fill-rule="evenodd" clip-rule="evenodd" d="M639.896 801.881c-.342 3.541-1.522 5.823-3.537 6.845-1.763.895-4.521 1.415-8.273 1.563a3 3 0 0 1-2.714-4.501c2.063-3.565 3.892-5.752 5.487-6.562 1.673-.849 3.857-1.046 6.55-.592a2.998 2.998 0 0 1 2.487 3.247z" fill="#fff"/><path d="M638.653 803.067c-.504.791-1.503 1.33-2.653 1.33-1.657 0-3-1.119-3-2.5 0-1.347 1.28-2.446 2.882-2.498-2.063-.221-3.741.007-5.043.667-1.43.726-3.181 2.82-5.177 6.269a2.248 2.248 0 0 0 2.036 3.375c3.654-.143 6.316-.646 7.963-1.481 1.55-.787 2.558-2.485 2.992-5.162zm-1.41-3.446c.249.08.478.202.679.357a3.152 3.152 0 0 0-.679-.357zm3.042 2.503c-.366 3.772-1.664 6.285-3.946 7.442-1.878.953-4.731 1.492-8.582 1.643a3.75 3.75 0 0 1-3.393-5.625c2.13-3.682 4.038-5.963 5.797-6.855 1.833-.931 4.175-1.143 7.014-.664a3.751 3.751 0 0 1 3.11 4.059z" fill="#F56843"/><path fill-rule="evenodd" clip-rule="evenodd" d="M671.5 782.656c-2.34-.585-4.808-.182-7.405 1.207a1 1 0 0 0-.195 1.626c.991.889 2.191 1.393 3.6 1.514 1.867.159 4.033.159 6.5 0 1-2.231.167-3.68-2.5-4.347z" fill="#FFD1D1"/><path d="M672.182 781.824c-2.532-.633-5.188-.2-7.941 1.272a1.75 1.75 0 0 0-.342 2.847c1.114.998 2.468 1.568 4.037 1.702 1.907.163 4.11.163 6.612.001a.75.75 0 0 0 .636-.442c1.202-2.681.095-4.606-3.002-5.38zm-4.118 4.326c-1.25-.107-2.296-.547-3.164-1.324a.25.25 0 0 1 .049-.407c2.44-1.306 4.72-1.677 6.869-1.14 2.057.514 2.695 1.378 2.163 2.899-2.237.127-4.21.118-5.917-.028z" fill="#F56843"/><path fill-rule="evenodd" clip-rule="evenodd" d="m1293 493.396-10 2.5 25.5 25 3-10" fill="#fff"/><path d="M909.5 1002.4a7.503 7.503 0 0 0 0-15.004 7.503 7.503 0 0 0 0 15.004z" fill="#fff"/><path d="M909.142 1003.15c4.556 0 8.25-3.697 8.25-8.254a8.25 8.25 0 0 0-16.5 0c0 4.557 3.693 8.254 8.25 8.254zm0-1.5a6.753 6.753 0 0 1-6.75-6.754 6.75 6.75 0 0 1 13.5 0 6.753 6.753 0 0 1-6.75 6.754z" fill="#F56843"/><path d="M1022.5 883.396a7.5 7.5 0 0 0 0-15 7.5 7.5 0 0 0 0 15z" fill="#fff"/><path d="M1022.5 884.146c4.56 0 8.25-3.693 8.25-8.25 0-4.556-3.69-8.25-8.25-8.25a8.248 8.248 0 0 0-8.25 8.25c0 4.557 3.69 8.25 8.25 8.25zm0-1.5a6.749 6.749 0 0 1-6.75-6.75 6.75 6.75 0 0 1 6.75-6.75 6.75 6.75 0 0 1 6.75 6.75c0 3.728-3.02 6.75-6.75 6.75zm-113.358 116.5c2.602 0 4.75-1.878 4.75-4.25 0-2.371-2.148-4.25-4.75-4.25-2.603 0-4.75 1.879-4.75 4.25 0 2.372 2.147 4.25 4.75 4.25zm0-1.5c-1.816 0-3.25-1.255-3.25-2.75 0-1.494 1.434-2.75 3.25-2.75 1.815 0 3.25 1.256 3.25 2.75 0 1.495-1.435 2.75-3.25 2.75z" fill="#F56843"/><path d="M1022.5 880.146c2.6 0 4.75-1.878 4.75-4.25 0-2.371-2.15-4.25-4.75-4.25s-4.75 1.879-4.75 4.25c0 2.372 2.15 4.25 4.75 4.25zm0-1.5c-1.82 0-3.25-1.255-3.25-2.75 0-1.494 1.43-2.75 3.25-2.75s3.25 1.256 3.25 2.75c0 1.495-1.43 2.75-3.25 2.75zM582.136 684.45c7.855 7.172 25.009 10.368 51.525 9.696 26.462-.67 45.253-4.696 56.397-12.125a.75.75 0 1 0-.832-1.248c-10.857 7.237-29.399 11.21-55.603 11.874-26.151.662-42.997-2.476-50.476-9.304a.749.749 0 1 0-1.011 1.107z" fill="#F56843"/><path fill-rule="evenodd" clip-rule="evenodd" d="M1446.27 346.496c-24.83 8.544-50.15 23.702-75.94 45.473-26.61 22.457-55.31 53.286-86.1 92.488l34.61 33.417c38.33-32.567 68.14-62.324 89.42-89.271 20.65-26.135 35.02-51.849 43.14-77.142a3.967 3.967 0 0 0-1.02-4.055 4.035 4.035 0 0 0-4.11-.91z" fill="#FFD1D1"/><path fill-rule="evenodd" clip-rule="evenodd" d="m1407 365.397 26.5 24.5c14.33-26 20-40.334 17-43-3-2.667-17.5 3.5-43.5 18.5z" fill="#FFAFAF"/><path fill-rule="evenodd" clip-rule="evenodd" d="m1304.26 517.292-15.76 19.105 1.5-14.5-12.5 3 5-11H1268l18.17-14.344-4.65-4.559 11.3-2.825.36 1.455-8.7 2.175 23.66 23.193 2.64-8.811 1.44.431-3.36 11.189-4.6-4.509z" fill="#F56843"/><path d="M1369.83 391.06c-26.65 22.493-55.38 53.359-86.2 92.598a.744.744 0 0 0 .07 1.003l34.6 33.417c.28.268.71.281 1.01.032 38.37-32.597 68.21-62.388 89.53-89.378 20.69-26.202 35.11-51.994 43.26-77.377a4.728 4.728 0 0 0-1.22-4.825 4.764 4.764 0 0 0-4.86-1.08c-24.94 8.578-50.33 23.783-76.19 45.61zm-84.6 92.992c30.6-38.911 59.13-69.527 85.57-91.845 25.72-21.715 50.96-36.826 75.7-45.338 1.17-.4 2.46-.114 3.34.74.88.849 1.2 2.124.83 3.287-8.09 25.202-22.42 50.838-43.01 76.906-21.15 26.783-50.76 56.359-88.81 88.724l-33.62-32.474z" fill="#F56843"/><path fill-rule="evenodd" clip-rule="evenodd" d="m1335.69 431.396-4.46 7.942-46.49 44.817-34.79 2.069-2.95-2.85 88.69-51.978zm35.1 33.606-50.42 89.585-2.91-2.901 1.47-34.822 44-47.263 7.86-4.599z" fill="#fff"/><path d="M1334.82 431.106c.66-.387 1.41.348 1.04 1.015l-4.46 7.941-.14.173-46.48 44.817a.763.763 0 0 1-.48.209l-34.79 2.069a.763.763 0 0 1-.57-.209l-2.95-2.85a.748.748 0 0 1 .14-1.187l88.69-51.978zm-87.08 52.773 2.01 1.934 34.18-2.033 46.21-44.549 3.05-5.43-85.45 50.078zm82.48-44.724-.13.173.05-.097.08-.076zm39.7 25.557c.66-.387 1.41.348 1.03 1.015l-50.42 89.585a.745.745 0 0 1-1.18.162l-2.9-2.9a.743.743 0 0 1-.22-.562l1.46-34.823a.774.774 0 0 1 .2-.48l44-47.262.17-.136 7.86-4.599zm-7.01 5.838-43.73 46.979-1.44 34.217 1.97 1.969 48.58-86.31-5.38 3.145z" fill="#F56843"/><path d="M1392 423.396c8.28 0 15-6.715 15-15 0-8.284-6.72-15-15-15-8.28 0-15 6.716-15 15 0 8.285 6.72 15 15 15z" fill="#fff"/><path d="M1392.2 423.797c8.7 0 15.75-7.052 15.75-15.75 0-8.699-7.05-15.75-15.75-15.75s-15.75 7.051-15.75 15.75c0 8.698 7.05 15.75 15.75 15.75zm0-1.5c-7.87 0-14.25-6.38-14.25-14.25s6.38-14.25 14.25-14.25 14.25 6.38 14.25 14.25-6.38 14.25-14.25 14.25z" fill="#F56843"/><path d="M1392 416.147a7.75 7.75 0 1 1 0-15.5 7.75 7.75 0 0 1 0 15.5zm0-1.5a6.251 6.251 0 0 0 0-12.5 6.251 6.251 0 0 0 0 12.5zm14.49-49.202 1.02-1.095 26.73 25-1.02 1.095-26.73-25zM882.6 683.263c-20.675 13.017-34.917 25.415-42.726 37.221-7.801 11.794-14.828 31.703-21.106 59.75l1.464.327c6.242-27.883 13.215-47.641 20.893-59.25 7.672-11.598 21.763-23.866 42.275-36.779l-.8-1.269z" fill="#F56843"/><path fill-rule="evenodd" clip-rule="evenodd" d="M592.891 852.945c8.061 2.867 15.519 5.046 22.374 6.536 6.707 1.458 14.588 2.718 23.642 3.779a3.501 3.501 0 0 1 2.99 4.324l-.098.393a4 4 0 0 1-4.445 2.992c-8.418-1.197-16.281-2.526-23.589-3.988-7.414-1.483-14.897-4.043-22.45-7.68a3.852 3.852 0 0 1-2.065-4.404 2.79 2.79 0 0 1 3.641-1.952z" fill="#fff"/><path d="M622.523 862.295a189.04 189.04 0 0 1-7.281-1.425 97.573 97.573 0 0 1-8.731-2.352l-1.081 4.682a99.366 99.366 0 0 0 8.924 2.233c2.321.464 4.699.915 7.133 1.353l1.036-4.491zm1.48.256-1.038 4.497c4.754.837 9.719 1.623 14.896 2.359a2.5 2.5 0 0 0 2.778-1.87l.098-.393a2.002 2.002 0 0 0-1.709-2.472c-5.424-.635-10.433-1.342-15.025-2.121zm-18.924-4.498c-3.9-1.293-7.989-2.871-12.268-4.735a1.846 1.846 0 0 0-2.53 1.246l-.157.632a2.5 2.5 0 0 0 1.43 2.898c4.238 1.839 8.385 3.394 12.439 4.666l1.086-4.707zm-11.669-6.111c8.084 3.522 15.467 6.009 22.15 7.462 6.708 1.458 14.588 2.718 23.643 3.778a3.501 3.501 0 0 1 2.989 4.325l-.098.393a4 4 0 0 1-4.444 2.992c-8.418-1.197-16.281-2.526-23.59-3.988-7.386-1.477-15.087-3.955-23.103-7.434a4 4 0 0 1-2.289-4.637l.158-.632a3.347 3.347 0 0 1 4.584-2.259z" fill="#F56843"/><path fill-rule="evenodd" clip-rule="evenodd" d="m504 770.896 7-3 7 14.5-7 4.5-7-16zm23.5 5.5c-1.867 0-3.745-.308-5-1.5-1.343-1.275-2-3.501-2-5.5 0-1.599.597-3.821 1.5-5 1.279-1.669 3.234-2 5.5-2 2.018 0 3.723.135 5 1.5 1.17 1.252 2 3.652 2 5.5 0 2.308-.777 4.725-2.5 6-1.163.861-2.942 1-4.5 1z" fill="#FFD1D1"/><path d="m503.51 770.505 8.354-3.58 7.6 15.743-8.298 5.335-7.656-17.498zm8.325 15.285 5.701-3.665-6.4-13.257-5.646 2.42 6.345 14.502zM528 777.146c-2.394 0-4.227-.482-5.516-1.706-1.429-1.356-2.234-3.697-2.234-6.044 0-1.837.682-4.186 1.655-5.456 1.312-1.713 3.169-2.294 6.095-2.294 2.786 0 4.258.359 5.548 1.738 1.282 1.371 2.202 3.94 2.202 6.012 0 2.736-.98 5.254-2.804 6.603-1.166.863-2.731 1.147-4.946 1.147zm0-1.5c1.913 0 3.223-.237 4.054-.852 1.392-1.03 2.196-3.096 2.196-5.398 0-1.707-.788-3.908-1.798-4.987-.924-.988-2.048-1.263-4.452-1.263-2.505 0-3.941.449-4.905 1.707-.756.987-1.345 3.016-1.345 4.543 0 1.967.67 3.915 1.766 4.957.952.903 2.438 1.293 4.484 1.293z" fill="#F56843"/><path d="M896 560.396h-87a3 3 0 0 0 0 6h87a3 3 0 1 0 0-6z" fill="#fff"/><path d="M809 560.396h87a3 3 0 0 1 0 6h-87a3 3 0 1 1 0-6zm0 1.5a1.5 1.5 0 0 0 0 3h87a1.5 1.5 0 1 0 0-3h-87z" fill="#F56843"/><path d="m678.253 971.135-39.497-77.518a2.25 2.25 0 0 0-4.009 2.043l39.497 77.518a2.25 2.25 0 0 0 4.009-2.043z" fill="#fff" stroke="#F56843" stroke-width="1.5"/><path fill-rule="evenodd" clip-rule="evenodd" d="M654.117 771.705c-2.849 2.414-16.201-7.837-19.057-9.046a3.018 3.018 0 0 1 2.013-5.679c8.772 2.532 13.717 4.369 14.835 5.509 2.834 2.892 5.058 6.801 2.209 9.216zm67.21 68.168 29.867-18.918a1 1 0 0 1 1.38.309l.021.035 11.429 19.774a1 1 0 0 1-.324 1.34l-29.335 18.926a1 1 0 0 1-1.382-.298l-.016-.025-11.96-19.781a1 1 0 0 1 .32-1.362z" fill="#fff"/><path d="m719.922 840.176 31.378-19.607a1 1 0 0 1 1.378.318l12.718 20.353a1 1 0 0 1-.318 1.378L733.7 862.225a1 1 0 0 1-1.378-.318l-12.718-20.353a1 1 0 0 1 .318-1.378zm1.219 1.007 12.188 19.505 30.53-19.077-12.188-19.505-30.53 19.077z" fill="#F56843"/><path d="m727.48 840.482 20.353-12.718a1 1 0 0 1 1.378.318l8.479 13.569c.292.468.15 1.085-.318 1.378l-20.354 12.718a1.001 1.001 0 0 1-1.378-.318l-8.478-13.569a1 1 0 0 1 .318-1.378zm9.168 13.728 19.505-12.189-7.949-12.72-19.505 12.188 7.949 12.721z" fill="#F56843"/></svg>