<svg width="1840" height="1380" viewBox="0 0 1840 1380" fill="none" xmlns="http://www.w3.org/2000/svg">
<path fill-rule="evenodd" clip-rule="evenodd" d="M885.643 570.512C885.889 566.998 886.947 534.209 888.818 472.146C889.286 456.612 878.526 442.988 863.306 439.844C862.286 439.633 861.775 439.528 861.775 439.528C843.406 438.243 827.056 451.099 823.971 469.253L808.22 561.928" fill="white"/>
<path d="M861.953 440.241L863.434 440.547C878.297 443.617 888.805 456.922 888.348 472.092C886.478 534.113 885.419 566.93 885.174 570.428C885.145 570.841 885.457 571.199 885.87 571.228C886.283 571.257 886.642 570.946 886.671 570.532C886.918 567.002 887.975 534.243 889.847 472.137C890.326 456.239 879.314 442.295 863.737 439.078L862.206 438.762L862.107 438.748C843.353 437.436 826.66 450.561 823.511 469.096L807.76 561.771C807.691 562.18 807.966 562.567 808.374 562.636C808.783 562.706 809.17 562.431 809.239 562.023L824.989 469.347C828.007 451.589 843.988 439.01 861.953 440.241Z" fill="#F56843"/>
<path fill-rule="evenodd" clip-rule="evenodd" d="M897.858 562.355L905.905 499.794C906.68 493.771 902.425 488.261 896.402 487.486C895.937 487.426 895.469 487.396 895 487.396C887.544 487.396 880.933 492.191 878.618 499.279L858 562.396L897.858 562.355Z" fill="white"/>
<path d="M898.505 562.647C898.882 562.647 899.2 562.366 899.248 561.993L907.295 499.432C908.122 492.998 903.578 487.112 897.144 486.284C896.647 486.221 896.147 486.188 895.646 486.188C887.865 486.188 880.967 491.192 878.551 498.588L857.933 561.706C857.774 562.191 858.136 562.688 858.646 562.688L898.505 562.647ZM897.844 561.148L859.68 561.187L879.977 499.053C882.191 492.275 888.514 487.688 895.646 487.688C896.083 487.688 896.519 487.716 896.953 487.772C902.565 488.494 906.529 493.629 905.807 499.241L897.844 561.148Z" fill="#F56843"/>
<path fill-rule="evenodd" clip-rule="evenodd" d="M699.5 715.896L775.872 691.002C784.528 688.18 790.843 680.703 792.176 671.697L808.5 561.396H897L881.341 701.544C878.583 726.23 865.285 748.518 844.871 762.671L758 822.896L699.5 715.896Z" fill="#FFD1D1"/>
<path fill-rule="evenodd" clip-rule="evenodd" d="M883 688.896C865.333 698.563 852.5 709.563 844.5 721.896C836.5 734.23 829.667 752.73 824 777.396C828.893 773.828 833.06 770.828 836.5 768.396C850.586 758.442 861.413 749.387 868 738.896C877 724.563 882 707.896 883 688.896Z" fill="#FFAFAF"/>
<path d="M786.871 682.489C786.877 682.479 786.884 682.469 786.891 682.46C786.91 682.433 786.931 682.408 786.953 682.384C789.362 679.282 790.993 675.563 791.591 671.526L807.9 561.329C807.954 560.961 808.27 560.688 808.642 560.688H897.142C897.589 560.688 897.937 561.077 897.887 561.522L891.086 622.388C891.203 622.533 891.265 622.722 891.247 622.922C891.228 623.134 891.123 623.318 890.969 623.441L882.238 701.583C879.45 726.535 865.988 749.055 845.331 763.325L758.926 823.014C758.649 823.205 758.279 823.189 758.02 822.973C746.129 813.055 736.233 800.476 728.334 785.242C720.455 770.046 711.608 746.509 701.783 714.618C701.662 714.225 701.88 713.807 702.272 713.682L775.657 690.272C780.178 688.83 784.049 686.079 786.871 682.489ZM726.917 707.395L703.436 714.886C713.148 746.338 721.895 769.564 729.666 784.552C737.379 799.426 747.004 811.725 758.544 821.455L780.564 806.244L726.917 707.395ZM728.372 706.931L781.805 805.386L844.478 762.091C864.779 748.068 878.007 725.937 880.747 701.416L889.451 623.514L801.433 615.602C801.417 615.601 801.401 615.599 801.385 615.596L793.075 671.745C792.474 675.8 790.895 679.553 788.565 682.737L840.937 720.287C841.274 720.529 841.351 720.997 841.11 721.334C840.868 721.671 840.4 721.748 840.063 721.506L787.642 683.921C784.678 687.496 780.711 690.234 776.113 691.701L728.372 706.931ZM801.604 614.112L889.618 622.023L896.303 562.188H809.289L801.604 614.112Z" fill="#F56843"/>
<path fill-rule="evenodd" clip-rule="evenodd" d="M562 731.396C562 731.396 538.667 743.563 492 767.896L511.858 804.355L572 763.855C565.333 742.216 562 731.396 562 731.396Z" fill="#FFAFAF"/>
<path fill-rule="evenodd" clip-rule="evenodd" d="M1026 896.897L1011.5 778.897L1019 775.397L1050 729.397L1055.5 727.897C1057.49 727.421 1058.99 727.421 1060 727.897C1061.01 728.372 1062.34 729.705 1064 731.897V871.897C1062.9 874.544 1061.9 876.377 1061 877.397C1060.1 878.416 1058.6 879.416 1056.5 880.397L1026 896.897ZM892.5 1000.9L987.5 965.897L992 978.897L1054 994.897L1056.5 999.397C1055.94 1002.7 1055.27 1005.04 1054.5 1006.4C1053.73 1007.76 1052.23 1009.26 1050 1010.9L920.5 1041.4C917.821 1041.67 915.654 1041.33 914 1040.4C912.346 1039.46 910.679 1037.63 909 1034.9L892.5 1000.9Z" fill="white"/>
<path d="M561.295 730.774L491.295 767.274C490.923 767.468 490.782 767.929 490.983 768.298L510.841 804.756C511.053 805.144 511.552 805.266 511.919 805.019L572.06 764.519C572.335 764.335 572.456 763.992 572.358 763.676L562.358 731.218C562.22 730.77 561.71 730.557 561.295 730.774ZM570.761 763.586L511.764 803.315L492.665 768.251L561.19 732.52L570.761 763.586Z" fill="#F56843"/>
<path fill-rule="evenodd" clip-rule="evenodd" d="M776.5 855.396V856.938L708 724.396L611 765.396C612.808 824.591 621.094 863.925 635.858 883.396C650.623 902.868 676.837 909.035 714.5 901.896H769L776.5 855.396Z" fill="#FFD1D1"/>
<path d="M777.391 855.397V856.938C777.391 857.227 777.249 857.444 777.051 857.569L769.882 902.016C769.823 902.379 769.51 902.647 769.141 902.647H714.712C676.834 909.812 650.358 903.574 635.402 883.85C620.517 864.218 612.204 824.76 610.391 765.42C610.382 765.11 610.564 764.826 610.85 764.706L707.85 723.706C708.21 723.553 708.628 723.704 708.808 724.052L776.332 854.706C776.776 854.52 777.391 854.772 777.391 855.397ZM777.198 856.651L777.232 856.447L777.118 856.227C777.186 856.358 777.213 856.505 777.198 856.651ZM707.794 725.358L611.907 765.887C613.743 824.65 621.997 863.688 636.598 882.943C651.161 902.151 677.09 908.251 714.502 901.16L714.641 901.147H768.503L775.672 856.696L707.794 725.358Z" fill="#F56843"/>
<path fill-rule="evenodd" clip-rule="evenodd" d="M758.5 822.896L763.5 832.396C748.136 844.516 735.969 853.016 727 857.896C718.031 862.777 708.198 867.277 697.5 871.396L691.5 860.896C701.251 856.686 710.585 852.02 719.5 846.896C728.415 841.773 741.415 833.773 758.5 822.896Z" fill="#FFAFAF"/>
<path fill-rule="evenodd" clip-rule="evenodd" d="M788 1026.4L1025 897.896L1012 779.396L777 894.896" fill="#FFAFAF"/>
<path d="M758.081 821.775C740.502 833.624 726.85 842.281 717.133 847.743C707.434 853.194 698.31 857.341 689.763 860.185C689.37 860.316 689.158 860.74 689.289 861.133C689.419 861.526 689.844 861.739 690.237 861.608C698.879 858.733 708.089 854.546 717.868 849.05C727.627 843.565 741.309 834.889 758.919 823.018C759.263 822.787 759.354 822.321 759.122 821.977C758.891 821.634 758.424 821.543 758.081 821.775Z" fill="#F56843"/>
<path d="M763.405 831.799C747.085 844.175 732.829 853.655 720.644 860.237C708.511 866.79 700.239 870.264 695.933 870.65C695.521 870.686 695.216 871.051 695.253 871.463C695.29 871.876 695.654 872.18 696.067 872.144C700.648 871.734 709.042 868.208 721.356 861.556C733.617 854.934 747.934 845.413 764.312 832.994C764.642 832.744 764.706 832.273 764.456 831.943C764.206 831.613 763.735 831.549 763.405 831.799Z" fill="#F56843"/>
<path d="M1024.45 897.219C1024.42 897.156 1024.4 897.088 1024.4 897.016L1011.4 780.055L776.973 895.57C776.602 895.753 776.152 895.6 775.969 895.229C775.786 894.857 775.939 894.408 776.31 894.225L1017.63 775.312L1048.5 729.8C1049.59 728.199 1051.41 727.251 1053.34 727.278C1054.03 727.288 1054.69 727.418 1055.29 727.647C1055.33 727.578 1055.4 727.495 1055.5 727.397C1055.83 727.064 1056.22 726.853 1056.67 726.764C1057.12 726.674 1057.58 726.629 1058.04 726.628C1061.92 726.622 1065.07 729.765 1065.08 733.647L1065.29 867.952C1065.3 873.726 1062.42 879.41 1056.89 880.806L1056.89 880.908C1056.89 881.179 1056.74 881.427 1056.5 881.557L787.999 1027.06C787.635 1027.25 787.18 1027.12 786.982 1026.75C786.785 1026.39 786.92 1025.94 787.284 1025.74L1024.45 897.219ZM1025.84 896.463L1055.4 880.447L1057.51 733.089C1057.54 730.742 1055.67 728.812 1053.32 728.779C1051.89 728.758 1050.55 729.459 1049.74 730.642L1018.76 776.318C1018.69 776.426 1018.59 776.513 1018.47 776.57L1012.69 779.42C1012.8 779.534 1012.87 779.683 1012.89 779.851L1025.84 896.463ZM1056.84 728.524C1058.18 729.596 1059.04 731.257 1059.01 733.111L1056.92 879.244C1061.52 877.849 1063.8 872.901 1063.79 867.954L1063.58 733.65C1063.57 730.595 1061.09 728.123 1058.04 728.128C1057.68 728.129 1057.32 728.164 1056.96 728.235C1056.92 728.345 1056.88 728.442 1056.84 728.524Z" fill="#F56843"/>
<path fill-rule="evenodd" clip-rule="evenodd" d="M599 879.433L606.642 920.933L663.636 1021.53C678.632 1048 710.597 1059.71 739.142 1049.18L759.118 1041.82C778.336 1034.73 794.915 1021.92 806.612 1005.1L858.24 930.896L892.5 1000.9L987.5 965.896L920.714 807.949C913.397 790.643 896.431 779.396 877.642 779.396C857.788 779.396 838.743 787.262 824.676 801.271L735.142 890.433" fill="#FFD1D1"/>
<path fill-rule="evenodd" clip-rule="evenodd" d="M821 804.897C837 817.231 853.667 826.064 871 831.397C888.333 836.731 907.5 835.564 928.5 827.897C923.813 812.368 918.646 801.535 913 795.397C906.274 788.086 893.732 781.576 886.5 779.897C877.011 777.694 859.485 780.243 845.5 786.897C838.772 790.098 830.605 796.098 821 804.897Z" fill="#FFAFAF"/>
<path d="M1056.26 997.785L1056.53 997.719L1056.54 997.765C1058.1 1004.22 1054.13 1010.72 1047.67 1012.28L922.76 1042.39C917.124 1043.75 911.297 1041.16 908.524 1036.1C908.287 1036.06 908.075 1035.91 907.966 1035.69L858.122 932.344L807.228 1005.5C795.443 1022.44 778.739 1035.35 759.377 1042.49L739.401 1049.85C710.512 1060.5 678.161 1048.65 662.983 1021.87L605.989 921.267C605.948 921.194 605.919 921.115 605.904 921.033L598.263 879.533C598.188 879.126 598.457 878.735 598.864 878.66C599.272 878.585 599.663 878.854 599.738 879.262L607.356 920.638L664.288 1021.13C679.103 1047.28 710.683 1058.84 738.882 1048.44L758.858 1041.08C777.932 1034.05 794.387 1021.33 805.997 1004.64L857.624 930.433C857.952 929.962 858.666 930.018 858.916 930.535L892.472 1000.11L986.4 965.503L930.032 831.965V831.965C896.677 848.224 859.393 840.426 818.273 808.67L735.671 890.929C735.377 891.221 734.903 891.22 734.61 890.927C734.318 890.633 734.319 890.158 734.612 889.866L824.146 800.704C838.355 786.555 857.59 778.611 877.642 778.611C896.731 778.611 913.965 790.043 921.388 807.63L987.937 965.288C988.055 965.372 988.15 965.492 988.204 965.638C988.249 965.761 988.26 965.888 988.242 966.009L993.187 977.726L1051.93 992.556C1054.03 993.086 1055.65 994.751 1056.13 996.862C1056.2 997.171 1056.24 997.479 1056.26 997.785ZM1055.36 1001.24C1054.57 1002.46 1053.32 1003.39 1051.79 1003.74L910.084 1035.8C912.618 1039.99 917.592 1042.1 922.409 1040.93L1047.31 1010.82C1051.92 1009.71 1055.08 1005.73 1055.36 1001.24ZM893.126 1001.47L909.058 1034.5L1051.46 1002.28C1053.75 1001.76 1055.18 999.483 1054.67 997.193C1054.31 995.632 1053.11 994.402 1051.56 994.011L992.458 979.088C992.23 979.031 992.042 978.87 991.951 978.653L986.984 966.887L893.126 1001.47ZM929.448 830.581L920.006 808.213C912.817 791.182 896.128 780.111 877.642 780.111C857.987 780.111 839.132 787.898 825.205 801.767L819.345 807.603C860.019 838.961 896.689 846.587 929.448 830.581V830.581Z" fill="#F56843"/>
<path fill-rule="evenodd" clip-rule="evenodd" d="M648 714.396L460.983 833.83C418.443 860.997 402.818 915.606 424.548 961.162L437.959 989.279C461.737 1039.13 521.422 1060.26 571.27 1036.48C573.932 1035.21 576.537 1033.83 579.076 1032.33L664.631 981.791C680.564 972.38 693.573 958.731 702.211 942.366L703.25 940.396C712.201 923.436 712.481 903.214 704.003 886.012L683 843.396C651.824 866.64 634.991 882.64 632.5 891.396C630.279 899.204 604.859 915.29 556.24 939.654C545.695 944.938 532.86 941.235 526.75 931.146C521.842 923.043 524.433 912.495 532.536 907.588C533.463 907.027 534.44 906.554 535.455 906.178L626.5 872.396" fill="#FFD1D1"/>
<path fill-rule="evenodd" clip-rule="evenodd" d="M422 956.397C424.5 963.397 435.355 985.312 439.5 992.397C443.86 999.852 448.5 1006.9 454.5 1013.9C460.442 1020.83 468.436 1027.68 480.5 1033.9C484.536 1035.98 488.87 1038.14 493.5 1040.4C490.386 1014.12 486.886 995.785 483 985.397C479.85 976.976 476.646 968.534 472 961.897C460.333 945.231 441.476 928.384 415.43 911.357C413.143 922.717 415.333 937.731 422 956.397Z" fill="#FFAFAF"/>
<path fill-rule="evenodd" clip-rule="evenodd" d="M636 881.897L637 894.897C649.032 917.671 656.429 931.42 659.192 936.144C662.099 941.114 667.868 953.365 676.5 972.897C686.173 964.518 693.84 955.852 699.5 946.897C705.16 937.942 708.66 928.942 710 919.897C711.333 907.897 708 894.397 700 879.397C696.01 871.915 690.176 859.415 682.5 841.897C660.742 853.418 645.575 862.918 637 870.397C628.425 877.875 628.092 881.708 636 881.897Z" fill="white"/>
<path d="M702.972 885.885C711.344 902.871 711.067 922.841 702.228 939.588L701.189 941.557C692.616 957.8 679.705 971.346 663.891 980.687L578.03 1031.4C575.602 1032.84 573.114 1034.17 570.573 1035.39C521.176 1059.15 461.871 1038.37 438.111 988.969L425.197 962.118C403.604 917.227 418.634 863.285 460.328 836.026L645.41 715.024C645.757 714.798 645.854 714.333 645.628 713.986C645.401 713.639 644.936 713.542 644.59 713.769L459.507 834.77C417.183 862.441 401.926 917.199 423.845 962.769L436.76 989.619C460.878 1039.76 521.08 1060.86 571.224 1036.74C573.803 1035.5 576.329 1034.15 578.793 1032.7L664.654 981.978C680.707 972.496 693.813 958.746 702.516 942.258L703.555 940.288C712.618 923.116 712.902 902.639 704.318 885.222L683.314 842.607C683.136 842.245 682.703 842.089 682.335 842.254C657.467 853.404 642.209 861.748 636.475 867.361C633.854 869.927 632.4 873.171 631.805 877.104C631.434 879.556 631.408 881.674 631.559 885.463C631.692 888.792 631.682 889.813 631.42 890.733C629.291 898.219 603.84 914.324 555.546 938.525C545.35 943.634 532.941 940.054 527.033 930.3C522.413 922.67 524.852 912.74 532.481 908.119C533.421 907.55 534.416 907.078 535.451 906.711L630.251 873.103C630.641 872.965 630.845 872.536 630.707 872.146C630.569 871.756 630.14 871.551 629.749 871.69L534.95 905.297C533.818 905.698 532.731 906.214 531.704 906.836C523.366 911.886 520.7 922.739 525.75 931.077C532.063 941.5 545.323 945.325 556.218 939.866C605.161 915.339 630.55 899.273 632.863 891.143C633.189 889.996 633.2 888.954 633.058 885.404C632.91 881.705 632.936 879.659 633.288 877.328C633.838 873.695 635.158 870.749 637.525 868.432C643.034 863.039 657.982 854.843 682.289 843.919L702.972 885.885Z" fill="#F56843"/>
<path fill-rule="evenodd" clip-rule="evenodd" d="M708.142 724.296C690.67 685.481 680.17 659.695 676.642 646.938C665.204 605.586 657.222 569.516 614.499 569.516C571.776 569.516 537.142 604.15 537.142 646.874C537.142 659.044 547.642 698.065 568.642 763.938C599.613 763.814 624.67 762.271 643.813 759.311C662.956 756.351 684.399 744.679 708.142 724.296Z" fill="#FFD1D1" stroke="#F56843" stroke-width="1.5" stroke-linecap="round" stroke-linejoin="round"/>
<path fill-rule="evenodd" clip-rule="evenodd" d="M708 724.177C690.529 685.362 680.029 659.576 676.5 646.819C665.062 605.467 657.08 569.396 614.357 569.396C571.634 569.396 537 604.031 537 646.755C537 658.925 547.5 697.946 568.5 763.819C599.472 763.695 624.529 762.152 643.671 759.192C662.814 756.232 684.257 744.56 708 724.177Z" fill="#FFD1D1"/>
<path fill-rule="evenodd" clip-rule="evenodd" d="M708 724.177C690.529 685.362 680.029 659.576 676.5 646.819C665.062 605.467 657.08 569.396 614.357 569.396C571.634 569.396 537 604.031 537 646.755C537 658.925 547.5 697.946 568.5 763.819C599.472 763.695 624.529 762.152 643.671 759.192C662.814 756.232 684.257 744.56 708 724.177Z" stroke="#F56843" stroke-width="1.5" stroke-linecap="round" stroke-linejoin="round"/>
<path d="M708.684 723.869C691.229 685.09 680.738 659.326 677.223 646.619C676.763 644.955 674.724 637.529 674.175 635.548C667.445 611.262 662.788 598.861 655.291 588.442C645.823 575.284 632.872 568.646 614.357 568.646C571.22 568.646 536.25 603.617 536.25 646.755C536.25 659.041 546.751 698.065 567.785 764.047C567.885 764.359 568.175 764.569 568.503 764.569C599.509 764.444 624.601 762.9 643.786 759.933C663.088 756.948 684.649 745.212 708.489 724.746C708.741 724.529 708.82 724.172 708.684 723.869ZM643.557 758.451C624.569 761.387 599.731 762.926 569.047 763.066C548.193 697.619 537.75 658.776 537.75 646.755C537.75 604.445 572.048 570.146 614.357 570.146C632.39 570.146 644.888 576.552 654.073 589.318C661.432 599.546 666.046 611.832 672.73 635.949C673.278 637.927 675.316 645.353 675.777 647.019C679.304 659.77 689.736 685.407 707.086 723.973C683.609 744.047 662.427 755.533 643.557 758.451Z" fill="#F56843"/>
<path d="M578.174 682.355C578.174 682.355 619.943 698.756 683.409 676.452C684.5 676.069 685.696 675.384 687 674.396C683.718 667.831 681.718 663.331 681 660.896C678.075 650.983 677.804 644.688 674.5 638.396C672.364 634.33 671.617 627.392 669.5 620.896C668.358 617.392 666.191 611.892 663 604.396C659.829 598.102 657.662 593.935 656.5 591.896C654.72 588.774 654.719 585.726 652.399 586.064C639.855 587.89 626.329 596.025 611.819 610.471C578.101 644.041 578.174 682.355 578.174 682.355Z" fill="#F56843"/>
<path fill-rule="evenodd" clip-rule="evenodd" d="M605 617.896C608.5 613.896 610.437 611.392 613.5 608.396C616.563 605.401 620.5 601.896 627.5 596.896C631.167 606.563 634.833 617.063 639.5 631.396C646.5 652.896 635.416 656.287 622 641.896C613.056 632.303 607.722 624.636 605 617.896ZM644.66 616.654C647.154 616.828 648.512 627.649 649.274 629.507C649.699 630.543 649.204 631.726 648.169 632.151C647.223 632.539 646.136 632.161 645.634 631.271C642.712 626.084 641.262 622.971 641.283 621.931C641.338 619.303 642.166 616.479 644.66 616.654Z" fill="white"/>
<path d="M630.642 870.396C664.331 870.396 691.642 843.086 691.642 809.396C691.642 775.707 664.331 748.396 630.642 748.396C596.952 748.396 569.642 775.707 569.642 809.396C569.642 843.086 596.952 870.396 630.642 870.396Z" fill="#F56843"/>
<path d="M578.873 677.232C573.6 653.832 581.345 631.585 602.176 610.423C623.012 589.257 637.732 579.003 646.084 579.645C646.497 579.677 645.968 579.81 646 579.397C646.032 578.984 645.913 578.929 645.5 578.897C645.261 578.879 645.717 578.121 645.47 578.118C636.418 578.021 621.709 588.443 601.107 609.371C579.938 630.876 572.017 653.629 577.41 677.562C577.501 677.966 577.902 678.22 578.307 678.129C578.711 678.038 578.964 677.636 578.873 677.232Z" fill="#F56843"/>
<path fill-rule="evenodd" clip-rule="evenodd" d="M591.142 856.897L613.642 799.361L670.073 783.004C672.194 782.389 674.413 783.61 675.028 785.732C675.398 787.01 675.11 788.387 674.257 789.408L642.142 827.897L639.5 870.397L591.142 856.897Z" fill="white"/>
<path fill-rule="evenodd" clip-rule="evenodd" d="M613.516 799.396C605.84 807.781 600.96 813.293 598.875 815.933C587.928 829.789 588.331 835.026 593.516 838.396C603.516 844.896 613.875 857.933 620.875 845.933C625.541 837.933 623.088 822.421 613.516 799.396Z" fill="#FFD1D1"/>
<path d="M613.088 798.854C613.459 798.45 614.124 798.566 614.334 799.073C623.992 822.304 626.474 838 621.648 846.275C618.895 850.994 615.39 852.413 611.094 851.046C607.991 850.058 605.642 848.453 599.402 843.547C597.908 842.373 597.033 841.696 596.094 840.997C595.057 840.226 594.122 839.568 593.233 838.989C586.947 834.904 588.094 828.491 598.412 815.432C600.512 812.773 605.399 807.253 613.088 798.854ZM620.352 845.519C624.787 837.916 622.511 822.954 613.399 800.737C606.193 808.62 601.586 813.834 599.589 816.362C589.744 828.822 588.765 834.296 594.05 837.732C594.969 838.329 595.929 839.005 596.989 839.793C597.942 840.503 598.825 841.186 600.329 842.368C606.399 847.14 608.693 848.707 611.549 849.616C615.165 850.767 617.948 849.64 620.352 845.519ZM643.884 825.969C644.12 825.629 644.588 825.544 644.928 825.781C645.268 826.017 645.352 826.484 645.116 826.824C642.211 831.008 639.537 833.147 637 833.147C636.586 833.147 636.25 832.811 636.25 832.397C636.25 831.982 636.586 831.647 637 831.647C638.907 831.647 641.234 829.785 643.884 825.969Z" fill="#F56843"/>
<path d="M575.5 691.396C579.642 691.396 583 688.039 583 683.896C583 679.754 579.642 676.396 575.5 676.396C571.358 676.396 568 679.754 568 683.896C568 688.039 571.358 691.396 575.5 691.396Z" fill="white"/>
<path d="M575.142 692.146C579.698 692.146 583.392 688.453 583.392 683.896C583.392 679.34 579.698 675.646 575.142 675.646C570.585 675.646 566.892 679.34 566.892 683.896C566.892 688.453 570.585 692.146 575.142 692.146ZM575.142 690.646C571.414 690.646 568.392 687.624 568.392 683.896C568.392 680.169 571.414 677.146 575.142 677.146C578.87 677.146 581.892 680.169 581.892 683.896C581.892 687.624 578.87 690.646 575.142 690.646Z" fill="#F56843"/>
<path d="M575.142 688.146C577.744 688.146 579.892 686.268 579.892 683.896C579.892 681.525 577.744 679.646 575.142 679.646C572.539 679.646 570.392 681.525 570.392 683.896C570.392 686.268 572.539 688.146 575.142 688.146ZM575.142 686.646C573.326 686.646 571.892 685.391 571.892 683.896C571.892 682.402 573.326 681.146 575.142 681.146C576.957 681.146 578.392 682.402 578.392 683.896C578.392 685.391 576.957 686.646 575.142 686.646Z" fill="#F56843"/>
<path fill-rule="evenodd" clip-rule="evenodd" d="M639.5 866.896L636.642 894.896L594.142 919.896L560.5 937.396L544 915.396C557.796 914.597 565.629 912.43 567.5 908.896C573.037 898.437 580.87 881.27 591 857.396L639.5 866.896Z" fill="white"/>
<path d="M639.644 865.661C640.025 865.735 640.286 866.087 640.246 866.473L637.388 894.473C637.364 894.71 637.228 894.922 637.022 895.043L594.488 920.062L560.846 937.562C560.521 937.731 560.12 937.64 559.9 937.347L543.4 915.347C543.041 914.868 543.36 914.182 543.957 914.148C557.474 913.365 565.145 911.243 566.837 908.046C572.362 897.609 580.188 880.459 590.31 856.604C590.448 856.277 590.796 856.092 591.144 856.161L639.644 865.661ZM591.453 857.749C581.43 881.35 573.669 898.346 568.163 908.747C566.182 912.489 558.646 914.68 545.434 915.559L560.718 935.938L593.761 918.75L635.934 893.943L638.685 867.001L591.453 857.749ZM636.261 893.75L635.896 894.32L635.934 893.943L636.261 893.75Z" fill="#F56843"/>
<path fill-rule="evenodd" clip-rule="evenodd" d="M457 662.396C452.029 662.396 448 658.367 448 653.396C448 648.426 452.029 644.396 457 644.396C461.971 644.396 466 648.426 466 653.396C466 658.367 461.971 662.396 457 662.396ZM545 684.896L547.358 693.896C546.793 694.088 546.233 694.296 545.679 694.52C529.868 700.92 522.239 718.925 528.638 734.735L533.358 746.396L524.358 751.396L519.034 734.063C513.291 715.366 522.285 695.307 540.066 687.158L545 684.896Z" fill="white"/>
<path d="M477.742 695.507C477.765 695.353 477.739 695.196 477.669 695.057L460.669 661.557C460.481 661.188 460.03 661.04 459.661 661.228C459.291 661.415 459.144 661.867 459.331 662.236L476.223 695.523L474.258 708.787C474.208 709.126 474.394 709.456 474.71 709.589L488.423 715.328L510.839 756.984C511.036 757.349 511.491 757.485 511.855 757.289C512.22 757.093 512.357 756.638 512.16 756.273L489.618 714.383C489.537 714.231 489.406 714.113 489.247 714.046L475.827 708.43L477.742 695.507Z" fill="#F56843"/>
<path d="M456.642 663.146C451.257 663.146 446.892 658.781 446.892 653.396C446.892 648.012 451.257 643.646 456.642 643.646C462.026 643.646 466.392 648.012 466.392 653.396C466.392 658.781 462.026 663.146 456.642 663.146ZM456.642 661.646C461.198 661.646 464.892 657.953 464.892 653.396C464.892 648.84 461.198 645.146 456.642 645.146C452.085 645.146 448.392 648.84 448.392 653.396C448.392 657.953 452.085 661.646 456.642 661.646ZM544.329 684.215C544.753 684.021 545.249 684.256 545.367 684.706L547.726 693.706C547.825 694.087 547.614 694.481 547.241 694.607C546.689 694.794 546.142 694.997 545.602 695.215C530.175 701.46 522.731 719.027 528.975 734.454L533.695 746.115C533.837 746.466 533.695 746.868 533.364 747.052L524.364 752.052C523.947 752.284 523.423 752.073 523.283 751.617L517.959 734.283C512.105 715.227 521.272 694.782 539.395 686.476L544.329 684.215ZM540.02 687.84C522.581 695.833 513.76 715.506 519.393 733.843L524.445 750.291L532.056 746.063L527.585 735.017C521.03 718.822 528.844 700.38 545.039 693.825C545.39 693.683 545.743 693.547 546.099 693.418L544.142 685.95L540.02 687.84Z" fill="#F56843"/>
<path d="M475.681 956.728C488.779 974.583 497.122 1003.11 500.747 1042.33L499.253 1042.47C495.598 1002.93 487.135 974.383 473.901 956.848C463.084 942.515 451.469 930.71 439.509 921.192C430.732 914.206 422.519 909.028 415.324 905.418L415.997 904.078C423.281 907.733 431.582 912.966 440.444 920.018C452.38 929.518 463.97 941.272 474.773 955.514L525.143 928.237C525.507 928.04 525.962 928.175 526.16 928.54C526.357 928.904 526.222 929.359 525.857 929.556L475.681 956.728ZM547.233 942.548C547.035 942.184 547.169 941.728 547.532 941.53C547.896 941.331 548.351 941.465 548.55 941.829L593.158 1023.54C593.357 1023.9 593.223 1024.36 592.86 1024.55C592.496 1024.75 592.04 1024.62 591.842 1024.26L547.233 942.548ZM530.866 908.066C531.049 908.438 530.895 908.887 530.523 909.07C530.152 909.252 529.702 909.099 529.52 908.727L485.327 818.727C485.144 818.355 485.298 817.906 485.67 817.723C486.041 817.541 486.491 817.694 486.673 818.066L530.866 908.066Z" fill="#F56843"/>
<path d="M569 764.396L591.142 809.396" stroke="#F56843" stroke-width="1.5" stroke-linecap="round" stroke-linejoin="round"/>
<path d="M636.892 894.646L676.5 972.549" stroke="#F56843" stroke-width="1.5" stroke-linecap="round" stroke-linejoin="round"/>
<path d="M1262.3 538.175C1262.7 538.062 1263.11 538.294 1263.22 538.693C1263.33 539.092 1263.1 539.506 1262.7 539.618L1199.06 557.546C1183.51 561.926 1174.46 578.082 1178.84 593.631C1179.86 597.255 1181.57 600.648 1183.88 603.624L1193.21 615.659C1202.26 627.327 1200.13 644.12 1188.46 653.168C1183.22 657.23 1176.66 659.201 1170.05 658.697L1137.96 656.253C1121.67 655.013 1105.76 661.615 1095.14 674.027L1079.57 692.21C1079.3 692.525 1078.83 692.562 1078.51 692.292C1078.2 692.023 1078.16 691.55 1078.43 691.235L1094 673.052C1104.93 660.276 1121.31 653.481 1138.07 654.758L1170.17 657.202C1176.41 657.677 1182.6 655.817 1187.54 651.982C1198.56 643.442 1200.56 627.592 1192.02 616.578L1182.69 604.543C1180.27 601.415 1178.47 597.848 1177.39 594.038C1172.79 577.691 1182.31 560.707 1198.65 556.102L1262.3 538.175ZM1152 755.396V742.396C1152 741.844 1152.45 741.396 1153 741.396C1153.55 741.396 1154 741.844 1154 742.396V755.396H1167C1167.55 755.396 1168 755.844 1168 756.396C1168 756.949 1167.55 757.396 1167 757.396H1154V770.396C1154 770.949 1153.55 771.396 1153 771.396C1152.45 771.396 1152 770.949 1152 770.396V757.396H1139C1138.45 757.396 1138 756.949 1138 756.396C1138 755.844 1138.45 755.396 1139 755.396H1152ZM684 435.396V422.396C684 421.844 684.448 421.396 685 421.396C685.552 421.396 686 421.844 686 422.396V435.396H699C699.552 435.396 700 435.844 700 436.396C700 436.949 699.552 437.396 699 437.396H686V450.396C686 450.949 685.552 451.396 685 451.396C684.448 451.396 684 450.949 684 450.396V437.396H671C670.448 437.396 670 436.949 670 436.396C670 435.844 670.448 435.396 671 435.396H684ZM1108 493.396V480.396C1108 479.844 1108.45 479.396 1109 479.396C1109.55 479.396 1110 479.844 1110 480.396V493.396H1123C1123.55 493.396 1124 493.844 1124 494.396C1124 494.949 1123.55 495.396 1123 495.396H1110V508.396C1110 508.949 1109.55 509.396 1109 509.396C1108.45 509.396 1108 508.949 1108 508.396V495.396H1095C1094.45 495.396 1094 494.949 1094 494.396C1094 493.844 1094.45 493.396 1095 493.396H1108ZM379 755.396V745.396C379 744.844 379.448 744.396 380 744.396C380.552 744.396 381 744.844 381 745.396V755.396H391C391.552 755.396 392 755.844 392 756.396C392 756.949 391.552 757.396 391 757.396H381V767.396C381 767.949 380.552 768.396 380 768.396C379.448 768.396 379 767.949 379 767.396V757.396H369C368.448 757.396 368 756.949 368 756.396C368 755.844 368.448 755.396 369 755.396H379ZM992.5 610.396V600.896C992.5 600.344 992.948 599.896 993.5 599.896C994.052 599.896 994.5 600.344 994.5 600.896V610.396H1004C1004.55 610.396 1005 610.844 1005 611.396C1005 611.949 1004.55 612.396 1004 612.396H994.5V621.896C994.5 622.449 994.052 622.896 993.5 622.896C992.948 622.896 992.5 622.449 992.5 621.896V612.396H983C982.448 612.396 982 611.949 982 611.396C982 610.844 982.448 610.396 983 610.396H992.5ZM738.5 580.896V571.396C738.5 570.844 738.948 570.396 739.5 570.396C740.052 570.396 740.5 570.844 740.5 571.396V580.896H750C750.552 580.896 751 581.344 751 581.896C751 582.449 750.552 582.896 750 582.896H740.5V592.396C740.5 592.949 740.052 593.396 739.5 593.396C738.948 593.396 738.5 592.949 738.5 592.396V582.896H729C728.448 582.896 728 582.449 728 581.896C728 581.344 728.448 580.896 729 580.896H738.5Z" fill="#F56843"/>
<path fill-rule="evenodd" clip-rule="evenodd" d="M640.168 798.878C635.31 795.396 631.336 794.526 628.245 796.267C623.609 798.878 617.647 804.101 620.959 810.63C624.271 817.158 626.92 822.381 630.232 822.381C633.544 822.381 639.505 823.034 642.817 815.852C645.025 811.065 644.142 805.407 640.168 798.878Z" fill="#FFD1D1"/>
<path fill-rule="evenodd" clip-rule="evenodd" d="M639.896 801.881C639.554 805.422 638.374 807.704 636.359 808.726C634.596 809.621 631.838 810.141 628.086 810.289C626.43 810.354 625.036 809.064 624.971 807.409C624.948 806.841 625.087 806.28 625.372 805.788C627.435 802.223 629.264 800.036 630.859 799.226C632.532 798.377 634.716 798.18 637.409 798.634C638.962 798.895 640.048 800.313 639.896 801.881Z" fill="white"/>
<path d="M638.653 803.067C638.149 803.858 637.15 804.397 636 804.397C634.343 804.397 633 803.278 633 801.897C633 800.55 634.28 799.451 635.882 799.399C633.819 799.178 632.141 799.406 630.839 800.066C629.409 800.792 627.658 802.886 625.662 806.335C625.449 806.703 625.345 807.125 625.362 807.55C625.41 808.792 626.456 809.759 627.698 809.71C631.352 809.567 634.014 809.064 635.661 808.229C637.211 807.442 638.219 805.744 638.653 803.067ZM637.243 799.621C637.492 799.701 637.721 799.823 637.922 799.978C637.717 799.835 637.489 799.715 637.243 799.621ZM640.285 802.124C639.919 805.896 638.621 808.409 636.339 809.566C634.461 810.519 631.608 811.058 627.757 811.209C625.687 811.29 623.944 809.678 623.863 807.609C623.835 806.9 624.009 806.198 624.364 805.584C626.494 801.902 628.402 799.621 630.161 798.729C631.994 797.798 634.336 797.586 637.175 798.065C639.116 798.392 640.474 800.165 640.285 802.124Z" fill="#F56843"/>
<path fill-rule="evenodd" clip-rule="evenodd" d="M671.5 782.656C669.16 782.071 666.692 782.474 664.095 783.863L664.095 783.863C663.608 784.124 663.425 784.73 663.685 785.216C663.74 785.319 663.813 785.412 663.9 785.489C664.891 786.378 666.091 786.882 667.5 787.003C669.367 787.162 671.533 787.162 674 787.003C675 784.772 674.167 783.323 671.5 782.656Z" fill="#FFD1D1"/>
<path d="M672.182 781.824C669.65 781.191 666.994 781.624 664.241 783.096C663.389 783.552 663.068 784.613 663.524 785.465C663.62 785.645 663.747 785.806 663.899 785.943C665.013 786.941 666.367 787.511 667.936 787.645C669.843 787.808 672.046 787.808 674.548 787.646C674.826 787.628 675.07 787.458 675.184 787.204C676.386 784.523 675.279 782.598 672.182 781.824ZM668.064 786.15C666.814 786.043 665.768 785.603 664.9 784.826C664.878 784.806 664.86 784.783 664.846 784.757C664.781 784.636 664.827 784.484 664.949 784.419C667.389 783.113 669.669 782.742 671.818 783.279C673.875 783.793 674.513 784.657 673.981 786.178C671.744 786.305 669.771 786.296 668.064 786.15Z" fill="#F56843"/>
<path fill-rule="evenodd" clip-rule="evenodd" d="M1293 493.396L1283 495.896L1308.5 520.896L1311.5 510.896" fill="white"/>
<path d="M909.5 1002.4C913.642 1002.4 917 999.039 917 994.896C917 990.754 913.642 987.396 909.5 987.396C905.358 987.396 902 990.754 902 994.896C902 999.039 905.358 1002.4 909.5 1002.4Z" fill="white"/>
<path d="M909.142 1003.15C913.698 1003.15 917.392 999.453 917.392 994.896C917.392 990.34 913.698 986.646 909.142 986.646C904.585 986.646 900.892 990.34 900.892 994.896C900.892 999.453 904.585 1003.15 909.142 1003.15ZM909.142 1001.65C905.414 1001.65 902.392 998.624 902.392 994.896C902.392 991.169 905.414 988.146 909.142 988.146C912.87 988.146 915.892 991.169 915.892 994.896C915.892 998.624 912.87 1001.65 909.142 1001.65Z" fill="#F56843"/>
<path d="M1022.5 883.396C1026.64 883.396 1030 880.039 1030 875.896C1030 871.754 1026.64 868.396 1022.5 868.396C1018.36 868.396 1015 871.754 1015 875.896C1015 880.039 1018.36 883.396 1022.5 883.396Z" fill="white"/>
<path d="M1022.5 884.146C1027.06 884.146 1030.75 880.453 1030.75 875.896C1030.75 871.34 1027.06 867.646 1022.5 867.646C1017.94 867.646 1014.25 871.34 1014.25 875.896C1014.25 880.453 1017.94 884.146 1022.5 884.146ZM1022.5 882.646C1018.77 882.646 1015.75 879.624 1015.75 875.896C1015.75 872.169 1018.77 869.146 1022.5 869.146C1026.23 869.146 1029.25 872.169 1029.25 875.896C1029.25 879.624 1026.23 882.646 1022.5 882.646Z" fill="#F56843"/>
<path d="M909.142 999.146C911.744 999.146 913.892 997.268 913.892 994.896C913.892 992.525 911.744 990.646 909.142 990.646C906.539 990.646 904.392 992.525 904.392 994.896C904.392 997.268 906.539 999.146 909.142 999.146ZM909.142 997.646C907.326 997.646 905.892 996.391 905.892 994.896C905.892 993.402 907.326 992.146 909.142 992.146C910.957 992.146 912.392 993.402 912.392 994.896C912.392 996.391 910.957 997.646 909.142 997.646Z" fill="#F56843"/>
<path d="M1022.5 880.146C1025.1 880.146 1027.25 878.268 1027.25 875.896C1027.25 873.525 1025.1 871.646 1022.5 871.646C1019.9 871.646 1017.75 873.525 1017.75 875.896C1017.75 878.268 1019.9 880.146 1022.5 880.146ZM1022.5 878.646C1020.68 878.646 1019.25 877.391 1019.25 875.896C1019.25 874.402 1020.68 873.146 1022.5 873.146C1024.32 873.146 1025.75 874.402 1025.75 875.896C1025.75 877.391 1024.32 878.646 1022.5 878.646Z" fill="#F56843"/>
<path d="M582.136 684.45C589.991 691.622 607.145 694.818 633.661 694.146C660.123 693.476 678.914 689.45 690.058 682.021C690.402 681.791 690.495 681.325 690.266 680.981C690.036 680.636 689.57 680.543 689.226 680.773C678.369 688.01 659.827 691.983 633.623 692.647C607.472 693.309 590.626 690.171 583.147 683.343C582.841 683.063 582.367 683.085 582.088 683.391C581.808 683.697 581.83 684.171 582.136 684.45Z" fill="#F56843"/>
<path fill-rule="evenodd" clip-rule="evenodd" d="M1446.27 346.496C1421.44 355.04 1396.12 370.198 1370.33 391.969C1343.72 414.426 1315.02 445.255 1284.23 484.457L1318.84 517.874C1357.17 485.307 1386.98 455.55 1408.26 428.603C1428.91 402.468 1443.28 376.754 1451.4 351.461C1451.86 350.026 1451.46 348.453 1450.38 347.406C1449.29 346.355 1447.7 346.004 1446.27 346.496Z" fill="#FFD1D1"/>
<path fill-rule="evenodd" clip-rule="evenodd" d="M1407 365.397L1433.5 389.897C1447.83 363.897 1453.5 349.563 1450.5 346.897C1447.5 344.23 1433 350.397 1407 365.397Z" fill="#FFAFAF"/>
<path fill-rule="evenodd" clip-rule="evenodd" d="M1304.26 517.292L1288.5 536.397L1290 521.897L1277.5 524.897L1282.5 513.897H1268L1286.17 499.553L1281.52 494.994L1292.82 492.169L1293.18 493.624L1284.48 495.799L1308.14 518.992L1310.78 510.181L1312.22 510.612L1308.86 521.801L1304.26 517.292Z" fill="#F56843"/>
<path d="M1369.83 391.06C1343.18 413.553 1314.45 444.419 1283.63 483.658C1283.39 483.96 1283.42 484.394 1283.7 484.661L1318.3 518.078C1318.58 518.346 1319.01 518.359 1319.31 518.11C1357.68 485.513 1387.52 455.722 1408.84 428.732C1429.53 402.53 1443.95 376.738 1452.1 351.355C1452.64 349.647 1452.17 347.776 1450.88 346.53C1449.59 345.284 1447.71 344.867 1446.02 345.45C1421.08 354.028 1395.69 369.233 1369.83 391.06ZM1285.23 484.052C1315.83 445.141 1344.36 414.525 1370.8 392.207C1396.52 370.492 1421.76 355.381 1446.5 346.869C1447.67 346.469 1448.96 346.755 1449.84 347.609C1450.72 348.458 1451.04 349.733 1450.67 350.896C1442.58 376.098 1428.25 401.734 1407.66 427.802C1386.51 454.585 1356.9 484.161 1318.85 516.526L1285.23 484.052Z" fill="#F56843"/>
<path fill-rule="evenodd" clip-rule="evenodd" d="M1335.69 431.396L1331.23 439.338L1284.74 484.155L1249.95 486.224L1247 483.374L1335.69 431.396ZM1370.79 465.002L1320.37 554.587L1317.46 551.686L1318.93 516.864L1362.93 469.601L1370.79 465.002Z" fill="white"/>
<path d="M1334.82 431.106C1335.48 430.719 1336.23 431.454 1335.86 432.121L1331.4 440.062L1331.26 440.235L1284.78 485.052C1284.65 485.176 1284.48 485.25 1284.3 485.261L1249.51 487.33C1249.3 487.342 1249.09 487.266 1248.94 487.121L1245.99 484.271C1245.63 483.926 1245.7 483.335 1246.13 483.084L1334.82 431.106ZM1247.74 483.879L1249.75 485.813L1283.93 483.78L1330.14 439.231L1333.19 433.801L1247.74 483.879ZM1330.22 439.155L1330.09 439.328L1330.14 439.231L1330.22 439.155ZM1369.92 464.712C1370.58 464.325 1371.33 465.06 1370.95 465.727L1320.53 555.312C1320.29 555.745 1319.7 555.826 1319.35 555.474L1316.45 552.574C1316.3 552.425 1316.22 552.221 1316.23 552.012L1317.69 517.189C1317.7 517.01 1317.77 516.84 1317.89 516.709L1361.89 469.447L1362.06 469.311L1369.92 464.712ZM1362.91 470.55L1319.18 517.529L1317.74 551.746L1319.71 553.715L1368.29 467.405L1362.91 470.55Z" fill="#F56843"/>
<path d="M1392 423.396C1400.28 423.396 1407 416.681 1407 408.396C1407 400.112 1400.28 393.396 1392 393.396C1383.72 393.396 1377 400.112 1377 408.396C1377 416.681 1383.72 423.396 1392 423.396Z" fill="white"/>
<path d="M1392.2 423.797C1400.9 423.797 1407.95 416.745 1407.95 408.047C1407.95 399.348 1400.9 392.297 1392.2 392.297C1383.5 392.297 1376.45 399.348 1376.45 408.047C1376.45 416.745 1383.5 423.797 1392.2 423.797ZM1392.2 422.297C1384.33 422.297 1377.95 415.917 1377.95 408.047C1377.95 400.177 1384.33 393.797 1392.2 393.797C1400.07 393.797 1406.45 400.177 1406.45 408.047C1406.45 415.917 1400.07 422.297 1392.2 422.297Z" fill="#F56843"/>
<path d="M1392 416.147C1387.72 416.147 1384.25 412.678 1384.25 408.397C1384.25 404.117 1387.72 400.647 1392 400.647C1396.28 400.647 1399.75 404.117 1399.75 408.397C1399.75 412.678 1396.28 416.147 1392 416.147ZM1392 414.647C1395.45 414.647 1398.25 411.849 1398.25 408.397C1398.25 404.946 1395.45 402.147 1392 402.147C1388.55 402.147 1385.75 404.946 1385.75 408.397C1385.75 411.849 1388.55 414.647 1392 414.647ZM1406.49 365.445L1407.51 364.35L1434.24 389.35L1433.22 390.445L1406.49 365.445Z" fill="#F56843"/>
<path d="M882.6 683.263C861.925 696.28 847.683 708.678 839.874 720.484C832.073 732.278 825.046 752.187 818.768 780.234L820.232 780.561C826.474 752.678 833.447 732.92 841.125 721.311C848.797 709.713 862.888 697.445 883.4 684.532L882.6 683.263Z" fill="#F56843"/>
<path fill-rule="evenodd" clip-rule="evenodd" d="M592.891 852.945C600.952 855.812 608.41 857.991 615.265 859.481C621.972 860.939 629.853 862.199 638.907 863.26C640.827 863.485 642.202 865.224 641.977 867.144C641.959 867.292 641.933 867.439 641.897 867.584L641.799 867.977C641.303 869.966 639.384 871.258 637.354 870.969C628.936 869.772 621.073 868.443 613.765 866.981C606.351 865.498 598.868 862.938 591.315 859.301C589.67 858.508 588.807 856.669 589.25 854.897C589.624 853.402 591.138 852.494 592.633 852.867C592.72 852.889 592.806 852.915 592.891 852.945Z" fill="white"/>
<path d="M622.523 862.295C619.961 861.843 617.534 861.368 615.242 860.87C612.448 860.262 609.538 859.478 606.511 858.518L605.43 863.2C608.457 864.104 611.432 864.848 614.354 865.433C616.675 865.897 619.053 866.348 621.487 866.786L622.523 862.295ZM624.003 862.551L622.965 867.048C627.719 867.885 632.684 868.671 637.861 869.407C639.129 869.587 640.329 868.78 640.639 867.537L640.737 867.144C640.757 867.061 640.773 866.977 640.783 866.892C640.911 865.795 640.126 864.801 639.028 864.672C633.604 864.037 628.595 863.33 624.003 862.551ZM605.079 858.053C601.179 856.76 597.09 855.182 592.811 853.318C592.717 853.277 592.619 853.244 592.52 853.219C591.53 852.972 590.528 853.574 590.281 854.564L590.124 855.196C589.828 856.381 590.433 857.607 591.554 858.094C595.792 859.933 599.939 861.488 603.993 862.76L605.079 858.053ZM593.41 851.942C601.494 855.464 608.877 857.951 615.56 859.404C622.268 860.862 630.148 862.122 639.203 863.182C641.123 863.407 642.497 865.147 642.272 867.067C642.255 867.215 642.228 867.362 642.192 867.507L642.094 867.9C641.598 869.888 639.679 871.181 637.65 870.892C629.232 869.695 621.369 868.366 614.06 866.904C606.674 865.427 598.973 862.949 590.957 859.47C589.163 858.691 588.195 856.73 588.668 854.833L588.826 854.201C589.273 852.408 591.089 851.316 592.883 851.763C593.063 851.808 593.239 851.868 593.41 851.942Z" fill="#F56843"/>
<path fill-rule="evenodd" clip-rule="evenodd" d="M504 770.896L511 767.896L518 782.396L511 786.896L504 770.896ZM527.5 776.396C525.633 776.396 523.755 776.088 522.5 774.896C521.157 773.621 520.5 771.395 520.5 769.396C520.5 767.797 521.097 765.575 522 764.396C523.279 762.727 525.234 762.396 527.5 762.396C529.518 762.396 531.223 762.531 532.5 763.896C533.67 765.148 534.5 767.548 534.5 769.396C534.5 771.704 533.723 774.121 532 775.396C530.837 776.257 529.058 776.396 527.5 776.396Z" fill="#FFD1D1"/>
<path d="M503.51 770.505L511.864 766.925L519.464 782.668L511.166 788.003L503.51 770.505ZM511.835 785.79L517.536 782.125L511.136 768.868L505.49 771.288L511.835 785.79ZM528 777.146C525.606 777.146 523.773 776.664 522.484 775.44C521.055 774.084 520.25 771.743 520.25 769.396C520.25 767.559 520.932 765.21 521.905 763.94C523.217 762.227 525.074 761.646 528 761.646C530.786 761.646 532.258 762.005 533.548 763.384C534.83 764.755 535.75 767.324 535.75 769.396C535.75 772.132 534.77 774.65 532.946 775.999C531.78 776.862 530.215 777.146 528 777.146ZM528 775.646C529.913 775.646 531.223 775.409 532.054 774.794C533.446 773.764 534.25 771.698 534.25 769.396C534.25 767.689 533.462 765.488 532.452 764.409C531.528 763.421 530.404 763.146 528 763.146C525.495 763.146 524.059 763.595 523.095 764.853C522.339 765.84 521.75 767.869 521.75 769.396C521.75 771.363 522.42 773.311 523.516 774.353C524.468 775.256 525.954 775.646 528 775.646Z" fill="#F56843"/>
<path d="M896 560.396H809C807.343 560.396 806 561.74 806 563.396C806 565.053 807.343 566.396 809 566.396H896C897.657 566.396 899 565.053 899 563.396C899 561.74 897.657 560.396 896 560.396Z" fill="white"/>
<path d="M809 560.396H896C897.657 560.396 899 561.74 899 563.396C899 565.053 897.657 566.396 896 566.396H809C807.343 566.396 806 565.053 806 563.396C806 561.74 807.343 560.396 809 560.396ZM809 561.896C808.172 561.896 807.5 562.568 807.5 563.396C807.5 564.225 808.172 564.896 809 564.896H896C896.828 564.896 897.5 564.225 897.5 563.396C897.5 562.568 896.828 561.896 896 561.896H809Z" fill="#F56843"/>
<path d="M678.253 971.135L638.756 893.617C638.192 892.51 636.837 892.07 635.73 892.634C634.623 893.198 634.182 894.553 634.747 895.66L674.244 973.178C674.808 974.285 676.163 974.725 677.27 974.161C678.377 973.597 678.817 972.242 678.253 971.135Z" fill="white" stroke="#F56843" stroke-width="1.5"/>
<path fill-rule="evenodd" clip-rule="evenodd" d="M654.117 771.705C651.268 774.119 637.916 763.868 635.06 762.659C633.525 762.01 632.807 760.239 633.456 758.704C634.052 757.296 635.605 756.556 637.073 756.98C645.845 759.512 650.79 761.349 651.908 762.489C654.742 765.381 656.966 769.29 654.117 771.705Z" fill="white"/>
<path fill-rule="evenodd" clip-rule="evenodd" d="M721.327 839.873L751.194 820.955C751.661 820.659 752.279 820.798 752.574 821.264C752.581 821.276 752.588 821.287 752.595 821.299L764.024 841.073C764.29 841.534 764.148 842.124 763.7 842.413L734.365 861.339C733.901 861.638 733.282 861.505 732.983 861.041C732.978 861.033 732.972 861.025 732.967 861.016L721.007 841.235C720.725 840.77 720.868 840.164 721.327 839.873Z" fill="white"/>
<path d="M719.922 840.176L751.3 820.569C751.768 820.276 752.385 820.419 752.678 820.887L765.396 841.24C765.689 841.709 765.546 842.326 765.078 842.618L733.7 862.225C733.232 862.518 732.615 862.376 732.322 861.907L719.604 841.554C719.311 841.086 719.454 840.469 719.922 840.176ZM721.141 841.183L733.329 860.688L763.859 841.611L751.671 822.106L721.141 841.183Z" fill="#F56843"/>
<path d="M727.48 840.482L747.833 827.764C748.301 827.471 748.918 827.613 749.211 828.082L757.69 841.651C757.982 842.119 757.84 842.736 757.372 843.029L737.018 855.747C736.55 856.039 735.933 855.897 735.64 855.429L727.162 841.86C726.869 841.391 727.012 840.774 727.48 840.482ZM736.648 854.21L756.153 842.021L748.204 829.301L728.699 841.489L736.648 854.21Z" fill="#F56843"/>
</svg>
