<svg width="1840" height="1380" viewBox="0 0 1840 1380" fill="none" xmlns="http://www.w3.org/2000/svg"><path fill-rule="evenodd" clip-rule="evenodd" d="M1221.26 960.546 1272 855.8l-703 5.396 31 83.299c9.607 17.423 24.441 36.691 44.5 57.805 20.059 21.11 56.559 45.41 109.5 72.9l10-33.4 131.5 87.5 18-27.6 18 38 134.5-64.5 11.5-33.5 19.5 24 41.5-23.9 72.69-67.631a46.129 46.129 0 0 0 10.07-13.623z" fill="#fff"/><path d="M763.131 1041.69c-7.64-17.22-15.09-51.635-22.374-103.285a.752.752 0 0 1 1.486-.21c7.216 51.168 14.592 85.365 22.104 102.535l130.938 87.13 17.587-26.97c20.053-30.81 34.71-54.96 43.965-72.44 9.253-17.48 18.574-38.616 27.962-63.416l1.403.531c-9.409 24.855-18.755 46.045-28.039 63.585-9.245 17.46-23.847 41.53-43.806 72.21l17.498 36.94 133.535-64.04 11.84-34.48 19.95 24.55 40.87-23.53 72.63-67.576c4.1-3.816 7.46-8.36 9.9-13.401l50.22-103.66-700.724 5.379 30.608 82.244c9.573 17.347 24.36 36.55 44.36 57.604 19.888 20.93 56.059 45.05 108.498 72.33l9.589-32.03zm132.584 88.26-131.287-87.36-9.969 33.29-.804-.41c-53.009-27.52-89.569-51.86-109.699-73.05-20.1-21.156-34.971-40.473-44.613-57.958l-.046-.101-31.373-84.303 705.276-5.413-51.27 105.832a46.652 46.652 0 0 1-10.23 13.845l-72.69 67.628-.14.1-42.05 24.22-19.05-23.45-11.16 32.52-135.465 64.96-17.749-37.47-17.681 27.12zm169.575-55.39.39-.44-.29.14-.1.3z" fill="#575757"/><path fill-rule="evenodd" clip-rule="evenodd" d="M920.5 919.403c9.202 0 22.132-.568 38.792-1.706L985 968.3l13.5-30 10.5 5.5 12.5-26c167-21.628 250.5-41.357 250.5-59.187 0-16.231-31.18-24.313-81.5-35.87-36.56-8.397-82.85-21.809-136.5-26.054-14.28-1.129-29.97.799-45 0-28.523-1.515-57.346-5.286-88.5-5.286-40.88 0-79.006 2.833-115.5 5.286-79.954 5.376-141.533 20.178-183.5 33.605-29.841 9.548-53 16.329-53 28.506 0 15.112 49.642 29.335 148.927 42.67l24.073 37.433 9-33.848c7.319.796 12.853 1.41 16.599 1.841 46.342 5.327 98.473 12.507 153.401 12.507z" fill="#575757"/><path fill-rule="evenodd" clip-rule="evenodd" d="M666.277 828.201C737.219 663.425 785.794 559.625 812 516.8c27.333-44.667 46.833-72 58.5-82v399.833a22 22 0 0 1-15.272 20.946c-24.325 7.814-54.901 11.721-91.728 11.721-32.557 0-60.14-3.053-82.752-9.16-11.73-3.168-18.671-15.245-15.503-26.975a22.024 22.024 0 0 1 1.032-2.964z" fill="#fff"/><path d="M809.25 570.172v-46.855c-17.885 30.695-44.704 85.734-80.449 165.106l80.449-118.251zm-83.476 124.982c-17.383 38.72-36.819 83.036-58.308 132.947a21.27 21.27 0 0 0-.997 2.863c-3.06 11.33 3.645 22.996 14.975 26.055a217.032 217.032 0 0 0 16.324 3.714l28.006-165.579zm-26.47 165.864c18.768 3.423 40.334 5.135 64.696 5.135 10.597 0 20.673-.324 30.23-.972L782.936 720.32l-83.632 140.698zm83.482-143.381 25.853-143.9-80.927 118.953-27.802 164.373 82.876-139.426zm27.936-147.01-25.199 140.255 56.727-140.625a.8.8 0 0 1 .017-.115l27.983-130.318v-.836l-59.528 131.639zM784.261 718.02l11.284 144.722 73.672-140.959-26.498-148.68-58.458 144.917zm85.989-271.052-25.773 120.025 25.773-35.438v-84.587zm0 87.138-26.47 36.397 26.47 148.528V534.106zm1.5-2.297v302.428a22.75 22.75 0 0 1-15.792 21.66c-24.408 7.84-55.059 11.756-91.958 11.756-32.618 0-60.266-3.06-82.947-9.186-12.13-3.275-19.308-15.764-16.032-27.894.282-1.046.639-2.07 1.068-3.065 70.957-164.812 119.539-268.629 145.771-311.496 27.377-44.738 46.903-72.108 58.652-82.178l1.238-1.062v.924a.75.75 0 0 1 .433 1.016l-.433.959v96.138zm-2.066-95.21c-11.756 11.088-30.624 37.838-56.544 80.196a324.722 324.722 0 0 0-2.519 4.187.75.75 0 0 1 .129.421v45.521l58.934-130.325zm.566 286.445-74.222 142.011c22.833-1.656 42.657-5.185 59.471-10.586a21.25 21.25 0 0 0 14.751-20.232V723.044z" fill="#575757"/><path fill-rule="evenodd" clip-rule="evenodd" d="m870.426 434.821.574.082-107 51.5-18-33.5-13.5 22.5-42.5 11v-25.5l-21.5 25.5-32 8c1-2 16.667-15.833 47-41.5 30.228-25.577 92.401-31.625 186.518-18.141l.269-.605-119.754-41.399v-23.425L715 378.443l-35.533-16.485 6.5-24.726-48.1 11.712-33.367-11.712 7.8-23.86-39.867 16.919L520 322.916c20.222-28.342 69.767-42.513 148.633-42.513 78.655 0 145.959 51.058 201.914 153.172 48.134-107.787 108.601-168.022 181.403-180.704 73.17-12.747 113.54-16.026 121.09-9.836L1123 279.903l-33.13.233 11.13 17.267-64 41.5-21-13v20.5l-49.5 27-19-7.5-6.5 21-70.574 47.918zm1.074-.318c45.7-19.249 88.033-28.116 127-26.6 38.97 1.516 72.3 13.327 100 35.431l-35.5 5.069-23-5v17.5l-41.571 11.5-13.613-29.069-6.254 29.069-41.206-3.679v-20.238l-14.349 11.774-51.507-25.757z" fill="#575757"/><path fill-rule="evenodd" clip-rule="evenodd" d="m1149.79 673.154 22 28 39.5-26 5.65-18.365c.23-.756.42-1.525.56-2.303l4.35-23.919a4.075 4.075 0 0 0-3.28-4.732 4.066 4.066 0 0 0-4.78 4.319c.22 2.893-4.26 11.325-13.46 25.295l10.96-25.295-8.43-16.78-35.07 31.78-18 28z" fill="#fff"/><path d="m1211.84 630.247-9.03-17.975-35.81 32.442-.12.151-18.29 28.449 22.75 28.962 40.31-26.528 5.73-18.622c.24-.785.43-1.583.58-2.39l4.35-23.919a4.823 4.823 0 0 0-9.49-1.725c-.07.408-.09.823-.06 1.236.16 2.097-2.63 7.848-8.34 17.027l7.42-17.108zm-43.76 15.512 34.28-31.051 7.82 15.585-10.82 24.974 1.32.711c9.33-14.18 13.82-22.618 13.58-25.766-.03-.285-.01-.571.04-.851a3.323 3.323 0 0 1 3.86-2.673c1.8.328 3 2.056 2.67 3.86l-4.35 23.919c-.13.75-.31 1.49-.54 2.218l-5.57 18.107-38.7 25.472-21.24-27.037 17.65-27.468z" fill="#575757"/><path fill-rule="evenodd" clip-rule="evenodd" d="m864.71 639.576 1.29 3.419 23-1.05 12 20-35-.009c0 6.913 5.604 12.518 12.518 12.518.318 0 .635-.012.952-.037l34.544-2.634a23.91 23.91 0 0 0 17.486-9.734l-3.5-30.104-.786-.459a30.996 30.996 0 0 0-11.188-3.904L877 621.945c-7.196-.055-13.075 5.734-13.13 12.931a13.027 13.027 0 0 0 .84 4.7z" fill="#fff"/><path d="m899.675 661.049-34.425-.009v.75c0 7.328 5.94 13.268 13.268 13.268.337 0 .673-.013 1.009-.038l34.544-2.635a24.659 24.659 0 0 0 18.035-10.04l.173-.237-3.577-30.768-1.11-.647a31.746 31.746 0 0 0-11.459-3.999l-39.026-5.637-.101-.008c-7.611-.058-13.827 6.065-13.885 13.675a13.773 13.773 0 0 0 .887 4.972l1.483 3.928 23.096-1.055 11.088 18.48zm16.244-32.87a30.23 30.23 0 0 1 10.917 3.81l.462.269 3.423 29.437a23.157 23.157 0 0 1-16.764 9.194l-34.544 2.635c-.298.023-.597.034-.895.034-6.247 0-11.358-4.868-11.744-11.017l35.551.009-12.912-21.52-22.903 1.046-1.099-2.91a12.294 12.294 0 0 1-.791-4.43c.052-6.766 5.565-12.211 12.324-12.187l38.975 5.63z" fill="#575757"/><path fill-rule="evenodd" clip-rule="evenodd" d="m1197.95 842.669 39.77-34.869 78.54 46.773a6.004 6.004 0 0 1 2.93 5.178 5.998 5.998 0 0 1-6.02 5.977l-97.52-.378a16.003 16.003 0 0 1-15.6-12.701l-2.1-9.98zM1116 868.835l61.99-8.756 28.75 75.189a9.019 9.019 0 0 1-1.2 8.612c-2.99 3.978-8.63 4.785-12.6 1.804l-69.53-52.106a16.998 16.998 0 0 1-6.78-12.714l-.63-12.029z" fill="#fff"/><path d="m1196.91 842.498 40.51-35.518 79.01 47.052a6.748 6.748 0 0 1 3.29 5.826 6.747 6.747 0 0 1-6.77 6.724l-97.52-.378c-7.9-.031-14.7-5.57-16.33-13.296l-2.19-10.41zm3.66 10.101a15.244 15.244 0 0 0 14.86 12.105l97.52.378a5.252 5.252 0 0 0 2.71-9.761l-78.08-46.494-39.02 34.22 2.01 9.552zM1115 868.292l63.25-8.935 28.97 75.747c1.2 3.128.71 6.65-1.3 9.33-3.23 4.309-9.34 5.184-13.65 1.955l-69.53-52.107a17.768 17.768 0 0 1-7.08-13.275l-.66-12.715zm2.16 12.637a16.26 16.26 0 0 0 6.48 12.153l69.53 52.106c3.64 2.733 8.81 1.992 11.55-1.654a8.251 8.251 0 0 0 1.1-7.894l-28.54-74.631-60.71 8.576.59 11.344z" fill="#575757"/><path d="M1203 756.3c23.16 0 41.93-18.772 41.93-41.928 0-8.567-2.63-16.929-7.52-23.959L1210.5 645.8l-2.55 4.928 25.35 42.542a36.872 36.872 0 0 1 6.63 21.102c0 20.395-16.54 36.928-36.93 36.928v5z" fill="#DAFFD0"/><path d="M1202.53 757.153c23.57 0 42.68-19.107 42.68-42.678 0-8.72-2.67-17.231-7.66-24.388l-26.88-44.571-.69-1.148-3.36 6.489 25.57 42.9c4.25 6.111 6.52 13.326 6.52 20.718 0 19.981-16.2 36.178-36.18 36.178h-.75v6.5h.75zm.75-5.007c20.46-.4 36.93-17.112 36.93-37.671 0-7.698-2.36-15.212-6.76-21.53l-25.11-42.139 1.74-3.368 26.21 43.465a41.199 41.199 0 0 1 7.42 23.572c0 22.492-18.04 40.771-40.43 41.171v-3.5z" fill="#575757"/><path d="M883 650.364c3.851-.744 6.517-.244 8 1.5 7.286 8.574 8.686 20.784 9.513 28.882 4.589 44.925 3.213 93.162-5.885 120.456-6.426 19.279 3.993 40.117 23.272 46.544 16.466 5.488 34.527-1.275 43.338-16.228 16.013-27.176 33.737-51.307 45.762-79.154l-4.59-1.982c-11.942 27.654-29.571 51.599-45.48 78.597-7.613 12.922-23.221 18.766-37.449 14.023-16.659-5.553-25.662-23.56-20.109-40.219 9.378-28.134 10.77-76.969 6.115-122.545-1.004-9.833-4.487-25.874-12.987-33.874-1.334-1.255-4.5-1.755-9.5-1.5v5.5z" fill="#DAFFD0"/><path d="M883.142 651.536c3.613-.699 6.014-.249 7.286 1.249 5.816 6.843 7.951 14.882 9.339 28.473 4.825 47.24 2.805 94.175-5.85 120.142-6.558 19.672 4.074 40.935 23.746 47.492 16.801 5.601 35.231-1.301 44.221-16.559 3.27-5.549 6.678-11.099 11.264-18.402-.308.49 8.348-13.24 10.728-17.067 10.98-17.652 18.004-30.306 23.814-43.767l.3-.689-5.97-2.576-.3.688c-5.724 13.258-12.652 25.74-23.505 43.17-2.36 3.789-10.941 17.387-10.648 16.92-4.595 7.311-8.007 12.865-11.283 18.424-7.434 12.616-22.673 18.323-36.565 13.692-16.267-5.422-25.058-23.004-19.636-39.271 8.989-26.965 11.077-74.628 6.15-122.858-1.427-13.971-5.865-27.423-13.219-34.344-1.534-1.443-4.856-1.968-10.052-1.702l-.712.036v7.122l.892-.173zm.608-5.519c4.39-.164 7.159.316 8.236 1.329 7.021 6.608 11.362 19.762 12.755 33.404 4.907 48.036 2.827 95.507-6.081 122.231-5.684 17.052 3.532 35.484 20.584 41.168 14.564 4.854 30.539-1.128 38.333-14.354 3.267-5.544 6.672-11.087 11.26-18.386-.296.47 8.289-13.133 10.651-16.926 10.702-17.188 17.609-29.594 23.312-42.68l3.21 1.387c-5.72 13.125-12.651 25.59-23.407 42.882-2.378 3.822-11.031 17.548-10.725 17.061-4.593 7.314-8.008 12.876-11.286 18.439-8.631 14.648-26.325 21.274-42.455 15.897-18.886-6.295-29.093-26.709-22.797-45.595 8.736-26.208 10.764-73.336 5.919-120.769-1.418-13.882-3.611-22.141-9.687-29.291-1.567-1.844-4.197-2.452-7.822-1.905v-3.892z" fill="#575757"/><path fill-rule="evenodd" clip-rule="evenodd" d="m833.957 626.225-.126 46.663a4 4 0 0 0 4.398 3.991l24.48-2.451c12.767-1.278 22.557-11.909 22.781-24.738.222-12.726-9.327-23.507-21.987-24.822l-25.133-2.611a4 4 0 0 0-4.413 3.968z" fill="#DAFFD0"/><path d="M833.11 672.989a4.75 4.75 0 0 0 5.224 4.739l24.48-2.451c13.145-1.316 23.225-12.262 23.456-25.471.229-13.115-9.613-24.226-22.66-25.581l-25.132-2.611a4.75 4.75 0 0 0-5.241 4.711l-.127 46.664zm1.644-46.987a3.25 3.25 0 0 1 3.569-2.896l25.132 2.611c12.273 1.275 21.53 11.726 21.315 24.063-.217 12.448-9.717 22.764-22.106 24.005l-24.48 2.451a3.25 3.25 0 0 1-3.574-3.243l.127-46.663c0-.11.006-.219.017-.328z" fill="#575757"/><path fill-rule="evenodd" clip-rule="evenodd" d="M810.75 637.678v6.5h22.5v-6.5h-22.5zm0 21v6.5h22.5v-6.5h-22.5z" fill="#575757" stroke="#575757" stroke-width="1.5"/><path fill-rule="evenodd" clip-rule="evenodd" d="m1083.99 641.581-47.83-1.856a45 45 0 0 0-35.09 13.494l-5.054 5.185-34.5 36.5c-6.531-33.252-11.531-42.023-16-50.104-2.98-5.388-10.98-10.721-24-16l-1.5 70.104-.993 27.25c-.684 18.766 13.975 34.532 32.74 35.216a34.001 34.001 0 0 0 29.819-15.564l14.434-22.402-5 42 57.534-6.021c13.44-1.134 34.72-11.853 35.42-25.329l60.05 14.246 31.99-39.44.81-.999a6.352 6.352 0 0 0-.57-8.596l-26.98-25.499-.07-.07a7.524 7.524 0 0 0-10.35.019l-26.33 25.085-6.77-38.245c-1.89-10.655-10.95-18.554-21.76-18.974z" fill="#fff"/><path d="M946.656 643.937c-3.085-5.579-11.207-10.994-24.374-16.333a.75.75 0 0 0-1.032.68l-1.5 70.103-.992 27.24c-.699 19.179 14.283 35.293 33.462 35.992a34.75 34.75 0 0 0 30.477-15.907l12.674-19.672-4.616 38.775a.75.75 0 0 0 .823.834l57.532-6.021c15.92-1.342 34.54-12.969 36.02-25.144l59.2 14.045c.28.067.57-.033.75-.257l32.8-40.438a7.083 7.083 0 0 0-.63-9.614l-27.05-25.569c-3.2-3.019-8.2-3.01-11.38.021l-25.33 24.12-6.52-36.868a23.754 23.754 0 0 0-22.47-19.593l-47.82-1.856a45.736 45.736 0 0 0-35.66 13.72l-5.057 5.185-33.509 35.451c-5.242-26.409-8.779-36.203-15.798-48.894zm197.264 103.39.75-.257-.46-.109-.29.366zm-59.29-14.503a.745.745 0 0 0-.92.691c-.6 11.556-19.08 23.299-34.74 24.62l-56.614 5.925 4.889-41.068c.094-.79-.945-1.164-1.376-.495L981.436 744.9a33.249 33.249 0 0 1-29.161 15.22c-18.352-.669-32.687-16.087-32.018-34.438l.992-27.251 1.477-69.023c12.278 5.083 19.82 10.195 22.618 15.255 7.066 12.778 10.551 22.546 15.92 49.885a.75.75 0 0 0 1.281.371l34.5-36.5 5.045-5.177a44.258 44.258 0 0 1 34.51-13.269l47.85 1.857a22.24 22.24 0 0 1 21.04 18.356l6.77 38.244c.11.589.82.825 1.26.413l26.34-25.085a6.751 6.751 0 0 1 9.3-.017l27.06 25.569a5.59 5.59 0 0 1 .5 7.579l-32.51 40.072-59.58-14.137z" fill="#575757"/><path fill-rule="evenodd" clip-rule="evenodd" d="M1048.5 845.196h25.19c9.8 0 19.21-3.891 26.14-10.819L1163 771.3l34 78 71.5-23.5-54.51-95.394c-12.07-21.125-38.51-29.196-60.32-18.417L1106.5 735.3l-71.47 79.737c-6.67 7.439-6.04 18.874 1.4 25.541a18.076 18.076 0 0 0 12.07 4.618z" fill="#fff"/><path d="m1197.09 850.329 73.02-24-54.97-96.192c-12.27-21.469-39.13-29.672-61.3-18.717l-47.3 23.375-71.57 79.845c-6.94 7.747-6.29 19.656 1.46 26.6a18.821 18.821 0 0 0 12.57 4.81h25.19c10 0 19.6-3.97 26.67-11.038l62.39-62.301 33.84 77.618zm-42.59-137.564c21.46-10.604 47.46-2.664 59.34 18.117l54.05 94.596-69.98 23-34.16-78.382-63.95 63.854a36.234 36.234 0 0 1-25.61 10.6H1049c-4.27 0-8.39-1.576-11.57-4.427-7.13-6.391-7.73-17.351-1.34-24.481l71.37-79.63 47.04-23.247z" fill="#575757"/><path fill-rule="evenodd" clip-rule="evenodd" d="m991.5 764.695-9.786 42.459c-4.269 18.522 7.285 36.997 25.806 41.266 2.54.584 5.13.879 7.73.879h29.85c8.47 0 16.49-3.836 21.81-10.435l23.09-28.669 16.5 63.104 80-9.604-19.89-113.333c-4.4-25.023-28.24-41.747-53.27-37.354-3.58.63-7.08 1.682-10.42 3.137l-111.42 48.55z" fill="#fff"/><path d="m1091.22 812.006 15.84 60.575 78.56-9.431-19.75-112.554c-4.32-24.614-27.78-41.066-52.4-36.745-3.52.62-6.96 1.655-10.25 3.086l-111.074 48.4-9.701 42.09c-4.176 18.118 7.126 36.191 25.245 40.367 2.48.571 5.02.86 7.56.86h29.85c8.25 0 16.05-3.734 21.22-10.156l22.98-28.524-5.53-23.502a.742.742 0 0 1 .56-.902c.4-.095.81.155.9.558l6 25.5c.03.129.03.259-.01.378zm14.72 62.22-16.29-62.297-22.16 27.51a28.755 28.755 0 0 1-22.39 10.715h-29.85c-2.66 0-5.31-.302-7.9-.899-18.923-4.362-30.729-23.24-26.367-42.165l9.871-42.827 111.766-48.701a46.786 46.786 0 0 1 10.59-3.188c25.43-4.464 49.67 12.532 54.13 37.963l20.04 114.113-81.44 9.776z" fill="#575757"/><path fill-rule="evenodd" clip-rule="evenodd" d="m1181.69 587.073-18.21 76c-1.28 5.371 2.03 10.768 7.4 12.055a9.94 9.94 0 0 0 2.33.275h22.39a10 10 0 0 0 9.74-7.718l17.81-76c1.26-5.377-2.08-10.758-7.45-12.018a10.09 10.09 0 0 0-2.29-.264h-21.99c-4.63 0-8.65 3.172-9.73 7.67z" fill="#575757"/><path fill-rule="evenodd" clip-rule="evenodd" d="m1050.03 641.196 5.22-15.896h-12.64c-22.98 0-41.61-18.63-41.61-41.612 0-3.418.42-6.823 1.25-10.138l6.16-24.521c4.02-16.007 18.41-27.229 34.92-27.229h8.92c19.29 0 34.92 15.631 34.92 34.913 0 .675-.02 1.35-.06 2.025l-5.08 84.458" fill="#fff"/><path d="m1049.29 640.565 1.42.469 5.55-16.881h-13.68c-22.57 0-40.86-18.294-40.86-40.861 0-3.357.41-6.701 1.23-9.956l6.16-24.521c3.94-15.673 18.03-26.662 34.19-26.662h8.92c18.87 0 34.17 15.296 34.17 34.163 0 .661-.02 1.322-.06 1.982l-5.08 84.457 1.5.09 5.08-84.459c.04-.69.06-1.38.06-2.07 0-19.696-15.97-35.663-35.67-35.663h-8.92c-16.85 0-31.54 11.456-35.64 27.797l-6.16 24.521a42.25 42.25 0 0 0-1.28 10.321c0 23.395 18.97 42.361 42.36 42.361h11.61l-4.9 14.912z" fill="#575757"/><path fill-rule="evenodd" clip-rule="evenodd" d="m536 938.3 26 44.5-26 51s16.333-13.67 49-41l10.283 9.23L585 1027.3l34.094-6.91c16.547 8.94 27.849 13.41 33.906 13.41 7.995 0 17.705-4.3 29.131-12.91 6.741-5.08 17.845-15.8 33.312-32.168a9 9 0 0 0 .227-12.114C688.907 946.069 668.017 930.8 653 930.8c-16 0-38.667 12.833-68 38.5l-49-31z" fill="#DAFFD0"/><path d="m561.146 982.824-25.814 50.636c-.371.73.523 1.44 1.149.92l48.502-40.588 9.407 8.438-10.085 24.79a.746.746 0 0 0 .844 1.01l33.828-6.85c16.527 8.91 27.827 13.37 34.023 13.37 8.188 0 18.038-4.37 29.583-13.06 6.784-5.11 17.91-15.86 33.405-32.253a9.75 9.75 0 0 0 .246-13.123C689.335 945.419 668.308 930.05 653 930.05c-16.158 0-38.815 12.784-68.072 38.317l-48.527-30.701c-.664-.42-1.445.334-1.049 1.012l25.794 44.146zm23.453-12.89a.75.75 0 0 0 .895-.07C614.7 944.309 637.236 931.55 653 931.55c14.726 0 35.48 15.169 62.106 45.552a8.25 8.25 0 0 1-.208 11.104c-15.44 16.334-26.521 27.034-33.218 32.084-11.308 8.52-20.879 12.76-28.68 12.76-5.888 0-17.114-4.44-33.55-13.32a.737.737 0 0 0-.505-.07l-32.723 6.63 9.756-23.98a.749.749 0 0 0-.194-.84l-10.283-9.228a.748.748 0 0 0-.982-.017l-46.182 38.645 24.331-47.73a.752.752 0 0 0-.02-.719l-24.447-41.842 46.398 29.355z" fill="#575757"/><path fill-rule="evenodd" clip-rule="evenodd" d="M828.545 1015 815 1033.8c9.03 14.67 13.545 22 13.545 22s6.951-5.84 20.853-17.51c49.318 11.67 77.359 17.51 84.121 17.51 5.636 0 16.183-5 31.639-14.99a8.009 8.009 0 0 0 2.373-11.07 8.164 8.164 0 0 0-2.247-2.29c-15.488-10.43-26.076-15.65-31.765-15.65-6.81 0-34.85 5.48-84.121 16.45L828.545 1015z" fill="#DAFFD0"/><path d="M933.519 1056.55c5.836 0 16.465-5.04 32.047-15.11 4.057-2.63 5.22-8.05 2.595-12.1a8.66 8.66 0 0 0-2.458-2.51c-15.616-10.52-26.289-15.78-32.184-15.78-6.88 0-34.799 5.46-83.981 16.4l-21.188-13.46-14.251 19.78 14.263 23.16 21.23-17.83c49.196 11.65 77.091 17.45 83.927 17.45zm-84.261-27.5.303-.07c49.172-10.94 77.233-16.43 83.958-16.43 5.482 0 15.987 5.18 31.346 15.53a7.174 7.174 0 0 1 2.037 2.07c2.174 3.36 1.211 7.85-2.151 10.03-15.331 9.91-25.795 14.87-31.232 14.87-6.672 0-34.735-5.84-83.948-17.49l-.367-.09-20.476 17.2-12.827-20.84 12.839-17.81 20.518 13.03z" fill="#575757"/><path fill-rule="evenodd" clip-rule="evenodd" d="m1103 1014.25 3.5 33.05c-2.33 25-3.5 37.5-3.5 37.5l36.02-30.29c21.65 20.19 38.31 30.29 49.99 30.29 9.18 0 21.43-7.75 36.76-23.26 8.01-8.1 8.51-20.97 1.16-29.67-8.94-10.58-16.92-18.27-23.93-23.07-10.02-6.86-26.43-13.525-49.22-20l3.97 30.53-18.73 17.82-36.02-22.9z" fill="#DAFFD0"/><path fill-rule="evenodd" clip-rule="evenodd" d="m1103 1013.75 3.5 33.05c-2.33 25-3.5 37.5-3.5 37.5l36.02-30.29c21.65 20.19 38.31 30.29 49.99 30.29 9.18 0 21.43-7.75 36.76-23.26 8.01-8.1 8.51-20.97 1.16-29.67-8.94-10.58-16.92-18.27-23.93-23.07-10.02-6.86-26.43-13.525-49.22-20l3.97 30.53-18.73 17.82-36.02-22.9z" fill="#DAFFD0" stroke="#575757" stroke-width="1.5" stroke-linejoin="round"/><path fill-rule="evenodd" clip-rule="evenodd" d="M883 639.8h4a4 4 0 0 1 4 4v12a4 4 0 0 1-4 4h-4v-20z" fill="#DAFFD0"/><path d="M883 639.8h4a4 4 0 0 1 4 4v12a4 4 0 0 1-4 4h-4v-20zm1.5 1.5v17h2.5a2.5 2.5 0 0 0 2.5-2.5v-12a2.5 2.5 0 0 0-2.5-2.5h-2.5z" fill="#575757"/><path d="M1183.5 671.3c-1.66 0-3-1.343-3-3a2.998 2.998 0 0 1 4.83-2.375 2.998 2.998 0 0 1-1.83 5.375zm0-1c1.1 0 2-.895 2-2a1.99 1.99 0 0 0-.78-1.584 1.99 1.99 0 0 0-1.22-.416c-1.1 0-2 .895-2 2s.9 2 2 2zm13.09-89h10.99l.43-2.582.98.164-.57 3.418h-13.01l.6-3.582.98.164-.4 2.418z" fill="#fff"/><path fill-rule="evenodd" clip-rule="evenodd" d="m1226 1042.21-11.84-4c-2.7-.92-5.62-.92-8.32 0l-11.84 4 10.73 4.76c3.36 1.48 7.18 1.48 10.54 0l10.73-4.76z" fill="#fff"/><path d="M1226.24 1041.5c.65.22.69 1.12.06 1.39l-10.73 4.76a13.763 13.763 0 0 1-11.14 0l-10.73-4.76c-.63-.27-.59-1.17.06-1.39l11.84-4c2.85-.97 5.95-.97 8.8 0l11.84 4zm-11.28 4.78 8.98-3.98-10.02-3.38c-2.54-.86-5.3-.86-7.84 0l-10.02 3.38 8.98 3.98c3.16 1.4 6.76 1.4 9.92 0zm-4.96-1.48c-1.1 0-2-.9-2-2s.9-2 2-2 2 .9 2 2-.9 2-2 2z" fill="#575757"/><path fill-rule="evenodd" clip-rule="evenodd" d="m952 1033.21-11.837-4c-2.7-.92-5.626-.92-8.326 0l-11.837 4 10.732 4.76a13.056 13.056 0 0 0 10.536 0l10.732-4.76z" fill="#fff"/><path d="M952.24 1032.5c.648.22.689 1.12.064 1.39l-10.733 4.76a13.768 13.768 0 0 1-11.142 0l-10.733-4.76c-.625-.27-.584-1.17.064-1.39l11.837-4c2.856-.97 5.95-.97 8.806 0l11.837 4zm-11.276 4.78 8.973-3.98-10.014-3.38a12.253 12.253 0 0 0-7.846 0l-10.014 3.38 8.973 3.98c3.161 1.4 6.767 1.4 9.928 0zM936 1035.8c-1.105 0-2-.9-2-2s.895-2 2-2 2 .9 2 2-.895 2-2 2z" fill="#575757"/><path fill-rule="evenodd" clip-rule="evenodd" d="m695 981.208-11.837-4.001a12.997 12.997 0 0 0-8.326 0L663 981.208l10.732 4.757a13 13 0 0 0 10.536 0L695 981.208z" fill="#fff"/><path d="m695.24 980.498-11.837-4.001a13.741 13.741 0 0 0-8.806 0l-11.837 4.001a.75.75 0 0 0-.064 1.396l10.733 4.757a13.752 13.752 0 0 0 11.142 0l10.733-4.757a.75.75 0 0 0-.064-1.396zm-11.276 4.781a12.251 12.251 0 0 1-9.928 0l-8.973-3.976 10.014-3.385a12.24 12.24 0 0 1 7.846 0l10.014 3.385-8.973 3.976zm330.646-405.444a.747.747 0 1 1-1.22-.864c1.37-1.943 2.93-2.918 4.65-2.817 2.44.143 6 1.776 7.98 3.712.3.289.31.763.02 1.06a.75.75 0 0 1-1.06.014c-1.74-1.69-4.95-3.167-7.02-3.288-1.14-.067-2.25.625-3.35 2.183zm21.51-23.518c3.52-2.265 5.5-3.45 6.15-3.664 1.02-.334 2.11-.46 3.3-.42 1.04.034 1.83.147 3.5.449 1.21.218 1.71.288 2.19.291.25.001.58-.013 1.05-.043.16-.011 1.09-.076 1.38-.094.72-.046 1.32-.07 1.89-.072 1.27-.004 2.31.109 3.16.39.85.279 2.67 1.409 5.59 3.446a4.752 4.752 0 0 1-.2 7.926c-2.89 1.801-4.64 2.801-5.39 3.051-.76.255-1.54.395-2.38.442-.88.05-1.49.018-3.02-.115-.8-.069-1.2-.096-1.63-.098-.36-.002-.76.022-1.28.07-.31.03-1.49.158-1.5.158-2.73.284-4.58.223-6.66-.455-.73-.24-2.68-1.272-5.94-3.148a4.752 4.752 0 0 1-1.76-6.484c.38-.66.91-1.218 1.55-1.63zm.81 1.262c-.43.281-.8.663-1.06 1.115a3.258 3.258 0 0 0 1.2 4.436c3.15 1.805 5.08 2.83 5.67 3.023 1.83.598 3.49.654 6.04.389-.01.001 1.19-.129 1.51-.159.57-.053 1.01-.079 1.43-.077.48.003.91.031 1.75.103 1.46.127 2.02.157 2.8.113a7.584 7.584 0 0 0 2-.367c.58-.196 2.31-1.18 5.06-2.901.38-.233.7-.538.95-.898a3.259 3.259 0 0 0-.81-4.525c-2.78-1.936-4.55-3.039-5.2-3.253-.67-.22-1.56-.318-2.69-.314-.54.002-1.1.025-1.8.069-.28.018-1.2.083-1.37.093-.51.033-.86.048-1.16.047-.6-.003-1.14-.08-2.44-.315-1.61-.289-2.35-.395-3.29-.426-1.03-.034-1.95.072-2.78.346-.47.153-2.47 1.356-5.81 3.501zm-17.46-3.529a.75.75 0 0 1 .95-.476c.39.13.6.555.47.948l-5.34 16.132a1.247 1.247 0 0 0 1.51 1.599l5.48-1.486a.75.75 0 1 1 .39 1.447l-5.47 1.487a2.747 2.747 0 0 1-3.33-3.519l5.34-16.132zm-12.16.579.38-1.453c1.01.26 1.8.652 2.34 1.197.3.299.88 1.057 1.79 2.327a4.75 4.75 0 0 1-1.09 6.628c-.04.025-.04.025-.07.049-1.44.988-2.38 1.556-2.92 1.737-.89.296-2.01.296-3.39.025l.3-1.472c1.13.225 2.01.225 2.61.024.36-.119 1.24-.646 2.55-1.548l.04-.034a3.246 3.246 0 0 0 .75-4.535c-.85-1.192-1.41-1.924-1.63-2.141-.33-.33-.88-.605-1.66-.804zm46.48 20.02c.25-.687 1.24-.652 1.43.052l2.62 9.361a8.032 8.032 0 0 1-.96 6.494 3.103 3.103 0 0 1-5.02.299l-.19-.227a7.015 7.015 0 0 1-1.17-6.822l3.29-9.157zm2.61 9.817-1.99-7.101-2.5 6.949a5.509 5.509 0 0 0 .92 5.364l.19.227a1.604 1.604 0 0 0 2.6-.155c1-1.57 1.28-3.491.78-5.284z" fill="#575757"/><path d="M1044 563.403c1.93 0 3.5-1.567 3.5-3.5s-1.57-3.5-3.5-3.5-3.5 1.567-3.5 3.5 1.57 3.5 3.5 3.5z" fill="#575757"/><path fill-rule="evenodd" clip-rule="evenodd" d="M1070.5 540.403c-34.4 4.739-56.4 6.739-66 6-7.768-.597-13.941-3.546-18.52-8.847a3 3 0 0 1 1.792-4.922l26.228-4.231-18-8 34.5 1.5-16.5-10 32.5 5.5 20.5 2.121c12.84 1.328 22.33 12.574 21.48 25.454l-1.98 29.925-16-34.5z" fill="#575757"/><path d="M679 983.8a2 2 0 1 0 0-4 2 2 0 0 0 0 4zm498.44 51.67c.37-.2.51-.65.32-1.02a.755.755 0 0 0-1.01-.32l-22.1 11.5c-.48.26-.54.93-.11 1.26 5.79 4.51 10.56 7.39 14.32 8.62 3.75 1.23 9.79 1.91 18.13 2.04a.749.749 0 1 0 .02-1.5c-8.2-.13-14.11-.79-17.68-1.96-3.37-1.11-7.69-3.66-12.94-7.67l21.05-10.95z" fill="#575757"/><path d="M1155 1047.05c6.74 0 13.48-1.01 20.22-3.03.39-.12.62-.54.5-.94a.759.759 0 0 0-.94-.5c-6.59 1.98-13.19 2.97-19.78 2.97-.41 0-.75.34-.75.75s.34.75.75.75z" fill="#575757"/><path d="M1155.12 1046.95c7.48 4.42 15.82 5.95 24.99 4.59.41-.06.69-.44.63-.85a.747.747 0 0 0-.85-.63c-8.83 1.31-16.83-.16-24.01-4.41a.756.756 0 0 0-1.03.27c-.21.35-.09.81.27 1.03zm3.37-27.58 9.75-8.5c.32-.28.35-.75.08-1.06a.748.748 0 0 0-1.06-.08l-9.75 8.5c-.32.28-.35.75-.08 1.06.28.31.75.35 1.06.08zm-36.43 27.43-16.98 20.97-1.16-.94 16.01-19.78h-13.43c-.41 0-.75-.34-.75-.75s.34-.75.75-.75h13.23l-15.77-16.23a.746.746 0 0 1 .02-1.06c.29-.29.77-.28 1.06.02l17 17.5c.3.31.26.75.02 1.02zm-287.135-12.38.297.08-6 21.5-1.444-.4 5.874-21.05H815a.753.753 0 0 1-.75-.75c0-.42.336-.75.75-.75h18.477l-5.692-18.03a.753.753 0 0 1 .489-.94c.395-.12.816.1.941.49l6 19a.758.758 0 0 1-.29.85zm48.659-1.26 24.428.39-.024 1.5-23.836-.38 28.015 6.4a.748.748 0 1 1-.334 1.46l-35-8c-.783-.18-.775-1.3.01-1.46l35-7.5c.405-.09.804.17.89.57a.743.743 0 0 1-.576.89l-28.573 6.13zm-310.093-50.11H562.5a.75.75 0 0 1 0-1.5h10.833l-37.894-42.753a.749.749 0 1 1 1.122-.995l39 44a.751.751 0 0 1 .037.951l-39 51.497c-.25.33-.721.4-1.051.15a.75.75 0 0 1-.145-1.05l38.089-50.3zm11.971 44.84a.743.743 0 0 1-1.053-.13.746.746 0 0 1 .129-1.05l52.5-41.001a.75.75 0 0 1 .924 1.182l-52.5 40.999zm-.107-57.93a.75.75 0 1 1-.71-1.321c39.884-21.45 69.311-25.99 88.268-13.465a.75.75 0 1 1-.826 1.252c-18.376-12.142-47.283-7.682-86.732 13.534z" fill="#575757"/><path d="M619 1020.3c13.667-5.33 19.833-16.67 18.5-34" stroke="#575757" stroke-width="1.5" stroke-linecap="round" stroke-linejoin="round"/><path d="M596.12 1002.22c11.808-17.382 25.426-22.408 41.068-15.239a.75.75 0 1 0 .625-1.363c-16.359-7.498-30.74-2.19-42.933 15.762a.747.747 0 0 0 .199 1.04c.342.23.809.14 1.041-.2zm496.65-301.082a.75.75 0 0 1 .89-.571c.41.089.66.488.57.893l-4.5 20.5a.75.75 0 0 1-.89.572.744.744 0 0 1-.57-.894l4.5-20.5zm-73.43-50.605c-.75-.161-.8-1.208-.07-1.446l30.5-10c.46-.152.94.168.98.652l2.5 31c.03.437-.31.81-.75.81h-16a.747.747 0 0 1-.6-1.193l10.31-14.066-26.87-5.757zm3.03-.886 25.29 5.419c.53.114.77.738.44 1.177l-10.12 13.806h13.71l-2.36-29.24-26.96 8.838zm65.33 20.892a.75.75 0 0 1-.7 1.01h-12a.75.75 0 0 1-.73-.926l7-29a.75.75 0 0 1 1.15-.444l14 9.5a.751.751 0 0 1-.12 1.31l-13.35 5.719 4.75 12.831zm-11.75-.49h9.97l-4.62-12.489a.752.752 0 0 1 .4-.95l12.74-5.46-11.96-8.122-6.53 27.021zm-55.2 17v8.75c0 7.042 5.71 12.75 12.75 12.75s12.75-5.708 12.75-12.75v-8.75h-25.5zm0-1.5h25.5v-3h-25.5v3zm66.53 3.712.52-2.446-9.3-1.975-.52 2.446 9.3 1.975zm-.31 1.467-9.3-1.975-3.48 16.384a4.753 4.753 0 0 0 3.66 5.634 4.742 4.742 0 0 0 5.63-3.659l3.49-16.384zm-67.72-9.679h28.5v14.75c0 7.87-6.38 14.25-14.25 14.25s-14.25-6.38-14.25-14.25v-14.75zm58.1 2.012 12.23 2.599-4.63 21.764c-.72 3.376-4.04 5.532-7.41 4.814a6.257 6.257 0 0 1-4.82-7.413l4.63-21.764z" fill="#575757"/><path fill-rule="evenodd" clip-rule="evenodd" d="m1159 681.3-9-8c3.49-16.158 5.49-25.491 6-28 .41-2.006 2.62-5.071 6.64-9.195a41.113 41.113 0 0 0 6.13-8.112l4.73-8.193c6.67 0 8.83 2.833 6.5 8.5-1.54 3.731-6.4 11.507-14.58 23.329" fill="#fff"/><path d="M1156.23 645.45c.38-1.818 2.53-4.798 6.44-8.822a41.612 41.612 0 0 0 6.25-8.26l4.51-7.814c5.81.107 7.45 2.433 5.38 7.46-1.51 3.662-6.36 11.414-14.5 23.188l1.23.853c8.21-11.869 13.09-19.67 14.65-23.47 2.55-6.184-.01-9.535-7.19-9.535-.27 0-.52.143-.65.375l-4.73 8.193a40.271 40.271 0 0 1-6.02 7.963c-4.11 4.225-6.39 7.375-6.83 9.569-.52 2.505-2.52 11.838-6 27.992-.06.264.03.539.23.718l9 8 1-1.121-8.67-7.709c3.43-15.899 5.4-25.089 5.9-27.58z" fill="#575757"/><path fill-rule="evenodd" clip-rule="evenodd" d="m875 673.3-.414-.049a5.001 5.001 0 0 1-4.372-4.29l-.226-1.661a4.846 4.846 0 0 1 4.801-5.5h19.949" fill="#fff"/><path d="m875.663 673.068-1.101-.245a4.25 4.25 0 0 1-3.289-3.575l-.28-2.05a4.096 4.096 0 0 1 4.058-4.648H895v-1.5h-19.949a5.596 5.596 0 0 0-5.544 6.351l.28 2.05a5.748 5.748 0 0 0 4.45 4.836l1.1.245.326-1.464zm177.587-2.35a.757.757 0 0 0-.83-.664.76.76 0 0 0-.67.828l7 64c.1.835 1.28.911 1.48.094l22.5-93a.748.748 0 0 0-.55-.905.753.753 0 0 0-.91.553l-21.49 88.832-6.53-59.738zm219.96 157.724 21.71 17.306c.32.258.38.73.12 1.054a.757.757 0 0 1-1.06.119l-21.29-16.979 7.43 9.689a6.761 6.761 0 0 1-2.83 10.378c-.68.275-1.4.429-2.13.455a6.287 6.287 0 0 1-6.5-6.049l-.65-18.509-.77-.374.75-.125-.06-1.671 1.14 1.49 17.93-2.995a6.758 6.758 0 0 1 7.83 7.368 6.157 6.157 0 0 1-.6 2.097c-1.51 3.116-5.27 4.413-8.39 2.895l-12.63-6.149zm5.72 12.101-9.33-12.17.56 15.988a4.784 4.784 0 0 0 6.57 4.258 5.262 5.262 0 0 0 2.2-8.076zm-6.82-14.305 14.39 7.004a4.769 4.769 0 0 0 6.38-2.203c.25-.501.4-1.041.46-1.595a5.263 5.263 0 0 0-6.1-5.733l-15.13 2.527z" fill="#575757"/><path fill-rule="evenodd" clip-rule="evenodd" d="M1102.36 869.682 1098 861.3l16.5-7 31.5-4.5h40v13.806c0 2.086-1.6 3.822-3.68 3.987l-73.19 5.838a7.002 7.002 0 0 1-6.77-3.749zM1190 838.8l16-9 25-9.5 24-8 10-1.5 3.5 15.5-66.4 22.596a6.994 6.994 0 0 1-8.41-3.293L1190 838.8z" fill="#fff"/><path d="m1102.19 869.528-4.73-9.102 17.25-7.317.18-.052 31.5-4.5.11-.008h40.75v14.556c0 2.477-1.9 4.539-4.37 4.735l-73.19 5.838a7.76 7.76 0 0 1-7.5-4.15zm1.33-.692a6.259 6.259 0 0 0 6.05 3.347l73.19-5.838a3.248 3.248 0 0 0 2.99-3.24v-13.056h-39.2l-31.35 4.479-15.66 6.645 3.98 7.663zm85.97-30.829 16.64-9.361.1-.048 25.03-9.51 24-8 .13-.031 10.69-1.603 3.8 16.838-67.04 22.813a7.747 7.747 0 0 1-9.31-3.645l-4.04-7.453zm5.35 6.738a6.257 6.257 0 0 0 7.51 2.94l65.77-22.379-3.2-14.162-9.24 1.387-23.91 7.969-24.95 9.48-15.31 8.611 3.33 6.154zm-182.09-88.861c2.96 26.253-6.4 39.166-28.25 39.166a.75.75 0 0 0 0 1.5c22.82 0 32.79-13.754 29.75-40.834a.754.754 0 0 0-1.5.168z" fill="#575757"/><path d="m1172.83 874.203.74 12.187c.04.607-.01 1.217-.14 1.811a6.756 6.756 0 0 1-8.01 5.213 6.273 6.273 0 0 1-4.02-9.463l9.71-15.564a.723.723 0 0 1 .43-.328c.14-.379.58-.633 1.02-.432l16.09 7.338a6.758 6.758 0 0 1 2.38 10.491 6.283 6.283 0 0 1-10.25-.889l-6.85-11.854 8.49 27.025c.12.395-.1.816-.49.94a.746.746 0 0 1-.94-.49l-8.16-25.985zm-.76 12.279-.93-15.31-8.47 13.573a4.78 4.78 0 0 0 1.52 6.581c.48.295 1 .505 1.54.621a5.266 5.266 0 0 0 6.24-4.056c.09-.463.13-.937.1-1.409zm2-16.516 8.01 13.85a4.779 4.779 0 0 0 7.8.677 5.262 5.262 0 0 0-.66-7.409 5.165 5.165 0 0 0-1.19-.754l-13.96-6.364z" fill="#575757"/></svg>