<svg width="1840" height="1380" viewBox="0 0 1840 1380" fill="none" xmlns="http://www.w3.org/2000/svg">
<path fill-rule="evenodd" clip-rule="evenodd" d="M1221.26 960.546L1272 855.8L569 861.196L600 944.495C609.607 961.918 624.441 981.186 644.5 1002.3C664.559 1023.41 701.059 1047.71 754 1075.2L764 1041.8L895.5 1129.3L913.5 1101.7L931.5 1139.7L1066 1075.2L1077.5 1041.7L1097 1065.7L1138.5 1041.8L1211.19 974.169C1215.36 970.29 1218.77 965.671 1221.26 960.546Z" fill="white"/>
<path d="M763.131 1041.69C755.491 1024.47 748.041 990.055 740.757 938.405C740.7 937.995 740.985 937.615 741.395 937.557C741.806 937.499 742.185 937.785 742.243 938.195C749.459 989.363 756.835 1023.56 764.347 1040.73L895.285 1127.86L912.872 1100.89C932.925 1070.08 947.582 1045.93 956.837 1028.45C966.09 1010.97 975.411 989.834 984.799 965.034L986.202 965.565C976.793 990.42 967.447 1011.61 958.163 1029.15C948.918 1046.61 934.316 1070.68 914.357 1101.36L931.855 1138.3L1065.39 1074.26L1077.23 1039.78L1097.18 1064.33L1138.05 1040.8L1210.68 973.224C1214.78 969.408 1218.14 964.864 1220.58 959.823L1270.8 856.163L570.076 861.542L600.684 943.786C610.257 961.133 625.044 980.336 645.044 1001.39C664.932 1022.32 701.103 1046.44 753.542 1073.72L763.131 1041.69ZM895.715 1129.95L764.428 1042.59L754.459 1075.88L753.655 1075.47C700.646 1047.95 664.086 1023.61 643.956 1002.42C623.856 981.264 608.985 961.947 599.343 944.462L599.297 944.361L567.924 860.058L1273.2 854.645L1221.93 960.477C1219.41 965.685 1215.94 970.38 1211.7 974.322L1139.01 1041.95L1138.87 1042.05L1096.82 1066.27L1077.77 1042.82L1066.61 1075.34L931.145 1140.3L913.396 1102.83L895.715 1129.95ZM1065.29 1074.56L1065.68 1074.12L1065.39 1074.26L1065.29 1074.56Z" fill="#575757"/>
<path fill-rule="evenodd" clip-rule="evenodd" d="M920.5 919.403C929.702 919.403 942.632 918.835 959.292 917.697L985 968.3L998.5 938.3L1009 943.8L1021.5 917.8C1188.5 896.172 1272 876.443 1272 858.613C1272 842.382 1240.82 834.3 1190.5 822.743C1153.94 814.346 1107.65 800.934 1054 796.689C1039.72 795.56 1024.03 797.488 1009 796.689C980.477 795.174 951.654 791.403 920.5 791.403C879.62 791.403 841.494 794.236 805 796.689C725.046 802.065 663.467 816.867 621.5 830.294C591.659 839.842 568.5 846.623 568.5 858.8C568.5 873.912 618.142 888.135 717.427 901.47L741.5 938.903L750.5 905.055C757.819 905.851 763.353 906.465 767.099 906.896C813.441 912.223 865.572 919.403 920.5 919.403Z" fill="#575757"/>
<path fill-rule="evenodd" clip-rule="evenodd" d="M666.277 828.201C737.219 663.425 785.794 559.625 812 516.8C839.333 472.133 858.833 444.8 870.5 434.8V834.633C870.5 844.192 864.328 852.656 855.228 855.579C830.903 863.393 800.327 867.3 763.5 867.3C730.943 867.3 703.36 864.247 680.748 858.14C669.018 854.972 662.077 842.895 665.245 831.165C665.518 830.154 665.863 829.163 666.277 828.201Z" fill="white"/>
<path d="M809.25 570.172V523.317C791.365 554.012 764.546 609.051 728.801 688.423L809.25 570.172ZM725.774 695.154C708.391 733.874 688.955 778.19 667.466 828.101C667.066 829.03 666.733 829.987 666.469 830.964C663.409 842.294 670.114 853.96 681.444 857.019C686.623 858.418 692.064 859.656 697.768 860.733L725.774 695.154H725.774ZM699.304 861.018C718.072 864.441 739.638 866.153 764 866.153C774.597 866.153 784.673 865.829 794.23 865.181L782.936 720.32L699.304 861.018ZM782.786 717.637L808.639 573.737L727.712 692.69L699.91 857.063L782.786 717.637ZM810.722 570.627L785.523 710.882L842.25 570.257C842.253 570.22 842.258 570.181 842.267 570.142L870.25 439.824V438.988L810.722 570.627ZM784.261 718.02L795.545 862.742L869.217 721.783L842.719 573.103L784.261 718.02ZM870.25 446.968L844.477 566.993L870.25 531.555V446.968ZM870.25 534.106L843.78 570.503L870.25 719.031V534.106ZM871.75 531.809V834.237C871.75 844.121 865.368 852.874 855.958 855.897C831.55 863.737 800.899 867.653 764 867.653C731.382 867.653 703.734 864.593 681.053 858.467C668.923 855.192 661.745 842.703 665.021 830.573C665.303 829.527 665.66 828.503 666.089 827.508C737.046 662.696 785.628 558.879 811.86 516.012C839.237 471.274 858.763 443.904 870.512 433.834L871.75 432.772V433.696C871.77 433.703 871.789 433.711 871.809 433.72C872.186 433.89 872.354 434.335 872.183 434.712L871.75 435.671V439.887C871.75 439.897 871.75 439.907 871.75 439.918V531.791C871.75 531.797 871.75 531.803 871.75 531.809ZM869.684 436.599C857.928 447.687 839.06 474.437 813.14 516.795C812.322 518.131 811.482 519.527 810.621 520.982C810.702 521.102 810.75 521.247 810.75 521.403V566.924L869.684 436.599ZM870.25 723.044L796.028 865.055C818.861 863.399 838.685 859.87 855.499 854.469C864.289 851.645 870.25 843.469 870.25 834.237V723.044Z" fill="#575757"/>
<path fill-rule="evenodd" clip-rule="evenodd" d="M870.426 434.821C870.617 434.848 870.809 434.876 871 434.903L764 486.403L746 452.903L732.5 475.403L690 486.403V460.903L668.5 486.403L636.5 494.403C637.5 492.403 653.167 478.57 683.5 452.903C713.728 427.326 775.901 421.278 870.018 434.762C870.108 434.56 870.198 434.359 870.287 434.157L750.533 392.758V369.333L715 378.443L679.467 361.958L685.967 337.232L637.867 348.944L604.5 337.232L612.3 313.372L572.433 330.291L520 322.916C540.222 294.574 589.767 280.403 668.633 280.403C747.288 280.403 814.592 331.461 870.547 433.575C918.681 325.788 979.148 265.553 1051.95 252.871C1125.12 240.124 1165.49 236.845 1173.04 243.035L1123 279.903L1089.87 280.136L1101 297.403L1037 338.903L1016 325.903V346.403L966.5 373.403L947.5 365.903L941 386.903L870.426 434.821ZM871.5 434.503C917.2 415.254 959.533 406.387 998.5 407.903C1037.47 409.419 1070.8 421.23 1098.5 443.334L1063 448.403L1040 443.403V460.903L998.429 472.403L984.816 443.334L978.562 472.403L937.356 468.724V448.486L923.007 460.26L871.5 434.503Z" fill="#575757"/>
<path fill-rule="evenodd" clip-rule="evenodd" d="M1149.79 673.154L1171.79 701.154L1211.29 675.154L1216.94 656.789C1217.17 656.033 1217.36 655.264 1217.5 654.486L1221.85 630.567C1222.25 628.355 1220.78 626.237 1218.57 625.835C1216.36 625.432 1214.24 626.899 1213.84 629.111C1213.78 629.455 1213.76 629.805 1213.79 630.154C1214.01 633.047 1209.53 641.479 1200.33 655.449L1211.29 630.154L1202.86 613.374L1167.79 645.154L1149.79 673.154Z" fill="white"/>
<path d="M1211.84 630.247L1202.81 612.272L1167 644.714L1166.88 644.865L1148.59 673.314L1171.34 702.276L1211.65 675.748L1217.38 657.126C1217.62 656.341 1217.81 655.543 1217.96 654.736L1222.31 630.817C1222.78 628.198 1221.05 625.689 1218.43 625.213C1215.81 624.736 1213.3 626.473 1212.82 629.092C1212.75 629.5 1212.73 629.915 1212.76 630.328C1212.92 632.425 1210.13 638.176 1204.42 647.355L1211.84 630.247ZM1168.08 645.759L1202.36 614.708L1210.18 630.293L1199.36 655.267L1200.68 655.978C1210.01 641.798 1214.5 633.36 1214.26 630.212C1214.23 629.927 1214.25 629.641 1214.3 629.361C1214.63 627.557 1216.36 626.36 1218.16 626.688C1219.96 627.016 1221.16 628.744 1220.83 630.548L1216.48 654.467C1216.35 655.217 1216.17 655.957 1215.94 656.685L1210.37 674.792L1171.67 700.264L1150.43 673.227L1168.08 645.759Z" fill="#575757"/>
<path fill-rule="evenodd" clip-rule="evenodd" d="M864.71 639.576L866 642.995L889 641.945L901 661.945L866 661.936C866 668.849 871.604 674.454 878.518 674.454C878.836 674.454 879.153 674.442 879.47 674.417L914.014 671.783C920.986 671.251 927.375 667.694 931.5 662.049L928 631.945L927.214 631.486C923.77 629.477 919.972 628.152 916.026 627.582L877 621.945C869.804 621.89 863.925 627.679 863.87 634.876C863.858 636.481 864.143 638.075 864.71 639.576Z" fill="white"/>
<path d="M899.675 661.049L865.25 661.04V661.79C865.25 669.118 871.19 675.058 878.518 675.058C878.855 675.058 879.191 675.045 879.527 675.02L914.071 672.385C921.261 671.837 927.851 668.168 932.106 662.345L932.279 662.108L928.702 631.34L927.592 630.693C924.065 628.635 920.174 627.278 916.133 626.694L877.107 621.057L877.006 621.049C869.395 620.991 863.179 627.114 863.121 634.724C863.108 636.422 863.408 638.107 864.008 639.696L865.491 643.624L888.587 642.569L899.675 661.049ZM915.919 628.179C919.769 628.735 923.476 630.028 926.836 631.989L927.298 632.258L930.721 661.695C926.721 667.027 920.613 670.382 913.957 670.889L879.413 673.524C879.115 673.547 878.816 673.558 878.518 673.558C872.271 673.558 867.16 668.69 866.774 662.541L902.325 662.55L889.413 641.03L866.51 642.076L865.411 639.166C864.877 637.751 864.609 636.249 864.62 634.736C864.672 627.97 870.185 622.525 876.944 622.549L915.919 628.179Z" fill="#575757"/>
<path fill-rule="evenodd" clip-rule="evenodd" d="M1197.95 842.669L1237.72 807.8L1316.26 854.573C1318.08 855.659 1319.2 857.628 1319.19 859.751C1319.18 863.065 1316.48 865.741 1313.17 865.728L1215.65 865.35C1208.1 865.321 1201.61 860.029 1200.05 852.649L1197.95 842.669ZM1116 868.835L1177.99 860.079L1206.74 935.268C1207.84 938.155 1207.39 941.407 1205.54 943.88C1202.55 947.858 1196.91 948.665 1192.94 945.684L1123.41 893.578C1119.38 890.555 1116.89 885.898 1116.63 880.864L1116 868.835Z" fill="white"/>
<path d="M1196.91 842.498L1237.42 806.98L1316.43 854.032C1318.48 855.254 1319.73 857.47 1319.72 859.858C1319.71 863.586 1316.67 866.596 1312.95 866.582L1215.43 866.204C1207.53 866.173 1200.73 860.634 1199.1 852.908L1196.91 842.498ZM1200.57 852.599C1202.05 859.632 1208.24 864.676 1215.43 864.704L1312.95 865.082C1315.85 865.093 1318.21 862.752 1318.22 859.852C1318.23 857.994 1317.25 856.271 1315.66 855.321L1237.58 808.827L1198.56 843.047L1200.57 852.599ZM1115 868.292L1178.25 859.357L1207.22 935.104C1208.42 938.232 1207.93 941.754 1205.92 944.434C1202.69 948.743 1196.58 949.618 1192.27 946.389L1122.74 894.282C1118.53 891.126 1115.94 886.263 1115.66 881.007L1115 868.292ZM1117.16 880.929C1117.41 885.74 1119.79 890.192 1123.64 893.082L1193.17 945.188C1196.81 947.921 1201.98 947.18 1204.72 943.534C1206.42 941.267 1206.83 938.286 1205.82 935.64L1177.28 861.009L1116.57 869.585L1117.16 880.929Z" fill="#575757"/>
<path d="M1203 756.3C1226.16 756.3 1244.93 737.528 1244.93 714.372C1244.93 705.805 1242.3 697.443 1237.41 690.413L1210.5 645.8L1207.95 650.728L1233.3 693.27C1237.62 699.462 1239.93 706.826 1239.93 714.372C1239.93 734.767 1223.39 751.3 1203 751.3V756.3Z" fill="#DAFFD0"/>
<path d="M1202.53 757.153C1226.1 757.153 1245.21 738.046 1245.21 714.475C1245.21 705.755 1242.54 697.244 1237.55 690.087L1210.67 645.516L1209.98 644.368L1206.62 650.857L1232.19 693.757C1236.44 699.868 1238.71 707.083 1238.71 714.475C1238.71 734.456 1222.51 750.653 1202.53 750.653H1201.78V757.153H1202.53ZM1203.28 752.146C1223.74 751.746 1240.21 735.034 1240.21 714.475C1240.21 706.777 1237.85 699.263 1233.45 692.945L1208.34 650.806L1210.08 647.438L1236.29 690.903C1241.13 697.849 1243.71 706.061 1243.71 714.475C1243.71 736.967 1225.67 755.246 1203.28 755.646V752.146Z" fill="#575757"/>
<path d="M883 650.364C886.851 649.62 889.517 650.12 891 651.864C898.286 660.438 899.686 672.648 900.513 680.746C905.102 725.671 903.726 773.908 894.628 801.202C888.202 820.481 898.621 841.319 917.9 847.746C934.366 853.234 952.427 846.471 961.238 831.518C977.251 804.342 994.975 780.211 1007 752.364L1002.41 750.382C990.468 778.036 972.839 801.981 956.93 828.979C949.317 841.901 933.709 847.745 919.481 843.002C902.822 837.449 893.819 819.442 899.372 802.783C908.75 774.649 910.142 725.814 905.487 680.238C904.483 670.405 901 654.364 892.5 646.364C891.166 645.109 888 644.609 883 644.864V650.364Z" fill="#DAFFD0"/>
<path d="M883.142 651.536C886.755 650.837 889.156 651.287 890.428 652.785C896.244 659.628 898.379 667.667 899.767 681.258C904.592 728.498 902.572 775.433 893.917 801.4C887.359 821.072 897.991 842.335 917.663 848.892C934.464 854.493 952.894 847.591 961.884 832.333C965.154 826.784 968.562 821.234 973.148 813.931C972.84 814.421 981.496 800.691 983.876 796.864C994.856 779.212 1001.88 766.558 1007.69 753.097L1007.99 752.408L1002.02 749.832L1001.72 750.52C995.996 763.778 989.068 776.26 978.215 793.69C975.855 797.479 967.274 811.077 967.567 810.61C962.972 817.921 959.56 823.475 956.284 829.034C948.85 841.65 933.611 847.357 919.719 842.726C903.452 837.304 894.661 819.722 900.083 803.455C909.072 776.49 911.16 728.827 906.233 680.597C904.806 666.626 900.368 653.174 893.014 646.253C891.48 644.81 888.158 644.285 882.962 644.551L882.25 644.587V651.709L883.142 651.536ZM883.75 646.017C888.14 645.853 890.909 646.333 891.986 647.346C899.007 653.954 903.348 667.108 904.741 680.75C909.648 728.786 907.568 776.257 898.66 802.981C892.976 820.033 902.192 838.465 919.244 844.149C933.808 849.003 949.783 843.021 957.577 829.795C960.844 824.251 964.249 818.708 968.837 811.409C968.541 811.879 977.126 798.276 979.488 794.483C990.19 777.295 997.097 764.889 1002.8 751.803L1006.01 753.19C1000.29 766.315 993.359 778.78 982.603 796.072C980.225 799.894 971.572 813.62 971.878 813.133C967.285 820.447 963.87 826.009 960.592 831.572C951.961 846.22 934.267 852.846 918.137 847.469C899.251 841.174 889.044 820.76 895.34 801.874C904.076 775.666 906.104 728.538 901.259 681.105C899.841 667.223 897.648 658.964 891.572 651.814C890.005 649.97 887.375 649.362 883.75 649.909V646.017Z" fill="#575757"/>
<path fill-rule="evenodd" clip-rule="evenodd" d="M833.957 626.225L833.831 672.888C833.825 675.098 835.611 676.893 837.82 676.899C837.956 676.9 838.093 676.893 838.229 676.879L862.709 674.428C875.476 673.15 885.266 662.519 885.49 649.69C885.712 636.964 876.163 626.183 863.503 624.868L838.37 622.257C836.173 622.029 834.207 623.625 833.978 625.822C833.964 625.956 833.957 626.09 833.957 626.225Z" fill="#DAFFD0"/>
<path d="M833.11 672.989C833.103 675.613 835.224 677.745 837.847 677.752C838.01 677.753 838.172 677.745 838.334 677.728L862.814 675.277C875.959 673.961 886.039 663.015 886.27 649.806C886.499 636.691 876.657 625.58 863.61 624.225L838.478 621.614C835.868 621.343 833.533 623.238 833.262 625.847C833.246 626.006 833.237 626.166 833.237 626.325L833.11 672.989ZM834.754 626.002C834.94 624.217 836.537 622.92 838.323 623.106L863.455 625.717C875.728 626.992 884.985 637.443 884.77 649.78C884.553 662.228 875.053 672.544 862.664 673.785L838.184 676.236C838.074 676.247 837.963 676.252 837.851 676.252C836.057 676.247 834.605 674.788 834.61 672.993L834.737 626.33C834.737 626.22 834.743 626.111 834.754 626.002Z" fill="#575757"/>
<path fill-rule="evenodd" clip-rule="evenodd" d="M810.75 637.678V644.178H833.25V637.678H810.75ZM810.75 658.678V665.178H833.25V658.678H810.75Z" fill="#575757" stroke="#575757" stroke-width="1.5"/>
<path fill-rule="evenodd" clip-rule="evenodd" d="M1083.99 641.581L1036.16 639.725C1023.06 638.886 1010.24 643.815 1001.07 653.219L996.016 658.404L961.516 694.904C954.985 661.652 949.985 652.881 945.516 644.8C942.536 639.412 934.536 634.079 921.516 628.8L920.016 698.904L919.023 726.154C918.339 744.92 932.998 760.686 951.763 761.37C963.752 761.806 975.084 755.892 981.582 745.806L996.016 723.404L991.016 765.404L1048.55 759.383C1061.99 758.249 1083.27 747.53 1083.97 734.054L1144.02 748.3L1176.01 708.86L1176.82 707.861C1178.9 705.288 1178.65 701.541 1176.25 699.265L1149.27 673.766L1149.2 673.696C1146.29 670.951 1141.75 670.96 1138.85 673.715L1112.52 698.8L1105.75 660.555C1103.86 649.9 1094.8 642.001 1083.99 641.581Z" fill="white"/>
<path d="M946.656 643.937C943.571 638.358 935.449 632.943 922.282 627.604C921.795 627.407 921.261 627.758 921.25 628.284L919.75 698.387L918.758 725.627C918.059 744.806 933.041 760.92 952.22 761.619C964.474 762.065 976.056 756.02 982.697 745.712L995.371 726.04L990.755 764.815C990.698 765.292 991.1 765.699 991.578 765.649L1049.11 759.628C1065.03 758.286 1083.65 746.659 1085.13 734.484L1144.33 748.529C1144.61 748.596 1144.9 748.496 1145.08 748.272L1177.88 707.834C1180.22 704.956 1179.94 700.765 1177.25 698.22L1150.2 672.651C1147 669.632 1142 669.641 1138.82 672.672L1113.49 696.792L1106.97 659.924C1105.02 648.922 1095.67 640.765 1084.5 640.331L1036.68 638.475C1023.37 637.624 1010.34 642.635 1001.02 652.195L995.963 657.38L962.454 692.831C957.212 666.422 953.675 656.628 946.656 643.937ZM1143.92 747.327L1144.67 747.07L1144.21 746.961L1143.92 747.327ZM1084.63 732.824C1084.17 732.716 1083.73 733.048 1083.71 733.515C1083.11 745.071 1064.63 756.814 1048.97 758.135L992.356 764.06L997.245 722.992C997.339 722.202 996.3 721.828 995.869 722.497L981.436 744.9C975.082 754.763 964 760.547 952.275 760.12C933.923 759.451 919.588 744.033 920.257 725.682L921.249 698.431L922.726 629.408C935.004 634.491 942.546 639.603 945.344 644.663C952.41 657.441 955.895 667.209 961.264 694.548C961.382 695.146 962.126 695.362 962.545 694.919L997.045 658.419L1002.09 653.242C1011.11 643.995 1023.71 639.149 1036.6 639.973L1084.45 641.83C1094.91 642.236 1103.67 649.878 1105.49 660.186L1112.26 698.43C1112.37 699.019 1113.08 699.255 1113.52 698.843L1139.86 673.758C1142.46 671.278 1146.55 671.27 1149.16 673.741L1176.22 699.31C1178.34 701.317 1178.56 704.62 1176.72 706.889L1144.21 746.961L1084.63 732.824Z" fill="#575757"/>
<path fill-rule="evenodd" clip-rule="evenodd" d="M1048.5 845.196H1073.69C1083.49 845.196 1092.9 841.305 1099.83 834.377L1163 771.3L1197 849.3L1268.5 825.8L1213.99 730.406C1201.92 709.281 1175.48 701.21 1153.67 711.989L1106.5 735.3L1035.03 815.037C1028.36 822.476 1028.99 833.911 1036.43 840.578C1039.75 843.552 1044.04 845.196 1048.5 845.196Z" fill="white"/>
<path d="M1197.09 850.329L1270.11 826.329L1215.14 730.137C1202.87 708.668 1176.01 700.465 1153.84 711.42L1106.54 734.795L1034.97 814.64C1028.03 822.387 1028.68 834.296 1036.43 841.24C1039.88 844.337 1044.36 846.05 1049 846.05H1074.19C1084.19 846.05 1093.79 842.08 1100.86 835.012L1163.25 772.711L1197.09 850.329ZM1154.5 712.765C1175.96 702.161 1201.96 710.101 1213.84 730.882L1267.89 825.478L1197.91 848.478L1163.75 770.096L1099.8 833.95C1093.01 840.738 1083.79 844.55 1074.19 844.55H1049C1044.73 844.55 1040.61 842.974 1037.43 840.123C1030.3 833.732 1029.7 822.772 1036.09 815.642L1107.46 736.012L1154.5 712.765Z" fill="#575757"/>
<path fill-rule="evenodd" clip-rule="evenodd" d="M991.5 764.695L981.714 807.154C977.445 825.676 988.999 844.151 1007.52 848.42C1010.06 849.004 1012.65 849.299 1015.25 849.299H1045.1C1053.57 849.299 1061.59 845.463 1066.91 838.864L1090 810.195L1106.5 873.299L1186.5 863.695L1166.61 750.362C1162.21 725.339 1138.37 708.615 1113.34 713.008C1109.76 713.638 1106.26 714.69 1102.92 716.145L991.5 764.695Z" fill="white"/>
<path d="M1091.22 812.006L1107.06 872.581L1185.62 863.15L1165.87 750.596C1161.55 725.982 1138.09 709.53 1113.47 713.851C1109.95 714.471 1106.51 715.506 1103.22 716.937L992.146 765.337L982.445 807.427C978.269 825.545 989.571 843.618 1007.69 847.794C1010.17 848.365 1012.71 848.654 1015.25 848.654H1045.1C1053.35 848.654 1061.15 844.92 1066.32 838.498L1089.3 809.974L1083.77 786.472C1083.67 786.069 1083.92 785.665 1084.33 785.57C1084.73 785.475 1085.14 785.725 1085.23 786.128L1091.23 811.628C1091.26 811.757 1091.26 811.887 1091.22 812.006ZM1105.94 874.226L1089.65 811.929L1067.49 839.439C1062.03 846.214 1053.8 850.154 1045.1 850.154H1015.25C1012.59 850.154 1009.94 849.852 1007.35 849.255C988.427 844.893 976.621 826.015 980.983 807.09L990.854 764.263L1102.62 715.562C1106.01 714.084 1109.57 713.014 1113.21 712.374C1138.64 707.91 1162.88 724.906 1167.34 750.337L1187.38 864.45L1105.94 874.226Z" fill="#575757"/>
<path fill-rule="evenodd" clip-rule="evenodd" d="M1181.69 587.073L1163.48 663.073C1162.2 668.444 1165.51 673.841 1170.88 675.128C1171.64 675.311 1172.42 675.403 1173.21 675.403H1195.6C1200.25 675.403 1204.28 672.206 1205.34 667.685L1223.15 591.685C1224.41 586.308 1221.07 580.927 1215.7 579.667C1214.95 579.492 1214.18 579.403 1213.41 579.403H1191.42C1186.79 579.403 1182.77 582.575 1181.69 587.073Z" fill="#575757"/>
<path fill-rule="evenodd" clip-rule="evenodd" d="M1050.03 641.196L1055.25 625.3H1042.61C1019.63 625.3 1001 606.67 1001 583.688C1001 580.27 1001.42 576.865 1002.25 573.55L1008.41 549.029C1012.43 533.022 1026.82 521.8 1043.33 521.8H1052.25C1071.54 521.8 1087.17 537.431 1087.17 556.713C1087.17 557.388 1087.15 558.063 1087.11 558.738L1082.03 643.196" fill="white"/>
<path d="M1049.29 640.565L1050.71 641.034L1056.26 624.153H1042.58C1020.01 624.153 1001.72 605.859 1001.72 583.292C1001.72 579.935 1002.13 576.591 1002.95 573.336L1009.11 548.815C1013.05 533.142 1027.14 522.153 1043.3 522.153H1052.22C1071.09 522.153 1086.39 537.449 1086.39 556.316C1086.39 556.977 1086.37 557.638 1086.33 558.298L1081.25 642.755L1082.75 642.845L1087.83 558.386C1087.87 557.696 1087.89 557.006 1087.89 556.316C1087.89 536.62 1071.92 520.653 1052.22 520.653H1043.3C1026.45 520.653 1011.76 532.109 1007.66 548.45L1001.5 572.971C1000.65 576.345 1000.22 579.812 1000.22 583.292C1000.22 606.687 1019.19 625.653 1042.58 625.653H1054.19L1049.29 640.565Z" fill="#575757"/>
<path fill-rule="evenodd" clip-rule="evenodd" d="M536 938.3L562 982.8C544.667 1016.8 536 1033.8 536 1033.8C536 1033.8 552.333 1020.13 585 992.8L595.283 1002.03L585 1027.3L619.094 1020.39C635.641 1029.33 646.943 1033.8 653 1033.8C660.995 1033.8 670.705 1029.5 682.131 1020.89C688.872 1015.81 699.976 1005.09 715.443 988.722C718.632 985.347 718.731 980.1 715.67 976.608C688.907 946.069 668.017 930.8 653 930.8C637 930.8 614.333 943.633 585 969.3L536 938.3Z" fill="#DAFFD0"/>
<path d="M561.146 982.824L535.332 1033.46C534.961 1034.19 535.855 1034.9 536.481 1034.38L584.983 993.792L594.39 1002.23L584.305 1027.02C584.08 1027.57 584.562 1028.15 585.149 1028.03L618.977 1021.18C635.504 1030.09 646.804 1034.55 653 1034.55C661.188 1034.55 671.038 1030.18 682.583 1021.49C689.367 1016.38 700.493 1005.63 715.988 989.237C719.443 985.581 719.55 979.897 716.234 976.114C689.335 945.419 668.308 930.05 653 930.05C636.842 930.05 614.185 942.834 584.928 968.367L536.401 937.666C535.737 937.246 534.956 938 535.352 938.678L561.146 982.824ZM584.599 969.934C584.88 970.111 585.244 970.083 585.494 969.864C614.7 944.309 637.236 931.55 653 931.55C667.726 931.55 688.48 946.719 715.106 977.102C717.911 980.303 717.821 985.113 714.898 988.206C699.458 1004.54 688.377 1015.24 681.68 1020.29C670.372 1028.81 660.801 1033.05 653 1033.05C647.112 1033.05 635.886 1028.61 619.45 1019.73C619.296 1019.65 619.117 1019.62 618.945 1019.66L586.222 1026.29L595.978 1002.31C596.097 1002.02 596.02 1001.68 595.784 1001.47L585.501 992.242C585.223 991.992 584.805 991.985 584.519 992.225L538.337 1030.87L562.668 983.14C562.784 982.913 562.776 982.642 562.648 982.421L538.201 940.579L584.599 969.934Z" fill="#575757"/>
<path fill-rule="evenodd" clip-rule="evenodd" d="M828.545 1015L815 1033.8C824.03 1048.47 828.545 1055.8 828.545 1055.8C828.545 1055.8 835.496 1049.96 849.398 1038.29C898.716 1049.96 926.757 1055.8 933.519 1055.8C939.155 1055.8 949.702 1050.8 965.158 1040.81C968.868 1038.41 969.931 1033.45 967.531 1029.74C966.945 1028.84 966.18 1028.06 965.284 1027.45C949.796 1017.02 939.208 1011.8 933.519 1011.8C926.709 1011.8 898.669 1017.28 849.398 1028.25L828.545 1015Z" fill="#DAFFD0"/>
<path d="M933.519 1056.55C939.355 1056.55 949.984 1051.51 965.566 1041.44C969.623 1038.81 970.786 1033.39 968.161 1029.34C967.52 1028.34 966.683 1027.49 965.703 1026.83C950.087 1016.31 939.414 1011.05 933.519 1011.05C926.639 1011.05 898.72 1016.51 849.538 1027.45L828.35 1013.99L814.099 1033.77L828.362 1056.93L849.592 1039.1C898.788 1050.75 926.683 1056.55 933.519 1056.55ZM849.258 1029.05L849.561 1028.98C898.733 1018.04 926.794 1012.55 933.519 1012.55C939.001 1012.55 949.506 1017.73 964.865 1028.08C965.677 1028.62 966.37 1029.33 966.902 1030.15C969.076 1033.51 968.113 1038 964.751 1040.18C949.42 1050.09 938.956 1055.05 933.519 1055.05C926.847 1055.05 898.784 1049.21 849.571 1037.56L849.204 1037.47L828.728 1054.67L815.901 1033.83L828.74 1016.02L849.258 1029.05Z" fill="#575757"/>
<path fill-rule="evenodd" clip-rule="evenodd" d="M1103 1014.25L1106.5 1047.3C1104.17 1072.3 1103 1084.8 1103 1084.8C1103 1084.8 1115.01 1074.7 1139.02 1054.51C1160.67 1074.7 1177.33 1084.8 1189.01 1084.8C1198.19 1084.8 1210.44 1077.05 1225.77 1061.54C1233.78 1053.44 1234.28 1040.57 1226.93 1031.87C1217.99 1021.29 1210.01 1013.6 1203 1008.8C1192.98 1001.94 1176.57 995.275 1153.78 988.8L1157.75 1019.33L1139.02 1037.15L1103 1014.25Z" fill="#DAFFD0"/>
<path fill-rule="evenodd" clip-rule="evenodd" d="M1103 1013.75L1106.5 1046.8C1104.17 1071.8 1103 1084.3 1103 1084.3C1103 1084.3 1115.01 1074.2 1139.02 1054.01C1160.67 1074.2 1177.33 1084.3 1189.01 1084.3C1198.19 1084.3 1210.44 1076.55 1225.77 1061.04C1233.78 1052.94 1234.28 1040.07 1226.93 1031.37C1217.99 1020.79 1210.01 1013.1 1203 1008.3C1192.98 1001.44 1176.57 994.775 1153.78 988.3L1157.75 1018.83L1139.02 1036.65L1103 1013.75Z" fill="#DAFFD0" stroke="#575757" stroke-width="1.5" stroke-linejoin="round"/>
<path fill-rule="evenodd" clip-rule="evenodd" d="M883 639.8H887C889.209 639.8 891 641.591 891 643.8V655.8C891 658.009 889.209 659.8 887 659.8H883V639.8Z" fill="#DAFFD0"/>
<path d="M883 639.8H887C889.209 639.8 891 641.591 891 643.8V655.8C891 658.009 889.209 659.8 887 659.8H883V639.8ZM884.5 641.3V658.3H887C888.381 658.3 889.5 657.181 889.5 655.8V643.8C889.5 642.419 888.381 641.3 887 641.3H884.5Z" fill="#575757"/>
<path d="M1183.5 671.3C1181.84 671.3 1180.5 669.957 1180.5 668.3C1180.5 666.643 1181.84 665.3 1183.5 665.3C1184.17 665.3 1184.81 665.522 1185.33 665.925C1186.06 666.489 1186.5 667.359 1186.5 668.3C1186.5 669.957 1185.16 671.3 1183.5 671.3ZM1183.5 670.3C1184.6 670.3 1185.5 669.405 1185.5 668.3C1185.5 667.672 1185.21 667.093 1184.72 666.716C1184.37 666.448 1183.95 666.3 1183.5 666.3C1182.4 666.3 1181.5 667.195 1181.5 668.3C1181.5 669.405 1182.4 670.3 1183.5 670.3ZM1196.59 581.3H1207.58L1208.01 578.718L1208.99 578.882L1208.42 582.3H1195.41L1196.01 578.718L1196.99 578.882L1196.59 581.3Z" fill="white"/>
<path fill-rule="evenodd" clip-rule="evenodd" d="M1226 1042.21L1214.16 1038.21C1211.46 1037.29 1208.54 1037.29 1205.84 1038.21L1194 1042.21L1204.73 1046.97C1208.09 1048.45 1211.91 1048.45 1215.27 1046.97L1226 1042.21Z" fill="white"/>
<path d="M1226.24 1041.5C1226.89 1041.72 1226.93 1042.62 1226.3 1042.89L1215.57 1047.65C1212.02 1049.22 1207.98 1049.22 1204.43 1047.65L1193.7 1042.89C1193.07 1042.62 1193.11 1041.72 1193.76 1041.5L1205.6 1037.5C1208.45 1036.53 1211.55 1036.53 1214.4 1037.5L1226.24 1041.5ZM1214.96 1046.28L1223.94 1042.3L1213.92 1038.92C1211.38 1038.06 1208.62 1038.06 1206.08 1038.92L1196.06 1042.3L1205.04 1046.28C1208.2 1047.68 1211.8 1047.68 1214.96 1046.28ZM1210 1044.8C1208.9 1044.8 1208 1043.9 1208 1042.8C1208 1041.7 1208.9 1040.8 1210 1040.8C1211.1 1040.8 1212 1041.7 1212 1042.8C1212 1043.9 1211.1 1044.8 1210 1044.8Z" fill="#575757"/>
<path fill-rule="evenodd" clip-rule="evenodd" d="M952 1033.21L940.163 1029.21C937.463 1028.29 934.537 1028.29 931.837 1029.21L920 1033.21L930.732 1037.97C934.087 1039.45 937.913 1039.45 941.268 1037.97L952 1033.21Z" fill="white"/>
<path d="M952.24 1032.5C952.888 1032.72 952.929 1033.62 952.304 1033.89L941.571 1038.65C938.024 1040.22 933.976 1040.22 930.429 1038.65L919.696 1033.89C919.071 1033.62 919.112 1032.72 919.76 1032.5L931.597 1028.5C934.453 1027.53 937.547 1027.53 940.403 1028.5L952.24 1032.5ZM940.964 1037.28L949.937 1033.3L939.923 1029.92C937.378 1029.06 934.622 1029.06 932.077 1029.92L922.063 1033.3L931.036 1037.28C934.197 1038.68 937.803 1038.68 940.964 1037.28ZM936 1035.8C934.895 1035.8 934 1034.9 934 1033.8C934 1032.7 934.895 1031.8 936 1031.8C937.105 1031.8 938 1032.7 938 1033.8C938 1034.9 937.105 1035.8 936 1035.8Z" fill="#575757"/>
<path fill-rule="evenodd" clip-rule="evenodd" d="M695 981.208L683.163 977.207C680.463 976.294 677.537 976.294 674.837 977.207L663 981.208L673.732 985.965C677.087 987.452 680.913 987.452 684.268 985.965L695 981.208Z" fill="white"/>
<path d="M695.24 980.498L683.403 976.497C680.547 975.531 677.453 975.531 674.597 976.497L662.76 980.498C662.112 980.717 662.071 981.617 662.696 981.894L673.429 986.651C676.976 988.223 681.024 988.223 684.571 986.651L695.304 981.894C695.929 981.617 695.888 980.717 695.24 980.498ZM683.964 985.279C680.803 986.68 677.197 986.68 674.036 985.279L665.063 981.303L675.077 977.918C677.622 977.057 680.378 977.057 682.923 977.918L692.937 981.303L683.964 985.279Z" fill="#575757"/>
<path d="M1014.61 579.835C1014.37 580.173 1013.91 580.255 1013.57 580.016C1013.23 579.777 1013.15 579.309 1013.39 578.971C1014.76 577.028 1016.32 576.053 1018.04 576.154C1020.48 576.297 1024.04 577.93 1026.02 579.866C1026.32 580.155 1026.33 580.629 1026.04 580.926C1025.75 581.223 1025.27 581.229 1024.98 580.94C1023.24 579.25 1020.03 577.773 1017.96 577.652C1016.82 577.585 1015.71 578.277 1014.61 579.835ZM1036.12 556.317C1039.64 554.052 1041.62 552.867 1042.27 552.653C1043.29 552.319 1044.38 552.193 1045.57 552.233C1046.61 552.267 1047.4 552.38 1049.07 552.682C1050.28 552.9 1050.78 552.97 1051.26 552.973C1051.51 552.974 1051.84 552.96 1052.31 552.93C1052.47 552.919 1053.4 552.854 1053.69 552.836C1054.41 552.79 1055.01 552.766 1055.58 552.764C1056.85 552.76 1057.89 552.873 1058.74 553.154C1059.59 553.433 1061.41 554.563 1064.33 556.6C1066.48 558.101 1067.01 561.061 1065.51 563.213C1065.14 563.74 1064.67 564.187 1064.13 564.526C1061.24 566.327 1059.49 567.327 1058.74 567.577C1057.98 567.832 1057.2 567.972 1056.36 568.019C1055.48 568.069 1054.87 568.037 1053.34 567.904C1052.54 567.835 1052.14 567.808 1051.71 567.806C1051.35 567.804 1050.95 567.828 1050.43 567.876C1050.12 567.906 1048.94 568.034 1048.93 568.034C1046.2 568.318 1044.35 568.257 1042.27 567.579C1041.54 567.339 1039.59 566.307 1036.33 564.431C1034.05 563.125 1033.27 560.222 1034.57 557.947C1034.95 557.287 1035.48 556.729 1036.12 556.317ZM1036.93 557.579C1036.5 557.86 1036.13 558.242 1035.87 558.694C1034.98 560.25 1035.52 562.237 1037.07 563.13C1040.22 564.935 1042.15 565.96 1042.74 566.153C1044.57 566.751 1046.23 566.807 1048.78 566.542C1048.77 566.543 1049.97 566.413 1050.29 566.383C1050.86 566.33 1051.3 566.304 1051.72 566.306C1052.2 566.309 1052.63 566.337 1053.47 566.409C1054.93 566.536 1055.49 566.566 1056.27 566.522C1056.99 566.481 1057.64 566.365 1058.27 566.155C1058.85 565.959 1060.58 564.975 1063.33 563.254C1063.71 563.021 1064.03 562.716 1064.28 562.356C1065.3 560.883 1064.94 558.857 1063.47 557.831C1060.69 555.895 1058.92 554.792 1058.27 554.578C1057.6 554.358 1056.71 554.26 1055.58 554.264C1055.04 554.266 1054.48 554.289 1053.78 554.333C1053.5 554.351 1052.58 554.416 1052.41 554.426C1051.9 554.459 1051.55 554.474 1051.25 554.473C1050.65 554.47 1050.11 554.393 1048.81 554.158C1047.2 553.869 1046.46 553.763 1045.52 553.732C1044.49 553.698 1043.57 553.804 1042.74 554.078C1042.27 554.231 1040.27 555.434 1036.93 557.579ZM1019.47 554.05C1019.6 553.657 1020.02 553.444 1020.42 553.574C1020.81 553.704 1021.02 554.129 1020.89 554.522L1015.55 570.654C1015.33 571.309 1015.69 572.017 1016.34 572.234C1016.58 572.311 1016.83 572.318 1017.06 572.253L1022.54 570.767C1022.94 570.658 1023.35 570.894 1023.46 571.294C1023.57 571.693 1023.33 572.106 1022.93 572.214L1017.46 573.701C1016.94 573.842 1016.39 573.827 1015.87 573.658C1014.43 573.18 1013.65 571.624 1014.13 570.182L1019.47 554.05ZM1007.31 554.629L1007.69 553.176C1008.7 553.436 1009.49 553.828 1010.03 554.373C1010.33 554.672 1010.91 555.43 1011.82 556.7C1013.35 558.832 1012.86 561.799 1010.73 563.328C1010.69 563.353 1010.69 563.353 1010.66 563.377C1009.22 564.365 1008.28 564.933 1007.74 565.114C1006.85 565.41 1005.73 565.41 1004.35 565.139L1004.65 563.667C1005.78 563.892 1006.66 563.892 1007.26 563.691C1007.62 563.572 1008.5 563.045 1009.81 562.143C1009.83 562.126 1009.83 562.126 1009.85 562.109C1011.31 561.063 1011.65 559.032 1010.6 557.574C1009.75 556.382 1009.19 555.65 1008.97 555.433C1008.64 555.103 1008.09 554.828 1007.31 554.629ZM1053.79 574.649C1054.04 573.962 1055.03 573.997 1055.22 574.701L1057.84 584.062C1058.46 586.265 1058.11 588.626 1056.88 590.556C1056.71 590.834 1056.48 591.083 1056.23 591.292C1054.9 592.379 1052.94 592.183 1051.86 590.855L1051.67 590.628C1050.11 588.718 1049.66 586.128 1050.5 583.806L1053.79 574.649ZM1056.4 584.466L1054.41 577.365L1051.91 584.314C1051.25 586.139 1051.6 588.176 1052.83 589.678L1053.02 589.905C1053.58 590.592 1054.59 590.694 1055.28 590.131C1055.41 590.023 1055.53 589.894 1055.62 589.75C1056.62 588.18 1056.9 586.259 1056.4 584.466Z" fill="#575757"/>
<path d="M1044 563.403C1045.93 563.403 1047.5 561.836 1047.5 559.903C1047.5 557.97 1045.93 556.403 1044 556.403C1042.07 556.403 1040.5 557.97 1040.5 559.903C1040.5 561.836 1042.07 563.403 1044 563.403Z" fill="#575757"/>
<path fill-rule="evenodd" clip-rule="evenodd" d="M1070.5 540.403C1036.1 545.142 1014.1 547.142 1004.5 546.403C996.732 545.806 990.559 542.857 985.98 537.556C984.897 536.303 985.035 534.408 986.289 533.325C986.71 532.962 987.223 532.722 987.772 532.634L1014 528.403L996 520.403L1030.5 521.903L1014 511.903L1046.5 517.403L1067 519.524C1079.84 520.852 1089.33 532.098 1088.48 544.978L1086.5 574.903L1070.5 540.403Z" fill="#575757"/>
<path d="M679 983.8C680.105 983.8 681 982.904 681 981.8C681 980.695 680.105 979.8 679 979.8C677.895 979.8 677 980.695 677 981.8C677 982.904 677.895 983.8 679 983.8Z" fill="#575757"/>
<path d="M1177.44 1035.47C1177.81 1035.27 1177.95 1034.82 1177.76 1034.45C1177.57 1034.09 1177.12 1033.94 1176.75 1034.13L1154.65 1045.63C1154.17 1045.89 1154.11 1046.56 1154.54 1046.89C1160.33 1051.4 1165.1 1054.28 1168.86 1055.51C1172.61 1056.74 1178.65 1057.42 1186.99 1057.55C1187.4 1057.56 1187.74 1057.23 1187.75 1056.81C1187.76 1056.4 1187.43 1056.06 1187.01 1056.05C1178.81 1055.92 1172.9 1055.26 1169.33 1054.09C1165.96 1052.98 1161.64 1050.43 1156.39 1046.42L1177.44 1035.47Z" fill="#575757"/>
<path d="M1155 1047.05C1161.74 1047.05 1168.48 1046.04 1175.22 1044.02C1175.61 1043.9 1175.84 1043.48 1175.72 1043.08C1175.6 1042.69 1175.18 1042.46 1174.78 1042.58C1168.19 1044.56 1161.59 1045.55 1155 1045.55C1154.59 1045.55 1154.25 1045.89 1154.25 1046.3C1154.25 1046.71 1154.59 1047.05 1155 1047.05Z" fill="#575757"/>
<path d="M1155.12 1046.95C1162.6 1051.37 1170.94 1052.9 1180.11 1051.54C1180.52 1051.48 1180.8 1051.1 1180.74 1050.69C1180.68 1050.28 1180.3 1050 1179.89 1050.06C1171.06 1051.37 1163.06 1049.9 1155.88 1045.65C1155.53 1045.44 1155.07 1045.56 1154.85 1045.92C1154.64 1046.27 1154.76 1046.73 1155.12 1046.95Z" fill="#575757"/>
<path d="M1158.49 1019.37L1168.24 1010.87C1168.56 1010.59 1168.59 1010.12 1168.32 1009.81C1168.04 1009.49 1167.57 1009.46 1167.26 1009.73L1157.51 1018.23C1157.19 1018.51 1157.16 1018.98 1157.43 1019.29C1157.71 1019.6 1158.18 1019.64 1158.49 1019.37Z" fill="#575757"/>
<path d="M1122.06 1046.8L1105.08 1067.77L1103.92 1066.83L1119.93 1047.05H1106.5C1106.09 1047.05 1105.75 1046.71 1105.75 1046.3C1105.75 1045.89 1106.09 1045.55 1106.5 1045.55H1119.73L1103.96 1029.32C1103.67 1029.03 1103.68 1028.55 1103.98 1028.26C1104.27 1027.97 1104.75 1027.98 1105.04 1028.28L1122.04 1045.78C1122.34 1046.09 1122.3 1046.53 1122.06 1046.8Z" fill="#575757"/>
<path d="M834.925 1034.42L835.222 1034.5L829.222 1056L827.778 1055.6L833.652 1034.55H815C814.586 1034.55 814.25 1034.21 814.25 1033.8C814.25 1033.38 814.586 1033.05 815 1033.05H833.477L827.785 1015.02C827.66 1014.63 827.879 1014.21 828.274 1014.08C828.669 1013.96 829.09 1014.18 829.215 1014.57L835.215 1033.57C835.32 1033.9 835.184 1034.24 834.925 1034.42Z" fill="#575757"/>
<path d="M883.584 1033.16L908.012 1033.55L907.988 1035.05L884.152 1034.67L912.167 1041.07C912.571 1041.16 912.823 1041.56 912.731 1041.97C912.639 1042.37 912.237 1042.62 911.833 1042.53L876.833 1034.53C876.05 1034.35 876.058 1033.23 876.843 1033.07L911.843 1025.57C912.248 1025.48 912.647 1025.74 912.733 1026.14C912.82 1026.55 912.562 1026.95 912.157 1027.03L883.584 1033.16Z" fill="#575757"/>
<path d="M573.491 983.05H562.5C562.086 983.05 561.75 982.714 561.75 982.3C561.75 981.886 562.086 981.55 562.5 981.55H573.333L535.439 938.797C535.164 938.487 535.193 938.013 535.503 937.739C535.813 937.464 536.287 937.492 536.561 937.802L575.561 981.802C575.798 982.07 575.814 982.468 575.598 982.753L536.598 1034.25C536.348 1034.58 535.877 1034.65 535.547 1034.4C535.217 1034.15 535.152 1033.68 535.402 1033.35L573.491 983.05ZM585.462 1027.89C585.135 1028.15 584.664 1028.09 584.409 1027.76C584.154 1027.43 584.212 1026.96 584.538 1026.71L637.038 985.709C637.365 985.454 637.836 985.512 638.091 985.838C638.346 986.165 638.288 986.636 637.962 986.891L585.462 1027.89ZM585.355 969.96C584.99 970.157 584.536 970.02 584.34 969.655C584.143 969.29 584.28 968.836 584.645 968.639C624.529 947.189 653.956 942.649 672.913 955.174C673.259 955.402 673.354 955.868 673.126 956.213C672.897 956.559 672.432 956.654 672.087 956.426C653.711 944.284 624.804 948.744 585.355 969.96Z" fill="#575757"/>
<path d="M619 1020.3C632.667 1014.97 638.833 1003.63 637.5 986.3" stroke="#575757" stroke-width="1.5" stroke-linecap="round" stroke-linejoin="round"/>
<path d="M596.12 1002.22C607.928 984.838 621.546 979.812 637.188 986.981C637.564 987.154 638.009 986.989 638.182 986.612C638.354 986.236 638.189 985.79 637.813 985.618C621.454 978.12 607.073 983.428 594.88 1001.38C594.647 1001.72 594.736 1002.19 595.079 1002.42C595.421 1002.65 595.888 1002.56 596.12 1002.22Z" fill="#575757"/>
<path d="M1092.77 701.138C1092.86 700.734 1093.26 700.478 1093.66 700.567C1094.07 700.656 1094.32 701.055 1094.23 701.46L1089.73 721.96C1089.64 722.365 1089.24 722.621 1088.84 722.532C1088.43 722.443 1088.18 722.043 1088.27 721.638L1092.77 701.138ZM1019.34 650.533C1018.59 650.372 1018.54 649.325 1019.27 649.087L1049.77 639.087C1050.23 638.935 1050.71 639.255 1050.75 639.739L1053.25 670.739C1053.28 671.176 1052.94 671.549 1052.5 671.549H1036.5C1035.89 671.549 1035.53 670.851 1035.9 670.356L1046.21 656.29L1019.34 650.533ZM1022.37 649.647L1047.66 655.066C1048.19 655.18 1048.43 655.804 1048.1 656.243L1037.98 670.049H1051.69L1049.33 640.809L1022.37 649.647ZM1087.7 670.539C1087.88 671.029 1087.52 671.549 1087 671.549H1075C1074.51 671.549 1074.16 671.095 1074.27 670.623L1081.27 641.623C1081.39 641.114 1081.99 640.885 1082.42 641.179L1096.42 650.679C1096.91 651.012 1096.84 651.755 1096.3 651.989L1082.95 657.708L1087.7 670.539ZM1075.95 670.049H1085.92L1081.3 657.56C1081.16 657.185 1081.34 656.767 1081.7 656.61L1094.44 651.15L1082.48 643.028L1075.95 670.049ZM1020.75 687.049V695.799C1020.75 702.841 1026.46 708.549 1033.5 708.549C1040.54 708.549 1046.25 702.841 1046.25 695.799V687.049H1020.75ZM1020.75 685.549H1046.25V682.549H1020.75V685.549ZM1087.28 689.261L1087.8 686.815L1078.5 684.84L1077.98 687.286L1087.28 689.261ZM1086.97 690.728L1077.67 688.753L1074.19 705.137C1073.65 707.703 1075.28 710.225 1077.85 710.771C1080.42 711.316 1082.94 709.678 1083.48 707.112L1086.97 690.728ZM1019.25 681.049H1047.75V695.799C1047.75 703.669 1041.37 710.049 1033.5 710.049C1025.63 710.049 1019.25 703.669 1019.25 695.799V681.049ZM1077.35 683.061L1089.58 685.66L1084.95 707.424C1084.23 710.8 1080.91 712.956 1077.54 712.238C1074.16 711.52 1072.01 708.201 1072.72 704.825L1077.35 683.061Z" fill="#575757"/>
<path fill-rule="evenodd" clip-rule="evenodd" d="M1159 681.3L1150 673.3C1153.49 657.142 1155.49 647.809 1156 645.3C1156.41 643.294 1158.62 640.229 1162.64 636.105C1165.01 633.666 1167.07 630.941 1168.77 627.993L1173.5 619.8C1180.17 619.8 1182.33 622.633 1180 628.3C1178.46 632.031 1173.6 639.807 1165.42 651.629" fill="white"/>
<path d="M1156.23 645.45C1156.61 643.632 1158.76 640.652 1162.67 636.628C1165.09 634.144 1167.19 631.37 1168.92 628.368L1173.43 620.554C1179.24 620.661 1180.88 622.987 1178.81 628.014C1177.3 631.676 1172.45 639.428 1164.31 651.202L1165.54 652.055C1173.75 640.186 1178.63 632.385 1180.19 628.585C1182.74 622.401 1180.18 619.05 1173 619.05C1172.73 619.05 1172.48 619.193 1172.35 619.425L1167.62 627.618C1165.95 630.512 1163.93 633.187 1161.6 635.581C1157.49 639.806 1155.21 642.956 1154.77 645.15C1154.25 647.655 1152.25 656.988 1148.77 673.142C1148.71 673.406 1148.8 673.681 1149 673.86L1158 681.86L1159 680.739L1150.33 673.03C1153.76 657.131 1155.73 647.941 1156.23 645.45Z" fill="#575757"/>
<path fill-rule="evenodd" clip-rule="evenodd" d="M875 673.3L874.586 673.251C872.321 672.985 870.523 671.221 870.214 668.961L869.988 667.3C869.626 664.648 871.483 662.206 874.134 661.844C874.351 661.815 874.57 661.8 874.789 661.8H875.238H894.738" fill="white"/>
<path d="M875.663 673.068L874.562 672.823C872.826 672.437 871.513 671.011 871.273 669.248L870.993 667.198C870.688 664.957 872.257 662.893 874.498 662.587C874.681 662.562 874.866 662.55 875.051 662.55H895V661.05H875.051C874.798 661.05 874.546 661.067 874.295 661.101C871.233 661.519 869.09 664.339 869.507 667.401L869.787 669.451C870.112 671.836 871.887 673.765 874.237 674.287L875.337 674.532L875.663 673.068Z" fill="#575757"/>
<path d="M1053.25 670.718C1053.2 670.307 1052.83 670.009 1052.42 670.054C1052.01 670.099 1051.71 670.47 1051.75 670.882L1058.75 734.882C1058.85 735.717 1060.03 735.793 1060.23 734.976L1082.73 641.976C1082.83 641.574 1082.58 641.168 1082.18 641.071C1081.77 640.974 1081.37 641.221 1081.27 641.624L1059.78 730.456L1053.25 670.718Z" fill="#575757"/>
<path d="M1273.21 828.442L1294.92 845.748C1295.24 846.006 1295.3 846.478 1295.04 846.802C1294.78 847.126 1294.31 847.179 1293.98 846.921L1272.69 829.942L1280.12 839.631C1280.49 840.113 1280.79 840.643 1281.02 841.207C1282.42 844.667 1280.75 848.608 1277.29 850.009C1276.61 850.284 1275.89 850.438 1275.16 850.464C1271.7 850.587 1268.79 847.879 1268.66 844.415L1268.01 825.906L1267.24 825.532L1267.99 825.407L1267.93 823.736L1269.07 825.226L1287 822.231C1287.6 822.131 1288.21 822.112 1288.81 822.175C1292.52 822.562 1295.22 825.886 1294.83 829.599C1294.76 830.328 1294.55 831.037 1294.23 831.696C1292.72 834.812 1288.96 836.109 1285.84 834.591L1273.21 828.442ZM1278.93 840.543L1269.6 828.373L1270.16 844.361C1270.26 846.998 1272.47 849.059 1275.11 848.965C1275.66 848.945 1276.21 848.828 1276.73 848.619C1279.42 847.528 1280.72 844.462 1279.63 841.77C1279.45 841.331 1279.22 840.919 1278.93 840.543ZM1272.11 826.238L1286.5 833.242C1288.87 834.397 1291.73 833.411 1292.88 831.039C1293.13 830.538 1293.28 829.998 1293.34 829.444C1293.64 826.555 1291.54 823.968 1288.66 823.667C1288.18 823.618 1287.71 823.633 1287.24 823.711L1272.11 826.238Z" fill="#575757"/>
<path fill-rule="evenodd" clip-rule="evenodd" d="M1102.36 869.682L1098 861.3L1114.5 854.3L1146 849.8H1186V863.606C1186 865.692 1184.4 867.428 1182.32 867.593L1109.13 873.431C1106.32 873.654 1103.66 872.178 1102.36 869.682ZM1190 838.8L1206 829.8L1231 820.3L1255 812.3L1265 810.8L1268.5 826.3L1202.1 848.896C1198.86 849.995 1195.31 848.604 1193.69 845.603L1190 838.8Z" fill="white"/>
<path d="M1102.19 869.528L1097.46 860.426L1114.71 853.109L1114.89 853.057L1146.39 848.557L1146.5 848.549H1187.25V863.105C1187.25 865.582 1185.35 867.644 1182.88 867.84L1109.69 873.678C1106.58 873.925 1103.63 872.291 1102.19 869.528ZM1103.52 868.836C1104.68 871.064 1107.06 872.382 1109.57 872.183L1182.76 866.345C1184.45 866.21 1185.75 864.8 1185.75 863.105V850.049H1146.55L1115.2 854.528L1099.54 861.173L1103.52 868.836ZM1189.49 838.007L1206.13 828.646L1206.23 828.598L1231.26 819.088L1255.26 811.088L1255.39 811.057L1266.08 809.454L1269.88 826.292L1202.84 849.105C1199.26 850.323 1195.33 848.782 1193.53 845.46L1189.49 838.007ZM1194.84 844.745C1196.3 847.425 1199.47 848.667 1202.35 847.685L1268.12 825.306L1264.92 811.144L1255.68 812.531L1231.77 820.5L1206.82 829.98L1191.51 838.591L1194.84 844.745Z" fill="#575757"/>
<path d="M1012.75 755.884C1015.71 782.137 1006.35 795.05 984.5 795.05C984.086 795.05 983.75 795.386 983.75 795.8C983.75 796.214 984.086 796.55 984.5 796.55C1007.32 796.55 1017.29 782.796 1014.25 755.716C1014.2 755.304 1013.83 755.008 1013.42 755.055C1013 755.101 1012.71 755.472 1012.75 755.884Z" fill="#575757"/>
<path d="M1172.83 874.203L1173.57 886.39C1173.61 886.997 1173.56 887.607 1173.43 888.201C1172.66 891.853 1169.07 894.187 1165.42 893.414C1164.7 893.262 1164.02 892.986 1163.4 892.599C1160.46 890.764 1159.56 886.892 1161.4 883.951L1171.11 868.387C1171.22 868.211 1171.37 868.105 1171.54 868.059C1171.68 867.68 1172.12 867.426 1172.56 867.627L1188.65 874.965C1189.21 875.218 1189.72 875.543 1190.19 875.934C1193.05 878.331 1193.43 882.594 1191.03 885.456C1190.56 886.017 1189.99 886.492 1189.36 886.859C1186.36 888.594 1182.52 887.568 1180.78 884.567L1173.93 872.713L1182.42 899.738C1182.54 900.133 1182.32 900.554 1181.93 900.678C1181.53 900.802 1181.11 900.583 1180.99 900.188L1172.83 874.203ZM1172.07 886.482L1171.14 871.172L1162.67 884.745C1161.27 886.983 1161.96 889.929 1164.19 891.326C1164.67 891.621 1165.19 891.831 1165.73 891.947C1168.57 892.548 1171.37 890.732 1171.97 887.891C1172.06 887.428 1172.1 886.954 1172.07 886.482ZM1174.07 869.966L1182.08 883.816C1183.4 886.1 1186.32 886.881 1188.61 885.56C1189.09 885.281 1189.52 884.92 1189.88 884.493C1191.74 882.266 1191.45 878.949 1189.22 877.084C1188.86 876.78 1188.46 876.526 1188.03 876.33L1174.07 869.966Z" fill="#575757"/>
</svg>
