<svg width="1840" height="1380" viewBox="0 0 1840 1380" fill="none" xmlns="http://www.w3.org/2000/svg">
<path fill-rule="evenodd" clip-rule="evenodd" d="M906.852 985.857L1020.83 975.357L1004.33 1004.36L1036.44 1022.47C1037.69 1023.18 1038.47 1024.5 1038.48 1025.93C1038.49 1028.14 1036.71 1029.94 1034.5 1029.96C997.851 1030.18 970.872 1030.2 953.565 1030.04C933.97 1029.85 917.784 1029.48 905.005 1028.93L906.852 985.857ZM586.325 884.857L616.325 956.857L578.522 970.751L539.119 1019.81C538.254 1020.89 536.894 1021.45 535.522 1021.28C533.329 1021.02 531.765 1019.03 532.029 1016.83L545.981 900.966L586.325 884.857Z" fill="#002D6F"/>
<path fill-rule="evenodd" clip-rule="evenodd" d="M1022.43 702.357L1132.05 770.249C1157.33 785.907 1165.59 818.823 1150.69 844.559L1065.43 991.857L893.325 991.82L1059.93 823.357L926.931 773.857L807.825 849.142L639.431 1014.36L572.825 854.547L733.931 794.857L823.931 738.857L863.431 691.857L1022.43 702.357Z" fill="white"/>
<path d="M1059.94 823.811L895.016 990.571L1064.89 990.607L1149.93 843.683C1164.63 818.298 1156.48 785.831 1131.55 770.387L1022.09 702.593L863.655 692.131L824.323 738.931L734.222 794.994L734.086 795.061L573.713 854.479L639.591 1012.55L807.195 848.107L807.319 848.008L926.739 772.525L1059.58 821.965L1063.24 817.389C1063.5 817.065 1063.97 817.013 1064.29 817.272C1064.62 817.53 1064.67 818.002 1064.41 818.326L1061.06 822.516L1061.17 822.559L1061.02 822.718L1064.22 824.721C1064.57 824.941 1064.68 825.404 1064.46 825.755C1064.24 826.106 1063.78 826.213 1063.43 825.993L1059.94 823.811ZM823.328 737.784L823.251 737.875L823.429 737.721L823.328 737.784ZM823.328 737.784L862.996 690.584L1022.56 701.121L1132.34 769.111C1157.96 784.982 1166.33 818.347 1151.23 844.435L1065.76 992.107L891.424 992.07L1058.48 823.155L926.912 774.19L808.188 849.234L639.059 1015.17L571.728 853.615L733.494 793.68L823.328 737.784ZM733.494 793.68L733.429 793.721L733.565 793.654L733.494 793.68Z" fill="#002D6F"/>
<path fill-rule="evenodd" clip-rule="evenodd" d="M916.825 545.857L991.914 546.729L1065.26 553.763L1223.83 563.857L1183.33 379.857L1249.83 380.357C1287.83 521.213 1306.91 593.821 1307.05 598.18C1307.9 623.571 1288.01 644.844 1262.62 645.694L1041.83 629.357L1021.33 698.357L921.825 693.857L916.825 545.857Z" fill="white"/>
<path d="M1022.37 699.157L916.073 690.046L916.578 545.099L917.334 545.108L992.486 545.983L1065.81 553.015L1223.38 563.046L1182.89 379.101L1250.9 379.612L1251.05 380.162C1289.18 521.474 1308.15 593.698 1308.3 598.155C1309.17 623.96 1288.95 645.58 1263.06 646.443L1042.87 630.15L1022.37 699.157ZM917.578 688.669L1021.28 697.558L1041.78 628.565L1042.38 628.61L1263.09 644.945C1288.07 644.108 1307.64 623.182 1306.8 598.205C1306.66 593.95 1287.53 521.144 1249.75 381.103L1184.76 380.615L1225.27 564.669L1224.28 564.606L1065.69 554.51L992.405 547.479L918.073 546.616L917.578 688.669Z" fill="#002D6F"/>
<path fill-rule="evenodd" clip-rule="evenodd" d="M973.825 700.357L1022.48 701.669L1025.08 691.169L973.825 689.357V700.357Z" fill="#002D6F"/>
<path fill-rule="evenodd" clip-rule="evenodd" d="M723.325 461.857L653.008 697.442C648.428 712.789 656.71 729.027 671.823 734.33L701.825 744.857L853.825 643.357L853.931 545.857L783.825 573.357L822.825 461.857L795.825 396.857L767.325 410.857L723.325 461.857Z" fill="white"/>
<path d="M824.277 461.107H723.161L652.684 697.227C647.989 712.958 656.478 729.603 671.969 735.038L702.325 745.689L854.97 643.759L855.076 544.757L785.468 572.062L824.277 461.107ZM724.279 462.607H822.163L782.973 574.652L853.574 546.958L853.471 642.956L702.115 744.026L672.466 733.622C657.731 728.452 649.656 712.62 654.122 697.656L724.279 462.607Z" fill="#002D6F"/>
<path fill-rule="evenodd" clip-rule="evenodd" d="M825.825 487.858L820.38 511.178L708.825 482.858L713.873 458.858L825.825 487.858Z" fill="white"/>
<path d="M826.521 487.261L820.473 511.518L707.919 483.455L713.967 459.198L826.521 487.261ZM824.703 488.353L715.06 461.016L709.737 482.363L819.381 509.7L824.703 488.353Z" fill="#002D6F"/>
<path d="M720.889 473.806C720.054 477.155 722.092 480.547 725.441 481.382C728.79 482.217 732.182 480.179 733.017 476.83C733.852 473.481 731.814 470.089 728.465 469.254C725.116 468.419 721.724 470.457 720.889 473.806ZM722.344 474.169C722.979 471.623 725.557 470.074 728.102 470.709C730.647 471.344 732.196 473.922 731.562 476.467C730.927 479.013 728.349 480.562 725.804 479.927C723.258 479.292 721.709 476.714 722.344 474.169Z" fill="#002D6F"/>
<path d="M970.85 680.811L950.898 679.415C946.491 679.107 942.668 682.43 942.36 686.838L941.383 700.804C941.075 705.211 944.398 709.034 948.806 709.342L968.757 710.738C973.165 711.046 976.987 707.723 977.296 703.315L978.272 689.349C978.58 684.942 975.257 681.119 970.85 680.811Z" fill="white"/>
<path d="M950.896 679.197L970.847 680.592C975.255 680.9 978.578 684.723 978.27 689.13L977.293 703.096C976.985 707.504 973.162 710.827 968.755 710.519L948.803 709.124C944.396 708.815 941.073 704.993 941.381 700.585L942.357 686.619C942.666 682.212 946.489 678.889 950.896 679.197ZM950.791 680.693C947.21 680.443 944.104 683.143 943.854 686.724L942.877 700.69C942.627 704.271 945.327 707.377 948.908 707.627L968.859 709.022C972.44 709.273 975.546 706.573 975.797 702.992L976.773 689.026C977.024 685.445 974.324 682.339 970.743 682.088L950.791 680.693Z" fill="#002D6F"/>
<path fill-rule="evenodd" clip-rule="evenodd" d="M851.892 878.527L852.841 464.857H853.786V462.795H680.825V409.377L852.93 256.857H916.808V409.377H965.825V462.795H916.808V464.857H916.825V907.857H916.808V1029.38H965.825V1082.79H916.808V1122.86H853.786V1082.79H680.825V1029.38L851.892 878.527ZM747.93 1029.36H852.93L852.43 941.857L747.93 1029.36ZM747.825 409.857H852.825L852.43 321.857L747.825 409.857Z" fill="#EEF5FF"/>
<path d="M851.538 878.188L852.486 464.856C852.487 464.442 852.822 464.107 853.236 464.107H853.431V463.545H681.22C680.806 463.545 680.47 463.209 680.47 462.795V409.377C680.47 409.163 680.562 408.958 680.723 408.816L852.828 256.296C852.965 256.175 853.142 256.107 853.325 256.107H917.203C917.617 256.107 917.953 256.443 917.953 256.857V408.627H966.22C966.634 408.627 966.97 408.963 966.97 409.377V462.795C966.97 463.209 966.634 463.545 966.22 463.545H917.953V464.697C917.964 464.749 917.97 464.802 917.97 464.857V907.857C917.97 907.912 917.964 907.966 917.953 908.018V1028.63H966.22C966.634 1028.63 966.97 1028.96 966.97 1029.38V1082.79C966.97 1083.21 966.634 1083.54 966.22 1083.54H917.953V1122.86C917.953 1123.27 917.617 1123.61 917.203 1123.61H854.181C853.767 1123.61 853.431 1123.27 853.431 1122.86V1083.54H681.22C680.806 1083.54 680.47 1083.21 680.47 1082.79V1029.38C680.47 1029.16 680.563 1028.96 680.724 1028.81L851.538 878.188ZM853.431 464.107H854.181L853.431 464.857V464.107ZM853.037 878.529C853.037 878.744 852.945 878.948 852.783 879.09L681.97 1029.72V1082.04H854.181C854.595 1082.04 854.931 1082.38 854.931 1082.79V1122.11H916.453V1082.79C916.453 1082.38 916.789 1082.04 917.203 1082.04H965.47V1030.13H917.203C916.789 1030.13 916.453 1029.79 916.453 1029.38V907.857C916.453 907.802 916.459 907.749 916.47 907.697V465.018C916.459 464.966 916.453 464.912 916.453 464.857V462.795C916.453 462.38 916.789 462.045 917.203 462.045H965.47V410.127H917.203C916.789 410.127 916.453 409.792 916.453 409.377V257.607H853.61L681.97 409.715V462.045H854.181C854.595 462.045 854.931 462.38 854.931 462.795V464.857C854.931 465.272 854.595 465.607 854.181 465.607H853.984L853.037 878.529ZM748.325 1030.11C747.625 1030.11 747.307 1029.23 747.844 1028.78L852.344 941.282C852.831 940.875 853.572 941.218 853.575 941.853L854.075 1029.35C854.078 1029.77 853.741 1030.11 853.325 1030.11H748.325ZM852.571 1028.61L852.085 943.456L750.389 1028.61H852.571ZM748.22 410.607C747.52 410.607 747.202 409.734 747.737 409.283L852.343 321.284C852.829 320.874 853.573 321.218 853.575 321.854L853.97 409.854C853.972 410.27 853.636 410.607 853.22 410.607H748.22ZM852.467 409.107L852.083 323.462L750.277 409.107H852.467Z" fill="#002D6F"/>
<path d="M823.325 815.857C726.703 815.857 680.825 771.057 680.825 689.507C680.825 608.307 726.703 563.857 823.325 563.857C919.6 563.857 965.825 608.657 965.825 689.507C965.825 770.707 919.6 815.857 823.325 815.857ZM822.825 762.857C878.469 762.857 903.825 735.264 903.825 689.508C903.825 644.101 878.469 616.857 822.825 616.857C767.182 616.857 741.825 643.752 741.825 689.508C741.825 735.613 767.182 762.857 822.825 762.857Z" fill="#EEF5FF"/>
<path d="M823.72 816.607C728.415 816.607 680.47 773.047 680.47 689.507C680.47 606.363 728.374 563.107 823.72 563.107C918.704 563.107 966.97 606.7 966.97 689.507C966.97 772.71 918.664 816.607 823.72 816.607ZM823.72 815.107C917.866 815.107 965.47 771.848 965.47 689.507C965.47 607.564 917.908 564.607 823.72 564.607C729.171 564.607 681.97 607.228 681.97 689.507C681.97 772.185 729.213 815.107 823.72 815.107ZM823.22 763.607C768.896 763.607 741.47 737.668 741.47 689.508C741.47 641.745 768.862 616.107 823.22 616.107C877.443 616.107 904.97 641.962 904.97 689.508C904.97 737.451 877.411 763.607 823.22 763.607ZM823.22 762.107C876.6 762.107 903.47 736.605 903.47 689.508C903.47 642.813 876.635 617.607 823.22 617.607C769.669 617.607 742.97 642.597 742.97 689.508C742.97 736.82 769.706 762.107 823.22 762.107Z" fill="#002D6F"/>
<path d="M730.939 794.356C697.186 773.551 680.825 738.036 680.825 689.507C680.825 640.743 697.487 605.233 731.873 584.645L761.414 636.067C748.15 648.509 741.825 666.656 741.825 689.508C741.825 711.781 747.743 729.653 760.134 742.177L730.939 794.356ZM915.711 794.356L886.516 742.177C898.907 729.653 904.825 711.781 904.825 689.508C904.825 666.656 898.5 648.509 885.237 636.067L914.777 584.645C949.163 605.233 965.825 640.743 965.825 689.507C965.825 738.036 949.465 773.551 915.711 794.356Z" fill="#002D6F"/>
<path d="M725.463 695.556C724.633 701.795 719.291 706.608 712.825 706.608C706.359 706.608 701.018 701.795 700.187 695.556L699.356 696.388C699.063 696.681 698.588 696.681 698.295 696.388C698.002 696.095 698.002 695.62 698.295 695.327L700.825 692.797L703.356 695.327C703.648 695.62 703.648 696.095 703.356 696.388C703.063 696.681 702.588 696.681 702.295 696.388L701.75 695.843C702.645 700.87 706.878 704.741 712.075 705.083V683.548C711.915 683.523 711.755 683.489 711.596 683.446C709.062 682.767 707.558 680.162 708.237 677.628C708.916 675.094 711.521 673.591 714.055 674.269C716.589 674.948 718.092 677.553 717.413 680.087C716.913 681.954 715.368 683.262 713.575 683.549V705.083C718.772 704.741 723.006 700.87 723.901 695.843L723.356 696.388C723.063 696.681 722.588 696.681 722.295 696.388C722.002 696.095 722.002 695.62 722.295 695.327L724.825 692.797L727.356 695.327C727.648 695.62 727.648 696.095 727.356 696.388C727.063 696.681 726.588 696.681 726.295 696.388L725.463 695.556ZM711.984 681.997C713.718 682.461 715.5 681.433 715.964 679.699C716.429 677.965 715.4 676.183 713.666 675.718C711.933 675.254 710.15 676.283 709.686 678.016C709.221 679.75 710.25 681.532 711.984 681.997Z" fill="white"/>
<path d="M934.575 705.083V683.548C934.735 683.523 934.895 683.489 935.055 683.446C937.589 682.767 939.092 680.162 938.413 677.628C937.734 675.094 935.13 673.591 932.596 674.269C930.062 674.948 928.558 677.553 929.237 680.087C929.737 681.954 931.283 683.262 933.075 683.549V705.083C927.878 704.741 923.645 700.87 922.75 695.843L923.295 696.388C923.588 696.681 924.063 696.681 924.356 696.388C924.648 696.095 924.648 695.62 924.356 695.327L921.825 692.797L919.295 695.327C919.002 695.62 919.002 696.095 919.295 696.388C919.588 696.681 920.063 696.681 920.356 696.388L921.187 695.556C922.018 701.795 927.359 706.608 933.825 706.608C940.291 706.608 945.633 701.795 946.463 695.556L947.295 696.388C947.588 696.681 948.063 696.681 948.356 696.388C948.648 696.095 948.648 695.62 948.356 695.327L945.825 692.797L943.295 695.327C943.002 695.62 943.002 696.095 943.295 696.388C943.588 696.681 944.063 696.681 944.356 696.388L944.901 695.843C944.006 700.87 939.772 704.741 934.575 705.083ZM934.666 681.997C932.933 682.461 931.15 681.433 930.686 679.699C930.221 677.965 931.25 676.183 932.984 675.718C934.718 675.254 936.5 676.283 936.964 678.016C937.429 679.75 936.4 681.532 934.666 681.997Z" fill="white"/>
<path fill-rule="evenodd" clip-rule="evenodd" d="M1127.83 396.857L1061.4 409.592C1068.66 417.614 1077.93 421.829 1089.22 422.237C1100.51 422.645 1115.95 421.342 1135.54 418.327L1127.83 396.857Z" fill="white"/>
<path d="M1111.52 398.012L1111.15 396.558L1059.82 409.579L1060.66 410.503C1068.05 418.676 1077.52 422.979 1089.01 423.394C1100.35 423.804 1115.84 422.497 1135.47 419.476L1135.24 417.993C1115.69 421.001 1100.3 422.301 1089.06 421.895C1078.41 421.51 1069.61 417.688 1062.63 410.415L1111.52 398.012Z" fill="#002D6F"/>
<mask id="mask0" mask-type="alpha" maskUnits="userSpaceOnUse" x="933" y="379" width="140" height="167">
<path d="M992.325 545.857L1002.33 505.857L1021.1 508.482C1036.98 510.701 1052.04 500.834 1056.35 485.397L1071.3 431.885C1077.39 410.075 1064.64 387.458 1042.83 381.368C1039.24 380.366 1035.53 379.857 1031.81 379.857H998.162C985.886 379.857 975.155 388.138 972.043 400.013L933.825 545.857H992.325Z" fill="white"/>
</mask>
<g mask="url(#mask0)">
<path d="M992.325 545.857L1002.33 505.857L1021.1 508.482C1036.98 510.701 1052.04 500.834 1056.35 485.397L1071.3 431.885C1077.39 410.075 1064.64 387.458 1042.83 381.368C1039.24 380.366 1035.53 379.857 1031.81 379.857H998.162C985.886 379.857 975.155 388.138 972.043 400.013L933.825 545.857H992.325Z" fill="white"/>
<mask id="mask1" mask-type="alpha" maskUnits="userSpaceOnUse" x="933" y="379" width="140" height="167">
<path d="M992.325 545.857L1002.33 505.857L1021.1 508.482C1036.98 510.701 1052.04 500.834 1056.35 485.397L1071.3 431.885C1077.39 410.075 1064.64 387.458 1042.83 381.368C1039.24 380.366 1035.53 379.857 1031.81 379.857H998.162C985.886 379.857 975.155 388.138 972.043 400.013L933.825 545.857H992.325Z" fill="white"/>
</mask>
<g mask="url(#mask1)">
<path d="M992.325 545.857L1002.33 505.857L1021.1 508.482C1036.98 510.701 1052.04 500.834 1056.35 485.397L1071.3 431.885C1077.39 410.075 1064.64 387.458 1042.83 381.368C1039.24 380.366 1035.53 379.857 1031.81 379.857H998.162C985.886 379.857 975.155 388.138 972.043 400.013L933.825 545.857H992.325Z" fill="white"/>
<path fill-rule="evenodd" clip-rule="evenodd" d="M1064.69 439.498L1069.83 438.857L1069.15 449.223C1069.06 450.757 1067.73 451.92 1066.2 451.82C1066.13 451.816 1066.06 451.809 1065.99 451.799C1064.35 451.569 1063.21 450.052 1063.44 448.411L1064.69 439.498Z" fill="#002D6F"/>
</g>
<path d="M1021 509.225C1037.24 511.496 1052.66 501.398 1057.08 485.599L1072.02 432.086C1078.22 409.878 1065.24 386.847 1043.04 380.646C1039.38 379.625 1035.6 379.107 1031.81 379.107H998.162C985.545 379.107 974.516 387.618 971.318 399.823L932.854 546.607H992.911L1002.89 506.694L1021 509.225ZM991.74 545.107H934.797L972.769 400.203C975.794 388.658 986.227 380.607 998.162 380.607H1031.81C1035.47 380.607 1039.11 381.106 1042.63 382.091C1064.04 388.069 1076.55 410.273 1070.57 431.683L1055.63 485.195C1051.42 500.271 1036.71 509.906 1021.21 507.739L1001.76 505.021L991.74 545.107Z" fill="#002D6F"/>
</g>
<mask id="mask2" mask-type="alpha" maskUnits="userSpaceOnUse" x="944" y="379" width="94" height="84">
<path d="M1011.81 433.841L1008.95 430.983C1002.79 424.818 992.809 424.762 986.575 430.857C980.647 436.654 980.54 446.159 986.337 452.087C986.501 452.255 986.669 452.419 986.841 452.579L988.873 454.471C978.132 459.094 963.449 461.889 944.825 462.857L971.354 395.107C974.956 385.909 983.824 379.857 993.702 379.857H1037.33C1028.06 403.857 1019.56 421.852 1011.81 433.841Z" fill="white"/>
</mask>
<g mask="url(#mask2)">
<path d="M1011.81 433.841L1008.95 430.983C1002.79 424.818 992.809 424.762 986.575 430.857C980.647 436.654 980.54 446.159 986.337 452.087C986.501 452.255 986.669 452.419 986.841 452.579L988.873 454.471C978.132 459.094 963.449 461.889 944.825 462.857L971.354 395.107C974.956 385.909 983.824 379.857 993.702 379.857H1037.33C1028.06 403.857 1019.56 421.852 1011.81 433.841Z" fill="#002D6F"/>
</g>
<path fill-rule="evenodd" clip-rule="evenodd" d="M997.825 359.357L1023.83 338.357L1042.33 359.357" fill="white"/>
<path fill-rule="evenodd" clip-rule="evenodd" d="M973.825 359.357C973.825 359.357 979.325 366.191 990.325 379.857H1046.83L1066.83 359.357C1004.83 359.357 973.825 359.357 973.825 359.357Z" fill="white"/>
<path d="M1023.74 339.892L1041.76 360.353L1042.89 359.361L1023.91 337.822L997.354 359.274L998.297 360.441L1023.74 339.892Z" fill="#002D6F"/>
<path d="M973.241 360.328L989.741 380.828C989.884 381.005 990.099 381.107 990.326 381.107H1046.83C1047.03 381.107 1047.22 381.026 1047.36 380.881L1067.36 360.381C1067.83 359.906 1067.49 359.107 1066.83 359.107H973.826C973.196 359.107 972.846 359.837 973.241 360.328ZM1065.05 360.607L1046.51 379.607H990.685L975.392 360.607H1065.05Z" fill="#002D6F"/>
<path fill-rule="evenodd" clip-rule="evenodd" d="M1061.83 440.857L1063.33 474.857L1047.83 463.357" fill="white"/>
<path fill-rule="evenodd" clip-rule="evenodd" d="M938.325 522.857H975.43L976.43 546.444L989.93 522.857H1002.33L994.325 546.857L930.825 546.357L938.325 522.857Z" fill="white"/>
<path d="M1043.56 438.824L1042.38 447.246C1042.15 448.886 1040.63 450.029 1038.99 449.799C1037.35 449.568 1036.21 448.051 1036.44 446.411L1037.66 437.722L1022.19 434.833C1021.78 434.757 1021.51 434.365 1021.59 433.958C1021.66 433.551 1022.06 433.283 1022.46 433.359L1047.96 438.12C1048.37 438.196 1048.64 438.588 1048.56 438.995C1048.49 439.402 1048.09 439.671 1047.69 439.595L1043.56 438.824ZM1061.94 439.616L1069.68 438.121C1070.09 438.042 1070.48 438.308 1070.56 438.715C1070.64 439.122 1070.37 439.515 1069.97 439.594L1062.61 441.015L1064.07 474.324C1064.1 474.955 1063.39 475.336 1062.88 474.96L1060.58 473.256L1063.33 482.857C1059.87 481.914 1057.07 479.381 1055.78 476.036L1055.33 474.857C1049.09 477.809 1042.22 479.127 1035.33 478.688L1022.33 477.857L1049.67 465.161L1047.38 463.46C1047.05 463.213 1046.98 462.743 1047.22 462.41C1047.47 462.078 1047.94 462.008 1048.27 462.255L1062.51 472.816L1061.08 440.39C1061.06 439.977 1061.38 439.626 1061.79 439.608C1061.84 439.606 1061.89 439.609 1061.94 439.616Z" fill="#002D6F"/>
<path d="M976.793 547.469L966.35 584.846C966.239 585.245 965.825 585.478 965.426 585.367C965.027 585.255 964.794 584.842 964.906 584.443L975.239 547.457L930.819 547.107C930.314 547.103 929.957 546.611 930.111 546.129L937.611 522.629C937.71 522.318 937.999 522.107 938.325 522.107H975.43C975.832 522.107 976.163 522.424 976.18 522.826L977.07 543.817L989.28 522.485C989.413 522.251 989.661 522.107 989.93 522.107H1002.33C1002.84 522.107 1003.2 522.609 1003.04 523.095L995.037 547.095C994.934 547.403 994.644 547.61 994.319 547.607L976.793 547.469ZM931.849 545.615L975.659 545.96L974.712 523.607H938.873L931.849 545.615ZM993.786 546.103L1001.28 523.607H990.365L977.563 545.975L993.786 546.103Z" fill="#002D6F"/>
<path fill-rule="evenodd" clip-rule="evenodd" d="M1070.53 409.857H1129.33C1132.33 423.191 1143.99 429.857 1164.33 429.857C1168.34 429.857 1173.31 428.394 1179.24 425.466L1194.33 425.357V379.857H1036.83C1038.82 396.96 1053.31 409.857 1070.53 409.857Z" fill="white"/>
<path d="M1164.22 430.607C1168.33 430.607 1173.36 429.138 1179.31 426.214L1194.97 426.102V379.107H1035.88L1035.98 379.944C1038.01 397.425 1052.82 410.607 1070.42 410.607H1128.63C1131.92 423.948 1143.87 430.607 1164.22 430.607ZM1193.47 380.607V424.613L1178.96 424.717L1178.8 424.793C1172.97 427.674 1168.1 429.107 1164.22 429.107C1144.2 429.107 1132.86 422.628 1129.95 409.693L1129.82 409.107H1070.42C1053.87 409.107 1039.89 396.914 1037.57 380.607H1193.47Z" fill="#002D6F"/>
<path d="M1036.28 380.468C1045.86 387.312 1057.33 387.312 1070.56 380.525L1069.88 379.19C1057.11 385.737 1046.24 385.737 1037.16 379.247L1036.28 380.468Z" fill="#002D6F"/>
<path d="M1217.83 377.857H1193.83V468.857H1217.83V377.857Z" fill="white"/>
<path d="M1193.22 377.857H1218.22V468.857H1193.22V377.857ZM1194.72 467.357H1216.72V379.357H1194.72V467.357Z" fill="#002D6F"/>
<path d="M1205.72 458.607C1209.17 458.607 1211.97 455.809 1211.97 452.357C1211.97 448.906 1209.17 446.107 1205.72 446.107C1202.27 446.107 1199.47 448.906 1199.47 452.357C1199.47 455.809 1202.27 458.607 1205.72 458.607ZM1205.72 457.107C1203.1 457.107 1200.97 454.981 1200.97 452.357C1200.97 449.734 1203.1 447.607 1205.72 447.607C1208.34 447.607 1210.47 449.734 1210.47 452.357C1210.47 454.981 1208.34 457.107 1205.72 457.107Z" fill="#002D6F"/>
<path d="M917.324 408.607L681.824 409.107L681.827 410.607L917.327 410.107L917.324 408.607Z" fill="#002D6F"/>
<path d="M917.325 462.357L853.22 463.357" stroke="#002D6F" stroke-width="1.5"/>
<path d="M896.575 1083.61H875.075V1121.86C875.075 1122.27 874.739 1122.61 874.325 1122.61C873.911 1122.61 873.575 1122.27 873.575 1121.86V1083.61H853.825V1082.11H917.825V1083.61H898.075V1121.86C898.075 1122.27 897.739 1122.61 897.325 1122.61C896.911 1122.61 896.575 1122.27 896.575 1121.86V1083.61Z" fill="#002D6F"/>
<path d="M965.628 1028.61H681.825C681.411 1028.61 681.075 1028.94 681.075 1029.36C681.075 1029.77 681.411 1030.11 681.825 1030.11H965.628C966.042 1030.11 966.378 1029.77 966.378 1029.36C966.378 1028.94 966.042 1028.61 965.628 1028.61Z" fill="#002D6F"/>
<path fill-rule="evenodd" clip-rule="evenodd" d="M798.825 394.857H806.825C811.243 394.857 814.825 398.439 814.825 402.857V460.857C814.825 467.485 809.453 472.857 802.825 472.857C796.198 472.857 790.825 467.485 790.825 460.857V402.857C790.825 398.439 794.407 394.857 798.825 394.857Z" fill="white"/>
<path fill-rule="evenodd" clip-rule="evenodd" d="M822.825 394.857H830.825C835.243 394.857 838.825 398.439 838.825 402.857V460.857C838.825 467.485 833.453 472.857 826.825 472.857C820.198 472.857 814.825 467.485 814.825 460.857V402.857C814.825 398.439 818.407 394.857 822.825 394.857Z" fill="white"/>
<path fill-rule="evenodd" clip-rule="evenodd" d="M846.825 394.857H854.825C859.243 394.857 862.825 398.439 862.825 402.857V460.857C862.825 467.485 857.453 472.857 850.825 472.857C844.198 472.857 838.825 467.485 838.825 460.857V402.857C838.825 398.439 842.407 394.857 846.825 394.857Z" fill="white"/>
<path d="M838.72 463.869C837.203 469.063 832.405 472.857 826.72 472.857C821.036 472.857 816.238 469.063 814.72 463.869C813.203 469.063 808.405 472.857 802.72 472.857C795.817 472.857 790.22 467.261 790.22 460.357V402.857C790.22 398.439 793.802 394.857 798.22 394.857H807.22C810.657 394.857 813.588 397.025 814.72 400.067C815.853 397.025 818.783 394.857 822.22 394.857H831.22C834.657 394.857 837.588 397.025 838.72 400.067C839.853 397.025 842.783 394.857 846.22 394.857H855.22C859.638 394.857 863.22 398.439 863.22 402.857V460.357C863.22 467.261 857.624 472.857 850.72 472.857C845.036 472.857 840.238 469.063 838.72 463.869ZM798.22 396.357C794.63 396.357 791.72 399.268 791.72 402.857V460.357C791.72 466.433 796.645 471.357 802.72 471.357C808.795 471.357 813.72 466.433 813.72 460.357V402.857C813.72 399.268 810.81 396.357 807.22 396.357H798.22ZM822.22 396.357C818.63 396.357 815.72 399.268 815.72 402.857V460.357C815.72 466.433 820.645 471.357 826.72 471.357C832.795 471.357 837.72 466.433 837.72 460.357V402.857C837.72 399.268 834.81 396.357 831.22 396.357H822.22ZM846.22 396.357C842.63 396.357 839.72 399.268 839.72 402.857V460.357C839.72 466.433 844.645 471.357 850.72 471.357C856.795 471.357 861.72 466.433 861.72 460.357V402.857C861.72 399.268 858.81 396.357 855.22 396.357H846.22Z" fill="#002D6F"/>
<path d="M792.868 396.695L769.368 409.195L770.073 410.52L793.573 398.02L792.868 396.695Z" fill="#002D6F"/>
<path fill-rule="evenodd" clip-rule="evenodd" d="M726.644 582.98C729.513 581.323 733.183 582.306 734.84 585.176L763.34 634.539C764.997 637.409 764.013 641.079 761.144 642.735C758.274 644.392 754.604 643.409 752.947 640.539L724.447 591.176C722.791 588.306 723.774 584.637 726.644 582.98ZM726.644 797.101C724.252 795.721 723.433 792.663 724.813 790.271L754.313 739.176C755.694 736.784 758.752 735.965 761.144 737.346C763.535 738.726 764.354 741.784 762.974 744.176L733.474 795.271C732.093 797.663 729.035 798.482 726.644 797.101ZM919.962 583.096C922.592 584.614 923.494 587.978 921.975 590.609L893.975 639.106C892.456 641.737 889.092 642.638 886.462 641.119C883.831 639.601 882.93 636.237 884.449 633.606L912.449 585.109C913.967 582.478 917.331 581.577 919.962 583.096ZM919.895 795.869C917.025 797.526 913.355 796.543 911.699 793.673L883.699 745.176C882.042 742.306 883.025 738.637 885.895 736.98C888.764 735.323 892.434 736.306 894.091 739.176L922.091 787.673C923.748 790.543 922.764 794.213 919.895 795.869Z" fill="white"/>
<path d="M726.825 582.547C729.934 580.752 733.91 581.817 735.704 584.926L764.204 634.289C765.999 637.398 764.934 641.374 761.825 643.168C758.716 644.963 754.741 643.898 752.946 640.789L724.446 591.426C722.651 588.317 723.716 584.342 726.825 582.547ZM725.745 590.676L754.245 640.039C755.626 642.431 758.684 643.25 761.075 641.869C763.467 640.489 764.286 637.431 762.905 635.039L734.405 585.676C733.025 583.284 729.967 582.465 727.575 583.846C725.184 585.226 724.364 588.284 725.745 590.676ZM726.825 797.168C723.716 795.374 722.651 791.398 724.446 788.289L752.946 738.926C754.741 735.817 758.716 734.752 761.825 736.547C764.934 738.342 765.999 742.317 764.204 745.426L735.704 794.789C733.91 797.898 729.934 798.963 726.825 797.168ZM727.575 795.869C729.967 797.25 733.025 796.431 734.405 794.039L762.905 744.676C764.286 742.284 763.467 739.226 761.075 737.846C758.684 736.465 755.626 737.284 754.245 739.676L725.745 789.039C724.364 791.431 725.184 794.489 727.575 795.869ZM921.076 582.547C924.185 584.342 925.25 588.317 923.456 591.426L894.956 640.789C893.161 643.898 889.185 644.963 886.076 643.168C882.967 641.374 881.902 637.398 883.697 634.289L912.197 584.926C913.992 581.817 917.967 580.752 921.076 582.547ZM913.496 585.676L884.996 635.039C883.616 637.431 884.435 640.489 886.826 641.869C889.218 643.25 892.276 642.431 893.656 640.039L922.156 590.676C923.537 588.284 922.718 585.226 920.326 583.846C917.935 582.465 914.877 583.284 913.496 585.676ZM921.076 797.168C917.967 798.963 913.992 797.898 912.197 794.789L883.697 745.426C881.902 742.317 882.967 738.342 886.076 736.547C889.185 734.752 893.161 735.817 894.956 738.926L923.456 788.289C925.25 791.398 924.185 795.374 921.076 797.168ZM920.326 795.869C922.718 794.489 923.537 791.431 922.156 789.039L893.656 739.676C892.276 737.284 889.218 736.465 886.826 737.846C884.435 739.226 883.616 742.284 884.996 744.676L913.496 794.039C914.877 796.431 917.935 797.25 920.326 795.869Z" fill="#002D6F"/>
<path d="M793.842 459.901C793.541 460.186 793.067 460.174 792.781 459.874C792.496 459.574 792.508 459.099 792.809 458.814C799.775 452.195 806.274 452.195 811.899 458.874C812.166 459.191 812.125 459.664 811.808 459.931C811.491 460.198 811.018 460.157 810.752 459.841C805.709 453.853 800.208 453.853 793.842 459.901ZM818.342 459.901C818.041 460.186 817.567 460.174 817.281 459.874C816.996 459.574 817.008 459.099 817.309 458.814C824.275 452.195 830.774 452.195 836.399 458.874C836.666 459.191 836.625 459.664 836.308 459.931C835.991 460.198 835.518 460.157 835.252 459.841C830.209 453.853 824.708 453.853 818.342 459.901ZM842.342 459.901C842.041 460.186 841.567 460.174 841.281 459.874C840.996 459.574 841.008 459.099 841.309 458.814C848.275 452.195 854.774 452.195 860.399 458.874C860.666 459.191 860.625 459.664 860.308 459.931C859.991 460.198 859.518 460.157 859.252 459.841C854.209 453.853 848.708 453.853 842.342 459.901Z" fill="#002D6F"/>
<path d="M852.325 878.357L852.773 944.857" stroke="#002D6F" stroke-width="1.5" stroke-linejoin="round"/>
<path d="M852.47 257.353L853.97 257.362L853.575 322.362L852.075 322.353L852.47 257.353ZM873.575 256.108C873.575 255.693 873.911 256.608 874.325 256.608C874.739 256.608 875.075 256.943 875.075 257.358L874.825 409.358C874.825 409.772 874.739 409.858 874.325 409.858C873.911 409.858 873.325 409.772 873.325 409.358L873.575 256.108ZM897.075 257.358C897.075 256.943 897.411 256.608 897.825 256.608C898.239 256.608 898.575 256.943 898.575 257.358L898.325 409.358C898.325 409.772 897.989 410.108 897.575 410.108C897.161 410.108 896.825 409.772 896.825 409.358L897.075 257.358Z" fill="#002D6F"/>
</svg>
