<svg width="1840" height="1380" viewBox="0 0 1840 1380" fill="none" xmlns="http://www.w3.org/2000/svg"><path fill-rule="evenodd" clip-rule="evenodd" d="m906.852 985.857 113.978-10.5-16.5 29.003 32.11 18.11a4.02 4.02 0 0 1 2.04 3.46 4.014 4.014 0 0 1-3.98 4.03c-36.649.22-63.628.24-80.935.08-19.595-.19-35.781-.56-48.56-1.11l1.847-43.073zm-320.527-101 30 72-37.803 13.894-39.403 49.059a3.984 3.984 0 0 1-3.597 1.47 3.995 3.995 0 0 1-3.493-4.45l13.952-115.864 40.344-16.109z" fill="#002D6F"/><path fill-rule="evenodd" clip-rule="evenodd" d="m1022.43 702.357 109.62 67.892c25.28 15.658 33.54 48.574 18.64 74.31l-85.26 147.298-172.105-.037 166.605-168.463-132.999-49.5-119.106 75.285-168.394 165.218-66.606-159.813 161.106-59.69 90-56 39.5-47 158.999 10.5z" fill="#fff"/><path d="m1059.94 823.811-164.924 166.76 169.874.036 85.04-146.924c14.7-25.385 6.55-57.852-18.38-73.296l-109.46-67.794-158.435-10.462-39.332 46.8-90.101 56.063-.136.067-160.373 59.418 65.878 158.071 167.604-164.443.124-.099 119.42-75.483 132.841 49.44 3.66-4.576a.745.745 0 0 1 1.05-.117c.33.258.38.73.12 1.054l-3.35 4.19.11.043-.15.159 3.2 2.003c.35.22.46.683.24 1.034a.746.746 0 0 1-1.03.238l-3.49-2.182zm-236.612-86.027-.077.091.178-.154-.101.063zm0 0 39.668-47.2 159.564 10.537 109.78 67.99c25.62 15.871 33.99 49.236 18.89 75.324l-85.47 147.672-174.336-.037 167.056-168.915-131.568-48.965-118.724 75.044-169.129 165.936-67.331-161.555 161.766-59.935 89.834-55.896zm-89.834 55.896-.065.041.136-.067-.071.026z" fill="#002D6F"/><path fill-rule="evenodd" clip-rule="evenodd" d="m916.825 545.857 75.089.872 73.346 7.034 158.57 10.094-40.5-184 66.5.5c38 140.856 57.08 213.464 57.22 217.823.85 25.391-19.04 46.664-44.43 47.514l-220.79-16.337-20.5 69-99.505-4.5-5-148z" fill="#fff"/><path d="m1022.37 699.157-106.297-9.111.505-144.947.756.009 75.152.875 73.324 7.032 157.57 10.031-40.49-183.945 68.01.511.15.55c38.13 141.312 57.1 213.536 57.25 217.993.87 25.805-19.35 47.425-45.24 48.288l-220.19-16.293-20.5 69.007zm-104.792-10.488 103.702 8.889 20.5-68.993.6.045 220.71 16.335c24.98-.837 44.55-21.763 43.71-46.74-.14-4.255-19.27-77.061-57.05-217.102l-64.99-.488 40.51 184.054-.99-.063-158.59-10.096-73.285-7.031-74.332-.863-.495 142.053z" fill="#002D6F"/><path fill-rule="evenodd" clip-rule="evenodd" d="m973.825 700.357 48.655 1.312 2.6-10.5-51.255-1.812v11z" fill="#002D6F"/><path fill-rule="evenodd" clip-rule="evenodd" d="m723.325 461.857-70.317 235.585c-4.58 15.347 3.702 31.585 18.815 36.888l30.002 10.527 152-101.5.106-97.5-70.106 27.5 39-111.5-27-65-28.5 14-44 51z" fill="#fff"/><path d="M824.277 461.107H723.161l-70.477 236.12c-4.695 15.731 3.794 32.376 19.285 37.811l30.356 10.651 152.645-101.93.106-99.002-69.608 27.305 38.809-110.955zm-99.998 1.5h97.884l-39.19 112.045 70.601-27.694-.103 95.998-151.356 101.07-29.649-10.404c-14.735-5.17-22.81-21.002-18.344-35.966l70.157-235.049z" fill="#002D6F"/><path fill-rule="evenodd" clip-rule="evenodd" d="m825.825 487.858-5.445 23.32-111.555-28.32 5.048-24 111.952 29z" fill="#fff"/><path d="m826.521 487.261-6.048 24.257-112.554-28.063 6.048-24.257 112.554 28.063zm-1.818 1.092L715.06 461.016l-5.323 21.347L819.381 509.7l5.322-21.347z" fill="#002D6F"/><path d="M720.889 473.806a6.25 6.25 0 1 0 12.128 3.024 6.25 6.25 0 0 0-12.128-3.024zm1.455.363a4.75 4.75 0 1 1 9.218 2.297 4.75 4.75 0 0 1-9.218-2.297z" fill="#002D6F"/><path d="m970.85 680.811-19.952-1.396a8 8 0 0 0-8.538 7.423l-.977 13.966a8 8 0 0 0 7.423 8.538l19.951 1.396a8 8 0 0 0 8.539-7.423l.976-13.966a8 8 0 0 0-7.422-8.538z" fill="#fff"/><path d="m950.896 679.197 19.951 1.395a8 8 0 0 1 7.423 8.538l-.977 13.966a8 8 0 0 1-8.538 7.423l-19.952-1.395a8 8 0 0 1-7.422-8.539l.976-13.966a8.001 8.001 0 0 1 8.539-7.422zm-.105 1.496a6.5 6.5 0 0 0-6.937 6.031l-.977 13.966a6.5 6.5 0 0 0 6.031 6.937l19.951 1.395a6.5 6.5 0 0 0 6.938-6.03l.976-13.966a6.5 6.5 0 0 0-6.03-6.938l-19.952-1.395z" fill="#002D6F"/><path fill-rule="evenodd" clip-rule="evenodd" d="m851.892 878.527.949-413.67h.945v-2.062H680.825v-53.418l172.105-152.52h63.878v152.52h49.017v53.418h-49.017v2.062h.017v443h-.017v121.523h49.017v53.41h-49.017v40.07h-63.022v-40.07H680.825v-53.41l171.067-150.853zM747.93 1029.36h105l-.5-87.503-104.5 87.503zm-.105-619.503h105l-.395-88-104.605 88z" fill="#EEF5FF"/><path d="m851.538 878.188.948-413.332a.75.75 0 0 1 .75-.749h.195v-.562H681.22a.75.75 0 0 1-.75-.75v-53.418c0-.214.092-.419.253-.561l172.105-152.52a.752.752 0 0 1 .497-.189h63.878a.75.75 0 0 1 .75.75v151.77h48.267a.75.75 0 0 1 .75.75v53.418a.75.75 0 0 1-.75.75h-48.267v1.152a.769.769 0 0 1 .017.16v443a.778.778 0 0 1-.017.161v120.612h48.267c.414 0 .75.33.75.75v53.41c0 .42-.336.75-.75.75h-48.267v39.32c0 .41-.336.75-.75.75h-63.022a.753.753 0 0 1-.75-.75v-39.32H681.22a.746.746 0 0 1-.75-.75v-53.41c0-.22.093-.42.254-.57l170.814-150.622zm1.893-414.081h.75l-.75.75v-.75zm-.394 414.422a.745.745 0 0 1-.254.561L681.97 1029.72v52.32h172.211c.414 0 .75.34.75.75v39.32h61.522v-39.32c0-.41.336-.75.75-.75h48.267v-51.91h-48.267a.753.753 0 0 1-.75-.75V907.857c0-.055.006-.108.017-.16V465.018a.778.778 0 0 1-.017-.161v-2.062a.75.75 0 0 1 .75-.75h48.267v-51.918h-48.267a.75.75 0 0 1-.75-.75v-151.77H853.61L681.97 409.715v52.33h172.211a.75.75 0 0 1 .75.75v2.062a.75.75 0 0 1-.75.75h-.197l-.947 412.922zM748.325 1030.11c-.7 0-1.018-.88-.481-1.33l104.5-87.498a.75.75 0 0 1 1.231.571l.5 87.497a.752.752 0 0 1-.75.76h-105zm104.246-1.5-.486-85.154-101.696 85.154h102.182zM748.22 410.607c-.7 0-1.018-.873-.483-1.324l104.606-87.999a.749.749 0 0 1 1.232.57l.395 88a.749.749 0 0 1-.75.753h-105zm104.247-1.5-.384-85.645-101.806 85.645h102.19z" fill="#002D6F"/><path d="M823.325 815.857c-96.622 0-142.5-44.8-142.5-126.35 0-81.2 45.878-125.65 142.5-125.65 96.275 0 142.5 44.8 142.5 125.65 0 81.2-46.225 126.35-142.5 126.35zm-.5-53c55.644 0 81-27.593 81-73.349 0-45.407-25.356-72.651-81-72.651-55.643 0-81 26.895-81 72.651 0 46.105 25.357 73.349 81 73.349z" fill="#EEF5FF"/><path d="M823.72 816.607c-95.305 0-143.25-43.56-143.25-127.1 0-83.144 47.904-126.4 143.25-126.4 94.984 0 143.25 43.593 143.25 126.4 0 83.203-48.306 127.1-143.25 127.1zm0-1.5c94.146 0 141.75-43.259 141.75-125.6 0-81.943-47.562-124.9-141.75-124.9-94.549 0-141.75 42.621-141.75 124.9 0 82.678 47.243 125.6 141.75 125.6zm-.5-51.5c-54.324 0-81.75-25.939-81.75-74.099 0-47.763 27.392-73.401 81.75-73.401 54.223 0 81.75 25.855 81.75 73.401 0 47.943-27.559 74.099-81.75 74.099zm0-1.5c53.38 0 80.25-25.502 80.25-72.599 0-46.695-26.835-71.901-80.25-71.901-53.551 0-80.25 24.99-80.25 71.901 0 47.312 26.736 72.599 80.25 72.599z" fill="#002D6F"/><path d="M730.939 794.356c-33.753-20.805-50.114-56.32-50.114-104.849 0-48.764 16.662-84.274 51.048-104.862l29.541 51.422c-13.264 12.442-19.589 30.589-19.589 53.441 0 22.273 5.918 40.145 18.309 52.669l-29.195 52.179zm184.772 0-29.195-52.179c12.391-12.524 18.309-30.396 18.309-52.669 0-22.852-6.325-40.999-19.588-53.441l29.54-51.422c34.386 20.588 51.048 56.098 51.048 104.862 0 48.529-16.36 84.044-50.114 104.849z" fill="#002D6F"/><path d="M725.463 695.556c-.83 6.239-6.172 11.052-12.638 11.052s-11.807-4.813-12.638-11.052l-.831.832a.75.75 0 1 1-1.061-1.061l2.53-2.53 2.531 2.53a.75.75 0 1 1-1.061 1.061l-.545-.545c.895 5.027 5.128 8.898 10.325 9.24v-21.535a4.75 4.75 0 1 1 1.5.001v21.534c5.197-.342 9.431-4.213 10.326-9.24l-.545.545a.75.75 0 1 1-1.061-1.061l2.53-2.53 2.531 2.53a.75.75 0 1 1-1.061 1.061l-.832-.832zm-13.479-13.559a3.25 3.25 0 1 0 1.682-6.277 3.25 3.25 0 0 0-1.682 6.277zm222.591 23.086v-21.535a4.75 4.75 0 1 0-1.5.001v21.534c-5.197-.342-9.43-4.213-10.325-9.24l.545.545a.75.75 0 1 0 1.061-1.061l-2.531-2.53-2.53 2.53a.75.75 0 1 0 1.061 1.061l.831-.832c.831 6.239 6.172 11.052 12.638 11.052s11.808-4.813 12.638-11.052l.832.832a.75.75 0 1 0 1.061-1.061l-2.531-2.53-2.53 2.53a.75.75 0 1 0 1.061 1.061l.545-.545c-.895 5.027-5.129 8.898-10.326 9.24zm.091-23.086a3.25 3.25 0 1 1-1.682-6.278 3.25 3.25 0 0 1 1.682 6.278z" fill="#fff"/><path fill-rule="evenodd" clip-rule="evenodd" d="m1127.83 396.857-66.43 12.735c7.26 8.022 16.53 12.237 27.82 12.645 11.29.408 26.73-.895 46.32-3.91l-7.71-21.47z" fill="#fff"/><path d="m1111.52 398.012-.37-1.454-51.33 13.021.84.924c7.39 8.173 16.86 12.476 28.35 12.891 11.34.41 26.83-.897 46.46-3.918l-.23-1.483c-19.55 3.008-34.94 4.308-46.18 3.902-10.65-.385-19.45-4.207-26.43-11.48l48.89-12.403z" fill="#002D6F"/><mask id="a" mask-type="alpha" maskUnits="userSpaceOnUse" x="933" y="379" width="140" height="167"><path d="m992.325 545.857 10.005-40 18.77 2.625c15.88 2.219 30.94-7.648 35.25-23.085l14.95-53.512c6.09-21.81-6.66-44.427-28.47-50.517a41.007 41.007 0 0 0-11.02-1.511h-33.648a27 27 0 0 0-26.119 20.156l-38.218 145.844h58.5z" fill="#fff"/></mask><g mask="url(#a)"><path d="m992.325 545.857 10.005-40 18.77 2.625c15.88 2.219 30.94-7.648 35.25-23.085l14.95-53.512c6.09-21.81-6.66-44.427-28.47-50.517a41.007 41.007 0 0 0-11.02-1.511h-33.648a27 27 0 0 0-26.119 20.156l-38.218 145.844h58.5z" fill="#fff"/><mask id="b" mask-type="alpha" maskUnits="userSpaceOnUse" x="933" y="379" width="140" height="167"><path d="m992.325 545.857 10.005-40 18.77 2.625c15.88 2.219 30.94-7.648 35.25-23.085l14.95-53.512c6.09-21.81-6.66-44.427-28.47-50.517a41.007 41.007 0 0 0-11.02-1.511h-33.648a27 27 0 0 0-26.119 20.156l-38.218 145.844h58.5z" fill="#fff"/></mask><g mask="url(#b)"><path d="m992.325 545.857 10.005-40 18.77 2.625c15.88 2.219 30.94-7.648 35.25-23.085l14.95-53.512c6.09-21.81-6.66-44.427-28.47-50.517a41.007 41.007 0 0 0-11.02-1.511h-33.648a27 27 0 0 0-26.119 20.156l-38.218 145.844h58.5z" fill="#fff"/><path fill-rule="evenodd" clip-rule="evenodd" d="m1064.69 439.498 5.14-.641-.68 10.366a2.772 2.772 0 0 1-3.16 2.576 2.998 2.998 0 0 1-2.55-3.388l1.25-8.913z" fill="#002D6F"/></g><path d="M1021 509.225c16.24 2.271 31.66-7.827 36.08-23.626l14.94-53.513c6.2-22.208-6.78-45.239-28.98-51.44a41.805 41.805 0 0 0-11.23-1.539h-33.648a27.75 27.75 0 0 0-26.844 20.716l-38.464 146.784h60.057l9.979-39.913 18.11 2.531zm-29.26 35.882h-56.943l37.972-144.904a26.25 26.25 0 0 1 25.393-19.596h33.648c3.66 0 7.3.499 10.82 1.484 21.41 5.978 33.92 28.182 27.94 49.592l-14.94 53.512c-4.21 15.076-18.92 24.711-34.42 22.544l-19.45-2.718-10.02 40.086z" fill="#002D6F"/></g><mask id="c" mask-type="alpha" maskUnits="userSpaceOnUse" x="944" y="379" width="94" height="84"><path d="m1011.81 433.841-2.86-2.858c-6.16-6.165-16.141-6.221-22.375-.126-5.928 5.797-6.035 15.302-.238 21.23.164.168.332.332.504.492l2.032 1.892c-10.741 4.623-25.424 7.418-44.048 8.386l26.529-67.75a24 24 0 0 1 22.348-15.25h43.628c-9.27 24-17.77 41.995-25.52 53.984z" fill="#fff"/></mask><g mask="url(#c)"><path d="m1011.81 433.841-2.86-2.858c-6.16-6.165-16.141-6.221-22.375-.126-5.928 5.797-6.035 15.302-.238 21.23.164.168.332.332.504.492l2.032 1.892c-10.741 4.623-25.424 7.418-44.048 8.386l26.529-67.75a24 24 0 0 1 22.348-15.25h43.628c-9.27 24-17.77 41.995-25.52 53.984z" fill="#002D6F"/></g><path fill-rule="evenodd" clip-rule="evenodd" d="m997.825 359.357 26.005-21 18.5 21m-68.505 0 16.5 20.5h56.505l20-20.5h-93.005z" fill="#fff"/><path d="m1023.74 339.892 18.02 20.461 1.13-.992-18.98-21.539-26.556 21.452.943 1.167 25.443-20.549z" fill="#002D6F"/><path d="m973.241 360.328 16.5 20.5a.751.751 0 0 0 .585.279h56.504c.2 0 .39-.081.53-.226l20-20.5a.748.748 0 0 0-.53-1.274h-93.004a.75.75 0 0 0-.585 1.221zm91.809.279-18.54 19h-55.825l-15.293-19h89.658z" fill="#002D6F"/><path fill-rule="evenodd" clip-rule="evenodd" d="m1061.83 440.857 1.5 34-15.5-11.5m-109.505 59.5h37.105l1 23.587 13.5-23.587h12.4l-8.005 24-63.5-.5 7.5-23.5z" fill="#fff"/><path d="m1043.56 438.824-1.18 8.422a2.999 2.999 0 1 1-5.94-.835l1.22-8.689-15.47-2.889a.745.745 0 0 1-.6-.875.745.745 0 0 1 .87-.599l25.5 4.761c.41.076.68.468.6.875a.746.746 0 0 1-.87.6l-4.13-.771zm18.38.792 7.74-1.495a.75.75 0 0 1 .29 1.473l-7.36 1.421 1.46 33.309a.745.745 0 0 1-1.19.636l-2.3-1.704 2.75 9.601a11.268 11.268 0 0 1-7.55-6.821l-.45-1.179a40.681 40.681 0 0 1-20 3.831l-13-.831 27.34-12.696-2.29-1.701a.76.76 0 0 1-.16-1.05.752.752 0 0 1 1.05-.155l14.24 10.561-1.43-32.426a.746.746 0 0 1 .86-.774zm-85.147 107.853-10.443 37.377a.75.75 0 1 1-1.444-.403l10.333-36.986-44.42-.35a.75.75 0 0 1-.708-.978l7.5-23.5a.75.75 0 0 1 .714-.522h37.105a.75.75 0 0 1 .75.719l.89 20.991 12.21-21.332a.747.747 0 0 1 .65-.378h12.4c.51 0 .87.502.71.988l-8.003 24a.75.75 0 0 1-.718.512l-17.526-.138zm-44.944-1.854 43.81.345-.947-22.353h-35.839l-7.024 22.008zm61.937.488 7.494-22.496h-10.915l-12.802 22.368 16.223.128z" fill="#002D6F"/><path fill-rule="evenodd" clip-rule="evenodd" d="M1070.53 409.857h58.8c3 13.334 14.66 20 35 20 4.01 0 8.98-1.463 14.91-4.391l15.09-.109v-45.5h-157.5c1.99 17.103 16.48 30 33.7 30z" fill="#fff"/><path d="M1164.22 430.607c4.11 0 9.14-1.469 15.09-4.393l15.66-.112v-46.995h-159.09l.1.837c2.03 17.481 16.84 30.663 34.44 30.663h58.21c3.29 13.341 15.24 20 35.59 20zm29.25-50v44.006l-14.51.104-.16.076c-5.83 2.881-10.7 4.314-14.58 4.314-20.02 0-31.36-6.479-34.27-19.414l-.13-.586h-59.4c-16.55 0-30.53-12.193-32.85-28.5h155.9z" fill="#002D6F"/><path d="M1036.28 380.468c9.58 6.844 21.05 6.844 34.28.057l-.68-1.335c-12.77 6.547-23.64 6.547-32.72.057l-.88 1.221z" fill="#002D6F"/><path d="M1217.83 377.857h-24v91h24v-91z" fill="#fff"/><path d="M1193.22 377.857h25v91h-25v-91zm1.5 89.5h22v-88h-22v88z" fill="#002D6F"/><path d="M1205.72 458.607a6.251 6.251 0 0 0 0-12.5 6.251 6.251 0 0 0 0 12.5zm0-1.5a4.752 4.752 0 0 1-4.75-4.75c0-2.623 2.13-4.75 4.75-4.75s4.75 2.127 4.75 4.75c0 2.624-2.13 4.75-4.75 4.75zm-288.396-48.5-235.5.5.003 1.5 235.5-.5-.003-1.5z" fill="#002D6F"/><path d="m917.325 462.357-64.105 1" stroke="#002D6F" stroke-width="1.5"/><path d="M896.575 1083.61h-21.5v38.25c0 .41-.336.75-.75.75a.753.753 0 0 1-.75-.75v-38.25h-19.75v-1.5h64v1.5h-19.75v38.25c0 .41-.336.75-.75.75a.753.753 0 0 1-.75-.75v-38.25zm69.053-55H681.825c-.414 0-.75.33-.75.75 0 .41.336.75.75.75h283.803c.414 0 .75-.34.75-.75 0-.42-.336-.75-.75-.75z" fill="#002D6F"/><path fill-rule="evenodd" clip-rule="evenodd" d="M798.825 394.857h8a8 8 0 0 1 8 8v58c0 6.628-5.372 12-12 12-6.627 0-12-5.372-12-12v-58a8 8 0 0 1 8-8zm24 0h8a8 8 0 0 1 8 8v58c0 6.628-5.372 12-12 12-6.627 0-12-5.372-12-12v-58a8 8 0 0 1 8-8zm24 0h8a8 8 0 0 1 8 8v58c0 6.628-5.372 12-12 12-6.627 0-12-5.372-12-12v-58a8 8 0 0 1 8-8z" fill="#fff"/><path d="M838.72 463.869c-1.517 5.194-6.315 8.988-12 8.988-5.684 0-10.482-3.794-12-8.988-1.517 5.194-6.315 8.988-12 8.988-6.903 0-12.5-5.596-12.5-12.5v-57.5a8 8 0 0 1 8-8h9a8.004 8.004 0 0 1 7.5 5.21 8.005 8.005 0 0 1 7.5-5.21h9a8.004 8.004 0 0 1 7.5 5.21 8.005 8.005 0 0 1 7.5-5.21h9a8 8 0 0 1 8 8v57.5c0 6.904-5.596 12.5-12.5 12.5-5.684 0-10.482-3.794-12-8.988zm-40.5-67.512a6.5 6.5 0 0 0-6.5 6.5v57.5c0 6.076 4.925 11 11 11s11-4.924 11-11v-57.5a6.5 6.5 0 0 0-6.5-6.5h-9zm24 0a6.5 6.5 0 0 0-6.5 6.5v57.5c0 6.076 4.925 11 11 11s11-4.924 11-11v-57.5a6.5 6.5 0 0 0-6.5-6.5h-9zm24 0a6.5 6.5 0 0 0-6.5 6.5v57.5c0 6.076 4.925 11 11 11s11-4.924 11-11v-57.5a6.5 6.5 0 0 0-6.5-6.5h-9z" fill="#002D6F"/><path d="m792.868 396.695-23.5 12.5.705 1.325 23.5-12.5-.705-1.325z" fill="#002D6F"/><path fill-rule="evenodd" clip-rule="evenodd" d="M726.644 582.98a6 6 0 0 1 8.196 2.196l28.5 49.363a6 6 0 1 1-10.393 6l-28.5-49.363a6 6 0 0 1 2.197-8.196zm0 214.121a5 5 0 0 1-1.831-6.83l29.5-51.095a5 5 0 0 1 8.661 5l-29.5 51.095a5 5 0 0 1-6.83 1.83zm193.318-214.005a5.5 5.5 0 0 1 2.013 7.513l-28 48.497a5.5 5.5 0 1 1-9.526-5.5l28-48.497a5.499 5.499 0 0 1 7.513-2.013zm-.067 212.773a6 6 0 0 1-8.196-2.196l-28-48.497a6 6 0 1 1 10.392-6l28 48.497a6 6 0 0 1-2.196 8.196z" fill="#fff"/><path d="M726.825 582.547a6.5 6.5 0 0 1 8.879 2.379l28.5 49.363a6.5 6.5 0 1 1-11.258 6.5l-28.5-49.363a6.5 6.5 0 0 1 2.379-8.879zm-1.08 8.129 28.5 49.363a5 5 0 1 0 8.66-5l-28.5-49.363a5 5 0 1 0-8.66 5zm1.08 206.492a6.5 6.5 0 0 1-2.379-8.879l28.5-49.363a6.5 6.5 0 1 1 11.258 6.5l-28.5 49.363a6.5 6.5 0 0 1-8.879 2.379zm.75-1.299a4.999 4.999 0 0 0 6.83-1.83l28.5-49.363a5 5 0 1 0-8.66-5l-28.5 49.363a5 5 0 0 0 1.83 6.83zm193.501-213.322a6.5 6.5 0 0 1 2.38 8.879l-28.5 49.363a6.5 6.5 0 0 1-11.259-6.5l28.5-49.363a6.5 6.5 0 0 1 8.879-2.379zm-7.58 3.129-28.5 49.363a5 5 0 0 0 8.66 5l28.5-49.363a5 5 0 1 0-8.66-5zm7.58 211.492a6.5 6.5 0 0 1-8.879-2.379l-28.5-49.363a6.5 6.5 0 0 1 11.259-6.5l28.5 49.363a6.5 6.5 0 0 1-2.38 8.879zm-.75-1.299a4.999 4.999 0 0 0 1.83-6.83l-28.5-49.363a5 5 0 0 0-8.66 5l28.5 49.363a5 5 0 0 0 6.83 1.83zM793.842 459.901a.75.75 0 1 1-1.033-1.087c6.966-6.619 13.465-6.619 19.09.06a.75.75 0 0 1-1.147.967c-5.043-5.988-10.544-5.988-16.91.06zm24.5 0a.75.75 0 1 1-1.033-1.087c6.966-6.619 13.465-6.619 19.09.06a.75.75 0 0 1-1.147.967c-5.043-5.988-10.544-5.988-16.91.06zm24 0a.75.75 0 1 1-1.033-1.087c6.966-6.619 13.465-6.619 19.09.06a.75.75 0 0 1-1.147.967c-5.043-5.988-10.544-5.988-16.91.06z" fill="#002D6F"/><path d="m852.325 878.357.448 66.5" stroke="#002D6F" stroke-width="1.5" stroke-linejoin="round"/><path d="m852.47 257.353 1.5.009-.395 65-1.5-.009.395-65zm21.105-1.245c0-.415.336.5.75.5a.75.75 0 0 1 .75.75l-.25 152c0 .414-.086.5-.5.5-.414 0-1-.086-1-.5l.25-153.25zm23.5 1.25a.75.75 0 1 1 1.5 0l-.25 152a.75.75 0 0 1-1.5 0l.25-152z" fill="#002D6F"/></svg>