<svg width="1840" height="1380" viewBox="0 0 1840 1380" fill="none" xmlns="http://www.w3.org/2000/svg"><path fill-rule="evenodd" clip-rule="evenodd" d="M1126.55 396.027a2.93 2.93 0 0 1 2.8-2.093h.02c1.17.006 2.12.963 2.11 2.137v.763a2.56 2.56 0 0 1-2.51 2.556l-.37.007a2.257 2.257 0 0 1-2.28-2.552c.01-.087.09-.36.23-.818zm10 48a2.93 2.93 0 0 1 2.8-2.093h.02c1.17.006 2.12.963 2.11 2.137v.763a2.56 2.56 0 0 1-2.51 2.556l-.37.007a2.257 2.257 0 0 1-2.28-2.552c.01-.087.09-.36.23-.818zM839.628 409.06c.184.42.286.672.308.755a2.273 2.273 0 0 1-1.954 2.827l-.426.047a2.552 2.552 0 0 1-2.81-2.236l-.088-.717a2.18 2.18 0 0 1 1.897-2.428 2.961 2.961 0 0 1 3.073 1.752zm-3.184 43.344c.21.479.328.767.352.863a2.597 2.597 0 0 1-2.233 3.231l-.486.053a2.917 2.917 0 0 1-3.212-2.556l-.1-.819a2.488 2.488 0 0 1 2.167-2.774 3.382 3.382 0 0 1 3.512 2.002zm102.193-146.228a5.094 5.094 0 0 1 4.881-3.637 3.749 3.749 0 0 1 3.749 3.749l.001 1.251a4.4 4.4 0 0 1-4.339 4.416l-.723.01a3.917 3.917 0 0 1-3.938-4.426c.019-.148.143-.603.369-1.363z" fill="#F6F0FF"/><path fill-rule="evenodd" clip-rule="evenodd" d="M889.302 693.935c2.311 18.057 4.145 28.391 5.5 31 2.033 3.913 12.5 7.5 14.5 7.5 1.333 0 50.666 4.166 147.998 12.5 7.34 0 13.67-2.167 19-6.5 2.15-1.748 1.94-4.248 3-8 1.05-3.703 2.05-11.536 3-23.5l-25-13H889.302z" fill="#fff"/><path d="M836.854 406.845a2.929 2.929 0 0 0-2.55 3.263l.088.714a3.301 3.301 0 0 0 3.636 2.893l.426-.046a3.023 3.023 0 0 0 2.599-3.76c-.037-.141-.142-.398-.348-.869a3.708 3.708 0 0 0-3.851-2.195zm2.477 2.796c.162.369.262.616.269.643a1.522 1.522 0 0 1-1.309 1.894l-.425.046a1.802 1.802 0 0 1-1.985-1.579l-.088-.72a1.428 1.428 0 0 1 1.244-1.591c.97-.12 1.903.412 2.294 1.307zm-6.099 40.297a3.24 3.24 0 0 0-2.821 3.61l.1.817a3.666 3.666 0 0 0 4.038 3.212l.486-.052a3.347 3.347 0 0 0 2.878-4.164c-.039-.154-.159-.446-.391-.977a4.134 4.134 0 0 0-4.29-2.446zm2.916 3.047c.188.429.303.712.313.751a1.848 1.848 0 0 1-1.588 2.297l-.486.053a2.167 2.167 0 0 1-2.387-1.898l-.1-.822a1.74 1.74 0 0 1 1.514-1.939 2.634 2.634 0 0 1 2.734 1.558zm293.222-60.169a3.69 3.69 0 0 0-3.52 2.627c-.15.511-.23.788-.25.934a3.001 3.001 0 0 0 3.03 3.401l.38-.007a3.304 3.304 0 0 0 3.24-3.305v-.015c0-.069 0-.319.01-.744a2.879 2.879 0 0 0-2.86-2.891h-.03zm-2.28 3.761c0-.029.08-.298.2-.703a2.187 2.187 0 0 1 2.08-1.558h.02a1.38 1.38 0 0 1 1.37 1.383c-.01.429-.01.678-.01.751v.016a1.8 1.8 0 0 1-1.77 1.805l-.37.008a1.504 1.504 0 0 1-1.52-1.702zm12.28 44.239a3.69 3.69 0 0 0-3.52 2.627c-.15.511-.23.788-.25.934a3.001 3.001 0 0 0 3.03 3.401l.38-.007a3.304 3.304 0 0 0 3.24-3.305v-.015c0-.069 0-.319.01-.744a2.879 2.879 0 0 0-2.86-2.891h-.03zm-2.28 3.761c0-.029.08-.298.2-.703a2.187 2.187 0 0 1 2.08-1.558h.02a1.38 1.38 0 0 1 1.37 1.383c-.01.429-.01.678-.01.751v.016a1.8 1.8 0 0 1-1.77 1.805l-.37.008a1.504 1.504 0 0 1-1.52-1.702zM937.488 307.638a4.669 4.669 0 0 0 4.693 5.274l.722-.01a5.15 5.15 0 0 0 5.079-5.169l-.001-1.249a4.5 4.5 0 0 0-4.499-4.499 5.843 5.843 0 0 0-5.599 4.173c-.243.814-.367 1.273-.395 1.48zm5.994-4.153a3 3 0 0 1 2.999 3l.001 1.253a3.65 3.65 0 0 1-3.599 3.664l-.723.01a3.167 3.167 0 0 1-3.184-3.579c.012-.09.133-.539.344-1.246a4.344 4.344 0 0 1 4.162-3.102z" fill="#67577F"/><path d="m893.48 441.173-6.332 13.261-50.146-1.504-.045 1.5 51.123 1.532 7.081-14.829 29.773-.707-.035-1.5-30.607.727-5.199-20.436-49.189-9.116-.273 1.475 48.245 8.941 5.257 20.664.347-.008z" fill="#67577F"/><path fill-rule="evenodd" clip-rule="evenodd" d="m1001.8 505.435 72.5-14-32.5 87.5h-28l-12-73.5z" fill="#67577F"/><path fill-rule="evenodd" clip-rule="evenodd" d="m911.302 594.434-115.809-27.515a56.002 56.002 0 0 0-46.069 9.331l-80.448 59.017a56.002 56.002 0 0 0-22.7 40.728l-10.974 138.439h26l15.311-128.615a44.004 44.004 0 0 1 16.864-29.674l73.119-56.245a27.998 27.998 0 0 1 21.777-5.408l119.929 20.442 3-20.5z" fill="#fff"/><path d="M912.144 593.863 795.667 566.19a56.75 56.75 0 0 0-46.686 9.455l-80.448 59.018a56.748 56.748 0 0 0-23.005 41.273L634.49 815.184h27.478l15.39-129.276a43.25 43.25 0 0 1 16.577-29.168l73.119-56.245a27.244 27.244 0 0 1 21.193-5.264l120.686 20.572 3.211-21.94zm-4.473 20.203-119.172-20.314a28.75 28.75 0 0 0-22.36 5.554l-73.119 56.245a44.747 44.747 0 0 0-17.151 30.18l-15.233 127.953h-24.522l10.91-137.63a55.248 55.248 0 0 1 22.396-40.182l80.448-59.017a55.249 55.249 0 0 1 45.452-9.206l115.141 27.356-2.79 19.061z" fill="#67577F"/><path fill-rule="evenodd" clip-rule="evenodd" d="m908.859 731.663-7.557-30.228 142.498 9.5 1.63 4.224 11.87 29.005c8.57-.365 14.42-1.824 17.53-4.315 2.78-2.219 4.92-10.55 6.29-24.807l-21.82-16.411 11-117.696 23.5 42-10.75 86.948v.108c-1.35 17.913-3.71 28.171-7.28 31.029-3.44 2.754-9.62 4.284-18.57 4.65l.1.265-147.998-12.5-.063-.252a18.506 18.506 0 0 1-17.685-16.022l-3.04-22.545 1.486-.201 3.04 22.546a17.007 17.007 0 0 0 15.819 14.702z" fill="#67577F"/><path d="m883.302 456.312 5.189 25.946c4.869 24.342 28.529 40.144 52.879 35.315l132.43-26.261-14.71-62.233c-10.34-43.749-52.26-72.451-96.788-66.267-5.905.82-12.233 1.913-18.986 3.278-41.46 8.381-68.31 48.745-60.014 90.222z" fill="#fff"/><mask id="a" mask-type="alpha" maskUnits="userSpaceOnUse" x="881" y="361" width="193" height="158"><path d="m883.302 456.312 5.189 25.946c4.869 24.342 28.529 40.144 52.879 35.315l132.43-26.261-14.71-62.233c-10.34-43.749-52.26-72.451-96.788-66.267-5.905.82-12.233 1.913-18.986 3.278-41.46 8.381-68.31 48.745-60.014 90.222z" fill="#fff"/></mask><g mask="url(#a)"><path fill-rule="evenodd" clip-rule="evenodd" d="m882.302 502.935 104.882-17.481c10.246-1.707 17.476-10.974 16.646-21.328l-2.05-25.562c-.97-12.112-11.58-21.141-23.691-20.169-.847.068-1.689.185-2.523.35l-109.264 21.69 16 62.5z" fill="#F6F0FF"/><path d="m881.746 503.288 105.561-17.594c10.63-1.772 18.133-11.386 17.273-22.128l-2.05-25.562c-1.01-12.525-11.977-21.862-24.501-20.857-.876.071-1.747.192-2.608.363l-110.042 21.843 16.367 63.935zm-14.521-62.772 108.488-21.535c.805-.16 1.618-.273 2.436-.338 11.699-.94 21.941 7.782 22.881 19.481l2.05 25.562c.8 9.965-6.158 18.885-16.019 20.529l-104.203 17.367-15.633-61.066z" fill="#67577F"/></g><path d="m944.518 340.29-.216-28.355a.75.75 0 1 0-1.5 0l.216 29.105c0 .414.336.75.75.75h20.263l-11.428 21.903a.75.75 0 1 0 1.33.693l12-23a.75.75 0 0 0-.665-1.096h-20.75z" fill="#67577F"/><path d="m882.567 456.459 5.189 25.946c4.949 24.748 29.005 40.813 53.76 35.904l132.434-26.261a.75.75 0 0 0 .58-.908l-14.71-62.234c-10.43-44.125-52.71-73.074-97.621-66.837-5.921.823-12.264 1.918-19.031 3.286-41.866 8.462-68.978 49.221-60.601 91.104zm58.658 60.379c-23.944 4.748-47.211-10.791-51.998-34.727l-5.189-25.946c-8.215-41.072 18.372-81.041 59.427-89.34 6.738-1.362 13.051-2.452 18.94-3.27 44.145-6.131 85.705 22.324 95.955 65.696l14.53 61.477-131.665 26.11z" fill="#67577F"/><path fill-rule="evenodd" clip-rule="evenodd" d="M904.024 578.739 887.623 685.19c-1.178 7.642 4.063 14.792 11.705 15.969.391.06.785.104 1.18.131l143.472 9.776c7.21.492 13.61-4.588 14.77-11.723l17.11-105.327c1.24-7.632-3.95-14.824-11.58-16.063-.39-.064-.79-.111-1.19-.141L918.916 566.91c-7.291-.551-13.779 4.602-14.892 11.829z" fill="#fff"/><path d="m903.283 578.625-16.401 106.451c-1.241 8.051 4.28 15.584 12.332 16.824.412.064.827.11 1.243.138l143.473 9.777c7.6.518 14.34-4.834 15.56-12.352l17.11-105.327c1.3-8.041-4.16-15.618-12.2-16.924a14.31 14.31 0 0 0-1.25-.148l-144.177-10.901c-7.682-.581-14.517 4.848-15.69 12.462zm1.482.228c1.054-6.84 7.194-11.716 14.095-11.195l144.18 10.901c.37.029.75.073 1.12.134 7.23 1.173 12.13 7.98 10.96 15.203l-17.11 105.327c-1.09 6.753-7.15 11.56-13.98 11.095l-143.471-9.776a13.478 13.478 0 0 1-1.117-.124c-7.232-1.115-12.192-7.881-11.078-15.113l16.401-106.452z" fill="#67577F"/><path fill-rule="evenodd" clip-rule="evenodd" d="M629.172 813.167c-.451 8.697 6.233 16.113 14.931 16.564.256.014.513.021.769.021l8.568.026c8.811.027 15.975-7.094 16.002-15.905v-.072c-.014-8.929-7.118-16.232-16.043-16.491l-6.818-.198c-9.202-.268-16.932 6.862-17.409 16.055zm189.766 188.553 73.364-35.496-92.775-65.29-72.225 29.254" fill="#fff"/><path d="M628.673 813.642c-.472 9.11 6.53 16.879 15.641 17.352.269.014.538.021.806.022l8.569.026c9.225.028 16.725-7.428 16.753-16.653v-.075c-.014-9.334-7.441-16.969-16.771-17.24l-6.818-.198c-9.609-.279-17.682 7.166-18.18 16.766zm1.498.077c.456-8.786 7.844-15.599 16.638-15.344l6.819.198c8.519.248 15.301 7.219 15.314 15.743v.068c-.025 8.397-6.852 15.183-15.249 15.158l-8.568-.026a14.91 14.91 0 0 1-.733-.02c-8.284-.43-14.65-7.493-14.221-15.777z" fill="#67577F"/><path fill-rule="evenodd" clip-rule="evenodd" d="m624.304 1001.72-78.5 34.21c-45.825-49.321-68.659-74.655-68.5-75.996.158-1.342 27.158-11.342 81-30l66 71.786zm7.996 98.42 177.002-1.21 10-97h-195l-40.5 17.5 5 40.5 43.498 40.21z" fill="#fff"/><path fill-rule="evenodd" clip-rule="evenodd" d="M696.302 1001.93v58l31-19 29 19v-58h-60z" fill="#F6F0FF"/><path d="m631.56 1100.06-43.464-39.76-5.445-39.81-37.043 16.14L476 959.399l82.514-29.839 66.311 71.41h193.943l72.062-34.865-91.398-64.322-71.63 29.652-.563-1.391 72.387-29.958 94.151 66.259-73.751 35.685-10.045 97.44-178.37 1.22-.051-.63zm-.179-2.2-7.756-95.23-39.546 17.23 5.429 39.7 41.873 38.3zm-6.264-95.39 7.876 96.71 175.633-1.2 9.846-95.51H625.117zm-67.027-71.161-79.483 28.742 67.392 74.769 77.035-33.57-64.944-69.941z" fill="#67577F"/><path d="M755.891 1060.56a.749.749 0 0 0 1.161-.63v-58c0-.41-.336-.75-.75-.75h-60c-.414 0-.75.34-.75.75v58c0 .59.642.95 1.142.64l30.594-18.75 28.603 18.74zm-.339-57.88v55.87l-27.839-18.24a.752.752 0 0 0-.803-.02l-29.858 18.3v-55.91h58.5z" fill="#67577F"/><path d="M898.049 457.422a4.5 4.5 0 0 1 8.835-1.718l2.671 13.743a4.5 4.5 0 1 1-8.835 1.717l-2.671-13.742zm70.437-8.827a5.001 5.001 0 0 1 9.926-1.218l1.706 13.895a5.001 5.001 0 0 1-9.926 1.219l-1.706-13.896z" fill="#fff"/><path d="m973.336 442.963-.992.122a4.501 4.501 0 0 0-3.919 5.015l1.829 14.888a4.499 4.499 0 0 0 5.014 3.918l.993-.122a4.5 4.5 0 0 0 3.918-5.015l-1.828-14.888a4.5 4.5 0 0 0-5.015-3.918zm.183 1.489a3 3 0 0 1 3.343 2.612l1.828 14.888a3 3 0 0 1-2.612 3.343l-.992.122a3 3 0 0 1-3.344-2.612l-1.828-14.888a3 3 0 0 1 2.612-3.343l.993-.122zm-.435.557a3 3 0 0 0-2.612 3.343l1.706 13.896a3 3 0 1 0 5.955-.731l-1.706-13.896a3 3 0 0 0-3.343-2.612zm6.83-1.868a.75.75 0 1 0 .158-1.492l-13.851-1.464a.75.75 0 1 0-.158 1.491l13.851 1.465zm-84.343 10.493 13-5a.749.749 0 1 0-.538-1.4l-13 5a.75.75 0 1 0 .538 1.4zm39.549 19.756c1.951-2.41 4.465-3.768 7.583-4.096 5.179-.544 6.335-.402 10.327 1.331a.75.75 0 1 0 .597-1.376c-4.244-1.843-5.658-2.016-11.081-1.446-3.512.369-6.389 1.923-8.592 4.643a.75.75 0 0 0 1.166.944zm-32.914-21.828-.988.156a4.5 4.5 0 0 0-3.74 5.149l2.346 14.815a4.501 4.501 0 0 0 5.149 3.741l.987-.157a4.5 4.5 0 0 0 3.741-5.148l-2.347-14.816a4.499 4.499 0 0 0-5.148-3.74zm.235 1.481a3 3 0 0 1 3.432 2.494l2.346 14.815a3 3 0 0 1-2.493 3.433l-.988.156a3 3 0 0 1-3.432-2.494l-2.347-14.815a3 3 0 0 1 2.494-3.432l.988-.157zm-.416.572a3 3 0 0 0-2.494 3.433l2.19 13.827a3 3 0 0 0 5.926-.938l-2.19-13.828a3 3 0 0 0-3.432-2.494z" fill="#67577F"/><path fill-rule="evenodd" clip-rule="evenodd" d="M818.304 1001.72h-194l-66-71.495h169l91 71.495zm-208.919 45.71c-3.45.99-7.852-3.8-9.831-10.7-1.979-6.91-.786-13.3 2.665-14.29 3.451-.99 7.852 3.8 9.831 10.7 1.979 6.9.786 13.3-2.665 14.29z" fill="#67577F"/><path fill-rule="evenodd" clip-rule="evenodd" d="m1002.84 735.388 27.2 156.547-9.24 175.495-27.764 25.03a4.001 4.001 0 0 0-.293 5.65 4.002 4.002 0 0 0 2.971 1.32h87.586c-12.46-94.08-22.55-164.243-30.26-210.495-7.45-44.689-17.66-96.921-30.63-156.697a7.998 7.998 0 0 0-7.82-6.303h-2.55c-.68 0-1.41.044-2.21.132a7.996 7.996 0 0 0-7.06 8.836c.01.162.04.324.07.485z" fill="#fff"/><path d="m1019.83 1067.09-27.535 24.82a4.74 4.74 0 0 0-.348 6.7c.901 1 2.183 1.57 3.529 1.57h87.584c.46 0 .81-.39.75-.84-12.47-94.09-22.56-164.267-30.27-210.529-7.45-44.701-17.66-96.945-30.63-156.732a8.76 8.76 0 0 0-8.55-6.894h-2.56c-.71 0-1.47.045-2.29.137-4.8.534-8.26 4.861-7.73 9.664.02.177.05.354.08.53l27.19 156.464-9.22 175.11zm-.02.31.25-.52-.23.21-.02.31zm62.4 31.28h-86.734c-.921 0-1.798-.39-2.414-1.07a3.25 3.25 0 0 1 .238-4.59l27.77-25.03a.77.77 0 0 0 .24-.52l9.24-175.496-.01-.168-27.2-156.547a6.568 6.568 0 0 1-.07-.439 7.257 7.257 0 0 1 6.41-8.008c.76-.085 1.47-.127 2.12-.127h2.56c3.41 0 6.36 2.378 7.08 5.712 12.97 59.765 23.17 111.986 30.62 156.661 7.69 46.103 17.74 115.982 30.15 209.622z" fill="#67577F"/><path fill-rule="evenodd" clip-rule="evenodd" d="M1023.4 890.327c-.92-7.723 4.59-14.732 12.31-15.668l5.11-.62c7.74-.938 14.82 4.469 15.95 12.186.02.098.03.196.04.294.94 7.52-4.4 14.375-11.92 15.312l-5.86.731-.08.009c-7.67.914-14.63-4.568-15.55-12.244zm9-1.36a6.163 6.163 0 0 0 6.86 5.373l2.74-.33a5.948 5.948 0 0 0 5.19-6.626c0-.059-.01-.117-.02-.175a6.341 6.341 0 0 0-7.01-5.352l-2.4.282a6.126 6.126 0 0 0-5.37 6.795c0 .011.01.022.01.033z" fill="#F6F0FF"/><path d="M1022.29 890.771c-.97-8.133 4.83-15.516 12.96-16.501l5.11-.62c8.15-.987 15.6 4.702 16.79 12.822.01.103.03.207.04.31.99 7.931-4.64 15.161-12.57 16.149l-5.86.731-.08.01c-8.09.962-15.43-4.814-16.39-12.901zm1.49-.177c.87 7.265 7.46 12.453 14.72 11.588l.07-.009 5.87-.73c7.1-.886 12.15-7.367 11.26-14.475l-.03-.279c-1.08-7.314-7.79-12.439-15.13-11.55l-5.11.62c-7.31.886-12.52 7.523-11.65 14.835zm7.5-1.217a6.878 6.878 0 0 1 6.03-7.627l2.4-.282a7.092 7.092 0 0 1 7.84 5.984c.01.066.01.132.02.198a6.695 6.695 0 0 1-5.85 7.46l-2.74.331a6.915 6.915 0 0 1-7.69-6.027l-.01-.037zm7.52 4.574 2.74-.33a5.2 5.2 0 0 0 4.54-5.792.802.802 0 0 0-.02-.153 5.588 5.588 0 0 0-6.18-4.718l-2.4.282a5.374 5.374 0 0 0-4.71 5.962v.029a5.428 5.428 0 0 0 6.03 4.72z" fill="#67577F"/><path fill-rule="evenodd" clip-rule="evenodd" d="m962.653 732.065-49.351 158.193 72.912 134.172-4.54 46.64a3.998 3.998 0 0 0 3.594 4.37c1.08.11 2.158-.23 2.984-.94l67.458-57.57-16-16-102.847-109.732 44.822-155.655a7.527 7.527 0 0 0-7.233-9.609 18.97 18.97 0 0 1-2.176-.129 9 9 0 0 0-9.623 6.26z" fill="#fff"/><path d="m985.905 1024.79-.088-.43-.022.23.11.2zm-4.627 46.21a4.755 4.755 0 0 0 4.267 5.19 4.764 4.764 0 0 0 3.544-1.12l67.461-57.57a.75.75 0 0 0 .04-1.1l-16-16-102.538-109.404 44.704-155.245a8.278 8.278 0 0 0-7.954-10.567c-.676 0-1.373-.041-2.09-.124a9.75 9.75 0 0 0-10.425 6.782l-49.351 158.193a.75.75 0 0 0 .057.581l72.802 133.974-4.517 46.41zm6.837 2.93c-.671.57-1.547.85-2.425.76a3.247 3.247 0 0 1-2.92-3.55l4.54-46.63a.743.743 0 0 0-.087-.43l-72.761-133.901 49.257-157.89a8.25 8.25 0 0 1 8.821-5.739c.773.089 1.527.134 2.262.134a6.777 6.777 0 0 1 6.512 8.652l-44.821 155.655a.751.751 0 0 0 .173.72l102.854 109.739 15.44 15.44-66.845 57.04z" fill="#67577F"/><path fill-rule="evenodd" clip-rule="evenodd" d="M909.559 894.944c-1.447-7.53 3.359-14.844 10.845-16.503l5.328-1.181c7.236-1.604 14.43 2.856 16.212 10.049 1.77 7.146-2.581 14.375-9.724 16.156l-6.701 1.671c-.23.057-.461.108-.694.153-7.072 1.359-13.907-3.273-15.266-10.345zm8.98-1.526a5.748 5.748 0 0 0 6.942 4.439l3.328-.779a5.572 5.572 0 0 0 4.153-6.696c-.011-.05-.024-.098-.036-.147a6.034 6.034 0 0 0-7.063-4.372l-2.728.566a5.921 5.921 0 0 0-4.596 6.989z" fill="#F6F0FF"/><path d="M908.925 895.396c-1.524-7.928 3.537-15.629 11.419-17.377l5.329-1.181c7.632-1.691 15.222 3.013 17.101 10.601 1.87 7.548-2.726 15.183-10.27 17.064l-6.701 1.671c-.243.061-.488.115-.734.162-7.479 1.437-14.707-3.461-16.144-10.94zm1.473-.283c1.281 6.666 7.723 11.031 14.388 9.75a11.4 11.4 0 0 0 .654-.145l6.701-1.67c6.741-1.681 10.848-8.504 9.177-15.248-1.684-6.798-8.483-11.013-15.321-9.497l-5.328 1.181c-7.089 1.571-11.641 8.498-10.271 15.629zm7.509-1.233a6.67 6.67 0 0 1 5.178-7.874l2.728-.567a6.785 6.785 0 0 1 7.982 5.082 6.322 6.322 0 0 1-4.712 7.598l-3.328.779a6.5 6.5 0 0 1-7.848-5.018zm1.47-.302a4.997 4.997 0 0 0 5.902 3.889l.134-.029 3.327-.78a4.823 4.823 0 0 0 3.563-5.922 5.283 5.283 0 0 0-6.185-3.828l-2.728.566a5.171 5.171 0 0 0-4.013 6.104z" fill="#67577F"/><path fill-rule="evenodd" clip-rule="evenodd" d="M812.278 797.153a11.053 11.053 0 0 1 10.663-7.917 8.293 8.293 0 0 1 8.247 8.245 1986.622 1986.622 0 0 0 .018 2.625 9.395 9.395 0 0 1-9.322 9.467l-1.823.014a8.533 8.533 0 0 1-8.538-9.614c.04-.313.292-1.253.755-2.82zm-45-109a11.053 11.053 0 0 1 10.663-7.917 8.293 8.293 0 0 1 8.247 8.245l.017 2.606.001.019a9.395 9.395 0 0 1-9.322 9.467l-1.823.014a8.533 8.533 0 0 1-8.538-9.614c.04-.313.292-1.253.755-2.82zm464.002-22a11.044 11.044 0 0 1 10.66-7.917 8.301 8.301 0 0 1 8.25 8.245c.01 1.482.01 2.35.02 2.606v.019c.04 5.188-4.14 9.427-9.33 9.467l-1.82.014a8.544 8.544 0 0 1-8.54-9.614c.04-.313.29-1.253.76-2.82zm-98 165a11.044 11.044 0 0 1 10.66-7.917 8.301 8.301 0 0 1 8.25 8.245c.01 1.482.01 2.35.02 2.606v.019c.04 5.188-4.14 9.427-9.33 9.467l-1.82.014a8.544 8.544 0 0 1-8.54-9.614c.04-.313.29-1.253.76-2.82zm129 60a11.044 11.044 0 0 1 10.66-7.917 8.301 8.301 0 0 1 8.25 8.245c.01 1.482.01 2.35.02 2.606v.019c.04 5.188-4.14 9.427-9.33 9.467l-1.82.014a8.544 8.544 0 0 1-8.54-9.614c.04-.313.29-1.253.76-2.82zm-108-388a11.044 11.044 0 0 1 10.66-7.917 8.301 8.301 0 0 1 8.25 8.245c.01 1.482.01 2.35.02 2.606v.019c.04 5.188-4.14 9.427-9.33 9.467l-1.82.014a8.544 8.544 0 0 1-8.54-9.614c.04-.313.29-1.253.76-2.82zm-591.002 256a11.053 11.053 0 0 1 10.663-7.917 8.293 8.293 0 0 1 8.247 8.245l.017 2.606.001.019a9.395 9.395 0 0 1-9.322 9.467l-1.823.014a8.533 8.533 0 0 1-8.538-9.614c.04-.313.292-1.253.755-2.82zm120-218a11.053 11.053 0 0 1 10.663-7.917 8.293 8.293 0 0 1 8.247 8.245l.017 2.606.001.019a9.395 9.395 0 0 1-9.322 9.467l-1.823.014a8.533 8.533 0 0 1-8.538-9.614c.04-.313.292-1.253.755-2.82zm-53.282 345.133c-8.539-5.561-14.393-14.988-14.967-25.943-.954-18.2 13.027-33.728 31.228-34.681 18.2-.954 33.728 13.027 34.681 31.227.585 11.159-4.444 21.312-12.617 27.719l-12.326-15.753a12.983 12.983 0 0 0 4.971-10.919c-.376-7.17-6.493-12.678-13.663-12.302-7.17.376-12.677 6.493-12.302 13.663a12.983 12.983 0 0 0 5.897 10.219l-10.902 16.77z" fill="#F6F0FF"/><path d="m630.683 887.638-.629-.409c-8.985-5.852-14.735-15.619-15.307-26.532-.976-18.614 13.323-34.495 31.937-35.47 18.614-.976 34.495 13.323 35.47 31.937.583 11.118-4.305 21.609-12.903 28.349l-.591.463-13.25-16.934.59-.463a12.233 12.233 0 0 0 4.684-10.29c-.354-6.756-6.118-11.946-12.875-11.592-6.756.354-11.946 6.118-11.592 12.875a12.23 12.23 0 0 0 5.557 9.63l.628.409-11.719 18.027zm-.435-2.083 10.09-15.522a13.725 13.725 0 0 1-5.619-10.383c-.397-7.583 5.428-14.053 13.012-14.451 7.583-.397 14.053 5.428 14.451 13.012a13.726 13.726 0 0 1-4.68 11.071l11.409 14.58c7.853-6.453 12.289-16.25 11.745-26.619-.932-17.787-16.107-31.45-33.893-30.518-17.787.932-31.45 16.107-30.518 33.893.533 10.174 5.774 19.304 14.003 24.937z" fill="#67577F"/><path fill-rule="evenodd" clip-rule="evenodd" d="m1096.77 635.297 189.13-74.288c4.12-1.615 8.76.409 10.37 4.522.2.495.34 1.008.44 1.532l37.71 213.384a5.004 5.004 0 0 1-6.85 5.488l-236.07-98v24l238.36 103.988c12.15 5.3 26.3-.252 31.6-12.401a24.038 24.038 0 0 0 1.71-13.344l-37.87-239.543c-2.5-15.82-17.35-26.617-33.17-24.117a29.154 29.154 0 0 0-6.82 1.957l-197.27 83.891a11.006 11.006 0 0 0-6.66 10.943 27.626 27.626 0 0 0 .65 4.258c1.39 5.915 7.31 9.587 13.22 8.201.52-.12 1.02-.278 1.52-.471z" fill="#fff"/><path d="m1097.34 635.994 189.14-74.288a7.242 7.242 0 0 1 9.39 4.098c.18.449.31.914.4 1.389l37.71 213.384a4.252 4.252 0 0 1-5.82 4.665l-237.11-98.432v25.615l238.81 104.185c12.53 5.465 27.12-.26 32.58-12.789 1.89-4.325 2.5-9.1 1.77-13.761l-37.87-239.543c-2.56-16.229-17.8-27.306-34.03-24.741-2.4.381-4.75 1.055-6.99 2.008l-197.27 83.891a11.746 11.746 0 0 0-7.12 11.689c.11 1.422.32 2.835.64 4.237.02.068.02.068.03.136 1.48 6.318 7.8 10.24 14.12 8.761.55-.129 1.09-.298 1.62-.504zm-4.79 53.063 235.04 97.57c1.01.421 2.12.543 3.2.352a5.75 5.75 0 0 0 4.66-6.663l-37.71-213.384a8.838 8.838 0 0 0-.47-1.676c-1.77-4.498-6.85-6.713-11.34-4.946l-189.14 74.288c-.46.18-.93.327-1.41.439-5.51 1.291-11.03-2.131-12.32-7.642-.01-.065-.01-.065-.03-.129-.3-1.329-.5-2.667-.6-4.014a10.247 10.247 0 0 1 6.21-10.197l197.26-83.89a28.193 28.193 0 0 1 6.65-1.907c15.41-2.436 29.88 8.082 32.31 23.493l37.86 239.544c.7 4.378.12 8.863-1.65 12.926-5.13 11.77-18.84 17.148-30.61 12.014l-237.91-103.792v-22.386z" fill="#67577F"/><path fill-rule="evenodd" clip-rule="evenodd" d="M1098.82 779.758c-9.57-3.497-17.4-11.365-20.42-21.91-5.03-17.52 5.1-35.794 22.62-40.818 17.52-5.024 35.8 5.106 40.82 22.626 3.08 10.74.47 21.765-6.06 29.846l-15.55-12.576a12.993 12.993 0 0 0 2.39-11.758c-1.98-6.901-9.18-10.892-16.08-8.913-6.91 1.979-10.9 9.178-8.92 16.08 1.19 4.154 4.28 7.253 8.05 8.631l-6.85 18.792z" fill="#F6F0FF"/><path d="m1099.23 780.793-.7-.258c-10.08-3.68-17.88-11.903-20.89-22.408-5.14-17.917 5.22-36.607 23.14-41.745 17.92-5.138 36.61 5.222 41.75 23.14 3.07 10.701.66 22.023-6.2 30.524l-.47.584-16.72-13.519.47-.583a12.248 12.248 0 0 0 2.25-11.08c-1.86-6.504-8.65-10.264-15.15-8.399-6.5 1.865-10.27 8.649-8.4 15.152a12.217 12.217 0 0 0 7.58 8.134l.7.257-7.36 20.201zm5.45-19.326a13.688 13.688 0 0 1-7.81-8.853c-2.1-7.299 2.13-14.914 9.43-17.007 7.29-2.093 14.91 2.128 17 9.427 1.18 4.114.38 8.454-2.07 11.84l14.4 11.64c6.2-8.054 8.32-18.597 5.46-28.579-4.91-17.121-22.77-27.021-39.89-22.111-17.13 4.909-27.02 22.768-22.12 39.89 2.81 9.793 9.97 17.51 19.26 21.147l6.34-17.394z" fill="#67577F"/><path fill-rule="evenodd" clip-rule="evenodd" d="M1104.14 722.333c8.62-1.217 14.63-9.194 13.41-17.817-.03-.254-.08-.508-.12-.76l-1.61-8.415c-1.66-8.654-10.02-14.328-18.67-12.673l-.07.014c-8.76 1.717-14.58 10.084-13.13 18.895l1.11 6.73c1.49 9.084 9.97 15.312 19.08 14.026z" fill="#fff"/><path d="M1104.07 722.849c9.03-1.275 15.32-9.631 14.05-18.665-.04-.266-.08-.532-.14-.796l-1.6-8.415c-1.74-9.061-10.49-15.001-19.55-13.268l-.07.014c-9.16 1.795-15.24 10.542-13.73 19.752l1.11 6.731c1.56 9.485 10.41 15.99 19.93 14.647zm-.21-1.486c-8.71 1.229-16.81-4.723-18.24-13.404l-1.11-6.731c-1.38-8.411 4.17-16.398 12.54-18.037l.06-.013c8.25-1.577 16.21 3.829 17.79 12.076l1.61 8.416c.05.24.09.481.12.723 1.16 8.214-4.56 15.811-12.77 16.97z" fill="#67577F"/><path d="m928.701 582.953 124.519 8.996a6.998 6.998 0 0 1 6.48 7.486c-.01.145-.03.29-.04.434l-12 88.679a7.006 7.006 0 0 1-7.6 6.03l-126.419-11.991a6.999 6.999 0 0 1-6.248-8.089l13.894-85.684a7 7 0 0 1 7.414-5.861zm-14.387 92.592 126.436 12.168 12.11-88.772-124.663-9.006-13.883 85.61zm48.048-36.61a9 9 0 1 1 .001-18.001 9 9 0 0 1-.001 18.001zm-13.781 10.737 64.839 4.535-.28 3.99-64.838-4.534.279-3.991zm54.999-7.772-8.184-9.75 9.754-8.181 8.18 9.75-9.75 8.181z" fill="#F6F0FF"/><path fill-rule="evenodd" clip-rule="evenodd" d="M1294.3 526.934c6.39-.58 11.22-.08 14.5 1.5 3.28 1.58 7.45 5.413 12.5 11.5l-26 23.5c-1.33-1-2.33-1.667-3-2-.66-.333-1.83-.667-3.5-1l5.5-33.5zm-535.455 44.487c4.329-2.238 8.314-3.734 11.957-4.487 3.643-.753 9.31-1.253 17-1.5l-6.5 29-3.5.5-3.469 1.138-15.488-24.651zm-112.147 101.08c1.379-5.898 2.748-10.42 4.104-13.567 1.357-3.147 3.89-7.676 7.6-13.588l22.9 25.088-1.598 3.154-1.058 3.494-31.948-4.581zM1363.8 793.434c-1.71 8.476-3.88 14.143-6.5 17-2.62 2.857-7.78 5.191-15.5 7l-12-31c1.83-.542 3.01-1.074 3.54-1.596.53-.522 1.02-1.49 1.46-2.904l29 11.5z" fill="#67577F"/><path d="m1070.32 437.613 9.48 14.508 56.39-8.429.22 1.484-57.33 8.571-10.14-15.496-34.56 3.429a.745.745 0 0 1-.82-.672.744.744 0 0 1 .67-.821l34.68-3.441 3.04-23.882 54.13-17.145c.39-.125.81.093.94.488a.76.76 0 0 1-.49.942l-53.22 16.855-2.99 23.609zM928.735 665.681a.75.75 0 0 1-.673-.867l9.5-58.5a.75.75 0 0 1 .797-.628l99.501 7.5c.43.033.75.424.68.853l-8.5 60a.743.743 0 0 1-.8.642l-100.505-9zm10.197-58.448-9.26 57.026 98.988 8.864 8.29-58.501-98.018-7.389zm-10.629-24.807 124.517 8.996c4.27.308 7.48 4.019 7.18 8.288-.02.161-.03.321-.05.481l-12 88.678a7.75 7.75 0 0 1-8.41 6.676l-126.422-11.99a7.75 7.75 0 0 1-6.918-8.956l13.894-85.684a7.75 7.75 0 0 1 8.209-6.489zm-.108 1.496a6.25 6.25 0 0 0-6.62 5.233l-13.895 85.684a6.25 6.25 0 0 0 5.579 7.223l126.421 11.99a6.246 6.246 0 0 0 6.78-5.384l12-88.679c.02-.128.03-.258.04-.387a6.248 6.248 0 0 0-5.78-6.684l-124.525-8.996zm-15.202 92.514 14.121-87.078 126.136 9.113-12.3 90.278-127.957-12.313zm126.667 10.682 11.89-87.266-123.175-8.899-13.645 84.143 124.93 12.022zm-77.358-47.434a9.75 9.75 0 0 1-9.75-9.75 9.75 9.75 0 0 1 9.75-9.75 9.75 9.75 0 0 1 9.75 9.75 9.75 9.75 0 0 1-9.75 9.75zm0-1.5a8.25 8.25 0 1 0 0-16.5 8.25 8.25 0 0 0 0 16.5zm-14.477 10.687 66.335 4.639-.38 5.487-66.339-4.639.384-5.487zm1.217 4.095 63.348 4.43.17-2.494-63.343-4.43-.175 2.494zm54.388-10.01-9.15-10.899 10.9-9.146 9.14 10.9-10.89 9.145zm8.78-9.33-7.22-8.601-8.597 7.217 7.217 8.601 8.6-7.217zm20.09 434.554v-1.5 1.5zm0-1.5c1 0 1 1.5 0 1.5h-11.5c-1 0-1-1.5 0-1.5h23c1 0 1 1.5 0 1.5h-11.5c-1 0-1-1.5 0-1.5zm-35.766-49.42-.964-1.15.964 1.15zm0 0-9.25 7.75c-.767.64-1.73-.51-.964-1.15l9.25-7.75 9.25-7.75c.77-.64 1.73.51.96 1.15l-9.246 7.75z" fill="#67577F"/></svg>