<svg width="1840" height="1380" viewBox="0 0 1840 1380" fill="none" xmlns="http://www.w3.org/2000/svg"><path fill-rule="evenodd" clip-rule="evenodd" d="M928.687 558.272c6.612 5.031 10.548 11.422 6.254 18.616-3.623 6.07-11.937 6.132-20.815 3.9a99.964 99.964 0 0 0 4.661 11.042c3.863 7.808 7.1 13.446 9.713 16.912 4.971 6.597 14.157.295 27.558-18.905a28.282 28.282 0 0 1 23.192-12.095c.845 0 1.687.086 2.515.257 6.745 1.388 11.088 7.983 9.699 14.729-14.89 72.324-26.708 111.781-35.453 118.371-13.996 10.546-27.001 57.164-27.001 57.164l-78.564-11.393-8.727-34.267a76.994 76.994 0 0 1-1.292-31.912l19.509-114.734a80.002 80.002 0 0 1 7.167-22.07l7.356-14.865a32 32 0 0 1 30.996-17.723l70.185 5.091a15.789 15.789 0 0 1 13.462 9.746c3.315 8.066-.536 17.292-8.602 20.606-6.588 2.708-23.859 3.217-51.813 1.53z" fill="#8093B8"/><path fill-rule="evenodd" clip-rule="evenodd" d="m848 621.992-13.758 23.339c-.161.274-.311.555-.448.842L785 748.242l9 53.5 78-59.5-4-58.5-23 15.5 12.424-73.813a5.1 5.1 0 0 0-9.424-3.437z" fill="#9AACD3"/><path fill-rule="evenodd" clip-rule="evenodd" d="m794.5 634.185-57.113-20.884c-46.683-17.07-98.364 6.935-115.434 53.618a90 90 0 0 0-5.416 27.667L613 792.743h202l-20.5-158.558z" fill="#CBDBFE"/><path fill-rule="evenodd" clip-rule="evenodd" d="m785.863 443.726 46.239-3.847 7.965-53.486a3.002 3.002 0 0 1 5.938.017l8.586 60.054c.86 6.014-3.318 11.587-9.332 12.446l-.147.02-54.324 7.022c-6.789.878-13.041-3.816-14.092-10.581-.858-5.526 2.925-10.702 8.451-11.56.238-.037.476-.065.716-.085z" fill="#DFE9FF"/><mask id="a" mask-type="alpha" maskUnits="userSpaceOnUse" x="614" y="233" width="208" height="406"><path d="M667.694 634.564a23.031 23.031 0 0 1-10.498 1.428 24.291 24.291 0 0 1-4.049-.736c-12.99-3.518-20.669-16.901-17.151-29.891l5.45-20.123-.078.044a18.012 18.012 0 0 1-13.965 1.45c-9.514-2.91-14.867-12.98-11.957-22.494l28.452-98.951c2.343-11.524 6.537-25.721 13.308-46.288l.794-2.761.033.259c8.337-25.186 20.395-59.673 37.413-109.759.317-.93 9.682-29.064 10-30a6.078 6.078 0 0 1 10.732 2.076l6.268 23.424 8.602-63.185a6.999 6.999 0 0 1 13.648-1.042l1.25 4.227 71.623 232.772a99.013 99.013 0 0 1 4.377 29.115v93.613c0 22.644-18.356 41-41 41h-95.203c-6.468 0-12.597-1.5-18.049-4.178z" fill="#fff"/></mask><g mask="url(#a)"><path d="M667.694 634.564a23.031 23.031 0 0 1-10.498 1.428 24.291 24.291 0 0 1-4.049-.736c-12.99-3.518-20.669-16.901-17.151-29.891l5.45-20.123-.078.044a18.012 18.012 0 0 1-13.965 1.45c-9.514-2.91-14.867-12.98-11.957-22.494l28.452-98.951c2.343-11.524 6.537-25.721 13.308-46.288l.794-2.761.033.259c8.337-25.186 20.395-59.673 37.413-109.759.317-.93 9.682-29.064 10-30a6.078 6.078 0 0 1 10.732 2.076l6.268 23.424 8.602-63.185a6.999 6.999 0 0 1 13.648-1.042l1.25 4.227 71.623 232.772a99.013 99.013 0 0 1 4.377 29.115v93.613c0 22.644-18.356 41-41 41h-95.203c-6.468 0-12.597-1.5-18.049-4.178z" fill="#CBDBFE"/><path fill-rule="evenodd" clip-rule="evenodd" d="M819.447 485.742c-2-5.333-5-7.5-9-6.5s-6.667 4.667-8 11a30.795 30.795 0 0 0-29.206-14.511c-3.42.332-7.185.836-11.294 1.511-24.268 3.988-35.794 27.952-37 40.5-1.026 10.668-.184 3.543.053 30.5.051 5.801-2.829 21.224-8.64 46.267-2.746 11.836 4.623 23.657 16.458 26.403 1.585.368 3.206.559 4.833.569 22.05.141 34.481.061 37.296-.239 14.882-1.585 18.107-5 29.053-5 9.234 0 13.734 2.334 13.5 7 15.986-6.274 24.635-22.107 25.947-47.5 1.311-25.393-6.689-55.393-24-90z" fill="#B0BFDC"/></g><path fill-rule="evenodd" clip-rule="evenodd" d="M772.946 598.242h8l-2.301 10.483a1.999 1.999 0 0 1-3.925-.092l-1.774-10.391zm39 0h8l-2.301 10.483a1.999 1.999 0 0 1-3.925-.092l-1.774-10.391z" fill="#fff"/><mask id="b" mask-type="alpha" maskUnits="userSpaceOnUse" x="943" y="780" width="355" height="342"><path d="M1139.05 882.811c22.14-54.444 37.36-84.655 45.65-90.633 10.17-7.327 21.71-5.55 26.59.484 16.08-15.584 32.01-15.915 47.78-.994 1.36.918 2.61 1.843 3.74 2.774 5.4-.065 10.87.992 16.4 3.169 27.79 10.941 23.9 33.563-11.69 67.868l-101.77 117.129a99.192 99.192 0 0 1-45.44 29.652c-4.54 1.42-10.34 6.18-17.4 14.31-6.27 7.21-9.67 12.63-10.21 16.26-2.78 18.77-10.84 36.33-23.26 50.61l-13.04 15.01a37.122 37.122 0 0 1-3.42 3.45c-15.29 13.49-38.73 11.95-52.34-3.43l-23.939-27.05-.187.17-.283-.7-4.589-5.19 1.795-1.77-29.967-74.64 126.3-116.99 67.97 2.244c.44-.58.87-1.157 1.31-1.733z" fill="#fff"/></mask><g mask="url(#b)"><path d="M1139.05 882.812c22.14-54.445 37.36-84.656 45.65-90.633 10.17-7.328 21.72-5.551 26.59.483 16.08-15.583 32.01-15.915 47.78-.994a49.27 49.27 0 0 1 3.74 2.774c5.4-.065 10.87.992 16.4 3.17 27.79 10.94 23.9 33.563-11.69 67.868l-101.77 117.128a99.282 99.282 0 0 1-45.44 29.662c-4.54 1.41-10.34 6.18-17.4 14.3-6.27 7.21-9.67 12.63-10.21 16.26-2.78 18.77-10.84 36.33-23.26 50.61l-13.04 15.01a37.122 37.122 0 0 1-3.42 3.45c-15.3 13.49-38.73 11.95-52.34-3.43l-23.939-27.05-.187.17-.283-.7-4.589-5.19 1.795-1.77-29.967-74.639 126.3-116.991 67.97 2.245c.44-.58.87-1.158 1.31-1.733z" fill="#8093B8"/></g><mask id="c" mask-type="alpha" maskUnits="userSpaceOnUse" x="731" y="542" width="51" height="29"><path d="M767.946 542.742h-22c-7.732 0-14 6.268-14 14s6.268 14 14 14h22c7.732 0 14-6.268 14-14s-6.268-14-14-14z" fill="#fff"/></mask><g mask="url(#c)"><path d="M767.946 542.742h-22c-7.732 0-14 6.268-14 14s6.268 14 14 14h22c7.732 0 14-6.268 14-14s-6.268-14-14-14z" fill="#fff"/><path d="M782.446 553.742c0-6.075-4.925-11-11-11s-11 4.925-11 11v6c0 6.075 4.925 11 11 11s11-4.925 11-11v-6z" fill="#2B2B2B"/></g><mask id="d" mask-type="alpha" maskUnits="userSpaceOnUse" x="808" y="542" width="14" height="29"><path d="M821.946 542.742v28c-7.456 0-13.5-6.044-13.5-13.5v-1c0-7.456 6.044-13.5 13.5-13.5z" fill="#fff"/></mask><g mask="url(#d)"><path d="M821.946 542.742v28c-7.456 0-13.5-6.044-13.5-13.5v-1c0-7.456 6.044-13.5 13.5-13.5z" fill="#fff"/><path d="M837.946 553.742c0-6.075-4.925-11-11-11s-11 4.925-11 11v6c0 6.075 4.925 11 11 11s11-4.925 11-11v-6z" fill="#2B2B2B"/></g><path fill-rule="evenodd" clip-rule="evenodd" d="M1044 966.242a46.25 46.25 0 0 0 35.85-28.39l.15-.36a50.76 50.76 0 0 0-4.72-47.018l-4.78-7.232c17.53 6.376 36.91-2.669 43.29-20.202.15-.41.29-.822.42-1.238l5.79-18.06c-28.83 2.784-49.16.784-61-6-11.84-6.784-21.84-15.117-30-25l-9.5 16 24.5 137.5z" fill="#9AACD3"/><mask id="e" mask-type="alpha" maskUnits="userSpaceOnUse" x="808" y="966" width="422" height="158"><path d="M1070.45 1037.09c55.73-18.89 88.58-27.17 98.55-24.85 12.22 2.85 18.47 12.68 17.12 20.28 22.35 1.91 33.08 13.65 32.16 35.22l-3.07 1.24c5.3 4.61 9.24 10.53 11.82 17.76 10 28-9.66 39.84-59 35.5h-155.48a99.968 99.968 0 0 1-52.298-14.77c-4.054-2.48-11.472-3.73-22.252-3.73-9.578 0-15.916.98-19.014 2.95a99.986 99.986 0 0 1-53.56 15.55h-19.922c-1.623 0-3.245-.1-4.854-.32-20.258-2.68-34.507-21.27-31.826-41.53l4.714-35.62-.253-.03.346-.67.904-6.83 2.52.19 36.73-71.188 171.495 18.5 43 52.498 2.17-.15z" fill="#fff"/></mask><g mask="url(#e)"><path d="M1070.45 1037.09c55.73-18.89 88.58-27.17 98.55-24.85 12.22 2.85 18.47 12.68 17.12 20.28 22.35 1.91 33.08 13.65 32.16 35.22l-3.07 1.24c5.3 4.61 9.24 10.53 11.82 17.76 10 28-9.66 39.84-59 35.5h-155.48a99.968 99.968 0 0 1-52.298-14.77c-4.054-2.48-11.472-3.73-22.252-3.73-9.578 0-15.916.98-19.014 2.95a99.986 99.986 0 0 1-53.56 15.55h-19.922c-1.623 0-3.245-.1-4.854-.32-20.258-2.68-34.507-21.27-31.826-41.53l4.714-35.62-.253-.03.346-.67.904-6.83 2.52.19 36.73-71.188 171.495 18.5 43 52.498 2.17-.15z" fill="#B0BFDC"/><path d="M1220.14 1067.09c-.4-.56-1.16-1.46-2.34-2.58-1.91-1.83-4.3-3.65-7.22-5.33-13.92-8.03-34.1-10.42-61.54-3.88a2 2 0 0 0-1.49 2.41 2.012 2.012 0 0 0 2.41 1.48c26.48-6.31 45.63-4.05 58.62 3.45 2.63 1.52 4.77 3.15 6.46 4.76.57.55 1.05 1.06 1.43 1.51.22.25.35.42.39.48.64.91 1.88 1.12 2.79.49.9-.64 1.12-1.88.49-2.79z" fill="#7181A1"/><path d="M1226.16 1084.24a2 2 0 0 1 2 2c0 1.11-.89 2-2 2-2.93 0-16.73-3.17-26.24-6.28-6.19-2.03-10.95-4.07-13.85-6.1-4.15-2.89-5.02-6.55-1.03-9.27 7.95-5.42 19.36-5.42 34.12-.23 1.04.36 1.59 1.5 1.23 2.55a1.999 1.999 0 0 1-2.55 1.22c-13.69-4.81-23.84-4.81-30.55-.24-1.18.81-1.09 1.18 1.06 2.69 2.51 1.75 6.97 3.66 12.81 5.57 9.14 3 22.61 6.09 25 6.09zm-24.66-54a2 2 0 1 1 0 4c-3.27 0-5.6-.25-10.4-.98l-.13-.02c-6.84-1.04-10.17-1.25-15.45-.55-7.04.93-15.58 3.64-26.84 8.76-1.01.46-2.2.02-2.65-.99-.46-1-.02-2.19.99-2.65 11.6-5.28 20.5-8.1 27.98-9.08 5.74-.76 9.39-.54 16.57.55l.14.02c4.61.71 6.78.94 9.79.94z" fill="#7181A1"/></g><path fill-rule="evenodd" clip-rule="evenodd" d="m801.287 529.271 14.235 44.567a8.741 8.741 0 0 1-8.174 11.398l-4.648.081a7 7 0 0 1-7.121-6.877l-.001-.1-.148-48.147a2.998 2.998 0 0 1 5.857-.922z" fill="#7181A1"/><mask id="f" mask-type="alpha" maskUnits="userSpaceOnUse" x="580" y="679" width="490" height="359"><path d="M618 769.742 582.406 928.21c-9.682 43.109 17.415 85.9 60.524 95.59a80.144 80.144 0 0 0 17.532 1.94h81.754c37.344 0 71.576-20.81 88.77-53.955l34.514-66.543-51 131.998h23.441a83.986 83.986 0 0 0 65.781-31.76L919 986.242v17.998c0 18.23 14.774 33 33 33 19.809 0 37.498-12.4 44.253-31.02l7.247-19.978 8.06 15.508a65.847 65.847 0 0 0 58.44 35.49c-23.31-69.547-36.65-125.38-40-167.498-3.35-42.118.48-105.618 11.5-190.5h-99l-178.5 107-146-16.5z" fill="#fff"/></mask><g mask="url(#f)"><path d="M618 769.742 582.406 928.21c-9.682 43.109 17.415 85.9 60.524 95.59a80.144 80.144 0 0 0 17.532 1.94h81.754c37.344 0 71.576-20.81 88.77-53.955l34.514-66.543-51 131.998h23.441a83.986 83.986 0 0 0 65.781-31.76L919 986.242v17.998c0 18.23 14.774 33 33 33 19.809 0 37.498-12.4 44.253-31.02l7.247-19.978 8.06 15.508a65.847 65.847 0 0 0 58.44 35.49c-23.31-69.547-36.65-125.38-40-167.498-3.35-42.118.48-105.618 11.5-190.5h-99l-178.5 107-146-16.5z" fill="#9AACD3"/></g><path d="M736.861 608.156c5.308-5.308 9.293-7.914 11.585-7.914h72.5a2 2 0 1 0 0-4h-72.5c-3.708 0-8.389 3.061-14.414 9.086a2 2 0 1 0 2.829 2.828z" fill="#7181A1"/><mask id="g" mask-type="alpha" maskUnits="userSpaceOnUse" x="733" y="542" width="48" height="29"><path d="M780.073 549.742h-46.254c2.421-4.184 6.945-7 12.127-7h22c5.182 0 9.707 2.816 12.127 7zm-.636 15c-2.53 3.627-6.733 6-11.491 6h-22c-4.757 0-8.96-2.373-11.49-6h44.981z" fill="#fff"/></mask><g mask="url(#g)"><path d="M780.073 549.742h-46.254c2.421-4.184 6.945-7 12.127-7h22c5.182 0 9.707 2.816 12.127 7zm-.636 15c-2.53 3.627-6.733 6-11.491 6h-22c-4.757 0-8.96-2.373-11.49-6h44.981z" fill="#7181A1"/></g><path fill-rule="evenodd" clip-rule="evenodd" d="m1036.35 628.755-84.695 52.792 122.495 22.478 54.06-40.065c11.49-8.513 20.63-19.749 26.57-32.64l14.84-32.258c4.9-10.629 4.47-22.83-1.15-32.922l-8.16-14.649-.41.256c-1.51-8.818-3.3-19.307-5.39-31.468-1.14-6.704-5.27-12.502-11.25-15.812l-5.59-3.099-9.69-4.516-.82-8.576-57.42-50.064a12.92 12.92 0 0 0-.52-.431c-6.92-5.532-17.16-4.397-22.88 2.535-5.14 6.226-5.49 14.798-1.33 21.173-4.46.922-8.49 3.831-10.64 8.216-.31.634-.58 1.288-.79 1.957-3.02 9.273 1.5 19.18 10.48 22.944l49.06 20.581 4.11 43.839s-49.85 37.041-64.45 39.707c-9.73 1.777-17.14-.385-22.23-6.488l21.13-60.713c.06-.175.12-.351.17-.528 2.86-9.139-2.29-18.708-11.49-21.373-9.62-2.787-19.87 2.527-23.139 11.995-19.452 56.333-28.291 89.71-26.517 100.131 2.919 17.143-19.877 60.077-19.877 60.077l85.523-53.079z" fill="#B0BFDC"/><mask id="h" mask-type="alpha" maskUnits="userSpaceOnUse" x="809" y="542" width="13" height="29"><path d="M821.946 549.742h-12.127c2.421-4.184 6.945-7 12.127-7v7zm0 21c-4.757 0-8.96-2.373-11.49-6h11.49v6z" fill="#fff"/></mask><g mask="url(#h)"><path d="M821.946 549.742h-12.127c2.421-4.184 6.945-7 12.127-7v7zm0 21c-4.757 0-8.96-2.373-11.49-6h11.49v6z" fill="#7181A1"/></g><path fill-rule="evenodd" clip-rule="evenodd" d="m1082.89 414.288-66.43-1.968c-7.11-.211-13.25 4.951-14.27 11.996l-21.325 147.925 83.045 10.363 13.02-9.021 19.42-143.423c1.03-7.662-4.34-14.714-12-15.752-.48-.065-.97-.105-1.46-.12z" fill="#2B2B2B"/><path d="M1030.5 569.742c-5.8 0-10.5-4.701-10.5-10.5s4.7-10.5 10.5-10.5 10.5 4.701 10.5 10.5-4.7 10.5-10.5 10.5zm0-4a6.5 6.5 0 1 0 0-13 6.5 6.5 0 0 0 0 13zm27.86-145.153c.29.01.46-.003.53-.023-.01.002-.01.001.02-.024.11-.093.24-.282.35-.578.15-.436.22-.88.26-2.081l.01-.155 1.2-4.903 2.91.715-1.12 4.604c-.06 1.384-.17 2.093-.44 2.841-.28.771-.7 1.41-1.26 1.871-.69.569-1.41.771-2.56.731l-19.86-.694c-1.16-.04-1.86-.292-2.51-.907-.52-.499-.89-1.166-1.12-1.954-.22-.794-.28-1.534-.23-3.022v-.155l1.21-4.902 2.91.714-1.13 4.601c-.03 1.088.01 1.516.13 1.942.08.302.19.5.3.601.03.027.03.027.02.024.07.025.23.05.52.06l19.86.694z" fill="#fff"/><mask id="i" mask-type="alpha" maskUnits="userSpaceOnUse" x="531" y="1025" width="271" height="98"><path d="M589.255 1058.36 531 1122.24h271l-27.533-47.02a99.993 99.993 0 0 0-86.297-49.48h-25.025a99.995 99.995 0 0 0-73.89 32.62z" fill="#fff"/></mask><g mask="url(#i)"><path d="M589.255 1058.36 531 1122.24h271l-27.533-47.02a99.993 99.993 0 0 0-86.297-49.48h-25.025a99.995 99.995 0 0 0-73.89 32.62z" fill="#DFE9FF"/><path d="m563.523 1077.01 3.25-3.5c23.393 21.95 47.962 32.87 73.778 32.87 20.718 0 43.713-9.98 58.748-26.83 17.874-20.03 23.558-47.68 13.581-80.997l4.56-1.381c10.448 34.888 4.407 64.288-14.596 85.578-15.952 17.87-40.243 28.42-62.293 28.42-27.098 0-52.798-11.42-77.028-34.16zm208.571-11.6 1.812 4.66c-28.947 11.26-40.897 29.66-36.442 55.75l-4.928.84c-4.878-28.57 8.505-49.17 39.558-61.25z" fill="#fff"/><path d="M570.523 1057.75c20.235 18.91 41.719 28.42 64.381 28.42 18.466 0 38.791-8.79 52.144-23.7 15.906-17.75 20.962-42.25 12.229-71.298l-4.576 1.364c8.265 27.494 3.564 50.274-11.218 66.774-12.433 13.88-31.455 22.11-48.579 22.11-21.37 0-41.717-9.01-61.111-27.14l-3.27 3.47z" fill="#fff"/></g><path fill-rule="evenodd" clip-rule="evenodd" d="M826.947 475.243c4.5 18 0 26.5-15 26.5-10 0-20-4.667-30-14 5.333 9.333 2.333 14-9 14-17 0-19.5-10.559-19.5-11.5 0-.942-.614-17.008 3-20.5 1.857-1.795 10.366-1.795 25.527 0 26.982-8.334 41.973-6.5 44.973 5.5zm-120.408 49.122c4.5 18 0 26.5-15 26.5-10 0-20-4.667-30-14 5.334 9.333 2.334 14-9 14-17 0-19.5-10.559-19.5-11.5 0-.941-.613-17.008 3-20.5 1.858-1.795 10.367-1.795 25.528 0 26.982-8.333 41.972-6.5 44.972 5.5z" fill="#CBDBFE"/><path fill-rule="evenodd" clip-rule="evenodd" d="m1044.5 397.742-11.5-27h-1.5c-23.2 0-42-18.804-42-42v-48.5c0-23.196 18.8-42 42-42h130c23.2 0 42 18.804 42 42v48.5c0 23.196-18.8 42-42 42h-97l-20 27z" fill="#DFE9FF"/><path fill-rule="evenodd" clip-rule="evenodd" d="M947.826 675.622s24.929-41.76 22.885-59.084c-1.243-10.532 9.272-43.477 31.539-98.836 3.75-9.304 14.25-14.07 23.71-10.759 9.65 3.379 15.14 13.397 12.78 23.328l-12.73 53.54c-1.39 5.822 2.24 11.593 8.11 12.89 1.03.228 2.09.306 3.15.231" fill="#B0BFDC"/><path fill-rule="evenodd" clip-rule="evenodd" d="m768.678 532.509-33.113 5.943a1.001 1.001 0 0 1-1.131-1.281l1.762-5.678a12.651 12.651 0 0 1 9.706-8.676l11.708-2.238 5.336 2.664-.145-3.656 2.765-.529a6.006 6.006 0 0 1 7.13 5.685l.095 2.666a5 5 0 0 1-4.113 5.1zm43.826-11.634a5.002 5.002 0 0 1-3.483-4.866l.091-4.523a4.207 4.207 0 0 1 5.557-3.899l-.082 3.656 3.01-2.664 3.84 1.301a12.412 12.412 0 0 1 8.24 9.613l.984 5.624a.999.999 0 0 1-1.288 1.125l-16.869-5.367zm-18.765 112.707 16.945-9.01 2.049 16.319a11 11 0 0 1-2.743 8.734c-4.067 4.513-11.023 4.874-15.536.807l-3.803-3.428-2.034 8.842a16 16 0 0 1-7.582 10.263c-7.649 4.425-17.436 1.81-21.861-5.839l-8.14-14.074-10.754 22.27a15.998 15.998 0 0 1-10.825 8.636c-8.612 1.979-17.198-3.398-19.177-12.01l-4.721-20.548-7.845 12.158a15.999 15.999 0 0 1-11.773 7.237c-8.788.924-16.66-5.452-17.584-14.241l-1.997-19.01c16.27-1.455 27.632-1.436 34.088.054 1.689.39 3.114.898 4.276 1.522 3.771-1.72 9.012-2.227 15.724-1.522 6.07.638 14.286 2.367 24.649 5.187l-.991-1.713 51.36-8.135-1.725 7.501z" fill="#CBDBFE"/><path d="M708.471 665.71c2.226 9.689 11.885 15.738 21.574 13.512a17.999 17.999 0 0 0 12.178-9.716l9.112-18.869 6.25 10.805c4.977 8.605 15.988 11.546 24.594 6.569a17.998 17.998 0 0 0 8.529-11.546l1.272-5.528 1.277 1.151a2 2 0 1 0 2.678-2.971l-3.803-3.428c-1.133-1.021-2.946-.449-3.288 1.037l-2.034 8.842a14.003 14.003 0 0 1-6.634 8.981c-6.693 3.871-15.257 1.583-19.129-5.11l-8.14-14.074c-.804-1.389-2.835-1.313-3.533.132l-10.753 22.27a14.004 14.004 0 0 1-9.472 7.557c-7.535 1.731-15.048-2.974-16.78-10.509l-4.721-20.548c-.396-1.724-2.671-2.123-3.63-.637l-7.845 12.158a14 14 0 0 1-10.301 6.333c-7.689.808-14.578-4.771-15.386-12.461l-1.997-19.011a2 2 0 0 0-3.978.418l1.997 19.011c1.039 9.887 9.895 17.059 19.782 16.021a17.997 17.997 0 0 0 13.244-8.142l5.276-8.177 3.661 15.93z" fill="#B0BFDC"/><path fill-rule="evenodd" clip-rule="evenodd" d="m670.865 454.471-45.92 6.654-19.793-50.324a3 3 0 0 0-5.781 1.353l5.143 60.446c.515 6.054 5.84 10.543 11.893 10.028l.147-.013 54.511-5.378c6.813-.672 11.849-6.653 11.351-13.48-.406-5.578-5.258-9.77-10.835-9.363-.24.017-.478.043-.716.077z" fill="#DFE9FF"/><path fill-rule="evenodd" clip-rule="evenodd" d="M646.466 627.502 758 781.742l189.113-154.238a80.856 80.856 0 0 1 7.051-5.143l17.399-11.309a14.586 14.586 0 0 1 17.187.94 30.422 30.422 0 0 1 10.483 17.173l.767 3.577 13.46-6.59c6.69-3.279 14.78-.51 18.06 6.185a13.495 13.495 0 0 1-.02 11.905l16.67-2.846c2.55-.435 5.13-.578 7.71-.428l40.6 2.369c7.17.418 12.64 6.568 12.22 13.735-.04.77-.15 1.534-.33 2.283l-5.14 21.341a11.942 11.942 0 0 1-2.86 5.345l-37.81 40.852a80.996 80.996 0 0 1-7.59 7.207L760.74 979.292c-7.918 6.599-19.456 6.475-27.231-.293l-91.152-79.343a54.902 54.902 0 0 1-18.857-41.414l-4.735 3.819a16.633 16.633 0 0 1-21.265-.319 22.07 22.07 0 0 1-6.981-22.374l3.981-15.126-5.028 4.217c-5.765 4.836-14.359 4.082-19.194-1.684a24.849 24.849 0 0 1-4.596-23.545l4.818-14.988-6.35 4.234a14.662 14.662 0 0 1-18.65-1.984 17.71 17.71 0 0 1-3.356-19.811l64.829-139.401c5.356-11.518 19.036-16.513 30.554-11.156a23.006 23.006 0 0 1 8.939 7.378z" fill="#CBDBFE"/><path d="M711.666 715.136a2 2 0 1 0-3.332 2.213l43.5 65.5a2 2 0 0 0 2.876.486l25-19a2 2 0 1 0-2.42-3.185l-23.303 17.71-42.321-63.724z" fill="#B0BFDC"/><path d="M1049.42 961.7c-.08-.288-.82-2.774-1.09-3.674-.7-2.365-1.4-4.799-2.14-7.511a433.743 433.743 0 0 1-6.03-25.104c-7.62-36.394-11.16-74.385-8.4-111.734a2.005 2.005 0 0 0-1.85-2.142 1.999 1.999 0 0 0-2.14 1.847c-2.79 37.764.78 76.115 8.48 112.849 1.92 9.181 3.97 17.605 6.09 25.338.74 2.74 1.45 5.201 2.15 7.592.28.932 1.01 3.376 1.08 3.624a2.005 2.005 0 0 0 2.47 1.383 1.993 1.993 0 0 0 1.38-2.468z" fill="#CBDBFE"/><path d="m721.62 304.584 16.088 46.799a2 2 0 0 0 3.783-1.301l-16.088-46.799a2 2 0 0 0-3.783 1.301z" fill="#7181A1"/><mask id="j" mask-type="alpha" maskUnits="userSpaceOnUse" x="652" y="523" width="43" height="55"><path d="M684.284 577.668C662.761 576.774 652 567.905 652 551.06c0-17.327 11.386-26.416 34.158-27.267-.568 1.064-.988 2.507-1.158 4.45-.565 6.455 2.488 9.631 9.16 9.527-11.594 9.09-17.48 17.247-17.66 24.473-.158 6.335 2.612 12.043 7.784 15.425z" fill="#fff"/></mask><g mask="url(#j)"><path d="M684.284 577.668C662.761 576.774 652 567.905 652 551.06c0-17.327 11.386-26.416 34.158-27.267-.568 1.064-.988 2.507-1.158 4.45-.565 6.455 2.488 9.631 9.16 9.527-11.594 9.09-17.48 17.247-17.66 24.473-.158 6.335 2.612 12.043 7.784 15.425z" fill="#B0BFDC"/></g><path d="M1123.53 491.577a1.997 1.997 0 0 1 1.64-2.306 1.996 1.996 0 0 1 2.3 1.637l11.07 65.175a27.977 27.977 0 0 1-9.15 25.742l-25.57 22.421c-.83.729-2.1.646-2.82-.185a1.998 1.998 0 0 1 .18-2.822l25.58-22.422a24.03 24.03 0 0 0 7.84-22.064l-11.07-65.176zm33.49 61.977a2.006 2.006 0 0 1 1.67-2.287 2.008 2.008 0 0 1 2.29 1.664l2.92 18.517a28.033 28.033 0 0 1-4.31 19.825l-18.92 28.574a2.003 2.003 0 0 1-3.34-2.209l18.92-28.573a23.996 23.996 0 0 0 3.7-16.993l-2.93-18.518zm-63.09-40.338a2.003 2.003 0 0 1-1.4 2.456 2.002 2.002 0 0 1-2.46-1.403l-3-11a2.003 2.003 0 0 1 1.4-2.456 2.002 2.002 0 0 1 2.46 1.403l3 11zm-81.43-5.547a2 2 0 0 1 2.07-1.925 2 2 0 0 1 1.93 2.072c-.7 19.001-7.91 30.179-21.612 32.889a2.001 2.001 0 0 1-.776-3.925c11.628-2.3 17.758-11.789 18.388-29.111z" fill="#7181A1"/><path d="M1070.47 310.27v9.424h-8.68v7.068h-11.16v-7.068H1020v-9.424l30.63-26.908h11.16v26.908h8.68zm-38.44 0h18.6v-15.748l-18.6 15.748zm66.77 17.112c-17.23 0-25.42-7.936-25.42-22.382 0-14.384 8.19-22.258 25.42-22.258 17.18 0 25.42 7.936 25.42 22.258 0 14.384-8.24 22.382-25.42 22.382zm0-9.362c9.8 0 14.26-4.898 14.26-13.02 0-8.06-4.46-12.896-14.26-12.896-9.79 0-14.26 4.774-14.26 12.896 0 8.184 4.47 13.02 14.26 13.02zm79.55-7.75v9.424h-8.68v7.068h-11.16v-7.068h-30.63v-9.424l30.63-26.908h11.16v26.908h8.68zm-38.44 0h18.6v-15.748l-18.6 15.748z" fill="#fff"/></svg>