<svg width="1840" height="1380" viewBox="0 0 1840 1380" fill="none" xmlns="http://www.w3.org/2000/svg">
<path fill-rule="evenodd" clip-rule="evenodd" d="M928.687 558.272C935.299 563.303 939.235 569.694 934.941 576.888C931.318 582.958 923.004 583.02 914.126 580.788C915.456 584.556 917.013 588.243 918.787 591.83C922.65 599.638 925.887 605.276 928.5 608.742C933.471 615.339 942.657 609.037 956.058 589.837C961.348 582.258 970.007 577.742 979.25 577.742C980.095 577.742 980.937 577.828 981.765 577.999C988.51 579.387 992.853 585.982 991.464 592.728C976.574 665.052 964.756 704.509 956.011 711.099C942.015 721.645 929.01 768.263 929.01 768.263L850.446 756.87L841.719 722.603C839.063 712.173 838.622 701.302 840.427 690.691L859.936 575.957C861.24 568.291 863.654 560.856 867.103 553.887L874.459 539.022C880.228 527.364 892.481 520.358 905.455 521.299L975.64 526.39C981.613 526.823 986.826 530.598 989.102 536.136C992.417 544.202 988.566 553.428 980.5 556.742C973.912 559.45 956.641 559.959 928.687 558.272Z" fill="#8093B8"/>
<path fill-rule="evenodd" clip-rule="evenodd" d="M848 621.992L834.242 645.331C834.081 645.605 833.931 645.886 833.794 646.173L785 748.242L794 801.742L872 742.242L868 683.742L845 699.242L857.424 625.429C857.892 622.651 856.019 620.02 853.241 619.552C851.157 619.202 849.073 620.172 848 621.992Z" fill="#9AACD3"/>
<path fill-rule="evenodd" clip-rule="evenodd" d="M794.5 634.185C775.462 627.224 756.425 620.262 737.387 613.301C690.704 596.231 639.023 620.236 621.953 666.919C618.705 675.8 616.878 685.137 616.537 694.586L613 792.743H815C801.333 687.038 794.5 634.185 794.5 634.185Z" fill="#CBDBFE"/>
<path fill-rule="evenodd" clip-rule="evenodd" d="M785.863 443.726L832.102 439.879L840.067 386.393C840.312 384.754 841.838 383.623 843.477 383.867C844.789 384.063 845.817 385.097 846.005 386.41L854.591 446.464C855.451 452.478 851.273 458.051 845.259 458.91C845.21 458.917 845.161 458.924 845.112 458.93L790.788 465.952C783.999 466.83 777.747 462.136 776.696 455.371C775.838 449.845 779.621 444.669 785.147 443.811C785.385 443.774 785.623 443.746 785.863 443.726Z" fill="#DFE9FF"/>
<mask id="mask0" mask-type="alpha" maskUnits="userSpaceOnUse" x="614" y="233" width="208" height="406">
<path d="M667.694 634.564C664.455 635.811 660.886 636.345 657.196 635.992C655.828 635.862 654.473 635.615 653.147 635.256C640.157 631.738 632.478 618.355 635.996 605.365L641.446 585.242L641.368 585.286C637.1 587.638 632.062 588.162 627.403 586.736C617.889 583.826 612.536 573.756 615.446 564.242L643.898 465.291C646.241 453.767 650.435 439.57 657.206 419.003L658 416.242L658.033 416.501C666.37 391.315 678.428 356.828 695.446 306.742C695.763 305.812 705.128 277.678 705.446 276.742C707.46 274.058 711.269 273.513 713.954 275.527C715.043 276.344 715.826 277.503 716.178 278.818L722.446 302.242L731.048 239.057C731.569 235.226 735.097 232.543 738.928 233.065C741.657 233.436 743.915 235.374 744.696 238.015L745.946 242.242L817.569 475.014C820.471 484.447 821.946 494.26 821.946 504.129V597.742C821.946 620.386 803.59 638.742 780.946 638.742H685.743C679.275 638.742 673.146 637.242 667.694 634.564Z" fill="white"/>
</mask>
<g mask="url(#mask0)">
<path d="M667.694 634.564C664.455 635.811 660.886 636.345 657.196 635.992C655.828 635.862 654.473 635.615 653.147 635.256C640.157 631.738 632.478 618.355 635.996 605.365L641.446 585.242L641.368 585.286C637.1 587.638 632.062 588.162 627.403 586.736C617.889 583.826 612.536 573.756 615.446 564.242L643.898 465.291C646.241 453.767 650.435 439.57 657.206 419.003L658 416.242L658.033 416.501C666.37 391.315 678.428 356.828 695.446 306.742C695.763 305.812 705.128 277.678 705.446 276.742C707.46 274.058 711.269 273.513 713.954 275.527C715.043 276.344 715.826 277.503 716.178 278.818L722.446 302.242L731.048 239.057C731.569 235.226 735.097 232.543 738.928 233.065C741.657 233.436 743.915 235.374 744.696 238.015L745.946 242.242L817.569 475.014C820.471 484.447 821.946 494.26 821.946 504.129V597.742C821.946 620.386 803.59 638.742 780.946 638.742H685.743C679.275 638.742 673.146 637.242 667.694 634.564Z" fill="#CBDBFE"/>
<path fill-rule="evenodd" clip-rule="evenodd" d="M819.447 485.742C817.447 480.409 814.447 478.242 810.447 479.242C806.447 480.242 803.78 483.909 802.447 490.242C796.282 480.224 784.949 474.593 773.241 475.731C769.821 476.063 766.056 476.567 761.947 477.242C737.679 481.23 726.153 505.194 724.947 517.742C723.921 528.41 724.763 521.285 725 548.242C725.051 554.043 722.171 569.466 716.36 594.509C713.614 606.345 720.983 618.166 732.818 620.912C734.403 621.28 736.024 621.471 737.651 621.481C759.701 621.622 772.132 621.542 774.947 621.242C789.829 619.657 793.054 616.242 804 616.242C813.234 616.242 817.734 618.576 817.5 623.242C833.486 616.968 842.135 601.135 843.447 575.742C844.758 550.349 836.758 520.349 819.447 485.742Z" fill="#B0BFDC"/>
</g>
<path fill-rule="evenodd" clip-rule="evenodd" d="M772.946 598.242H780.946L778.645 608.725C778.471 609.52 777.831 610.13 777.028 610.267C775.94 610.453 774.906 609.721 774.72 608.633L772.946 598.242ZM811.946 598.242H819.946L817.645 608.725C817.471 609.52 816.831 610.13 816.028 610.267C814.94 610.453 813.906 609.721 813.72 608.633L811.946 598.242Z" fill="white"/>
<mask id="mask1" mask-type="alpha" maskUnits="userSpaceOnUse" x="943" y="780" width="355" height="342">
<path d="M1139.05 882.811C1161.19 828.367 1176.41 798.156 1184.7 792.178C1194.87 784.851 1206.41 786.628 1211.29 792.662C1227.37 777.078 1243.3 776.747 1259.07 791.668C1260.43 792.586 1261.68 793.511 1262.81 794.442C1268.21 794.377 1273.68 795.434 1279.21 797.611C1307 808.552 1303.11 831.174 1267.52 865.479L1165.75 982.608C1153.66 996.516 1137.94 1006.78 1120.31 1012.26C1115.77 1013.68 1109.97 1018.44 1102.91 1026.57C1096.64 1033.78 1093.24 1039.2 1092.7 1042.83C1089.92 1061.6 1081.86 1079.16 1069.44 1093.44L1056.4 1108.45C1055.34 1109.67 1054.19 1110.83 1052.98 1111.9C1037.69 1125.39 1014.25 1123.85 1000.64 1108.47L976.701 1081.42L976.514 1081.59L976.231 1080.89L971.642 1075.7L973.437 1073.93L943.47 999.29L1069.77 882.3L1137.74 884.544C1138.18 883.964 1138.61 883.387 1139.05 882.811Z" fill="white"/>
</mask>
<g mask="url(#mask1)">
<path d="M1139.05 882.812C1161.19 828.367 1176.41 798.156 1184.7 792.179C1194.87 784.851 1206.42 786.628 1211.29 792.662C1227.37 777.079 1243.3 776.747 1259.07 791.668C1260.43 792.587 1261.68 793.511 1262.81 794.442C1268.21 794.377 1273.68 795.434 1279.21 797.612C1307 808.552 1303.11 831.175 1267.52 865.48L1165.75 982.608C1153.66 996.517 1137.94 1006.78 1120.31 1012.27C1115.77 1013.68 1109.97 1018.45 1102.91 1026.57C1096.64 1033.78 1093.24 1039.2 1092.7 1042.83C1089.92 1061.6 1081.86 1079.16 1069.44 1093.44L1056.4 1108.45C1055.34 1109.67 1054.19 1110.83 1052.98 1111.9C1037.68 1125.39 1014.25 1123.85 1000.64 1108.47L976.701 1081.42L976.514 1081.59L976.231 1080.89L971.642 1075.7L973.437 1073.93L943.47 999.291L1069.77 882.3L1137.74 884.545C1138.18 883.965 1138.61 883.387 1139.05 882.812Z" fill="#8093B8"/>
</g>
<mask id="mask2" mask-type="alpha" maskUnits="userSpaceOnUse" x="731" y="542" width="51" height="29">
<path d="M767.946 542.742H745.946C738.214 542.742 731.946 549.01 731.946 556.742C731.946 564.474 738.214 570.742 745.946 570.742H767.946C775.678 570.742 781.946 564.474 781.946 556.742C781.946 549.01 775.678 542.742 767.946 542.742Z" fill="white"/>
</mask>
<g mask="url(#mask2)">
<path d="M767.946 542.742H745.946C738.214 542.742 731.946 549.01 731.946 556.742C731.946 564.474 738.214 570.742 745.946 570.742H767.946C775.678 570.742 781.946 564.474 781.946 556.742C781.946 549.01 775.678 542.742 767.946 542.742Z" fill="white"/>
<path d="M782.446 553.742C782.446 547.667 777.521 542.742 771.446 542.742C765.371 542.742 760.446 547.667 760.446 553.742V559.742C760.446 565.817 765.371 570.742 771.446 570.742C777.521 570.742 782.446 565.817 782.446 559.742V553.742Z" fill="#2B2B2B"/>
</g>
<mask id="mask3" mask-type="alpha" maskUnits="userSpaceOnUse" x="808" y="542" width="14" height="29">
<path d="M821.946 542.742V570.742C814.49 570.742 808.446 564.698 808.446 557.242V556.242C808.446 548.786 814.49 542.742 821.946 542.742Z" fill="white"/>
</mask>
<g mask="url(#mask3)">
<path d="M821.946 542.742V570.742C814.49 570.742 808.446 564.698 808.446 557.242V556.242C808.446 548.786 814.49 542.742 821.946 542.742Z" fill="white"/>
<path d="M837.946 553.742C837.946 547.667 833.021 542.742 826.946 542.742C820.871 542.742 815.946 547.667 815.946 553.742V559.742C815.946 565.817 820.871 570.742 826.946 570.742C833.021 570.742 837.946 565.817 837.946 559.742V553.742Z" fill="#2B2B2B"/>
</g>
<path fill-rule="evenodd" clip-rule="evenodd" d="M1044 966.242C1060.12 963.762 1073.74 952.975 1079.85 937.852L1080 937.492C1086.26 921.998 1084.5 904.415 1075.28 890.474L1070.5 883.242C1088.03 889.618 1107.41 880.573 1113.79 863.04C1113.94 862.63 1114.08 862.218 1114.21 861.802L1120 843.742C1091.17 846.526 1070.84 844.526 1059 837.742C1047.16 830.958 1037.16 822.625 1029 812.742L1019.5 828.742L1044 966.242Z" fill="#9AACD3"/>
<mask id="mask4" mask-type="alpha" maskUnits="userSpaceOnUse" x="808" y="966" width="422" height="158">
<path d="M1070.45 1037.09C1126.18 1018.2 1159.03 1009.92 1169 1012.24C1181.22 1015.09 1187.47 1024.92 1186.12 1032.52C1208.47 1034.43 1219.2 1046.17 1218.28 1067.74L1215.21 1068.98C1220.51 1073.59 1224.45 1079.51 1227.03 1086.74C1237.03 1114.74 1217.37 1126.58 1168.03 1122.24H1012.55C994.091 1122.24 975.989 1117.13 960.252 1107.47C956.198 1104.99 948.78 1103.74 938 1103.74C928.422 1103.74 922.084 1104.72 918.986 1106.69C902.969 1116.85 884.393 1122.24 865.426 1122.24H845.504C843.881 1122.24 842.259 1122.14 840.65 1121.92C820.392 1119.24 806.143 1100.65 808.824 1080.39L813.538 1044.77L813.285 1044.74L813.631 1044.07L814.535 1037.24L817.055 1037.43L853.785 966.242L1025.28 984.742L1068.28 1037.24C1069.01 1037.19 1069.73 1037.14 1070.45 1037.09Z" fill="white"/>
</mask>
<g mask="url(#mask4)">
<path d="M1070.45 1037.09C1126.18 1018.2 1159.03 1009.92 1169 1012.24C1181.22 1015.09 1187.47 1024.92 1186.12 1032.52C1208.47 1034.43 1219.2 1046.17 1218.28 1067.74L1215.21 1068.98C1220.51 1073.59 1224.45 1079.51 1227.03 1086.74C1237.03 1114.74 1217.37 1126.58 1168.03 1122.24H1012.55C994.091 1122.24 975.989 1117.13 960.252 1107.47C956.198 1104.99 948.78 1103.74 938 1103.74C928.422 1103.74 922.084 1104.72 918.986 1106.69C902.969 1116.85 884.393 1122.24 865.426 1122.24H845.504C843.881 1122.24 842.259 1122.14 840.65 1121.92C820.392 1119.24 806.143 1100.65 808.824 1080.39L813.538 1044.77L813.285 1044.74L813.631 1044.07L814.535 1037.24L817.055 1037.43L853.785 966.242L1025.28 984.742L1068.28 1037.24C1069.01 1037.19 1069.73 1037.14 1070.45 1037.09Z" fill="#B0BFDC"/>
<path d="M1220.14 1067.09C1219.74 1066.53 1218.98 1065.63 1217.8 1064.51C1215.89 1062.68 1213.5 1060.86 1210.58 1059.18C1196.66 1051.15 1176.48 1048.76 1149.04 1055.3C1147.96 1055.55 1147.3 1056.63 1147.55 1057.71C1147.81 1058.78 1148.89 1059.44 1149.96 1059.19C1176.44 1052.88 1195.59 1055.14 1208.58 1062.64C1211.21 1064.16 1213.35 1065.79 1215.04 1067.4C1215.61 1067.95 1216.09 1068.46 1216.47 1068.91C1216.69 1069.16 1216.82 1069.33 1216.86 1069.39C1217.5 1070.3 1218.74 1070.51 1219.65 1069.88C1220.55 1069.24 1220.77 1068 1220.14 1067.09Z" fill="#7181A1"/>
<path d="M1226.16 1084.24C1227.27 1084.24 1228.16 1085.14 1228.16 1086.24C1228.16 1087.35 1227.27 1088.24 1226.16 1088.24C1223.23 1088.24 1209.43 1085.07 1199.92 1081.96C1193.73 1079.93 1188.97 1077.89 1186.07 1075.86C1181.92 1072.97 1181.05 1069.31 1185.04 1066.59C1192.99 1061.17 1204.4 1061.17 1219.16 1066.36C1220.2 1066.72 1220.75 1067.86 1220.39 1068.91C1220.02 1069.95 1218.88 1070.5 1217.84 1070.13C1204.15 1065.32 1194 1065.32 1187.29 1069.89C1186.11 1070.7 1186.2 1071.07 1188.35 1072.58C1190.86 1074.33 1195.32 1076.24 1201.16 1078.15C1210.3 1081.15 1223.77 1084.24 1226.16 1084.24ZM1201.5 1030.24C1202.6 1030.24 1203.5 1031.14 1203.5 1032.24C1203.5 1033.35 1202.6 1034.24 1201.5 1034.24C1198.23 1034.24 1195.9 1033.99 1191.1 1033.26L1190.97 1033.24C1184.13 1032.2 1180.8 1031.99 1175.52 1032.69C1168.48 1033.62 1159.94 1036.33 1148.68 1041.45C1147.67 1041.91 1146.48 1041.47 1146.03 1040.46C1145.57 1039.46 1146.01 1038.27 1147.02 1037.81C1158.62 1032.53 1167.52 1029.71 1175 1028.73C1180.74 1027.97 1184.39 1028.19 1191.57 1029.28L1191.71 1029.3C1196.32 1030.01 1198.49 1030.24 1201.5 1030.24Z" fill="#7181A1"/>
</g>
<path fill-rule="evenodd" clip-rule="evenodd" d="M801.287 529.271L815.522 573.838C816.99 578.436 814.453 583.354 809.855 584.823C809.044 585.082 808.199 585.221 807.348 585.236L802.7 585.317C798.835 585.385 795.647 582.306 795.579 578.44C795.579 578.407 795.578 578.373 795.578 578.34L795.43 530.193C795.424 528.536 796.763 527.189 798.42 527.184C799.729 527.18 800.889 528.024 801.287 529.271Z" fill="#7181A1"/>
<mask id="mask5" mask-type="alpha" maskUnits="userSpaceOnUse" x="580" y="679" width="490" height="359">
<path d="M618 769.742L582.406 928.21C572.724 971.319 599.821 1014.11 642.93 1023.8C648.684 1025.09 654.564 1025.74 660.462 1025.74H742.216C779.56 1025.74 813.792 1004.93 830.986 971.785L865.5 905.242L814.5 1037.24H837.941C863.565 1037.24 887.787 1025.55 903.722 1005.48L919 986.242V1004.24C919 1022.47 933.774 1037.24 952 1037.24C971.809 1037.24 989.498 1024.84 996.253 1006.22L1003.5 986.242L1011.56 1001.75C1022.89 1023.56 1045.42 1037.24 1070 1037.24C1046.69 967.693 1033.35 911.86 1030 869.742C1026.65 827.624 1030.48 764.124 1041.5 679.242H942.5L764 786.242L618 769.742Z" fill="white"/>
</mask>
<g mask="url(#mask5)">
<path d="M618 769.742L582.406 928.21C572.724 971.319 599.821 1014.11 642.93 1023.8C648.684 1025.09 654.564 1025.74 660.462 1025.74H742.216C779.56 1025.74 813.792 1004.93 830.986 971.785L865.5 905.242L814.5 1037.24H837.941C863.565 1037.24 887.787 1025.55 903.722 1005.48L919 986.242V1004.24C919 1022.47 933.774 1037.24 952 1037.24C971.809 1037.24 989.498 1024.84 996.253 1006.22L1003.5 986.242L1011.56 1001.75C1022.89 1023.56 1045.42 1037.24 1070 1037.24C1046.69 967.693 1033.35 911.86 1030 869.742C1026.65 827.624 1030.48 764.124 1041.5 679.242H942.5L764 786.242L618 769.742Z" fill="#9AACD3"/>
</g>
<path d="M736.861 608.156C742.169 602.848 746.154 600.242 748.446 600.242H820.946C822.051 600.242 822.946 599.347 822.946 598.242C822.946 597.138 822.051 596.242 820.946 596.242H748.446C744.738 596.242 740.057 599.303 734.032 605.328C733.251 606.109 733.251 607.375 734.032 608.156C734.813 608.937 736.079 608.937 736.861 608.156Z" fill="#7181A1"/>
<mask id="mask6" mask-type="alpha" maskUnits="userSpaceOnUse" x="733" y="542" width="48" height="29">
<path d="M780.073 549.742H733.819C736.24 545.558 740.764 542.742 745.946 542.742H767.946C773.128 542.742 777.653 545.558 780.073 549.742V549.742ZM779.437 564.742C776.907 568.369 772.704 570.742 767.946 570.742H745.946C741.189 570.742 736.986 568.369 734.456 564.742H779.437Z" fill="white"/>
</mask>
<g mask="url(#mask6)">
<path d="M780.073 549.742H733.819C736.24 545.558 740.764 542.742 745.946 542.742H767.946C773.128 542.742 777.653 545.558 780.073 549.742V549.742ZM779.437 564.742C776.907 568.369 772.704 570.742 767.946 570.742H745.946C741.189 570.742 736.986 568.369 734.456 564.742H779.437Z" fill="#7181A1"/>
</g>
<path fill-rule="evenodd" clip-rule="evenodd" d="M1036.35 628.755L951.655 681.547L1074.15 704.025L1128.21 663.96C1139.7 655.447 1148.84 644.211 1154.78 631.32L1169.62 599.062C1174.52 588.433 1174.09 576.232 1168.47 566.14L1160.31 551.491L1159.9 551.747C1158.39 542.929 1156.6 532.44 1154.51 520.279C1153.37 513.575 1149.24 507.777 1143.26 504.467L1137.67 501.368L1127.98 496.852L1127.16 488.276L1069.74 438.212C1069.57 438.065 1069.4 437.921 1069.22 437.781C1062.3 432.249 1052.06 433.384 1046.34 440.316C1041.2 446.542 1040.85 455.114 1045.01 461.489C1040.55 462.411 1036.52 465.32 1034.37 469.705C1034.06 470.339 1033.79 470.993 1033.58 471.662C1030.56 480.935 1035.08 490.842 1044.06 494.606L1093.12 515.187C1095.86 544.413 1097.23 559.026 1097.23 559.026C1097.23 559.026 1047.38 596.067 1032.78 598.733C1023.05 600.51 1015.64 598.348 1010.55 592.245L1031.68 531.532C1031.74 531.357 1031.8 531.181 1031.85 531.004C1034.71 521.865 1029.56 512.296 1020.36 509.631C1010.74 506.844 1000.49 512.158 997.221 521.626C977.769 577.959 968.93 611.336 970.704 621.757C973.623 638.9 950.827 681.834 950.827 681.834L1036.35 628.755Z" fill="#B0BFDC"/>
<mask id="mask7" mask-type="alpha" maskUnits="userSpaceOnUse" x="809" y="542" width="13" height="29">
<path d="M821.946 549.742H809.819C812.24 545.558 816.764 542.742 821.946 542.742V549.742ZM821.946 570.742C817.189 570.742 812.986 568.369 810.456 564.742H821.946V570.742Z" fill="white"/>
</mask>
<g mask="url(#mask7)">
<path d="M821.946 549.742H809.819C812.24 545.558 816.764 542.742 821.946 542.742V549.742ZM821.946 570.742C817.189 570.742 812.986 568.369 810.456 564.742H821.946V570.742Z" fill="#7181A1"/>
</g>
<path fill-rule="evenodd" clip-rule="evenodd" d="M1082.89 414.288L1016.46 412.32C1009.35 412.109 1003.21 417.271 1002.19 424.316L980.865 572.241L1063.91 582.604L1076.93 573.583L1096.35 430.16C1097.38 422.498 1092.01 415.446 1084.35 414.408C1083.87 414.343 1083.38 414.303 1082.89 414.288Z" fill="#2B2B2B"/>
<path d="M1030.5 569.742C1024.7 569.742 1020 565.041 1020 559.242C1020 553.443 1024.7 548.742 1030.5 548.742C1036.3 548.742 1041 553.443 1041 559.242C1041 565.041 1036.3 569.742 1030.5 569.742ZM1030.5 565.742C1034.09 565.742 1037 562.832 1037 559.242C1037 555.652 1034.09 552.742 1030.5 552.742C1026.91 552.742 1024 555.652 1024 559.242C1024 562.832 1026.91 565.742 1030.5 565.742ZM1058.36 420.589C1058.65 420.599 1058.82 420.586 1058.89 420.566C1058.88 420.568 1058.88 420.567 1058.91 420.542C1059.02 420.449 1059.15 420.26 1059.26 419.964C1059.41 419.528 1059.48 419.084 1059.52 417.883L1059.53 417.728L1060.73 412.825L1063.64 413.54L1062.52 418.144C1062.46 419.528 1062.35 420.237 1062.08 420.985C1061.8 421.756 1061.38 422.395 1060.82 422.856C1060.13 423.425 1059.41 423.627 1058.26 423.587L1038.4 422.893C1037.24 422.853 1036.54 422.601 1035.89 421.986C1035.37 421.487 1035 420.82 1034.77 420.032C1034.55 419.238 1034.49 418.498 1034.54 417.01L1034.54 416.855L1035.75 411.953L1038.66 412.667L1037.53 417.268C1037.5 418.356 1037.54 418.784 1037.66 419.21C1037.74 419.512 1037.85 419.71 1037.96 419.811C1037.99 419.838 1037.99 419.838 1037.98 419.835C1038.05 419.86 1038.21 419.885 1038.5 419.895L1058.36 420.589Z" fill="white"/>
<mask id="mask8" mask-type="alpha" maskUnits="userSpaceOnUse" x="531" y="1025" width="271" height="98">
<path d="M589.255 1058.36L531 1122.24H802L774.467 1075.22C756.525 1044.57 723.679 1025.74 688.17 1025.74H663.145C635.024 1025.74 608.203 1037.58 589.255 1058.36Z" fill="white"/>
</mask>
<g mask="url(#mask8)">
<path d="M589.255 1058.36L531 1122.24H802L774.467 1075.22C756.525 1044.57 723.679 1025.74 688.17 1025.74H663.145C635.024 1025.74 608.203 1037.58 589.255 1058.36Z" fill="#DFE9FF"/>
<path d="M563.523 1077.01L566.773 1073.51C590.166 1095.46 614.735 1106.38 640.551 1106.38C661.269 1106.38 684.264 1096.4 699.299 1079.55C717.173 1059.52 722.857 1031.87 712.88 998.553L717.44 997.172C727.888 1032.06 721.847 1061.46 702.844 1082.75C686.892 1100.62 662.601 1111.17 640.551 1111.17C613.453 1111.17 587.753 1099.75 563.523 1077.01ZM772.094 1065.41L773.906 1070.07C744.959 1081.33 733.009 1099.73 737.464 1125.82L732.536 1126.66C727.658 1098.09 741.041 1077.49 772.094 1065.41Z" fill="white"/>
<path d="M570.523 1057.75C590.758 1076.66 612.242 1086.17 634.904 1086.17C653.37 1086.17 673.695 1077.38 687.048 1062.47C702.954 1044.72 708.01 1020.22 699.277 991.172L694.701 992.536C702.966 1020.03 698.265 1042.81 683.483 1059.31C671.05 1073.19 652.028 1081.42 634.904 1081.42C613.534 1081.42 593.187 1072.41 573.793 1054.28L570.523 1057.75Z" fill="white"/>
</g>
<path fill-rule="evenodd" clip-rule="evenodd" d="M826.947 475.243C831.447 493.243 826.947 501.743 811.947 501.743C801.947 501.743 791.947 497.076 781.947 487.743C787.28 497.076 784.28 501.743 772.947 501.743C755.947 501.743 753.447 491.184 753.447 490.243C753.447 489.301 752.833 473.235 756.447 469.743C758.304 467.948 766.813 467.948 781.974 469.743C808.956 461.409 823.947 463.243 826.947 475.243Z" fill="#CBDBFE"/>
<path fill-rule="evenodd" clip-rule="evenodd" d="M706.539 524.365C711.039 542.365 706.539 550.865 691.539 550.865C681.539 550.865 671.539 546.198 661.539 536.865C666.873 546.198 663.873 550.865 652.539 550.865C635.539 550.865 633.039 540.306 633.039 539.365C633.039 538.424 632.426 522.357 636.039 518.865C637.897 517.07 646.406 517.07 661.567 518.865C688.549 510.532 703.539 512.365 706.539 524.365Z" fill="#CBDBFE"/>
<path fill-rule="evenodd" clip-rule="evenodd" d="M1044.5 397.742L1033 370.742H1031.5C1008.3 370.742 989.5 351.938 989.5 328.742V280.242C989.5 257.046 1008.3 238.242 1031.5 238.242H1161.5C1184.7 238.242 1203.5 257.046 1203.5 280.242V328.742C1203.5 351.938 1184.7 370.742 1161.5 370.742H1064.5L1044.5 397.742Z" fill="#DFE9FF"/>
<path fill-rule="evenodd" clip-rule="evenodd" d="M947.826 675.622C947.826 675.622 972.755 633.862 970.711 616.538C969.468 606.006 979.983 573.061 1002.25 517.702C1006 508.398 1016.5 503.632 1025.96 506.943C1035.61 510.322 1041.1 520.34 1038.74 530.271L1026.01 583.811C1024.62 589.633 1028.25 595.404 1034.12 596.701C1035.15 596.929 1036.21 597.007 1037.27 596.932" fill="#B0BFDC"/>
<path fill-rule="evenodd" clip-rule="evenodd" d="M768.678 532.509L735.565 538.452C735.022 538.549 734.502 538.188 734.404 537.644C734.376 537.487 734.386 537.324 734.434 537.171L736.196 531.493C737.581 527.03 741.313 523.695 745.902 522.817L757.61 520.579L762.946 523.243L762.801 519.587L765.566 519.058C768.824 518.435 771.97 520.571 772.593 523.829C772.651 524.131 772.685 524.436 772.696 524.743L772.791 527.409C772.88 529.896 771.127 532.069 768.678 532.509ZM812.504 520.875C810.394 520.203 808.977 518.224 809.021 516.009L809.112 511.486C809.121 511.056 809.196 510.629 809.334 510.221C810.08 508.02 812.468 506.841 814.669 507.587L814.587 511.243L817.597 508.579L821.437 509.88C825.734 511.337 828.894 515.023 829.677 519.493L830.661 525.117C830.689 525.276 830.678 525.439 830.629 525.592C830.462 526.119 829.899 526.41 829.373 526.242L812.504 520.875Z" fill="#CBDBFE"/>
<path fill-rule="evenodd" clip-rule="evenodd" d="M793.739 633.582L810.684 624.572L812.733 640.891C813.131 644.062 812.13 647.251 809.99 649.625C805.923 654.138 798.967 654.499 794.454 650.432L790.651 647.004L788.617 655.846C787.622 660.17 784.876 663.888 781.035 666.109C773.386 670.534 763.599 667.919 759.174 660.27L751.034 646.196L740.28 668.466C738.169 672.838 734.187 676.015 729.455 677.102C720.843 679.081 712.257 673.704 710.278 665.092L705.557 644.544L697.712 656.702C695.086 660.772 690.757 663.433 685.939 663.939C677.151 664.863 669.279 658.487 668.355 649.698L666.358 630.688C682.628 629.233 693.99 629.252 700.446 630.742C702.135 631.132 703.56 631.64 704.722 632.264C708.493 630.544 713.734 630.037 720.446 630.742C726.516 631.38 734.732 633.109 745.095 635.929L744.104 634.216L795.464 626.081L793.739 633.582Z" fill="#CBDBFE"/>
<path d="M708.471 665.71C710.697 675.399 720.356 681.448 730.045 679.222C735.368 677.999 739.848 674.425 742.223 669.506L751.335 650.637L757.585 661.442C762.562 670.047 773.573 672.988 782.179 668.011C786.5 665.512 789.589 661.33 790.708 656.465L791.98 650.937L793.257 652.088C794.078 652.828 795.342 652.762 796.082 651.941C796.821 651.121 796.755 649.856 795.935 649.117L792.132 645.689C790.999 644.668 789.186 645.24 788.844 646.726L786.81 655.568C785.939 659.352 783.537 662.605 780.176 664.549C773.483 668.42 764.919 666.132 761.047 659.439L752.907 645.365C752.103 643.976 750.072 644.052 749.374 645.497L738.621 667.767C736.774 671.592 733.289 674.372 729.149 675.324C721.614 677.055 714.101 672.35 712.369 664.815L707.648 644.267C707.252 642.543 704.977 642.144 704.018 643.63L696.173 655.788C693.875 659.349 690.088 661.678 685.872 662.121C678.183 662.929 671.294 657.35 670.486 649.66L668.489 630.649C668.374 629.551 667.39 628.754 666.291 628.869C665.193 628.984 664.396 629.968 664.511 631.067L666.508 650.078C667.547 659.965 676.403 667.137 686.29 666.099C691.71 665.53 696.58 662.536 699.534 657.957L704.81 649.78L708.471 665.71Z" fill="#B0BFDC"/>
<path fill-rule="evenodd" clip-rule="evenodd" d="M670.865 454.471L624.945 461.125L605.152 410.801C604.546 409.26 602.804 408.501 601.262 409.108C600.028 409.593 599.259 410.832 599.371 412.154L604.514 472.6C605.029 478.654 610.354 483.143 616.407 482.628C616.456 482.624 616.505 482.62 616.554 482.615L671.065 477.237C677.878 476.565 682.914 470.584 682.416 463.757C682.01 458.179 677.158 453.987 671.581 454.394C671.341 454.411 671.103 454.437 670.865 454.471Z" fill="#DFE9FF"/>
<path fill-rule="evenodd" clip-rule="evenodd" d="M646.466 627.502L758 781.742L947.113 627.504C949.369 625.664 951.723 623.947 954.164 622.361L971.563 611.052C976.886 607.591 983.836 607.972 988.75 611.992C994.091 616.362 997.788 622.418 999.233 629.165L1000 632.742L1013.46 626.152C1020.15 622.873 1028.24 625.642 1031.52 632.337C1033.36 636.093 1033.35 640.49 1031.5 644.242L1048.17 641.396C1050.72 640.961 1053.3 640.818 1055.88 640.968L1096.48 643.337C1103.65 643.755 1109.12 649.905 1108.7 657.072C1108.66 657.842 1108.55 658.606 1108.37 659.355L1103.23 680.696C1102.75 682.694 1101.77 684.534 1100.37 686.041L1062.56 726.893C1060.19 729.457 1057.65 731.864 1054.97 734.1L760.74 979.292C752.822 985.891 741.284 985.767 733.509 978.999L642.357 899.656C630.377 889.229 623.5 874.125 623.5 858.242L618.765 862.061C612.526 867.092 603.585 866.958 597.5 861.742C591.078 856.238 588.367 847.548 590.519 839.368L594.5 824.242L589.472 828.459C583.707 833.295 575.113 832.541 570.278 826.775C570.268 826.764 570.259 826.753 570.25 826.742C564.801 820.204 563.078 811.332 565.682 803.23L570.5 788.242L564.15 792.476C558.268 796.397 550.426 795.563 545.5 790.492C540.381 785.223 539.046 777.342 542.144 770.681L606.973 631.28C612.329 619.762 626.009 614.767 637.527 620.124C641.087 621.78 644.165 624.32 646.466 627.502Z" fill="#CBDBFE"/>
<path d="M711.666 715.136C711.055 714.216 709.814 713.965 708.894 714.576C707.974 715.187 707.723 716.429 708.334 717.349L751.834 782.849C752.473 783.811 753.791 784.033 754.71 783.335L779.71 764.335C780.59 763.666 780.761 762.412 780.093 761.532C779.424 760.653 778.169 760.482 777.29 761.15L753.987 778.86L711.666 715.136Z" fill="#B0BFDC"/>
<path d="M1049.42 961.7C1049.34 961.412 1048.6 958.926 1048.33 958.026C1047.63 955.661 1046.93 953.227 1046.19 950.515C1044.1 942.856 1042.07 934.511 1040.16 925.411C1032.54 889.017 1029 851.026 1031.76 813.677C1031.84 812.576 1031.01 811.617 1029.91 811.535C1028.81 811.454 1027.85 812.281 1027.77 813.382C1024.98 851.146 1028.55 889.497 1036.25 926.231C1038.17 935.412 1040.22 943.836 1042.34 951.569C1043.08 954.309 1043.79 956.77 1044.49 959.161C1044.77 960.093 1045.5 962.537 1045.57 962.785C1045.87 963.848 1046.98 964.467 1048.04 964.168C1049.11 963.868 1049.72 962.764 1049.42 961.7Z" fill="#CBDBFE"/>
<path d="M721.62 304.584L737.708 351.383C738.067 352.427 739.205 352.983 740.25 352.624C741.294 352.265 741.85 351.127 741.491 350.082L725.403 303.283C725.044 302.239 723.906 301.683 722.861 302.042C721.817 302.401 721.261 303.539 721.62 304.584Z" fill="#7181A1"/>
<mask id="mask9" mask-type="alpha" maskUnits="userSpaceOnUse" x="652" y="523" width="43" height="55">
<path d="M684.284 577.668C662.761 576.774 652 567.905 652 551.06C652 533.733 663.386 524.644 686.158 523.793C685.59 524.857 685.17 526.3 685 528.243C684.435 534.698 687.488 537.874 694.16 537.77C682.566 546.86 676.68 555.017 676.5 562.243C676.342 568.578 679.112 574.286 684.284 577.668Z" fill="white"/>
</mask>
<g mask="url(#mask9)">
<path d="M684.284 577.668C662.761 576.774 652 567.905 652 551.06C652 533.733 663.386 524.644 686.158 523.793C685.59 524.857 685.17 526.3 685 528.243C684.435 534.698 687.488 537.874 694.16 537.77C682.566 546.86 676.68 555.017 676.5 562.243C676.342 568.578 679.112 574.286 684.284 577.668Z" fill="#B0BFDC"/>
</g>
<path d="M1123.53 491.577C1123.34 490.488 1124.08 489.456 1125.17 489.271C1126.25 489.086 1127.29 489.819 1127.47 490.908L1138.54 556.083C1140.17 565.67 1136.71 575.415 1129.39 581.825L1103.82 604.246C1102.99 604.975 1101.72 604.892 1101 604.061C1100.27 603.23 1100.35 601.967 1101.18 601.239L1126.76 578.817C1133.02 573.323 1135.99 564.97 1134.6 556.753L1123.53 491.577ZM1157.02 553.554C1156.85 552.463 1157.6 551.439 1158.69 551.267C1159.78 551.095 1160.8 551.84 1160.98 552.931L1163.9 571.448C1164.99 578.363 1163.45 585.436 1159.59 591.273L1140.67 619.847C1140.06 620.768 1138.82 621.02 1137.9 620.41C1136.98 619.8 1136.72 618.559 1137.33 617.638L1156.25 589.065C1159.57 584.062 1160.88 577.999 1159.95 572.072L1157.02 553.554ZM1093.93 513.216C1094.22 514.282 1093.59 515.381 1092.53 515.672C1091.46 515.963 1090.36 515.334 1090.07 514.269L1087.07 503.269C1086.78 502.203 1087.41 501.104 1088.47 500.813C1089.54 500.522 1090.64 501.151 1090.93 502.216L1093.93 513.216ZM1012.5 507.669C1012.54 506.565 1013.47 505.703 1014.57 505.744C1015.68 505.784 1016.54 506.712 1016.5 507.816C1015.8 526.817 1008.59 537.995 994.888 540.705C993.805 540.919 992.753 540.214 992.538 539.131C992.324 538.047 993.029 536.995 994.112 536.78C1005.74 534.48 1011.87 524.991 1012.5 507.669Z" fill="#7181A1"/>
<path d="M1070.47 310.27V319.694H1061.79V326.762H1050.63V319.694H1020V310.27L1050.63 283.362H1061.79V310.27H1070.47ZM1032.03 310.27H1050.63V294.522L1032.03 310.27ZM1098.8 327.382C1081.57 327.382 1073.38 319.446 1073.38 305C1073.38 290.616 1081.57 282.742 1098.8 282.742C1115.98 282.742 1124.22 290.678 1124.22 305C1124.22 319.384 1115.98 327.382 1098.8 327.382ZM1098.8 318.02C1108.6 318.02 1113.06 313.122 1113.06 305C1113.06 296.94 1108.6 292.104 1098.8 292.104C1089.01 292.104 1084.54 296.878 1084.54 305C1084.54 313.184 1089.01 318.02 1098.8 318.02ZM1178.35 310.27V319.694H1169.67V326.762H1158.51V319.694H1127.88V310.27L1158.51 283.362H1169.67V310.27H1178.35ZM1139.91 310.27H1158.51V294.522L1139.91 310.27Z" fill="white"/>
</svg>
